mtllib material.mtl
usemtl mtl_leg_ankle_attach
v 0.02239989 0.02538030 0.00114053
v 0.01906984 0.02276062 0.00536209
v 0.02147215 0.02051283 0.00537215
v 0.02285223 -0.02501811 0.00108396
v 0.02138639 -0.02060505 0.00536866
v 0.01896371 -0.02284734 0.00535756
v 0.01958513 -0.02684326 0.00177190
v 0.01619613 -0.02488999 0.00537157
v 0.01292828 -0.02678960 0.00530318
v 0.01905201 0.02677854 0.00214844
v 0.01623174 0.02480719 0.00546606
v 0.01271092 0.02686851 0.00531989
v 0.02590709 -0.02198197 0.00096943
v 0.02370195 -0.01788701 0.00537407
v 0.02722206 -0.01185811 0.00537445
v 0.03211468 -0.01108336 0.00097354
v 0.02839679 -0.00868980 0.00536775
v 0.02819304 -0.01894265 0.00093882
v 0.02569349 -0.01488862 0.00537694
v 0.03012321 -0.01570960 0.00097273
v 0.03332799 -0.00642268 0.00103388
v 0.02923133 -0.00522916 0.00537032
v 0.02964075 -0.00175699 0.00538340
v 0.03372269 -0.00010404 0.00130861
v 0.02966221 0.00146590 0.00537363
v 0.03352859 0.00412916 0.00127067
v 0.02925126 0.00511471 0.00536805
v 0.03284699 0.00872006 0.00092926
v 0.02843517 0.00855943 0.00537061
v 0.03186747 0.01163831 0.00105120
v 0.02744437 0.02002228 0.00098075
v 0.02378315 0.01777861 0.00537408
v 0.02575413 0.01478730 0.00537082
v 0.02723017 0.01173505 0.00549184
v 0.02998065 0.01582439 0.00108122
v 0.02495633 0.02304180 0.00094094
v 0.02330293 -0.02482841 0.00031989
v 0.02655964 -0.02097889 -0.00004319
v 0.02937233 -0.01681650 -0.00004319
v 0.03153793 -0.01228363 -0.00004319
v 0.03300874 -0.00748009 -0.00004319
v 0.03382834 -0.00370533 0.00058245
v 0.03375232 -0.00251182 -0.00004319
v 0.03397394 0.00148728 0.00058717
v 0.03388777 0.00326057 0.00028555
v 0.03300874 0.00748008 -0.00004319
v 0.03144823 0.01303923 0.00028555
v 0.02954262 0.01688596 0.00024734
v 0.02655964 0.02097889 -0.00004319
v 0.02330115 0.02482729 0.00027730
v 0.01226829 0.00674455 0.00000000
v 0.03149539 0.01226704 0.00000000
v 0.01356016 0.00348166 0.00000000
v 0.03296420 0.00747002 0.00000000
v 0.01400000 -0.00000000 0.00000000
v 0.02118722 0.02624045 0.00009008
v 0.02313056 0.02464583 0.00000000
v 0.01020556 0.00958366 0.00000000
v 0.02652381 0.02095060 0.00000000
v 0.02933271 0.01679381 0.00000000
v 0.01226829 -0.00674455 0.00000000
v 0.01356016 -0.00348166 0.00000000
v 0.03149539 -0.01226704 0.00000000
v 0.01866707 0.02718996 0.00004005
v 0.00750158 0.01182059 0.00000000
v 0.00432624 0.01331479 -0.00000000
v 0.00087907 0.01397237 0.00000000
v -0.01882515 0.02715397 0.00003963
v -0.01301687 -0.00515374 0.00000000
v -0.03309201 -0.00749898 0.00006272
v -0.01388961 -0.00175467 0.00000000
v -0.03383747 -0.00251815 0.00006272
v -0.01400000 0.00000000 0.00000000
v -0.03383747 0.00251815 0.00006272
v -0.01391897 0.00133252 0.00000001
v -0.03309201 0.00749898 0.00006272
v -0.01301687 0.00515374 0.00000000
v -0.01132624 -0.00822899 0.00000000
v -0.02955097 -0.01680742 0.00010869
v -0.03162621 -0.01231799 0.00008132
v -0.00892394 -0.01078719 0.00000000
v -0.02305640 -0.02501339 0.00013222
v -0.02663397 -0.02103762 0.00008133
v 0.03370679 0.00250843 0.00000000
v 0.03370679 -0.00250843 0.00000000
v 0.03296420 -0.00747002 0.00000000
v 0.00087907 -0.01397237 0.00000000
v 0.01836133 -0.02729293 0.00001536
v -0.00262334 -0.01375202 0.00000000
v -0.01642407 -0.02730000 0.00000000
v -0.00596091 -0.01266758 0.00000000
v -0.01887754 -0.02714898 0.00007651
v -0.02118722 -0.02624045 0.00009008
v -0.00262334 0.01375202 0.00000000
v -0.00596091 0.01266758 0.00000000
v -0.00892394 0.01078719 0.00000000
v -0.01132624 0.00822899 0.00000000
v -0.02323200 0.02472108 0.00006016
v -0.02125696 0.02619947 0.00008993
v -0.03162621 0.01231798 0.00008133
v -0.02944643 0.01685893 0.00006272
v -0.02663397 0.02103762 0.00008133
v 0.02313056 -0.02464583 0.00000000
v 0.01020556 -0.00958366 0.00000000
v 0.02652381 -0.02095060 0.00000000
v 0.02933271 -0.01679381 0.00000000
v 0.00432624 -0.01331479 0.00000000
v 0.00750158 -0.01182059 0.00000000
v 0.02125696 -0.02619947 0.00008993
v -0.02239989 -0.02538030 0.00114053
v -0.01906984 -0.02276062 0.00536209
v -0.02147215 -0.02051283 0.00537215
v -0.02281878 0.02515620 0.00096178
v -0.02138639 0.02060505 0.00536866
v -0.01896371 0.02284734 0.00535756
v -0.01958513 0.02684326 0.00177190
v -0.01619613 0.02488999 0.00537157
v -0.01292828 0.02678960 0.00530318
v -0.01905201 -0.02677854 0.00214844
v -0.01623174 -0.02480719 0.00546606
v -0.01271092 -0.02686851 0.00531989
v -0.02590709 0.02198197 0.00096943
v -0.02370195 0.01788701 0.00537407
v -0.02722206 0.01185811 0.00537445
v -0.03211468 0.01108336 0.00097354
v -0.02839679 0.00868980 0.00536775
v -0.02819304 0.01894265 0.00093882
v -0.02569349 0.01488862 0.00537694
v -0.03012321 0.01570960 0.00097273
v -0.03332799 0.00642268 0.00103388
v -0.02923133 0.00522916 0.00537032
v -0.02964075 0.00175699 0.00538340
v -0.03372269 0.00010404 0.00130861
v -0.02966221 -0.00146590 0.00537363
v -0.03348956 -0.00444211 0.00124924
v -0.02925126 -0.00511471 0.00536805
v -0.03308655 -0.00754826 0.00099285
v -0.02843517 -0.00855943 0.00537061
v -0.03222848 -0.01070381 0.00099337
v -0.02744437 -0.02002228 0.00098075
v -0.02378315 -0.01777861 0.00537408
v -0.02575413 -0.01478730 0.00537082
v -0.02723017 -0.01173505 0.00549184
v -0.02998065 -0.01582439 0.00108122
v -0.02495633 -0.02304180 0.00094094
v -0.03381125 0.00367473 0.00078833
v -0.03398426 0.00007293 0.00082039
v -0.03382041 -0.00351685 0.00080933
v -0.03129401 -0.01330738 0.00076831
v -0.01642407 0.02750000 0.00020000
v -0.01711765 0.02748161 0.00179859
v 0.01642407 0.02750000 0.00020000
v -0.00880353 0.02749031 0.00557947
v 0.01703504 0.02749098 0.00175987
v 0.00871087 0.02750480 0.00567399
v 0.01642407 -0.02750000 0.00020000
v 0.01711765 -0.02748161 0.00179859
v -0.01642407 -0.02750000 0.00020000
v 0.00880353 -0.02749031 0.00557947
v -0.01703504 -0.02749098 0.00175987
v -0.00871087 -0.02750480 0.00567399
v 0.00822255 -0.01127847 -0.00339702
v 0.01076907 -0.00887927 -0.00339702
v 0.01364053 -0.00283291 -0.00344188
v 0.01263892 -0.00592216 -0.00339702
v 0.00521006 -0.01295553 -0.00338750
v 0.00182447 -0.01384420 -0.00338750
v -0.00507071 -0.01301071 -0.00338750
v -0.00172667 -0.01385038 -0.00339702
v -0.00814703 -0.01134092 -0.00338750
v -0.01071145 -0.00895854 -0.00338750
v -0.01260283 -0.00601327 -0.00338750
v -0.01349604 -0.00350784 -0.00337441
v -0.01364093 0.00287004 -0.00343180
v -0.01388961 0.00175467 -0.00300000
v -0.01395188 -0.00119723 -0.00300176
v -0.00957128 0.01015898 -0.00339702
v -0.01183010 0.00741885 -0.00338750
v -0.01296105 0.00509780 -0.00340255
v -0.00679274 0.01220038 -0.00338750
v -0.00354522 0.01350637 -0.00338750
v 0.00340004 0.01354365 -0.00338750
v -0.00002286 0.01395757 -0.00339702
v 0.00666140 0.01227259 -0.00338750
v 0.01177252 0.00749815 -0.00339702
v 0.00950418 0.01023041 -0.00338750
v 0.01325711 0.00438629 -0.00338750
v 0.01388961 -0.00175467 -0.00300000
v 0.01394787 0.00113475 -0.00300058
v -0.01271502 -0.00442576 -0.00395374
v -0.01000000 0.00000000 -0.00400000
v -0.00955573 -0.00294755 -0.00400000
v -0.00826239 -0.00563320 -0.00400000
v -0.01051509 -0.00830059 -0.00394807
v -0.00349286 0.01291612 -0.00396792
v -0.00074730 0.00997204 -0.00400000
v -0.00365341 0.00930874 -0.00400000
v -0.01300000 -0.00000000 -0.00400000
v -0.01276306 0.00375713 -0.00398563
v -0.00955573 0.00294755 -0.00400000
v -0.00623490 -0.00781832 -0.00400000
v -0.00798836 -0.01075529 -0.00394692
v -0.00365341 -0.00930874 -0.00400000
v 0.00116198 0.01340024 -0.00394742
v 0.00222521 0.00974928 -0.00400000
v -0.00938804 0.00955636 -0.00395801
v -0.00623490 0.00781832 -0.00400000
v -0.00826239 0.00563320 -0.00400000
v 0.00308025 -0.01305166 -0.00394563
v -0.00074730 -0.00997204 -0.00400000
v 0.00222521 -0.00974928 -0.00400000
v 0.00500000 0.00866025 -0.00400000
v 0.00798836 0.01075529 -0.00394692
v 0.00733052 0.00680173 -0.00400000
v -0.00116705 -0.01340576 -0.00394366
v 0.00500000 -0.00866025 -0.00400000
v 0.00659523 -0.01164169 -0.00396792
v 0.00733052 -0.00680173 -0.00400000
v 0.01123566 -0.00729727 -0.00394692
v 0.00900969 -0.00433884 -0.00400000
v 0.01079328 0.00792245 -0.00396376
v 0.00900969 0.00433884 -0.00400000
v 0.00988831 0.00149042 -0.00400000
v 0.01337991 0.00147725 -0.00393383
v 0.00988831 -0.00149042 -0.00400000
v 0.01299602 -0.00356676 -0.00392616
v -0.01180604 0.00667828 -0.00386977
v -0.00641289 0.01190496 -0.00386814
v 0.00508519 0.01252973 -0.00386814
v 0.01228414 0.00565272 -0.00386814
v 0.00917207 -0.00993612 -0.00386814
v -0.00508519 -0.01252973 -0.00386814
v -0.01347668 -0.00153657 -0.00386977
v 0.01386658 0.00082479 -0.00350365
v -0.01386658 -0.00082479 -0.00350365
v 0.01400000 0.00000000 -0.00300000
v -0.01400000 0.00000000 -0.00300000
v -0.02855402 -0.01242595 0.00601795
v -0.03097287 -0.00381332 0.00602095
v -0.03025219 0.00031385 0.00599993
v -0.02138477 -0.02096920 0.00595731
v -0.02138509 -0.02280287 0.00603062
v -0.02670255 -0.01409544 0.00598616
v -0.02632765 -0.01687864 0.00603774
v -0.02041620 0.02259972 0.00599936
v -0.02091390 0.02321815 0.00601261
v -0.01224875 0.02731140 0.00595307
v -0.01128713 0.02908930 0.00601837
v -0.02841878 0.01095232 0.00599941
v -0.02613590 0.01715161 0.00602452
v 0.02041620 -0.02259972 0.00599936
v 0.02091390 -0.02321815 0.00601261
v 0.01224875 -0.02731140 0.00595307
v 0.01128713 -0.02908930 0.00601837
v 0.02841878 -0.01095232 0.00599941
v 0.03073019 -0.00569115 0.00601960
v 0.02613590 -0.01715161 0.00602452
v -0.00932363 0.02770447 0.00595178
v -0.03039937 0.00780305 0.00608336
v 0.00932363 -0.02770447 0.00595178
v 0.02889610 0.01176573 0.00603068
v 0.03061644 0.00616178 0.00603669
v 0.03130934 0.00112969 0.00605724
v 0.03025219 -0.00031385 0.00599993
v 0.02138477 0.02096920 0.00595731
v 0.02138509 0.02280287 0.00603062
v 0.02670255 0.01409544 0.00598616
v 0.02632765 0.01687864 0.00603774
v -0.03112967 0.00287002 0.00603062
v 0.00994750 0.02776157 0.00597412
v 0.00688963 0.03043690 0.00601702
v 0.01287625 0.02713716 0.00597775
v 0.01601468 0.02678414 0.00602095
v 0.01814374 0.02385733 0.00594088
v -0.00587714 0.03065150 0.00602227
v -0.00994750 -0.02776157 0.00597412
v -0.00688963 -0.03043690 0.00601702
v -0.01287625 -0.02713716 0.00597775
v -0.01601468 -0.02678414 0.00602095
v -0.01814374 -0.02385733 0.00594088
v 0.00587714 -0.03065150 0.00602227
v 0.00183080 0.03115936 0.00602419
v -0.00183080 -0.03115936 0.00602419
v -0.03107038 -0.00518473 0.01350000
v -0.03150000 0.00000000 0.01350000
v -0.03139241 -0.00260125 0.00650000
v -0.03080949 -0.00653292 0.00630532
v -0.02979324 -0.01022803 0.01350000
v -0.02987007 -0.00972215 0.00614434
v -0.02880842 -0.01266940 0.00631084
v -0.02770342 -0.01499234 0.01350000
v -0.02701890 -0.01618279 0.00630532
v -0.02485793 -0.01934770 0.01350000
v -0.02398679 -0.02040925 0.00630532
v -0.02133437 -0.02317530 0.01350000
v -0.02030040 -0.02407899 0.00630532
v -0.01722887 -0.02637074 0.01350000
v -0.01606025 -0.02709192 0.00630532
v -0.01265341 -0.02884686 0.01350000
v -0.01137156 -0.02932523 0.00618369
v -0.00773279 -0.03053611 0.01350000
v -0.00639331 -0.03083876 0.00630532
v -0.00260125 -0.03139241 0.01350000
v -0.00153347 -0.03146443 0.00649823
v 0.00260125 -0.03139241 0.01350000
v 0.00260125 -0.03139241 0.00650000
v 0.00414898 -0.03118027 0.00619233
v 0.00773278 -0.03053611 0.01350000
v 0.00905488 -0.03016476 0.00630532
v 0.01265341 -0.02884686 0.01350000
v 0.01389633 -0.02826298 0.00630532
v 0.01722887 -0.02637074 0.01350000
v 0.01675731 -0.02656942 0.00614434
v 0.01935377 -0.02481673 0.00631084
v 0.02133437 -0.02317530 0.01350000
v 0.02232035 -0.02221949 0.00630532
v 0.02485793 -0.01934770 0.01350000
v 0.02567314 -0.01824263 0.00630532
v 0.02770342 -0.01499234 0.01350000
v 0.02832563 -0.01376817 0.00630532
v 0.02979324 -0.01022803 0.01350000
v 0.02954315 -0.01067445 0.00614435
v 0.03051559 -0.00769656 0.00631084
v 0.03107038 -0.00518473 0.01350000
v 0.03118085 -0.00423935 0.00626230
v 0.03145726 -0.00164609 0.00649839
v 0.03150000 0.00000000 0.01350000
v 0.03139241 0.00260125 0.00650000
v 0.03107038 0.00518473 0.01350000
v 0.03080949 0.00653292 0.00630532
v 0.02979324 0.01022803 0.01350000
v 0.02931400 0.01151490 0.00630532
v 0.02770342 0.01499234 0.01350000
v 0.02701890 0.01618279 0.00630532
v 0.02485793 0.01934770 0.01350000
v 0.02398679 0.02040925 0.00630532
v 0.02133437 0.02317530 0.01350000
v 0.02030040 0.02407899 0.00630532
v 0.01722887 0.02637074 0.01350000
v 0.01606025 0.02709192 0.00630532
v 0.01265341 0.02884686 0.01350000
v 0.01137156 0.02932523 0.00618369
v 0.00773279 0.03053611 0.01350000
v 0.00639331 0.03083876 0.00630532
v 0.00260125 0.03139241 0.01350000
v 0.00153347 0.03146443 0.00649823
v -0.00260125 0.03139241 0.01350000
v -0.00260125 0.03139241 0.00650000
v -0.00414898 0.03118027 0.00619233
v -0.00773279 0.03053611 0.01350000
v -0.00905488 0.03016476 0.00630532
v -0.01265341 0.02884686 0.01350000
v -0.01389633 0.02826298 0.00630532
v -0.01722887 0.02637074 0.01350000
v -0.01675731 0.02656942 0.00614434
v -0.01935377 0.02481673 0.00631084
v -0.02133437 0.02317530 0.01350000
v -0.02232035 0.02221949 0.00630532
v -0.02485793 0.01934770 0.01350000
v -0.02567314 0.01824263 0.00630532
v -0.02770342 0.01499234 0.01350000
v -0.02832563 0.01376817 0.00630532
v -0.02979324 0.01022803 0.01350000
v -0.02954315 0.01067445 0.00614435
v -0.03107038 0.00518473 0.01350000
v -0.03118085 0.00423935 0.00626230
v -0.03145726 0.00164609 0.00649839
v 0.03370711 -0.00000000 0.00129289
v 0.03405729 -0.00114361 0.00059833
v -0.03370711 0.00000000 0.00129289
v 0.02044323 0.02664881 0.00127263
v 0.01821600 0.02731448 0.00184807
v -0.01903444 0.02718440 0.00127928
v -0.02099594 0.02636784 0.00112096
v -0.02044323 -0.02664881 0.00127263
v -0.01821600 -0.02731448 0.00184807
v 0.01903444 -0.02718440 0.00127928
v 0.02099594 -0.02636784 0.00112096
v -0.01110509 0.02725590 0.00552125
v -0.01785531 0.02734495 0.00201530
v 0.01105115 0.02727315 0.00546610
v -0.01075205 -0.02729372 0.00563345
v 0.01110509 -0.02725590 0.00552125
v 0.01785531 -0.02734495 0.00201530
v -0.01274317 -0.02686689 0.00571285
v -0.02277270 0.01941053 0.00588771
v -0.02665460 0.01359768 0.00588771
v -0.01764812 0.02416420 0.00588771
v -0.02499845 -0.01644512 0.00588771
v -0.02913009 -0.00684124 0.00588771
v -0.02992246 0.00010361 0.00588771
v -0.02908201 0.00704281 0.00588771
v -0.01291370 0.02679261 0.00570798
v 0.01291370 -0.02679261 0.00570798
v 0.02277270 -0.01941053 0.00588771
v 0.02665460 -0.01359768 0.00588771
v 0.01764812 -0.02416420 0.00588771
v 0.02499845 0.01644512 0.00588771
v 0.02913009 0.00684124 0.00588771
v 0.02992246 -0.00010361 0.00588771
v 0.02908201 -0.00704281 0.00588771
v 0.01274317 0.02686689 0.00571285
v 0.01083503 0.02738217 0.00578332
v 0.03150000 -0.00000000 0.00650000
v 0.00068791 0.03156805 0.00648056
v -0.03155697 -0.00084171 0.00648328
v -0.00068791 -0.03156805 0.00648056
v -0.00826239 -0.00563320 0.00000000
v -0.00955573 -0.00294755 0.00000000
v -0.00826239 0.00563320 -0.00000000
v -0.01000000 -0.00000000 0.00000000
v -0.00955573 0.00294755 0.00000000
v -0.00074730 -0.00997204 0.00000000
v -0.00365341 -0.00930874 0.00000000
v -0.00623490 -0.00781832 0.00000000
v 0.00733052 -0.00680173 0.00000000
v 0.00500000 -0.00866025 0.00000000
v 0.00222521 -0.00974928 0.00000000
v 0.00988831 0.00149042 0.00000000
v 0.00988831 -0.00149042 0.00000000
v 0.00900969 -0.00433884 0.00000000
v 0.00500000 0.00866025 0.00000000
v 0.00733052 0.00680173 0.00000000
v 0.00900969 0.00433884 0.00000000
v -0.00365341 0.00930874 0.00000000
v -0.00074730 0.00997204 0.00000000
v 0.00222521 0.00974928 0.00000000
v -0.00623490 0.00781832 0.00000000
f 1 2 3
f 4 5 6
f 6 7 4
f 8 9 7
f 8 7 6
f 1 10 2
f 2 10 11
f 11 10 12
f 13 14 5
f 5 4 13
f 15 16 17
f 14 13 18
f 14 18 19
f 19 18 20
f 19 20 15
f 15 20 16
f 17 16 21
f 17 21 22
f 22 21 23
f 23 21 24
f 23 24 25
f 24 26 25
f 25 26 27
f 27 26 28
f 27 28 29
f 29 28 30
f 31 32 33
f 29 30 34
f 34 30 35
f 34 35 33
f 33 35 31
f 32 31 3
f 3 31 36
f 3 36 1
f 13 37 38
f 13 38 18
f 18 38 39
f 18 39 20
f 20 39 40
f 20 40 16
f 16 40 41
f 16 41 21
f 21 41 42
f 42 41 43
f 42 43 44
f 44 43 45
f 45 46 28
f 28 46 47
f 28 47 30
f 31 48 49
f 31 49 36
f 36 49 50
f 51 52 53
f 53 52 54
f 53 54 55
f 56 57 58
f 58 57 59
f 58 59 51
f 51 59 60
f 51 60 52
f 61 62 63
f 56 58 64
f 64 58 65
f 65 66 64
f 64 66 67
f 64 67 68
f 69 70 71
f 71 70 72
f 71 72 73
f 73 72 74
f 73 74 75
f 75 74 76
f 75 76 77
f 78 79 69
f 69 79 80
f 69 80 70
f 81 82 78
f 78 82 83
f 78 83 79
f 54 84 55
f 55 84 85
f 55 85 62
f 62 85 86
f 62 86 63
f 87 88 89
f 89 88 90
f 89 90 91
f 91 90 92
f 91 92 81
f 81 92 93
f 81 93 82
f 67 94 68
f 68 94 95
f 68 95 96
f 97 98 96
f 96 98 99
f 96 99 68
f 76 100 77
f 77 100 101
f 77 101 97
f 97 101 102
f 97 102 98
f 103 104 105
f 105 104 61
f 105 61 106
f 106 61 63
f 87 107 88
f 88 107 108
f 88 108 104
f 88 104 109
f 109 104 103
f 110 111 112
f 113 114 115
f 115 116 113
f 117 118 116
f 117 116 115
f 110 119 111
f 111 119 120
f 120 119 121
f 122 123 114
f 114 113 122
f 124 125 126
f 123 122 127
f 123 127 128
f 128 127 129
f 128 129 124
f 124 129 125
f 126 125 130
f 126 130 131
f 131 130 132
f 132 130 133
f 132 133 134
f 133 135 134
f 134 135 136
f 136 135 137
f 136 137 138
f 138 137 139
f 140 141 142
f 138 139 143
f 143 139 144
f 143 144 142
f 142 144 140
f 141 140 112
f 112 140 145
f 112 145 110
f 113 98 122
f 122 98 102
f 122 102 127
f 127 102 101
f 127 101 129
f 129 101 100
f 129 100 125
f 125 100 76
f 125 76 130
f 130 76 146
f 146 76 74
f 146 74 147
f 147 74 72
f 147 72 148
f 148 72 70
f 148 70 137
f 137 70 139
f 139 70 80
f 139 80 149
f 149 80 79
f 140 79 83
f 140 83 145
f 145 83 82
f 150 151 152
f 152 151 153
f 153 154 152
f 153 155 154
f 156 157 158
f 158 157 159
f 159 160 158
f 159 161 160
f 162 163 104
f 55 62 164
f 104 163 61
f 61 163 165
f 61 165 62
f 62 165 164
f 162 104 108
f 162 108 166
f 166 108 107
f 166 107 167
f 167 107 87
f 91 168 89
f 89 168 169
f 89 169 87
f 87 169 167
f 81 170 91
f 91 170 168
f 78 171 81
f 81 171 170
f 69 172 78
f 78 172 171
f 71 173 69
f 69 173 172
f 77 174 75
f 75 174 175
f 75 175 176
f 75 176 71
f 71 176 173
f 177 178 97
f 97 178 77
f 77 178 179
f 77 179 174
f 177 97 96
f 177 96 180
f 180 96 95
f 180 95 181
f 181 95 94
f 66 182 67
f 67 182 183
f 67 183 94
f 94 183 181
f 65 184 66
f 66 184 182
f 185 186 58
f 58 186 65
f 65 186 184
f 185 58 51
f 185 51 187
f 187 51 53
f 164 188 55
f 55 188 189
f 55 189 53
f 53 189 187
f 190 191 192
f 193 194 190
f 193 190 192
f 195 196 197
f 190 198 191
f 191 198 199
f 191 199 200
f 194 193 201
f 194 201 202
f 202 201 203
f 196 195 204
f 196 204 205
f 206 207 208
f 200 199 208
f 208 199 206
f 209 210 211
f 212 213 214
f 205 204 212
f 212 204 213
f 206 195 207
f 207 195 197
f 209 215 210
f 210 215 203
f 203 215 202
f 216 217 211
f 211 217 209
f 217 216 218
f 217 218 219
f 219 218 220
f 213 221 214
f 214 221 222
f 223 224 225
f 224 226 225
f 225 226 220
f 220 226 219
f 222 221 223
f 223 221 224
f 199 227 206
f 206 228 195
f 204 229 213
f 221 230 224
f 219 231 217
f 215 232 202
f 190 233 198
f 198 233 199
f 233 174 199
f 199 174 179
f 199 179 227
f 227 179 178
f 227 178 177
f 227 177 206
f 206 177 180
f 206 180 228
f 228 180 181
f 228 181 195
f 195 181 183
f 195 183 204
f 204 183 182
f 204 182 229
f 229 182 184
f 229 184 213
f 213 184 186
f 213 186 221
f 221 186 185
f 221 185 230
f 230 185 187
f 230 187 224
f 224 187 234
f 224 234 164
f 224 164 226
f 226 164 165
f 226 165 219
f 219 165 163
f 219 163 231
f 231 163 162
f 231 162 217
f 217 162 166
f 217 166 209
f 209 166 167
f 209 167 215
f 215 167 169
f 215 169 168
f 215 168 232
f 232 168 170
f 232 170 202
f 202 170 171
f 202 171 194
f 194 171 172
f 194 172 190
f 190 172 173
f 190 173 233
f 233 173 235
f 233 235 174
f 235 175 174
f 187 189 234
f 234 189 236
f 234 236 188
f 234 188 164
f 173 176 235
f 235 176 237
f 235 237 175
f 238 239 240
f 241 242 243
f 243 242 244
f 243 244 238
f 245 246 247
f 247 246 248
f 249 250 245
f 245 250 246
f 251 252 253
f 253 252 254
f 255 256 257
f 248 258 247
f 249 259 250
f 254 260 253
f 261 262 263
f 261 263 264
f 265 266 267
f 267 266 268
f 267 268 261
f 239 269 240
f 240 269 249
f 249 269 259
f 255 257 251
f 251 257 252
f 270 271 272
f 272 271 273
f 272 273 274
f 274 273 265
f 265 273 266
f 275 258 248
f 276 277 278
f 278 277 279
f 278 279 280
f 280 279 241
f 241 279 242
f 281 260 254
f 264 263 256
f 264 256 255
f 271 270 282
f 277 276 283
f 258 275 270
f 270 275 282
f 260 281 276
f 276 281 283
f 284 285 286
f 286 287 284
f 284 287 288
f 287 289 288
f 288 289 290
f 288 290 291
f 290 292 291
f 291 292 293
f 292 294 293
f 293 294 295
f 294 296 295
f 295 296 297
f 296 298 297
f 297 298 299
f 298 300 299
f 299 300 301
f 300 302 301
f 301 302 303
f 302 304 303
f 303 304 305
f 304 306 305
f 305 306 307
f 305 307 308
f 307 309 308
f 308 309 310
f 309 311 310
f 310 311 312
f 311 313 312
f 312 313 314
f 312 314 315
f 314 316 315
f 315 316 317
f 316 318 317
f 317 318 319
f 318 320 319
f 319 320 321
f 320 322 321
f 321 322 323
f 321 323 324
f 323 325 324
f 324 325 326
f 324 326 327
f 327 326 328
f 327 328 329
f 328 330 329
f 329 330 331
f 330 332 331
f 331 332 333
f 332 334 333
f 333 334 335
f 334 336 335
f 335 336 337
f 336 338 337
f 337 338 339
f 338 340 339
f 339 340 341
f 340 342 341
f 341 342 343
f 342 344 343
f 343 344 345
f 344 346 345
f 345 346 347
f 346 348 347
f 347 348 349
f 347 349 350
f 349 351 350
f 350 351 352
f 351 353 352
f 352 353 354
f 353 355 354
f 354 355 356
f 354 356 357
f 356 358 357
f 357 358 359
f 358 360 359
f 359 360 361
f 360 362 361
f 361 362 363
f 362 364 363
f 363 364 259
f 363 259 365
f 259 366 365
f 365 366 367
f 365 367 285
f 285 367 286
f 327 329 308
f 327 308 324
f 317 319 308
f 308 319 321
f 308 321 324
f 310 312 308
f 308 312 315
f 308 315 317
f 303 305 308
f 297 299 308
f 308 299 301
f 308 301 303
f 291 293 308
f 308 293 295
f 308 295 297
f 285 284 308
f 308 284 288
f 308 288 291
f 361 363 308
f 308 363 365
f 308 365 285
f 354 357 308
f 308 357 359
f 308 359 361
f 347 350 308
f 308 350 352
f 308 352 354
f 341 343 308
f 308 343 345
f 308 345 347
f 335 337 308
f 308 337 339
f 308 339 341
f 329 331 308
f 308 331 333
f 308 333 335
f 1 36 50
f 26 368 369
f 369 368 24
f 369 24 21
f 31 35 48
f 48 35 47
f 47 35 30
f 28 26 45
f 45 26 44
f 44 26 369
f 42 369 21
f 13 4 37
f 110 145 82
f 144 139 149
f 148 135 370
f 148 370 147
f 147 370 133
f 147 133 146
f 146 133 130
f 140 144 79
f 79 144 149
f 137 135 148
f 50 56 371
f 372 371 64
f 64 371 56
f 152 154 64
f 64 154 372
f 68 373 150
f 150 373 151
f 99 374 68
f 68 374 373
f 98 113 99
f 99 113 374
f 82 93 375
f 376 375 92
f 92 375 93
f 158 160 92
f 92 160 376
f 88 377 156
f 156 377 157
f 109 378 88
f 88 378 377
f 109 37 378
f 152 64 150
f 150 64 68
f 56 50 57
f 57 50 49
f 49 48 60
f 60 48 47
f 60 47 52
f 52 47 46
f 46 45 84
f 84 45 43
f 38 37 103
f 103 37 109
f 90 158 92
f 158 90 156
f 156 90 88
f 379 153 151
f 379 151 380
f 118 379 380
f 118 380 116
f 116 380 373
f 373 380 151
f 116 373 374
f 116 374 113
f 381 154 155
f 381 12 10
f 381 10 372
f 154 381 372
f 372 10 371
f 371 10 1
f 371 1 50
f 382 160 161
f 382 121 119
f 382 119 376
f 160 382 376
f 376 119 375
f 375 119 110
f 375 110 82
f 383 159 157
f 383 157 384
f 9 383 384
f 9 384 7
f 7 384 377
f 377 384 157
f 7 377 378
f 378 37 4
f 7 378 4
f 382 161 276
f 276 278 385
f 382 276 385
f 382 385 121
f 260 276 161
f 260 161 159
f 245 386 249
f 249 386 387
f 115 114 386
f 115 386 388
f 388 386 245
f 280 241 112
f 112 241 141
f 241 243 389
f 243 238 390
f 390 391 134
f 134 391 132
f 390 238 391
f 132 391 131
f 391 240 392
f 126 392 124
f 392 249 387
f 128 387 123
f 278 120 385
f 385 120 121
f 112 111 280
f 280 111 120
f 280 120 278
f 241 389 141
f 141 389 142
f 142 389 143
f 136 138 390
f 390 138 143
f 390 143 243
f 243 143 389
f 136 390 134
f 238 240 391
f 391 392 131
f 131 392 126
f 240 249 392
f 392 387 124
f 124 387 128
f 387 386 123
f 123 386 114
f 388 117 115
f 245 247 388
f 388 247 393
f 388 393 117
f 117 393 118
f 253 260 383
f 253 383 394
f 260 159 383
f 394 383 9
f 247 258 379
f 247 379 393
f 258 153 379
f 393 379 118
f 251 395 255
f 255 395 396
f 6 5 395
f 6 395 397
f 397 395 251
f 274 265 3
f 3 265 32
f 265 267 398
f 267 261 399
f 399 400 25
f 25 400 23
f 399 261 400
f 23 400 22
f 400 264 401
f 17 401 15
f 401 255 396
f 19 396 14
f 272 11 402
f 402 11 12
f 3 2 274
f 274 2 11
f 274 11 272
f 265 398 32
f 32 398 33
f 33 398 34
f 27 29 399
f 399 29 34
f 399 34 267
f 267 34 398
f 27 399 25
f 261 264 400
f 400 401 22
f 22 401 17
f 264 255 401
f 401 396 15
f 15 396 19
f 396 395 14
f 14 395 5
f 397 8 6
f 251 253 397
f 397 253 394
f 397 394 8
f 8 394 9
f 258 270 155
f 258 155 153
f 403 381 155
f 403 155 270
f 270 272 402
f 403 270 402
f 403 402 12
f 12 381 403
f 404 263 328
f 328 263 330
f 344 405 346
f 405 349 348
f 367 366 406
f 286 406 287
f 302 407 304
f 407 307 306
f 326 325 263
f 326 263 404
f 263 262 330
f 330 262 261
f 330 261 332
f 332 261 268
f 332 268 334
f 334 268 336
f 336 268 266
f 336 266 338
f 338 266 273
f 338 273 340
f 340 273 342
f 342 271 344
f 344 271 282
f 344 282 405
f 405 282 349
f 349 275 351
f 351 275 248
f 351 248 353
f 353 248 355
f 355 246 356
f 356 246 358
f 358 246 250
f 358 250 360
f 360 250 362
f 362 250 364
f 259 269 366
f 366 269 406
f 406 269 239
f 406 239 287
f 287 239 289
f 289 238 290
f 290 238 244
f 290 244 292
f 292 244 294
f 294 244 242
f 294 242 296
f 296 242 279
f 296 279 298
f 298 279 300
f 300 277 302
f 302 277 283
f 302 283 407
f 407 283 307
f 307 281 309
f 309 281 254
f 309 254 311
f 311 254 313
f 313 252 314
f 314 252 316
f 316 252 257
f 316 257 318
f 318 257 320
f 320 257 322
f 322 256 323
f 323 256 325
f 325 256 263
f 342 273 271
f 282 275 349
f 355 248 246
f 364 250 259
f 289 239 238
f 300 279 277
f 283 281 307
f 313 254 252
f 322 257 256
f 408 409 410
f 410 409 411
f 410 411 412
f 413 414 410
f 410 414 415
f 410 415 408
f 416 417 410
f 410 417 418
f 410 418 413
f 419 420 410
f 410 420 421
f 410 421 416
f 422 423 410
f 410 423 424
f 410 424 419
f 425 426 410
f 410 426 427
f 410 427 422
f 410 428 425
f 411 191 412
f 412 191 200
f 412 200 410
f 410 200 208
f 410 208 428
f 428 208 207
f 428 207 425
f 425 207 197
f 425 197 426
f 426 197 196
f 426 196 427
f 427 196 205
f 427 205 422
f 422 205 212
f 422 212 423
f 423 212 214
f 423 214 424
f 424 214 222
f 424 222 419
f 419 222 223
f 419 223 420
f 420 223 225
f 420 225 421
f 421 225 220
f 421 220 416
f 416 220 218
f 416 218 417
f 417 218 216
f 417 216 418
f 418 216 211
f 418 211 413
f 413 211 210
f 413 210 414
f 414 210 203
f 414 203 415
f 415 203 201
f 415 201 408
f 408 201 193
f 408 193 409
f 409 193 192
f 409 192 411
f 411 192 191

