# https://github.com/mikedh/trimesh
v 0.01146132 -0.03826847 -0.04186392
v 0.01243103 -0.04248786 -0.04151075
v 0.01146132 -0.04248786 -0.04186172
v 0.01146132 -0.03791091 -0.04186392
v 0.03746260 -0.04248786 -0.03239888
v 0.03100300 -0.04371713 -0.03473644
v 0.02432961 -0.04413385 -0.03709608
v 0.01756714 -0.04477763 -0.03942482
v 0.01146132 -0.04477763 -0.04155490
v 0.01146132 -0.03737153 -0.04186172
v 0.01216124 -0.03737153 -0.04160787
v 0.01347963 -0.03737153 -0.04112888
v 0.03746260 -0.03740719 -0.03239888
v 0.03746260 -0.04348050 -0.03222671
v 0.03613657 -0.04477676 -0.03264389
v 0.01725918 -0.04592861 -0.03931004
v 0.01146132 -0.04608695 -0.04040046
v 0.01146132 -0.03737153 -0.02747652
v 0.03187090 -0.03737153 -0.03443404
v 0.03213305 -0.03737153 -0.03433692
v 0.03746260 -0.03740719 -0.02371302
v 0.03746260 -0.04477676 -0.03199494
v 0.03572935 -0.04597037 -0.03249158
v 0.02903305 -0.04600343 -0.03482915
v 0.02235967 -0.04602431 -0.03716010
v 0.01609096 -0.04601126 -0.03944027
v 0.01380286 -0.04609042 -0.03968749
v 0.01380286 -0.04625833 -0.03815781
v 0.01146132 -0.04609130 -0.04035852
v 0.01146132 -0.03791091 -0.02749198
v 0.01155040 -0.03791091 -0.02745887
v 0.02309267 -0.03737153 -0.02323182
v 0.03213305 -0.03737153 -0.02110395
v 0.03746260 -0.04098889 -0.02022102
v 0.03374922 -0.03740719 -0.02125626
v 0.03746260 -0.04491509 -0.03190664
v 0.03746260 -0.04608695 -0.03099060
v 0.03440333 -0.04604171 -0.03262844
v 0.02066968 -0.04608347 -0.03732785
v 0.02753396 -0.04606694 -0.03497484
v 0.01609096 -0.04617916 -0.03815781
v 0.01146132 -0.04625833 -0.03815781
v 0.01146132 -0.04625746 -0.03820637
v 0.02066968 -0.04625137 -0.03586881
v 0.03213305 -0.04625920 -0.03127093
v 0.01146132 -0.04478111 -0.02899738
v 0.01192709 -0.03948557 -0.02759793
v 0.01706829 -0.03916368 -0.02550979
v 0.01698430 -0.03791091 -0.02547889
v 0.03290932 -0.04433655 -0.02086556
v 0.02526368 -0.03737153 -0.02249899
v 0.03746260 -0.04248786 -0.01931381
v 0.03273879 -0.03740719 -0.02100241
v 0.03313329 -0.03740719 -0.02100241
v 0.02753396 -0.03737153 -0.02200675
v 0.03746260 -0.04614871 -0.03042994
v 0.03440333 -0.04621048 -0.03129080
v 0.02753396 -0.04623571 -0.03357980
v 0.01146132 -0.04625833 -0.03357980
v 0.03213305 -0.04625833 -0.03129080
v 0.03213305 -0.04625920 -0.02442599
v 0.03746260 -0.04625833 -0.02900400
v 0.03669142 -0.04625920 -0.02900400
v 0.01146132 -0.04481069 -0.02901062
v 0.01482347 -0.04595645 -0.02782087
v 0.01445442 -0.04477763 -0.02768401
v 0.03332163 -0.04586249 -0.02105318
v 0.03421244 -0.04497077 -0.02057198
v 0.03746260 -0.04477676 -0.01951026
v 0.01380286 -0.04625833 -0.03129080
v 0.01151223 -0.04625659 -0.03129080
v 0.01146132 -0.04625659 -0.03134156
v 0.03746260 -0.04625920 -0.02365784
v 0.03669142 -0.04625746 -0.02213698
v 0.01838159 -0.04625833 -0.02900400
v 0.03746260 -0.04625920 -0.02823585
v 0.01146132 -0.04608695 -0.02980085
v 0.01609096 -0.04603214 -0.02768843
v 0.02152486 -0.04599299 -0.02548330
v 0.03484873 -0.04603214 -0.02082583
v 0.02820588 -0.04601822 -0.02315015
v 0.03746260 -0.04552407 -0.01997600
v 0.02982460 -0.04624702 -0.02442599
v 0.02295778 -0.04622788 -0.02671720
v 0.01609096 -0.04620005 -0.02900400
v 0.01146132 -0.04608956 -0.02982071
v 0.01146132 -0.04625398 -0.03128859
v 0.03746260 -0.04625746 -0.02213698
v 0.03746260 -0.04620091 -0.02142843
v 0.03669142 -0.04608782 -0.02063379
v 0.01151223 -0.04608868 -0.02979422
v 0.02295778 -0.04605911 -0.02533983
v 0.03746260 -0.04608434 -0.02039981
v 0.02982460 -0.04607825 -0.02298902
f 1 2 3
f 1 3 9
f 1 9 17
f 1 17 29
f 1 29 43
f 1 43 42
f 1 42 59
f 1 59 72
f 1 72 87
f 1 87 86
f 1 86 77
f 1 77 64
f 1 64 46
f 1 46 30
f 1 30 18
f 1 18 10
f 1 10 4
f 1 4 13
f 1 13 5
f 1 5 2
f 2 6 3
f 2 5 6
f 3 6 7
f 3 7 8
f 3 8 9
f 4 10 11
f 4 11 12
f 4 12 13
f 5 13 21
f 5 21 34
f 5 34 52
f 5 52 69
f 5 69 82
f 5 82 93
f 5 93 89
f 5 89 88
f 5 88 73
f 5 73 76
f 5 76 62
f 5 62 56
f 5 56 37
f 5 37 36
f 5 36 22
f 5 22 14
f 5 14 15
f 5 15 6
f 6 15 7
f 7 15 16
f 7 16 8
f 8 16 9
f 9 16 17
f 10 18 32
f 10 32 51
f 10 51 55
f 10 55 33
f 10 33 20
f 10 20 19
f 10 19 12
f 10 12 11
f 12 19 13
f 13 20 33
f 13 33 21
f 13 19 20
f 14 22 15
f 15 22 23
f 15 23 16
f 16 24 25
f 16 25 26
f 16 26 17
f 16 23 24
f 17 26 27
f 17 27 28
f 17 28 29
f 18 30 31
f 18 31 32
f 21 33 35
f 21 35 34
f 22 36 23
f 23 36 37
f 23 37 38
f 23 38 24
f 24 38 25
f 25 39 27
f 25 27 26
f 25 38 40
f 25 40 39
f 27 39 41
f 27 41 28
f 28 42 43
f 28 43 29
f 28 41 44
f 28 44 45
f 28 45 42
f 30 46 47
f 30 47 48
f 30 48 31
f 31 48 49
f 31 49 32
f 32 49 48
f 32 48 50
f 32 50 51
f 33 52 53
f 33 53 54
f 33 54 35
f 33 55 52
f 34 35 54
f 34 54 52
f 37 56 57
f 37 57 38
f 38 57 40
f 39 40 58
f 39 58 41
f 40 57 58
f 41 58 44
f 42 45 61
f 42 61 59
f 44 58 60
f 44 60 45
f 45 60 62
f 45 62 63
f 45 63 76
f 45 76 73
f 45 73 61
f 46 64 65
f 46 65 66
f 46 66 47
f 47 66 48
f 48 66 50
f 50 67 68
f 50 68 69
f 50 69 51
f 50 66 67
f 51 69 52
f 51 52 55
f 52 54 53
f 56 62 57
f 57 62 60
f 57 60 58
f 59 61 70
f 59 70 71
f 59 71 72
f 61 73 74
f 61 74 75
f 61 75 70
f 62 76 63
f 64 77 65
f 65 77 78
f 65 78 79
f 65 79 67
f 65 67 66
f 67 80 69
f 67 69 68
f 67 79 81
f 67 81 80
f 69 80 82
f 70 75 71
f 71 75 74
f 71 74 83
f 71 83 84
f 71 84 85
f 71 85 86
f 71 86 87
f 71 87 72
f 73 88 74
f 74 88 89
f 74 89 90
f 74 90 83
f 77 86 91
f 77 91 78
f 78 92 81
f 78 81 79
f 78 91 92
f 80 90 93
f 80 93 82
f 80 81 92
f 80 92 94
f 80 94 90
f 83 94 84
f 83 90 94
f 84 94 92
f 84 92 85
f 85 91 86
f 85 92 91
f 89 93 90

