# https://github.com/mikedh/trimesh
v 0.01148488 0.03227398 -0.02101502
v 0.01146133 0.03227398 -0.02101502
v 0.01345361 0.03203193 -0.02101502
v 0.01898004 0.03315714 -0.02427419
v 0.01635923 0.03315714 -0.02445582
v 0.01264036 0.03315714 -0.02524153
v 0.01146133 0.03315714 -0.02563745
v 0.01146133 -0.03237999 -0.02101502
v 0.01519051 0.03178988 -0.02101502
v 0.01898004 0.03315714 -0.03912719
v 0.01608987 0.03163941 -0.02101502
v 0.01898004 0.03101793 -0.02101502
v 0.01146133 0.03315714 -0.04186187
v 0.01146133 -0.03367529 -0.02648234
v 0.01630624 -0.03367529 -0.02484970
v 0.01898004 -0.03367529 -0.02448031
v 0.01251303 -0.03231457 -0.02101502
v 0.01238129 0.03315714 -0.04152922
v 0.01898004 -0.03366221 -0.03912719
v 0.01898004 -0.03083609 -0.02101502
v 0.01146133 0.02161062 -0.04186392
v 0.01146133 -0.03367529 -0.04186187
v 0.01341387 -0.03219027 -0.02101502
v 0.01306207 -0.03225569 -0.02101502
v 0.01898004 -0.03367529 -0.03909862
v 0.01837801 -0.03101927 -0.02101502
v 0.01608840 -0.03162112 -0.02101502
v 0.01146133 0.01896768 -0.04186392
v 0.01379952 -0.03367529 -0.04101290
v 0.01803431 -0.03367529 -0.03947005
v 0.01786136 -0.03367529 -0.03953331
v 0.01635555 -0.03367529 -0.04008229
v 0.01149592 -0.03367529 -0.04184963
f 1 2 8
f 1 8 17
f 1 17 24
f 1 24 23
f 1 23 27
f 1 27 26
f 1 26 20
f 1 20 12
f 1 12 11
f 1 11 9
f 1 9 3
f 1 3 4
f 1 4 2
f 2 4 5
f 2 5 6
f 2 6 7
f 2 7 13
f 2 13 21
f 2 21 28
f 2 28 22
f 2 22 14
f 2 14 8
f 3 9 4
f 4 10 18
f 4 18 13
f 4 13 7
f 4 7 6
f 4 6 5
f 4 9 11
f 4 11 12
f 4 12 20
f 4 20 16
f 4 16 25
f 4 25 19
f 4 19 10
f 8 14 15
f 8 15 16
f 8 16 17
f 10 19 18
f 13 18 21
f 14 22 33
f 14 33 29
f 14 29 32
f 14 32 31
f 14 31 30
f 14 30 25
f 14 25 16
f 14 16 15
f 16 23 24
f 16 24 17
f 16 20 26
f 16 26 27
f 16 27 23
f 18 28 21
f 18 19 29
f 18 29 28
f 19 25 30
f 19 30 31
f 19 31 32
f 19 32 29
f 22 28 33
f 28 29 33

