# https://github.com/mikedh/trimesh
v 0.00206405 0.01911512 -0.02015210
v 0.00206405 0.02847741 -0.02025700
v -0.00552684 0.01819298 -0.02015210
v 0.00206405 -0.01926895 -0.02015210
v 0.00206405 0.03064187 -0.02059249
v 0.00082095 0.03002711 -0.02084979
v -0.00388101 0.02992465 -0.02295868
v -0.00552684 0.02754886 -0.02320015
v -0.00552684 -0.01730940 -0.02015210
v 0.00206405 -0.02874009 -0.02025700
v 0.00206405 0.03172411 -0.02176321
v -0.00410020 0.03000150 -0.02442432
v -0.00552684 0.02877198 -0.02442432
v -0.00222551 0.03076995 -0.02442432
v 0.00193253 0.03314574 -0.03026213
v -0.00552684 -0.02797164 -0.02313088
v 0.00082095 -0.03020015 -0.02084979
v 0.00206405 -0.02901545 -0.02028372
v 0.00206405 0.03177534 -0.02213531
v -0.00552609 0.02900251 -0.03026213
v -0.00552684 0.02911778 -0.02671333
v 0.00206405 0.03192262 -0.02367023
v 0.00206405 0.03189701 -0.02442432
v 0.00206405 0.03176893 -0.02739122
v 0.00193253 -0.03227496 -0.03026213
v -0.00552684 -0.02838148 -0.02364252
v -0.00375097 -0.03011690 -0.02301410
v 0.00206405 -0.03078929 -0.02067363
v -0.00552684 0.02900251 -0.02739122
v -0.00552609 -0.02916274 -0.03026213
v 0.00206405 -0.03171143 -0.02739122
v 0.00206405 -0.03182670 -0.02443521
v 0.00206405 -0.03169222 -0.02227584
v -0.00222551 -0.03073166 -0.02442432
v -0.00388844 -0.03016172 -0.02442432
v -0.00139034 -0.03112228 -0.03026213
v -0.00552684 -0.02893220 -0.02445302
v 0.00206405 -0.03165380 -0.02212839
v 0.00206405 -0.03093658 -0.02086166
v -0.00552684 -0.02906668 -0.02506065
v -0.00552684 -0.02906668 -0.02739122
v -0.00244397 -0.03075087 -0.03026213
v -0.00552684 -0.02916274 -0.02671333
f 1 2 3
f 1 3 9
f 1 9 4
f 1 4 10
f 1 10 18
f 1 18 28
f 1 28 39
f 1 39 38
f 1 38 33
f 1 33 32
f 1 32 31
f 1 31 24
f 1 24 23
f 1 23 22
f 1 22 19
f 1 19 11
f 1 11 5
f 1 5 2
f 2 5 3
f 3 5 6
f 3 6 7
f 3 7 8
f 3 8 13
f 3 13 21
f 3 21 29
f 3 29 41
f 3 41 43
f 3 43 40
f 3 40 37
f 3 37 26
f 3 26 16
f 3 16 9
f 4 9 10
f 5 11 7
f 5 7 6
f 7 12 13
f 7 13 8
f 7 11 14
f 7 14 15
f 7 15 12
f 9 16 17
f 9 17 18
f 9 18 10
f 11 19 15
f 11 15 14
f 12 20 21
f 12 21 13
f 12 15 20
f 15 19 22
f 15 22 23
f 15 23 24
f 15 24 31
f 15 31 25
f 15 25 36
f 15 36 42
f 15 42 30
f 15 30 20
f 16 26 27
f 16 27 17
f 17 27 28
f 17 28 18
f 20 29 21
f 20 30 41
f 20 41 29
f 25 31 32
f 25 32 33
f 25 33 34
f 25 34 35
f 25 35 36
f 26 37 27
f 27 35 34
f 27 34 33
f 27 33 38
f 27 38 39
f 27 39 28
f 27 37 40
f 27 40 35
f 30 42 35
f 30 35 43
f 30 43 41
f 35 42 36
f 35 40 43

