# https://github.com/mikedh/trimesh
v 0.08077584 0.00228107 -0.01663457
v 0.08077584 0.02161696 -0.01663457
v 0.08083181 0.00228107 -0.01661554
v 0.08077584 0.00228107 -0.00863470
v 0.08187883 0.00228107 -0.01623479
v 0.08077584 0.02161696 -0.00860086
v 0.11440885 0.02161696 -0.00439574
v 0.08077584 0.02161506 -0.00860086
v 0.09048216 0.00228107 -0.00340580
v 0.11440885 0.00559173 -0.00439574
v 0.11197239 0.00228107 -0.00528203
v 0.09228646 0.00228107 -0.00248567
v 0.09229963 0.00288679 -0.00251105
v 0.11440885 0.02161696 0.00360625
v 0.11440885 0.00330134 -0.00435132
v 0.11311489 0.00228107 -0.00486533
v 0.11440885 0.00228107 0.00497270
v 0.11440885 0.00237193 -0.00426882
v 0.11440885 0.00228107 -0.00426036
f 1 2 3
f 1 3 5
f 1 5 11
f 1 11 16
f 1 16 19
f 1 19 17
f 1 17 12
f 1 12 9
f 1 9 4
f 1 4 8
f 1 8 6
f 1 6 2
f 2 5 3
f 2 6 14
f 2 14 7
f 2 7 5
f 4 9 8
f 5 7 10
f 5 10 11
f 6 8 9
f 6 9 12
f 6 12 13
f 6 13 14
f 7 14 17
f 7 17 19
f 7 19 18
f 7 18 15
f 7 15 10
f 10 15 16
f 10 16 11
f 12 17 13
f 13 17 14
f 15 18 16
f 16 18 19

