# https://github.com/mikedh/trimesh
v -0.05939891 0.03310959 -0.06765492
v -0.05939891 0.03887636 -0.06765275
v -0.05765397 0.03887636 -0.06702013
v -0.05765397 0.03310959 -0.06702013
v -0.05939891 0.03310959 -0.05933336
v -0.05939891 0.03887636 -0.05906905
v -0.05491476 0.03310959 -0.06602354
v -0.02741260 0.03887636 -0.05601427
v -0.05479798 0.03887636 -0.05723401
v -0.02532733 0.03310959 -0.04696043
v -0.02531398 0.03887636 -0.04552403
v -0.02741260 0.03310959 -0.05601427
v -0.02537737 0.03887636 -0.05527332
v -0.02531398 0.03310959 -0.04750422
v -0.02531398 0.03402518 -0.04682611
v -0.02531398 0.03535398 -0.04644047
v -0.02531398 0.03887636 -0.05524949
v -0.02531398 0.03310959 -0.05524949
f 1 2 3
f 1 3 4
f 1 4 7
f 1 7 12
f 1 12 18
f 1 18 14
f 1 14 10
f 1 10 5
f 1 5 6
f 1 6 2
f 2 6 9
f 2 9 11
f 2 11 17
f 2 17 13
f 2 13 8
f 2 8 3
f 3 7 4
f 3 8 7
f 5 9 6
f 5 10 11
f 5 11 9
f 7 8 12
f 8 13 12
f 10 14 15
f 10 15 16
f 10 16 11
f 11 16 15
f 11 15 14
f 11 14 18
f 11 18 17
f 12 13 18
f 13 17 18

