# https://github.com/mikedh/trimesh
v -0.07696857 0.03920031 -0.06514747
v -0.08215957 0.03920031 -0.06391649
v -0.07696857 0.03597369 -0.06533223
v -0.07696857 0.03920031 -0.07404911
v -0.08215957 0.03597369 -0.06591830
v -0.08215957 0.03920031 -0.07593794
v -0.07696857 0.03597369 -0.07404911
v -0.07839945 0.03597369 -0.07457045
v -0.07777954 0.03920031 -0.07434450
v -0.08215957 0.03597369 -0.07593794
v -0.08194413 0.03920031 -0.07586027
v -0.08215957 0.03764290 -0.07593912
v -0.08006813 0.03597369 -0.07517770
v -0.08116670 0.03920031 -0.07557783
v -0.08199342 0.03597369 -0.07587793
f 1 2 3
f 1 3 7
f 1 7 4
f 1 4 9
f 1 9 14
f 1 14 11
f 1 11 6
f 1 6 2
f 2 5 3
f 2 6 12
f 2 12 10
f 2 10 5
f 3 5 10
f 3 10 15
f 3 15 13
f 3 13 8
f 3 8 7
f 4 7 8
f 4 8 9
f 6 11 12
f 8 13 12
f 8 12 14
f 8 14 9
f 10 12 15
f 11 14 12
f 12 13 15

