# https://github.com/mikedh/trimesh
v 0.03746332 -0.04625920 -0.02823417
v 0.03746332 -0.04625834 -0.02900152
v 0.03898397 -0.04625834 -0.02900152
v 0.04356185 -0.04625920 -0.02671346
v 0.03746332 -0.04625920 -0.02365649
v 0.03746332 -0.04614915 -0.03042904
v 0.04127255 -0.04617775 -0.02900152
v 0.04486371 -0.04625400 -0.02671346
v 0.03746332 -0.04608762 -0.03099135
v 0.03898397 -0.04609022 -0.03052690
v 0.04486371 -0.04625920 -0.02541176
v 0.03898397 -0.04625920 -0.02213577
v 0.03746332 -0.04625747 -0.02213577
v 0.04486371 -0.04607376 -0.02847184
v 0.04486371 -0.04617601 -0.02758954
v 0.04127255 -0.04600963 -0.03028148
v 0.03746332 -0.04491515 -0.03190782
v 0.04243386 -0.04592731 -0.03015255
v 0.04486371 -0.04625920 -0.01984615
v 0.04356185 -0.04625920 -0.01984615
v 0.03746332 -0.04620114 -0.02142744
v 0.04127255 -0.04620114 -0.01984615
v 0.04486371 -0.04542729 -0.02892852
v 0.03746332 -0.04477737 -0.03199636
v 0.04486371 -0.04477737 -0.02929977
v 0.04273813 -0.04477737 -0.03026284
v 0.04486371 -0.04617082 -0.01857085
v 0.03746332 -0.04608502 -0.02039913
v 0.04486371 -0.04609542 -0.01786875
v 0.04127255 -0.04603303 -0.01852736
v 0.03746332 -0.04348098 -0.03222781
v 0.04486371 -0.04248789 -0.02970519
v 0.03746332 -0.04248789 -0.03240023
v 0.04417909 -0.04248789 -0.02995527
v 0.03999966 -0.04595764 -0.01865939
v 0.03746332 -0.04552435 -0.01997352
v 0.04486371 -0.04496281 -0.01692121
v 0.04127255 -0.03740718 -0.03101310
v 0.04261570 -0.03740718 -0.03051292
v 0.04298880 -0.03740718 -0.03037157
v 0.04486371 -0.04113603 -0.02969276
v 0.03746332 -0.03740718 -0.03239868
v 0.03760024 -0.03740718 -0.03234897
v 0.04077049 -0.03740718 -0.03119639
v 0.04486371 -0.04477737 -0.01679073
v 0.03962512 -0.04477737 -0.01852270
v 0.03746332 -0.04477737 -0.01950907
v 0.04388206 -0.03740718 -0.02988848
v 0.04486371 -0.03887775 -0.02951257
v 0.04486371 -0.04019927 -0.02962752
v 0.03746332 -0.03740718 -0.02371396
v 0.04486371 -0.04248789 -0.01653132
v 0.03946429 -0.04248789 -0.01846678
v 0.03746332 -0.04248789 -0.01931490
v 0.04413345 -0.03740718 -0.02974557
v 0.04468476 -0.03740718 -0.02934015
v 0.04486371 -0.03740718 -0.02920812
v 0.03746332 -0.04098872 -0.02021895
v 0.04072920 -0.03740718 -0.02142744
v 0.04486371 -0.04072355 -0.01764662
v 0.03978522 -0.04123396 -0.01858483
v 0.04486371 -0.03740718 -0.01986789
v 0.04187385 -0.03740718 -0.02074708
f 1 2 3
f 1 3 4
f 1 4 11
f 1 11 19
f 1 19 20
f 1 20 12
f 1 12 5
f 1 5 13
f 1 13 21
f 1 21 28
f 1 28 36
f 1 36 47
f 1 47 54
f 1 54 58
f 1 58 51
f 1 51 42
f 1 42 33
f 1 33 31
f 1 31 24
f 1 24 17
f 1 17 9
f 1 9 6
f 1 6 2
f 2 6 3
f 3 7 8
f 3 8 4
f 3 6 9
f 3 9 10
f 3 10 7
f 4 8 11
f 5 12 13
f 7 14 15
f 7 15 8
f 7 10 14
f 8 15 14
f 8 14 23
f 8 23 25
f 8 25 32
f 8 32 41
f 8 41 50
f 8 50 49
f 8 49 57
f 8 57 62
f 8 62 60
f 8 60 52
f 8 52 45
f 8 45 37
f 8 37 29
f 8 29 27
f 8 27 19
f 8 19 11
f 9 16 10
f 9 17 18
f 9 18 16
f 10 16 14
f 12 20 13
f 13 20 22
f 13 22 21
f 14 16 18
f 14 18 23
f 17 24 18
f 18 25 23
f 18 24 26
f 18 26 25
f 19 27 20
f 20 27 22
f 21 22 28
f 22 27 29
f 22 29 30
f 22 30 28
f 24 31 26
f 25 26 32
f 26 31 33
f 26 33 34
f 26 34 32
f 28 30 35
f 28 35 36
f 29 37 35
f 29 35 30
f 32 34 38
f 32 38 39
f 32 39 40
f 32 40 41
f 33 42 43
f 33 43 44
f 33 44 34
f 34 44 38
f 35 37 45
f 35 45 46
f 35 46 47
f 35 47 36
f 38 44 43
f 38 43 42
f 38 42 51
f 38 51 59
f 38 59 63
f 38 63 62
f 38 62 57
f 38 57 56
f 38 56 55
f 38 55 48
f 38 48 40
f 38 40 39
f 40 48 49
f 40 49 50
f 40 50 41
f 45 52 46
f 46 52 53
f 46 53 54
f 46 54 47
f 48 55 49
f 49 56 57
f 49 55 56
f 51 58 59
f 52 60 61
f 52 61 53
f 53 61 54
f 54 61 58
f 58 61 59
f 59 61 63
f 60 62 61
f 61 62 63

