# https://github.com/mikedh/trimesh
v -0.01129373 -0.03101506 -0.03431315
v -0.01062706 -0.02939232 -0.03431315
v -0.01099511 -0.03349929 -0.03431315
v -0.01062085 -0.03333039 -0.03214874
v -0.01061747 -0.03172946 -0.03216529
v -0.00986443 -0.03020288 -0.03271509
v -0.01047691 -0.02924362 -0.03431315
v -0.00924292 -0.03534347 -0.03431315
v -0.01037022 -0.03461452 -0.03286908
v -0.01037022 -0.03461452 -0.03232503
v -0.00909502 -0.03333039 -0.03168776
v -0.00552684 -0.02924362 -0.03086340
v -0.00741508 -0.02924362 -0.03151823
v -0.00938517 -0.02924362 -0.03322909
v -0.00552684 -0.02924362 -0.03431315
v -0.00673486 -0.03700339 -0.03431315
v -0.00552684 -0.03749878 -0.03431315
v -0.00909502 -0.03497900 -0.03213827
v -0.00680599 -0.03333039 -0.03156179
v -0.00552684 -0.03022551 -0.03095019
v -0.00552684 -0.03482787 -0.03216124
v -0.00680599 -0.03508163 -0.03204236
f 1 2 7
f 1 7 15
f 1 15 17
f 1 17 16
f 1 16 8
f 1 8 3
f 1 3 4
f 1 4 5
f 1 5 2
f 2 6 7
f 2 5 6
f 3 8 9
f 3 9 10
f 3 10 4
f 4 10 11
f 4 11 5
f 5 11 12
f 5 12 13
f 5 13 6
f 6 13 14
f 6 14 7
f 7 14 13
f 7 13 12
f 7 12 15
f 8 16 9
f 9 16 10
f 10 16 17
f 10 17 18
f 10 18 11
f 11 18 19
f 11 19 20
f 11 20 12
f 12 20 21
f 12 21 17
f 12 17 15
f 17 21 22
f 17 22 18
f 18 22 19
f 19 22 21
f 19 21 20

