# https://github.com/mikedh/trimesh
v -0.01864325 -0.04625920 -0.04960767
v -0.01864325 -0.04625920 -0.04313047
v -0.01864325 -0.04623204 -0.05000120
v -0.01825132 -0.04625920 -0.04960767
v -0.01825132 -0.04625920 -0.04274038
v -0.01864325 -0.04625015 -0.04274038
v -0.01864325 -0.04608714 -0.05134537
v -0.01596166 -0.04620487 -0.04960767
v -0.00451626 -0.04625015 -0.04502947
v 0.00006013 -0.04625920 -0.04274038
v -0.01206598 -0.04625920 -0.04113538
v -0.01435565 -0.04625015 -0.04113538
v -0.01687811 -0.04616865 -0.04113538
v -0.01864325 -0.04611431 -0.04120973
v -0.01864325 -0.04587885 -0.05160163
v -0.01462086 -0.04596940 -0.05081342
v -0.01596166 -0.04604186 -0.05094956
v 0.00234980 -0.04623204 -0.04274038
v 0.00395581 -0.04625015 -0.04113538
v 0.00166614 -0.04625920 -0.04113538
v -0.01864325 -0.04610525 -0.04113538
v -0.01864325 -0.04471059 -0.05240012
v -0.01420536 -0.04477398 -0.05096786
v -0.00791982 -0.04592412 -0.04847285
v 0.01055371 -0.04596940 -0.04165474
v -0.00281890 -0.04602374 -0.04631988
v -0.01864325 -0.04462002 -0.05243444
v -0.01864325 -0.04442984 -0.05249965
v 0.00921881 -0.04612336 -0.04113538
v 0.00624842 -0.04621392 -0.04113538
v 0.00824931 -0.04615958 -0.04113538
v -0.01864325 0.04600563 -0.04113538
v -0.01864325 -0.04248276 -0.05281996
v -0.00085043 -0.04414004 -0.04625925
v -0.00760746 -0.04477398 -0.04858610
v 0.01096331 -0.04477398 -0.04180689
v 0.01146132 -0.04524491 -0.04113538
v 0.01090732 -0.04601469 -0.04113538
v 0.01026197 -0.04605997 -0.04113538
v 0.00921881 -0.04604186 -0.04179087
v 0.01146132 -0.04477398 -0.04155865
v -0.01596166 0.04617770 -0.04113538
v -0.01864325 0.04625016 -0.04274038
v -0.01817766 -0.04248276 -0.05265180
v 0.00582703 -0.04373252 -0.04390037
v -0.01864325 0.02848184 -0.05282110
v 0.01146132 -0.04248276 -0.04186409
v 0.01146132 0.04554377 -0.04113538
v -0.01367199 0.04625016 -0.04113538
v -0.01825132 0.04625921 -0.04274038
v -0.01864325 0.04625921 -0.04502947
v -0.00909265 -0.04248276 -0.04934570
v -0.01817766 0.04222013 -0.05265180
v -0.00073256 -0.04248276 -0.04630272
v -0.01864325 0.04222013 -0.05281996
v 0.01146132 0.04222013 -0.04186409
v 0.01146132 0.04519963 -0.04156322
v 0.01077472 0.04577923 -0.04173253
v 0.01114602 0.04586979 -0.04113538
v -0.01138232 0.04625921 -0.04113538
v -0.01864325 0.04625921 -0.04960767
v -0.00909265 0.04222013 -0.04934570
v -0.01864325 0.04276350 -0.05281310
v 0.00582703 0.04356045 -0.04390037
v -0.00073256 0.04222013 -0.04630272
v 0.01146132 0.04392270 -0.04177486
v 0.01146132 0.04451135 -0.04171995
v 0.01112833 0.04451135 -0.04186523
v -0.00103313 0.04567056 -0.04619176
v -0.00771649 0.04573395 -0.04854263
v -0.01439985 0.04577923 -0.05089121
v 0.00410020 0.04581545 -0.04407654
v 0.00921881 0.04589696 -0.04193616
v 0.01004980 0.04597847 -0.04113538
v 0.00006013 0.04625921 -0.04113538
v -0.01825132 0.04625921 -0.04960767
v -0.01864325 0.04596036 -0.05157646
v -0.01864325 0.04423967 -0.05265523
v -0.01404034 0.04451135 -0.05102506
v -0.00745422 0.04451135 -0.04863872
v -0.00087106 0.04451135 -0.04625124
v -0.00909265 0.04586073 -0.04873367
v -0.01864325 0.04453852 -0.05261061
v -0.01596166 0.04589696 -0.05109599
v -0.00909265 0.04615959 -0.04731857
v 0.00921881 0.04605997 -0.04113538
v 0.00006013 0.04625921 -0.04274038
v 0.00234980 0.04625016 -0.04113538
v -0.00451626 0.04625016 -0.04502947
v -0.01596166 0.04619582 -0.04960767
v 0.00234980 0.04622299 -0.04274038
v 0.00692914 0.04614148 -0.04113538
f 1 2 6
f 1 6 14
f 1 14 21
f 1 21 32
f 1 32 43
f 1 43 51
f 1 51 61
f 1 61 77
f 1 77 83
f 1 83 78
f 1 78 63
f 1 63 55
f 1 55 46
f 1 46 33
f 1 33 28
f 1 28 27
f 1 27 22
f 1 22 15
f 1 15 7
f 1 7 3
f 1 3 4
f 1 4 10
f 1 10 20
f 1 20 11
f 1 11 5
f 1 5 2
f 2 5 6
f 3 7 8
f 3 8 4
f 4 8 9
f 4 9 10
f 5 11 12
f 5 12 6
f 6 12 13
f 6 13 14
f 7 15 16
f 7 16 17
f 7 17 8
f 8 17 18
f 8 18 9
f 9 18 10
f 10 18 19
f 10 19 20
f 11 20 19
f 11 19 30
f 11 30 31
f 11 31 29
f 11 29 39
f 11 39 38
f 11 38 37
f 11 37 48
f 11 48 59
f 11 59 74
f 11 74 86
f 11 86 92
f 11 92 88
f 11 88 75
f 11 75 60
f 11 60 49
f 11 49 42
f 11 42 32
f 11 32 21
f 11 21 13
f 11 13 12
f 13 21 14
f 15 22 16
f 16 23 24
f 16 24 25
f 16 25 26
f 16 26 17
f 16 22 27
f 16 27 28
f 16 28 23
f 17 26 29
f 17 29 18
f 18 30 19
f 18 29 31
f 18 31 30
f 23 28 33
f 23 33 34
f 23 34 35
f 23 35 24
f 24 35 34
f 24 34 36
f 24 36 25
f 25 37 38
f 25 38 39
f 25 39 40
f 25 40 26
f 25 36 41
f 25 41 37
f 26 40 29
f 29 40 39
f 32 42 43
f 33 44 45
f 33 45 34
f 33 46 44
f 34 45 36
f 36 45 47
f 36 47 41
f 37 41 47
f 37 47 56
f 37 56 66
f 37 66 67
f 37 67 57
f 37 57 48
f 42 49 43
f 43 49 50
f 43 50 51
f 44 52 45
f 44 46 53
f 44 53 62
f 44 62 52
f 45 52 54
f 45 54 47
f 46 55 53
f 47 54 65
f 47 65 56
f 48 57 58
f 48 58 59
f 49 60 50
f 50 60 75
f 50 75 87
f 50 87 76
f 50 76 61
f 50 61 51
f 52 62 65
f 52 65 54
f 53 55 63
f 53 63 64
f 53 64 62
f 56 65 64
f 56 64 66
f 57 67 58
f 58 67 68
f 58 68 69
f 58 69 70
f 58 70 71
f 58 71 72
f 58 72 73
f 58 73 59
f 59 73 74
f 61 76 77
f 62 64 65
f 63 78 79
f 63 79 64
f 64 79 80
f 64 80 81
f 64 81 69
f 64 69 68
f 64 68 66
f 66 68 67
f 69 81 80
f 69 80 79
f 69 79 70
f 70 79 71
f 71 82 72
f 71 79 83
f 71 83 77
f 71 77 84
f 71 84 82
f 72 82 73
f 73 82 84
f 73 84 85
f 73 85 86
f 73 86 74
f 75 88 87
f 76 89 90
f 76 90 77
f 76 87 89
f 77 90 84
f 78 83 79
f 84 90 85
f 85 90 91
f 85 91 86
f 86 91 92
f 87 88 91
f 87 91 89
f 88 92 91
f 89 91 90

