# https://github.com/mikedh/trimesh
v -0.07564225 -0.03104102 -0.06024858
v -0.07564225 -0.03289931 -0.06104837
v -0.07564225 -0.03100248 -0.06025040
v -0.07778059 -0.03104102 -0.06103380
v -0.08654748 -0.03332959 -0.06421475
v -0.08769210 -0.03561906 -0.06463196
v -0.08769068 -0.03619098 -0.06463196
v -0.08654606 -0.03619098 -0.06421840
v -0.08467537 -0.03619098 -0.06404896
v -0.07564225 -0.03619098 -0.06524592
v -0.07564225 -0.02917198 -0.06105019
v -0.07952457 -0.02962557 -0.06195565
v -0.07989614 -0.03104102 -0.06182630
v -0.09018635 -0.03332959 -0.06555564
v -0.09018635 -0.03561906 -0.06554106
v -0.08922538 -0.03619098 -0.06519309
v -0.07564225 -0.03619098 -0.07356632
v -0.07778059 -0.02932348 -0.06162226
v -0.07564225 -0.02703401 -0.06523135
v -0.07626296 -0.02703401 -0.06534066
v -0.07842550 -0.02703401 -0.06603661
v -0.09018635 -0.02703401 -0.07058030
v -0.09018635 -0.03160308 -0.06617506
v -0.08629549 -0.03175368 -0.06430767
v -0.09018635 -0.03619098 -0.06559025
v -0.08282888 -0.03619098 -0.07618250
v -0.08971512 -0.02703401 -0.07868937
v -0.07564225 -0.02703401 -0.07356632
v -0.09018635 -0.02703401 -0.07886063
v -0.09018635 -0.03619098 -0.07842338
v -0.08636383 -0.03619098 -0.07746873
v -0.08940762 -0.03332959 -0.07857642
v -0.09018635 -0.02790623 -0.07886063
v -0.09018635 -0.03482214 -0.07868208
v -0.08962828 -0.03619098 -0.07842338
v -0.08798253 -0.03619098 -0.07797156
v -0.08833133 -0.03561906 -0.07815921
v -0.09018635 -0.03248427 -0.07885880
v -0.08947595 -0.03561906 -0.07848714
f 1 2 10
f 1 10 17
f 1 17 28
f 1 28 19
f 1 19 11
f 1 11 3
f 1 3 4
f 1 4 5
f 1 5 6
f 1 6 7
f 1 7 8
f 1 8 2
f 2 8 9
f 2 9 10
f 3 11 12
f 3 12 4
f 4 12 13
f 4 13 14
f 4 14 5
f 5 14 15
f 5 15 6
f 6 15 7
f 7 16 25
f 7 25 30
f 7 30 35
f 7 35 36
f 7 36 31
f 7 31 26
f 7 26 17
f 7 17 10
f 7 10 9
f 7 9 8
f 7 15 16
f 11 18 12
f 11 19 20
f 11 20 21
f 11 21 22
f 11 22 18
f 12 23 24
f 12 24 14
f 12 14 13
f 12 18 22
f 12 22 23
f 14 23 22
f 14 22 29
f 14 29 33
f 14 33 38
f 14 38 34
f 14 34 30
f 14 30 25
f 14 25 15
f 14 24 23
f 15 25 16
f 17 26 27
f 17 27 28
f 19 28 27
f 19 27 29
f 19 29 22
f 19 22 21
f 19 21 20
f 26 31 27
f 27 31 32
f 27 32 33
f 27 33 29
f 30 34 35
f 31 36 37
f 31 37 32
f 32 37 38
f 32 38 33
f 34 38 39
f 34 39 35
f 35 39 36
f 36 39 37
f 37 39 38

