# https://github.com/mikedh/trimesh
v 0.12369243 -0.01272173 0.01159970
v 0.12141226 -0.01729917 0.01147480
v 0.12141226 -0.01947031 0.01147059
v 0.12332598 -0.01947031 0.01146638
v 0.12369243 -0.01501319 0.01154637
v 0.12492587 -0.01272173 0.01118571
v 0.12492587 0.00227937 0.01118571
v 0.12369330 0.00330205 0.01159829
v 0.12141314 0.01703437 0.01147480
v 0.12026736 -0.01947031 0.01105520
v 0.12026823 0.02161181 0.01105660
v 0.12339086 -0.01947031 0.01142568
v 0.12484522 -0.01621634 0.01107204
v 0.12488730 -0.01501319 0.01113239
v 0.12543083 -0.01272173 0.00991709
v 0.12543083 0.00227937 0.00991709
v 0.12492587 0.01245693 0.01118431
v 0.12369330 0.01245693 0.01159689
v 0.12141314 0.01932582 0.01147199
v 0.12027349 0.02390326 0.01105801
v 0.11978256 -0.01947031 0.00997182
v 0.11954061 0.02617831 0.01055561
v 0.12445774 -0.01947031 0.01045878
v 0.12720604 -0.01671947 0.00441177
v 0.12728319 -0.01501319 0.00461946
v 0.12618913 -0.01501319 0.00762683
v 0.12535456 -0.01501319 0.00991709
v 0.12503107 -0.01947031 0.00932488
v 0.12512224 -0.01710776 0.00998164
v 0.12626452 -0.01272173 0.00762683
v 0.12589282 0.00227937 0.00864987
v 0.12543083 0.01245693 0.00991569
v 0.12489694 0.01474838 0.01114502
v 0.12369330 0.01474838 0.01155900
v 0.12316380 0.02161181 0.01146217
v 0.12141314 0.02161181 0.01146217
v 0.12141840 0.02390326 0.01133727
v 0.11954061 0.02846430 0.01044615
v 0.11896202 -0.00127539 0.00808853
v 0.11976504 -0.01947031 0.00990867
v 0.11896202 0.00121841 0.00810116
v 0.11896202 0.00101059 0.00810116
v 0.11896202 -0.00107305 0.00808993
v 0.12784337 -0.01501319 0.00305193
v 0.12709909 -0.01824529 0.00411847
v 0.12742258 -0.01947031 0.00274460
v 0.12753128 -0.01740855 0.00323296
v 0.12732088 -0.01272173 0.00472471
v 0.12701318 -0.01947031 0.00388130
v 0.12732088 0.00227937 0.00472471
v 0.12732088 0.01245693 0.00472331
v 0.12687554 0.01474838 0.00579126
v 0.12537384 0.01474838 0.00991569
v 0.12485837 0.01603903 0.01109169
v 0.12291484 0.02390326 0.01133727
v 0.12179974 0.02531970 0.01116606
v 0.12266850 0.02531970 0.01116606
v 0.11954061 0.03076669 0.00985675
v 0.11896202 0.00227937 0.00804924
v 0.11896202 -0.01947031 0.00591615
v 0.12742432 -0.01947031 0.00263373
v 0.12742432 -0.01947031 0.00135669
v 0.12757161 -0.01729917 0.00123179
v 0.12768733 -0.01501319 0.00116443
v 0.12791701 -0.01272173 0.00305193
v 0.12765138 0.00227937 0.00379991
v 0.12791788 0.01245693 0.00305052
v 0.12729195 0.01474838 0.00464613
v 0.12721832 0.01654217 0.00444405
v 0.12514503 0.01689765 0.01000269
v 0.12481541 0.02260167 0.00871161
v 0.12439988 0.02174853 0.00982728
v 0.12294465 0.02612909 0.00984131
v 0.12265096 0.02756740 0.00902737
v 0.12067938 0.03076669 0.00932909
v 0.11954061 0.03247298 0.00904000
v 0.12379675 0.02390326 0.00991569
v 0.11896202 0.00227937 -0.00154403
v 0.11954061 0.03341909 0.00762683
v 0.11954061 0.03531131 0.00338873
v 0.11954061 0.03638868 0.00076167
v 0.11954061 0.03639962 0.00010069
v 0.11896202 -0.01947031 -0.00273406
v 0.12627504 -0.01947031 0.00021015
v 0.12627591 -0.01501319 0.00002070
v 0.12772414 -0.01272173 0.00114759
v 0.12627591 -0.01729917 0.00008947
v 0.12791788 0.00227937 0.00305052
v 0.12769609 0.01474838 0.00116022
v 0.12786089 0.01474838 0.00305052
v 0.12772414 0.01245693 0.00114619
v 0.12755232 0.01719843 0.00325401
v 0.12743484 0.01932582 0.00276424
v 0.12727705 0.02161181 0.00232500
v 0.12711137 0.01806798 0.00415215
v 0.12525988 0.02174853 0.00782049
v 0.12686152 0.02161181 0.00347012
v 0.12717449 0.02288605 0.00203871
v 0.12509331 0.02340560 0.00718478
v 0.12460063 0.02406186 0.00782049
v 0.12377396 0.02618925 0.00762683
v 0.12231521 0.02909322 0.00812642
v 0.12029102 0.03195343 0.00882388
v 0.11896202 -0.00508719 -0.00265688
v 0.11954061 0.03575976 -0.00162542
v 0.11954061 0.03565586 -0.00176856
v 0.11954061 0.03335893 -0.00248707
v 0.11961250 0.03530038 0.00321893
v 0.12051457 0.03222688 0.00762683
v 0.11988864 0.03604415 0.00076167
v 0.12077318 0.03484100 -0.00095602
v 0.11896202 -0.01354206 -0.00273687
v 0.11969753 -0.01947031 -0.00246743
v 0.12513101 -0.01947031 -0.00049011
v 0.12627591 -0.01272173 0.00000106
v 0.12772414 0.00227937 0.00114619
v 0.12627591 0.01474838 0.00001509
v 0.12627591 0.01703437 0.00007684
v 0.12627504 0.01932582 0.00019893
v 0.12500390 0.02618925 -0.00048871
v 0.12492499 0.02774241 -0.00045363
v 0.12759002 0.01703437 0.00122197
v 0.12743484 0.01932582 0.00134266
v 0.12727705 0.02161181 0.00155877
v 0.12717449 0.02288605 0.00176927
v 0.12627591 0.00227937 0.00000106
v 0.12627591 0.01245693 0.00000246
v 0.12462781 0.02907681 0.00076167
v 0.12500916 0.02772600 0.00237692
v 0.12538349 0.02627675 0.00310525
v 0.12651612 0.02375013 0.00290177
v 0.12479087 0.02493688 0.00635119
v 0.12286399 0.02839320 0.00746825
v 0.12441041 0.02848617 0.00310525
v 0.12259310 0.02970026 0.00660099
v 0.12169717 0.03058622 0.00746825
v 0.12207588 0.03121514 0.00533798
v 0.12237306 0.03166905 0.00371010
v 0.12265096 0.03204094 0.00218326
v 0.11896202 -0.00585284 -0.00273406
v 0.12286136 0.03235266 -0.00068518
v 0.12326988 0.03076669 -0.00087182
v 0.12140524 0.03076669 -0.00181066
v 0.12369330 0.02618925 -0.00101356
v 0.11954061 0.03108388 -0.00252496
v 0.12143768 0.03310189 0.00313894
v 0.12050142 0.03450193 0.00256777
v 0.12082578 0.03490662 0.00076167
v 0.11896202 -0.00814429 -0.00273687
v 0.11954061 0.01245693 -0.00252637
v 0.12513101 0.01703437 -0.00049011
v 0.12512400 0.02161181 -0.00049011
v 0.12507928 0.02390326 -0.00049011
v 0.12513013 0.01932582 -0.00049011
v 0.12379237 0.03076669 0.00076167
v 0.12506789 0.02557127 0.00482576
v 0.12316205 0.03085419 0.00298878
v 0.12282279 0.03007214 0.00533798
v 0.12285961 0.03233626 0.00076167
v 0.12197068 0.03347925 0.00076167
v 0.12140524 0.02848070 -0.00184715
v 0.11954061 0.01506011 -0.00252637
f 1 2 3
f 1 3 4
f 1 4 5
f 1 5 6
f 1 6 7
f 1 7 8
f 1 8 9
f 1 9 2
f 2 10 3
f 2 9 11
f 2 11 10
f 3 10 21
f 3 21 40
f 3 40 60
f 3 60 83
f 3 83 113
f 3 113 114
f 3 114 84
f 3 84 62
f 3 62 61
f 3 61 46
f 3 46 49
f 3 49 28
f 3 28 23
f 3 23 12
f 3 12 4
f 4 12 13
f 4 13 14
f 4 14 5
f 5 14 6
f 6 14 15
f 6 15 16
f 6 16 7
f 7 16 32
f 7 32 17
f 7 17 8
f 8 17 18
f 8 18 9
f 9 18 19
f 9 19 20
f 9 20 11
f 10 11 22
f 10 22 21
f 11 20 22
f 12 23 13
f 13 24 25
f 13 25 26
f 13 26 27
f 13 27 14
f 13 23 28
f 13 28 29
f 13 29 24
f 14 27 15
f 15 27 26
f 15 26 30
f 15 30 31
f 15 31 16
f 16 31 32
f 17 32 33
f 17 33 34
f 17 34 18
f 18 34 35
f 18 35 36
f 18 36 19
f 19 36 20
f 20 36 37
f 20 37 38
f 20 38 22
f 21 39 40
f 21 22 39
f 22 38 41
f 22 41 42
f 22 42 43
f 22 43 39
f 24 44 25
f 24 29 28
f 24 28 45
f 24 45 46
f 24 46 47
f 24 47 44
f 25 44 48
f 25 48 26
f 26 48 30
f 28 49 45
f 30 48 31
f 31 48 50
f 31 50 51
f 31 51 32
f 32 51 52
f 32 52 53
f 32 53 33
f 33 53 54
f 33 54 35
f 33 35 34
f 35 55 37
f 35 37 36
f 35 54 55
f 37 55 57
f 37 57 56
f 37 56 38
f 38 56 57
f 38 57 58
f 38 58 59
f 38 59 41
f 39 60 40
f 39 43 42
f 39 42 41
f 39 41 59
f 39 59 78
f 39 78 104
f 39 104 140
f 39 140 149
f 39 149 112
f 39 112 83
f 39 83 60
f 44 47 46
f 44 46 61
f 44 61 62
f 44 62 63
f 44 63 64
f 44 64 65
f 44 65 48
f 45 49 46
f 48 65 66
f 48 66 50
f 50 66 51
f 51 66 67
f 51 67 68
f 51 68 52
f 52 68 54
f 52 54 53
f 54 68 69
f 54 69 70
f 54 70 71
f 54 71 72
f 54 72 55
f 55 72 57
f 57 73 74
f 57 74 75
f 57 75 76
f 57 76 58
f 57 72 77
f 57 77 73
f 58 76 59
f 59 76 79
f 59 79 80
f 59 80 81
f 59 81 82
f 59 82 78
f 62 84 63
f 63 84 64
f 64 85 86
f 64 86 65
f 64 84 87
f 64 87 85
f 65 86 88
f 65 88 66
f 66 88 67
f 67 89 90
f 67 90 68
f 67 88 116
f 67 116 91
f 67 91 89
f 68 90 69
f 69 92 93
f 69 93 94
f 69 94 95
f 69 95 70
f 69 90 92
f 70 95 96
f 70 96 71
f 71 96 97
f 71 97 94
f 71 94 98
f 71 98 99
f 71 99 100
f 71 100 73
f 71 73 77
f 71 77 72
f 73 100 74
f 74 100 101
f 74 101 102
f 74 102 75
f 75 103 76
f 75 102 103
f 76 103 79
f 78 82 105
f 78 105 106
f 78 106 107
f 78 107 104
f 79 108 80
f 79 103 109
f 79 109 108
f 80 108 110
f 80 110 81
f 81 110 82
f 82 110 111
f 82 111 105
f 83 112 113
f 84 114 87
f 85 115 86
f 85 87 114
f 85 114 115
f 86 115 116
f 86 116 88
f 89 91 117
f 89 117 118
f 89 118 119
f 89 119 120
f 89 120 121
f 89 121 122
f 89 122 90
f 90 122 123
f 90 123 124
f 90 124 125
f 90 125 98
f 90 98 94
f 90 94 93
f 90 93 92
f 91 116 115
f 91 115 126
f 91 126 127
f 91 127 117
f 94 97 95
f 95 97 96
f 98 125 128
f 98 128 129
f 98 129 130
f 98 130 131
f 98 131 132
f 98 132 99
f 99 132 100
f 100 132 101
f 101 133 102
f 101 132 133
f 102 133 134
f 102 134 135
f 102 135 136
f 102 136 103
f 103 136 137
f 103 137 138
f 103 138 139
f 103 139 109
f 104 107 140
f 105 111 106
f 106 111 141
f 106 141 107
f 107 141 142
f 107 142 121
f 107 121 120
f 107 120 143
f 107 143 144
f 107 144 145
f 107 145 140
f 108 109 146
f 108 146 147
f 108 147 148
f 108 148 110
f 109 139 146
f 110 148 141
f 110 141 111
f 112 149 162
f 112 162 150
f 112 150 114
f 112 114 113
f 114 150 162
f 114 162 151
f 114 151 126
f 114 126 115
f 117 152 153
f 117 153 120
f 117 120 118
f 117 127 152
f 118 120 119
f 120 144 143
f 120 153 144
f 121 142 141
f 121 141 128
f 121 128 125
f 121 125 124
f 121 124 123
f 121 123 122
f 126 151 127
f 127 151 154
f 127 154 152
f 128 155 129
f 128 141 155
f 129 155 134
f 129 134 130
f 130 134 133
f 130 133 156
f 130 156 131
f 131 156 132
f 132 156 133
f 134 155 157
f 134 157 158
f 134 158 135
f 135 158 136
f 136 158 137
f 137 158 138
f 138 158 157
f 138 157 139
f 139 159 160
f 139 160 148
f 139 148 147
f 139 147 146
f 139 157 159
f 140 145 149
f 141 148 160
f 141 160 159
f 141 159 155
f 144 161 145
f 144 153 152
f 144 152 154
f 144 154 151
f 144 151 161
f 145 161 162
f 145 162 149
f 151 162 161
f 155 159 157

