# https://github.com/mikedh/trimesh
v 0.11665231 -0.03765404 0.00492832
v 0.11656021 -0.03765404 0.00519476
v 0.11665231 -0.03820085 0.00303779
v 0.11665231 -0.03765404 -0.00337204
v 0.11583902 -0.03765404 0.00689692
v 0.11517401 -0.03868933 0.00533732
v 0.11664295 -0.03823325 0.00295124
v 0.11665231 -0.03823812 0.00290881
v 0.11665231 -0.03789707 -0.00337035
v 0.11453555 -0.03791003 -0.00433258
v 0.11453555 -0.03765404 -0.00433428
v 0.11467761 -0.03765404 0.00792874
v 0.11367699 -0.03926125 0.00680868
v 0.11106694 -0.04133263 0.00645569
v 0.11402978 -0.03951480 0.00533732
v 0.11548154 -0.03891129 0.00364873
v 0.11665231 -0.03869662 0.00124738
v 0.11217840 -0.04078987 0.00554945
v 0.11665231 -0.03850382 -0.00318367
v 0.11166169 -0.04177979 -0.00517433
v 0.11310253 -0.04019932 -0.00475855
v 0.11195829 -0.04019932 -0.00527955
v 0.11311658 -0.03791003 -0.00486377
v 0.11311658 -0.03765404 -0.00486377
v 0.11241879 -0.03765404 0.00795420
v 0.11224552 -0.03791003 0.00786595
v 0.10954025 -0.04153029 0.00661351
v 0.10537854 -0.04390788 0.00449557
v 0.10664922 -0.04368106 0.00429022
v 0.10995549 -0.04257529 0.00304797
v 0.11136978 -0.04152300 0.00492832
v 0.11345220 -0.04138771 -0.00021549
v 0.11434355 -0.04052335 0.00063304
v 0.11464482 -0.03969788 0.00295124
v 0.11600760 -0.03929041 0.00075862
v 0.11665231 -0.03882462 0.00075862
v 0.11621679 -0.03950913 -0.00307336
v 0.11665231 -0.03930823 -0.00152903
v 0.11373006 -0.04156431 -0.00323119
v 0.10921868 -0.04381715 -0.00525579
v 0.10653371 -0.04364055 -0.00725664
v 0.10995549 -0.04019932 -0.00601438
v 0.10653839 -0.04248780 -0.00725833
v 0.10537854 -0.04248780 -0.00768090
v 0.10309007 -0.04248780 -0.00851417
v 0.10755618 -0.03765404 -0.00688837
v 0.11021150 -0.03765404 0.00739926
v 0.10844441 -0.04153029 0.00661351
v 0.10309007 -0.04397025 0.00447181
v 0.10309007 -0.04475765 0.00304797
v 0.10537854 -0.04436638 0.00304797
v 0.10692084 -0.04378718 0.00304797
v 0.10806508 -0.04334163 0.00304797
v 0.11170853 -0.04172228 0.00304797
v 0.10995549 -0.04292930 0.00075862
v 0.11224552 -0.04227394 -0.00152903
v 0.11369104 -0.04154163 -0.00152903
v 0.11483527 -0.04073317 -0.00152903
v 0.11635103 -0.03958852 -0.00152903
v 0.10926395 -0.04382768 -0.00381837
v 0.10766857 -0.04446764 -0.00381837
v 0.10537854 -0.04515378 -0.00381837
v 0.10309007 -0.04552156 -0.00610772
v 0.10537854 -0.04482165 -0.00610772
v 0.10537854 -0.04400833 -0.00746538
v 0.10070637 -0.04489618 -0.00858374
v 0.10070637 -0.04248780 -0.00938137
v 0.10309007 -0.03765404 -0.00851417
v 0.10995549 -0.03765404 0.00730592
v 0.10167421 -0.04248780 0.00429192
v 0.10995549 -0.03791003 0.00730592
v 0.10825708 -0.04019932 0.00668309
v 0.10176476 -0.04376368 0.00425968
v 0.10070637 -0.04449032 0.00309379
v 0.10070637 -0.04459321 0.00294784
v 0.10070637 -0.04560824 0.00076541
v 0.10080004 -0.04559852 0.00075862
v 0.10309007 -0.04529231 0.00075862
v 0.10537854 -0.04468880 0.00075862
v 0.10733764 -0.04394919 0.00075862
v 0.10848187 -0.04350365 0.00075862
v 0.10984466 -0.04328330 -0.00143399
v 0.10900794 -0.04370860 -0.00213488
v 0.10784810 -0.04406098 -0.00143399
v 0.10537854 -0.04493830 -0.00152903
v 0.10309007 -0.04553695 -0.00381837
v 0.10136981 -0.04584316 -0.00610772
v 0.10309007 -0.04543083 -0.00152903
v 0.10070637 -0.04508736 -0.00839707
v 0.10070637 -0.04499825 -0.00853113
v 0.10070637 -0.03765404 -0.00937967
v 0.10097643 -0.03765404 -0.00928294
v 0.10852090 -0.03765404 0.00675607
v 0.10834138 -0.03765404 0.00668649
v 0.10176476 -0.04119653 0.00425968
v 0.10070637 -0.04230229 0.00389651
v 0.10070637 -0.04248780 0.00390499
v 0.10070637 -0.04561796 0.00060759
v 0.10080004 -0.04571679 -0.00152903
v 0.10070637 -0.04573299 -0.00162576
v 0.10070637 -0.04582372 -0.00365206
v 0.10070637 -0.04592903 -0.00610772
v 0.10070637 -0.03765404 -0.00507081
v 0.10403137 -0.03894045 0.00433096
v 0.10077974 -0.03765404 -0.00123713
v 0.10070637 -0.03766296 -0.00126259
v 0.10070637 -0.04074775 0.00305985
v 0.10070637 -0.04572813 -0.00152903
f 1 2 3
f 1 3 8
f 1 8 17
f 1 17 36
f 1 36 38
f 1 38 19
f 1 19 9
f 1 9 4
f 1 4 11
f 1 11 24
f 1 24 46
f 1 46 68
f 1 68 92
f 1 92 91
f 1 91 103
f 1 103 105
f 1 105 94
f 1 94 93
f 1 93 69
f 1 69 47
f 1 47 25
f 1 25 12
f 1 12 5
f 1 5 2
f 2 5 6
f 2 6 7
f 2 7 8
f 2 8 3
f 4 9 10
f 4 10 11
f 5 12 13
f 5 13 14
f 5 14 6
f 6 15 16
f 6 16 17
f 6 17 8
f 6 8 7
f 6 14 18
f 6 18 15
f 9 19 20
f 9 20 21
f 9 21 22
f 9 22 10
f 10 23 11
f 10 22 23
f 11 23 24
f 12 25 26
f 12 26 27
f 12 27 14
f 12 14 13
f 14 27 28
f 14 28 29
f 14 29 30
f 14 30 31
f 14 31 18
f 15 18 32
f 15 32 33
f 15 33 34
f 15 34 16
f 16 34 35
f 16 35 17
f 17 35 36
f 18 31 32
f 19 37 20
f 19 38 37
f 20 37 39
f 20 39 40
f 20 40 41
f 20 41 21
f 21 41 22
f 22 41 23
f 23 41 42
f 23 42 43
f 23 43 44
f 23 44 45
f 23 45 46
f 23 46 24
f 25 47 48
f 25 48 26
f 26 48 27
f 27 48 49
f 27 49 28
f 28 49 50
f 28 50 51
f 28 51 29
f 29 51 52
f 29 52 53
f 29 53 30
f 30 54 31
f 30 53 55
f 30 55 56
f 30 56 54
f 31 54 57
f 31 57 32
f 32 57 58
f 32 58 33
f 33 58 35
f 33 35 34
f 35 58 36
f 36 58 59
f 36 59 38
f 37 38 59
f 37 59 39
f 39 60 40
f 39 59 58
f 39 58 57
f 39 57 56
f 39 56 60
f 40 60 61
f 40 61 62
f 40 62 63
f 40 63 64
f 40 64 65
f 40 65 41
f 41 65 66
f 41 66 67
f 41 67 45
f 41 45 44
f 41 44 43
f 41 43 42
f 45 67 68
f 45 68 46
f 47 69 70
f 47 70 71
f 47 71 72
f 47 72 48
f 48 72 73
f 48 73 49
f 49 73 74
f 49 74 75
f 49 75 50
f 50 75 76
f 50 76 77
f 50 77 78
f 50 78 51
f 51 78 79
f 51 79 52
f 52 79 61
f 52 61 80
f 52 80 81
f 52 81 53
f 53 81 82
f 53 82 55
f 54 56 57
f 55 82 56
f 56 82 60
f 60 82 61
f 61 82 83
f 61 83 84
f 61 84 80
f 61 79 85
f 61 85 62
f 62 86 87
f 62 87 63
f 62 85 78
f 62 78 88
f 62 88 86
f 63 87 89
f 63 89 64
f 64 89 65
f 65 89 90
f 65 90 66
f 66 90 89
f 66 89 102
f 66 102 101
f 66 101 100
f 66 100 108
f 66 108 98
f 66 98 76
f 66 76 75
f 66 75 74
f 66 74 97
f 66 97 96
f 66 96 107
f 66 107 106
f 66 106 103
f 66 103 91
f 66 91 67
f 67 91 92
f 67 92 68
f 69 93 70
f 70 93 94
f 70 94 95
f 70 95 96
f 70 96 97
f 70 97 73
f 70 73 72
f 70 72 71
f 73 97 74
f 76 98 77
f 77 98 99
f 77 99 88
f 77 88 78
f 78 85 79
f 80 84 81
f 81 84 83
f 81 83 82
f 86 88 100
f 86 100 101
f 86 101 102
f 86 102 87
f 87 102 89
f 88 99 100
f 94 104 95
f 94 105 106
f 94 106 104
f 95 104 107
f 95 107 96
f 98 108 99
f 99 108 100
f 103 106 105
f 104 106 107

