# https://github.com/mikedh/trimesh
v -0.08215735 0.02491996 -0.07593702
v -0.08215735 0.03597261 -0.07593702
v -0.08213730 0.02491996 -0.07593070
v -0.08215735 0.02491996 -0.06792940
v -0.08215735 0.03597261 -0.06591538
v -0.08199248 0.03597261 -0.07587803
v -0.08050421 0.03597261 -0.07533661
v -0.07777722 0.02491996 -0.07434435
v -0.07941252 0.02942433 -0.06199057
v -0.08215735 0.03061778 -0.06333887
v -0.05939892 0.02491996 -0.05690285
v -0.05939892 0.02515909 -0.05647730
v -0.05939892 0.02613722 -0.05491622
v -0.05939892 0.02615994 -0.05488251
v -0.06765345 0.02725817 -0.05754751
v -0.08215735 0.03591851 -0.06572156
v -0.05939892 0.03597261 -0.05964580
v -0.07777722 0.03597261 -0.07434435
v -0.07319879 0.02491996 -0.07267793
v -0.07447095 0.02953037 -0.05986489
v -0.07981355 0.03077467 -0.06185363
v -0.08095649 0.03077467 -0.06251725
v -0.08215735 0.03306310 -0.06277427
v -0.05939892 0.02491996 -0.06765342
v -0.05939892 0.02657434 -0.05479614
v -0.06112112 0.02689570 -0.05514585
v -0.06633227 0.02848624 -0.05689443
v -0.08215735 0.03586873 -0.06559516
v -0.05946353 0.03002052 -0.05492254
v -0.05939892 0.03001835 -0.05491833
v -0.05939892 0.03597261 -0.06765342
v -0.08215735 0.03476834 -0.06369069
v -0.07910730 0.03423383 -0.06216964
v -0.07319879 0.03597261 -0.07267793
v -0.06359859 0.02491996 -0.06918289
v -0.07453333 0.03077467 -0.05984383
v -0.06137733 0.02848624 -0.05505526
v -0.07447095 0.03200599 -0.05986700
v -0.05939892 0.02848624 -0.05441693
v -0.05946353 0.02848624 -0.05443378
v -0.06112112 0.02986904 -0.05514796
v -0.06340253 0.03597261 -0.06911127
v -0.07319879 0.03077467 -0.05936139
f 1 2 3
f 1 3 8
f 1 8 19
f 1 19 35
f 1 35 24
f 1 24 11
f 1 11 4
f 1 4 10
f 1 10 23
f 1 23 32
f 1 32 28
f 1 28 16
f 1 16 5
f 1 5 2
f 2 5 17
f 2 17 31
f 2 31 42
f 2 42 34
f 2 34 18
f 2 18 7
f 2 7 6
f 2 6 3
f 3 6 7
f 3 7 8
f 4 9 10
f 4 11 12
f 4 12 13
f 4 13 14
f 4 14 15
f 4 15 9
f 5 16 17
f 7 18 8
f 8 18 34
f 8 34 19
f 9 20 21
f 9 21 22
f 9 22 10
f 9 15 20
f 10 22 23
f 11 24 31
f 11 31 17
f 11 17 30
f 11 30 39
f 11 39 25
f 11 25 14
f 11 14 13
f 11 13 12
f 14 25 26
f 14 26 15
f 15 26 27
f 15 27 20
f 16 28 17
f 17 29 30
f 17 28 32
f 17 32 33
f 17 33 29
f 19 34 35
f 20 36 21
f 20 27 37
f 20 37 36
f 21 23 22
f 21 36 23
f 23 33 32
f 23 36 38
f 23 38 33
f 24 35 31
f 25 39 26
f 26 39 40
f 26 40 37
f 26 37 27
f 29 39 30
f 29 33 41
f 29 41 39
f 31 35 42
f 33 38 41
f 34 42 35
f 36 37 43
f 36 43 38
f 37 40 41
f 37 41 38
f 37 38 43
f 39 41 40

