# https://github.com/mikedh/trimesh
v 0.01146132 0.04625837 -0.03431363
v 0.01146132 0.03773876 -0.03431363
v 0.01146132 0.04625837 -0.03816068
v 0.00692839 0.04625837 -0.03431363
v 0.01146132 0.03773876 -0.03919061
v -0.00646063 0.03773876 -0.03431363
v 0.01146132 0.04613410 -0.03919061
v 0.00921895 0.04623335 -0.03919061
v 0.00692839 0.04625837 -0.03919061
v 0.00006237 0.04625837 -0.03587164
v 0.00464066 0.04624836 -0.03431363
v -0.01193190 0.03773876 -0.03919061
v -0.00401415 0.04451108 -0.03431363
v -0.00429764 0.04451108 -0.03440435
v -0.01088017 0.04451108 -0.03678888
v -0.01742869 0.04472960 -0.03919061
v -0.01746554 0.04451108 -0.03917628
v -0.01749956 0.04451108 -0.03919061
v -0.01744003 0.04268289 -0.03918392
v -0.01745137 0.04267372 -0.03919061
v -0.00894397 0.03773876 -0.03557799
v -0.00680365 0.04625837 -0.03919061
v -0.00222819 0.04622001 -0.03587164
v -0.00680365 0.04625837 -0.03816068
v -0.00206094 0.04592143 -0.03431363
v -0.01195742 0.03773876 -0.03918822
v -0.01195175 0.03774710 -0.03919061
v -0.00222819 0.04584720 -0.03431363
v -0.00388659 0.04580550 -0.03455905
v -0.01056550 0.04576213 -0.03690491
v -0.01680502 0.04575462 -0.03919061
v -0.01673698 0.04144602 -0.03919061
v -0.01084616 0.03773876 -0.03665471
v -0.00909421 0.04622001 -0.03919061
v -0.00222819 0.04591892 -0.03434419
v -0.00909421 0.04618748 -0.03816068
v -0.01189222 0.03773876 -0.03811819
v -0.00909421 0.04588640 -0.03670771
v -0.01596307 0.04584219 -0.03907028
v -0.01596307 0.04586888 -0.03919061
v -0.01367251 0.04603235 -0.03919061
f 1 2 5
f 1 5 7
f 1 7 3
f 1 3 9
f 1 9 22
f 1 22 24
f 1 24 10
f 1 10 4
f 1 4 11
f 1 11 25
f 1 25 28
f 1 28 13
f 1 13 6
f 1 6 2
f 2 6 21
f 2 21 33
f 2 33 37
f 2 37 26
f 2 26 12
f 2 12 5
f 3 7 8
f 3 8 9
f 4 10 11
f 5 12 27
f 5 27 32
f 5 32 20
f 5 20 18
f 5 18 16
f 5 16 31
f 5 31 40
f 5 40 41
f 5 41 34
f 5 34 22
f 5 22 9
f 5 9 8
f 5 8 7
f 6 13 14
f 6 14 15
f 6 15 16
f 6 16 17
f 6 17 18
f 6 18 19
f 6 19 20
f 6 20 21
f 10 23 11
f 10 24 23
f 11 23 25
f 12 26 27
f 13 28 29
f 13 29 14
f 14 29 30
f 14 30 16
f 14 16 15
f 16 18 17
f 16 30 31
f 18 20 19
f 20 32 33
f 20 33 21
f 22 34 24
f 23 35 25
f 23 24 36
f 23 36 35
f 24 34 36
f 25 35 29
f 25 29 28
f 26 37 32
f 26 32 27
f 29 38 39
f 29 39 30
f 29 35 38
f 30 39 31
f 31 39 40
f 32 37 33
f 34 41 36
f 35 36 38
f 36 41 40
f 36 40 38
f 38 40 39

