# https://github.com/mikedh/trimesh
v 0.08077255 -0.03562000 -0.01663670
v 0.08123674 -0.03765404 -0.01646685
v 0.08077255 -0.03765404 -0.01663513
v 0.08077255 -0.03477264 -0.01663513
v 0.08093229 -0.03477264 -0.01657851
v 0.08393729 -0.03477264 -0.01548550
v 0.08477357 -0.03765404 -0.01518040
v 0.08238311 -0.03765404 -0.01605009
v 0.08077255 -0.03765404 -0.00859087
v 0.08077255 -0.03477264 -0.00861132
v 0.08752299 -0.03477264 -0.01418018
v 0.08794584 -0.03765404 -0.01402605
v 0.08657582 -0.03765404 -0.01452459
v 0.08758313 -0.03765404 -0.00441541
v 0.08745909 -0.03477264 -0.00425971
v 0.09995831 -0.03477264 -0.00965243
v 0.09995831 -0.03765404 -0.00965243
v 0.08935343 -0.03765404 -0.00343720
v 0.08935343 -0.03477264 -0.00323590
v 0.09996958 -0.03477264 -0.00964771
v 0.09996958 -0.03765404 -0.00964771
v 0.09206901 -0.03765404 -0.00239609
v 0.09184913 -0.03477264 -0.00205167
v 0.09120454 -0.03477264 -0.00231588
v 0.09996958 -0.03477264 -0.00057020
v 0.09996958 -0.03765404 -0.00149809
v 0.09227574 -0.03765404 -0.00232846
v 0.09392952 -0.03477264 -0.00141159
v 0.09392952 -0.03765404 -0.00187081
f 1 2 3
f 1 3 9
f 1 9 10
f 1 10 4
f 1 4 5
f 1 5 6
f 1 6 7
f 1 7 8
f 1 8 2
f 2 8 7
f 2 7 13
f 2 13 12
f 2 12 17
f 2 17 21
f 2 21 26
f 2 26 29
f 2 29 27
f 2 27 22
f 2 22 18
f 2 18 14
f 2 14 9
f 2 9 3
f 4 10 15
f 4 15 19
f 4 19 24
f 4 24 23
f 4 23 28
f 4 28 25
f 4 25 20
f 4 20 16
f 4 16 11
f 4 11 6
f 4 6 5
f 6 11 12
f 6 12 13
f 6 13 7
f 9 14 15
f 9 15 10
f 11 16 17
f 11 17 12
f 14 18 15
f 15 18 19
f 16 20 21
f 16 21 17
f 18 22 23
f 18 23 24
f 18 24 19
f 20 25 26
f 20 26 21
f 22 27 23
f 23 27 28
f 25 28 29
f 25 29 26
f 27 29 28

