# https://github.com/mikedh/trimesh
v 0.01146132 -0.03134822 -0.01801299
v 0.01322186 -0.03146979 -0.01801299
v 0.01608931 -0.03034642 -0.01593909
v 0.01380061 -0.03018107 -0.01619839
v 0.01146132 -0.03111965 -0.01777031
v 0.01146132 0.01821164 -0.01801299
v 0.01561174 -0.03122664 -0.01801299
v 0.01608931 -0.03103211 -0.01755565
v 0.01795507 -0.03012758 -0.01606161
v 0.02236046 -0.02793918 -0.01382245
v 0.02066873 -0.02798295 -0.01384430
v 0.01933113 -0.02777870 -0.01405088
v 0.01264716 -0.02990387 -0.01640782
v 0.01146132 -0.03107102 -0.01772709
v 0.01146132 0.01821164 -0.01656928
v 0.03213448 0.01821164 -0.01801299
v 0.01608931 -0.03111479 -0.01801299
v 0.01793889 -0.03060902 -0.01801299
v 0.01858239 -0.03031237 -0.01737519
v 0.01948087 -0.02987956 -0.01649140
v 0.02295540 -0.02887776 -0.01801299
v 0.02473820 -0.02812398 -0.01801299
v 0.02388829 -0.02743828 -0.01483162
v 0.02642994 -0.02534715 -0.01407653
v 0.02899587 -0.02328033 -0.01359355
v 0.02947951 -0.02264327 -0.01316139
v 0.02823499 -0.02341164 -0.01316139
v 0.02735472 -0.02394658 -0.01316139
v 0.02534528 -0.02506509 -0.01316139
v 0.02375675 -0.02588209 -0.01316139
v 0.02303028 -0.02604744 -0.01316139
v 0.02141139 -0.02585778 -0.01316139
v 0.02070516 -0.02529366 -0.01316139
v 0.02027008 -0.02482680 -0.01316139
v 0.01146740 -0.01499847 -0.01316139
v 0.01146132 -0.02878536 -0.01684425
v 0.01146132 -0.03102725 -0.01770667
v 0.01146132 -0.01499847 -0.01316329
v 0.01212911 0.01821164 -0.01590917
v 0.01146132 0.01601838 -0.01383100
v 0.03213448 -0.02244874 -0.01801299
v 0.03213448 0.01821164 -0.01316139
v 0.01852978 -0.03043881 -0.01801299
v 0.01989774 -0.03000600 -0.01801299
v 0.02090549 -0.02966558 -0.01801299
v 0.02066064 -0.02962182 -0.01737519
v 0.02757327 -0.02615442 -0.01801299
v 0.03119148 -0.02117947 -0.01316139
v 0.02994292 -0.02431617 -0.01801299
v 0.01146132 -0.01496929 -0.01316139
v 0.01775069 0.01821164 -0.01316139
v 0.01146132 0.01511871 -0.01316139
v 0.01147954 0.01513330 -0.01316139
v 0.01159286 0.01521597 -0.01316139
v 0.03213448 -0.02001719 -0.01316139
v 0.03137158 -0.02098495 -0.01316139
v 0.03127849 -0.02108707 -0.01316139
f 1 2 3
f 1 3 4
f 1 4 5
f 1 5 14
f 1 14 37
f 1 37 36
f 1 36 38
f 1 38 50
f 1 50 52
f 1 52 40
f 1 40 15
f 1 15 6
f 1 6 16
f 1 16 41
f 1 41 49
f 1 49 47
f 1 47 22
f 1 22 21
f 1 21 45
f 1 45 44
f 1 44 43
f 1 43 18
f 1 18 17
f 1 17 7
f 1 7 2
f 2 7 8
f 2 8 3
f 3 8 9
f 3 9 10
f 3 10 11
f 3 11 4
f 4 11 12
f 4 12 13
f 4 13 14
f 4 14 5
f 6 15 39
f 6 39 51
f 6 51 42
f 6 42 16
f 7 17 8
f 8 17 18
f 8 18 19
f 8 19 20
f 8 20 9
f 9 20 10
f 10 20 21
f 10 21 22
f 10 22 23
f 10 23 24
f 10 24 25
f 10 25 26
f 10 26 27
f 10 27 28
f 10 28 29
f 10 29 30
f 10 30 31
f 10 31 11
f 11 31 32
f 11 32 12
f 12 32 33
f 12 33 34
f 12 34 35
f 12 35 13
f 13 36 37
f 13 37 14
f 13 35 38
f 13 38 36
f 15 40 39
f 16 42 55
f 16 55 41
f 18 43 19
f 19 43 20
f 20 43 44
f 20 44 45
f 20 45 46
f 20 46 21
f 21 46 45
f 22 47 23
f 23 47 24
f 24 47 25
f 25 41 48
f 25 48 26
f 25 47 49
f 25 49 41
f 26 48 57
f 26 57 56
f 26 56 55
f 26 55 42
f 26 42 51
f 26 51 54
f 26 54 53
f 26 53 52
f 26 52 50
f 26 50 35
f 26 35 34
f 26 34 33
f 26 33 32
f 26 32 31
f 26 31 30
f 26 30 29
f 26 29 28
f 26 28 27
f 35 50 38
f 39 40 51
f 40 52 53
f 40 53 54
f 40 54 51
f 41 55 56
f 41 56 57
f 41 57 48

