# https://github.com/mikedh/trimesh
v 0.11440886 0.00879021 -0.00439294
v 0.11440886 0.01474771 -0.00439408
v 0.11445205 0.00879021 -0.00437804
v 0.11440886 0.00879021 0.00360930
v 0.11440886 0.01495308 -0.00439408
v 0.11914750 0.00879021 -0.00266917
v 0.11953980 0.00879021 0.00582820
v 0.11953980 0.01859303 0.00731472
v 0.11440886 0.01017018 0.00360930
v 0.11440886 0.01859303 -0.00439294
v 0.11453593 0.01859303 -0.00434709
v 0.11527029 0.01859303 -0.00408004
v 0.11855178 0.01859303 -0.00288578
v 0.11924193 0.00879021 -0.00263478
v 0.11953980 0.00879021 -0.00252590
v 0.11440886 0.01859303 0.00360587
v 0.11953980 0.01859303 -0.00252590
f 1 2 3
f 1 3 6
f 1 6 14
f 1 14 15
f 1 15 7
f 1 7 4
f 1 4 9
f 1 9 16
f 1 16 10
f 1 10 5
f 1 5 2
f 2 5 6
f 2 6 3
f 4 7 8
f 4 8 9
f 5 10 11
f 5 11 12
f 5 12 13
f 5 13 6
f 6 13 14
f 7 15 17
f 7 17 8
f 8 16 9
f 8 17 13
f 8 13 12
f 8 12 11
f 8 11 10
f 8 10 16
f 13 17 14
f 14 17 15

