# https://github.com/mikedh/trimesh
v -0.05939891 -0.02425450 -0.06765492
v -0.05939891 -0.02163349 -0.06765492
v -0.05776407 -0.02861124 -0.06706036
v -0.05939891 -0.02861124 -0.06765238
v -0.05939891 -0.02163349 -0.05964114
v -0.05663302 -0.02163349 -0.06664875
v -0.04597313 -0.02163349 -0.06276890
v -0.04347415 -0.02163349 -0.06185929
v -0.02980147 -0.02861124 -0.05688180
v -0.05939891 -0.02861124 -0.05449850
v -0.05939891 -0.02526547 -0.05555549
v -0.05889178 -0.02516574 -0.05508797
v -0.04720761 -0.02291359 -0.05060341
v -0.03580037 -0.02163349 -0.04603245
v -0.02531398 -0.02163349 -0.05524805
v -0.02531398 -0.02861124 -0.05524805
v -0.05932218 -0.02861124 -0.05446547
v -0.05591903 -0.02646156 -0.05311629
v -0.05939891 -0.02634202 -0.05471447
v -0.05939891 -0.02602575 -0.05487200
v -0.05441429 -0.02499087 -0.05278852
v -0.04260334 -0.02285416 -0.04834715
v -0.02531398 -0.02163349 -0.04169780
v -0.02531398 -0.02861124 -0.04724443
v -0.05477463 -0.02646156 -0.05265894
v -0.05362023 -0.02861124 -0.05314932
v -0.05259261 -0.02835166 -0.05245059
v -0.04801503 -0.02778470 -0.05056276
v -0.04926952 -0.02765833 -0.05071520
v -0.05259261 -0.02646156 -0.05185858
v -0.03584708 -0.02544034 -0.04605278
v -0.02531398 -0.02188350 -0.04179943
v -0.02531398 -0.02388905 -0.04275224
v -0.05259261 -0.02861124 -0.05292065
f 1 2 3
f 1 3 4
f 1 4 10
f 1 10 19
f 1 19 20
f 1 20 11
f 1 11 5
f 1 5 2
f 2 5 14
f 2 14 23
f 2 23 15
f 2 15 8
f 2 8 7
f 2 7 6
f 2 6 3
f 3 6 7
f 3 7 8
f 3 8 9
f 3 9 16
f 3 16 24
f 3 24 34
f 3 34 26
f 3 26 17
f 3 17 10
f 3 10 4
f 5 11 12
f 5 12 13
f 5 13 14
f 8 15 9
f 9 15 16
f 10 17 18
f 10 18 19
f 11 20 12
f 12 20 21
f 12 21 13
f 13 21 22
f 13 22 14
f 14 22 23
f 15 23 32
f 15 32 33
f 15 33 24
f 15 24 16
f 17 25 18
f 17 26 27
f 17 27 28
f 17 28 29
f 17 29 25
f 18 21 19
f 18 25 22
f 18 22 21
f 19 21 20
f 22 25 23
f 23 25 30
f 23 30 29
f 23 29 31
f 23 31 32
f 24 33 31
f 24 31 28
f 24 28 27
f 24 27 34
f 25 29 30
f 26 34 27
f 28 31 29
f 31 33 32

