# https://github.com/mikedh/trimesh
v 0.08077584 0.03381515 -0.01663506
v 0.08077584 0.03381515 -0.00860366
v 0.08077584 0.03798762 -0.01663506
v 0.08136849 0.03381515 -0.01642064
v 0.08077584 0.03798762 -0.00852525
v 0.08712380 0.03381515 -0.00414870
v 0.08136849 0.03798762 -0.01642064
v 0.10462680 0.03381515 -0.00795558
v 0.08734769 0.03798762 -0.00427031
v 0.09161479 0.03381515 -0.00172439
v 0.10768225 0.03798762 -0.00684343
v 0.11440885 0.03764288 -0.00439513
v 0.11440885 0.03381515 -0.00439513
v 0.08935283 0.03798762 -0.00333580
v 0.09393272 0.03381515 -0.00109071
v 0.09203952 0.03798762 -0.00226366
v 0.11197239 0.03798762 -0.00528164
v 0.11294368 0.03798762 -0.00492800
v 0.11440885 0.03784792 -0.00439033
v 0.11440885 0.03381515 -0.00028901
v 0.09754460 0.03381515 -0.00030342
v 0.09755448 0.03381597 -0.00028901
v 0.09393272 0.03798762 -0.00188761
v 0.11431995 0.03798762 -0.00441753
v 0.11440885 0.03798762 -0.00435513
v 0.09918756 0.03381515 -0.00028901
v 0.11440885 0.03798762 -0.00028901
v 0.10248996 0.03798762 -0.00028901
f 1 2 5
f 1 5 3
f 1 3 7
f 1 7 4
f 1 4 8
f 1 8 13
f 1 13 20
f 1 20 26
f 1 26 21
f 1 21 15
f 1 15 10
f 1 10 6
f 1 6 2
f 2 6 5
f 3 5 9
f 3 9 14
f 3 14 16
f 3 16 23
f 3 23 28
f 3 28 27
f 3 27 25
f 3 25 24
f 3 24 18
f 3 18 17
f 3 17 11
f 3 11 7
f 4 7 8
f 5 6 9
f 6 10 9
f 7 11 8
f 8 11 12
f 8 12 13
f 9 10 14
f 10 15 16
f 10 16 14
f 11 17 12
f 12 17 18
f 12 18 19
f 12 19 25
f 12 25 27
f 12 27 20
f 12 20 13
f 15 21 22
f 15 22 16
f 16 22 23
f 18 24 19
f 19 24 25
f 20 27 28
f 20 28 22
f 20 22 26
f 21 26 22
f 22 28 23

