# https://github.com/mikedh/trimesh
v 0.04486371 0.03125904 -0.02967374
v 0.04486371 0.03125904 -0.01981522
v 0.04486371 0.03207844 -0.02963081
v 0.05272316 0.03763943 -0.02682758
v 0.05501140 0.03763943 -0.02601194
v 0.05272316 0.03306461 -0.02684476
v 0.05272316 0.03125904 -0.02684476
v 0.04486371 0.03207595 -0.01955550
v 0.07824880 0.03125904 -0.00858299
v 0.04486371 0.03763943 -0.02916504
v 0.05619594 0.03763943 -0.02558266
v 0.05619594 0.03125904 -0.02558266
v 0.04585141 0.03763943 -0.01930008
v 0.04486371 0.03763943 -0.01965853
v 0.08077255 0.03125904 -0.00775017
v 0.08077255 0.03763943 -0.01663851
v 0.08077255 0.03125904 -0.01663851
v 0.08077255 0.03763943 -0.00861089
f 1 2 8
f 1 8 14
f 1 14 10
f 1 10 3
f 1 3 4
f 1 4 5
f 1 5 6
f 1 6 7
f 1 7 12
f 1 12 17
f 1 17 15
f 1 15 9
f 1 9 2
f 2 9 8
f 3 10 4
f 4 10 14
f 4 14 13
f 4 13 18
f 4 18 16
f 4 16 11
f 4 11 5
f 5 11 6
f 6 11 12
f 6 12 7
f 8 13 14
f 8 9 15
f 8 15 13
f 11 16 17
f 11 17 12
f 13 15 18
f 15 17 16
f 15 16 18

