# https://github.com/mikedh/trimesh
v 0.04486371 -0.03299138 -0.02954341
v 0.04486371 -0.03850149 -0.02939182
v 0.04486371 -0.03299138 -0.01979014
v 0.04939801 -0.03299138 -0.02805456
v 0.04961593 -0.03333063 -0.02797566
v 0.05272316 -0.03850149 -0.02682736
v 0.04486371 -0.03850149 -0.01958872
v 0.04486371 -0.03333063 -0.01969670
v 0.04501134 -0.03299138 -0.01974238
v 0.04961593 -0.03299138 -0.02797566
v 0.05076181 -0.03333063 -0.02756036
v 0.05501140 -0.03850149 -0.02601338
v 0.04585493 -0.03333063 -0.01938107
v 0.07949661 -0.03850149 -0.00871623
v 0.04585493 -0.03299138 -0.01947452
v 0.05076181 -0.03299138 -0.02756036
v 0.07790434 -0.03850149 -0.01768251
v 0.06011864 -0.03850149 -0.02415492
v 0.08019258 -0.03299138 -0.00868093
v 0.08077255 -0.03850149 -0.00833001
v 0.07790434 -0.03299138 -0.01768251
v 0.08077255 -0.03850149 -0.01663803
v 0.08077255 -0.03299138 -0.00850858
v 0.08077255 -0.03299138 -0.01663803
f 1 2 7
f 1 7 8
f 1 8 3
f 1 3 9
f 1 9 15
f 1 15 19
f 1 19 23
f 1 23 24
f 1 24 21
f 1 21 16
f 1 16 10
f 1 10 4
f 1 4 5
f 1 5 6
f 1 6 2
f 2 6 12
f 2 12 18
f 2 18 17
f 2 17 22
f 2 22 20
f 2 20 14
f 2 14 7
f 3 8 9
f 4 10 5
f 5 10 16
f 5 16 11
f 5 11 12
f 5 12 6
f 7 13 8
f 7 14 13
f 8 13 9
f 9 13 15
f 11 16 21
f 11 21 17
f 11 17 18
f 11 18 12
f 13 14 19
f 13 19 15
f 14 20 19
f 17 21 24
f 17 24 22
f 19 20 23
f 20 22 24
f 20 24 23

