# https://github.com/mikedh/trimesh
v -0.08215735 0.03920081 -0.07593686
v -0.08215735 0.03993282 -0.07593686
v -0.08167883 0.03920081 -0.07576479
v -0.05939440 0.03887708 -0.06765462
v -0.08215735 0.03920081 -0.06391553
v -0.08215735 0.04042130 -0.07587730
v -0.07777279 0.04222277 -0.07433865
v -0.08167883 0.03993282 -0.07576479
v -0.05939440 0.03993354 -0.06765462
v -0.02531954 0.03887708 -0.05524946
v -0.05939440 0.03887708 -0.05906796
v -0.08215735 0.03975289 -0.06354163
v -0.05479285 0.03887708 -0.05723482
v -0.02531954 0.03887708 -0.04552453
v -0.02883609 0.04100951 -0.04380389
v -0.03554089 0.04104708 -0.04614330
v -0.08215735 0.04227191 -0.07487139
v -0.08006523 0.04377783 -0.07412357
v -0.07777279 0.04384286 -0.07399121
v -0.07637063 0.04359429 -0.07373643
v -0.06969921 0.04366438 -0.07138047
v -0.07624822 0.04222277 -0.07378606
v -0.05946118 0.04222277 -0.06767779
v -0.02531954 0.04222277 -0.05524946
v -0.08215735 0.03982515 -0.06350523
v -0.07959784 0.04076454 -0.06195003
v -0.02531954 0.04072769 -0.04329101
v -0.02531954 0.04206885 -0.04235458
v -0.02531954 0.04224734 -0.04227186
v -0.02930347 0.04222277 -0.04362852
v -0.08215735 0.04253566 -0.07466954
v -0.08157311 0.04350757 -0.07391842
v -0.08006523 0.04437543 -0.07250219
v -0.07777279 0.04476709 -0.07250219
v -0.07447882 0.04567252 -0.07139371
v -0.07319350 0.04573177 -0.07146650
v -0.07151312 0.04573972 -0.07145989
v -0.06998855 0.04519054 -0.07124481
v -0.06438545 0.04451056 -0.06934879
v -0.05138759 0.04567902 -0.06451114
v -0.05121510 0.04451056 -0.06457401
v -0.02604845 0.04451056 -0.05541160
v -0.04452699 0.04362970 -0.06221806
v -0.02531954 0.04321202 -0.05520645
v -0.08215735 0.04222277 -0.06269785
v -0.07994838 0.04222277 -0.06182430
v -0.08109459 0.04222277 -0.06225115
v -0.02531954 0.04463340 -0.04213288
v -0.02947596 0.04451056 -0.04356896
v -0.04929547 0.04304872 -0.05070631
v -0.04261849 0.04269464 -0.04834704
v -0.08215735 0.04358489 -0.07250219
v -0.08196260 0.04365932 -0.07250219
v -0.08006523 0.04469916 -0.07021242
v -0.07777279 0.04529821 -0.07021242
v -0.07590324 0.04556557 -0.07021242
v -0.07475703 0.04570648 -0.07021242
v -0.07319350 0.04587918 -0.07021242
v -0.06861977 0.04625855 -0.06792264
v -0.07081204 0.04591387 -0.07037456
v -0.06861977 0.04595722 -0.06979550
v -0.06632733 0.04590520 -0.06941497
v -0.06475268 0.04578669 -0.06920982
v -0.05807014 0.04573827 -0.06686048
v -0.03289792 0.04573611 -0.05770468
v -0.02621537 0.04567685 -0.05535204
v -0.02531954 0.04451056 -0.05508402
v -0.08215735 0.04404953 -0.06362104
v -0.07961453 0.04395704 -0.06195003
v -0.07446769 0.04386526 -0.05986541
v -0.04929547 0.04395559 -0.05070631
v -0.07425068 0.04539142 -0.06001101
v -0.02531954 0.04595361 -0.04312225
v -0.02906978 0.04580331 -0.04372117
v -0.04243487 0.04570431 -0.04841653
v -0.04910629 0.04548175 -0.05080227
v -0.03605835 0.04451056 -0.04595469
v -0.08215735 0.04369762 -0.07170475
v -0.08215735 0.04420345 -0.06811787
v -0.08006523 0.04494701 -0.06792264
v -0.08215735 0.04452067 -0.06582809
v -0.08006523 0.04516235 -0.06563287
v -0.07777279 0.04543550 -0.06792264
v -0.07548593 0.04592688 -0.06334640
v -0.07319350 0.04600275 -0.06792264
v -0.07767264 0.04554823 -0.06574868
v -0.07090664 0.04620075 -0.06792264
v -0.06632733 0.04620653 -0.06792264
v -0.07090664 0.04624338 -0.06563287
v -0.07090664 0.04625855 -0.06334640
v -0.06175360 0.04625855 -0.06563287
v -0.05946118 0.04617040 -0.06563287
v -0.03428339 0.04616823 -0.05647707
v -0.04801572 0.04593121 -0.06262175
v -0.04114955 0.04590375 -0.06025256
v -0.03428339 0.04586690 -0.05789660
v -0.05946118 0.04586834 -0.06705240
v -0.04625188 0.04582210 -0.06239343
v -0.03958603 0.04578524 -0.06004740
v -0.02741723 0.04581415 -0.05553072
v -0.02531954 0.04590953 -0.05418068
v -0.02531954 0.04488126 -0.05503769
v -0.08215735 0.04410445 -0.06384274
v -0.07698825 0.04571587 -0.06206916
v -0.06781296 0.04451056 -0.05750284
v -0.06760709 0.04570214 -0.05757895
v -0.07337155 0.04458137 -0.05956099
v -0.04264074 0.04451056 -0.04834374
v -0.07272611 0.04583293 -0.05969335
v -0.02531954 0.04625494 -0.04503150
v -0.02741723 0.04621809 -0.04503150
v -0.02741723 0.04591676 -0.04350940
v -0.03428339 0.04588424 -0.04587197
v -0.04758171 0.04583366 -0.05053755
v -0.05423643 0.04580187 -0.05288358
v -0.06091898 0.04575778 -0.05522961
v -0.03575233 0.04575923 -0.04607050
v -0.08215735 0.04453874 -0.06563287
v -0.07705502 0.04572093 -0.06334640
v -0.07319350 0.04616389 -0.06334640
v -0.07319350 0.04609597 -0.06563287
v -0.05487631 0.04625061 -0.06333978
v -0.04801572 0.04623254 -0.06105332
v -0.04114955 0.04620508 -0.05876685
v -0.07090664 0.04624121 -0.06105663
v -0.06861977 0.04625855 -0.06105663
v -0.05939440 0.04625855 -0.06334640
v -0.02531954 0.04625783 -0.05190083
v -0.03657582 0.04625783 -0.05647707
v -0.02970409 0.04625061 -0.05419061
v -0.02741723 0.04611548 -0.05419061
v -0.02970409 0.04594855 -0.05583845
v -0.07337155 0.04597529 -0.06088456
v -0.05946118 0.04588280 -0.05503107
v -0.07090664 0.04593916 -0.05945511
v -0.02531954 0.04625783 -0.04732128
v -0.03199096 0.04625783 -0.04732128
v -0.03886269 0.04625494 -0.04961105
v -0.04572885 0.04624121 -0.05190083
v -0.05259501 0.04621736 -0.05419061
v -0.03428339 0.04618557 -0.04732128
v -0.05259501 0.04591604 -0.05266850
v -0.06632733 0.04613932 -0.05877016
v -0.05946118 0.04618412 -0.05648038
v -0.06404047 0.04625566 -0.05877016
v -0.05716874 0.04625783 -0.05647707
v -0.06175360 0.04625855 -0.05877016
v -0.05939440 0.04625855 -0.05877016
f 1 2 8
f 1 8 3
f 1 3 4
f 1 4 11
f 1 11 5
f 1 5 12
f 1 12 25
f 1 25 45
f 1 45 68
f 1 68 103
f 1 103 118
f 1 118 81
f 1 81 79
f 1 79 78
f 1 78 52
f 1 52 31
f 1 31 17
f 1 17 6
f 1 6 2
f 2 6 7
f 2 7 8
f 3 8 9
f 3 9 4
f 4 9 24
f 4 24 10
f 4 10 14
f 4 14 13
f 4 13 11
f 5 11 13
f 5 13 14
f 5 14 15
f 5 15 16
f 5 16 12
f 6 17 18
f 6 18 19
f 6 19 20
f 6 20 7
f 7 20 21
f 7 21 22
f 7 22 8
f 8 22 23
f 8 23 9
f 9 23 24
f 10 24 44
f 10 44 67
f 10 67 102
f 10 102 101
f 10 101 128
f 10 128 136
f 10 136 110
f 10 110 73
f 10 73 48
f 10 48 29
f 10 29 28
f 10 28 27
f 10 27 14
f 12 16 26
f 12 26 25
f 14 27 15
f 15 27 28
f 15 28 29
f 15 29 30
f 15 30 16
f 16 30 26
f 17 31 18
f 18 31 32
f 18 32 33
f 18 33 34
f 18 34 35
f 18 35 36
f 18 36 37
f 18 37 19
f 19 37 20
f 20 37 38
f 20 38 21
f 21 38 39
f 21 39 40
f 21 40 41
f 21 41 42
f 21 42 43
f 21 43 23
f 21 23 22
f 23 43 24
f 24 43 44
f 25 26 45
f 26 46 47
f 26 47 45
f 26 30 46
f 29 48 30
f 30 48 49
f 30 49 50
f 30 50 51
f 30 51 46
f 31 52 32
f 32 53 33
f 32 52 53
f 33 53 54
f 33 54 55
f 33 55 35
f 33 35 34
f 35 55 56
f 35 56 57
f 35 57 58
f 35 58 36
f 36 58 59
f 36 59 60
f 36 60 37
f 37 60 61
f 37 61 62
f 37 62 63
f 37 63 38
f 38 63 64
f 38 64 40
f 38 40 39
f 40 64 65
f 40 65 66
f 40 66 41
f 41 66 42
f 42 66 67
f 42 67 44
f 42 44 43
f 45 47 69
f 45 69 68
f 46 70 47
f 46 51 50
f 46 50 71
f 46 71 70
f 47 70 72
f 47 72 69
f 48 73 74
f 48 74 49
f 49 74 75
f 49 75 76
f 49 76 77
f 49 77 71
f 49 71 50
f 52 78 53
f 53 78 79
f 53 79 54
f 54 80 55
f 54 79 81
f 54 81 80
f 55 80 82
f 55 82 83
f 55 83 56
f 56 84 85
f 56 85 57
f 56 83 86
f 56 86 84
f 57 85 58
f 58 85 87
f 58 87 59
f 59 88 60
f 59 87 89
f 59 89 90
f 59 90 126
f 59 126 147
f 59 147 148
f 59 148 127
f 59 127 91
f 59 91 88
f 60 88 61
f 61 88 62
f 62 88 92
f 62 92 93
f 62 93 94
f 62 94 95
f 62 95 96
f 62 96 97
f 62 97 63
f 63 97 98
f 63 98 99
f 63 99 65
f 63 65 64
f 65 99 100
f 65 100 66
f 66 100 101
f 66 101 102
f 66 102 67
f 68 69 72
f 68 72 104
f 68 104 103
f 70 105 106
f 70 106 107
f 70 107 72
f 70 71 105
f 71 77 108
f 71 108 105
f 72 107 106
f 72 106 109
f 72 109 104
f 73 110 111
f 73 111 112
f 73 112 74
f 74 112 113
f 74 113 114
f 74 114 109
f 74 109 115
f 74 115 116
f 74 116 117
f 74 117 75
f 75 117 116
f 75 116 106
f 75 106 76
f 76 108 77
f 76 106 105
f 76 105 108
f 80 81 82
f 81 118 82
f 82 104 119
f 82 119 86
f 82 86 83
f 82 118 104
f 84 86 119
f 84 119 104
f 84 104 120
f 84 120 121
f 84 121 85
f 85 121 87
f 87 121 120
f 87 120 89
f 88 91 122
f 88 122 123
f 88 123 124
f 88 124 92
f 89 120 90
f 90 125 126
f 90 120 125
f 91 127 128
f 91 128 129
f 91 129 130
f 91 130 122
f 92 124 93
f 93 124 130
f 93 130 131
f 93 131 132
f 93 132 95
f 93 95 94
f 95 132 96
f 96 132 100
f 96 100 98
f 96 98 97
f 98 100 99
f 100 131 101
f 100 132 131
f 101 131 128
f 103 104 118
f 104 109 133
f 104 133 125
f 104 125 120
f 106 116 109
f 109 134 135
f 109 135 125
f 109 125 133
f 109 116 115
f 109 114 134
f 110 136 137
f 110 137 111
f 111 137 138
f 111 138 139
f 111 139 125
f 111 125 140
f 111 140 141
f 111 141 112
f 112 141 142
f 112 142 113
f 113 142 134
f 113 134 114
f 122 130 123
f 123 130 124
f 125 135 143
f 125 143 144
f 125 144 140
f 125 139 145
f 125 145 126
f 126 145 146
f 126 146 137
f 126 137 147
f 127 148 136
f 127 136 128
f 128 131 130
f 128 130 129
f 134 142 135
f 135 142 144
f 135 144 143
f 136 148 147
f 136 147 137
f 137 146 145
f 137 145 138
f 138 145 139
f 140 144 141
f 141 144 142

