# https://github.com/mikedh/trimesh
v 0.08077584 0.02645119 -0.01663418
v 0.08077584 0.03381443 -0.01663418
v 0.08098327 0.03381443 -0.01655932
v 0.08136849 0.02645119 -0.01641959
v 0.08077584 0.02645119 -0.00394854
v 0.08077584 0.03381443 -0.00860460
v 0.08136849 0.03381443 -0.01641959
v 0.08238588 0.02645119 -0.01605030
v 0.08077584 0.02695577 -0.00373894
v 0.08344606 0.02645119 -0.00314009
v 0.08477295 0.02682602 -0.00226677
v 0.08326497 0.02708192 -0.00254374
v 0.08077584 0.03008416 -0.00421303
v 0.08712380 0.03381443 -0.00414816
v 0.09452537 0.02848536 -0.01163129
v 0.11398412 0.03381443 -0.00454739
v 0.09452537 0.02645119 -0.01163129
v 0.08077584 0.02848536 -0.00342455
v 0.09018584 0.02727149 -0.00031053
v 0.11440885 0.02645119 0.00370925
v 0.08477295 0.02848536 -0.00186005
v 0.08308389 0.02848536 -0.00247637
v 0.10843623 0.03170530 0.00661866
v 0.11440885 0.03306405 0.00885187
v 0.08326497 0.02985349 -0.00254374
v 0.09023852 0.03203399 -0.00027061
v 0.10194339 0.03381443 0.00414092
v 0.11437592 0.02645119 -0.00440517
v 0.11440885 0.03381443 -0.00439269
v 0.11440885 0.03084823 0.00779391
v 0.10230887 0.02982394 0.00412346
v 0.11440885 0.02645119 -0.00439269
v 0.10995408 0.03306405 0.00728738
v 0.10825185 0.03306405 0.00668603
v 0.09624077 0.03077399 0.00231443
v 0.10881158 0.03381443 0.00689064
v 0.10827490 0.03381443 0.00668603
v 0.11440885 0.03381443 0.00883441
v 0.11070477 0.03381443 0.00756684
v 0.10750445 0.03381443 0.00638661
v 0.10224302 0.03381443 0.00426568
f 1 2 3
f 1 3 4
f 1 4 8
f 1 8 17
f 1 17 28
f 1 28 32
f 1 32 20
f 1 20 10
f 1 10 5
f 1 5 9
f 1 9 18
f 1 18 13
f 1 13 6
f 1 6 2
f 2 6 14
f 2 14 27
f 2 27 41
f 2 41 40
f 2 40 37
f 2 37 36
f 2 36 39
f 2 39 38
f 2 38 29
f 2 29 16
f 2 16 7
f 2 7 3
f 3 7 4
f 4 7 8
f 5 10 11
f 5 11 12
f 5 12 9
f 6 13 14
f 7 15 8
f 7 16 15
f 8 15 17
f 9 12 18
f 10 19 11
f 10 20 19
f 11 19 12
f 12 21 22
f 12 22 18
f 12 19 23
f 12 23 24
f 12 24 21
f 13 18 25
f 13 25 26
f 13 26 14
f 14 26 27
f 15 16 28
f 15 28 17
f 16 29 28
f 18 22 25
f 19 20 30
f 19 30 31
f 19 31 24
f 19 24 23
f 20 32 29
f 20 29 38
f 20 38 24
f 20 24 30
f 21 24 33
f 21 33 34
f 21 34 35
f 21 35 36
f 21 36 22
f 22 36 37
f 22 37 25
f 24 31 30
f 24 38 39
f 24 39 33
f 25 37 40
f 25 40 41
f 25 41 27
f 25 27 26
f 28 29 32
f 33 39 34
f 34 39 36
f 34 36 35

