# https://github.com/mikedh/trimesh
v -0.00678922 0.01706333 -0.01935387
v -0.00552684 0.01702339 -0.01935387
v -0.00909533 0.02119975 -0.02068423
v -0.01320335 0.01395388 -0.01935387
v -0.00552684 0.02754986 -0.02319970
v -0.00738961 0.02111416 -0.02067581
v -0.00552684 -0.01672978 -0.01935387
v -0.01054482 0.02080037 -0.02089683
v -0.01320335 0.02158201 -0.02269240
v -0.01320335 -0.01446473 -0.01935387
v -0.00552684 0.02877652 -0.02442376
v -0.00838374 0.02757268 -0.02518367
v -0.01254210 0.02276303 -0.02327338
v -0.01320335 0.02190722 -0.02294289
v -0.01133832 0.02158201 -0.02174831
v -0.00557793 -0.01672407 -0.01935387
v -0.00909533 -0.02132263 -0.02073159
v -0.00724684 -0.02119140 -0.02070002
v -0.00552684 -0.02798083 -0.02313129
v -0.01320335 -0.02144244 -0.02262925
v -0.01037951 -0.02106018 -0.02093578
v -0.00742117 -0.01635322 -0.01935387
v -0.00552684 0.02911885 -0.02671295
v -0.00680575 0.02848555 -0.02671295
v -0.00836946 0.02788648 -0.03010516
v -0.00846564 0.02761832 -0.02671295
v -0.00960930 0.02686521 -0.02671295
v -0.01103399 0.02571843 -0.02671295
v -0.01217916 0.02469716 -0.02671295
v -0.01071239 0.02549591 -0.02530997
v -0.01320335 0.02240929 -0.02383962
v -0.00676217 -0.01650727 -0.01935387
v -0.01072967 -0.02567585 -0.02526471
v -0.00552684 -0.02838021 -0.02364175
v -0.01131728 -0.02195022 -0.02199354
v -0.01320335 -0.02248082 -0.02413853
v -0.00552684 0.02893627 -0.03010516
v -0.00587399 0.02884498 -0.03010516
v -0.00680575 0.02859966 -0.03010516
v -0.01320335 0.02336209 -0.02915686
v -0.01320335 0.02341344 -0.02900214
v -0.01320335 0.02303689 -0.03010516
v -0.01320335 0.02346479 -0.02687924
v -0.01320335 0.02344767 -0.02671295
v -0.01320335 0.02267174 -0.02442481
v -0.01216188 -0.02494556 -0.02671295
v -0.01101746 -0.02584131 -0.02671295
v -0.00813652 -0.02771268 -0.02534891
v -0.01320335 -0.02289732 -0.02474793
v -0.00552684 -0.02893363 -0.02445428
v -0.00552684 -0.02914473 -0.03010516
v -0.01320335 -0.02338228 -0.03010516
v -0.01191466 -0.02487139 -0.02900214
v -0.01320335 -0.02387294 -0.02671295
v -0.01320335 -0.02387294 -0.02872849
v -0.00692448 -0.02844297 -0.03010516
v -0.00929897 -0.02698239 -0.02671295
v -0.00815455 -0.02772409 -0.02671295
v -0.00680575 -0.02850002 -0.02671295
v -0.00552684 -0.02907056 -0.02505947
v -0.00552684 -0.02916755 -0.02671295
v -0.01169299 -0.02460323 -0.03010516
v -0.01320335 -0.02360479 -0.02956944
v -0.01320335 -0.02383871 -0.02900214
f 1 2 3
f 1 3 4
f 1 4 10
f 1 10 22
f 1 22 32
f 1 32 16
f 1 16 7
f 1 7 2
f 2 5 6
f 2 6 3
f 2 7 19
f 2 19 34
f 2 34 50
f 2 50 60
f 2 60 61
f 2 61 51
f 2 51 37
f 2 37 23
f 2 23 11
f 2 11 5
f 3 8 4
f 3 6 5
f 3 5 8
f 4 8 9
f 4 9 14
f 4 14 31
f 4 31 45
f 4 45 44
f 4 44 43
f 4 43 41
f 4 41 40
f 4 40 42
f 4 42 52
f 4 52 63
f 4 63 64
f 4 64 55
f 4 55 54
f 4 54 49
f 4 49 36
f 4 36 20
f 4 20 10
f 5 11 12
f 5 12 13
f 5 13 14
f 5 14 9
f 5 9 15
f 5 15 8
f 7 16 17
f 7 17 18
f 7 18 19
f 8 15 9
f 10 20 21
f 10 21 17
f 10 17 22
f 11 23 12
f 12 23 24
f 12 24 25
f 12 25 26
f 12 26 27
f 12 27 28
f 12 28 29
f 12 29 30
f 12 30 13
f 13 31 14
f 13 30 31
f 16 32 17
f 17 32 22
f 17 21 19
f 17 19 18
f 19 33 34
f 19 21 35
f 19 35 20
f 19 20 33
f 20 36 33
f 20 35 21
f 23 37 38
f 23 38 39
f 23 39 25
f 23 25 24
f 25 40 41
f 25 41 29
f 25 29 28
f 25 28 27
f 25 27 26
f 25 39 38
f 25 38 37
f 25 37 51
f 25 51 56
f 25 56 62
f 25 62 52
f 25 52 42
f 25 42 40
f 29 41 43
f 29 43 44
f 29 44 45
f 29 45 31
f 29 31 30
f 33 46 47
f 33 47 48
f 33 48 34
f 33 36 49
f 33 49 46
f 34 48 50
f 46 53 47
f 46 49 54
f 46 54 55
f 46 55 53
f 47 53 56
f 47 56 57
f 47 57 48
f 48 57 58
f 48 58 59
f 48 59 60
f 48 60 50
f 51 61 56
f 52 62 63
f 53 55 64
f 53 64 56
f 56 61 59
f 56 59 58
f 56 58 57
f 56 64 62
f 59 61 60
f 62 64 63

