# https://github.com/mikedh/trimesh
v 0.09755352 0.03381597 -0.00028901
v 0.09918872 0.03381515 -0.00028901
v 0.09821519 0.03381515 0.00077231
v 0.10249049 0.03798762 -0.00028901
v 0.11440885 0.03381515 -0.00028901
v 0.09932238 0.03381515 0.00208484
v 0.10622622 0.03798762 0.00500506
v 0.11440885 0.03798762 -0.00028901
v 0.11440885 0.03381515 0.00883588
v 0.10167206 0.03381515 0.00395629
v 0.10198227 0.03406718 0.00411957
v 0.10831519 0.03798762 0.00668631
v 0.11440885 0.03798762 0.00734213
v 0.11440885 0.03535384 0.00887625
v 0.11373892 0.03535384 0.00866452
v 0.11070777 0.03381515 0.00756731
v 0.10194597 0.03381515 0.00414290
v 0.10750666 0.03381515 0.00638756
v 0.10827559 0.03381515 0.00668721
v 0.10881186 0.03381515 0.00688997
v 0.10995535 0.03764288 0.00730714
v 0.10995535 0.03798762 0.00727036
v 0.10224628 0.03381515 0.00426760
v 0.11440885 0.03778707 0.00770098
v 0.11438410 0.03798762 0.00740403
v 0.11440885 0.03596940 0.00877577
v 0.11224562 0.03764288 0.00794860
v 0.11224562 0.03535384 0.00814059
v 0.10995535 0.03535384 0.00730714
v 0.11222088 0.03798762 0.00780954
v 0.11440885 0.03760938 0.00781492
v 0.11431314 0.03798762 0.00757987
f 1 2 3
f 1 3 4
f 1 4 8
f 1 8 5
f 1 5 2
f 2 5 9
f 2 9 16
f 2 16 20
f 2 20 19
f 2 19 18
f 2 18 23
f 2 23 17
f 2 17 10
f 2 10 6
f 2 6 3
f 3 6 7
f 3 7 4
f 4 7 12
f 4 12 22
f 4 22 30
f 4 30 32
f 4 32 25
f 4 25 13
f 4 13 8
f 5 8 13
f 5 13 24
f 5 24 31
f 5 31 26
f 5 26 14
f 5 14 9
f 6 10 11
f 6 11 7
f 7 11 12
f 9 14 15
f 9 15 16
f 10 17 11
f 11 17 12
f 12 18 19
f 12 19 20
f 12 20 21
f 12 21 22
f 12 17 23
f 12 23 18
f 13 25 24
f 14 26 27
f 14 27 22
f 14 22 21
f 14 21 15
f 15 21 28
f 15 28 16
f 16 28 20
f 20 28 29
f 20 29 21
f 21 29 28
f 22 27 30
f 24 25 32
f 24 32 30
f 24 30 31
f 26 31 30
f 26 30 27

