# https://github.com/mikedh/trimesh
v 0.01341613 0.03148589 -0.01801299
v 0.01608931 0.03020473 -0.01587118
v 0.01608931 0.03108699 -0.01755565
v 0.01608931 0.03117145 -0.01801299
v 0.01160095 0.03142612 -0.01801299
v 0.01838003 0.02994745 -0.01587403
v 0.01380061 0.02996824 -0.01619791
v 0.02066873 0.02781910 -0.01381248
v 0.02247176 0.02774504 -0.01378256
v 0.01976215 0.02972396 -0.01613380
v 0.01838003 0.03050488 -0.01755565
v 0.01883737 0.03046850 -0.01801299
v 0.01148965 0.03139624 -0.01801299
v 0.01146132 0.03138844 -0.01801299
v 0.01146132 0.03057634 -0.01738992
v 0.01264716 0.02964210 -0.01640782
v 0.01932303 0.02757352 -0.01404851
v 0.02066873 0.02547636 -0.01316139
v 0.02309908 0.02613253 -0.01316139
v 0.02524613 0.02541139 -0.01316139
v 0.02727580 0.02426406 -0.01316139
v 0.02399756 0.02727337 -0.01434295
v 0.02312336 0.02799322 -0.01517022
v 0.02087311 0.02994095 -0.01801299
v 0.01146132 0.01821164 -0.01801299
v 0.01146132 0.02848438 -0.01683570
v 0.01808863 0.02161726 -0.01316139
v 0.01899926 0.02372222 -0.01316139
v 0.01900937 0.02374301 -0.01316139
v 0.02653921 0.02517101 -0.01385807
v 0.02891492 0.02296340 -0.01316139
v 0.02798002 0.02585577 -0.01801299
v 0.02579452 0.02744749 -0.01801299
v 0.02498306 0.02793734 -0.01801299
v 0.02275507 0.02910027 -0.01801299
v 0.01146132 0.01821164 -0.01656928
v 0.03213448 0.01821164 -0.01801299
v 0.01212911 0.01821164 -0.01590917
v 0.01781545 0.01932779 -0.01316139
v 0.02984173 0.02443947 -0.01801299
v 0.03024645 0.02167054 -0.01316139
v 0.03213448 0.02259438 -0.01801299
v 0.03213448 0.01821164 -0.01316139
v 0.01775069 0.01821164 -0.01316139
v 0.01779521 0.01911730 -0.01316139
v 0.03213448 0.01964614 -0.01316139
f 1 2 3
f 1 3 4
f 1 4 12
f 1 12 24
f 1 24 35
f 1 35 34
f 1 34 33
f 1 33 32
f 1 32 40
f 1 40 42
f 1 42 37
f 1 37 25
f 1 25 14
f 1 14 13
f 1 13 5
f 1 5 2
f 2 6 3
f 2 5 7
f 2 7 8
f 2 8 9
f 2 9 6
f 3 6 10
f 3 10 11
f 3 11 4
f 4 11 12
f 5 13 7
f 6 9 10
f 7 13 14
f 7 14 15
f 7 15 16
f 7 16 17
f 7 17 8
f 8 17 18
f 8 18 19
f 8 19 9
f 9 19 20
f 9 20 21
f 9 21 22
f 9 22 23
f 9 23 10
f 10 23 24
f 10 24 11
f 11 24 12
f 14 25 36
f 14 36 26
f 14 26 15
f 15 26 16
f 16 26 27
f 16 27 28
f 16 28 29
f 16 29 17
f 17 29 18
f 18 29 28
f 18 28 27
f 18 27 39
f 18 39 45
f 18 45 44
f 18 44 43
f 18 43 46
f 18 46 41
f 18 41 31
f 18 31 21
f 18 21 20
f 18 20 19
f 21 30 22
f 21 31 30
f 22 30 32
f 22 32 33
f 22 33 34
f 22 34 35
f 22 35 23
f 23 35 24
f 25 37 43
f 25 43 44
f 25 44 38
f 25 38 36
f 26 36 38
f 26 38 39
f 26 39 27
f 30 31 40
f 30 40 32
f 31 41 42
f 31 42 40
f 37 42 46
f 37 46 43
f 38 44 45
f 38 45 39
f 41 46 42

