# https://github.com/mikedh/trimesh
v -0.01864325 -0.01980178 -0.03919109
v -0.02186528 -0.01980178 -0.03919109
v -0.01864325 -0.02875037 -0.03919109
v -0.01864325 0.02844683 -0.03919398
v -0.02186528 -0.02221457 -0.03919109
v -0.02186528 0.02214521 -0.03919398
v -0.01914030 -0.02784203 -0.03919109
v -0.01864325 -0.02880715 -0.03920413
v -0.01864325 0.02848231 -0.03919978
v -0.02186528 -0.03791186 -0.04384374
v -0.01864325 0.02922034 -0.03937076
v -0.02185803 0.02755268 -0.04140657
v -0.02186528 0.02752430 -0.04140367
v -0.02181860 -0.03791186 -0.04381766
v -0.02057502 -0.03791186 -0.04335109
v -0.02054379 -0.03791186 -0.04334095
v -0.01864325 -0.03791186 -0.04277005
v -0.02186528 -0.03791186 -0.05367214
v -0.01864325 0.03458524 -0.04278744
v -0.02029211 0.03458524 -0.04343369
v -0.02143729 0.03458524 -0.04400748
v -0.02186528 0.03458524 -0.04432625
v -0.01864325 -0.03791186 -0.05158417
v -0.02127802 -0.03791186 -0.05334612
v -0.02186528 -0.03330628 -0.05395759
v -0.01864325 -0.03327789 -0.05277958
v -0.01864325 -0.03341273 -0.05277088
v -0.01864325 0.03458524 -0.05148709
v -0.02186528 0.03458524 -0.05386341
v -0.02186528 -0.03103543 -0.05399237
v -0.01934909 -0.03248309 -0.05305778
v -0.01864325 -0.03310758 -0.05278682
v -0.01864325 0.03354207 -0.05204350
v -0.01946610 0.03458524 -0.05218839
v -0.02099669 0.03458524 -0.05340263
v -0.01935477 0.03197376 -0.05305923
v -0.02186528 0.03431558 -0.05390398
v -0.02186528 -0.02284615 -0.05399382
v -0.02054253 -0.03103543 -0.05351131
v -0.01864325 -0.03103543 -0.05281870
v -0.01864325 0.03317306 -0.05218405
v -0.02059835 0.03458524 -0.05314327
v -0.01864325 0.03124283 -0.05277668
v -0.01864325 0.02939775 -0.05282015
v -0.01932922 0.03076737 -0.05306792
v -0.02186528 0.03208730 -0.05398802
v -0.01864325 0.03268340 -0.05235503
v -0.02186528 -0.01980178 -0.05399382
v -0.01926236 -0.01980178 -0.05304619
v -0.01864325 -0.01979468 -0.05282015
v -0.02054253 0.03076737 -0.05351131
v -0.01926236 -0.01979468 -0.05304619
v -0.02186528 0.03076737 -0.05399237
f 1 2 5
f 1 5 7
f 1 7 3
f 1 3 8
f 1 8 17
f 1 17 23
f 1 23 27
f 1 27 26
f 1 26 32
f 1 32 40
f 1 40 50
f 1 50 44
f 1 44 43
f 1 43 47
f 1 47 41
f 1 41 33
f 1 33 28
f 1 28 19
f 1 19 11
f 1 11 9
f 1 9 4
f 1 4 2
f 2 4 6
f 2 6 13
f 2 13 22
f 2 22 29
f 2 29 37
f 2 37 46
f 2 46 53
f 2 53 48
f 2 48 38
f 2 38 30
f 2 30 25
f 2 25 18
f 2 18 10
f 2 10 5
f 3 7 8
f 4 9 6
f 5 10 7
f 6 9 11
f 6 11 12
f 6 12 13
f 7 10 8
f 8 10 14
f 8 14 15
f 8 15 16
f 8 16 17
f 10 18 24
f 10 24 23
f 10 23 17
f 10 17 16
f 10 16 15
f 10 15 14
f 11 19 20
f 11 20 21
f 11 21 22
f 11 22 12
f 12 22 13
f 18 25 26
f 18 26 27
f 18 27 24
f 19 28 34
f 19 34 42
f 19 42 35
f 19 35 29
f 19 29 22
f 19 22 21
f 19 21 20
f 23 24 27
f 25 30 31
f 25 31 32
f 25 32 26
f 28 33 34
f 29 35 36
f 29 36 37
f 30 38 39
f 30 39 31
f 31 39 40
f 31 40 32
f 33 41 42
f 33 42 34
f 35 42 36
f 36 43 44
f 36 44 45
f 36 45 46
f 36 46 37
f 36 42 47
f 36 47 43
f 38 48 52
f 38 52 49
f 38 49 39
f 39 49 40
f 40 49 50
f 41 47 42
f 44 51 45
f 44 50 49
f 44 49 52
f 44 52 48
f 44 48 51
f 45 51 46
f 46 51 53
f 48 53 51

