# https://github.com/mikedh/trimesh
v 0.00692914 0.04625921 -0.03919128
v 0.00921881 0.04623390 -0.03919128
v 0.00692914 0.04625921 -0.04045025
v -0.00680298 0.04625921 -0.03919128
v 0.00921881 0.04620311 -0.04045025
v 0.01146132 0.04613470 -0.03919128
v 0.00692914 0.04614770 -0.04113423
v 0.00234980 0.04625100 -0.04113423
v 0.00006013 0.04625921 -0.04113423
v -0.01138232 0.04625921 -0.04045025
v -0.01367199 0.04625647 -0.04045025
v -0.00909265 0.04621953 -0.03919128
v 0.00921881 0.04606424 -0.04113423
v 0.01146132 0.04597942 -0.04052481
v 0.01146132 0.03927063 -0.03919128
v -0.01138232 0.04625921 -0.04113423
v -0.01367199 0.04625715 -0.04113423
v -0.01596166 0.04617849 -0.04113423
v -0.01596166 0.04614428 -0.04045025
v -0.01367199 0.04603209 -0.03919128
v 0.01146132 0.04595616 -0.04063209
v 0.01114602 0.04587680 -0.04113423
v 0.01146132 0.03927063 -0.04113423
v -0.01192158 0.03927063 -0.03919128
v -0.01864325 0.04601020 -0.04113423
v -0.01864325 0.04593085 -0.04059386
v -0.01596166 0.04586928 -0.03919128
v 0.01146132 0.04554913 -0.04113423
v -0.01214259 0.03927063 -0.04113423
v -0.01673667 0.04144601 -0.03919128
v -0.01702545 0.04115733 -0.03933507
v -0.01864325 0.04039527 -0.04113423
v -0.01834562 0.04032754 -0.04113423
v -0.01825132 0.04030633 -0.04113423
v -0.01713154 0.04007169 -0.04113423
v -0.01864325 0.04451138 -0.03971054
v -0.01725236 0.04570715 -0.03925557
v -0.01680444 0.04575436 -0.03919128
v -0.01745274 0.04267394 -0.03919128
v -0.01864325 0.04207400 -0.03983798
v -0.01864325 0.04182157 -0.03996484
v -0.01864325 0.04062922 -0.04087879
v -0.01864325 0.04043426 -0.04108858
v -0.01749694 0.04451138 -0.03919128
v -0.01742622 0.04472960 -0.03919128
f 1 2 3
f 1 3 9
f 1 9 16
f 1 16 10
f 1 10 4
f 1 4 12
f 1 12 20
f 1 20 27
f 1 27 38
f 1 38 45
f 1 45 44
f 1 44 39
f 1 39 30
f 1 30 24
f 1 24 15
f 1 15 6
f 1 6 2
f 2 5 3
f 2 6 5
f 3 7 8
f 3 8 9
f 3 5 7
f 4 10 11
f 4 11 12
f 5 13 7
f 5 6 14
f 5 14 13
f 6 15 23
f 6 23 28
f 6 28 21
f 6 21 14
f 7 13 22
f 7 22 28
f 7 28 23
f 7 23 29
f 7 29 35
f 7 35 34
f 7 34 33
f 7 33 32
f 7 32 25
f 7 25 18
f 7 18 17
f 7 17 16
f 7 16 9
f 7 9 8
f 10 16 17
f 10 17 11
f 11 17 18
f 11 18 19
f 11 19 20
f 11 20 12
f 13 14 21
f 13 21 22
f 15 24 29
f 15 29 23
f 18 25 19
f 19 25 26
f 19 26 27
f 19 27 20
f 21 28 22
f 24 30 31
f 24 31 32
f 24 32 33
f 24 33 34
f 24 34 35
f 24 35 29
f 25 32 43
f 25 43 42
f 25 42 41
f 25 41 40
f 25 40 36
f 25 36 26
f 26 36 37
f 26 37 38
f 26 38 27
f 30 39 31
f 31 39 40
f 31 40 41
f 31 41 42
f 31 42 43
f 31 43 32
f 36 40 39
f 36 39 44
f 36 44 37
f 37 44 45
f 37 45 38

