# https://github.com/mikedh/trimesh
v 0.01146133 -0.01497016 -0.01316139
v 0.01146682 -0.01500022 -0.01316139
v 0.01146133 -0.01438576 -0.01282232
v 0.01146133 0.01512135 -0.01316139
v 0.01160300 -0.01510708 -0.01316139
v 0.01252756 -0.01404180 -0.01177368
v 0.01146133 -0.01272273 -0.01197019
v 0.01146133 0.01467053 -0.01282050
v 0.01147842 0.01513470 -0.01316139
v 0.01324388 -0.01562469 -0.01316139
v 0.01213429 -0.01272273 -0.01174043
v 0.01769996 -0.01687697 -0.01316139
v 0.01769996 -0.01457945 -0.01168790
v 0.01379959 -0.01413865 -0.01174043
v 0.01769996 -0.01111313 -0.01121661
v 0.01146133 -0.01073244 -0.01171934
v 0.01164758 0.01466385 -0.01270774
v 0.01146133 0.01318114 -0.01204096
v 0.01250252 0.01384569 -0.01176760
v 0.01159140 0.01521819 -0.01316139
v 0.01769996 0.01723186 -0.01316139
v 0.01769996 -0.01312346 -0.01147213
v 0.01769996 -0.00882229 -0.01119329
v 0.01146133 -0.00814105 -0.01164248
v 0.01146133 0.01211921 -0.01175726
v 0.01164758 0.01224945 -0.01174692
v 0.01769996 0.01016899 -0.01116125
v 0.01769996 0.01228618 -0.01130199
v 0.01379959 0.01394253 -0.01173596
v 0.01769996 0.01700478 -0.01304235
v 0.01379959 0.01508795 -0.01239605
v 0.01769996 -0.00424395 -0.01115882
v 0.01146133 -0.00585355 -0.01164086
v 0.01769996 -0.00195310 -0.01114280
v 0.01769996 0.00262190 -0.01111562
v 0.01769996 0.00490940 -0.01110224
v 0.01769996 0.00720024 -0.01109007
v 0.01146133 0.01199231 -0.01175036
v 0.01146133 0.01011556 -0.01167858
v 0.01769996 0.00787815 -0.01108967
v 0.01146133 0.00782805 -0.01163964
f 1 2 3
f 1 3 7
f 1 7 16
f 1 16 24
f 1 24 33
f 1 33 41
f 1 41 39
f 1 39 38
f 1 38 25
f 1 25 18
f 1 18 8
f 1 8 4
f 1 4 9
f 1 9 20
f 1 20 21
f 1 21 12
f 1 12 10
f 1 10 5
f 1 5 2
f 2 5 6
f 2 6 3
f 3 6 7
f 4 8 9
f 5 10 6
f 6 11 7
f 6 10 12
f 6 12 13
f 6 13 14
f 6 14 15
f 6 15 11
f 7 11 16
f 8 17 9
f 8 18 19
f 8 19 17
f 9 17 20
f 11 15 16
f 12 21 30
f 12 30 28
f 12 28 27
f 12 27 40
f 12 40 37
f 12 37 36
f 12 36 35
f 12 35 34
f 12 34 32
f 12 32 23
f 12 23 15
f 12 15 22
f 12 22 13
f 13 22 14
f 14 22 15
f 15 23 24
f 15 24 16
f 17 19 20
f 18 25 19
f 19 25 26
f 19 26 27
f 19 27 28
f 19 28 29
f 19 29 30
f 19 30 21
f 19 21 31
f 19 31 20
f 20 31 21
f 23 32 24
f 24 32 34
f 24 34 35
f 24 35 36
f 24 36 37
f 24 37 33
f 25 38 26
f 26 38 27
f 27 38 39
f 27 39 40
f 28 30 29
f 33 37 40
f 33 40 41
f 39 41 40

