# https://github.com/mikedh/trimesh
v -0.05939891 -0.02163348 -0.06765492
v -0.05939891 -0.02163348 -0.05964052
v -0.05939891 -0.01729253 -0.06765492
v -0.05663302 -0.02163348 -0.06664891
v -0.05939891 -0.01729253 -0.05965292
v -0.04046803 -0.02163348 -0.04956276
v -0.05108120 -0.01729253 -0.06462804
v -0.05488140 -0.01730443 -0.06601130
v -0.03452919 -0.02163348 -0.05860441
v -0.03179332 -0.01729253 -0.04956276
v -0.02531398 -0.02163348 -0.04956276
v -0.03429230 -0.01729253 -0.05851762
v -0.02531398 -0.01729253 -0.05524988
v -0.02531398 -0.02163348 -0.05524988
v -0.02531398 -0.01729253 -0.04956276
f 1 2 5
f 1 5 3
f 1 3 4
f 1 4 9
f 1 9 14
f 1 14 11
f 1 11 6
f 1 6 2
f 2 6 5
f 3 5 10
f 3 10 15
f 3 15 13
f 3 13 12
f 3 12 7
f 3 7 8
f 3 8 4
f 4 8 9
f 5 6 10
f 6 11 15
f 6 15 10
f 7 12 8
f 8 12 13
f 8 13 9
f 9 13 14
f 11 14 13
f 11 13 15

