# https://github.com/mikedh/trimesh
v -0.05939891 -0.01280656 -0.06765501
v -0.05766398 -0.01729253 -0.06702271
v -0.05939891 -0.01729253 -0.06765324
v -0.05939891 -0.01272441 -0.06765501
v -0.05488140 -0.01501426 -0.06601138
v -0.05108120 -0.01729253 -0.06462812
v -0.05939891 -0.01729253 -0.05965297
v -0.05939891 -0.00653211 -0.06765324
v -0.05892848 -0.00653211 -0.06748320
v -0.05488140 -0.00653211 -0.06601138
v -0.04733774 -0.00653211 -0.06326611
v -0.03429230 -0.01729253 -0.05851767
v -0.05939891 -0.00653211 -0.05965297
v -0.03179332 -0.01729253 -0.04956276
v -0.03179666 -0.01704290 -0.04956276
v -0.03085579 -0.00653211 -0.05726724
v -0.02531398 -0.01729253 -0.05524990
v -0.03177330 -0.00653211 -0.04956276
v -0.02531398 -0.01729253 -0.04956276
v -0.02531398 -0.00653211 -0.05524990
v -0.02531398 -0.00653211 -0.04956276
f 1 2 3
f 1 3 7
f 1 7 13
f 1 13 8
f 1 8 4
f 1 4 10
f 1 10 5
f 1 5 2
f 2 5 6
f 2 6 12
f 2 12 17
f 2 17 19
f 2 19 14
f 2 14 7
f 2 7 3
f 4 8 9
f 4 9 10
f 5 10 11
f 5 11 12
f 5 12 6
f 7 14 15
f 7 15 13
f 8 13 18
f 8 18 21
f 8 21 20
f 8 20 16
f 8 16 11
f 8 11 10
f 8 10 9
f 11 16 17
f 11 17 12
f 13 15 18
f 14 19 21
f 14 21 18
f 14 18 15
f 16 20 17
f 17 20 21
f 17 21 19

