# https://github.com/mikedh/trimesh
v 0.02027858 0.00559004 -0.00092689
v 0.02100811 0.00321124 -0.00092689
v 0.02035125 -0.00012707 0.00533819
v 0.02034706 0.00101174 0.00533819
v 0.02031771 0.00559004 0.00076035
v 0.02111712 0.00780197 -0.00092689
v 0.02104305 -0.00012707 0.00297428
v 0.02067968 -0.00012707 0.00413392
v 0.02295773 0.00250736 -0.00092689
v 0.02071462 -0.00012707 0.00626929
v 0.02107100 0.00101174 0.00719147
v 0.02060142 0.00330178 0.00533819
v 0.02057207 0.00559004 0.00305016
v 0.02110035 0.00739367 0.00076035
v 0.02135751 0.00705726 0.00305016
v 0.02266843 0.00851916 -0.00092689
v 0.02295773 -0.00012707 0.00226189
v 0.03211462 0.00215321 -0.00092689
v 0.02107520 -0.00012707 0.00716380
v 0.02138685 0.00330178 0.00686384
v 0.02295773 -0.00012707 0.00790921
v 0.02295773 0.00101174 0.00793421
v 0.02133654 0.00541784 0.00521768
v 0.02163283 0.00683714 0.00437406
v 0.02295773 0.00862656 -0.00092689
v 0.02422952 -0.00012707 0.00226457
v 0.03434515 0.00318284 -0.00092689
v 0.03239973 -0.00012707 0.00320371
v 0.02982540 -0.00012707 0.00244312
v 0.02753618 -0.00012707 0.00233956
v 0.02524695 -0.00012707 0.00226725
v 0.02172367 0.00454000 0.00653354
v 0.02524695 -0.00012707 0.00805740
v 0.02295773 0.00330178 0.00717361
v 0.02753618 -0.00012707 0.00816899
v 0.02524695 0.00101174 0.00802169
v 0.02295773 0.00690282 0.00446779
v 0.02295773 0.00740876 0.00305016
v 0.03007137 0.00892835 -0.00092689
v 0.03455618 0.00559004 -0.00092689
v 0.03269042 -0.00012707 0.00533819
v 0.03258421 -0.00012707 0.00430621
v 0.02295773 0.00451869 0.00652282
v 0.02982540 0.00696939 0.00446065
v 0.02295773 0.00566282 0.00561226
v 0.02753618 0.00101174 0.00805205
v 0.02982540 0.00101174 0.00794046
v 0.02503312 0.00347131 0.00694776
v 0.02412610 0.00444857 0.00648533
v 0.02982540 -0.00012707 0.00819220
v 0.02524695 0.00693122 0.00447315
v 0.02982540 0.00758539 0.00305016
v 0.02753618 0.00752859 0.00305016
v 0.03211462 0.00894078 -0.00092689
v 0.03350521 0.00330178 0.00273057
v 0.03385181 0.00784191 -0.00092689
v 0.03330815 0.00681850 0.00204853
v 0.03341576 0.00559004 0.00234938
v 0.03314184 0.00330178 0.00387414
v 0.03218869 -0.00012707 0.00641659
v 0.03261915 0.00101174 0.00533819
v 0.02982540 0.00559004 0.00539979
v 0.03129145 0.00689039 0.00436156
v 0.02753618 0.00695874 0.00447583
v 0.02982540 0.00292720 0.00690491
v 0.02753618 0.00307899 0.00698615
v 0.03073103 -0.00012707 0.00780387
v 0.03162827 0.00101174 0.00716736
v 0.03130543 0.00261920 0.00673618
v 0.02565225 0.00434827 0.00642998
v 0.03233544 0.00891060 -0.00092689
v 0.03283298 0.00559004 0.00349384
v 0.03168976 -0.00012707 0.00733520
v 0.02982540 0.00407134 0.00627822
v 0.03168697 0.00559004 0.00476864
f 1 2 3
f 1 3 4
f 1 4 5
f 1 5 6
f 1 6 16
f 1 16 25
f 1 25 39
f 1 39 54
f 1 54 71
f 1 71 56
f 1 56 40
f 1 40 27
f 1 27 18
f 1 18 9
f 1 9 2
f 2 7 8
f 2 8 3
f 2 9 7
f 3 8 7
f 3 7 17
f 3 17 26
f 3 26 31
f 3 31 30
f 3 30 29
f 3 29 28
f 3 28 42
f 3 42 41
f 3 41 60
f 3 60 73
f 3 73 67
f 3 67 50
f 3 50 35
f 3 35 33
f 3 33 21
f 3 21 19
f 3 19 10
f 3 10 4
f 4 10 11
f 4 11 12
f 4 12 13
f 4 13 5
f 5 13 14
f 5 14 6
f 6 15 16
f 6 14 15
f 7 9 17
f 9 18 17
f 10 19 11
f 11 20 12
f 11 19 21
f 11 21 22
f 11 22 20
f 12 20 23
f 12 23 13
f 13 23 24
f 13 24 15
f 13 15 14
f 15 24 16
f 16 24 25
f 17 18 26
f 18 27 28
f 18 28 29
f 18 29 30
f 18 30 31
f 18 31 26
f 20 32 23
f 20 22 32
f 21 33 22
f 22 34 32
f 22 33 35
f 22 35 36
f 22 36 34
f 23 32 24
f 24 32 37
f 24 37 38
f 24 38 25
f 25 38 39
f 27 40 41
f 27 41 42
f 27 42 28
f 32 34 43
f 32 43 44
f 32 44 45
f 32 45 37
f 34 36 46
f 34 46 47
f 34 47 48
f 34 48 49
f 34 49 43
f 35 50 46
f 35 46 36
f 37 45 51
f 37 51 52
f 37 52 53
f 37 53 38
f 38 53 39
f 39 53 52
f 39 52 54
f 40 55 41
f 40 56 57
f 40 57 58
f 40 58 59
f 40 59 55
f 41 55 59
f 41 59 61
f 41 61 60
f 43 49 62
f 43 62 44
f 44 62 63
f 44 63 52
f 44 52 64
f 44 64 45
f 45 64 51
f 46 50 47
f 47 65 66
f 47 66 49
f 47 49 48
f 47 50 67
f 47 67 68
f 47 68 69
f 47 69 65
f 49 66 65
f 49 65 70
f 49 70 62
f 51 64 52
f 52 63 54
f 54 63 71
f 56 71 57
f 57 72 59
f 57 59 58
f 57 71 63
f 57 63 72
f 59 72 68
f 59 68 73
f 59 73 60
f 59 60 61
f 62 74 63
f 62 70 74
f 63 74 69
f 63 69 75
f 63 75 72
f 65 69 74
f 65 74 70
f 67 73 68
f 68 72 69
f 69 72 75

