# https://github.com/mikedh/trimesh
v -0.05188768 0.01017167 0.00863451
v -0.05261270 0.01017167 0.00838450
v -0.05260885 0.00788058 0.00838277
v -0.05188768 0.00788058 0.00863104
v -0.05188768 0.01090809 0.00863191
v -0.05491552 0.01246028 0.00759281
v -0.05491552 0.01242805 0.00759281
v -0.05491552 0.01013944 0.00759020
v -0.05491552 0.00788058 0.00758673
v -0.05188768 0.00559197 0.00862149
v -0.05188768 0.01176105 0.00857722
v -0.05488440 0.01474889 0.00758326
v -0.05491552 0.01474889 0.00757284
v -0.05491552 0.00559197 0.00752163
v -0.05260440 0.00559197 0.00836367
v -0.05188768 0.00410921 0.00825950
v -0.05188768 0.01476377 0.00729505
v -0.05306858 0.01703750 0.00694087
v -0.05491552 0.01923437 0.00683583
v -0.05488440 0.01703750 0.00730374
v -0.05491552 0.01703750 0.00729679
v -0.05491552 0.00556470 0.00751468
v -0.05491552 0.00395796 0.00697039
v -0.05188768 0.00369513 0.00803380
v -0.05188768 0.01545556 0.00690615
v -0.05359530 0.01838389 0.00661621
v -0.05491552 0.02161472 0.00548856
v -0.05491552 0.00395300 0.00695390
v -0.05488440 0.00395052 0.00697733
v -0.05188768 0.00333560 0.00766052
v -0.05188768 0.01705734 0.00560228
v -0.05491552 0.02803423 0.00078179
v -0.05491552 0.02184036 0.00533838
v -0.05491552 0.00395300 0.00569430
v -0.05188768 0.00316699 0.00669520
v -0.05188768 0.01710197 0.00553370
v -0.05349423 0.02554726 -0.00023387
v -0.05380131 0.02469926 0.00170023
v -0.05491552 0.02849791 -0.00023387
v -0.05188768 0.00338767 0.00544342
v -0.05491552 0.00534650 -0.00023387
v -0.05188768 0.01742431 0.00291642
v -0.05307807 0.02391573 -0.00023387
v -0.05188768 0.00604573 -0.00023387
v -0.05188768 0.01734744 0.00267943
v -0.05188768 0.01618206 0.00159605
v -0.05188768 0.01354880 -0.00023387
f 1 2 3
f 1 3 4
f 1 4 10
f 1 10 16
f 1 16 24
f 1 24 30
f 1 30 35
f 1 35 40
f 1 40 44
f 1 44 47
f 1 47 46
f 1 46 45
f 1 45 42
f 1 42 36
f 1 36 31
f 1 31 25
f 1 25 17
f 1 17 11
f 1 11 5
f 1 5 6
f 1 6 7
f 1 7 2
f 2 8 3
f 2 7 8
f 3 8 9
f 3 9 10
f 3 10 4
f 5 11 12
f 5 12 13
f 5 13 6
f 6 13 21
f 6 21 19
f 6 19 27
f 6 27 33
f 6 33 32
f 6 32 39
f 6 39 41
f 6 41 34
f 6 34 28
f 6 28 23
f 6 23 22
f 6 22 14
f 6 14 9
f 6 9 8
f 6 8 7
f 9 14 15
f 9 15 10
f 10 15 16
f 11 17 18
f 11 18 19
f 11 19 20
f 11 20 12
f 12 20 21
f 12 21 13
f 14 22 16
f 14 16 15
f 16 23 24
f 16 22 23
f 17 25 26
f 17 26 18
f 18 26 19
f 19 26 27
f 19 21 20
f 23 28 29
f 23 29 24
f 24 29 30
f 25 31 32
f 25 32 26
f 26 32 33
f 26 33 27
f 28 34 35
f 28 35 30
f 28 30 29
f 31 36 37
f 31 37 38
f 31 38 32
f 32 38 37
f 32 37 39
f 34 40 35
f 34 41 40
f 36 42 43
f 36 43 37
f 37 43 47
f 37 47 44
f 37 44 41
f 37 41 39
f 40 41 44
f 42 45 43
f 43 45 46
f 43 46 47

