# https://github.com/mikedh/trimesh
v -0.05939892 -0.02645408 -0.05470665
v -0.05939892 -0.02634227 -0.05471588
v -0.05985684 -0.02645408 -0.05485989
v -0.05939892 -0.02645408 -0.06765318
v -0.05939892 -0.02602564 -0.05487282
v -0.05958018 -0.02633246 -0.05479712
v -0.07564067 -0.02209464 -0.06556497
v -0.07564067 -0.02645408 -0.06545050
v -0.05947206 -0.02645408 -0.06768088
v -0.05939892 -0.02209464 -0.06765318
v -0.05939892 -0.02526564 -0.05555966
v -0.07548961 -0.02209464 -0.06550958
v -0.07564067 -0.02209464 -0.07356701
v -0.07564067 -0.02645408 -0.07356516
v -0.06296686 -0.02209464 -0.06895301
v -0.06154223 -0.02209464 -0.06843418
v -0.05946411 -0.02209464 -0.06767719
v -0.06967343 -0.02645408 -0.07139387
v -0.06832194 -0.02209464 -0.07090274
v -0.05939892 -0.02209464 -0.05961791
f 1 2 3
f 1 3 8
f 1 8 14
f 1 14 18
f 1 18 9
f 1 9 4
f 1 4 10
f 1 10 20
f 1 20 11
f 1 11 5
f 1 5 2
f 2 5 6
f 2 6 3
f 3 6 5
f 3 5 7
f 3 7 8
f 4 9 10
f 5 11 7
f 7 11 12
f 7 12 20
f 7 20 10
f 7 10 17
f 7 17 16
f 7 16 15
f 7 15 19
f 7 19 13
f 7 13 14
f 7 14 8
f 9 15 16
f 9 16 17
f 9 17 10
f 9 18 13
f 9 13 19
f 9 19 15
f 11 20 12
f 13 18 14

