# https://github.com/mikedh/trimesh
v 0.11440886 0.00227918 -0.00425970
v 0.11440886 0.00330131 -0.00435060
v 0.11453593 0.00227918 -0.00420964
v 0.11440886 0.00227918 0.00497176
v 0.11440886 0.00559029 -0.00439276
v 0.11453593 0.00559029 -0.00434665
v 0.11682540 0.00559029 -0.00350743
v 0.11853973 0.00559029 -0.00287768
v 0.11953980 0.00559029 -0.00251011
v 0.11834182 0.00421066 -0.00280522
v 0.11953980 0.00294255 -0.00186323
v 0.11953980 0.00227918 -0.00149830
v 0.11953980 0.00227918 0.00906511
v 0.11953980 0.00235883 0.00906380
v 0.11953980 0.00458536 0.00896762
v 0.11440886 0.00311588 0.00483738
v 0.11440886 0.00787990 -0.00439408
v 0.11953980 0.00787990 -0.00252592
v 0.11953980 0.00648052 0.00847621
v 0.11440886 0.00878925 0.00360950
v 0.11440886 0.00313754 0.00483342
v 0.11440886 0.00878925 -0.00439408
v 0.11953980 0.00878925 -0.00252592
v 0.11953980 0.00878925 0.00582811
f 1 2 3
f 1 3 12
f 1 12 13
f 1 13 4
f 1 4 16
f 1 16 21
f 1 21 20
f 1 20 22
f 1 22 17
f 1 17 5
f 1 5 2
f 2 5 6
f 2 6 7
f 2 7 8
f 2 8 9
f 2 9 3
f 3 10 11
f 3 11 12
f 3 9 10
f 4 13 14
f 4 14 15
f 4 15 16
f 5 17 6
f 6 17 18
f 6 18 7
f 7 18 8
f 8 18 9
f 9 18 23
f 9 23 24
f 9 24 19
f 9 19 15
f 9 15 14
f 9 14 13
f 9 13 12
f 9 12 11
f 9 11 10
f 15 19 20
f 15 20 21
f 15 21 16
f 17 22 23
f 17 23 18
f 19 24 20
f 20 24 23
f 20 23 22

