# https://github.com/mikedh/trimesh
v -0.05939891 -0.03894677 -0.06765491
v -0.05939891 -0.03279530 -0.06765491
v -0.05765397 -0.03894677 -0.06702033
v -0.05939891 -0.03894677 -0.05910602
v -0.05939891 -0.03279530 -0.05919516
v -0.05765397 -0.03279530 -0.06702033
v -0.05526175 -0.03279530 -0.06615016
v -0.02866375 -0.03894677 -0.05647004
v -0.05431420 -0.03894677 -0.05708977
v -0.02531398 -0.03894677 -0.04597281
v -0.02531398 -0.03279530 -0.04702338
v -0.02794642 -0.03279530 -0.05620899
v -0.02563761 -0.03894677 -0.05536853
v -0.02531398 -0.03894677 -0.05524968
v -0.02531398 -0.03279530 -0.05524968
f 1 2 6
f 1 6 3
f 1 3 8
f 1 8 13
f 1 13 14
f 1 14 10
f 1 10 9
f 1 9 4
f 1 4 5
f 1 5 2
f 2 5 11
f 2 11 15
f 2 15 12
f 2 12 7
f 2 7 6
f 3 6 7
f 3 7 8
f 4 9 5
f 5 9 10
f 5 10 11
f 7 12 8
f 8 12 13
f 10 14 15
f 10 15 11
f 12 15 13
f 13 15 14

