# https://github.com/mikedh/trimesh
v 0.03213448 0.03315714 -0.02101502
v 0.03213448 0.03315714 -0.03433686
v 0.02377518 0.03315714 -0.02101502
v 0.03213448 -0.03367529 -0.02101502
v 0.03097175 0.03315714 -0.03476236
v 0.03213448 0.02854507 -0.03433863
v 0.01898004 0.03315714 -0.02427367
v 0.01898004 0.03101793 -0.02101502
v 0.02379063 -0.03367529 -0.02101502
v 0.03213448 -0.03367529 -0.03431203
v 0.02438165 0.03315714 -0.03716114
v 0.03213448 -0.02874922 -0.03433863
v 0.03101939 -0.02874922 -0.03474463
v 0.01925817 -0.03367529 -0.03902627
v 0.01898004 0.03315714 -0.03912555
v 0.01898004 -0.03083609 -0.02101502
v 0.01898004 -0.03367529 -0.02447934
v 0.02788015 -0.03367529 -0.03588640
v 0.02060117 0.03315714 -0.03853694
v 0.01898004 0.02166950 -0.03912733
v 0.02753506 -0.03367529 -0.03601228
v 0.02461471 -0.03367529 -0.03707604
v 0.01900708 -0.03367529 -0.03911669
v 0.01898004 0.01480046 -0.03912733
v 0.01900708 0.03315714 -0.03911669
v 0.01898004 -0.03367529 -0.03909896
v 0.01898004 -0.03366221 -0.03912555
f 1 2 5
f 1 5 11
f 1 11 19
f 1 19 25
f 1 25 15
f 1 15 7
f 1 7 3
f 1 3 8
f 1 8 16
f 1 16 9
f 1 9 4
f 1 4 10
f 1 10 12
f 1 12 6
f 1 6 2
f 2 6 5
f 3 7 8
f 4 9 17
f 4 17 26
f 4 26 23
f 4 23 14
f 4 14 22
f 4 22 21
f 4 21 18
f 4 18 10
f 5 6 12
f 5 12 13
f 5 13 14
f 5 14 11
f 7 15 20
f 7 20 24
f 7 24 27
f 7 27 26
f 7 26 17
f 7 17 16
f 7 16 8
f 9 16 17
f 10 18 12
f 11 14 20
f 11 20 19
f 12 18 21
f 12 21 22
f 12 22 13
f 13 22 14
f 14 23 24
f 14 24 20
f 15 25 20
f 19 20 25
f 23 26 27
f 23 27 24

