# https://github.com/mikedh/trimesh
mtllib mtl_arm4_link
usemtl mtl_arm4_link
v -0.12100000 0.06300779 -0.03061700
v -0.12100000 0.06246891 -0.02771499
v -0.11172086 0.06209850 -0.02759599
v -0.11130762 0.06081390 -0.05091657
v -0.11128888 0.05910022 -0.05531039
v -0.12100000 0.06133184 -0.05063764
v -0.12100000 0.05960353 -0.05507471
v -0.04873988 0.04161665 -0.06564146
v -0.04836037 0.03964492 -0.07067110
v -0.05718051 0.04488483 -0.06205970
v -0.05680519 0.04298251 -0.06695957
v -0.04936023 0.04331478 -0.05983039
v -0.05776431 0.04652102 -0.05648668
v -0.06576882 0.04825189 -0.05899579
v -0.06543261 0.04640753 -0.06376521
v -0.05017210 0.04469837 -0.05355125
v -0.05850766 0.04785518 -0.05050796
v -0.06628050 0.04982162 -0.05364707
v -0.07451613 0.05155294 -0.05643489
v -0.07424206 0.04975586 -0.06108115
v -0.05112614 0.04572649 -0.04711741
v -0.05936547 0.04884737 -0.04439651
v -0.06692471 0.05107789 -0.04794751
v -0.07493316 0.05305322 -0.05129215
v -0.08343379 0.05462307 -0.05436211
v -0.08323298 0.05286341 -0.05890051
v -0.05217301 0.04635822 -0.04084225
v -0.06029437 0.04945600 -0.03842703
v -0.06766284 0.05198076 -0.04213426
v -0.07545917 0.05421145 -0.04584762
v -0.08374668 0.05605244 -0.04940251
v -0.09253260 0.05729794 -0.05276231
v -0.09240481 0.05556605 -0.05721641
v -0.05326338 0.04655264 -0.03503914
v -0.06125301 0.04963664 -0.03287524
v -0.06845810 0.05249159 -0.03644739
v -0.07606305 0.05498805 -0.04030623
v -0.08414693 0.05710080 -0.04418595
v -0.09274391 0.05865743 -0.04795831
v -0.10182118 0.05941541 -0.05161930
v -0.10175696 0.05769969 -0.05602200
v -0.12100000 0.06088989 -0.02227848
v -0.11182562 0.06092407 -0.02325420
v -0.10299390 0.06006011 -0.02336455
v -0.12100000 0.06322003 -0.03222837
v -0.11161498 0.06282558 -0.03215216
v -0.10276207 0.06112847 -0.02771074
v -0.09445495 0.05870787 -0.02369985
v -0.12100000 0.06344599 -0.03913602
v -0.11151470 0.06307293 -0.03684866
v -0.10252916 0.06174904 -0.03235251
v -0.09408169 0.05962337 -0.02809037
v -0.08615891 0.05691060 -0.02429711
v -0.12100000 0.06327437 -0.04146077
v -0.11142619 0.06282032 -0.04160107
v -0.10230701 0.06189341 -0.03718355
v -0.09370759 0.06008239 -0.03285579
v -0.08563782 0.05764773 -0.02876603
v -0.07805496 0.05471362 -0.02519297
v -0.12100000 0.06218930 -0.04766839
v -0.11135527 0.06206322 -0.04631988
v -0.10210735 0.06154662 -0.04208625
v -0.09334854 0.06007305 -0.03785524
v -0.08511534 0.05791757 -0.03368839
v -0.07738655 0.05526955 -0.02976865
v -0.07008868 0.05217054 -0.02642251
v -0.10194167 0.06071245 -0.04693807
v -0.09302157 0.05959340 -0.04293998
v -0.08461092 0.05773059 -0.03888803
v -0.07671487 0.05535034 -0.03487673
v -0.06927618 0.05257073 -0.03112840
v -0.06220478 0.04933704 -0.02802044
v -0.05434792 0.04626881 -0.03002145
v -0.05537885 0.04546644 -0.02610211
v -0.06160002 0.04791537 -0.02450343
v -0.07276998 0.05183992 -0.02225908
v -0.07870742 0.05363582 -0.02136613
v -0.08411675 0.05507720 -0.02071388
v -0.09581853 0.05752103 -0.01975271
v -0.10321303 0.05857747 -0.01940377
v -0.10805354 0.05906521 -0.01926043
v -0.12100000 0.05960353 -0.01912192
v -0.08435521 -0.00910152 -0.00991989
v -0.08904640 -0.00578002 -0.00567665
v -0.09124057 -0.00917418 -0.00828992
v -0.09833226 -0.01794095 -0.01966685
v -0.09140652 -0.01745208 -0.02118370
v -0.09127697 -0.01508707 -0.01645084
v -0.06416218 -0.00701907 -0.01394555
v -0.06937803 -0.00654753 -0.01180867
v -0.06426213 -0.00868606 -0.01561724
v -0.07096143 -0.00930044 -0.01418991
v -0.06437247 -0.00963045 -0.01682243
v -0.07914329 -0.00599813 -0.00837270
v -0.07760891 -0.00913387 -0.01188781
v -0.07122111 -0.01191100 -0.01804790
v -0.07772922 -0.01196008 -0.01574611
v -0.07164379 -0.01419093 -0.02255847
v -0.07798951 -0.01444084 -0.02022559
v -0.07218169 -0.01610292 -0.02745530
v -0.07835053 -0.01652823 -0.02509285
v -0.10555522 -0.01837666 -0.01849264
v -0.09826851 -0.01547499 -0.01502313
v -0.09121272 -0.01230866 -0.01209866
v -0.09825272 -0.01257991 -0.01075991
v -0.09830563 -0.00931969 -0.00700382
v -0.09922907 -0.00577302 -0.00373410
v -0.10553136 -0.01584148 -0.01394400
v -0.10553897 -0.01285783 -0.00977414
v -0.10559235 -0.00949409 -0.00607615
v -0.10983303 -0.00585696 -0.00255862
v -0.12100000 -0.01876450 -0.01737782
v -0.11310221 -0.01867819 -0.01771250
v -0.12100000 -0.01721422 -0.01458865
v -0.11309776 -0.01611276 -0.01325907
v -0.12100000 -0.01621509 -0.01301396
v -0.11310893 -0.01308216 -0.00917433
v -0.12100000 -0.01216308 -0.00782049
v -0.11314303 -0.00965047 -0.00552362
v -0.12100000 -0.00974193 -0.00536294
v -0.06933869 -0.01905530 -0.04744676
v -0.06867335 -0.01877362 -0.04402510
v -0.07459008 -0.01980518 -0.04537345
v -0.07990117 -0.02053747 -0.04352977
v -0.07958845 -0.02023609 -0.03956229
v -0.08190720 -0.02080116 -0.04289876
v -0.08575323 -0.02128105 -0.04178746
v -0.09417694 -0.02219044 -0.03979401
v -0.08791270 -0.02153383 -0.04121944
v -0.08556284 -0.02097201 -0.03758890
v -0.07919647 -0.01944342 -0.03500459
v -0.06760846 -0.01779677 -0.03820958
v -0.07876834 -0.01820040 -0.03010107
v -0.08502643 -0.01877981 -0.02797885
v -0.08530909 -0.02012181 -0.03291373
v -0.09174483 -0.02077805 -0.03106692
v -0.09189475 -0.02166532 -0.03584204
v -0.09851656 -0.02138292 -0.02949855
v -0.09859404 -0.02227965 -0.03436351
v -0.10563930 -0.02187896 -0.02825362
v -0.10567104 -0.02277021 -0.03319827
v -0.11312860 -0.02220165 -0.02737978
v -0.11313621 -0.02309014 -0.03239209
v -0.12100000 -0.02228646 -0.02692465
v -0.12100000 -0.02296238 -0.03032273
v -0.07278325 -0.01763075 -0.03246285
v -0.06478629 -0.01179877 -0.02036074
v -0.06546444 -0.01398703 -0.02518357
v -0.06588679 -0.01500041 -0.02793744
v -0.06622750 -0.01569923 -0.03007421
v -0.09536418 -0.02230113 -0.03956041
v -0.10693915 -0.02313066 -0.03786925
v -0.11189777 -0.02334115 -0.03745816
v -0.12100000 -0.02349369 -0.03716689
v -0.12100000 -0.00591164 -0.00216377
v -0.08438247 -0.01209595 -0.01376277
v -0.08452583 -0.01473885 -0.01818852
v -0.08475260 -0.01697726 -0.02299845
v -0.09157241 -0.01936108 -0.02611792
v -0.09842224 -0.01992469 -0.02454486
v -0.10559604 -0.02040436 -0.02330579
v -0.11311491 -0.02072219 -0.02245167
v -0.12100000 -0.02085639 -0.02218641
v -0.03393034 -0.01764246 -0.08485864
v -0.03545377 -0.02027709 -0.08246359
v -0.03645622 -0.01615782 -0.08453540
v -0.04071953 -0.01903882 -0.07920883
v -0.03927286 -0.01491335 -0.08393666
v -0.03963073 -0.01985241 -0.07957494
v -0.03871814 -0.02069099 -0.07982730
v -0.03697526 -0.02291044 -0.08006865
v -0.05354489 -0.00838010 -0.08544596
v -0.05124511 -0.00862957 -0.08591866
v -0.05410015 -0.01553126 -0.07326163
v -0.04902304 -0.01607698 -0.07558186
v -0.03088355 -0.01237333 -0.08964861
v -0.03322791 -0.01174009 -0.08929235
v -0.03421937 -0.01149430 -0.08913288
v -0.03775867 -0.01070729 -0.08852892
v -0.04109544 -0.01007458 -0.08791989
v -0.04939455 -0.00884872 -0.08629525
v -0.04536655 -0.00938948 -0.08709934
v -0.04576232 -0.01307599 -0.08207162
v -0.04148115 -0.01000734 -0.08784748
v -0.04237623 -0.01389182 -0.08310216
v -0.04089464 -0.01892329 -0.07914498
v -0.06213140 -0.00763937 -0.08365486
v -0.05873796 -0.01538843 -0.07124295
v -0.06197589 -0.01541036 -0.06991223
v -0.04658470 -0.01657633 -0.07670759
v -0.04321495 -0.01769178 -0.07821289
v -0.03535271 0.03183105 -0.08250473
v -0.04353587 0.02928350 -0.08599984
v -0.03946972 0.03267200 -0.08131109
v -0.04390108 0.02939686 -0.08591688
v -0.04880907 0.03095816 -0.08478356
v -0.02189988 0.02391730 -0.09019040
v -0.02557085 0.02455122 -0.08963169
v -0.02112157 0.03118364 -0.08512953
v -0.02440451 0.03095823 -0.08480646
v -0.02034327 0.03844998 -0.08006865
v -0.02291655 0.03724081 -0.07994284
v -0.03502669 0.03588863 -0.07662308
v -0.03082684 0.03562562 -0.07815813
v -0.02844086 0.03578842 -0.07888233
v -0.03148974 0.03127183 -0.08348873
v -0.02564986 0.03632396 -0.07954146
v -0.02785045 0.03098426 -0.08425774
v -0.02944407 0.02538172 -0.08895204
v -0.05382901 0.03261089 -0.08359873
v -0.05893632 0.03432772 -0.08238012
v -0.04673726 0.03903091 -0.07143975
v -0.04334357 0.03785909 -0.07302088
v -0.03740567 0.03628804 -0.07564954
v -0.03009435 0.02553452 -0.08883054
v -0.03451916 0.02665774 -0.08795810
v -0.03663412 0.02723869 -0.08751723
v -0.03912959 0.02795429 -0.08698098
v -0.08782193 0.04705756 -0.07011142
v -0.08629746 0.04917143 -0.06646816
v -0.07799056 0.04627131 -0.06860039
v -0.12100000 0.05926692 -0.05579842
v -0.06979284 0.04316698 -0.07102988
v -0.06168515 0.04001859 -0.07369287
v -0.10409176 0.05128468 -0.06678019
v -0.10486519 0.04857986 -0.07000296
v -0.11245194 0.05251662 -0.06581936
v -0.11214709 0.04960845 -0.06898654
v -0.11283821 0.04967681 -0.06891830
v -0.09120940 0.04533584 -0.07310978
v -0.09589119 0.04941610 -0.06824610
v -0.09704423 0.04690648 -0.07162304
v -0.10215623 0.04806220 -0.07050826
v -0.12100000 0.05774225 -0.05871058
v -0.11167707 0.05724364 -0.05897637
v -0.10253695 0.05586129 -0.05975128
v -0.09357017 0.05376141 -0.06100861
v -0.08476724 0.05111018 -0.06272171
v -0.09473270 0.05170717 -0.06469695
v -0.10331544 0.05371837 -0.06335051
v -0.11206482 0.05504487 -0.06249261
v -0.12100000 0.05478543 -0.06320495
v -0.12100000 0.05007061 -0.06852262
v -0.07412688 0.03969478 -0.07816020
v -0.07563460 0.04023019 -0.07770293
v -0.08171177 0.04233724 -0.07585523
v -0.08933865 0.04478338 -0.07362498
v -0.09030099 -0.00938865 -0.07276911
v -0.08922204 -0.01200734 -0.06934907
v -0.09770869 -0.00956413 -0.07113932
v -0.09670763 -0.01232819 -0.06781597
v -0.10528549 -0.00974468 -0.06983104
v -0.10449201 -0.01262435 -0.06660166
v -0.11304478 -0.00988806 -0.06895845
v -0.11258590 -0.01284345 -0.06580046
v -0.12100000 -0.01050558 -0.06810024
v -0.12100000 -0.01293310 -0.06550667
v -0.12100000 -0.00663594 -0.07148489
v -0.11350451 -0.00662196 -0.07183909
v -0.10956177 -0.00660848 -0.07228506
v -0.06845106 -0.01142058 -0.07491823
v -0.07421315 -0.00698677 -0.08071500
v -0.07510446 -0.01150115 -0.07299451
v -0.08202455 -0.01171421 -0.07110669
v -0.12100000 -0.01782782 -0.05856046
v -0.12100000 -0.01549764 -0.06222779
v -0.11199588 -0.01774065 -0.05880194
v -0.11212797 -0.01546475 -0.06240649
v -0.10370177 -0.01521089 -0.06316049
v -0.10524272 -0.01756602 -0.05930925
v -0.11167108 -0.01773433 -0.05881983
v -0.07482852 -0.01597373 -0.06536413
v -0.07698717 -0.01610235 -0.06471887
v -0.08815172 -0.01445361 -0.06579777
v -0.08815274 -0.01677550 -0.06192023
v -0.09571262 -0.01485567 -0.06431761
v -0.09089673 -0.01692947 -0.06136781
v -0.10352463 -0.01750767 -0.05948438
v -0.09138767 -0.00661567 -0.07602723
v -0.09563174 -0.00659239 -0.07496494
v -0.09871520 -0.00658641 -0.07425087
v -0.06349611 -0.01544480 -0.06931220
v -0.07346541 -0.01589485 -0.06578922
v 0.00000000 0.04350000 -0.06311000
v 0.00000000 0.04350000 -0.08006866
v -0.00050314 0.04349709 -0.08006865
v -0.02105307 0.03806597 -0.07821107
v -0.02175562 0.03766880 -0.07635348
v -0.01672047 0.04015810 -0.08006865
v -0.02140719 0.03786780 -0.07884464
v -0.02105896 0.03806267 -0.07974216
v -0.02074636 0.03823395 -0.07999532
v -0.02183783 0.03762127 -0.07553260
v -0.02234685 0.03732123 -0.07012892
v -0.01672047 0.04015810 -0.06311000
v -0.02297343 0.03693875 -0.06410678
v -0.02264869 0.03713875 -0.06311000
v -0.02308641 0.03686825 -0.06311000
v -0.01564401 0.04058954 -0.08006865
v -0.01496108 0.04084620 -0.06311000
v -0.01320745 0.04144645 -0.08006865
v -0.00855760 0.04264988 -0.06311000
v -0.01072432 0.04215724 -0.08006865
v -0.00669767 0.04298124 -0.06311000
v -0.00051308 0.04349697 -0.08006865
v -0.00308378 0.04339055 -0.08006865
v -0.00565354 0.04313102 -0.08006865
v -0.00820339 0.04271943 -0.08006865
v -0.00855760 0.04264988 -0.08006865
v -0.03593434 -0.02451473 -0.08006865
v -0.03697713 -0.02291160 -0.07582897
v -0.03697713 -0.02291160 -0.07158930
v -0.00000001 -0.04349999 -0.08006865
v 0.00000000 -0.04350000 -0.06311000
v -0.00430314 -0.04328662 -0.08006865
v -0.00171085 -0.04346634 -0.06311000
v -0.00848925 -0.04266354 -0.08006865
v -0.00848925 -0.04266354 -0.06311000
v -0.01016487 -0.04229562 -0.06311000
v -0.01379011 -0.04125625 -0.08006865
v -0.01665622 -0.04018480 -0.06311000
v -0.02417813 -0.03616168 -0.06311000
v -0.02112348 -0.03802694 -0.08006865
v -0.01822790 -0.03949673 -0.06311000
v -0.01830482 -0.03946115 -0.08006865
v -0.01665622 -0.04018480 -0.08006865
v -0.03077344 -0.03074475 -0.06311000
v -0.03077344 -0.03074475 -0.08006865
v -0.02885295 -0.03255384 -0.08006865
v -0.02558935 -0.03517717 -0.06311000
v -0.02641152 -0.03456413 -0.08006865
v -0.02565385 -0.03513015 -0.08006865
v -0.02417813 -0.03616168 -0.08006865
v -0.03697480 -0.02291014 -0.06311000
v -0.03593434 -0.02451473 -0.06311000
v -0.03196393 -0.02950512 -0.06311000
v -0.03326629 -0.02802855 -0.08006865
v -0.03201938 -0.02944493 -0.08006865
v -0.03114189 -0.03037148 -0.08006865
v 0.00669767 -0.04298125 -0.06311000
v 0.00171083 0.04346634 -0.08006865
v 0.00171083 0.04346634 -0.06311000
v 0.00485088 0.04322866 -0.08006865
v 0.01016487 0.04229562 -0.06311000
v 0.01822789 0.03949673 -0.06311000
v 0.01431140 0.04107833 -0.08006865
v 0.01016487 0.04229562 -0.08006865
v 0.02558933 0.03517717 -0.06311000
v 0.02306004 0.03688474 -0.08006865
v 0.01822789 0.03949673 -0.08006865
v 0.03196393 0.02950512 -0.06311000
v 0.03066157 0.03085631 -0.08006865
v 0.02558933 0.03517717 -0.08006865
v 0.03711005 0.02269569 -0.06311000
v 0.03391130 0.02724463 -0.08006865
v 0.03196393 0.02950512 -0.08006865
v 0.04082721 0.01501278 -0.06311000
v 0.03910638 0.01905096 -0.08006865
v 0.03711005 0.02269569 -0.08006865
v 0.04297273 0.00675209 -0.06311000
v 0.04235615 0.00990965 -0.08006865
v 0.04082721 0.01501278 -0.08006865
v 0.04346414 -0.00176594 -0.06311000
v 0.04349913 0.00027543 -0.08006865
v 0.04297273 0.00675209 -0.08006865
v 0.04228270 -0.01021848 -0.06311000
v 0.04325850 -0.00457711 -0.08006865
v 0.04346414 -0.00176594 -0.08006865
v 0.03947359 -0.01827796 -0.06311000
v 0.04116811 -0.01405104 -0.08006865
v 0.04228270 -0.01021848 -0.08006865
v 0.03514470 -0.02563391 -0.06311000
v 0.03702998 -0.02282607 -0.08006865
v 0.03947359 -0.01827796 -0.08006865
v 0.02946462 -0.03200126 -0.06311000
v 0.03104982 -0.03046560 -0.08006865
v 0.03514470 -0.02563391 -0.08006865
v 0.02264868 -0.03713875 -0.06311000
v 0.02745882 -0.03373810 -0.08006865
v 0.02946462 -0.03200126 -0.08006865
v 0.01496108 -0.04084620 -0.06311000
v 0.01929821 -0.03898497 -0.08006865
v 0.02264868 -0.03713875 -0.08006865
v 0.00669767 -0.04298125 -0.08006865
v 0.01017761 -0.04229256 -0.08006865
v 0.01496108 -0.04084620 -0.08006865
v -0.15500000 0.02217693 0.00634911
v -0.15500000 0.02000000 0.00640368
v -0.12100000 0.02000000 0.00640368
v -0.12100000 0.02217693 0.00634911
v -0.12100000 0.02599445 0.00598823
v -0.15500000 0.03061599 0.00508703
v -0.12100000 0.03061599 0.00508703
v -0.12100000 0.03531750 0.00361478
v -0.15500000 0.03865770 0.00219506
v -0.12100000 0.03865770 0.00219506
v -0.12100000 0.04391816 -0.00076894
v -0.15500000 0.04598876 -0.00222114
v -0.12100000 0.04598876 -0.00222114
v -0.12100000 0.05137756 -0.00697985
v -0.15500000 0.05202314 -0.00766744
v -0.12100000 0.05202314 -0.00766744
v -0.12100000 0.05455797 -0.01069083
v -0.15500000 0.05717761 -0.01452824
v -0.12100000 0.05717761 -0.01452824
v -0.15500000 0.06088989 -0.02227848
v -0.15500000 0.06300779 -0.03061700
v -0.15500000 0.06344599 -0.03913602
v -0.15500000 0.06218930 -0.04766839
v -0.15500000 0.05926692 -0.05579842
v -0.15500000 0.05478543 -0.06320495
v -0.15500000 0.04901184 -0.06950343
v -0.12100000 0.04901184 -0.06950343
v -0.12100000 0.04403827 -0.07335074
v -0.15500000 0.04199032 -0.07463023
v -0.12100000 0.04199032 -0.07463023
v -0.12100000 0.03725054 -0.07703553
v -0.15500000 0.03407275 -0.07826551
v -0.12100000 0.03407275 -0.07826551
v -0.12100000 0.03363860 -0.07841171
v -0.12100000 0.02000000 -0.08061000
v -0.15500000 0.02000000 -0.08061000
v -0.12100000 0.02557267 -0.08025080
v -0.15500000 0.02557267 -0.08025080
v -0.12100000 0.02611737 -0.08017677
v -0.12100000 0.02991757 -0.07946178
v -0.15500000 0.01938859 -0.08060569
v -0.12100000 0.01938859 -0.08060569
v -0.12100000 0.01454701 -0.08026613
v -0.15500000 0.01100628 -0.07966800
v -0.12100000 0.01100628 -0.07966800
v -0.12100000 0.01073684 -0.07961003
v -0.15500000 0.00318248 -0.07722018
v -0.12100000 0.00700062 -0.07861776
v -0.12100000 0.00336747 -0.07729737
v -0.12100000 0.00318248 -0.07722018
v -0.12100000 -0.00013421 -0.07565952
v -0.15500000 -0.00408111 -0.07332224
v -0.12100000 -0.00408111 -0.07332224
v -0.15500000 -0.01050558 -0.06810024
v -0.15500000 -0.01549764 -0.06222779
v -0.15500000 -0.01964099 -0.05499197
v -0.12100000 -0.01964099 -0.05499197
v -0.12100000 -0.02207490 -0.04811473
v -0.15500000 -0.02233042 -0.04708851
v -0.12100000 -0.02233042 -0.04708851
v -0.12100000 -0.02313664 -0.04265958
v -0.15500000 -0.02346051 -0.03879852
v -0.12100000 -0.02346051 -0.03879852
v -0.15500000 -0.02296238 -0.03032273
v -0.15500000 -0.02085639 -0.02218641
v -0.15500000 -0.01721422 -0.01458865
v -0.15500000 -0.01216308 -0.00782049
v -0.15500000 -0.00584551 -0.00211479
v -0.12100000 -0.00584551 -0.00211479
v -0.12100000 -0.00186555 0.00050315
v -0.15500000 0.00143170 0.00223742
v -0.12100000 0.00143170 0.00223742
v -0.12100000 0.00695546 0.00439970
v -0.15500000 0.00942972 0.00509852
v -0.12100000 0.01784612 0.00635026
v -0.15500000 0.01784612 0.00635026
v -0.12100000 0.01639041 0.00625350
v -0.12100000 0.00942972 0.00509852
v -0.00158389 0.02956001 -0.08805222
v -0.00188161 0.02896340 -0.08837964
v -0.00282459 0.03250530 -0.08630189
v -0.00069107 0.03246238 -0.08642743
v -0.00076513 0.03208625 -0.08664041
v -0.00105496 0.03349928 -0.08581894
v -0.00041681 0.03580046 -0.08451497
v -0.00041495 0.03567114 -0.08458969
v -0.00041638 0.03547348 -0.08470380
v -0.00041510 0.03583970 -0.08449228
v -0.00736037 0.02441363 -0.09069581
v -0.01127235 0.03264362 -0.08549239
v -0.00847106 0.03352681 -0.08527499
v -0.01762691 0.03149825 -0.08540158
v -0.01433408 0.03197621 -0.08552856
v -0.01406796 0.02332640 -0.09095243
v -0.00933725 0.02384078 -0.09091613
v -0.01062126 0.02360212 -0.09098268
v -0.01197201 0.02343848 -0.09100261
v -0.00041641 0.03600110 -0.08439894
v -0.00041632 0.03599263 -0.08440384
v -0.00041650 0.03600729 -0.08439538
v -0.00041613 0.03597569 -0.08441365
v -0.00041655 0.03600507 -0.08439668
v -0.00041629 0.03597135 -0.08441617
v -0.00041652 0.03600958 -0.08439404
v -0.00041659 0.03601575 -0.08439048
v -0.00041669 0.03602194 -0.08438691
v -0.00041661 0.03593386 -0.08443787
v -0.00041529 0.03587431 -0.08447228
v -0.00041595 0.03590408 -0.08445507
v -0.00041580 0.03594184 -0.08443322
v -0.00041668 0.03602421 -0.08438559
v -0.00041686 0.03603883 -0.08437714
v -0.00041719 0.03606808 -0.08436025
v -0.00041877 0.03586104 -0.08447996
v -0.00041787 0.03612658 -0.08432645
v -0.00042918 0.03572407 -0.08455896
v -0.00041923 0.03624357 -0.08425887
v -0.00047393 0.03548404 -0.08469662
v -0.00042193 0.03647755 -0.08412370
v -0.00065452 0.03513420 -0.08489360
v -0.00042733 0.03694552 -0.08385336
v -0.00049171 0.03394437 -0.08558288
v -0.00042894 0.03495065 -0.08500516
v -0.00134478 0.03491232 -0.08499748
v -0.00043817 0.03788146 -0.08331269
v -0.00118829 0.03054810 -0.08750437
v -0.00045982 0.03975334 -0.08223134
v -0.00192445 0.03773839 -0.08335453
v -0.00376758 0.03604721 -0.08422414
v -0.00595963 0.03465238 -0.08485827
v -0.00300713 0.02732270 -0.08926257
v -0.01802888 0.02346542 -0.09065767
v -0.01722841 0.02340695 -0.09073450
v -0.00371587 0.02658534 -0.08964789
v -0.00508103 0.02553041 -0.09017947
v -0.00600180 0.02500358 -0.09043161
v -0.02028675 -0.02871259 -0.08476732
v -0.03068758 -0.01973388 -0.08515868
v -0.02765862 -0.02188370 -0.08531963
v -0.03046243 -0.02495616 -0.08269414
v -0.02488646 -0.02409464 -0.08532143
v -0.01416199 -0.02286104 -0.08946598
v -0.01356484 -0.02441821 -0.08888807
v -0.02241455 -0.02636977 -0.08514401
v -0.01471074 -0.02186572 -0.08978434
v -0.01854734 -0.03112705 -0.08417127
v -0.01336116 -0.02526411 -0.08853690
v -0.01863104 -0.01781779 -0.09057421
v -0.02253888 -0.01549320 -0.09054640
v -0.02435271 -0.01465917 -0.09042032
v -0.02616039 -0.01393016 -0.09024870
v -0.01724097 -0.03361760 -0.08333582
v -0.01326421 -0.02586238 -0.08827390
v -0.01319183 -0.02773285 -0.08737933
v -0.01335846 -0.02920825 -0.08660299
v -0.01420317 -0.03215624 -0.08488794
v -0.01452041 -0.03291721 -0.08441316
v -0.01641261 -0.03618918 -0.08224090
v -0.01843299 -0.01796378 -0.09056238
v -0.01782653 -0.01843528 -0.09051455
v -0.01597614 -0.02018569 -0.09021938
v -0.03721187 -0.02252837 -0.06311000
v -0.03711005 -0.02269569 -0.06311000
v -0.03738567 -0.02223875 -0.06206372
v -0.03711005 -0.02269569 -0.00845000
v -0.03824001 -0.02073528 -0.05795684
v -0.03910117 -0.01906169 -0.05185734
v -0.04215605 -0.01072904 -0.02491815
v -0.04185506 -0.01184898 -0.02643921
v -0.04082722 -0.01501278 -0.00845000
v -0.04149958 -0.01303953 -0.02894697
v -0.04120618 -0.01393901 -0.03143209
v -0.04098033 -0.01458965 -0.03352804
v -0.04081357 -0.01504986 -0.03514804
v -0.04016443 -0.01670526 -0.04174715
v -0.04342729 -0.00251405 -0.01867655
v -0.04310627 -0.00583923 -0.02078262
v -0.04297273 -0.00675209 -0.00845000
v -0.04296879 -0.00677713 -0.02147500
v -0.04255806 -0.00900315 -0.02330525
v -0.04228271 0.01021848 -0.00845000
v -0.04228298 0.01021733 -0.01520865
v -0.04287966 0.00731992 -0.01537185
v -0.04346414 0.00176594 -0.00845000
v -0.04331484 0.00400913 -0.01601246
v -0.04346476 0.00175039 -0.01672306
v -0.04349417 0.00071217 -0.01712414
v -0.03995804 0.01719310 -0.01647187
v -0.04121411 0.01391554 -0.01556829
v -0.03947360 0.01827796 -0.00845000
v -0.04218810 0.01060229 -0.01521566
v -0.03531655 0.02539665 -0.02187432
v -0.03704054 0.02280896 -0.01957719
v -0.03514471 0.02563391 -0.00845000
v -0.03859714 0.02006267 -0.01778181
v -0.03946523 0.01829603 -0.01691355
v -0.02955867 0.03191441 -0.03216072
v -0.03143491 0.03006811 -0.02825835
v -0.02946462 0.03200126 -0.00845000
v -0.03347605 0.02777769 -0.02467396
v -0.03513657 0.02564506 -0.02213197
v -0.02393012 0.03632725 -0.05637638
v -0.02535039 0.03534860 -0.04724897
v -0.02264869 0.03713875 -0.00845000
v -0.02669029 0.03434991 -0.04073945
v -0.02793829 0.03334213 -0.03631708
v -0.02945478 0.03201032 -0.03240013
v -0.00669767 0.04298124 -0.00845000
v 0.00000000 0.04350000 -0.00845000
v 0.00000000 -0.04350000 -0.00845000
v -0.00171085 -0.04346634 -0.00845000
v -0.01016487 -0.04229562 -0.00845000
v -0.01822790 -0.03949673 -0.00845000
v -0.02558935 -0.03517717 -0.00845000
v -0.03196393 -0.02950512 -0.00845000
v -0.01496108 0.04084620 -0.00845000
v 0.00669767 -0.04298125 -0.00845000
v 0.00171083 0.04346634 -0.00845000
v 0.01016487 0.04229562 -0.00845000
v 0.01822789 0.03949673 -0.00845000
v 0.02558933 0.03517717 -0.00845000
v 0.03196393 0.02950512 -0.00845000
v 0.03711005 0.02269569 -0.00845000
v 0.04082721 0.01501278 -0.00845000
v 0.04297273 0.00675209 -0.00845000
v 0.04346414 -0.00176594 -0.00845000
v 0.04228270 -0.01021848 -0.00845000
v 0.03947359 -0.01827796 -0.00845000
v 0.03514470 -0.02563391 -0.00845000
v 0.02946462 -0.03200126 -0.00845000
v 0.02264868 -0.03713875 -0.00845000
v 0.01496108 -0.04084620 -0.00845000
v 0.00001666 0.03601216 -0.08439392
v -0.01061790 -0.03437599 -0.08441237
v 0.00417221 0.03577116 -0.08439280
v 0.00823905 0.03505986 -0.08439181
v 0.01216851 0.03389809 -0.08439096
v 0.01591520 0.03230972 -0.08439025
v 0.01943726 0.03032232 -0.08438970
v 0.02269641 0.02796678 -0.08438930
v 0.02565818 0.02527692 -0.08438906
v 0.02829197 0.02228915 -0.08438897
v 0.03057124 0.01904210 -0.08438905
v 0.03247347 0.01557627 -0.08438927
v 0.03398037 0.01193364 -0.08438965
v 0.03507780 0.00815738 -0.08439017
v 0.03575586 0.00429147 -0.08439083
v 0.03600894 0.00038033 -0.08439162
v 0.03583568 -0.00353144 -0.08439253
v 0.03523892 -0.00739949 -0.08439355
v 0.03422570 -0.01117998 -0.08439466
v 0.03280720 -0.01482993 -0.08439586
v 0.03099862 -0.01830757 -0.08439713
v 0.02881915 -0.02157259 -0.08439846
v 0.02629180 -0.02458657 -0.08439983
v 0.02344333 -0.02731315 -0.08440123
v 0.02030401 -0.02971848 -0.08440265
v 0.01690756 -0.03177144 -0.08440406
v 0.01329087 -0.03344393 -0.08440544
v 0.00949386 -0.03471124 -0.08440679
v 0.00555922 -0.03555229 -0.08440808
v 0.00153223 -0.03594993 -0.08440930
v -0.00253962 -0.03589124 -0.08441044
v -0.00660674 -0.03536781 -0.08441146
v -0.03643482 0.03918649 -0.06541937
v -0.04039479 0.04026337 -0.06379749
v -0.04137841 0.04158710 -0.05729747
v -0.02925220 0.03781309 -0.06805296
v -0.03274117 0.03837755 -0.06683032
v -0.03353095 0.03924171 -0.06039005
v -0.02264173 0.03732379 -0.07002385
v -0.02590626 0.03746966 -0.06910993
v -0.02622759 0.03753649 -0.06301203
v -0.02809851 0.03492669 -0.03992355
v -0.02662870 0.03729670 -0.05673826
v -0.02708837 0.03676919 -0.05059481
v -0.02758539 0.03597288 -0.04488785
v -0.03206947 0.03716670 -0.07277824
v -0.02877585 0.03697032 -0.07386955
v -0.03439541 0.03974373 -0.05377966
v -0.03529114 0.03986816 -0.04732140
v -0.03617474 0.03959955 -0.04133751
v -0.03700282 0.03892247 -0.03615022
v -0.03907767 0.03842926 -0.03155008
v -0.02568595 0.03707726 -0.07472578
v -0.02272679 0.03745596 -0.07536798
v -0.04390198 0.03989137 -0.06788346
v -0.03955958 0.03859566 -0.06980623
v -0.03563972 0.03769796 -0.07143081
v -0.04245628 0.04253058 -0.05063104
v -0.04357426 0.04305757 -0.04412304
v -0.04467821 0.04313180 -0.03809832
v -0.04571398 0.04271702 -0.03288172
v -0.05042865 0.04340975 -0.02756205
v -0.04206427 -0.01837206 -0.05731368
v -0.04226116 -0.01782721 -0.05219140
v -0.04531308 -0.01703759 -0.05053006
v -0.04089507 -0.01911721 -0.06199308
v -0.03934187 -0.02017333 -0.06261805
v -0.03947279 -0.01982272 -0.05857335
v -0.05706865 -0.01502317 -0.03375291
v -0.04242102 -0.01366654 -0.03076898
v -0.05747121 -0.01736754 -0.04905232
v -0.05727340 -0.01687807 -0.04435640
v -0.04246778 -0.01144737 -0.02568521
v -0.04244154 -0.01221965 -0.02704557
v -0.04242022 -0.01496846 -0.03551837
v -0.04241164 -0.01610769 -0.04092064
v -0.03872147 -0.02072353 -0.06281746
v -0.04584598 -0.01434249 -0.03374383
v -0.04568497 -0.01545851 -0.03919583
v -0.04939754 -0.01394176 -0.03199844
v -0.04918396 -0.01508881 -0.03743121
v -0.04598776 -0.01302338 -0.02892937
v -0.04959516 -0.01255663 -0.02716671
v -0.05703567 -0.01366394 -0.02852160
v -0.05297204 -0.01495053 -0.03560909
v -0.04969418 -0.00912093 -0.02084614
v -0.05960890 -0.00754840 -0.01597101
v -0.04981571 -0.01004227 -0.02184136
v -0.05705126 -0.00903139 -0.01836087
v -0.04975582 -0.01093786 -0.02329958
v -0.05704344 -0.01009743 -0.01989052
v -0.05703161 -0.01202099 -0.02378809
v -0.06330749 -0.01821841 -0.05013561
v -0.05774998 -0.01756088 -0.05289352
v -0.05277265 -0.01704058 -0.05146680
v -0.05636752 -0.01743067 -0.05361795
v -0.05287332 -0.01719814 -0.05550697
v -0.04879308 -0.01665078 -0.04864557
v -0.05277222 -0.01661237 -0.04656854
v -0.04174963 -0.01868336 -0.06159642
v -0.04256963 -0.01834165 -0.06119191
v -0.03955592 -0.01911160 -0.05362365
v -0.05003261 -0.01715600 -0.05708956
v -0.04727791 -0.01730866 -0.05864007
v -0.04488758 -0.01767319 -0.05996738
v -0.04349799 -0.01802735 -0.06071302
v -0.10808916 0.05679412 -0.01493700
v -0.08421641 0.05293971 -0.01669537
v -0.04345370 0.01747185 -0.01454688
v -0.04424503 0.01405370 -0.01396931
v -0.03971333 0.03473392 -0.02554415
v -0.04016723 0.03242186 -0.02291174
v -0.03934769 0.03674546 -0.02843453
v -0.04130663 0.02701768 -0.01853700
v -0.04070127 0.02983907 -0.02056714
v -0.04269305 0.02079741 -0.01550922
v -0.04587507 0.00709800 -0.01399569
v -0.04505593 0.01058241 -0.01378433
v -0.04826736 -0.00303197 -0.01698440
v -0.04749224 0.00025081 -0.01560209
v -0.04669100 0.00364073 -0.01460307
v -0.04900503 -0.00616854 -0.01873775
v -0.05900046 -0.00438846 -0.01374682
v -0.10969879 -0.00184671 0.00009177
v -0.10956001 0.00242105 0.00227423
v -0.10941835 0.00689453 0.00396655
v -0.10927550 0.01152023 0.00515147
v -0.10913316 0.01624340 0.00581686
v -0.05835088 -0.00103061 -0.01189881
v -0.05766995 0.00248467 -0.01044397
v -0.05696764 0.00611563 -0.00939546
v -0.05625407 0.00981968 -0.00876234
v -0.05553934 0.01355373 -0.00854952
v -0.05483355 0.01727454 -0.00875759
v -0.05414665 0.02093912 -0.00938283
v -0.05348841 0.02450502 -0.01041714
v -0.05286831 0.02793073 -0.01184814
v -0.06885020 -0.00317411 -0.00947160
v -0.06828910 0.00041172 -0.00753321
v -0.06770307 0.00416678 -0.00601158
v -0.06710059 0.00804653 -0.00492080
v -0.06649026 0.01200539 -0.00427069
v -0.06588064 0.01599722 -0.00406669
v -0.06528030 0.01997568 -0.00430965
v -0.06469766 0.02389459 -0.00499584
v -0.06414098 0.02770839 -0.00611685
v -0.06361827 0.03137242 -0.00765970
v -0.06313726 0.03484331 -0.00960690
v -0.07869957 -0.00241912 -0.00593112
v -0.07823057 0.00138652 -0.00391036
v -0.07774304 0.00537299 -0.00232963
v -0.07724386 0.00949293 -0.00120393
v -0.07673994 0.01369787 -0.00054385
v -0.07623824 0.01793867 -0.00035529
v -0.07574563 0.02216592 -0.00063935
v -0.07526891 0.02633039 -0.00139226
v -0.07481471 0.03038341 -0.00260530
v -0.07438945 0.03427725 -0.00426488
v -0.07399934 0.03796555 -0.00635260
v -0.07365028 0.04140363 -0.00884545
v -0.08869392 -0.00201713 -0.00314438
v -0.08832385 0.00198533 -0.00105301
v -0.08794130 0.00617913 0.00057718
v -0.08755142 0.01051435 0.00173029
v -0.08715945 0.01493987 0.00239509
v -0.08677056 0.01940384 0.00256524
v -0.08638991 0.02385410 0.00223945
v -0.08602259 0.02823862 0.00142156
v -0.08567353 0.03250594 0.00012058
v -0.08534753 0.03660557 -0.00164933
v -0.08504920 0.04048841 -0.00386900
v -0.08478294 0.04410713 -0.00651434
v -0.08455288 0.04741653 -0.00955661
v -0.09897854 -0.00186178 -0.00113041
v -0.09871747 0.00229967 0.00101610
v -0.09844925 0.00666103 0.00268415
v -0.09817731 0.01117028 0.00385704
v -0.09790508 0.01577413 0.00452303
v -0.09763601 0.02041851 0.00467545
v -0.09737349 0.02504903 0.00431289
v -0.09712087 0.02961140 0.00343926
v -0.09688139 0.03405188 0.00206385
v -0.09665819 0.03831774 0.00020123
v -0.09645431 0.04235764 -0.00212876
v -0.09627260 0.04612207 -0.00490121
v -0.09611575 0.04956375 -0.00808634
v -0.09598629 0.05263801 -0.01164975
v -0.10899302 0.02100846 0.00595589
v -0.10885674 0.02575954 0.00556710
v -0.10872594 0.03044084 0.00465451
v -0.10860223 0.03499711 0.00322756
v -0.10848712 0.03937409 0.00130115
v -0.10838209 0.04351898 -0.00110452
v -0.10828851 0.04738075 -0.00396401
v -0.10820771 0.05091071 -0.00724686
v -0.10814089 0.05406281 -0.01091780
v -0.05064445 0.04160655 -0.02423448
v -0.05094580 0.03945069 -0.02114732
v -0.06177104 0.04599212 -0.02094126
v -0.05132626 0.03697171 -0.01833522
v -0.06201597 0.04368990 -0.01763546
v -0.07290314 0.04980293 -0.01845988
v -0.05177873 0.03420189 -0.01582979
v -0.06232937 0.04104067 -0.01462274
v -0.07309719 0.04736114 -0.01493258
v -0.04197388 0.02399182 -0.01684451
v -0.05229550 0.03117593 -0.01365925
v -0.06270530 0.03807931 -0.01193658
v -0.07334784 0.04454889 -0.01171597
v -0.08436285 0.05037398 -0.01296267
v -0.09588652 0.05530319 -0.01555273
v -0.05005915 -0.01709747 -0.06160297
v -0.04655518 -0.01736099 -0.06347258
v -0.03871530 -0.02072465 -0.07131599
v -0.04089259 -0.01908629 -0.07056376
v -0.04089170 -0.01902097 -0.07485401
v -0.11193144 -0.02298871 -0.04293636
v -0.03871298 -0.02071096 -0.07557004
v -0.07467192 -0.01957555 -0.05045964
v -0.08107606 -0.02041861 -0.04837685
v -0.06337222 -0.01806043 -0.05498750
v -0.08799509 -0.02124028 -0.04651099
v -0.10341378 -0.02258413 -0.04371861
v -0.09543799 -0.02198172 -0.04493420
v -0.06347620 -0.01667671 -0.06461985
v -0.07480337 -0.01766199 -0.06051540
v -0.11198553 -0.02018856 -0.05369596
v -0.10350683 -0.01987651 -0.05440501
v -0.09555656 -0.01941771 -0.05550686
v -0.08812743 -0.01886227 -0.05693612
v -0.08121213 -0.01826032 -0.05862743
v -0.05408750 -0.01630743 -0.06872644
v -0.05010181 -0.01647911 -0.07061709
v -0.04657881 -0.01695518 -0.07231216
v -0.11196215 -0.02193945 -0.04837772
v -0.10346661 -0.02157006 -0.04912100
v -0.09550531 -0.02102223 -0.05027605
v -0.08807023 -0.02035143 -0.05177438
v -0.08115332 -0.01961315 -0.05354744
v -0.07474655 -0.01886287 -0.05552674
v -0.06343126 -0.01754823 -0.05982999
v -0.05406004 -0.01685135 -0.06413599
v -0.05008336 -0.01687327 -0.06611873
v -0.04656859 -0.01721609 -0.06789662
v -0.04351121 -0.01778576 -0.07374626
v -0.04350768 -0.01793527 -0.06940114
v -0.05402398 -0.01716542 -0.05951750
v -0.09824204 -0.00368576 -0.07630406
v -0.06433514 0.00262960 -0.08753551
v -0.07252315 0.00364807 -0.08588479
v -0.07188148 0.00667550 -0.08694254
v -0.07320226 0.03729251 -0.08015711
v -0.08888825 0.04213393 -0.07589414
v -0.05757166 0.03218360 -0.08408709
v -0.05416099 0.01872431 -0.09103864
v -0.05414474 0.01835944 -0.09113844
v -0.07097174 0.02288798 -0.08763836
v -0.07093477 0.01963518 -0.08830964
v -0.05469994 0.02384043 -0.08904950
v -0.07111272 0.02603871 -0.08658551
v -0.05523005 0.02626530 -0.08780785
v -0.07139178 0.02905715 -0.08524866
v -0.05631197 0.02953991 -0.08588122
v -0.07243319 0.03469805 -0.08200354
v -0.05734176 0.03175894 -0.08439367
v -0.08851942 0.03928710 -0.07795773
v -0.08804654 0.03310302 -0.08144039
v -0.08793951 0.02980023 -0.08280884
v -0.08790562 0.02637175 -0.08386407
v -0.08792590 0.02285052 -0.08455084
v -0.08798981 0.01928488 -0.08483866
v -0.07098249 0.01633621 -0.08853781
v -0.08810703 0.01572098 -0.08473743
v -0.07113229 0.01304803 -0.08833828
v -0.08829825 0.01219663 -0.08428425
v -0.07142200 0.00981656 -0.08778077
v -0.08857972 0.00874284 -0.08352085
v -0.08895845 0.00538499 -0.08248362
v -0.09000131 -0.00095190 -0.07969416
v -0.06652044 -0.00266459 -0.08499916
v -0.06790954 -0.00504384 -0.08354458
v -0.07548784 -0.00454853 -0.08171865
v -0.05599346 0.00214941 -0.08924320
v -0.05802149 -0.00227149 -0.08719521
v -0.06532516 -0.00009934 -0.08632964
v -0.07433650 -0.00198665 -0.08325964
v -0.09065529 -0.00388281 -0.07796821
v -0.11325707 0.00328502 -0.07760246
v -0.11318843 0.00688758 -0.07891992
v -0.11312740 0.01059438 -0.07991597
v -0.11341560 -0.00349670 -0.07404882
v -0.11333291 -0.00018554 -0.07597465
v -0.11283478 0.04678813 -0.07144754
v -0.10477303 0.04574495 -0.07247405
v -0.11295025 0.02587715 -0.08052190
v -0.11291693 0.02965673 -0.07981021
v -0.11288775 0.03335601 -0.07876029
v -0.11284746 0.04039718 -0.07569654
v -0.11286426 0.03694508 -0.07738419
v -0.11307397 0.01437686 -0.08058088
v -0.11302755 0.01820539 -0.08090677
v -0.11298686 0.02204931 -0.08088802
v -0.09679683 0.04415343 -0.07400524
v -0.11283766 0.04368682 -0.07371243
v -0.10470444 0.04270169 -0.07469445
v -0.09659885 0.04119755 -0.07615704
v -0.10466152 0.03947437 -0.07665074
v -0.09645446 0.03806359 -0.07806934
v -0.10464460 0.03608799 -0.07832719
v -0.09636428 0.03477563 -0.07972632
v -0.10465259 0.03256419 -0.07970352
v -0.09632601 0.03135012 -0.08110072
v -0.10468182 0.02892593 -0.08075529
v -0.09633220 0.02780457 -0.08215454
v -0.10472658 0.02520428 -0.08146054
v -0.09637110 0.02417128 -0.08285096
v -0.10478376 0.02143571 -0.08180731
v -0.09643623 0.02049255 -0.08317032
v -0.10485625 0.01765584 -0.08179699
v -0.09653357 0.01680889 -0.08311819
v -0.10495018 0.01389742 -0.08144025
v -0.09667587 0.01315518 -0.08271710
v -0.10507037 0.01019101 -0.08075099
v -0.09687308 0.00956203 -0.08199335
v -0.10521893 0.00656511 -0.07974387
v -0.09712958 0.00605641 -0.08097149
v -0.10539591 0.00304661 -0.07843358
v -0.09744532 0.00266298 -0.07967304
v -0.10559978 -0.00033775 -0.07683334
v -0.09781708 -0.00059282 -0.07811417
v -0.10582921 -0.00356149 -0.07495420
v -0.06033646 -0.00566519 -0.08516408
v -0.05991189 -0.00512517 -0.08552473
v -0.05869574 -0.00338638 -0.08658286
v -0.05409002 0.01613719 -0.09159829
v -0.05410042 0.01407661 -0.09178723
v -0.05412608 0.01311010 -0.09179769
v -0.05440710 0.00917065 -0.09137741
v -0.05461819 0.00761896 -0.09103717
v -0.05550200 0.00366109 -0.08982173
v 0.02484603 -0.01861603 -0.08701958
v 0.02025844 -0.02375622 -0.08694062
v 0.01462185 -0.02784547 -0.08683684
v 0.00814608 -0.03066709 -0.08671097
v 0.00108867 -0.03203404 -0.08656719
v -0.00989947 -0.03103691 -0.08633213
v -0.00624235 -0.03179488 -0.08641168
v 0.00546727 0.02487855 -0.08991980
v 0.00797804 0.02349715 -0.09011684
v 0.00464264 0.02167007 -0.09127172
v 0.01723732 0.01364830 -0.09091283
v 0.01836863 0.01127866 -0.09102409
v 0.01339801 0.01055514 -0.09246979
v 0.02426401 0.00958489 -0.08927427
v 0.02503987 0.00670967 -0.08932385
v 0.01988244 0.00632706 -0.09119149
v -0.03038657 0.01281347 -0.09444445
v -0.03041941 0.00865718 -0.09498812
v -0.04219992 0.01144734 -0.09358346
v -0.03819525 -0.00826609 -0.08946267
v -0.04871170 -0.00643105 -0.08763696
v -0.01511019 -0.00305708 -0.09501192
v -0.01169085 -0.00762458 -0.09433257
v -0.01656987 -0.00561190 -0.09431713
v -0.01400350 -0.01009248 -0.09353109
v -0.01857586 -0.00810440 -0.09344769
v -0.01693174 -0.01225504 -0.09259112
v -0.02118391 -0.01037878 -0.09242358
v -0.02043648 -0.01387984 -0.09154096
v -0.02437132 -0.01220564 -0.09127375
v -0.01960689 0.00118689 -0.09537640
v -0.02042766 -0.00126051 -0.09483968
v -0.02166329 -0.00379001 -0.09409905
v -0.02341696 -0.00632083 -0.09316789
v -0.02575540 -0.00870517 -0.09206633
v -0.02866822 -0.01071936 -0.09082344
v -0.01909408 0.00352789 -0.09570093
v -0.00788492 0.00027675 -0.09574213
v -0.00871439 -0.00236413 -0.09544855
v -0.00995412 -0.00501455 -0.09497603
v -0.03572291 -0.00591962 -0.09087242
v -0.04656730 -0.00380588 -0.08918891
v -0.03379431 -0.00332279 -0.09210990
v -0.04491343 -0.00100957 -0.09053857
v -0.03240598 -0.00068101 -0.09314693
v -0.04374398 0.00177760 -0.09166002
v -0.03148203 0.00187536 -0.09396394
v -0.04298767 0.00444391 -0.09253513
v -0.03091330 0.00428220 -0.09454790
v -0.04254331 0.00693805 -0.09315182
v -0.04230830 0.00925949 -0.09350258
v -0.01880318 0.00578227 -0.09580880
v -0.01868559 0.00799980 -0.09569861
v -0.00720616 0.00551976 -0.09577791
v -0.01690076 0.01951982 -0.09252580
v -0.01921661 0.02197975 -0.09138674
v -0.01466103 0.02158890 -0.09176930
v -0.02405652 0.02270165 -0.09079912
v -0.02200647 0.02021534 -0.09204902
v -0.02053474 0.01760260 -0.09315518
v -0.04564314 0.02810472 -0.08690747
v -0.04424681 0.02545669 -0.08855704
v -0.04328392 0.02280926 -0.09000670
v -0.04268636 0.02028326 -0.09123068
v -0.03446607 0.02497958 -0.08911060
v -0.03281349 0.02242172 -0.09056959
v -0.03166731 0.01982424 -0.09185605
v -0.03095102 0.01733131 -0.09294245
v 0.02319075 0.01238011 -0.08921193
v 0.02182472 0.01506744 -0.08913721
v 0.02017266 0.01761862 -0.08905065
v 0.02039819 0.00123142 -0.09128225
v 0.01992724 -0.00384904 -0.09129425
v 0.01502283 0.00180668 -0.09281529
v 0.01462159 -0.00259023 -0.09283582
v 0.00956960 0.00253913 -0.09400700
v 0.00923106 -0.00127655 -0.09403828
v 0.00404363 0.00341277 -0.09488177
v 0.00376111 0.00008250 -0.09492577
v -0.00155000 0.00441164 -0.09546395
v -0.00178274 0.00147742 -0.09552243
v -0.00739507 0.00289869 -0.09585239
v 0.01462196 0.00622467 -0.09269240
v 0.00828849 0.01018142 -0.09357373
v 0.00926498 0.00638015 -0.09385113
v 0.00304970 0.01012938 -0.09436066
v 0.00381804 0.00677119 -0.09469225
v -0.00230873 0.01037091 -0.09485530
v -0.00171234 0.00737545 -0.09524031
v -0.00777718 0.01087788 -0.09508237
v -0.00731958 0.00817060 -0.09551988
v -0.01299718 0.00913430 -0.09555552
v 0.02551566 0.00378205 -0.08936034
v 0.01604992 0.02219733 -0.08884481
v 0.01824376 0.02000498 -0.08895291
v 0.01423621 0.01806308 -0.09063888
v 0.01585862 0.01591763 -0.09078413
v 0.01132970 0.01467613 -0.09215252
v 0.01016738 0.03034541 -0.08663508
v 0.01347417 0.02885855 -0.08670136
v 0.01093027 0.02588038 -0.08860179
v 0.01360600 0.02416593 -0.08872737
v 0.01028599 0.02188053 -0.09030369
v 0.01237588 0.02005962 -0.09047827
v 0.00840615 0.01844169 -0.09174891
v 0.00304455 0.03217549 -0.08649691
v 0.00804478 0.02730953 -0.08846956
v 0.00497575 0.02842136 -0.08833244
v 0.00667815 0.03146066 -0.08656657
v -0.00007906 0.02679915 -0.08950535
v 0.00175415 0.02918288 -0.08819251
v 0.00246289 0.02301308 -0.09101111
v 0.00277332 0.02599131 -0.08971500
v 0.00094923 0.02036037 -0.09209163
v 0.00010164 0.02413079 -0.09073970
v -0.01042060 0.02156883 -0.09192134
v -0.00850131 0.02290262 -0.09140375
v -0.00652613 0.02195929 -0.09181741
v -0.00524022 0.02369888 -0.09108533
v -0.00300845 0.02280002 -0.09143201
v -0.00242166 0.02498444 -0.09046108
v -0.04221127 0.01569965 -0.09293435
v -0.03055890 0.01499782 -0.09380958
v -0.01900571 0.01257568 -0.09483273
v -0.01956934 0.01503099 -0.09408955
v -0.01404624 0.01420758 -0.09438915
v -0.01519847 0.01686941 -0.09353583
v -0.01004144 0.01643671 -0.09370385
v -0.01202716 0.01914778 -0.09279365
v -0.00508307 0.01634103 -0.09363420
v -0.00741084 0.01913801 -0.09282738
v -0.00034273 0.01661894 -0.09330184
v -0.00307698 0.01952928 -0.09260178
v 0.00416014 0.01730698 -0.09268176
v -0.01873857 0.01024424 -0.09537179
v -0.01334606 0.01162217 -0.09506661
v -0.00865371 0.01364594 -0.09447294
v -0.00340579 0.01337902 -0.09431606
v 0.00168344 0.01343978 -0.09389361
v 0.00659996 0.01386117 -0.09318072
v -0.01055398 -0.02512890 -0.08911910
v -0.00989588 -0.02795679 -0.08789361
v -0.01183350 -0.02254250 -0.09003088
v 0.00104325 -0.02031169 -0.09144727
v 0.00385545 -0.02348870 -0.09020854
v 0.00117970 -0.02442392 -0.09000895
v 0.00623231 -0.02693681 -0.08863733
v 0.00318049 -0.02784050 -0.08850043
v 0.00467205 -0.03154276 -0.08664099
v 0.02941358 -0.00946688 -0.08708810
v 0.03026197 -0.00616397 -0.08709723
v 0.03075749 -0.00279125 -0.08709944
v 0.03089483 0.00061635 -0.08709475
v 0.03067146 0.00402354 -0.08708322
v 0.03008770 0.00739483 -0.08706492
v 0.02914673 0.01069467 -0.08703998
v 0.02785476 0.01388759 -0.08700855
v 0.02622098 0.01693835 -0.08697088
v 0.02425777 0.01981205 -0.08692723
v 0.02198073 0.02247431 -0.08687796
v 0.01940887 0.02489135 -0.08682351
v 0.01656464 0.02703015 -0.08676443
v 0.00873214 -0.01458063 -0.09228530
v 0.01283822 -0.01743799 -0.09085938
v 0.01088081 -0.01925119 -0.09072129
v 0.01668573 -0.02049440 -0.08908558
v 0.01438013 -0.02248169 -0.08899020
v 0.01755925 -0.02594638 -0.08689169
v 0.01611337 -0.01334206 -0.09108116
v 0.02057660 -0.01591396 -0.08923930
v 0.01875602 -0.01829679 -0.08916876
v 0.02269468 -0.02130295 -0.08698332
v 0.01848959 -0.00875891 -0.09122694
v 0.02342113 -0.01069472 -0.08934116
v 0.02213511 -0.01337136 -0.08929685
v 0.02822045 -0.01266556 -0.08707207
v 0.02669341 -0.01572625 -0.08704920
v 0.02569056 0.00082931 -0.08938353
v 0.02556537 -0.00212147 -0.08939325
v 0.02514252 -0.00504345 -0.08938944
v 0.02442594 -0.00791001 -0.08937205
v 0.00524371 -0.01777135 -0.09190846
v 0.00872265 -0.02087905 -0.09056608
v 0.00637588 -0.02229922 -0.09039475
v 0.01185599 -0.02423396 -0.08888320
v 0.00913264 -0.02572691 -0.08876528
v 0.01147392 -0.02942718 -0.08677644
v -0.01369415 -0.02018688 -0.09065121
v -0.01609562 -0.01805132 -0.09100240
v -0.00642501 -0.01921527 -0.09173109
v -0.00378393 -0.02201772 -0.09091540
v -0.00638755 -0.02249296 -0.09062890
v -0.00162904 -0.02508062 -0.08979782
v -0.00454363 -0.02543402 -0.08957731
v 0.00000629 -0.02841554 -0.08835589
v -0.00325714 -0.02864027 -0.08820527
v -0.00256397 -0.03212313 -0.08649042
v -0.01899762 -0.01612509 -0.09110671
v -0.00657210 -0.02849393 -0.08805044
v -0.00753157 -0.02545873 -0.08935005
v -0.00908253 -0.02267817 -0.09033279
v -0.01118673 -0.02014111 -0.09102096
v -0.01380595 -0.01783646 -0.09143685
v -0.00951892 -0.01666172 -0.09226731
v -0.01690195 -0.01575307 -0.09160275
v -0.01303230 -0.01434549 -0.09254652
v -0.00217651 -0.01739465 -0.09237621
v -0.00577606 -0.01472650 -0.09301804
v -0.00972766 -0.01229614 -0.09339544
v 0.00144102 -0.01490146 -0.09293333
v -0.00266354 -0.01225996 -0.09366365
v -0.00704811 -0.00983747 -0.09412240
v 0.00438365 -0.01191596 -0.09338664
v -0.00019100 -0.00943763 -0.09418668
v -0.00497568 -0.00713928 -0.09470871
v 0.01146767 -0.01089831 -0.09256877
v 0.00665075 -0.00858068 -0.09372572
v 0.00167391 -0.00638712 -0.09457560
v -0.00345157 -0.00431561 -0.09514201
v 0.01343347 -0.00686150 -0.09275329
v 0.00826037 -0.00500586 -0.09394411
v 0.00297786 -0.00319537 -0.09482326
v -0.00240643 -0.00143337 -0.09541465
f 1 2 3
f 4 5 6
f 6 5 7
f 8 9 10
f 10 9 11
f 12 8 13
f 13 8 10
f 13 10 14
f 14 10 11
f 14 11 15
f 16 12 17
f 17 12 13
f 17 13 18
f 18 13 14
f 18 14 19
f 19 14 15
f 19 15 20
f 21 16 22
f 22 16 17
f 22 17 23
f 23 17 18
f 23 18 24
f 24 18 19
f 24 19 25
f 25 19 20
f 25 20 26
f 27 21 28
f 28 21 22
f 28 22 29
f 29 22 23
f 29 23 30
f 30 23 24
f 30 24 31
f 31 24 25
f 31 25 32
f 32 25 26
f 32 26 33
f 34 27 35
f 35 27 28
f 35 28 36
f 36 28 29
f 36 29 37
f 37 29 30
f 37 30 38
f 38 30 31
f 38 31 39
f 39 31 32
f 39 32 40
f 40 32 33
f 40 33 41
f 2 42 3
f 3 42 43
f 3 43 44
f 45 1 46
f 46 1 3
f 46 3 47
f 47 3 44
f 47 44 48
f 49 45 50
f 50 45 46
f 50 46 51
f 51 46 47
f 51 47 52
f 52 47 48
f 52 48 53
f 54 49 55
f 55 49 50
f 55 50 56
f 56 50 51
f 56 51 57
f 57 51 52
f 57 52 58
f 58 52 53
f 58 53 59
f 60 54 61
f 61 54 55
f 61 55 62
f 62 55 56
f 62 56 63
f 63 56 57
f 63 57 64
f 64 57 58
f 64 58 65
f 65 58 59
f 65 59 66
f 6 60 4
f 4 60 61
f 4 61 67
f 67 61 62
f 67 62 68
f 68 62 63
f 68 63 69
f 69 63 64
f 69 64 70
f 70 64 65
f 70 65 71
f 71 65 66
f 71 66 72
f 73 34 72
f 72 34 35
f 72 35 71
f 71 35 36
f 71 36 70
f 70 36 37
f 70 37 69
f 69 37 38
f 69 38 68
f 68 38 39
f 68 39 67
f 67 39 40
f 67 40 4
f 4 40 41
f 4 41 5
f 74 73 75
f 75 73 72
f 75 72 76
f 76 72 66
f 76 66 77
f 77 66 59
f 77 59 78
f 78 59 53
f 78 53 79
f 79 53 48
f 79 48 80
f 80 48 44
f 80 44 81
f 81 44 43
f 81 43 82
f 82 43 42
f 83 84 85
f 86 87 88
f 89 90 91
f 91 90 92
f 91 92 93
f 90 94 92
f 92 94 95
f 92 95 96
f 96 95 97
f 96 97 98
f 98 97 99
f 98 99 100
f 100 99 101
f 102 86 103
f 86 88 103
f 103 88 104
f 103 104 105
f 105 104 85
f 105 85 106
f 106 85 84
f 106 84 107
f 102 103 108
f 108 103 105
f 108 105 109
f 109 105 106
f 109 106 110
f 110 106 107
f 110 107 111
f 112 113 114
f 114 113 115
f 114 115 116
f 116 115 117
f 116 117 118
f 118 117 119
f 118 119 120
f 121 122 123
f 123 122 124
f 124 122 125
f 124 125 126
f 126 125 127
f 128 129 130
f 129 127 130
f 130 127 125
f 130 125 131
f 131 125 122
f 131 122 132
f 133 134 135
f 135 134 136
f 135 136 137
f 137 136 138
f 137 138 139
f 139 138 140
f 139 140 141
f 141 140 142
f 141 142 143
f 143 142 144
f 143 144 145
f 146 100 133
f 133 100 101
f 133 101 134
f 93 92 147
f 147 92 96
f 147 96 148
f 148 96 98
f 148 98 149
f 149 98 100
f 149 100 150
f 150 100 146
f 150 146 132
f 132 146 133
f 132 133 131
f 131 133 135
f 131 135 130
f 130 135 137
f 130 137 128
f 128 137 139
f 128 139 151
f 151 139 141
f 151 141 152
f 152 141 143
f 152 143 153
f 153 143 145
f 153 145 154
f 155 120 111
f 111 120 119
f 111 119 110
f 110 119 117
f 110 117 109
f 109 117 115
f 109 115 108
f 108 115 113
f 108 113 102
f 83 85 156
f 156 85 104
f 156 104 157
f 157 104 88
f 157 88 158
f 158 88 87
f 158 87 159
f 159 87 86
f 159 86 160
f 160 86 102
f 160 102 161
f 161 102 113
f 161 113 162
f 162 113 112
f 162 112 163
f 94 84 95
f 95 84 83
f 95 83 97
f 97 83 156
f 97 156 99
f 99 156 157
f 99 157 101
f 101 157 158
f 101 158 134
f 134 158 159
f 134 159 136
f 136 159 160
f 136 160 138
f 138 160 161
f 138 161 140
f 140 161 162
f 140 162 142
f 142 162 163
f 142 163 144
f 164 165 166
f 167 168 169
f 169 168 166
f 169 166 170
f 170 166 165
f 170 165 171
f 172 173 174
f 174 173 175
f 176 164 177
f 177 164 166
f 177 166 178
f 178 166 168
f 178 168 179
f 179 168 180
f 181 182 183
f 183 182 184
f 183 184 185
f 167 186 168
f 168 186 185
f 168 185 180
f 180 185 184
f 172 174 187
f 187 174 188
f 187 188 189
f 173 181 175
f 175 181 183
f 175 183 190
f 190 183 185
f 190 185 191
f 191 185 186
f 192 193 194
f 194 193 195
f 194 195 196
f 197 198 199
f 199 198 200
f 199 200 201
f 201 200 202
f 196 203 194
f 194 203 204
f 194 204 192
f 192 204 205
f 192 205 206
f 206 205 207
f 206 207 208
f 198 209 200
f 200 209 208
f 200 208 202
f 202 208 207
f 210 211 9
f 9 212 210
f 210 212 213
f 210 213 196
f 196 213 214
f 196 214 203
f 209 215 208
f 208 215 216
f 208 216 206
f 206 216 217
f 206 217 192
f 192 217 218
f 192 218 193
f 219 220 221
f 222 7 5
f 223 224 211
f 225 226 227
f 227 226 228
f 227 228 229
f 219 230 231
f 231 230 232
f 231 232 225
f 225 232 233
f 225 233 226
f 234 222 235
f 235 222 5
f 235 5 236
f 236 5 41
f 236 41 237
f 237 41 33
f 237 33 238
f 238 33 26
f 238 26 20
f 220 219 239
f 239 219 231
f 239 231 240
f 240 231 225
f 240 225 241
f 241 225 227
f 241 227 242
f 242 227 229
f 242 229 243
f 211 244 223
f 223 244 245
f 223 245 221
f 221 245 246
f 221 246 219
f 219 246 247
f 219 247 230
f 242 234 241
f 241 234 235
f 241 235 240
f 240 235 236
f 240 236 239
f 239 236 237
f 239 237 220
f 220 237 238
f 220 238 221
f 221 238 20
f 221 20 223
f 223 20 15
f 223 15 224
f 224 15 11
f 224 11 211
f 211 11 9
f 248 249 250
f 250 249 251
f 250 251 252
f 252 251 253
f 252 253 254
f 254 253 255
f 254 255 256
f 256 255 257
f 256 258 254
f 254 258 259
f 254 259 252
f 252 259 260
f 252 260 250
f 187 261 262
f 262 261 263
f 262 263 264
f 265 266 267
f 267 266 268
f 269 270 268
f 268 270 271
f 268 271 267
f 263 272 264
f 264 272 273
f 264 273 274
f 274 273 275
f 274 275 276
f 276 275 277
f 276 277 269
f 269 277 278
f 269 278 270
f 279 248 280
f 280 248 250
f 280 250 281
f 281 250 260
f 187 189 261
f 261 189 282
f 261 282 263
f 263 282 283
f 263 283 272
f 279 262 248
f 248 262 264
f 248 264 249
f 249 264 274
f 249 274 251
f 251 274 276
f 251 276 253
f 253 276 269
f 253 269 255
f 255 269 268
f 255 268 257
f 257 268 266
f 284 285 286
f 287 288 289
f 288 287 290
f 291 290 292
f 292 290 287
f 292 287 201
f 201 287 289
f 293 294 295
f 295 294 296
f 295 296 297
f 297 296 298
f 288 293 289
f 289 293 295
f 289 295 299
f 299 295 300
f 299 300 301
f 301 300 302
f 301 302 303
f 284 286 304
f 304 286 305
f 304 305 306
f 306 307 304
f 304 307 308
f 304 308 302
f 302 308 309
f 302 309 303
f 171 310 311
f 311 310 312
f 313 314 315
f 315 314 316
f 315 316 317
f 316 318 317
f 317 318 319
f 317 319 320
f 320 319 321
f 322 323 324
f 324 323 325
f 324 325 321
f 321 325 326
f 321 326 320
f 327 328 329
f 327 329 330
f 329 331 330
f 330 331 332
f 330 332 322
f 322 332 333
f 322 333 323
f 334 312 335
f 335 312 310
f 335 310 336
f 310 337 336
f 336 337 338
f 336 338 327
f 327 338 339
f 327 339 328
f 340 314 313
f 285 284 341
f 341 284 342
f 341 342 343
f 343 342 344
f 345 346 344
f 344 346 347
f 344 347 343
f 348 349 345
f 345 349 350
f 345 350 346
f 351 352 348
f 348 352 353
f 348 353 349
f 354 355 351
f 351 355 356
f 351 356 352
f 357 358 354
f 354 358 359
f 354 359 355
f 360 361 357
f 357 361 362
f 357 362 358
f 363 364 360
f 360 364 365
f 360 365 361
f 366 367 363
f 363 367 368
f 363 368 364
f 369 370 366
f 366 370 371
f 366 371 367
f 372 373 369
f 369 373 374
f 369 374 370
f 375 376 372
f 372 376 377
f 372 377 373
f 378 379 375
f 375 379 380
f 375 380 376
f 381 382 378
f 378 382 383
f 378 383 379
f 313 384 340
f 340 384 385
f 340 385 381
f 381 385 386
f 381 386 382
f 387 388 389
f 389 390 387
f 387 390 391
f 387 391 392
f 391 393 392
f 392 393 394
f 392 394 395
f 394 396 395
f 395 396 397
f 395 397 398
f 397 399 398
f 398 399 400
f 398 400 401
f 400 402 401
f 401 402 403
f 401 403 404
f 403 405 404
f 404 405 82
f 404 82 406
f 82 42 406
f 406 42 2
f 406 2 407
f 2 1 407
f 407 1 45
f 407 45 408
f 60 409 54
f 54 409 408
f 54 408 49
f 49 408 45
f 60 6 409
f 409 6 7
f 409 7 410
f 7 222 410
f 410 222 234
f 410 234 411
f 234 242 411
f 411 242 243
f 411 243 412
f 243 413 412
f 412 413 414
f 412 414 415
f 414 416 415
f 415 416 417
f 415 417 418
f 418 417 419
f 418 419 420
f 421 422 423
f 423 422 424
f 423 424 425
f 425 424 418
f 425 418 426
f 426 418 420
f 427 422 421
f 421 428 427
f 427 428 429
f 427 429 430
f 429 431 430
f 430 431 432
f 430 432 433
f 433 432 434
f 433 434 435
f 435 436 433
f 433 436 437
f 433 437 438
f 437 439 438
f 438 439 258
f 438 258 440
f 258 256 440
f 440 256 257
f 440 257 441
f 257 266 441
f 441 266 265
f 441 265 442
f 265 443 442
f 442 443 444
f 442 444 445
f 444 446 445
f 445 446 447
f 445 447 448
f 447 449 448
f 448 449 154
f 448 154 450
f 154 145 450
f 450 145 144
f 450 144 451
f 144 163 451
f 451 163 112
f 451 112 452
f 118 453 116
f 116 453 452
f 116 452 114
f 114 452 112
f 118 120 453
f 453 120 155
f 453 155 454
f 155 455 454
f 454 455 456
f 454 456 457
f 456 458 457
f 457 458 459
f 457 459 460
f 389 388 461
f 461 388 462
f 461 462 463
f 463 462 460
f 463 460 464
f 464 460 459
f 465 466 467
f 468 469 470
f 471 472 473
f 472 471 474
f 475 476 477
f 478 479 480
f 475 481 476
f 476 481 482
f 476 482 479
f 479 482 483
f 479 483 480
f 484 485 486
f 486 485 487
f 486 487 488
f 488 487 489
f 490 484 491
f 491 484 486
f 491 486 492
f 492 486 488
f 492 488 493
f 493 488 489
f 474 471 494
f 494 471 495
f 494 495 496
f 490 491 497
f 497 491 492
f 497 492 498
f 498 492 493
f 498 493 499
f 499 493 500
f 499 500 501
f 501 500 502
f 501 502 503
f 503 502 504
f 503 504 505
f 505 504 506
f 505 506 507
f 468 470 508
f 487 496 489
f 489 496 495
f 489 495 493
f 493 495 471
f 493 471 500
f 500 471 473
f 500 473 502
f 502 473 509
f 502 509 504
f 504 509 508
f 504 508 506
f 506 508 470
f 510 511 507
f 465 467 512
f 507 506 510
f 510 506 470
f 510 470 467
f 467 470 469
f 467 469 512
f 513 511 514
f 514 511 510
f 514 510 515
f 515 510 467
f 515 467 516
f 516 467 466
f 516 466 517
f 199 201 478
f 478 201 289
f 478 289 479
f 479 289 299
f 479 299 476
f 476 299 301
f 476 301 477
f 197 199 518
f 518 199 478
f 518 478 519
f 519 478 480
f 301 303 477
f 477 303 309
f 477 309 516
f 516 309 308
f 516 308 515
f 515 308 307
f 515 307 514
f 514 307 306
f 514 306 513
f 513 306 305
f 513 305 286
f 517 520 516
f 516 520 521
f 516 521 477
f 477 521 522
f 477 522 475
f 332 331 523
f 524 525 526
f 310 171 165
f 525 527 526
f 526 527 338
f 526 338 337
f 337 310 526
f 526 310 165
f 526 165 524
f 524 165 164
f 524 164 176
f 523 528 529
f 331 530 523
f 523 530 531
f 523 531 528
f 333 332 532
f 532 332 523
f 532 523 533
f 533 523 529
f 534 527 535
f 535 527 525
f 535 525 536
f 536 525 524
f 536 524 537
f 537 524 176
f 333 532 323
f 323 532 538
f 323 538 325
f 533 539 532
f 532 539 540
f 532 540 538
f 538 540 541
f 538 541 542
f 542 543 538
f 538 543 544
f 538 544 325
f 331 329 530
f 530 329 328
f 530 328 527
f 527 328 339
f 527 339 338
f 534 545 527
f 527 545 546
f 527 546 530
f 530 546 547
f 530 547 531
f 548 549 550
f 550 549 551
f 550 551 552
f 552 551 553
f 554 555 556
f 556 555 557
f 556 557 558
f 558 559 556
f 556 559 560
f 556 560 551
f 551 560 561
f 551 561 553
f 562 563 564
f 564 563 565
f 564 565 556
f 556 565 566
f 556 566 554
f 567 568 569
f 567 569 570
f 569 571 570
f 570 571 572
f 570 572 564
f 564 572 573
f 564 573 562
f 574 575 576
f 576 575 567
f 567 575 577
f 567 577 568
f 578 579 580
f 580 579 581
f 580 581 576
f 576 581 582
f 576 582 574
f 583 584 585
f 585 584 586
f 585 586 580
f 580 586 587
f 580 587 578
f 588 589 590
f 589 591 590
f 590 591 592
f 590 592 585
f 585 592 593
f 585 593 583
f 594 595 284
f 314 596 316
f 316 596 597
f 316 597 318
f 318 597 598
f 599 321 598
f 598 321 319
f 598 319 318
f 600 322 599
f 599 322 324
f 599 324 321
f 601 327 600
f 600 327 330
f 600 330 322
f 549 334 551
f 551 334 335
f 551 335 601
f 601 335 336
f 601 336 327
f 298 588 297
f 297 588 590
f 297 590 295
f 295 590 602
f 284 304 594
f 594 304 302
f 594 302 602
f 602 302 300
f 602 300 295
f 342 284 595
f 603 596 314
f 595 604 342
f 342 604 605
f 342 605 344
f 344 605 606
f 344 606 345
f 345 606 607
f 345 607 348
f 348 607 608
f 348 608 351
f 351 608 609
f 351 609 354
f 354 609 610
f 354 610 357
f 357 610 611
f 357 611 360
f 360 611 612
f 360 612 363
f 363 612 613
f 363 613 366
f 366 613 614
f 366 614 369
f 369 614 615
f 369 615 372
f 372 615 616
f 372 616 375
f 375 616 617
f 375 617 378
f 378 617 618
f 378 618 381
f 381 618 603
f 381 603 340
f 340 603 314
f 619 490 497
f 497 498 619
f 619 498 499
f 619 499 501
f 501 503 619
f 619 503 505
f 619 505 507
f 507 511 619
f 619 511 513
f 619 513 285
f 285 513 286
f 544 543 620
f 619 285 341
f 619 341 621
f 621 341 343
f 621 343 622
f 622 343 347
f 622 347 623
f 623 347 346
f 623 346 624
f 624 346 350
f 624 350 625
f 625 350 349
f 625 349 626
f 626 349 353
f 626 353 627
f 353 352 627
f 627 352 356
f 627 356 628
f 628 356 355
f 628 355 629
f 629 355 359
f 629 359 630
f 630 359 358
f 630 358 631
f 631 358 362
f 631 362 632
f 632 362 361
f 632 361 633
f 633 361 365
f 633 365 634
f 365 364 634
f 634 364 368
f 634 368 635
f 635 368 367
f 635 367 636
f 636 367 371
f 636 371 637
f 637 371 370
f 637 370 638
f 638 370 374
f 638 374 639
f 639 374 373
f 639 373 640
f 640 373 377
f 640 377 641
f 377 376 641
f 641 376 380
f 641 380 642
f 642 380 379
f 642 379 643
f 643 379 383
f 643 383 644
f 644 383 382
f 644 382 645
f 645 382 386
f 645 386 646
f 646 386 385
f 646 385 647
f 647 385 384
f 647 384 648
f 648 384 313
f 648 313 649
f 649 313 315
f 649 315 650
f 650 315 317
f 650 317 620
f 620 317 320
f 620 320 544
f 544 320 326
f 544 326 325
f 651 652 653
f 654 655 656
f 657 658 659
f 592 591 660
f 660 591 589
f 290 291 202
f 202 291 292
f 202 292 201
f 657 294 293
f 294 657 296
f 296 657 659
f 296 659 298
f 298 659 661
f 298 661 588
f 588 661 662
f 588 662 589
f 589 662 663
f 589 663 660
f 204 664 665
f 658 654 659
f 659 654 656
f 659 656 661
f 661 656 666
f 661 666 662
f 662 666 667
f 662 667 663
f 663 667 668
f 663 668 660
f 660 668 669
f 660 669 592
f 592 669 670
f 204 665 205
f 205 665 671
f 205 671 207
f 207 671 672
f 207 672 202
f 202 672 288
f 202 288 290
f 12 673 8
f 8 673 212
f 8 212 9
f 674 652 675
f 675 652 651
f 675 651 664
f 674 673 652
f 652 673 12
f 652 12 653
f 653 12 16
f 653 16 676
f 676 16 21
f 676 21 677
f 677 21 27
f 677 27 678
f 678 27 34
f 678 34 679
f 679 34 73
f 679 73 680
f 680 73 74
f 664 204 675
f 675 204 203
f 675 203 674
f 674 203 214
f 674 214 673
f 673 214 213
f 673 213 212
f 680 670 679
f 679 670 669
f 679 669 678
f 678 669 668
f 678 668 677
f 677 668 667
f 677 667 676
f 676 667 666
f 676 666 653
f 653 666 656
f 653 656 651
f 651 656 655
f 651 655 664
f 664 655 654
f 664 654 665
f 665 654 658
f 665 658 671
f 671 658 657
f 671 657 672
f 672 657 293
f 672 293 288
f 681 682 683
f 684 685 686
f 149 150 687
f 559 558 688
f 689 122 121
f 690 132 122
f 554 691 555
f 555 691 692
f 555 692 557
f 693 560 559
f 553 561 694
f 694 561 560
f 552 695 550
f 550 695 548
f 560 693 694
f 694 693 696
f 694 696 697
f 697 696 698
f 697 698 699
f 558 557 688
f 688 557 692
f 688 692 700
f 700 692 701
f 148 149 702
f 702 149 687
f 702 687 698
f 698 687 703
f 698 703 699
f 704 705 706
f 706 705 707
f 706 707 708
f 708 707 709
f 559 688 693
f 693 688 700
f 693 700 696
f 696 700 701
f 696 701 698
f 698 701 710
f 698 710 702
f 702 710 147
f 702 147 148
f 121 711 689
f 689 711 712
f 689 712 713
f 712 714 713
f 713 714 715
f 713 715 716
f 716 717 713
f 713 717 690
f 713 690 689
f 689 690 122
f 681 718 684
f 718 681 719
f 684 686 681
f 681 686 720
f 681 720 682
f 715 721 716
f 716 721 722
f 716 722 683
f 683 722 723
f 683 723 681
f 681 723 724
f 681 724 719
f 705 89 91
f 705 91 707
f 707 91 93
f 707 93 709
f 554 704 691
f 691 704 706
f 691 706 692
f 692 706 708
f 692 708 701
f 701 708 709
f 701 709 710
f 710 709 93
f 710 93 147
f 150 132 687
f 687 132 690
f 687 690 703
f 703 690 717
f 703 717 699
f 699 717 716
f 699 716 697
f 697 716 683
f 697 683 694
f 694 683 682
f 694 682 553
f 553 682 720
f 553 720 552
f 552 720 686
f 552 686 695
f 695 686 685
f 80 81 725
f 77 78 726
f 455 155 111
f 574 727 728
f 584 729 730
f 583 593 731
f 732 578 733
f 733 578 587
f 733 587 586
f 727 574 734
f 734 574 582
f 734 582 581
f 735 568 736
f 736 568 577
f 736 577 728
f 728 577 575
f 728 575 574
f 737 573 738
f 738 573 572
f 738 572 739
f 739 572 571
f 739 571 735
f 735 571 569
f 735 569 568
f 566 565 740
f 740 565 563
f 740 563 737
f 737 563 562
f 737 562 573
f 554 566 704
f 704 566 740
f 704 740 705
f 90 89 741
f 455 742 456
f 456 742 743
f 456 743 458
f 458 743 744
f 458 744 459
f 459 744 745
f 459 745 464
f 464 745 746
f 464 746 463
f 463 746 461
f 89 705 741
f 741 705 740
f 741 740 747
f 747 740 737
f 747 737 748
f 748 737 738
f 748 738 749
f 749 738 739
f 749 739 750
f 750 739 735
f 750 735 751
f 751 735 736
f 751 736 752
f 752 736 728
f 752 728 753
f 753 728 727
f 753 727 754
f 754 727 734
f 754 734 755
f 94 90 756
f 756 90 741
f 756 741 757
f 757 741 747
f 757 747 758
f 758 747 748
f 758 748 759
f 759 748 749
f 759 749 760
f 760 749 750
f 760 750 761
f 761 750 751
f 761 751 762
f 762 751 752
f 762 752 763
f 763 752 753
f 763 753 764
f 764 753 754
f 764 754 765
f 765 754 755
f 765 755 766
f 84 94 767
f 767 94 756
f 767 756 768
f 768 756 757
f 768 757 769
f 769 757 758
f 769 758 770
f 770 758 759
f 770 759 771
f 771 759 760
f 771 760 772
f 772 760 761
f 772 761 773
f 773 761 762
f 773 762 774
f 774 762 763
f 774 763 775
f 775 763 764
f 775 764 776
f 776 764 765
f 776 765 777
f 777 765 766
f 777 766 778
f 107 84 779
f 779 84 767
f 779 767 780
f 780 767 768
f 780 768 781
f 781 768 769
f 781 769 782
f 782 769 770
f 782 770 783
f 783 770 771
f 783 771 784
f 784 771 772
f 784 772 785
f 785 772 773
f 785 773 786
f 786 773 774
f 786 774 787
f 787 774 775
f 787 775 788
f 788 775 776
f 788 776 789
f 789 776 777
f 789 777 790
f 790 777 778
f 790 778 791
f 111 107 792
f 792 107 779
f 792 779 793
f 793 779 780
f 793 780 794
f 794 780 781
f 794 781 795
f 795 781 782
f 795 782 796
f 796 782 783
f 796 783 797
f 797 783 784
f 797 784 798
f 798 784 785
f 798 785 799
f 799 785 786
f 799 786 800
f 800 786 787
f 800 787 801
f 801 787 788
f 801 788 802
f 802 788 789
f 802 789 803
f 803 789 790
f 803 790 804
f 804 790 791
f 804 791 805
f 461 746 389
f 389 746 806
f 389 806 390
f 390 806 807
f 390 807 391
f 391 807 808
f 391 808 393
f 393 808 809
f 393 809 394
f 394 809 810
f 394 810 396
f 396 810 811
f 396 811 397
f 397 811 812
f 397 812 399
f 399 812 813
f 399 813 400
f 455 111 742
f 742 111 792
f 742 792 743
f 743 792 793
f 743 793 744
f 744 793 794
f 744 794 745
f 745 794 795
f 745 795 746
f 746 795 796
f 746 796 806
f 806 796 797
f 806 797 807
f 807 797 798
f 807 798 808
f 808 798 799
f 808 799 809
f 809 799 800
f 809 800 810
f 810 800 801
f 810 801 811
f 811 801 802
f 811 802 812
f 812 802 803
f 812 803 813
f 813 803 804
f 813 804 814
f 814 804 805
f 814 805 725
f 815 729 731
f 731 729 584
f 731 584 583
f 593 592 731
f 731 592 670
f 731 670 815
f 815 670 680
f 815 680 74
f 730 729 816
f 816 729 815
f 816 815 817
f 817 815 74
f 817 74 75
f 586 584 733
f 733 584 730
f 733 730 818
f 818 730 816
f 818 816 819
f 819 816 817
f 819 817 820
f 820 817 75
f 820 75 76
f 732 733 821
f 821 733 818
f 821 818 822
f 822 818 819
f 822 819 823
f 823 819 820
f 823 820 726
f 726 820 76
f 726 76 77
f 579 578 824
f 824 578 732
f 824 732 825
f 825 732 821
f 825 821 826
f 826 821 822
f 826 822 827
f 827 822 823
f 827 823 828
f 828 823 726
f 828 726 829
f 829 726 78
f 829 78 79
f 581 579 734
f 734 579 824
f 734 824 755
f 755 824 825
f 755 825 766
f 766 825 826
f 766 826 778
f 778 826 827
f 778 827 791
f 791 827 828
f 791 828 805
f 805 828 829
f 805 829 725
f 725 829 79
f 725 79 80
f 400 813 402
f 402 813 814
f 402 814 403
f 403 814 725
f 403 725 405
f 405 725 81
f 405 81 82
f 830 831 722
f 832 833 834
f 449 447 835
f 548 695 832
f 832 695 833
f 833 695 685
f 833 685 684
f 312 334 549
f 836 311 312
f 171 311 170
f 170 311 836
f 170 836 169
f 123 124 837
f 837 124 838
f 839 711 837
f 837 711 121
f 837 121 123
f 124 126 838
f 838 126 127
f 838 127 840
f 154 449 153
f 153 449 835
f 153 835 152
f 152 835 841
f 152 841 151
f 151 841 842
f 151 842 128
f 128 842 840
f 128 840 129
f 129 840 127
f 843 844 283
f 845 267 271
f 845 271 846
f 271 270 846
f 846 270 278
f 846 278 847
f 847 278 277
f 847 277 848
f 848 277 275
f 848 275 849
f 849 275 273
f 849 273 844
f 844 273 272
f 844 272 283
f 191 186 834
f 834 186 167
f 167 169 834
f 834 169 836
f 834 836 832
f 832 836 312
f 832 312 548
f 548 312 549
f 850 174 851
f 851 174 175
f 851 175 852
f 852 175 190
f 853 845 854
f 854 845 846
f 854 846 855
f 855 846 847
f 855 847 856
f 856 847 848
f 856 848 857
f 857 848 849
f 857 849 858
f 858 849 844
f 858 844 859
f 859 844 843
f 859 843 860
f 860 843 850
f 860 850 861
f 861 850 851
f 861 851 862
f 862 851 852
f 191 834 863
f 863 834 833
f 863 833 864
f 864 833 684
f 864 684 718
f 722 721 830
f 830 721 715
f 830 715 865
f 865 715 714
f 865 714 839
f 839 714 712
f 839 712 711
f 718 719 864
f 864 719 724
f 864 724 831
f 831 724 723
f 831 723 722
f 446 444 853
f 853 444 443
f 853 443 845
f 845 443 265
f 845 265 267
f 283 282 843
f 843 282 189
f 843 189 850
f 850 189 188
f 850 188 174
f 447 446 835
f 835 446 853
f 835 853 841
f 841 853 854
f 841 854 842
f 842 854 855
f 842 855 840
f 840 855 856
f 840 856 838
f 838 856 857
f 838 857 837
f 837 857 858
f 837 858 839
f 839 858 859
f 839 859 865
f 865 859 860
f 865 860 830
f 830 860 861
f 830 861 831
f 831 861 862
f 831 862 864
f 864 862 852
f 864 852 863
f 863 852 190
f 863 190 191
f 413 243 229
f 280 281 866
f 866 281 260
f 867 868 869
f 245 870 246
f 246 870 871
f 246 871 247
f 245 244 870
f 870 244 211
f 870 211 872
f 873 874 875
f 875 874 876
f 873 875 877
f 877 875 878
f 877 878 879
f 879 878 880
f 879 880 881
f 881 880 882
f 881 882 883
f 884 882 885
f 885 882 880
f 885 880 886
f 886 880 878
f 886 878 887
f 887 878 875
f 887 875 888
f 888 875 876
f 888 876 889
f 889 876 890
f 889 890 891
f 891 890 892
f 891 892 893
f 893 892 894
f 893 894 895
f 895 894 869
f 895 869 896
f 896 869 868
f 896 868 897
f 898 899 900
f 900 899 262
f 900 262 279
f 901 902 903
f 903 902 898
f 903 898 904
f 904 898 900
f 904 900 905
f 905 900 279
f 906 435 907
f 907 435 434
f 907 434 908
f 259 258 909
f 909 258 439
f 909 439 910
f 910 439 437
f 910 437 906
f 906 437 436
f 906 436 435
f 414 413 911
f 413 229 911
f 911 229 228
f 911 228 912
f 913 425 914
f 914 425 426
f 914 426 915
f 416 916 417
f 417 916 917
f 417 917 419
f 419 917 915
f 419 915 420
f 420 915 426
f 434 432 908
f 908 432 431
f 908 431 918
f 918 431 429
f 918 429 919
f 919 429 428
f 919 428 920
f 920 428 421
f 920 421 913
f 913 421 423
f 913 423 425
f 228 226 912
f 912 226 233
f 912 233 921
f 921 233 232
f 921 232 871
f 871 232 230
f 871 230 247
f 414 911 922
f 922 911 912
f 922 912 923
f 923 912 921
f 923 921 924
f 924 921 871
f 924 871 884
f 884 871 870
f 884 870 882
f 882 870 872
f 882 872 883
f 925 926 927
f 927 926 928
f 927 928 929
f 929 928 930
f 929 930 931
f 931 930 932
f 931 932 933
f 933 932 934
f 933 934 935
f 935 934 936
f 935 936 937
f 937 936 938
f 937 938 939
f 939 938 940
f 939 940 941
f 941 940 942
f 941 942 943
f 943 942 944
f 943 944 945
f 945 944 946
f 945 946 947
f 947 946 948
f 947 948 949
f 260 259 949
f 949 259 909
f 949 909 947
f 947 909 910
f 947 910 945
f 945 910 906
f 945 906 943
f 943 906 907
f 943 907 941
f 941 907 908
f 941 908 939
f 939 908 918
f 939 918 937
f 937 918 919
f 937 919 935
f 935 919 920
f 935 920 933
f 933 920 913
f 933 913 931
f 931 913 914
f 931 914 929
f 929 914 915
f 929 915 927
f 927 915 917
f 927 917 925
f 925 917 916
f 187 262 950
f 950 262 899
f 950 899 951
f 951 899 898
f 951 898 952
f 952 898 902
f 874 953 876
f 876 953 954
f 876 954 890
f 890 954 955
f 890 955 892
f 892 955 956
f 892 956 894
f 894 956 957
f 894 957 869
f 957 958 869
f 869 958 901
f 869 901 867
f 867 901 903
f 867 903 868
f 868 903 904
f 868 904 897
f 897 904 905
f 897 905 866
f 866 905 279
f 866 279 280
f 260 949 866
f 866 949 948
f 866 948 897
f 897 948 946
f 897 946 896
f 896 946 944
f 896 944 895
f 895 944 942
f 895 942 893
f 893 942 940
f 893 940 891
f 891 940 938
f 891 938 889
f 889 938 936
f 889 936 888
f 888 936 934
f 888 934 887
f 887 934 932
f 887 932 886
f 886 932 930
f 886 930 885
f 885 930 928
f 885 928 884
f 884 928 926
f 884 926 924
f 924 926 925
f 924 925 923
f 923 925 916
f 923 916 922
f 922 916 416
f 922 416 414
f 872 211 210
f 639 640 959
f 641 642 960
f 643 644 961
f 645 646 962
f 647 648 963
f 964 541 540
f 649 650 965
f 966 967 968
f 484 490 619
f 969 970 971
f 972 973 974
f 975 976 977
f 177 178 978
f 978 178 179
f 978 179 180
f 184 182 979
f 182 181 979
f 979 181 173
f 979 173 172
f 980 981 982
f 982 981 983
f 982 983 984
f 984 983 985
f 984 985 986
f 986 985 987
f 986 987 988
f 989 980 990
f 990 980 982
f 990 982 991
f 991 982 984
f 991 984 992
f 992 984 986
f 992 986 993
f 993 986 988
f 993 988 994
f 994 988 176
f 995 996 989
f 989 996 997
f 989 997 980
f 980 997 998
f 980 998 981
f 180 184 978
f 978 184 979
f 978 979 999
f 999 979 1000
f 999 1000 1001
f 1001 1000 1002
f 1001 1002 1003
f 1003 1002 1004
f 1003 1004 1005
f 1005 1004 1006
f 1005 1006 1007
f 1007 1006 1008
f 1007 1008 976
f 976 1008 1009
f 976 1009 977
f 176 177 994
f 994 177 978
f 994 978 993
f 993 978 999
f 993 999 992
f 992 999 1001
f 992 1001 991
f 991 1001 1003
f 991 1003 990
f 990 1003 1005
f 990 1005 989
f 989 1005 1007
f 989 1007 995
f 995 1007 976
f 1010 1011 1012
f 1013 1014 1015
f 209 198 1016
f 1016 198 1014
f 1016 1014 1017
f 1017 1014 1013
f 1017 1013 1018
f 883 1019 881
f 881 1019 1020
f 881 1020 879
f 879 1020 1021
f 879 1021 877
f 877 1021 1022
f 877 1022 873
f 193 218 1019
f 1019 218 1023
f 1019 1023 1020
f 1020 1023 1024
f 1020 1024 1021
f 1021 1024 1025
f 1021 1025 1022
f 1022 1025 1026
f 218 217 1023
f 1023 217 216
f 1023 216 215
f 215 209 1023
f 1023 209 1016
f 1023 1016 1024
f 1024 1016 1017
f 1024 1017 1025
f 1025 1017 1018
f 1025 1018 1026
f 1027 970 1028
f 1028 970 969
f 1028 969 1029
f 1030 1031 1032
f 1032 1031 1033
f 1032 1033 1034
f 1034 1033 1035
f 1034 1035 1036
f 1036 1035 1037
f 1036 1037 1038
f 1038 1037 1039
f 1038 1039 1012
f 1012 1039 1040
f 1012 1040 1010
f 1027 972 970
f 970 972 974
f 970 974 971
f 971 974 1041
f 971 1041 1042
f 1042 1041 1043
f 1042 1043 1044
f 1044 1043 1045
f 1044 1045 1046
f 1046 1045 1047
f 1046 1047 1048
f 1048 1047 1049
f 1048 1049 1050
f 1011 1050 1012
f 1012 1050 1049
f 1012 1049 1038
f 1038 1049 1047
f 1038 1047 1036
f 1036 1047 1045
f 1036 1045 1034
f 1034 1045 1043
f 1034 1043 1032
f 1032 1043 1041
f 1032 1041 1030
f 1030 1041 974
f 1030 974 1051
f 1051 974 973
f 1052 1053 1054
f 1054 1053 1055
f 1054 1055 1056
f 622 623 1057
f 1057 623 1058
f 1057 1058 1059
f 1059 1058 1060
f 1059 1060 1061
f 1061 1060 1062
f 1061 1062 1063
f 469 468 1064
f 1064 468 508
f 621 509 473
f 473 472 621
f 621 472 474
f 621 474 494
f 494 496 621
f 621 496 487
f 621 487 619
f 619 487 485
f 619 485 484
f 967 966 1065
f 1065 966 1066
f 1065 1066 1067
f 1067 1066 1064
f 1067 1064 621
f 621 1064 508
f 621 508 509
f 1068 517 466
f 1069 465 512
f 968 1070 966
f 966 1070 1071
f 966 1071 1066
f 1066 1071 1069
f 1066 1069 1064
f 1064 1069 512
f 1064 512 469
f 968 1072 1070
f 1070 1072 1073
f 1070 1073 1071
f 1071 1073 1068
f 1071 1068 1069
f 1069 1068 466
f 1069 466 465
f 1074 1075 1076
f 1076 1075 1077
f 1076 1077 1078
f 1078 1077 1079
f 1074 483 482
f 1074 482 1075
f 1075 482 481
f 1075 481 1077
f 977 1080 975
f 975 1080 1081
f 975 1081 1082
f 1082 1081 1083
f 1082 1083 1084
f 1084 1083 1085
f 1084 1085 1086
f 1086 1085 1087
f 1086 1087 1088
f 1088 1087 1089
f 1088 1089 1090
f 1090 1089 1091
f 1090 1091 1092
f 1092 1091 1072
f 1092 1072 1063
f 1063 1072 968
f 1063 968 1061
f 1061 968 967
f 1061 967 1059
f 1059 967 1065
f 1059 1065 1057
f 1057 1065 1067
f 1057 1067 622
f 622 1067 621
f 481 475 1077
f 1077 475 522
f 1077 522 1079
f 1079 522 521
f 1079 521 520
f 874 873 1080
f 1080 873 1022
f 1080 1022 1081
f 1081 1022 1026
f 1081 1026 1083
f 1083 1026 1018
f 1083 1018 1085
f 1085 1018 1013
f 1085 1013 1087
f 1087 1013 1015
f 1087 1015 1089
f 1089 1015 1074
f 1089 1074 1091
f 1091 1074 1076
f 1091 1076 1072
f 1072 1076 1078
f 1072 1078 1073
f 1073 1078 1079
f 1073 1079 1068
f 1068 1079 520
f 1068 520 517
f 1011 1093 1050
f 1050 1093 1094
f 1050 1094 1048
f 1048 1094 1095
f 1048 1095 1046
f 1046 1095 1096
f 1046 1096 1044
f 1044 1096 1097
f 1044 1097 1042
f 1042 1097 1098
f 1042 1098 971
f 971 1098 1056
f 971 1056 969
f 969 1056 1055
f 969 1055 1029
f 1029 1055 1053
f 541 964 542
f 542 964 620
f 542 620 543
f 539 1099 540
f 540 1099 1100
f 540 1100 964
f 539 533 1099
f 1099 533 529
f 1099 529 1101
f 1101 529 528
f 1102 1103 1104
f 1104 1103 1105
f 1104 1105 1106
f 1106 1105 962
f 1106 962 1107
f 1107 962 646
f 1107 646 647
f 637 1108 636
f 636 1108 1109
f 636 1109 635
f 635 1109 1110
f 635 1110 634
f 634 1110 1111
f 634 1111 633
f 633 1111 1112
f 633 1112 632
f 632 1112 1113
f 632 1113 631
f 631 1113 1114
f 631 1114 630
f 630 1114 1115
f 630 1115 629
f 629 1115 1116
f 629 1116 628
f 628 1116 1117
f 628 1117 627
f 627 1117 1118
f 627 1118 626
f 626 1118 1119
f 626 1119 625
f 625 1119 1120
f 625 1120 624
f 1121 1122 1123
f 1123 1122 1124
f 1123 1124 1125
f 1125 1124 960
f 1125 960 1126
f 1126 960 642
f 1126 642 643
f 1127 1128 1129
f 1129 1128 959
f 1129 959 1130
f 1130 959 640
f 1130 640 641
f 1131 1132 1133
f 1133 1132 1134
f 1133 1134 1135
f 1135 1134 638
f 1135 638 639
f 1051 1136 1030
f 1030 1136 1137
f 1030 1137 1031
f 1031 1137 1138
f 1031 1138 1139
f 1108 1139 1109
f 1109 1139 1138
f 1109 1138 1110
f 1110 1138 1137
f 1110 1137 1111
f 1111 1137 1136
f 1111 1136 1112
f 1112 1136 1051
f 1112 1051 1113
f 1113 1051 973
f 1113 973 1114
f 1114 973 972
f 1114 972 1115
f 1115 972 1027
f 1115 1027 1116
f 1116 1027 1028
f 1116 1028 1117
f 1117 1028 1029
f 1117 1029 1118
f 1118 1029 1053
f 1118 1053 1119
f 1119 1053 1052
f 1119 1052 1120
f 1140 1141 1142
f 1142 1141 1143
f 1142 1143 1144
f 1144 1143 961
f 1144 961 1145
f 1145 961 644
f 1145 644 645
f 528 531 1101
f 1101 531 547
f 1101 547 1146
f 1146 547 1147
f 1148 1149 1150
f 1150 1149 1151
f 1150 1151 1152
f 1152 1151 1153
f 1152 1153 1154
f 1154 1153 963
f 1154 963 1155
f 1155 963 648
f 1155 648 649
f 547 546 1147
f 1147 546 545
f 1147 545 1156
f 545 534 1156
f 1156 534 535
f 1156 535 987
f 987 535 536
f 987 536 988
f 988 536 537
f 988 537 176
f 649 965 1155
f 1155 965 1157
f 1155 1157 1154
f 1154 1157 1158
f 1154 1158 1152
f 1152 1158 1159
f 1152 1159 1150
f 1150 1159 1160
f 1150 1160 1148
f 1148 1160 1161
f 1148 1161 1162
f 1162 1161 1163
f 1162 1163 1164
f 647 963 1107
f 1107 963 1153
f 1107 1153 1106
f 1106 1153 1151
f 1106 1151 1104
f 1104 1151 1149
f 1104 1149 1102
f 1102 1149 1148
f 1102 1148 1165
f 1165 1148 1162
f 1165 1162 1166
f 1166 1162 1164
f 1166 1164 1167
f 645 962 1145
f 1145 962 1105
f 1145 1105 1144
f 1144 1105 1103
f 1144 1103 1142
f 1142 1103 1102
f 1142 1102 1140
f 1140 1102 1165
f 1140 1165 1168
f 1168 1165 1166
f 1168 1166 1169
f 1169 1166 1167
f 1169 1167 1170
f 643 961 1126
f 1126 961 1143
f 1126 1143 1125
f 1125 1143 1141
f 1125 1141 1123
f 1123 1141 1140
f 1123 1140 1121
f 1121 1140 1168
f 1121 1168 1171
f 1171 1168 1169
f 1171 1169 1172
f 1172 1169 1170
f 1172 1170 1173
f 641 960 1130
f 1130 960 1124
f 1130 1124 1129
f 1129 1124 1122
f 1129 1122 1127
f 1127 1122 1121
f 1127 1121 1174
f 1174 1121 1171
f 1174 1171 1175
f 1175 1171 1172
f 1175 1172 1176
f 1176 1172 1173
f 1176 1173 1177
f 639 959 1135
f 1135 959 1128
f 1135 1128 1133
f 1133 1128 1127
f 1133 1127 1131
f 1131 1127 1174
f 1131 1174 1178
f 1178 1174 1175
f 1178 1175 1179
f 1179 1175 1176
f 1179 1176 1180
f 1180 1176 1177
f 1180 1177 1181
f 996 1181 997
f 997 1181 1177
f 997 1177 998
f 998 1177 1173
f 998 1173 981
f 981 1173 1170
f 981 1170 983
f 983 1170 1167
f 983 1167 985
f 985 1167 1164
f 985 1164 987
f 987 1164 1163
f 987 1163 1156
f 1156 1163 1161
f 1156 1161 1147
f 1147 1161 1160
f 1147 1160 1146
f 1146 1160 1159
f 1146 1159 1101
f 1101 1159 1158
f 1101 1158 1099
f 1099 1158 1157
f 1099 1157 1100
f 1100 1157 965
f 1100 965 964
f 964 965 650
f 964 650 620
f 872 210 883
f 883 210 196
f 883 196 1019
f 1019 196 195
f 1019 195 193
f 187 950 172
f 172 950 951
f 172 951 979
f 979 951 952
f 979 952 1000
f 1000 952 902
f 1000 902 1002
f 1002 902 901
f 1002 901 1004
f 1004 901 958
f 1004 958 1006
f 1006 958 957
f 1006 957 1008
f 1008 957 956
f 1008 956 1009
f 1009 956 955
f 1009 955 977
f 977 955 954
f 977 954 1080
f 1080 954 953
f 1080 953 874
f 198 197 1014
f 1014 197 518
f 1014 518 1015
f 1015 518 519
f 1015 519 1074
f 1074 519 480
f 1074 480 483
f 623 624 1058
f 1058 624 1120
f 1058 1120 1060
f 1060 1120 1052
f 1060 1052 1062
f 1062 1052 1054
f 1062 1054 1063
f 1063 1054 1056
f 1063 1056 1092
f 1092 1056 1098
f 1092 1098 1090
f 1090 1098 1097
f 1090 1097 1088
f 1088 1097 1096
f 1088 1096 1086
f 1086 1096 1095
f 1086 1095 1084
f 1084 1095 1094
f 1084 1094 1082
f 1082 1094 1093
f 1082 1093 975
f 975 1093 1011
f 975 1011 976
f 976 1011 1010
f 976 1010 995
f 995 1010 1040
f 995 1040 996
f 996 1040 1039
f 996 1039 1181
f 1181 1039 1037
f 1181 1037 1180
f 1180 1037 1035
f 1180 1035 1179
f 1179 1035 1033
f 1179 1033 1178
f 1178 1033 1031
f 1178 1031 1131
f 1131 1031 1139
f 1131 1139 1132
f 1132 1139 1108
f 1132 1108 1134
f 1134 1108 637
f 1134 637 638

