# https://github.com/mikedh/trimesh
mtllib mtl_foot
usemtl mtl_foot
v -0.01847260 -0.02477041 -0.00575000
v -0.01340749 -0.02782270 -0.00574880
v -0.01834597 -0.03406680 -0.00575052
v -0.00817325 -0.03781711 -0.00574916
v -0.00140000 -0.02795000 -0.00575000
v -0.00140141 -0.03857281 -0.00575035
v -0.00900128 0.03762080 -0.00574979
v -0.00140201 0.03857369 -0.00575029
v -0.00140000 0.02795000 -0.00575000
v -0.01337509 0.02779984 -0.00574925
v -0.01615273 0.03505780 -0.00575000
v -0.02362220 0.03064266 -0.00575004
v -0.01847260 0.02477041 -0.00575000
v -0.02347045 0.02022646 -0.00574955
v -0.02716706 -0.02755084 -0.00575049
v -0.02401889 -0.01957192 -0.00574947
v -0.03380602 -0.01882097 -0.00575046
v -0.02761896 -0.01385653 -0.00575000
v -0.03024516 -0.00672288 -0.00574947
v -0.03772895 -0.00857800 -0.00575041
v -0.03085434 0.00282433 -0.00574947
v -0.03860000 -0.00000000 -0.00575000
v -0.03820941 0.00547733 -0.00575000
v -0.02852196 0.01210226 -0.00574947
v -0.03613218 0.01383941 -0.00575044
v -0.03099784 0.02312290 -0.00574966
v -0.00607688 0.03853321 -0.00535267
v -0.00600289 0.03854485 0.00535236
v -0.00139472 0.03897630 -0.00534089
v -0.00139815 0.03897628 0.00534558
v -0.01142585 0.03729752 -0.00535381
v -0.01059527 0.03752455 -0.00319140
v -0.00650010 0.03842343 -0.00184539
v -0.00649990 0.03842697 0.00184713
v -0.01007739 0.03767244 0.00304000
v -0.01142839 0.03729667 0.00535277
v -0.02226266 0.03199694 -0.00407625
v -0.01932306 0.03384217 -0.00457560
v -0.02135503 0.03264099 -0.00535339
v -0.01654896 0.03532184 -0.00535455
v -0.01513175 0.03597713 -0.00431504
v -0.02374998 0.03092183 0.00332436
v -0.02572898 0.02931131 0.00535691
v -0.02222388 0.03203007 0.00408902
v -0.02137850 0.03262419 0.00535432
v -0.02486245 0.03003491 0.00218494
v -0.02551340 0.02948425 0.00047573
v -0.02576213 0.02928471 -0.00535456
v -0.02535710 0.02961767 -0.00108821
v -0.02406033 0.03067525 -0.00307507
v -0.02488960 0.03001027 -0.00211713
v -0.01658622 0.03530572 0.00535255
v -0.01787701 0.03467852 0.00464094
v -0.01412829 0.03634989 0.00409992
v -0.02962896 0.02536790 0.00535135
v -0.02964686 0.02534692 -0.00535212
v -0.03291218 0.02093126 0.00535109
v -0.03292868 0.02090507 -0.00535080
v -0.03553611 0.01607592 0.00535083
v -0.03554555 0.01605479 -0.00535061
v -0.03744837 0.01089902 0.00535056
v -0.03745260 0.01088425 -0.00535042
v -0.03861140 0.00550096 0.00535005
v -0.03861111 0.00550023 -0.00535043
v -0.03861140 -0.00550096 -0.00535005
v -0.03900000 -0.00000000 0.00535000
v -0.03900000 -0.00000000 -0.00535000
v -0.00139815 -0.03897628 -0.00534558
v -0.00139472 -0.03897630 0.00534089
v -0.00600770 -0.03854496 -0.00535131
v -0.00604405 -0.03854002 0.00535038
v -0.01138627 -0.03731009 -0.00535228
v -0.01142667 -0.03729777 0.00535298
v -0.01653861 -0.03532841 -0.00535206
v -0.01657260 -0.03531250 0.00535263
v -0.02135944 -0.03263934 -0.00535183
v -0.02138687 -0.03262139 0.00535228
v -0.02575221 -0.02929682 -0.00535159
v -0.02577329 -0.02927829 0.00535193
v -0.02962896 -0.02536790 -0.00535135
v -0.02964686 -0.02534692 0.00535212
v -0.03291218 -0.02093126 -0.00535109
v -0.03292868 -0.02090507 0.00535080
v -0.03553611 -0.01607592 -0.00535083
v -0.03554555 -0.01605479 0.00535061
v -0.03744837 -0.01089902 -0.00535056
v -0.03745260 -0.01088425 0.00535042
v -0.03861111 -0.00550023 0.00535043
v -0.01847260 0.02477041 0.00575000
v -0.01340749 0.02782270 0.00574880
v -0.01834597 0.03406680 0.00575052
v -0.00817325 0.03781711 0.00574916
v -0.00137145 0.02772487 0.00565415
v -0.00140141 0.03857281 0.00575035
v -0.00900128 -0.03762080 0.00574979
v -0.00140201 -0.03857369 0.00575029
v -0.00140000 -0.02795000 0.00575000
v -0.01337509 -0.02779984 0.00574925
v -0.01615273 -0.03505780 0.00575000
v -0.02362220 -0.03064266 0.00575004
v -0.01847260 -0.02477041 0.00575000
v -0.02347045 -0.02022645 0.00574955
v -0.02716706 0.02755084 0.00575049
v -0.02401889 0.01957192 0.00574947
v -0.03380602 0.01882096 0.00575046
v -0.02761896 0.01385653 0.00575000
v -0.03024516 0.00672288 0.00574947
v -0.03772895 0.00857800 0.00575041
v -0.03085434 -0.00282433 0.00574947
v -0.03860000 -0.00000000 0.00575000
v -0.03820941 -0.00547733 0.00575000
v -0.02852196 -0.01210226 0.00574947
v -0.03613218 -0.01383941 0.00575044
v -0.03099784 -0.02312290 0.00574966
v -0.01275503 0.02751205 0.00537604
v -0.00140000 0.02755000 -0.00535000
v -0.01249258 0.02753595 0.00427958
v -0.02003923 0.02755710 0.00003847
v -0.01237913 0.02754263 -0.00424136
v -0.01275190 0.02750168 -0.00534902
v -0.01237408 -0.02754231 0.00424538
v -0.01275190 -0.02750168 0.00534902
v -0.00140000 -0.02755000 0.00535000
v -0.00140000 -0.02755000 -0.00535000
v -0.01275503 -0.02751205 -0.00537604
v -0.01249254 -0.02753596 -0.00427956
v -0.02003923 -0.02755710 -0.00003847
v -0.00100000 0.03125000 0.00000000
v -0.00650000 0.03125000 0.00000000
v -0.00100000 0.03161843 0.00137500
v -0.00650000 0.03161843 0.00137500
v -0.00100000 0.03262500 0.00238157
v -0.00650000 0.03262500 0.00238157
v -0.00100000 0.03400000 0.00275000
v -0.00650000 0.03400000 0.00275000
v -0.00100000 0.03537500 0.00238157
v -0.00650000 0.03537500 0.00238157
v -0.00100000 0.03638157 0.00137500
v -0.00650000 0.03638157 0.00137500
v -0.00100000 0.03675000 0.00000000
v -0.00650000 0.03675000 0.00000000
v -0.00100000 0.03638157 -0.00137500
v -0.00650000 0.03638157 -0.00137500
v -0.00100000 0.03537500 -0.00238157
v -0.00650000 0.03537500 -0.00238157
v -0.00100000 0.03400000 -0.00275000
v -0.00650000 0.03400000 -0.00275000
v -0.00100000 0.03262500 -0.00238157
v -0.00650000 0.03262500 -0.00238157
v -0.00100000 0.03161843 -0.00137500
v -0.00650000 0.03161843 -0.00137500
v -0.01823347 0.02444975 0.00535000
v -0.01750275 0.02508472 0.00449761
v -0.01433998 0.02688577 0.00528335
v -0.02178950 0.02134168 0.00535000
v -0.02096874 0.02226410 0.00450969
v -0.02482307 0.01772189 0.00535000
v -0.02310277 0.02002924 0.00449885
v -0.02726143 0.01367715 0.00535000
v -0.02560654 0.01672988 0.00450333
v -0.02904611 0.00930447 0.00535000
v -0.02787901 0.01258558 0.00449936
v -0.03013434 0.00470869 0.00535000
v -0.02947891 0.00815874 0.00450435
v -0.03050000 0.00000000 0.00535000
v -0.03037038 0.00362385 0.00450151
v -0.03013434 -0.00470869 0.00535000
v -0.03038497 -0.00351410 0.00450233
v -0.03056956 0.00061611 0.00449655
v -0.02904611 -0.00930447 0.00535000
v -0.02948497 -0.00814289 0.00449721
v -0.02726143 -0.01367715 0.00535000
v -0.02788204 -0.01257741 0.00450201
v -0.02482307 -0.01772189 0.00535000
v -0.02567925 -0.01661671 0.00449670
v -0.02178950 -0.02134168 0.00535000
v -0.02386157 -0.01911901 0.00449865
v -0.01823347 -0.02444975 0.00535000
v -0.02107296 -0.02216998 0.00450443
v -0.01424024 -0.02697157 0.00535000
v -0.01435373 -0.02697573 0.00453212
v -0.01751160 -0.02507779 0.00450044
v -0.03089668 0.01420666 0.00102954
v -0.02731515 0.02017166 0.00109454
v -0.02375800 0.02468565 0.00065278
v -0.02069038 0.02728053 0.00065950
v -0.01439460 0.02700173 0.00445502
v -0.03383212 0.00538351 0.00063537
v -0.03298900 0.00920334 0.00067296
v -0.03369983 -0.00414718 0.00108830
v -0.03421517 0.00155036 0.00067068
v -0.03030610 -0.01595847 0.00066123
v -0.03222178 -0.01087998 0.00102865
v -0.02053291 -0.02692219 0.00116946
v -0.02375689 -0.02465510 0.00068705
v -0.02715328 -0.02047784 0.00102540
v -0.02751751 -0.02060181 -0.00037362
v -0.02731515 -0.02017166 -0.00109454
v -0.03126114 -0.01429330 -0.00039862
v -0.03416461 0.00381105 -0.00037339
v -0.03369983 0.00414718 -0.00108830
v -0.03257966 0.01095657 -0.00040178
v -0.02077983 0.02736493 -0.00031329
v -0.02751751 0.02060181 0.00037362
v -0.03126113 0.01429331 0.00039862
v -0.03416461 -0.00381105 0.00037338
v -0.03257966 -0.01095657 0.00040178
v -0.02742306 -0.02072458 0.00039965
v -0.02077983 -0.02736493 0.00031329
v -0.03421517 -0.00155035 -0.00067068
v -0.03030610 0.01595847 -0.00066123
v -0.02742307 0.02072458 -0.00039965
v -0.02375689 0.02465510 -0.00068705
v -0.02375800 -0.02468565 -0.00065278
v -0.03298900 -0.00920333 -0.00067296
v -0.02053291 0.02692219 -0.00116946
v -0.02715328 0.02047784 -0.00102540
v -0.03222178 0.01087998 -0.00102865
v -0.03383212 -0.00538352 -0.00063537
v -0.03089667 -0.01420666 -0.00102954
v -0.02069037 -0.02728053 -0.00065951
v -0.02787901 -0.01258559 -0.00449936
v -0.02560654 -0.01672988 -0.00450333
v -0.02310276 -0.02002925 -0.00449885
v -0.02096874 -0.02226410 -0.00450969
v -0.01750275 -0.02508472 -0.00449761
v -0.01439460 -0.02700173 -0.00445502
v -0.03037038 -0.00362384 -0.00450151
v -0.02947891 -0.00815874 -0.00450435
v -0.02948497 0.00814289 -0.00449721
v -0.03038497 0.00351411 -0.00450232
v -0.03056956 -0.00061611 -0.00449655
v -0.02567925 0.01661671 -0.00449670
v -0.02788204 0.01257740 -0.00450201
v -0.01751161 0.02507779 -0.00450044
v -0.01435372 0.02697573 -0.00453211
v -0.02107296 0.02216998 -0.00450443
v -0.02386157 0.01911901 -0.00449865
v -0.01424024 0.02697157 -0.00535000
v -0.01823347 0.02444975 -0.00535000
v -0.01823347 -0.02444975 -0.00535000
v -0.01433998 -0.02688577 -0.00528335
v -0.02178950 -0.02134168 -0.00535000
v -0.02482307 -0.01772189 -0.00535000
v -0.02726143 -0.01367715 -0.00535000
v -0.02904611 -0.00930447 -0.00535000
v -0.03013434 -0.00470869 -0.00535000
v -0.03050000 -0.00000000 -0.00535000
v -0.03013434 0.00470869 -0.00535000
v -0.02904611 0.00930447 -0.00535000
v -0.02726143 0.01367715 -0.00535000
v -0.02482307 0.01772189 -0.00535000
v -0.02178950 0.02134168 -0.00535000
v -0.00650000 0.03704197 -0.00331608
v -0.00650000 0.03542301 -0.00426908
v -0.00650000 0.03355604 -0.00447805
v -0.00650000 0.03176645 -0.00390657
v -0.00650000 0.03036613 -0.00265423
v -0.00650000 0.02959913 -0.00093931
v -0.00650000 0.02959913 0.00093931
v -0.00650000 0.03036613 0.00265423
v -0.00650000 0.03176645 0.00390657
v -0.00650000 0.03355604 0.00447805
v -0.00650065 0.03816538 -0.00181425
v -0.00650000 0.03542301 0.00426908
v -0.00650000 0.03704197 0.00331608
v -0.00649999 0.03816341 0.00180615
v -0.01802234 0.03443766 -0.00450455
v -0.00991436 0.03747144 0.00294047
v -0.01412743 0.03617116 0.00397934
v -0.02006086 0.03333565 0.00447242
v -0.01732523 0.03480657 0.00445930
v -0.01481506 0.03594461 -0.00411889
v -0.01048119 0.03732248 -0.00309742
v -0.00099664 0.03854746 0.00527386
v -0.00099664 0.03851108 -0.00531024
v -0.00099684 0.02799097 -0.00527122
v -0.00099684 0.02802878 0.00530903
v -0.00099684 -0.02802878 -0.00530903
v -0.00100000 -0.03240005 -0.00144622
v -0.00099706 -0.03854781 -0.00527415
v -0.00100000 -0.03400000 -0.00210000
v -0.00100000 -0.03544622 -0.00159995
v -0.00100000 -0.03610871 0.00045249
v -0.00099664 -0.03851108 0.00531024
v -0.00100000 -0.03466249 0.00205243
v -0.00099632 -0.02799142 0.00527084
v -0.00100000 -0.03295000 0.00181865
v -0.00100000 -0.03194757 0.00066249
v -0.01566181 -0.03400000 0.00000000
v -0.01440000 -0.03218134 0.00105000
v -0.01440000 -0.03295000 0.00181865
v -0.01440000 -0.03190000 0.00000000
v -0.01440000 -0.03505000 0.00181865
v -0.01440000 -0.03581866 0.00105000
v -0.01440000 -0.03400000 0.00210000
v -0.01440000 -0.03581866 -0.00105000
v -0.01440000 -0.03505000 -0.00181865
v -0.01440000 -0.03610000 0.00000000
v -0.01440000 -0.03295000 -0.00181865
v -0.01440000 -0.03218134 -0.00105000
v -0.01440000 -0.03400000 -0.00210000
v -0.01334053 0.02736768 -0.00451103
v -0.01339695 0.02735329 0.00450369
v -0.01339695 -0.02735329 -0.00450369
v -0.01334053 -0.02736768 0.00451103
v 0.01847260 0.02477041 -0.00575000
v 0.01340749 0.02782270 -0.00574880
v 0.01834597 0.03406680 -0.00575052
v 0.00817325 0.03781711 -0.00574916
v 0.00140000 0.02795000 -0.00575000
v 0.00140141 0.03857281 -0.00575035
v 0.00900128 -0.03762080 -0.00574979
v 0.00140201 -0.03857369 -0.00575029
v 0.00140000 -0.02795000 -0.00575000
v 0.01337509 -0.02779984 -0.00574925
v 0.01615273 -0.03505780 -0.00575000
v 0.02362220 -0.03064266 -0.00575004
v 0.01847260 -0.02477041 -0.00575000
v 0.02347045 -0.02022646 -0.00574955
v 0.02716706 0.02755084 -0.00575049
v 0.02401889 0.01957192 -0.00574947
v 0.03380602 0.01882097 -0.00575046
v 0.02761896 0.01385653 -0.00575000
v 0.03024516 0.00672288 -0.00574947
v 0.03772895 0.00857800 -0.00575041
v 0.03085434 -0.00282433 -0.00574947
v 0.03860000 0.00000000 -0.00575000
v 0.03820941 -0.00547733 -0.00575000
v 0.02852196 -0.01210226 -0.00574947
v 0.03613218 -0.01383941 -0.00575044
v 0.03099784 -0.02312290 -0.00574966
v 0.00607688 -0.03853321 -0.00535267
v 0.00600289 -0.03854485 0.00535236
v 0.00139472 -0.03897630 -0.00534089
v 0.00139815 -0.03897628 0.00534558
v 0.01142585 -0.03729752 -0.00535381
v 0.01059527 -0.03752455 -0.00319140
v 0.00650010 -0.03842343 -0.00184539
v 0.00649990 -0.03842697 0.00184713
v 0.01007739 -0.03767244 0.00304000
v 0.01142839 -0.03729667 0.00535277
v 0.02226266 -0.03199694 -0.00407625
v 0.01932306 -0.03384217 -0.00457560
v 0.02135503 -0.03264099 -0.00535339
v 0.01654896 -0.03532184 -0.00535455
v 0.01513175 -0.03597713 -0.00431504
v 0.02374998 -0.03092183 0.00332436
v 0.02572898 -0.02931131 0.00535691
v 0.02222388 -0.03203007 0.00408902
v 0.02137850 -0.03262419 0.00535432
v 0.02486245 -0.03003491 0.00218494
v 0.02551340 -0.02948425 0.00047573
v 0.02576213 -0.02928471 -0.00535456
v 0.02535710 -0.02961767 -0.00108821
v 0.02406033 -0.03067525 -0.00307507
v 0.02488960 -0.03001027 -0.00211713
v 0.01658622 -0.03530572 0.00535255
v 0.01787701 -0.03467852 0.00464094
v 0.01412829 -0.03634989 0.00409992
v 0.02962896 -0.02536790 0.00535135
v 0.02964686 -0.02534692 -0.00535212
v 0.03291218 -0.02093126 0.00535109
v 0.03292868 -0.02090507 -0.00535080
v 0.03553611 -0.01607592 0.00535083
v 0.03554555 -0.01605479 -0.00535061
v 0.03744837 -0.01089902 0.00535056
v 0.03745260 -0.01088425 -0.00535042
v 0.03861140 -0.00550096 0.00535005
v 0.03861111 -0.00550023 -0.00535043
v 0.03861140 0.00550096 -0.00535005
v 0.03900000 0.00000000 0.00535000
v 0.03900000 0.00000000 -0.00535000
v 0.00139815 0.03897628 -0.00534558
v 0.00139472 0.03897630 0.00534089
v 0.00600770 0.03854496 -0.00535131
v 0.00604405 0.03854002 0.00535038
v 0.01138627 0.03731009 -0.00535228
v 0.01142667 0.03729777 0.00535298
v 0.01653861 0.03532841 -0.00535206
v 0.01657260 0.03531250 0.00535263
v 0.02135944 0.03263934 -0.00535183
v 0.02138687 0.03262139 0.00535228
v 0.02575221 0.02929682 -0.00535159
v 0.02577329 0.02927829 0.00535193
v 0.02962896 0.02536790 -0.00535135
v 0.02964686 0.02534692 0.00535212
v 0.03291218 0.02093126 -0.00535109
v 0.03292868 0.02090507 0.00535080
v 0.03553611 0.01607592 -0.00535083
v 0.03554555 0.01605479 0.00535061
v 0.03744837 0.01089902 -0.00535056
v 0.03745260 0.01088425 0.00535042
v 0.03861111 0.00550023 0.00535043
v 0.01847260 -0.02477041 0.00575000
v 0.01340749 -0.02782270 0.00574880
v 0.01834597 -0.03406680 0.00575052
v 0.00817325 -0.03781711 0.00574916
v 0.00137145 -0.02772487 0.00565415
v 0.00140141 -0.03857281 0.00575035
v 0.00900128 0.03762080 0.00574979
v 0.00140201 0.03857369 0.00575029
v 0.00140000 0.02795000 0.00575000
v 0.01337509 0.02779984 0.00574925
v 0.01615273 0.03505780 0.00575000
v 0.02362220 0.03064266 0.00575004
v 0.01847260 0.02477041 0.00575000
v 0.02347045 0.02022645 0.00574955
v 0.02716706 -0.02755084 0.00575049
v 0.02401889 -0.01957192 0.00574947
v 0.03380602 -0.01882096 0.00575046
v 0.02761896 -0.01385653 0.00575000
v 0.03024516 -0.00672288 0.00574947
v 0.03772895 -0.00857800 0.00575041
v 0.03085434 0.00282433 0.00574947
v 0.03860000 0.00000000 0.00575000
v 0.03820941 0.00547733 0.00575000
v 0.02852196 0.01210226 0.00574947
v 0.03613218 0.01383941 0.00575044
v 0.03099784 0.02312290 0.00574966
v 0.01275503 -0.02751205 0.00537604
v 0.00140000 -0.02755000 -0.00535000
v 0.01249258 -0.02753595 0.00427958
v 0.02003923 -0.02755710 0.00003847
v 0.01237913 -0.02754263 -0.00424136
v 0.01275190 -0.02750168 -0.00534902
v 0.01237408 0.02754231 0.00424538
v 0.01275190 0.02750168 0.00534902
v 0.00140000 0.02755000 0.00535000
v 0.00140000 0.02755000 -0.00535000
v 0.01275503 0.02751205 -0.00537604
v 0.01249254 0.02753596 -0.00427956
v 0.02003923 0.02755710 -0.00003847
v 0.00100000 -0.03125000 0.00000000
v 0.00650000 -0.03125000 0.00000000
v 0.00100000 -0.03161843 0.00137500
v 0.00650000 -0.03161843 0.00137500
v 0.00100000 -0.03262500 0.00238157
v 0.00650000 -0.03262500 0.00238157
v 0.00100000 -0.03400000 0.00275000
v 0.00650000 -0.03400000 0.00275000
v 0.00100000 -0.03537500 0.00238157
v 0.00650000 -0.03537500 0.00238157
v 0.00100000 -0.03638157 0.00137500
v 0.00650000 -0.03638157 0.00137500
v 0.00100000 -0.03675000 0.00000000
v 0.00650000 -0.03675000 0.00000000
v 0.00100000 -0.03638157 -0.00137500
v 0.00650000 -0.03638157 -0.00137500
v 0.00100000 -0.03537500 -0.00238157
v 0.00650000 -0.03537500 -0.00238157
v 0.00100000 -0.03400000 -0.00275000
v 0.00650000 -0.03400000 -0.00275000
v 0.00100000 -0.03262500 -0.00238157
v 0.00650000 -0.03262500 -0.00238157
v 0.00100000 -0.03161843 -0.00137500
v 0.00650000 -0.03161843 -0.00137500
v 0.01823347 -0.02444975 0.00535000
v 0.01750275 -0.02508472 0.00449761
v 0.01433998 -0.02688577 0.00528335
v 0.02178950 -0.02134168 0.00535000
v 0.02096874 -0.02226410 0.00450969
v 0.02482307 -0.01772189 0.00535000
v 0.02310277 -0.02002924 0.00449885
v 0.02726143 -0.01367715 0.00535000
v 0.02560654 -0.01672988 0.00450333
v 0.02904611 -0.00930447 0.00535000
v 0.02787901 -0.01258558 0.00449936
v 0.03013434 -0.00470869 0.00535000
v 0.02947891 -0.00815874 0.00450435
v 0.03050000 -0.00000000 0.00535000
v 0.03037038 -0.00362385 0.00450151
v 0.03013434 0.00470869 0.00535000
v 0.03038497 0.00351410 0.00450233
v 0.03056956 -0.00061611 0.00449655
v 0.02904611 0.00930447 0.00535000
v 0.02948497 0.00814289 0.00449721
v 0.02726143 0.01367715 0.00535000
v 0.02788204 0.01257741 0.00450201
v 0.02482307 0.01772189 0.00535000
v 0.02567925 0.01661671 0.00449670
v 0.02178950 0.02134168 0.00535000
v 0.02386157 0.01911901 0.00449865
v 0.01823347 0.02444975 0.00535000
v 0.02107296 0.02216998 0.00450443
v 0.01424024 0.02697157 0.00535000
v 0.01435373 0.02697573 0.00453212
v 0.01751160 0.02507779 0.00450044
v 0.03089668 -0.01420666 0.00102954
v 0.02731515 -0.02017166 0.00109454
v 0.02375800 -0.02468565 0.00065278
v 0.02069038 -0.02728053 0.00065950
v 0.01439460 -0.02700173 0.00445502
v 0.03383212 -0.00538351 0.00063537
v 0.03298900 -0.00920334 0.00067296
v 0.03369983 0.00414718 0.00108830
v 0.03421517 -0.00155036 0.00067068
v 0.03030610 0.01595847 0.00066123
v 0.03222178 0.01087998 0.00102865
v 0.02053291 0.02692219 0.00116946
v 0.02375689 0.02465510 0.00068705
v 0.02715328 0.02047784 0.00102540
v 0.02751751 0.02060181 -0.00037362
v 0.02731515 0.02017166 -0.00109454
v 0.03126114 0.01429330 -0.00039862
v 0.03416461 -0.00381105 -0.00037339
v 0.03369983 -0.00414718 -0.00108830
v 0.03257966 -0.01095657 -0.00040178
v 0.02077983 -0.02736493 -0.00031329
v 0.02751751 -0.02060181 0.00037362
v 0.03126113 -0.01429331 0.00039862
v 0.03416461 0.00381105 0.00037338
v 0.03257966 0.01095657 0.00040178
v 0.02742306 0.02072458 0.00039965
v 0.02077983 0.02736493 0.00031329
v 0.03421517 0.00155035 -0.00067068
v 0.03030610 -0.01595847 -0.00066123
v 0.02742307 -0.02072458 -0.00039965
v 0.02375689 -0.02465510 -0.00068705
v 0.02375800 0.02468565 -0.00065278
v 0.03298900 0.00920333 -0.00067296
v 0.02053291 -0.02692219 -0.00116946
v 0.02715328 -0.02047784 -0.00102540
v 0.03222178 -0.01087998 -0.00102865
v 0.03383212 0.00538352 -0.00063537
v 0.03089667 0.01420666 -0.00102954
v 0.02069037 0.02728053 -0.00065951
v 0.02787901 0.01258559 -0.00449936
v 0.02560654 0.01672988 -0.00450333
v 0.02310276 0.02002925 -0.00449885
v 0.02096874 0.02226410 -0.00450969
v 0.01750275 0.02508472 -0.00449761
v 0.01439460 0.02700173 -0.00445502
v 0.03037038 0.00362384 -0.00450151
v 0.02947891 0.00815874 -0.00450435
v 0.02948497 -0.00814289 -0.00449721
v 0.03038497 -0.00351411 -0.00450232
v 0.03056956 0.00061611 -0.00449655
v 0.02567925 -0.01661671 -0.00449670
v 0.02788204 -0.01257740 -0.00450201
v 0.01751161 -0.02507779 -0.00450044
v 0.01435372 -0.02697573 -0.00453211
v 0.02107296 -0.02216998 -0.00450443
v 0.02386157 -0.01911901 -0.00449865
v 0.01424024 -0.02697157 -0.00535000
v 0.01823347 -0.02444975 -0.00535000
v 0.01823347 0.02444975 -0.00535000
v 0.01433998 0.02688577 -0.00528335
v 0.02178950 0.02134168 -0.00535000
v 0.02482307 0.01772189 -0.00535000
v 0.02726143 0.01367715 -0.00535000
v 0.02904611 0.00930447 -0.00535000
v 0.03013434 0.00470869 -0.00535000
v 0.03050000 0.00000000 -0.00535000
v 0.03013434 -0.00470869 -0.00535000
v 0.02904611 -0.00930447 -0.00535000
v 0.02726143 -0.01367715 -0.00535000
v 0.02482307 -0.01772189 -0.00535000
v 0.02178950 -0.02134168 -0.00535000
v 0.00650000 -0.03704197 -0.00331608
v 0.00650000 -0.03542301 -0.00426908
v 0.00650000 -0.03355604 -0.00447805
v 0.00650000 -0.03176645 -0.00390657
v 0.00650000 -0.03036613 -0.00265423
v 0.00650000 -0.02959913 -0.00093931
v 0.00650000 -0.02959913 0.00093931
v 0.00650000 -0.03036613 0.00265423
v 0.00650000 -0.03176645 0.00390657
v 0.00650000 -0.03355604 0.00447805
v 0.00650065 -0.03816538 -0.00181425
v 0.00650000 -0.03542301 0.00426908
v 0.00650000 -0.03704197 0.00331608
v 0.00649999 -0.03816341 0.00180615
v 0.01802234 -0.03443766 -0.00450455
v 0.00991436 -0.03747144 0.00294047
v 0.01412743 -0.03617116 0.00397934
v 0.02006086 -0.03333565 0.00447242
v 0.01732523 -0.03480657 0.00445930
v 0.01481506 -0.03594461 -0.00411889
v 0.01048119 -0.03732248 -0.00309742
v 0.00099664 -0.03854746 0.00527386
v 0.00099664 -0.03851108 -0.00531024
v 0.00099684 -0.02799097 -0.00527122
v 0.00099684 -0.02802878 0.00530903
v 0.00099684 0.02802878 -0.00530903
v 0.00100000 0.03240005 -0.00144622
v 0.00099706 0.03854781 -0.00527415
v 0.00100000 0.03400000 -0.00210000
v 0.00100000 0.03544622 -0.00159995
v 0.00100000 0.03610871 0.00045249
v 0.00099664 0.03851108 0.00531024
v 0.00100000 0.03466249 0.00205243
v 0.00099632 0.02799142 0.00527084
v 0.00100000 0.03295000 0.00181865
v 0.00100000 0.03194757 0.00066249
v 0.01566181 0.03400000 0.00000000
v 0.01440000 0.03218134 0.00105000
v 0.01440000 0.03295000 0.00181865
v 0.01440000 0.03190000 0.00000000
v 0.01440000 0.03505000 0.00181865
v 0.01440000 0.03581866 0.00105000
v 0.01440000 0.03400000 0.00210000
v 0.01440000 0.03581866 -0.00105000
v 0.01440000 0.03505000 -0.00181865
v 0.01440000 0.03610000 0.00000000
v 0.01440000 0.03295000 -0.00181865
v 0.01440000 0.03218134 -0.00105000
v 0.01440000 0.03400000 -0.00210000
v 0.01334053 -0.02736768 -0.00451103
v 0.01339695 -0.02735329 0.00450369
v 0.01339695 0.02735329 -0.00450369
v 0.01334053 0.02736768 0.00451103
v 0.02402678 0.01623927 -0.01400000
v 0.02642563 0.01194514 -0.01400000
v 0.02900000 0.00000000 -0.01400000
v 0.02806425 0.00730736 -0.01400000
v 0.02893884 0.00154516 -0.01399997
v 0.01305591 0.02589485 -0.01400000
v 0.01724436 0.02331592 -0.01400000
v 0.02093673 0.02006623 -0.01400000
v -0.00123079 0.02897387 -0.01400000
v 0.00368352 0.02876511 -0.01400000
v 0.00849186 0.02772884 -0.01400000
v -0.01520491 0.02469435 -0.01400000
v -0.01081284 0.02690878 -0.01400000
v -0.00610970 0.02834910 -0.01400000
v -0.02531741 0.01414315 -0.01400000
v -0.02256304 0.01821838 -0.01400000
v -0.01915957 0.02176950 -0.01400000
v -0.02900000 -0.00000000 -0.01400000
v -0.02858286 0.00490102 -0.01400000
v -0.02734345 0.00966105 -0.01400000
v -0.02531741 -0.01414315 -0.01400000
v -0.02734345 -0.00966105 -0.01400000
v -0.02858286 -0.00490102 -0.01400000
v -0.01520491 -0.02469435 -0.01400000
v -0.01915957 -0.02176950 -0.01400000
v -0.02256304 -0.01821838 -0.01400000
v -0.00123079 -0.02897387 -0.01400000
v -0.00610970 -0.02834910 -0.01400000
v -0.01081284 -0.02690878 -0.01400000
v 0.01305591 -0.02589485 -0.01400000
v 0.00849186 -0.02772884 -0.01400000
v 0.00368352 -0.02876511 -0.01400000
v 0.02402678 -0.01623927 -0.01400000
v 0.02093673 -0.02006623 -0.01400000
v 0.01724436 -0.02331592 -0.01400000
v 0.02889553 -0.00245937 -0.01400000
v 0.02806425 -0.00730736 -0.01400000
v 0.02642563 -0.01194514 -0.01400000
v 0.01590721 0.02670611 -0.00393772
v 0.01988281 0.02675782 -0.00163919
v 0.01638776 0.02402723 -0.00599909
v 0.01583137 -0.02438797 -0.00599592
v 0.01584107 -0.02670811 -0.00396879
v 0.01320697 -0.02587550 -0.00603160
v 0.01119313 -0.02680198 -0.00607723
v 0.01822858 -0.02266270 -0.00598554
v 0.02272564 -0.02521742 -0.00098254
v 0.02010630 -0.02649408 -0.00175834
v 0.02064287 -0.02045190 -0.00600751
v 0.02582093 0.02207782 -0.00097624
v 0.02145232 0.01963174 -0.00601051
v 0.02280650 0.02516913 -0.00095149
v 0.01913549 0.02188988 -0.00596340
v 0.01249952 0.02624529 -0.00605509
v 0.01120899 0.02685489 -0.00597659
v 0.02367531 0.01683717 -0.00602606
v 0.02881164 0.01800138 -0.00097603
v 0.02528648 0.01435637 -0.00599910
v 0.03116446 0.01352609 -0.00097552
v 0.02733187 0.00994135 -0.00600014
v 0.03249571 0.00988771 -0.00094102
v 0.02826661 0.00674299 -0.00600578
v 0.03333001 0.00643157 -0.00102423
v 0.02887766 0.00338281 -0.00602298
v 0.03372379 0.00010592 -0.00130965
v 0.02906275 -0.00006401 -0.00600694
v 0.02887566 -0.00342237 -0.00601591
v 0.03361415 -0.00250153 -0.00129289
v 0.02800825 -0.00781444 -0.00601143
v 0.03158171 -0.01239339 -0.00102353
v 0.02681960 -0.01116861 -0.00602540
v 0.02556824 -0.01384203 -0.00600483
v 0.03370294 -0.00427270 -0.00094250
v 0.03307724 -0.00754781 -0.00102016
v 0.03247144 -0.00997810 -0.00091934
v 0.02290972 -0.01791720 -0.00600231
v 0.02652173 -0.02115302 -0.00103031
v 0.02495746 -0.02304383 -0.00091673
v 0.03062733 -0.01469385 -0.00091826
v 0.02938021 -0.01696262 -0.00102691
v 0.02810364 -0.01908159 -0.00091737
v 0.02323663 0.02473031 -0.00007844
v 0.02663397 0.02103762 -0.00008133
v 0.02945454 0.01686357 -0.00008132
v 0.03162621 0.01231798 -0.00008133
v 0.03310112 0.00750104 -0.00008133
v 0.03382834 0.00370533 -0.00058245
v 0.03384679 0.00251884 -0.00008133
v 0.03397394 -0.00148728 -0.00058717
v 0.03384679 -0.00251885 -0.00008133
v 0.03311793 -0.00750485 -0.00011563
v 0.03159852 -0.01230720 -0.00002216
v 0.02945454 -0.01686357 -0.00008132
v 0.02663397 -0.02103762 -0.00008133
v 0.02324091 -0.02473754 -0.00008237
v -0.02663397 0.02103762 -0.00008133
v -0.02945454 0.01686357 -0.00008132
v -0.01885101 -0.02713737 -0.00001697
v -0.03162621 -0.01231798 -0.00008133
v -0.02945454 -0.01686357 -0.00008132
v -0.01642407 0.02730000 -0.00000000
v -0.01886031 0.02699235 -0.00000000
v -0.03162621 0.01231799 -0.00008132
v -0.03310112 0.00750104 -0.00008133
v -0.03384679 0.00251885 -0.00008133
v 0.01864942 -0.02720302 -0.00005897
v 0.02118973 -0.02623900 -0.00009000
v 0.01883934 0.02714495 -0.00002742
v 0.02125778 0.02619867 -0.00008976
v -0.02114360 0.02608872 -0.00000000
v -0.02313056 0.02464583 -0.00000000
v -0.03384679 -0.00251884 -0.00008133
v -0.03310112 -0.00750104 -0.00008133
v -0.02663397 -0.02103762 -0.00008133
v -0.02323200 -0.02472108 -0.00006016
v -0.02125224 -0.02621891 -0.00012391
v -0.01590721 -0.02670611 -0.00393772
v -0.01988281 -0.02675782 -0.00163919
v -0.01822603 -0.02264318 -0.00605023
v -0.02292530 -0.01788675 -0.00601280
v -0.02020173 -0.02091180 -0.00600263
v -0.02582093 -0.02207782 -0.00097624
v -0.02280650 -0.02516913 -0.00095149
v -0.01443821 -0.02523685 -0.00602485
v -0.01118510 -0.02680762 -0.00606979
v -0.01731180 0.02335129 -0.00598923
v -0.01584107 0.02670811 -0.00396879
v -0.01438606 0.02527171 -0.00601072
v -0.01115075 0.02682429 -0.00607190
v -0.01987490 0.02123069 -0.00600076
v -0.02270195 0.02515011 -0.00108052
v -0.02010630 0.02649408 -0.00175834
v -0.02881164 -0.01800138 -0.00097603
v -0.02491330 -0.01494924 -0.00601256
v -0.02644441 -0.01207543 -0.00601868
v -0.03116446 -0.01352609 -0.00097552
v -0.02796771 -0.00797481 -0.00600710
v -0.03282721 -0.00875096 -0.00097473
v -0.02886147 -0.00350621 -0.00603765
v -0.03360468 -0.00494786 -0.00094044
v -0.02906547 -0.00054761 -0.00601223
v -0.03395849 -0.00113133 -0.00096391
v -0.02896998 0.00234867 -0.00600353
v -0.03376215 0.00384288 -0.00094955
v -0.02853353 0.00560777 -0.00601153
v -0.02760645 0.00905577 -0.00601417
v -0.03158171 0.01239339 -0.00102353
v -0.02644329 0.01207867 -0.00601656
v -0.03307724 0.00754781 -0.00102016
v -0.03247144 0.00997810 -0.00091934
v -0.02292398 0.01788880 -0.00601643
v -0.02652173 0.02115302 -0.00103031
v -0.02495746 0.02304383 -0.00091673
v -0.03062733 0.01469385 -0.00091826
v -0.02938021 0.01696262 -0.00102691
v -0.02488665 0.01500484 -0.00601476
v -0.02810364 0.01908159 -0.00091737
v -0.02330060 0.02482670 -0.00027620
v 0.00934430 -0.02748006 -0.00601939
v 0.01035605 -0.02741235 -0.00543544
v -0.01642407 -0.02750000 -0.00020000
v -0.01031493 -0.02744204 -0.00535119
v -0.00936103 -0.02747178 -0.00604425
v 0.01713419 -0.02748094 -0.00180714
v 0.01642407 -0.02750000 -0.00020000
v -0.01722020 -0.02747475 -0.00180926
v -0.01642407 0.02750000 -0.00020000
v 0.01033052 0.02743818 -0.00535386
v 0.00935839 0.02747738 -0.00602206
v 0.01642407 0.02750000 -0.00020000
v 0.01721111 0.02747616 -0.00180830
v -0.00930930 0.02750094 -0.00530528
v -0.00937408 0.02746910 -0.00603631
v -0.01714052 0.02748000 -0.00180745
v -0.00610970 -0.02834910 -0.00600000
v -0.00123079 -0.02897387 -0.00600000
v 0.00368352 -0.02876511 -0.00600000
v -0.00610970 0.02834910 -0.00600000
v 0.00368352 0.02876511 -0.00600000
v -0.00123079 0.02897387 -0.00600000
v 0.02436300 -0.01582072 -0.00615750
v 0.02631767 0.01229834 -0.00615637
v 0.02045329 -0.02664675 -0.00126066
v 0.01841898 -0.02726772 -0.00180285
v 0.01904808 0.02718080 -0.00127509
v 0.02103156 0.02634962 -0.00111952
v -0.02116662 0.02614149 0.00005351
v -0.02045329 0.02664675 -0.00126066
v -0.01841898 0.02726772 -0.00180285
v -0.01891003 0.02718607 -0.00020000
v -0.01904808 -0.02718080 -0.00127509
v -0.02103156 -0.02634962 -0.00111952
v 0.03370711 0.00000000 -0.00129289
v 0.03392415 0.00122357 -0.00097090
v 0.03400000 0.00000000 -0.00058579
v 0.01777095 0.02734148 -0.00210907
v -0.01071691 0.02734474 -0.00541485
v -0.01777095 -0.02734148 -0.00210907
f 1 2 3
f 3 2 4
f 4 2 5
f 4 5 6
f 7 8 9
f 7 9 10
f 7 10 11
f 11 10 12
f 12 10 13
f 12 13 14
f 1 3 15
f 1 15 16
f 16 15 17
f 16 17 18
f 18 17 19
f 19 17 20
f 19 20 21
f 21 20 22
f 21 22 23
f 21 23 24
f 24 23 25
f 24 25 14
f 14 25 26
f 14 26 12
f 27 28 29
f 29 28 30
f 31 32 27
f 27 32 33
f 27 33 34
f 27 34 28
f 28 34 35
f 28 35 36
f 37 38 39
f 39 38 40
f 38 41 40
f 40 41 31
f 31 41 32
f 42 43 44
f 44 43 45
f 43 46 47
f 43 42 46
f 48 47 49
f 50 48 51
f 51 48 49
f 48 50 37
f 48 37 39
f 52 53 45
f 45 53 44
f 35 54 36
f 36 54 52
f 52 54 53
f 43 47 48
f 43 48 55
f 55 48 56
f 55 56 57
f 57 56 58
f 57 58 59
f 59 58 60
f 59 60 61
f 61 60 62
f 61 62 63
f 63 62 64
f 65 66 67
f 67 66 63
f 67 63 64
f 68 69 70
f 70 69 71
f 70 71 72
f 72 71 73
f 72 73 74
f 74 73 75
f 74 75 76
f 76 75 77
f 76 77 78
f 78 77 79
f 78 79 80
f 80 79 81
f 80 81 82
f 82 81 83
f 82 83 84
f 84 83 85
f 84 85 86
f 86 85 87
f 86 87 65
f 65 87 88
f 65 88 66
f 89 90 91
f 91 90 92
f 92 90 93
f 92 93 94
f 95 96 97
f 95 97 98
f 95 98 99
f 99 98 100
f 100 98 101
f 100 101 102
f 89 91 103
f 89 103 104
f 104 103 105
f 104 105 106
f 106 105 107
f 107 105 108
f 107 108 109
f 109 108 110
f 109 110 111
f 109 111 112
f 112 111 113
f 112 113 102
f 102 113 114
f 102 114 100
f 93 115 116
f 116 115 117
f 117 118 119
f 120 116 119
f 119 116 117
f 121 122 123
f 124 125 123
f 123 125 126
f 123 126 121
f 127 121 126
f 128 129 130
f 130 129 131
f 130 131 132
f 132 131 133
f 132 133 134
f 134 133 135
f 134 135 136
f 136 135 137
f 136 137 138
f 138 137 139
f 138 139 140
f 140 139 141
f 140 141 142
f 142 141 143
f 142 143 144
f 144 143 145
f 144 145 146
f 146 145 147
f 146 147 148
f 148 147 149
f 148 149 150
f 150 149 151
f 150 151 128
f 128 151 129
f 152 153 154
f 155 156 152
f 152 156 153
f 157 158 155
f 155 158 156
f 159 160 157
f 157 160 158
f 161 162 159
f 159 162 160
f 163 164 161
f 161 164 162
f 165 166 163
f 163 166 164
f 167 168 165
f 165 168 169
f 165 169 166
f 170 171 167
f 167 171 168
f 172 173 170
f 170 173 171
f 174 175 172
f 172 175 173
f 176 177 174
f 174 177 175
f 178 179 176
f 176 179 177
f 180 181 182
f 180 182 178
f 178 182 179
f 162 183 160
f 160 183 184
f 160 184 158
f 158 184 185
f 158 185 156
f 156 185 153
f 153 185 186
f 153 186 187
f 166 188 164
f 164 188 189
f 164 189 162
f 162 189 183
f 171 190 168
f 168 190 169
f 169 190 191
f 169 191 166
f 166 191 188
f 175 192 173
f 173 192 193
f 173 193 171
f 171 193 190
f 182 181 194
f 182 194 179
f 179 194 195
f 179 195 177
f 177 195 196
f 177 196 175
f 175 196 192
f 197 198 199
f 200 201 202
f 203 186 185
f 204 185 184
f 204 184 205
f 184 183 205
f 205 183 189
f 190 206 191
f 190 193 207
f 207 193 192
f 192 196 208
f 208 196 195
f 194 209 195
f 206 210 191
f 191 210 200
f 191 200 188
f 188 200 189
f 189 200 202
f 189 202 205
f 205 202 211
f 205 211 204
f 204 211 212
f 204 212 185
f 185 212 213
f 185 213 203
f 195 214 208
f 208 214 197
f 208 197 192
f 192 197 199
f 192 199 207
f 207 199 215
f 203 213 216
f 211 217 212
f 212 217 213
f 201 218 202
f 202 218 211
f 201 200 210
f 206 219 210
f 190 207 206
f 206 207 215
f 206 215 219
f 198 220 199
f 199 220 215
f 195 209 214
f 214 209 221
f 198 197 214
f 222 220 223
f 223 220 198
f 223 198 224
f 224 198 214
f 224 214 225
f 225 214 226
f 226 214 221
f 226 221 227
f 228 219 229
f 229 219 215
f 229 215 222
f 222 215 220
f 230 201 231
f 231 201 232
f 232 201 210
f 232 210 228
f 228 210 219
f 233 211 234
f 234 211 218
f 234 218 230
f 230 218 201
f 235 236 216
f 235 216 237
f 237 216 213
f 237 213 238
f 238 213 217
f 238 217 233
f 233 217 211
f 239 236 235
f 239 235 240
f 241 226 242
f 243 225 241
f 241 225 226
f 244 224 243
f 243 224 225
f 245 223 244
f 244 223 224
f 246 222 245
f 245 222 223
f 247 229 246
f 246 229 222
f 248 228 247
f 247 228 229
f 249 231 248
f 248 231 232
f 248 232 228
f 250 230 249
f 249 230 231
f 251 234 250
f 250 234 230
f 252 233 251
f 251 233 234
f 253 238 252
f 252 238 233
f 240 235 237
f 240 237 253
f 253 237 238
f 143 254 145
f 145 254 255
f 145 255 147
f 147 255 256
f 147 256 149
f 149 256 257
f 149 257 151
f 151 257 258
f 151 258 129
f 258 259 129
f 129 259 260
f 129 260 131
f 131 260 261
f 131 261 133
f 133 261 262
f 133 262 135
f 135 262 263
f 135 263 137
f 141 264 143
f 143 264 254
f 141 33 264
f 263 265 137
f 137 265 266
f 137 266 139
f 139 266 267
f 139 267 141
f 141 267 33
f 34 33 267
f 268 38 256
f 266 269 267
f 269 266 270
f 270 266 265
f 271 272 263
f 263 272 265
f 265 272 270
f 271 263 262
f 271 262 44
f 261 42 44
f 261 44 262
f 46 260 47
f 260 46 261
f 261 46 42
f 51 49 259
f 259 49 260
f 260 49 47
f 258 50 259
f 259 50 51
f 257 37 258
f 258 37 50
f 256 38 257
f 257 38 37
f 255 273 256
f 256 273 268
f 264 274 254
f 254 274 255
f 255 274 273
f 275 140 276
f 276 140 142
f 142 144 276
f 276 144 146
f 276 146 277
f 277 146 148
f 148 150 277
f 277 150 128
f 277 128 278
f 278 128 130
f 130 132 278
f 278 132 134
f 278 134 275
f 275 134 136
f 275 136 138
f 275 138 140
f 279 280 281
f 280 282 281
f 281 282 283
f 281 283 284
f 281 284 285
f 284 286 285
f 285 286 287
f 287 286 288
f 287 288 289
f 287 289 279
f 279 289 280
f 290 291 292
f 293 291 290
f 290 294 295
f 296 294 290
f 292 296 290
f 290 297 298
f 299 297 290
f 295 299 290
f 290 300 301
f 302 300 290
f 298 302 290
f 301 293 290
f 293 289 291
f 291 289 292
f 292 289 288
f 292 288 296
f 296 288 286
f 296 286 294
f 294 286 295
f 295 286 284
f 295 284 299
f 299 284 297
f 297 284 283
f 297 283 298
f 298 283 302
f 302 283 282
f 302 282 300
f 300 282 280
f 300 280 301
f 301 280 293
f 293 280 289
f 236 239 303
f 303 239 120
f 120 119 303
f 154 304 115
f 115 304 117
f 242 305 125
f 125 305 126
f 181 180 306
f 306 180 122
f 122 121 306
f 5 2 124
f 124 2 125
f 125 2 242
f 242 2 241
f 241 2 1
f 241 1 243
f 243 1 16
f 243 16 244
f 244 16 245
f 245 16 18
f 245 18 246
f 246 18 19
f 246 19 247
f 247 19 248
f 248 19 21
f 248 21 249
f 249 21 250
f 250 21 24
f 250 24 251
f 251 24 252
f 252 24 14
f 252 14 253
f 253 14 240
f 240 14 13
f 240 13 239
f 239 13 10
f 239 10 120
f 116 120 9
f 9 120 10
f 93 90 115
f 115 90 154
f 154 90 152
f 152 90 89
f 152 89 155
f 155 89 104
f 155 104 157
f 157 104 159
f 159 104 106
f 159 106 161
f 161 106 107
f 161 107 163
f 163 107 165
f 165 107 109
f 165 109 167
f 167 109 170
f 170 109 112
f 170 112 172
f 172 112 174
f 174 112 102
f 174 102 176
f 176 102 178
f 178 102 101
f 178 101 180
f 180 101 98
f 180 98 122
f 123 122 97
f 97 122 98
f 95 71 96
f 96 71 69
f 92 94 30
f 30 28 92
f 28 36 92
f 92 36 91
f 36 52 91
f 52 45 91
f 91 45 103
f 45 43 103
f 43 55 103
f 103 55 105
f 55 57 105
f 57 59 105
f 105 59 108
f 59 61 108
f 61 63 108
f 108 63 110
f 63 66 110
f 110 66 88
f 110 88 111
f 111 88 87
f 111 87 113
f 113 87 85
f 113 85 83
f 113 83 114
f 114 83 81
f 114 81 100
f 81 79 100
f 79 77 100
f 100 77 99
f 77 75 99
f 99 75 95
f 75 73 95
f 95 73 71
f 4 6 68
f 7 27 8
f 8 27 29
f 68 70 4
f 70 72 4
f 4 72 3
f 72 74 3
f 74 76 3
f 3 76 15
f 76 78 15
f 78 80 15
f 15 80 17
f 80 82 17
f 82 84 17
f 17 84 20
f 84 86 20
f 86 65 20
f 20 65 22
f 65 67 22
f 22 67 64
f 22 64 23
f 23 64 62
f 23 62 25
f 25 62 60
f 25 60 58
f 25 58 26
f 26 58 56
f 26 56 12
f 56 48 12
f 48 39 12
f 12 39 11
f 39 40 11
f 11 40 7
f 40 31 7
f 7 31 27
f 304 187 186
f 117 304 118
f 118 304 186
f 119 118 303
f 303 118 203
f 236 303 216
f 216 303 203
f 118 186 203
f 305 227 221
f 126 305 127
f 127 305 221
f 121 127 306
f 306 127 209
f 181 306 194
f 194 306 209
f 127 221 209
f 227 242 226
f 305 242 227
f 304 154 187
f 153 187 154
f 35 34 267
f 41 38 273
f 35 270 54
f 54 270 53
f 53 270 272
f 53 272 271
f 53 271 44
f 267 269 35
f 35 269 270
f 38 268 273
f 41 273 274
f 41 274 32
f 32 274 264
f 32 264 33
f 9 277 116
f 8 276 9
f 9 276 277
f 278 93 277
f 277 93 116
f 8 29 276
f 30 275 29
f 29 275 276
f 275 94 278
f 278 94 93
f 94 275 30
f 124 279 5
f 123 287 124
f 124 287 279
f 281 6 279
f 279 6 5
f 97 287 123
f 6 281 68
f 96 285 97
f 97 285 287
f 285 69 281
f 281 69 68
f 96 69 285
f 307 308 309
f 309 308 310
f 310 308 311
f 310 311 312
f 313 314 315
f 313 315 316
f 313 316 317
f 317 316 318
f 318 316 319
f 318 319 320
f 307 309 321
f 307 321 322
f 322 321 323
f 322 323 324
f 324 323 325
f 325 323 326
f 325 326 327
f 327 326 328
f 327 328 329
f 327 329 330
f 330 329 331
f 330 331 320
f 320 331 332
f 320 332 318
f 333 334 335
f 335 334 336
f 337 338 333
f 333 338 339
f 333 339 340
f 333 340 334
f 334 340 341
f 334 341 342
f 343 344 345
f 345 344 346
f 344 347 346
f 346 347 337
f 337 347 338
f 348 349 350
f 350 349 351
f 349 352 353
f 349 348 352
f 354 353 355
f 356 354 357
f 357 354 355
f 354 356 343
f 354 343 345
f 358 359 351
f 351 359 350
f 341 360 342
f 342 360 358
f 358 360 359
f 349 353 354
f 349 354 361
f 361 354 362
f 361 362 363
f 363 362 364
f 363 364 365
f 365 364 366
f 365 366 367
f 367 366 368
f 367 368 369
f 369 368 370
f 371 372 373
f 373 372 369
f 373 369 370
f 374 375 376
f 376 375 377
f 376 377 378
f 378 377 379
f 378 379 380
f 380 379 381
f 380 381 382
f 382 381 383
f 382 383 384
f 384 383 385
f 384 385 386
f 386 385 387
f 386 387 388
f 388 387 389
f 388 389 390
f 390 389 391
f 390 391 392
f 392 391 393
f 392 393 371
f 371 393 394
f 371 394 372
f 395 396 397
f 397 396 398
f 398 396 399
f 398 399 400
f 401 402 403
f 401 403 404
f 401 404 405
f 405 404 406
f 406 404 407
f 406 407 408
f 395 397 409
f 395 409 410
f 410 409 411
f 410 411 412
f 412 411 413
f 413 411 414
f 413 414 415
f 415 414 416
f 415 416 417
f 415 417 418
f 418 417 419
f 418 419 408
f 408 419 420
f 408 420 406
f 399 421 422
f 422 421 423
f 423 424 425
f 426 422 425
f 425 422 423
f 427 428 429
f 430 431 429
f 429 431 432
f 429 432 427
f 433 427 432
f 434 435 436
f 436 435 437
f 436 437 438
f 438 437 439
f 438 439 440
f 440 439 441
f 440 441 442
f 442 441 443
f 442 443 444
f 444 443 445
f 444 445 446
f 446 445 447
f 446 447 448
f 448 447 449
f 448 449 450
f 450 449 451
f 450 451 452
f 452 451 453
f 452 453 454
f 454 453 455
f 454 455 456
f 456 455 457
f 456 457 434
f 434 457 435
f 458 459 460
f 461 462 458
f 458 462 459
f 463 464 461
f 461 464 462
f 465 466 463
f 463 466 464
f 467 468 465
f 465 468 466
f 469 470 467
f 467 470 468
f 471 472 469
f 469 472 470
f 473 474 471
f 471 474 475
f 471 475 472
f 476 477 473
f 473 477 474
f 478 479 476
f 476 479 477
f 480 481 478
f 478 481 479
f 482 483 480
f 480 483 481
f 484 485 482
f 482 485 483
f 486 487 488
f 486 488 484
f 484 488 485
f 468 489 466
f 466 489 490
f 466 490 464
f 464 490 491
f 464 491 462
f 462 491 459
f 459 491 492
f 459 492 493
f 472 494 470
f 470 494 495
f 470 495 468
f 468 495 489
f 477 496 474
f 474 496 475
f 475 496 497
f 475 497 472
f 472 497 494
f 481 498 479
f 479 498 499
f 479 499 477
f 477 499 496
f 488 487 500
f 488 500 485
f 485 500 501
f 485 501 483
f 483 501 502
f 483 502 481
f 481 502 498
f 503 504 505
f 506 507 508
f 509 492 491
f 510 491 490
f 510 490 511
f 490 489 511
f 511 489 495
f 496 512 497
f 496 499 513
f 513 499 498
f 498 502 514
f 514 502 501
f 500 515 501
f 512 516 497
f 497 516 506
f 497 506 494
f 494 506 495
f 495 506 508
f 495 508 511
f 511 508 517
f 511 517 510
f 510 517 518
f 510 518 491
f 491 518 519
f 491 519 509
f 501 520 514
f 514 520 503
f 514 503 498
f 498 503 505
f 498 505 513
f 513 505 521
f 509 519 522
f 517 523 518
f 518 523 519
f 507 524 508
f 508 524 517
f 507 506 516
f 512 525 516
f 496 513 512
f 512 513 521
f 512 521 525
f 504 526 505
f 505 526 521
f 501 515 520
f 520 515 527
f 504 503 520
f 528 526 529
f 529 526 504
f 529 504 530
f 530 504 520
f 530 520 531
f 531 520 532
f 532 520 527
f 532 527 533
f 534 525 535
f 535 525 521
f 535 521 528
f 528 521 526
f 536 507 537
f 537 507 538
f 538 507 516
f 538 516 534
f 534 516 525
f 539 517 540
f 540 517 524
f 540 524 536
f 536 524 507
f 541 542 522
f 541 522 543
f 543 522 519
f 543 519 544
f 544 519 523
f 544 523 539
f 539 523 517
f 545 542 541
f 545 541 546
f 547 532 548
f 549 531 547
f 547 531 532
f 550 530 549
f 549 530 531
f 551 529 550
f 550 529 530
f 552 528 551
f 551 528 529
f 553 535 552
f 552 535 528
f 554 534 553
f 553 534 535
f 555 537 554
f 554 537 538
f 554 538 534
f 556 536 555
f 555 536 537
f 557 540 556
f 556 540 536
f 558 539 557
f 557 539 540
f 559 544 558
f 558 544 539
f 546 541 543
f 546 543 559
f 559 543 544
f 449 560 451
f 451 560 561
f 451 561 453
f 453 561 562
f 453 562 455
f 455 562 563
f 455 563 457
f 457 563 564
f 457 564 435
f 564 565 435
f 435 565 566
f 435 566 437
f 437 566 567
f 437 567 439
f 439 567 568
f 439 568 441
f 441 568 569
f 441 569 443
f 447 570 449
f 449 570 560
f 447 339 570
f 569 571 443
f 443 571 572
f 443 572 445
f 445 572 573
f 445 573 447
f 447 573 339
f 340 339 573
f 574 344 562
f 572 575 573
f 575 572 576
f 576 572 571
f 577 578 569
f 569 578 571
f 571 578 576
f 577 569 568
f 577 568 350
f 567 348 350
f 567 350 568
f 352 566 353
f 566 352 567
f 567 352 348
f 357 355 565
f 565 355 566
f 566 355 353
f 564 356 565
f 565 356 357
f 563 343 564
f 564 343 356
f 562 344 563
f 563 344 343
f 561 579 562
f 562 579 574
f 570 580 560
f 560 580 561
f 561 580 579
f 581 446 582
f 582 446 448
f 448 450 582
f 582 450 452
f 582 452 583
f 583 452 454
f 454 456 583
f 583 456 434
f 583 434 584
f 584 434 436
f 436 438 584
f 584 438 440
f 584 440 581
f 581 440 442
f 581 442 444
f 581 444 446
f 585 586 587
f 586 588 587
f 587 588 589
f 587 589 590
f 587 590 591
f 590 592 591
f 591 592 593
f 593 592 594
f 593 594 595
f 593 595 585
f 585 595 586
f 596 597 598
f 599 597 596
f 596 600 601
f 602 600 596
f 598 602 596
f 596 603 604
f 605 603 596
f 601 605 596
f 596 606 607
f 608 606 596
f 604 608 596
f 607 599 596
f 599 595 597
f 597 595 598
f 598 595 594
f 598 594 602
f 602 594 592
f 602 592 600
f 600 592 601
f 601 592 590
f 601 590 605
f 605 590 603
f 603 590 589
f 603 589 604
f 604 589 608
f 608 589 588
f 608 588 606
f 606 588 586
f 606 586 607
f 607 586 599
f 599 586 595
f 542 545 609
f 609 545 426
f 426 425 609
f 460 610 421
f 421 610 423
f 548 611 431
f 431 611 432
f 487 486 612
f 612 486 428
f 428 427 612
f 311 308 430
f 430 308 431
f 431 308 548
f 548 308 547
f 547 308 307
f 547 307 549
f 549 307 322
f 549 322 550
f 550 322 551
f 551 322 324
f 551 324 552
f 552 324 325
f 552 325 553
f 553 325 554
f 554 325 327
f 554 327 555
f 555 327 556
f 556 327 330
f 556 330 557
f 557 330 558
f 558 330 320
f 558 320 559
f 559 320 546
f 546 320 319
f 546 319 545
f 545 319 316
f 545 316 426
f 422 426 315
f 315 426 316
f 399 396 421
f 421 396 460
f 460 396 458
f 458 396 395
f 458 395 461
f 461 395 410
f 461 410 463
f 463 410 465
f 465 410 412
f 465 412 467
f 467 412 413
f 467 413 469
f 469 413 471
f 471 413 415
f 471 415 473
f 473 415 476
f 476 415 418
f 476 418 478
f 478 418 480
f 480 418 408
f 480 408 482
f 482 408 484
f 484 408 407
f 484 407 486
f 486 407 404
f 486 404 428
f 429 428 403
f 403 428 404
f 401 377 402
f 402 377 375
f 398 400 336
f 336 334 398
f 334 342 398
f 398 342 397
f 342 358 397
f 358 351 397
f 397 351 409
f 351 349 409
f 349 361 409
f 409 361 411
f 361 363 411
f 363 365 411
f 411 365 414
f 365 367 414
f 367 369 414
f 414 369 416
f 369 372 416
f 416 372 394
f 416 394 417
f 417 394 393
f 417 393 419
f 419 393 391
f 419 391 389
f 419 389 420
f 420 389 387
f 420 387 406
f 387 385 406
f 385 383 406
f 406 383 405
f 383 381 405
f 405 381 401
f 381 379 401
f 401 379 377
f 310 312 374
f 313 333 314
f 314 333 335
f 374 376 310
f 376 378 310
f 310 378 309
f 378 380 309
f 380 382 309
f 309 382 321
f 382 384 321
f 384 386 321
f 321 386 323
f 386 388 323
f 388 390 323
f 323 390 326
f 390 392 326
f 392 371 326
f 326 371 328
f 371 373 328
f 328 373 370
f 328 370 329
f 329 370 368
f 329 368 331
f 331 368 366
f 331 366 364
f 331 364 332
f 332 364 362
f 332 362 318
f 362 354 318
f 354 345 318
f 318 345 317
f 345 346 317
f 317 346 313
f 346 337 313
f 313 337 333
f 610 493 492
f 423 610 424
f 424 610 492
f 425 424 609
f 609 424 509
f 542 609 522
f 522 609 509
f 424 492 509
f 611 533 527
f 432 611 433
f 433 611 527
f 427 433 612
f 612 433 515
f 487 612 500
f 500 612 515
f 433 527 515
f 533 548 532
f 611 548 533
f 610 460 493
f 459 493 460
f 341 340 573
f 347 344 579
f 341 576 360
f 360 576 359
f 359 576 578
f 359 578 577
f 359 577 350
f 573 575 341
f 341 575 576
f 344 574 579
f 347 579 580
f 347 580 338
f 338 580 570
f 338 570 339
f 315 583 422
f 314 582 315
f 315 582 583
f 584 399 583
f 583 399 422
f 314 335 582
f 336 581 335
f 335 581 582
f 581 400 584
f 584 400 399
f 400 581 336
f 430 585 311
f 429 593 430
f 430 593 585
f 587 312 585
f 585 312 311
f 403 593 429
f 312 587 374
f 402 591 403
f 403 591 593
f 591 375 587
f 587 375 374
f 402 375 591
f 613 614 615
f 615 614 616
f 615 616 617
f 618 619 615
f 615 619 620
f 615 620 613
f 621 622 615
f 615 622 623
f 615 623 618
f 624 625 615
f 615 625 626
f 615 626 621
f 627 628 615
f 615 628 629
f 615 629 624
f 630 631 615
f 615 631 632
f 615 632 627
f 633 634 615
f 615 634 635
f 615 635 630
f 636 637 615
f 615 637 638
f 615 638 633
f 639 640 615
f 615 640 641
f 615 641 636
f 642 643 615
f 615 643 644
f 615 644 639
f 645 646 615
f 615 646 647
f 615 647 642
f 648 649 615
f 615 649 650
f 615 650 645
f 651 652 653
f 654 655 656
f 656 655 657
f 658 659 660
f 658 660 654
f 654 660 655
f 661 659 658
f 662 663 664
f 664 663 665
f 665 652 664
f 653 652 665
f 651 653 666
f 651 666 667
f 663 662 668
f 668 662 669
f 668 669 670
f 670 669 671
f 670 671 672
f 672 671 673
f 672 673 674
f 673 675 674
f 674 675 676
f 676 675 677
f 676 677 678
f 678 677 679
f 679 677 680
f 681 682 683
f 683 682 684
f 680 685 679
f 679 685 686
f 679 686 681
f 681 686 687
f 681 687 682
f 688 689 661
f 661 689 690
f 661 690 659
f 682 691 684
f 684 691 692
f 684 692 688
f 688 692 693
f 688 693 689
f 664 694 662
f 662 694 695
f 662 695 669
f 669 695 696
f 669 696 671
f 671 696 697
f 671 697 673
f 673 697 698
f 673 698 675
f 675 698 699
f 699 698 700
f 699 700 701
f 701 700 702
f 701 702 685
f 685 702 703
f 685 703 686
f 686 703 687
f 687 703 704
f 687 704 682
f 682 704 691
f 691 704 705
f 691 705 692
f 692 705 693
f 693 705 706
f 693 706 689
f 689 706 690
f 690 706 707
f 690 707 659
f 708 709 710
f 711 712 710
f 700 704 702
f 702 704 703
f 710 713 714
f 709 715 710
f 710 715 716
f 710 716 717
f 718 719 720
f 720 719 707
f 720 707 706
f 700 698 704
f 704 698 697
f 704 697 696
f 696 695 704
f 704 695 694
f 704 694 721
f 714 722 710
f 710 722 723
f 710 723 708
f 717 724 710
f 710 724 725
f 710 725 711
f 713 710 720
f 720 710 718
f 706 705 720
f 720 705 704
f 720 704 721
f 712 726 710
f 710 726 727
f 710 727 728
f 729 730 731
f 732 733 734
f 734 733 735
f 733 730 735
f 731 730 733
f 729 731 736
f 729 736 737
f 738 739 740
f 740 739 741
f 742 743 744
f 742 744 738
f 738 744 739
f 732 734 745
f 732 745 746
f 746 745 747
f 747 745 748
f 747 748 749
f 749 748 750
f 749 750 751
f 751 750 752
f 751 752 753
f 753 752 754
f 753 754 755
f 755 754 756
f 755 756 757
f 758 759 760
f 757 756 761
f 757 761 758
f 758 761 762
f 758 762 759
f 763 764 742
f 742 764 765
f 742 765 743
f 759 766 760
f 760 766 767
f 760 767 768
f 768 767 763
f 763 767 769
f 763 769 764
f 735 727 734
f 734 727 726
f 734 726 745
f 745 726 712
f 745 712 748
f 748 712 711
f 748 711 750
f 750 711 725
f 750 725 752
f 752 725 724
f 752 724 754
f 754 724 717
f 754 717 756
f 756 717 716
f 756 716 761
f 761 716 762
f 762 716 715
f 762 715 759
f 759 715 766
f 766 715 709
f 766 709 767
f 767 709 769
f 769 709 708
f 769 708 764
f 764 708 765
f 765 708 770
f 771 772 773
f 771 774 775
f 776 777 773
f 776 773 772
f 774 771 773
f 774 773 778
f 779 780 781
f 782 783 779
f 779 783 780
f 784 781 785
f 781 784 779
f 779 784 786
f 775 787 771
f 788 789 787
f 787 789 771
f 781 790 785
f 791 792 790
f 791 790 781
f 785 626 741
f 741 626 625
f 741 625 624
f 741 624 740
f 629 742 624
f 624 742 738
f 738 740 624
f 628 763 742
f 628 742 629
f 763 628 627
f 763 627 768
f 758 760 632
f 632 760 627
f 627 760 768
f 758 632 631
f 758 631 757
f 753 755 630
f 630 755 757
f 630 757 631
f 753 630 751
f 751 630 635
f 634 749 635
f 635 749 751
f 749 634 747
f 747 634 633
f 638 732 746
f 638 746 633
f 633 746 747
f 732 638 637
f 732 637 733
f 736 731 636
f 636 731 637
f 637 731 733
f 736 636 641
f 736 641 737
f 640 775 641
f 641 775 737
f 643 642 657
f 657 771 643
f 658 654 647
f 647 654 656
f 647 656 642
f 642 656 657
f 658 647 646
f 658 646 661
f 645 793 688
f 645 688 646
f 646 688 661
f 793 645 650
f 793 650 684
f 649 681 683
f 649 683 650
f 650 683 684
f 681 649 648
f 681 648 679
f 617 679 648
f 617 676 678
f 617 678 679
f 616 674 676
f 616 676 617
f 674 616 672
f 672 616 614
f 672 614 794
f 668 670 613
f 613 670 794
f 613 794 614
f 668 613 620
f 668 620 663
f 653 665 619
f 619 665 663
f 619 663 620
f 653 619 618
f 653 618 666
f 623 781 666
f 623 666 618
f 781 623 622
f 781 622 791
f 791 622 621
f 791 621 792
f 792 621 626
f 792 626 790
f 790 626 785
f 775 640 787
f 787 640 639
f 787 639 788
f 788 639 644
f 788 644 789
f 789 644 643
f 789 643 771
f 794 670 672
f 793 684 688
f 666 781 667
f 659 707 719
f 659 719 795
f 796 795 718
f 718 795 719
f 777 776 718
f 718 776 796
f 720 797 782
f 782 797 783
f 721 798 720
f 720 798 797
f 694 664 721
f 721 664 798
f 770 799 800
f 801 800 802
f 802 800 799
f 779 786 802
f 802 786 801
f 710 803 773
f 773 803 778
f 728 804 710
f 710 804 803
f 727 735 728
f 728 735 804
f 685 680 805
f 685 805 806
f 806 805 677
f 806 677 675
f 701 685 806
f 701 806 807
f 807 806 699
f 699 806 675
f 770 743 765
f 779 713 782
f 782 713 720
f 710 773 718
f 718 773 777
f 713 779 802
f 713 802 714
f 714 802 799
f 799 770 723
f 723 770 708
f 781 780 667
f 780 783 808
f 651 808 652
f 780 808 667
f 667 808 651
f 652 808 797
f 797 808 783
f 652 797 798
f 652 798 664
f 744 743 800
f 800 743 770
f 801 744 800
f 744 801 739
f 809 786 784
f 801 786 809
f 801 809 739
f 739 809 741
f 809 785 741
f 784 785 809
f 660 659 795
f 796 660 795
f 660 796 655
f 796 776 772
f 796 772 655
f 655 772 657
f 772 771 657
f 775 774 737
f 774 778 810
f 729 810 730
f 774 810 737
f 737 810 729
f 730 810 803
f 803 810 778
f 730 803 804
f 730 804 735

