# https://github.com/mikedh/trimesh
mtllib mtl_wrist_link
usemtl mtl_wrist_link
v 0.00602735 0.02414805 -0.01352164
v 0.00579899 0.02943419 -0.01375000
v 0.00585664 0.02358527 -0.01369236
v 0.00579899 0.02300000 -0.01375000
v 0.00667766 0.02512132 -0.01287132
v 0.00765093 0.02577164 -0.01189805
v 0.00783951 0.02985821 -0.01170948
v 0.00879899 0.02600000 -0.01075000
v 0.00877318 0.02995768 -0.01077580
v 0.00877919 0.02995813 -0.01076980
v 0.00989949 0.02600000 -0.00964949
v 0.00989949 0.03000000 -0.00964949
v 0.00989949 0.02600000 0.01014949
v 0.00989949 0.03000000 0.01014949
v 0.01185413 0.02600000 0.00769845
v 0.01185413 0.03000000 0.00769845
v 0.01321437 0.02600000 0.00487391
v 0.01321437 0.03000000 0.00487391
v 0.01391197 0.02600000 0.00181750
v 0.01391197 0.03000000 0.00181750
v 0.01391197 0.02600000 -0.00131750
v 0.01391197 0.03000000 -0.00131750
v 0.01321437 0.02600000 -0.00437391
v 0.01321437 0.03000000 -0.00437391
v 0.01249359 0.03000000 -0.00606746
v 0.01185413 0.02600000 -0.00719845
v 0.01185413 0.03000000 -0.00719845
v 0.00579899 0.02300000 0.01425000
v 0.00579899 0.02943419 0.01425000
v 0.00585664 0.02358527 0.01419236
v 0.00602735 0.02414805 0.01402164
v 0.00877318 0.02995768 0.01127580
v 0.00879899 0.02600000 0.01125000
v 0.00783951 0.02985821 0.01220948
v 0.00765093 0.02577164 0.01239805
v 0.00667766 0.02512132 0.01337132
v 0.00602735 -0.02414805 0.01402164
v 0.00579899 -0.02943419 0.01425000
v 0.00585664 -0.02358527 0.01419236
v 0.00579899 -0.02300000 0.01425000
v 0.00667766 -0.02512132 0.01337132
v 0.00765093 -0.02577164 0.01239805
v 0.00783951 -0.02985821 0.01220948
v 0.00879899 -0.02600000 0.01125000
v 0.00877318 -0.02995768 0.01127580
v 0.00877919 -0.02995813 0.01126980
v 0.00989949 -0.02600000 0.01014949
v 0.00989949 -0.03000000 0.01014949
v 0.00579899 -0.02300000 -0.01375000
v 0.00579899 -0.02943419 -0.01375000
v 0.00585664 -0.02358527 -0.01369236
v 0.00602735 -0.02414805 -0.01352164
v 0.00989949 -0.03000000 -0.00964949
v 0.00989949 -0.02600000 -0.00964949
v 0.00877318 -0.02995768 -0.01077580
v 0.00879899 -0.02600000 -0.01075000
v 0.00783951 -0.02985821 -0.01170948
v 0.00765093 -0.02577164 -0.01189805
v 0.00667766 -0.02512132 -0.01287132
v 0.01185413 -0.03000000 0.00769845
v 0.01185413 -0.02600000 0.00769845
v 0.01249359 -0.03000000 0.00656746
v 0.01321437 -0.02600000 0.00487391
v 0.01185413 -0.02600000 -0.00719845
v 0.01185413 -0.03000000 -0.00719845
v 0.01321437 -0.02600000 -0.00437391
v 0.01321437 -0.03000000 -0.00437391
v 0.01391197 -0.02600000 -0.00131750
v 0.01391197 -0.03000000 -0.00131750
v 0.01391197 -0.02600000 0.00181750
v 0.01391197 -0.03000000 0.00181750
v 0.01321437 -0.03000000 0.00487391
v -0.00523543 0.02600000 -0.00942421
v -0.00675634 0.02600000 -0.00843055
v 0.00000001 0.02600000 0.01125000
v -0.00357170 0.02600000 -0.01015399
v -0.00809296 0.02600000 -0.00720010
v -0.00920884 0.02600000 -0.00576643
v -0.01007351 0.02600000 -0.00416865
v -0.01096244 0.02600000 0.00115837
v -0.01066340 0.02600000 0.00295034
v -0.01007351 0.02600000 0.00466865
v 0.00000001 0.02600000 -0.01075000
v -0.00181054 0.02600000 -0.01059997
v -0.01066340 0.02600000 -0.00245034
v -0.01096244 0.02600000 -0.00065837
v -0.00920884 0.02600000 0.00626643
v -0.00809296 0.02600000 0.00770010
v -0.00675634 0.02600000 0.00893055
v -0.00523543 0.02600000 0.00992421
v -0.00357170 0.02600000 0.01065399
v -0.00181054 0.02600000 0.01109997
v 0.00000001 0.02300000 -0.01375000
v 0.00000001 0.02392705 -0.01360317
v 0.00000001 0.02476336 -0.01317705
v 0.00000001 0.02512132 -0.01287132
v 0.00000001 0.02542705 -0.01251336
v 0.00000001 0.02585317 -0.01167705
v -0.00196313 0.02585317 -0.01151438
v -0.00221001 0.02476336 -0.01299392
v -0.00228015 0.02392705 -0.01341423
v -0.00230432 0.02300000 -0.01355906
v -0.00418656 0.02300000 -0.01310936
v -0.00449812 0.02392705 -0.01285257
v -0.00454579 0.02300000 -0.01299144
v -0.00666326 0.02300000 -0.01206263
v -0.00659338 0.02392705 -0.01193350
v -0.00712658 0.02300000 -0.01180039
v -0.00850879 0.02392705 -0.01068210
v -0.00859898 0.02300000 -0.01079797
v -0.01019210 0.02392705 -0.00913250
v -0.00969001 0.02300000 -0.00985464
v -0.01030014 0.02300000 -0.00923194
v -0.01172034 0.02300000 -0.00740727
v -0.01159740 0.02392705 -0.00732697
v -0.01174139 0.02300000 -0.00737495
v -0.01268637 0.02392705 -0.00531475
v -0.01282083 0.02300000 -0.00537374
v -0.01317234 0.02300000 -0.00449233
v -0.01342926 0.02392705 -0.00315075
v -0.01357160 0.02300000 -0.00318680
v -0.01390722 0.02300000 -0.00135912
v -0.01380586 0.02392705 -0.00089399
v -0.01395219 0.02300000 -0.00090611
v -0.01395219 0.02300000 0.00140611
v -0.01380586 0.02392705 0.00139399
v -0.01390722 0.02300000 0.00185912
v -0.01342926 0.02392705 0.00365075
v -0.01357160 0.02300000 0.00368680
v -0.01268637 0.02392705 0.00581475
v -0.01317234 0.02300000 0.00499233
v -0.01282083 0.02300000 0.00587374
v -0.01174139 0.02300000 0.00787495
v -0.01159740 0.02392705 0.00782697
v -0.01172034 0.02300000 0.00790727
v -0.01030014 0.02300000 0.00973194
v -0.01019210 0.02392705 0.00963250
v -0.00969001 0.02300000 0.01035464
v -0.00850879 0.02392705 0.01118210
v -0.00859898 0.02300000 0.01129797
v -0.00712658 0.02300000 0.01230039
v -0.00659338 0.02392705 0.01243350
v -0.00230432 0.02300000 0.01405906
v -0.00228015 0.02392705 0.01391423
v -0.00418656 0.02300000 0.01360936
v -0.00449812 0.02392705 0.01335257
v -0.00454579 0.02300000 0.01349144
v -0.00666326 0.02300000 0.01256263
v -0.00435976 0.02476336 -0.01244954
v -0.00639057 0.02476336 -0.01155874
v -0.00824707 0.02476336 -0.01034583
v -0.00987860 0.02476336 -0.00884389
v -0.01124067 0.02476336 -0.00709390
v -0.01229613 0.02476336 -0.00514359
v -0.01301619 0.02476336 -0.00304615
v -0.01338119 0.02476336 -0.00085880
v -0.01338119 0.02476336 0.00135880
v -0.01301619 0.02476336 0.00354615
v -0.01229613 0.02476336 0.00564358
v -0.01124067 0.02476336 0.00759390
v -0.00987860 0.02476336 0.00934389
v -0.00824707 0.02476336 0.01084583
v -0.00639057 0.02476336 0.01205874
v -0.00435976 0.02476336 0.01294954
v -0.00221001 0.02476336 0.01349392
v -0.00210077 0.02542705 -0.01233928
v 0.00000001 0.02300000 0.01425000
v 0.00000001 0.02392705 0.01410317
v 0.00000001 0.02476336 0.01367705
v 0.00000001 0.02512132 0.01337132
v -0.00414426 0.02542705 -0.01182180
v -0.00607469 0.02542705 -0.01097504
v -0.00783942 0.02542705 -0.00982208
v -0.00939030 0.02542705 -0.00839439
v -0.01068505 0.02542705 -0.00673089
v -0.01168835 0.02542705 -0.00487698
v -0.01237280 0.02542705 -0.00288322
v -0.01271976 0.02542705 -0.00080399
v -0.01271976 0.02542705 0.00130399
v -0.01237280 0.02542705 0.00338322
v -0.01168835 0.02542705 0.00537698
v -0.01068505 0.02542705 0.00723089
v -0.00939030 0.02542705 0.00889439
v -0.00783942 0.02542705 0.01032208
v -0.00607469 0.02542705 0.01147504
v -0.00414426 0.02542705 0.01232180
v -0.00210077 0.02542705 0.01283928
v 0.00000001 0.02542705 0.01301336
v -0.00387270 0.02585317 -0.01103081
v -0.00567665 0.02585317 -0.01023953
v -0.00732575 0.02585317 -0.00916212
v -0.00877502 0.02585317 -0.00782797
v -0.00998493 0.02585317 -0.00627348
v -0.01092247 0.02585317 -0.00454104
v -0.01156209 0.02585317 -0.00267792
v -0.01188631 0.02585317 -0.00073493
v -0.01188631 0.02585317 0.00123493
v -0.01156209 0.02585317 0.00317792
v -0.01092247 0.02585317 0.00504104
v -0.00998493 0.02585317 0.00677348
v -0.00877502 0.02585317 0.00832797
v -0.00732575 0.02585317 0.00966212
v -0.00567665 0.02585317 0.01073953
v -0.00387270 0.02585317 0.01153081
v -0.00196313 0.02585317 0.01201438
v 0.00000001 0.02585317 0.01217705
v 0.00000001 -0.02600000 0.01125000
v 0.00000001 -0.02600000 -0.01075000
v -0.00357170 -0.02600000 0.01065399
v -0.00523543 -0.02600000 0.00992421
v -0.00675634 -0.02600000 0.00893055
v -0.00181054 -0.02600000 0.01109997
v -0.01096244 -0.02600000 -0.00065837
v -0.01066340 -0.02600000 -0.00245034
v -0.01007351 -0.02600000 -0.00416865
v -0.00809296 -0.02600000 0.00770010
v -0.00920884 -0.02600000 0.00626643
v -0.01007351 -0.02600000 0.00466865
v -0.00920884 -0.02600000 -0.00576643
v -0.00809296 -0.02600000 -0.00720010
v -0.00675634 -0.02600000 -0.00843055
v -0.01066340 -0.02600000 0.00295034
v -0.01096244 -0.02600000 0.00115837
v -0.00523543 -0.02600000 -0.00942421
v -0.00357170 -0.02600000 -0.01015399
v -0.00181054 -0.02600000 -0.01059997
v 0.00000001 -0.02300000 0.01425000
v 0.00000001 -0.02392705 0.01410317
v 0.00000001 -0.02476336 0.01367705
v 0.00000001 -0.02512132 0.01337132
v 0.00000001 -0.02542705 0.01301336
v 0.00000001 -0.02585317 0.01217705
v -0.00196313 -0.02585317 0.01201438
v -0.00221001 -0.02476336 0.01349392
v -0.00228015 -0.02392705 0.01391423
v -0.00230432 -0.02300000 0.01405906
v -0.00418656 -0.02300000 0.01360936
v -0.00449812 -0.02392705 0.01335257
v -0.00454579 -0.02300000 0.01349144
v -0.00666326 -0.02300000 0.01256263
v -0.00659338 -0.02392705 0.01243350
v -0.00712658 -0.02300000 0.01230039
v -0.00850879 -0.02392705 0.01118210
v -0.00859898 -0.02300000 0.01129797
v -0.01019210 -0.02392705 0.00963250
v -0.00969001 -0.02300000 0.01035464
v -0.01030014 -0.02300000 0.00973194
v -0.01172034 -0.02300000 0.00790727
v -0.01159740 -0.02392705 0.00782697
v -0.01174139 -0.02300000 0.00787495
v -0.01268637 -0.02392705 0.00581475
v -0.01282083 -0.02300000 0.00587374
v -0.01317234 -0.02300000 0.00499233
v -0.01342926 -0.02392705 0.00365075
v -0.01357160 -0.02300000 0.00368680
v -0.01390722 -0.02300000 0.00185912
v -0.01380586 -0.02392705 0.00139399
v -0.01395219 -0.02300000 0.00140611
v -0.01395219 -0.02300000 -0.00090611
v -0.01380586 -0.02392705 -0.00089399
v -0.01390722 -0.02300000 -0.00135912
v -0.01342926 -0.02392705 -0.00315075
v -0.01357160 -0.02300000 -0.00318680
v -0.01268637 -0.02392705 -0.00531475
v -0.01317234 -0.02300000 -0.00449233
v -0.01282083 -0.02300000 -0.00537374
v -0.01174139 -0.02300000 -0.00737495
v -0.01159740 -0.02392705 -0.00732697
v -0.01172034 -0.02300000 -0.00740727
v -0.01030014 -0.02300000 -0.00923194
v -0.01019210 -0.02392705 -0.00913250
v -0.00969001 -0.02300000 -0.00985464
v -0.00850879 -0.02392705 -0.01068210
v -0.00859898 -0.02300000 -0.01079797
v -0.00712658 -0.02300000 -0.01180039
v -0.00659338 -0.02392705 -0.01193350
v -0.00230432 -0.02300000 -0.01355906
v -0.00228015 -0.02392705 -0.01341423
v -0.00418656 -0.02300000 -0.01310936
v -0.00449812 -0.02392705 -0.01285257
v -0.00454579 -0.02300000 -0.01299144
v -0.00666326 -0.02300000 -0.01206263
v -0.00435976 -0.02476336 0.01294954
v -0.00639057 -0.02476336 0.01205874
v -0.00824707 -0.02476336 0.01084583
v -0.00987860 -0.02476336 0.00934389
v -0.01124067 -0.02476336 0.00759390
v -0.01229613 -0.02476336 0.00564358
v -0.01301619 -0.02476336 0.00354615
v -0.01338119 -0.02476336 0.00135880
v -0.01338119 -0.02476336 -0.00085880
v -0.01301619 -0.02476336 -0.00304615
v -0.01229613 -0.02476336 -0.00514359
v -0.01124067 -0.02476336 -0.00709390
v -0.00987860 -0.02476336 -0.00884389
v -0.00824707 -0.02476336 -0.01034583
v -0.00639057 -0.02476336 -0.01155874
v -0.00435976 -0.02476336 -0.01244954
v -0.00221001 -0.02476336 -0.01299392
v -0.00210077 -0.02542705 0.01283928
v 0.00000001 -0.02300000 -0.01375000
v 0.00000001 -0.02392705 -0.01360317
v 0.00000001 -0.02476336 -0.01317705
v 0.00000001 -0.02512132 -0.01287132
v -0.00414426 -0.02542705 0.01232180
v -0.00607469 -0.02542705 0.01147504
v -0.00783942 -0.02542705 0.01032208
v -0.00939030 -0.02542705 0.00889439
v -0.01068505 -0.02542705 0.00723089
v -0.01168835 -0.02542705 0.00537698
v -0.01237280 -0.02542705 0.00338322
v -0.01271976 -0.02542705 0.00130399
v -0.01271976 -0.02542705 -0.00080399
v -0.01237280 -0.02542705 -0.00288322
v -0.01168835 -0.02542705 -0.00487698
v -0.01068505 -0.02542705 -0.00673089
v -0.00939030 -0.02542705 -0.00839439
v -0.00783942 -0.02542705 -0.00982208
v -0.00607469 -0.02542705 -0.01097504
v -0.00414426 -0.02542705 -0.01182180
v -0.00210077 -0.02542705 -0.01233928
v 0.00000001 -0.02542705 -0.01251336
v -0.00387270 -0.02585317 0.01153081
v -0.00567665 -0.02585317 0.01073953
v -0.00732575 -0.02585317 0.00966212
v -0.00877502 -0.02585317 0.00832797
v -0.00998493 -0.02585317 0.00677348
v -0.01092247 -0.02585317 0.00504104
v -0.01156209 -0.02585317 0.00317792
v -0.01188631 -0.02585317 0.00123493
v -0.01188631 -0.02585317 -0.00073493
v -0.01156209 -0.02585317 -0.00267792
v -0.01092247 -0.02585317 -0.00454104
v -0.00998493 -0.02585317 -0.00627348
v -0.00877502 -0.02585317 -0.00782797
v -0.00732575 -0.02585317 -0.00916212
v -0.00567665 -0.02585317 -0.01023953
v -0.00387270 -0.02585317 -0.01103081
v -0.00196313 -0.02585317 -0.01151438
v 0.00000001 -0.02585317 -0.01167705
v 0.00000001 0.01394757 -0.01375000
v 0.00843894 0.02878862 -0.01375000
v 0.01003098 0.02827330 -0.01375000
v -0.00655321 0.00458861 -0.01212155
v -0.00655321 0.00458861 -0.00975000
v -0.00712911 0.00363146 -0.01179889
v -0.00715152 0.00358713 -0.01178560
v -0.00758606 0.00253707 -0.01151656
v -0.00735857 0.00313870 -0.00975000
v -0.00787095 0.00142332 -0.01132792
v -0.00792786 0.00107189 -0.00975000
v -0.00792683 0.00107270 -0.01128973
v -0.00735857 -0.00313870 -0.00975000
v -0.00779339 -0.00179855 -0.01138027
v -0.00792786 -0.00107189 -0.00975000
v -0.00796575 -0.00073469 -0.01126289
v -0.00799289 0.00033450 -0.01124407
v -0.00655321 -0.00458861 -0.01212155
v -0.00701288 -0.00385097 -0.01186691
v -0.00655321 -0.00458861 -0.00975000
v -0.00713808 -0.00361383 -0.01179357
v -0.00747676 -0.00284528 -0.01158631
v 0.01742754 -0.02488910 -0.01289586
v 0.00458861 -0.00655322 -0.00975000
v 0.01989034 -0.02296869 -0.01289586
v 0.00550295 -0.00580669 -0.00975000
v 0.02090015 -0.02205379 -0.01289586
v 0.02223240 -0.02071006 -0.01289586
v 0.00629746 -0.00493375 -0.00975000
v 0.02391777 -0.01873837 -0.01289586
v 0.02431951 -0.01821395 -0.01289586
v 0.00695490 -0.00395340 -0.00975000
v 0.02612773 -0.01550897 -0.01289586
v 0.00746091 -0.00288699 -0.00975000
v 0.02763634 -0.01262613 -0.01289586
v 0.02641468 -0.01501501 -0.01289586
v 0.00780452 -0.00175772 -0.00975000
v 0.02882802 -0.00959851 -0.01289586
v 0.02833655 -0.01096477 -0.01289586
v 0.00797821 -0.00059019 -0.00975000
v 0.03020977 -0.00324904 -0.01289586
v 0.02968912 -0.00646082 -0.01289586
v 0.00797821 0.00059019 -0.00975000
v 0.03038398 -0.00000000 -0.01289586
v 0.03030119 -0.00224154 -0.01289586
v 0.00780452 0.00175772 -0.00975000
v 0.03020977 0.00324904 -0.01289586
v 0.03030119 0.00224154 -0.01289586
v 0.00746091 0.00288699 -0.00975000
v 0.02882802 0.00959851 -0.01289586
v 0.02968912 0.00646082 -0.01289586
v 0.02612773 0.01550897 -0.01289586
v 0.02641468 0.01501501 -0.01289586
v 0.00695490 0.00395340 -0.00975000
v 0.02763634 0.01262613 -0.01289586
v 0.02833655 0.01096477 -0.01289586
v 0.02431951 0.01821395 -0.01289586
v 0.00629746 0.00493375 -0.00975000
v 0.02391777 0.01873837 -0.01289586
v 0.02223240 0.02071006 -0.01289586
v 0.00550295 0.00580669 -0.00975000
v 0.02090015 0.02205379 -0.01289586
v 0.01989034 0.02296869 -0.01289586
v 0.00458861 0.00655322 -0.00975000
v 0.01742754 0.02488910 -0.01289586
v 0.00000001 -0.01394757 -0.01375000
v 0.01003098 -0.02827330 -0.01375000
v 0.00843894 -0.02878862 -0.01375000
v 0.01029562 -0.02865125 -0.01275407
v -0.00196461 -0.01114183 -0.00975000
v 0.01163130 -0.02811428 -0.01279992
v 0.01397920 -0.02699449 -0.01286027
v -0.00102533 -0.01248324 -0.01371240
v -0.00262334 -0.01020106 -0.01350202
v -0.00418656 -0.00796853 -0.01310936
v -0.00539256 -0.00624620 -0.01266976
v 0.00415746 -0.00172208 -0.00975000
v 0.00449999 -0.00000000 -0.00975000
v -0.00318199 -0.00318198 -0.00975000
v -0.00415746 -0.00172208 -0.00975000
v -0.00450000 -0.00000000 -0.00975000
v 0.00318199 -0.00318198 -0.00975000
v 0.00172207 -0.00415746 -0.00975000
v 0.00000001 -0.00450000 -0.00975000
v -0.00172208 -0.00415746 -0.00975000
v 0.00318199 0.00318198 -0.00975000
v 0.00172207 0.00415746 -0.00975000
v -0.00196461 0.01114183 -0.00975000
v 0.00415746 0.00172208 -0.00975000
v 0.00000001 0.00450000 -0.00975000
v -0.00172208 0.00415746 -0.00975000
v -0.00318199 0.00318198 -0.00975000
v -0.00415746 0.00172208 -0.00975000
v 0.01029562 0.02865125 -0.01275407
v -0.00102533 0.01248324 -0.01371240
v -0.00262334 0.01020106 -0.01350202
v -0.00539256 0.00624620 -0.01266976
v -0.00418656 0.00796853 -0.01310936
v 0.01163130 0.02811428 -0.01279992
v 0.01397920 0.02699449 -0.01286027
v 0.00000001 -0.01394757 0.01425000
v 0.00843894 -0.02878862 0.01425000
v 0.01003098 -0.02827330 0.01425000
v -0.00415746 0.00172208 0.01025000
v -0.00318199 0.00318198 0.01025000
v -0.00655321 0.00458861 0.01025000
v 0.00797821 -0.00059019 0.01025000
v 0.00797821 0.00059019 0.01025000
v 0.00449999 -0.00000000 0.01025000
v 0.00780452 0.00175772 0.01025000
v 0.00415746 0.00172208 0.01025000
v -0.00196461 0.01114183 0.01025000
v 0.00318199 0.00318198 0.01025000
v 0.00550295 0.00580669 0.01025000
v 0.00172207 0.00415746 0.01025000
v 0.00458861 0.00655322 0.01025000
v 0.00000001 0.00450000 0.01025000
v -0.00172208 0.00415746 0.01025000
v 0.00746091 0.00288699 0.01025000
v 0.00695490 0.00395340 0.01025000
v 0.00629746 0.00493375 0.01025000
v 0.00318199 -0.00318198 0.01025000
v 0.00172207 -0.00415746 0.01025000
v 0.00458861 -0.00655322 0.01025000
v -0.00196461 -0.01114183 0.01025000
v 0.00780452 -0.00175772 0.01025000
v 0.00415746 -0.00172208 0.01025000
v 0.00746091 -0.00288699 0.01025000
v 0.00550295 -0.00580669 0.01025000
v 0.00629746 -0.00493375 0.01025000
v 0.00695490 -0.00395340 0.01025000
v -0.00735857 0.00313870 0.01025000
v -0.00792786 0.00107189 0.01025000
v -0.00450000 -0.00000000 0.01025000
v -0.00792786 -0.00107189 0.01025000
v -0.00415746 -0.00172208 0.01025000
v -0.00735857 -0.00313870 0.01025000
v -0.00318199 -0.00318198 0.01025000
v -0.00655321 -0.00458861 0.01025000
v -0.00172208 -0.00415746 0.01025000
v 0.00000001 -0.00450000 0.01025000
v -0.00655321 -0.00458861 0.01262155
v -0.00712911 -0.00363146 0.01229889
v -0.00715152 -0.00358713 0.01228560
v -0.00758606 -0.00253707 0.01201656
v -0.00787095 -0.00142332 0.01182792
v -0.00792683 -0.00107270 0.01178973
v -0.00779339 0.00179855 0.01188027
v -0.00796575 0.00073469 0.01176289
v -0.00799289 -0.00033450 0.01174407
v -0.00655321 0.00458861 0.01262155
v -0.00701288 0.00385097 0.01236691
v -0.00713808 0.00361383 0.01229357
v -0.00747676 0.00284528 0.01208631
v 0.01742754 0.02488910 0.01339586
v 0.01989034 0.02296869 0.01339586
v 0.02090015 0.02205379 0.01339586
v 0.02223240 0.02071006 0.01339586
v 0.02391777 0.01873837 0.01339586
v 0.02431951 0.01821395 0.01339586
v 0.02612773 0.01550897 0.01339586
v 0.02763634 0.01262613 0.01339586
v 0.02641468 0.01501501 0.01339586
v 0.02882802 0.00959851 0.01339586
v 0.02833655 0.01096477 0.01339586
v 0.03020977 0.00324904 0.01339586
v 0.02968912 0.00646082 0.01339586
v 0.03038398 -0.00000000 0.01339586
v 0.03030119 0.00224154 0.01339586
v 0.03020977 -0.00324904 0.01339586
v 0.03030119 -0.00224154 0.01339586
v 0.02882802 -0.00959851 0.01339586
v 0.02968912 -0.00646082 0.01339586
v 0.02612773 -0.01550897 0.01339586
v 0.02641468 -0.01501501 0.01339586
v 0.02763634 -0.01262613 0.01339586
v 0.02833655 -0.01096477 0.01339586
v 0.02431951 -0.01821395 0.01339586
v 0.02391777 -0.01873837 0.01339586
v 0.02223240 -0.02071006 0.01339586
v 0.02090015 -0.02205379 0.01339586
v 0.01989034 -0.02296869 0.01339586
v 0.01742754 -0.02488910 0.01339586
v 0.01029562 -0.02865125 0.01325407
v -0.00102533 -0.01248324 0.01421240
v -0.00262334 -0.01020106 0.01400202
v -0.00539256 -0.00624620 0.01316976
v -0.00418656 -0.00796853 0.01360936
v 0.01163130 -0.02811428 0.01329992
v 0.01397920 -0.02699449 0.01336027
v 0.01228585 -0.02969552 -0.00770200
v 0.01228585 0.02969552 0.00820199
v 0.00843894 0.02878862 0.01425000
v 0.01193354 0.02884400 0.01127787
v 0.01583633 0.02902814 0.00185547
v 0.01568737 0.02875507 -0.00455132
v 0.01228585 0.02969552 -0.00770200
v 0.01539082 0.02821149 -0.00770200
v 0.01193354 0.02884400 -0.01077787
v 0.02043446 0.02359702 -0.01077787
v 0.01779400 0.02564683 -0.01077787
v 0.01494949 0.02740253 -0.01077787
v 0.02284058 0.02127660 -0.01077787
v 0.02498478 0.01871221 -0.01077787
v 0.02684248 0.01593323 -0.01077787
v 0.03103617 0.00333792 -0.01077787
v 0.03050130 0.00663756 -0.01077787
v 0.02961663 0.00986109 -0.01077787
v 0.02839235 0.01297153 -0.01077787
v 0.03121515 -0.00000000 -0.01077787
v 0.03103617 -0.00333792 -0.01077787
v 0.03050130 -0.00663756 -0.01077787
v 0.02961663 -0.00986109 -0.01077787
v 0.02498478 -0.01871221 -0.01077787
v 0.02684248 -0.01593323 -0.01077787
v 0.02839235 -0.01297153 -0.01077787
v 0.02284058 -0.02127660 -0.01077787
v 0.02043446 -0.02359702 -0.01077787
v 0.01779400 -0.02564683 -0.01077787
v 0.01494949 -0.02740253 -0.01077787
v 0.01193354 -0.02884400 -0.01077787
v 0.01568737 -0.02875507 0.00505132
v 0.01228585 -0.02969552 0.00820199
v 0.01539082 -0.02821149 0.00820199
v 0.01193354 -0.02884400 0.01127787
v 0.02043446 -0.02359702 0.01127787
v 0.01779400 -0.02564683 0.01127787
v 0.01494949 -0.02740253 0.01127787
v 0.02284058 -0.02127660 0.01127787
v 0.02498478 -0.01871221 0.01127787
v 0.02684248 -0.01593323 0.01127787
v 0.03103617 -0.00333792 0.01127787
v 0.03050130 -0.00663756 0.01127787
v 0.02961663 -0.00986109 0.01127787
v 0.02839235 -0.01297153 0.01127787
v 0.03121515 -0.00000000 0.01127787
v 0.03103617 0.00333792 0.01127787
v 0.03050130 0.00663756 0.01127787
v 0.02961663 0.00986109 0.01127787
v 0.02498478 0.01871221 0.01127787
v 0.02684248 0.01593323 0.01127787
v 0.02839235 0.01297153 0.01127787
v 0.02284058 0.02127660 0.01127787
v 0.02043446 0.02359702 0.01127787
v 0.01779400 0.02564683 0.01127787
v 0.01494949 0.02740253 0.01127787
v 0.01397920 0.02699449 0.01336027
v 0.01163130 0.02811428 0.01329992
v 0.01029562 0.02865125 0.01325407
v 0.01003098 0.02827330 0.01425000
v 0.01831930 0.02640396 -0.00770200
v 0.02103770 0.02429363 -0.00770200
v 0.02351487 0.02190472 -0.00770200
v 0.02572238 0.01926462 -0.00770200
v 0.02763489 0.01640360 -0.00770200
v 0.02923053 0.01335447 -0.00770200
v 0.03049096 0.01015220 -0.00770200
v 0.03140173 0.00683351 -0.00770200
v 0.03195242 0.00343646 -0.00770200
v 0.03213667 -0.00000000 -0.00770200
v 0.03195242 -0.00343646 -0.00770200
v 0.03140173 -0.00683351 -0.00770200
v 0.03049096 -0.01015220 -0.00770200
v 0.02923053 -0.01335447 -0.00770200
v 0.02763489 -0.01640360 -0.00770200
v 0.02572238 -0.01926462 -0.00770200
v 0.02351487 -0.02190472 -0.00770200
v 0.02103770 -0.02429363 -0.00770200
v 0.01831930 -0.02640396 -0.00770200
v 0.01539082 -0.02821149 -0.00770200
v 0.01867228 0.02691270 -0.00455132
v 0.02144306 0.02476172 -0.00455132
v 0.02396794 0.02232677 -0.00455132
v 0.02621799 0.01963580 -0.00455132
v 0.02816736 0.01671966 -0.00455132
v 0.02979373 0.01361178 -0.00455132
v 0.03107845 0.01034781 -0.00455132
v 0.03200678 0.00696518 -0.00455132
v 0.03256806 0.00350267 -0.00455132
v 0.03275587 -0.00000000 -0.00455132
v 0.03256806 -0.00350267 -0.00455132
v 0.03200678 -0.00696518 -0.00455132
v 0.03107845 -0.01034781 -0.00455132
v 0.02979373 -0.01361178 -0.00455132
v 0.02816736 -0.01671966 -0.00455132
v 0.02621799 -0.01963580 -0.00455132
v 0.02396794 -0.02232677 -0.00455132
v 0.02144306 -0.02476172 -0.00455132
v 0.01867228 -0.02691270 -0.00455132
v 0.01568737 -0.02875507 -0.00455132
v 0.01583633 -0.02902814 -0.00135547
v 0.01884959 -0.02716828 -0.00135547
v 0.02164670 -0.02499686 -0.00135547
v 0.02419556 -0.02253880 -0.00135547
v 0.02646696 -0.01982227 -0.00135547
v 0.02843485 -0.01687844 -0.00135547
v 0.03007667 -0.01374104 -0.00135547
v 0.03137358 -0.01044608 -0.00135547
v 0.03231073 -0.00703132 -0.00135547
v 0.03287735 -0.00353594 -0.00135547
v 0.03306694 -0.00000000 -0.00135547
v 0.03287735 0.00353594 -0.00135547
v 0.03231073 0.00703132 -0.00135547
v 0.03137358 0.01044608 -0.00135547
v 0.03007667 0.01374104 -0.00135547
v 0.02843485 0.01687844 -0.00135547
v 0.02646696 0.01982227 -0.00135547
v 0.02419556 0.02253880 -0.00135547
v 0.02164670 0.02499686 -0.00135547
v 0.01884959 0.02716828 -0.00135547
v 0.01583633 0.02902814 -0.00135547
v 0.01884959 0.02716828 0.00185547
v 0.02164670 0.02499686 0.00185547
v 0.02419556 0.02253880 0.00185547
v 0.02646696 0.01982227 0.00185547
v 0.02843485 0.01687844 0.00185547
v 0.03007667 0.01374104 0.00185547
v 0.03137358 0.01044608 0.00185547
v 0.03231073 0.00703132 0.00185547
v 0.03287735 0.00353594 0.00185547
v 0.03306694 -0.00000000 0.00185547
v 0.03287735 -0.00353594 0.00185547
v 0.03231073 -0.00703132 0.00185547
v 0.03137358 -0.01044608 0.00185547
v 0.03007667 -0.01374104 0.00185547
v 0.02843485 -0.01687844 0.00185547
v 0.02646696 -0.01982227 0.00185547
v 0.02419556 -0.02253880 0.00185547
v 0.02164670 -0.02499686 0.00185547
v 0.01884959 -0.02716828 0.00185547
v 0.01583633 -0.02902814 0.00185547
v 0.01867228 -0.02691270 0.00505132
v 0.01831930 -0.02640396 0.00820199
v 0.02144306 -0.02476172 0.00505132
v 0.02103770 -0.02429363 0.00820199
v 0.02396794 -0.02232677 0.00505132
v 0.02351487 -0.02190472 0.00820199
v 0.02621799 -0.01963580 0.00505132
v 0.02572238 -0.01926462 0.00820199
v 0.02816736 -0.01671966 0.00505132
v 0.02763489 -0.01640360 0.00820199
v 0.02979373 -0.01361178 0.00505132
v 0.02923053 -0.01335447 0.00820199
v 0.03107845 -0.01034781 0.00505132
v 0.03049096 -0.01015220 0.00820199
v 0.03200678 -0.00696518 0.00505132
v 0.03140173 -0.00683351 0.00820199
v 0.03256806 -0.00350267 0.00505132
v 0.03195242 -0.00343646 0.00820199
v 0.03275587 -0.00000000 0.00505132
v 0.03213667 -0.00000000 0.00820199
v 0.03256806 0.00350267 0.00505132
v 0.03195242 0.00343646 0.00820199
v 0.03200678 0.00696518 0.00505132
v 0.03140173 0.00683351 0.00820199
v 0.03107845 0.01034781 0.00505132
v 0.03049096 0.01015220 0.00820199
v 0.02979373 0.01361178 0.00505132
v 0.02923053 0.01335447 0.00820199
v 0.02816736 0.01671966 0.00505132
v 0.02763489 0.01640360 0.00820199
v 0.02621799 0.01963580 0.00505132
v 0.02572238 0.01926462 0.00820199
v 0.02396794 0.02232677 0.00505132
v 0.02351487 0.02190472 0.00820199
v 0.02144306 0.02476172 0.00505132
v 0.02103770 0.02429363 0.00820199
v 0.01867228 0.02691270 0.00505132
v 0.01831930 0.02640396 0.00820199
v 0.01568737 0.02875507 0.00505132
v 0.01539082 0.02821149 0.00820199
v 0.00000001 0.01394757 0.01425000
v -0.00102533 0.01248324 0.01421240
v -0.00262334 0.01020106 0.01400202
v -0.00418656 0.00796853 0.01360936
v -0.00539256 0.00624620 0.01316976
v 0.00172207 -0.00415746 -0.01000000
v 0.00318199 -0.00318198 -0.01000000
v 0.00415746 -0.00172208 -0.01000000
v 0.00449999 -0.00000000 -0.01000000
v 0.00415746 0.00172208 -0.01000000
v 0.00318199 0.00318198 -0.01000000
v 0.00172207 0.00415746 -0.01000000
v 0.00000001 0.00450000 -0.01000000
v -0.00172208 0.00415746 -0.01000000
v -0.00318199 0.00318198 -0.01000000
v -0.00415746 0.00172208 -0.01000000
v -0.00450000 -0.00000000 -0.01000000
v -0.00415746 -0.00172208 -0.01000000
v -0.00318199 -0.00318198 -0.01000000
v -0.00172208 -0.00415746 -0.01000000
v 0.00000001 -0.00450000 -0.01000000
v 0.00000001 0.00400000 -0.01000000
v 0.00083164 0.00391259 -0.01000000
v 0.00235114 0.00323607 -0.01000000
v 0.00346411 0.00200000 -0.01000000
v 0.00397810 0.00041811 -0.01000000
v 0.00380423 -0.00123607 -0.01000000
v 0.00297258 -0.00267652 -0.01000000
v 0.00162694 -0.00365418 -0.01000000
v 0.00000001 -0.00400000 -0.01000000
v -0.00162695 -0.00365418 -0.01000000
v -0.00297258 -0.00267652 -0.01000000
v -0.00380423 -0.00123607 -0.01000000
v -0.00397808 0.00041811 -0.01000000
v -0.00346410 0.00200000 -0.01000000
v -0.00235114 0.00323607 -0.01000000
v -0.00083164 0.00391259 -0.01000000
v 0.00162694 -0.00365418 -0.01175000
v 0.00297258 -0.00267652 -0.01175000
v 0.00380423 -0.00123607 -0.01175000
v 0.00397810 0.00041811 -0.01175000
v 0.00346411 0.00200000 -0.01175000
v 0.00235114 0.00323607 -0.01175000
v 0.00083164 0.00391259 -0.01175000
v 0.00000001 0.00400000 -0.01175000
v -0.00083164 0.00391259 -0.01175000
v -0.00235114 0.00323607 -0.01175000
v -0.00346410 0.00200000 -0.01175000
v -0.00397808 0.00041811 -0.01175000
v -0.00380423 -0.00123607 -0.01175000
v -0.00297258 -0.00267652 -0.01175000
v -0.00162695 -0.00365418 -0.01175000
v 0.00000001 -0.00400000 -0.01175000
v 0.00000001 0.00350000 -0.01225000
v 0.00072769 0.00342352 -0.01225000
v 0.00000001 -0.00000000 -0.01225000
v -0.00303108 0.00175000 -0.01225000
v -0.00205725 0.00283156 -0.01225000
v -0.00072769 0.00342352 -0.01225000
v -0.00260101 -0.00234196 -0.01225000
v -0.00332870 -0.00108156 -0.01225000
v -0.00348083 0.00036585 -0.01225000
v 0.00142357 -0.00319741 -0.01225000
v 0.00000001 -0.00350000 -0.01225000
v -0.00142358 -0.00319741 -0.01225000
v 0.00348083 0.00036585 -0.01225000
v 0.00332870 -0.00108156 -0.01225000
v 0.00260100 -0.00234196 -0.01225000
v 0.00205725 0.00283156 -0.01225000
v 0.00303110 0.00175000 -0.01225000
v 0.00000001 -0.00450000 0.01050000
v 0.00172207 -0.00415746 0.01050000
v 0.00318199 -0.00318198 0.01050000
v 0.00415746 -0.00172208 0.01050000
v 0.00449999 -0.00000000 0.01050000
v 0.00415746 0.00172208 0.01050000
v 0.00318199 0.00318198 0.01050000
v 0.00172207 0.00415746 0.01050000
v 0.00000001 0.00450000 0.01050000
v -0.00172208 0.00415746 0.01050000
v -0.00318199 0.00318198 0.01050000
v -0.00415746 0.00172208 0.01050000
v -0.00450000 -0.00000000 0.01050000
v -0.00415746 -0.00172208 0.01050000
v -0.00318199 -0.00318198 0.01050000
v -0.00172208 -0.00415746 0.01050000
v -0.00346410 0.00200000 0.01050000
v -0.00397808 0.00041811 0.01050000
v -0.00380423 -0.00123607 0.01050000
v -0.00297258 -0.00267652 0.01050000
v -0.00162695 -0.00365418 0.01050000
v 0.00000001 -0.00400000 0.01050000
v 0.00162694 -0.00365418 0.01050000
v 0.00297258 -0.00267652 0.01050000
v 0.00380423 -0.00123607 0.01050000
v 0.00397810 0.00041811 0.01050000
v 0.00346411 0.00200000 0.01050000
v 0.00235114 0.00323607 0.01050000
v 0.00083164 0.00391259 0.01050000
v 0.00000001 0.00400000 0.01050000
v -0.00083164 0.00391259 0.01050000
v -0.00235114 0.00323607 0.01050000
v 0.00000001 -0.00400000 0.01225000
v 0.00162694 -0.00365418 0.01225000
v 0.00297258 -0.00267652 0.01225000
v 0.00380423 -0.00123607 0.01225000
v 0.00397810 0.00041811 0.01225000
v 0.00346411 0.00200000 0.01225000
v 0.00235114 0.00323607 0.01225000
v 0.00083164 0.00391259 0.01225000
v 0.00000001 0.00400000 0.01225000
v -0.00083164 0.00391259 0.01225000
v -0.00235114 0.00323607 0.01225000
v -0.00346410 0.00200000 0.01225000
v -0.00397808 0.00041811 0.01225000
v -0.00380423 -0.00123607 0.01225000
v -0.00297258 -0.00267652 0.01225000
v -0.00162695 -0.00365418 0.01225000
v 0.00000001 0.00350000 0.01275000
v -0.00072769 0.00342352 0.01275000
v 0.00000001 -0.00000000 0.01275000
v 0.00303110 0.00175000 0.01275000
v 0.00205725 0.00283156 0.01275000
v 0.00072769 0.00342352 0.01275000
v 0.00260100 -0.00234196 0.01275000
v 0.00332870 -0.00108156 0.01275000
v 0.00348083 0.00036585 0.01275000
v -0.00142358 -0.00319741 0.01275000
v 0.00000001 -0.00350000 0.01275000
v 0.00142357 -0.00319741 0.01275000
v -0.00348083 0.00036585 0.01275000
v -0.00332870 -0.00108156 0.01275000
v -0.00260101 -0.00234196 0.01275000
v -0.00205725 0.00283156 0.01275000
v -0.00303108 0.00175000 0.01275000
f 1 2 3
f 3 2 4
f 1 5 2
f 2 5 6
f 2 6 7
f 7 6 8
f 7 8 9
f 9 8 10
f 10 8 11
f 10 11 12
f 13 14 15
f 15 14 16
f 15 16 17
f 17 16 18
f 17 18 19
f 19 18 20
f 19 20 21
f 21 20 22
f 21 22 23
f 22 24 23
f 23 24 25
f 23 25 26
f 26 25 27
f 26 27 11
f 11 27 12
f 28 29 30
f 30 29 31
f 14 13 32
f 32 13 33
f 32 33 34
f 34 33 35
f 34 35 29
f 29 35 36
f 29 36 31
f 37 38 39
f 39 38 40
f 37 41 38
f 38 41 42
f 38 42 43
f 43 42 44
f 43 44 45
f 45 44 46
f 46 44 47
f 46 47 48
f 49 50 51
f 51 50 52
f 53 54 55
f 55 54 56
f 55 56 57
f 57 56 58
f 57 58 50
f 50 58 59
f 50 59 52
f 48 47 60
f 60 47 61
f 60 61 62
f 62 61 63
f 54 53 64
f 64 53 65
f 64 65 66
f 66 65 67
f 66 67 68
f 68 67 69
f 68 69 70
f 70 69 71
f 70 71 63
f 63 71 72
f 63 72 62
f 73 74 75
f 73 75 76
f 74 77 75
f 75 77 78
f 75 78 79
f 80 81 75
f 75 81 82
f 33 13 83
f 83 13 15
f 83 15 17
f 33 83 75
f 75 83 84
f 75 84 76
f 79 85 75
f 75 85 86
f 75 86 80
f 82 87 75
f 75 87 88
f 75 88 89
f 23 26 83
f 83 26 11
f 83 11 8
f 89 90 75
f 75 90 91
f 75 91 92
f 17 19 83
f 83 19 21
f 83 21 23
f 4 93 3
f 3 93 94
f 95 5 94
f 94 5 1
f 94 1 3
f 95 96 5
f 5 96 97
f 5 97 6
f 97 98 6
f 6 98 83
f 6 83 8
f 83 98 99
f 96 95 100
f 95 94 101
f 94 93 102
f 94 102 101
f 101 102 103
f 101 103 104
f 103 105 104
f 104 105 106
f 104 106 107
f 107 106 108
f 107 108 109
f 109 108 110
f 109 110 111
f 111 110 112
f 112 113 111
f 111 113 114
f 111 114 115
f 115 114 116
f 115 116 117
f 116 118 117
f 117 118 119
f 117 119 120
f 119 121 120
f 120 121 122
f 120 122 123
f 122 124 123
f 123 124 125
f 123 125 126
f 126 125 127
f 126 127 128
f 128 127 129
f 128 129 130
f 130 129 131
f 131 132 130
f 130 132 133
f 130 133 134
f 133 135 134
f 134 135 136
f 134 136 137
f 137 136 138
f 137 138 139
f 138 140 139
f 139 140 141
f 139 141 142
f 143 144 145
f 145 144 146
f 145 146 147
f 147 146 142
f 147 142 148
f 148 142 141
f 95 101 100
f 100 101 104
f 100 104 149
f 149 104 107
f 149 107 150
f 150 107 109
f 150 109 151
f 151 109 111
f 151 111 152
f 152 111 115
f 152 115 153
f 153 115 117
f 153 117 154
f 154 117 120
f 154 120 155
f 155 120 123
f 155 123 156
f 156 123 126
f 156 126 157
f 157 126 128
f 157 128 158
f 158 128 130
f 158 130 159
f 159 130 134
f 159 134 160
f 160 134 137
f 160 137 161
f 161 137 139
f 161 139 162
f 162 139 142
f 162 142 163
f 163 142 146
f 163 146 164
f 164 146 144
f 164 144 165
f 98 97 166
f 166 97 96
f 143 167 144
f 144 167 168
f 144 168 165
f 165 168 169
f 165 169 170
f 96 100 166
f 166 100 149
f 166 149 171
f 171 149 150
f 171 150 172
f 172 150 151
f 172 151 173
f 173 151 152
f 173 152 174
f 174 152 153
f 174 153 175
f 175 153 154
f 175 154 176
f 176 154 155
f 176 155 177
f 177 155 156
f 177 156 178
f 178 156 157
f 178 157 179
f 179 157 158
f 179 158 180
f 180 158 159
f 180 159 181
f 181 159 160
f 181 160 182
f 182 160 161
f 182 161 183
f 183 161 162
f 183 162 184
f 184 162 163
f 184 163 185
f 185 163 164
f 185 164 186
f 186 164 165
f 186 165 187
f 187 165 170
f 187 170 188
f 98 166 99
f 99 166 171
f 99 171 189
f 189 171 172
f 189 172 190
f 190 172 173
f 190 173 191
f 191 173 174
f 191 174 192
f 192 174 175
f 192 175 193
f 193 175 176
f 193 176 194
f 194 176 177
f 194 177 195
f 195 177 178
f 195 178 196
f 196 178 179
f 196 179 197
f 197 179 180
f 197 180 198
f 198 180 181
f 198 181 199
f 199 181 182
f 199 182 200
f 200 182 183
f 200 183 201
f 201 183 184
f 201 184 202
f 202 184 185
f 202 185 203
f 203 185 186
f 203 186 204
f 204 186 187
f 204 187 205
f 205 187 188
f 205 188 206
f 83 99 84
f 84 99 189
f 84 189 76
f 76 189 190
f 76 190 73
f 73 190 191
f 73 191 74
f 74 191 192
f 74 192 77
f 77 192 193
f 77 193 78
f 78 193 194
f 78 194 79
f 79 194 195
f 79 195 85
f 85 195 196
f 85 196 86
f 86 196 197
f 86 197 80
f 80 197 198
f 80 198 81
f 81 198 199
f 81 199 82
f 82 199 200
f 82 200 87
f 87 200 201
f 87 201 88
f 88 201 202
f 88 202 89
f 89 202 203
f 89 203 90
f 90 203 204
f 90 204 91
f 91 204 205
f 91 205 92
f 92 205 206
f 92 206 75
f 33 75 206
f 188 36 206
f 206 36 35
f 206 35 33
f 168 167 28
f 188 170 36
f 36 170 169
f 36 169 31
f 31 169 168
f 31 168 30
f 30 168 28
f 47 44 207
f 61 47 208
f 208 56 54
f 209 210 208
f 208 210 211
f 47 207 208
f 208 207 212
f 208 212 209
f 213 214 208
f 208 214 215
f 211 216 208
f 208 216 217
f 208 217 218
f 215 219 208
f 208 219 220
f 208 220 221
f 54 64 208
f 208 64 66
f 208 66 68
f 218 222 208
f 208 222 223
f 208 223 213
f 221 224 208
f 208 224 225
f 208 225 226
f 68 70 208
f 208 70 63
f 208 63 61
f 40 227 39
f 39 227 228
f 229 41 228
f 228 41 37
f 228 37 39
f 229 230 41
f 41 230 231
f 41 231 42
f 231 232 42
f 42 232 207
f 42 207 44
f 207 232 233
f 230 229 234
f 229 228 235
f 228 227 236
f 228 236 235
f 235 236 237
f 235 237 238
f 237 239 238
f 238 239 240
f 238 240 241
f 241 240 242
f 241 242 243
f 243 242 244
f 243 244 245
f 245 244 246
f 246 247 245
f 245 247 248
f 245 248 249
f 249 248 250
f 249 250 251
f 250 252 251
f 251 252 253
f 251 253 254
f 253 255 254
f 254 255 256
f 254 256 257
f 256 258 257
f 257 258 259
f 257 259 260
f 260 259 261
f 260 261 262
f 262 261 263
f 262 263 264
f 264 263 265
f 265 266 264
f 264 266 267
f 264 267 268
f 267 269 268
f 268 269 270
f 268 270 271
f 271 270 272
f 271 272 273
f 272 274 273
f 273 274 275
f 273 275 276
f 277 278 279
f 279 278 280
f 279 280 281
f 281 280 276
f 281 276 282
f 282 276 275
f 229 235 234
f 234 235 238
f 234 238 283
f 283 238 241
f 283 241 284
f 284 241 243
f 284 243 285
f 285 243 245
f 285 245 286
f 286 245 249
f 286 249 287
f 287 249 251
f 287 251 288
f 288 251 254
f 288 254 289
f 289 254 257
f 289 257 290
f 290 257 260
f 290 260 291
f 291 260 262
f 291 262 292
f 292 262 264
f 292 264 293
f 293 264 268
f 293 268 294
f 294 268 271
f 294 271 295
f 295 271 273
f 295 273 296
f 296 273 276
f 296 276 297
f 297 276 280
f 297 280 298
f 298 280 278
f 298 278 299
f 232 231 300
f 300 231 230
f 277 301 278
f 278 301 302
f 278 302 299
f 299 302 303
f 299 303 304
f 230 234 300
f 300 234 283
f 300 283 305
f 305 283 284
f 305 284 306
f 306 284 285
f 306 285 307
f 307 285 286
f 307 286 308
f 308 286 287
f 308 287 309
f 309 287 288
f 309 288 310
f 310 288 289
f 310 289 311
f 311 289 290
f 311 290 312
f 312 290 291
f 312 291 313
f 313 291 292
f 313 292 314
f 314 292 293
f 314 293 315
f 315 293 294
f 315 294 316
f 316 294 295
f 316 295 317
f 317 295 296
f 317 296 318
f 318 296 297
f 318 297 319
f 319 297 298
f 319 298 320
f 320 298 299
f 320 299 321
f 321 299 304
f 321 304 322
f 232 300 233
f 233 300 305
f 233 305 323
f 323 305 306
f 323 306 324
f 324 306 307
f 324 307 325
f 325 307 308
f 325 308 326
f 326 308 309
f 326 309 327
f 327 309 310
f 327 310 328
f 328 310 311
f 328 311 329
f 329 311 312
f 329 312 330
f 330 312 313
f 330 313 331
f 331 313 314
f 331 314 332
f 332 314 315
f 332 315 333
f 333 315 316
f 333 316 334
f 334 316 317
f 334 317 335
f 335 317 318
f 335 318 336
f 336 318 319
f 336 319 337
f 337 319 320
f 337 320 338
f 338 320 321
f 338 321 339
f 339 321 322
f 339 322 340
f 207 233 212
f 212 233 323
f 212 323 209
f 209 323 324
f 209 324 210
f 210 324 325
f 210 325 211
f 211 325 326
f 211 326 216
f 216 326 327
f 216 327 217
f 217 327 328
f 217 328 218
f 218 328 329
f 218 329 222
f 222 329 330
f 222 330 223
f 223 330 331
f 223 331 213
f 213 331 332
f 213 332 214
f 214 332 333
f 214 333 215
f 215 333 334
f 215 334 219
f 219 334 335
f 219 335 220
f 220 335 336
f 220 336 221
f 221 336 337
f 221 337 224
f 224 337 338
f 224 338 225
f 225 338 339
f 225 339 226
f 226 339 340
f 226 340 208
f 56 208 340
f 322 59 340
f 340 59 58
f 340 58 56
f 302 301 49
f 322 304 59
f 59 304 303
f 59 303 52
f 52 303 302
f 52 302 51
f 51 302 49
f 341 93 4
f 2 342 4
f 4 342 343
f 4 343 341
f 344 345 346
f 346 345 347
f 347 345 348
f 348 345 349
f 348 349 350
f 350 349 351
f 350 351 352
f 353 354 355
f 355 354 356
f 355 356 351
f 351 356 357
f 351 357 352
f 358 359 360
f 360 359 361
f 360 361 353
f 353 361 362
f 353 362 354
f 363 364 365
f 365 364 366
f 365 366 367
f 367 366 368
f 368 366 369
f 368 369 370
f 370 369 371
f 371 369 372
f 371 372 373
f 374 375 372
f 372 375 376
f 372 376 373
f 377 378 374
f 374 378 379
f 374 379 375
f 380 381 377
f 377 381 382
f 377 382 378
f 383 384 380
f 380 384 385
f 380 385 381
f 386 387 383
f 383 387 388
f 383 388 384
f 389 390 386
f 386 390 391
f 386 391 387
f 392 393 394
f 394 393 395
f 394 395 389
f 389 395 396
f 389 396 390
f 392 394 397
f 397 394 398
f 397 398 399
f 399 398 400
f 400 398 401
f 400 401 402
f 402 401 403
f 403 401 404
f 403 404 405
f 49 301 406
f 406 407 49
f 49 407 408
f 49 408 50
f 409 410 411
f 411 410 364
f 411 364 412
f 412 364 363
f 409 407 410
f 410 407 406
f 410 406 413
f 413 414 410
f 410 414 415
f 410 415 360
f 360 415 416
f 360 416 358
f 374 417 377
f 377 417 418
f 377 418 380
f 380 418 383
f 410 360 419
f 419 360 420
f 420 360 353
f 420 353 421
f 374 372 417
f 417 372 369
f 417 369 422
f 422 369 366
f 422 366 423
f 423 366 364
f 423 364 424
f 424 364 410
f 424 410 425
f 425 410 419
f 426 427 404
f 404 427 428
f 383 418 386
f 386 418 429
f 386 429 389
f 404 401 426
f 426 401 398
f 426 398 429
f 429 398 394
f 429 394 389
f 427 430 428
f 428 430 431
f 428 431 345
f 345 431 432
f 345 432 349
f 349 432 433
f 349 433 351
f 351 433 421
f 351 421 355
f 355 421 353
f 343 434 341
f 341 434 428
f 341 428 435
f 435 428 436
f 345 344 437
f 345 437 428
f 428 437 438
f 428 438 436
f 404 428 434
f 434 439 404
f 404 439 440
f 404 440 405
f 441 227 40
f 38 442 40
f 40 442 443
f 40 443 441
f 444 445 446
f 447 448 449
f 449 448 450
f 449 450 451
f 446 445 452
f 453 454 455
f 455 454 456
f 455 456 457
f 457 456 452
f 457 452 458
f 458 452 445
f 450 459 451
f 451 459 460
f 451 460 453
f 453 460 461
f 453 461 454
f 462 463 464
f 464 463 465
f 447 449 466
f 466 449 467
f 466 467 468
f 464 469 462
f 462 469 470
f 462 470 467
f 467 470 471
f 467 471 468
f 446 472 444
f 444 472 473
f 444 473 474
f 474 473 475
f 474 475 476
f 476 475 477
f 476 477 478
f 478 477 479
f 478 479 480
f 480 479 465
f 480 465 481
f 481 465 463
f 482 479 483
f 483 479 484
f 484 479 485
f 485 479 477
f 485 477 486
f 486 477 475
f 486 475 487
f 472 488 473
f 473 488 489
f 473 489 475
f 475 489 490
f 475 490 487
f 491 492 446
f 446 492 493
f 446 493 472
f 472 493 494
f 472 494 488
f 495 456 496
f 496 456 454
f 496 454 497
f 497 454 498
f 498 454 461
f 498 461 499
f 499 461 500
f 500 461 460
f 500 460 501
f 459 502 460
f 460 502 503
f 460 503 501
f 450 504 459
f 459 504 505
f 459 505 502
f 448 506 450
f 450 506 507
f 450 507 504
f 447 508 448
f 448 508 509
f 448 509 506
f 466 510 447
f 447 510 511
f 447 511 508
f 468 512 466
f 466 512 513
f 466 513 510
f 514 515 471
f 471 515 516
f 471 516 468
f 468 516 517
f 468 517 512
f 514 471 518
f 518 471 470
f 518 470 519
f 519 470 520
f 520 470 469
f 520 469 521
f 521 469 522
f 522 469 464
f 522 464 523
f 443 524 441
f 441 524 465
f 441 465 525
f 525 465 526
f 479 482 527
f 479 527 465
f 465 527 528
f 465 528 526
f 464 465 524
f 524 529 464
f 464 529 530
f 464 530 523
f 524 443 442
f 65 531 67
f 434 343 342
f 16 532 18
f 29 533 34
f 34 533 32
f 532 16 534
f 534 16 14
f 534 14 32
f 535 20 18
f 25 24 536
f 536 24 22
f 12 27 537
f 537 27 25
f 537 25 538
f 539 10 12
f 439 434 9
f 9 434 342
f 9 342 7
f 7 342 2
f 402 403 540
f 540 403 405
f 540 405 541
f 541 405 440
f 541 440 542
f 542 440 439
f 542 439 539
f 539 439 9
f 539 9 10
f 402 540 400
f 400 540 543
f 400 543 399
f 399 543 544
f 399 544 397
f 397 544 545
f 397 545 392
f 388 387 546
f 546 387 391
f 546 391 547
f 547 391 390
f 547 390 548
f 548 390 396
f 548 396 549
f 549 396 395
f 549 395 545
f 545 395 393
f 545 393 392
f 388 546 384
f 384 546 550
f 384 550 385
f 385 550 551
f 385 551 381
f 381 551 552
f 381 552 382
f 382 552 553
f 382 553 378
f 370 371 554
f 554 371 373
f 554 373 555
f 555 373 376
f 555 376 556
f 556 376 375
f 556 375 553
f 553 375 379
f 553 379 378
f 370 554 368
f 368 554 557
f 368 557 367
f 367 557 558
f 367 558 365
f 365 558 559
f 365 559 363
f 363 559 560
f 363 560 412
f 411 561 409
f 409 561 55
f 409 55 407
f 407 55 408
f 408 55 57
f 408 57 50
f 531 65 561
f 561 65 53
f 561 53 55
f 62 72 562
f 562 72 71
f 48 60 563
f 563 60 62
f 563 62 564
f 565 46 48
f 529 524 45
f 45 524 442
f 45 442 43
f 43 442 38
f 521 522 566
f 566 522 523
f 566 523 567
f 567 523 530
f 567 530 568
f 568 530 529
f 568 529 565
f 565 529 45
f 565 45 46
f 521 566 520
f 520 566 569
f 520 569 519
f 519 569 570
f 519 570 518
f 518 570 571
f 518 571 514
f 511 510 572
f 572 510 513
f 572 513 573
f 573 513 512
f 573 512 574
f 574 512 517
f 574 517 575
f 575 517 516
f 575 516 571
f 571 516 515
f 571 515 514
f 511 572 508
f 508 572 576
f 508 576 509
f 509 576 577
f 509 577 506
f 506 577 578
f 506 578 507
f 507 578 579
f 507 579 504
f 499 500 580
f 580 500 501
f 580 501 581
f 581 501 503
f 581 503 582
f 582 503 502
f 582 502 579
f 579 502 505
f 579 505 504
f 499 580 498
f 498 580 583
f 498 583 497
f 497 583 584
f 497 584 496
f 496 584 585
f 496 585 495
f 495 585 586
f 495 586 587
f 588 534 589
f 589 534 32
f 589 32 590
f 590 32 533
f 12 537 539
f 539 537 538
f 539 538 542
f 542 538 591
f 542 591 541
f 541 591 592
f 541 592 540
f 540 592 593
f 540 593 543
f 543 593 594
f 543 594 544
f 544 594 595
f 544 595 545
f 545 595 596
f 545 596 549
f 549 596 597
f 549 597 548
f 548 597 598
f 548 598 547
f 547 598 599
f 547 599 546
f 546 599 600
f 546 600 550
f 550 600 601
f 550 601 551
f 551 601 602
f 551 602 552
f 552 602 603
f 552 603 553
f 553 603 604
f 553 604 556
f 556 604 605
f 556 605 555
f 555 605 606
f 555 606 554
f 554 606 607
f 554 607 557
f 557 607 608
f 557 608 558
f 558 608 609
f 558 609 559
f 559 609 610
f 559 610 560
f 25 536 538
f 538 536 611
f 538 611 591
f 591 611 612
f 591 612 592
f 592 612 613
f 592 613 593
f 593 613 614
f 593 614 594
f 594 614 615
f 594 615 595
f 595 615 616
f 595 616 596
f 596 616 617
f 596 617 597
f 597 617 618
f 597 618 598
f 598 618 619
f 598 619 599
f 599 619 620
f 599 620 600
f 600 620 621
f 600 621 601
f 601 621 622
f 601 622 602
f 602 622 623
f 602 623 603
f 603 623 624
f 603 624 604
f 604 624 625
f 604 625 605
f 605 625 626
f 605 626 606
f 606 626 627
f 606 627 607
f 607 627 628
f 607 628 608
f 608 628 629
f 608 629 609
f 609 629 630
f 609 630 610
f 411 412 561
f 561 412 560
f 561 560 531
f 531 560 610
f 531 610 67
f 67 610 630
f 67 630 631
f 631 630 629
f 631 629 632
f 632 629 628
f 632 628 633
f 633 628 627
f 633 627 634
f 634 627 626
f 634 626 635
f 635 626 625
f 635 625 636
f 636 625 624
f 636 624 637
f 637 624 623
f 637 623 638
f 638 623 622
f 638 622 639
f 639 622 621
f 639 621 640
f 640 621 620
f 640 620 641
f 641 620 619
f 641 619 642
f 642 619 618
f 642 618 643
f 643 618 617
f 643 617 644
f 644 617 616
f 644 616 645
f 645 616 615
f 645 615 646
f 646 615 614
f 646 614 647
f 647 614 613
f 647 613 648
f 648 613 612
f 648 612 649
f 649 612 611
f 649 611 650
f 650 611 536
f 650 536 651
f 651 536 22
f 651 22 20
f 20 535 651
f 651 535 652
f 651 652 650
f 650 652 653
f 650 653 649
f 649 653 654
f 649 654 648
f 648 654 655
f 648 655 647
f 647 655 656
f 647 656 646
f 646 656 657
f 646 657 645
f 645 657 658
f 645 658 644
f 644 658 659
f 644 659 643
f 643 659 660
f 643 660 642
f 642 660 661
f 642 661 641
f 641 661 662
f 641 662 640
f 640 662 663
f 640 663 639
f 639 663 664
f 639 664 638
f 638 664 665
f 638 665 637
f 637 665 666
f 637 666 636
f 636 666 667
f 636 667 635
f 635 667 668
f 635 668 634
f 634 668 669
f 634 669 633
f 633 669 670
f 633 670 632
f 632 670 671
f 632 671 631
f 631 671 69
f 631 69 67
f 62 562 564
f 564 562 672
f 564 672 673
f 673 672 674
f 673 674 675
f 675 674 676
f 675 676 677
f 677 676 678
f 677 678 679
f 679 678 680
f 679 680 681
f 681 680 682
f 681 682 683
f 683 682 684
f 683 684 685
f 685 684 686
f 685 686 687
f 687 686 688
f 687 688 689
f 689 688 690
f 689 690 691
f 691 690 692
f 691 692 693
f 693 692 694
f 693 694 695
f 695 694 696
f 695 696 697
f 697 696 698
f 697 698 699
f 699 698 700
f 699 700 701
f 701 700 702
f 701 702 703
f 703 702 704
f 703 704 705
f 705 704 706
f 705 706 707
f 707 706 708
f 707 708 709
f 709 708 710
f 709 710 711
f 48 563 565
f 565 563 564
f 565 564 568
f 568 564 673
f 568 673 567
f 567 673 675
f 567 675 566
f 566 675 677
f 566 677 569
f 569 677 679
f 569 679 570
f 570 679 681
f 570 681 571
f 571 681 683
f 571 683 575
f 575 683 685
f 575 685 574
f 574 685 687
f 574 687 573
f 573 687 689
f 573 689 572
f 572 689 691
f 572 691 576
f 576 691 693
f 576 693 577
f 577 693 695
f 577 695 578
f 578 695 697
f 578 697 579
f 579 697 699
f 579 699 582
f 582 699 701
f 582 701 581
f 581 701 703
f 581 703 580
f 580 703 705
f 580 705 583
f 583 705 707
f 583 707 584
f 584 707 709
f 584 709 585
f 585 709 711
f 585 711 586
f 588 587 534
f 534 587 586
f 534 586 532
f 532 586 711
f 532 711 18
f 18 711 710
f 18 710 535
f 535 710 708
f 535 708 652
f 652 708 706
f 652 706 653
f 653 706 704
f 653 704 654
f 654 704 702
f 654 702 655
f 655 702 700
f 655 700 656
f 656 700 698
f 656 698 657
f 657 698 696
f 657 696 658
f 658 696 694
f 658 694 659
f 659 694 692
f 659 692 660
f 660 692 690
f 660 690 661
f 661 690 688
f 661 688 662
f 662 688 686
f 662 686 663
f 663 686 684
f 663 684 664
f 664 684 682
f 664 682 665
f 665 682 680
f 665 680 666
f 666 680 678
f 666 678 667
f 667 678 676
f 667 676 668
f 668 676 674
f 668 674 669
f 669 674 672
f 669 672 670
f 670 672 562
f 670 562 671
f 671 562 71
f 671 71 69
f 28 167 712
f 712 590 28
f 28 590 533
f 28 533 29
f 490 489 138
f 246 486 487
f 494 493 141
f 489 488 138
f 138 488 494
f 138 494 140
f 140 494 141
f 528 527 240
f 240 527 482
f 240 482 242
f 242 482 483
f 242 483 244
f 244 483 484
f 244 484 246
f 246 484 485
f 246 485 486
f 240 239 528
f 528 239 237
f 528 237 526
f 526 237 525
f 237 236 525
f 525 236 227
f 525 227 441
f 406 301 413
f 413 301 277
f 413 277 414
f 414 277 279
f 414 279 415
f 415 279 281
f 415 281 416
f 416 281 282
f 416 282 358
f 358 282 275
f 358 275 359
f 359 275 361
f 112 350 352
f 357 356 272
f 272 356 354
f 272 354 362
f 361 275 362
f 362 275 274
f 362 274 272
f 438 437 106
f 106 437 344
f 106 344 108
f 108 344 346
f 108 346 110
f 110 346 347
f 110 347 112
f 112 347 348
f 112 348 350
f 106 105 438
f 438 105 103
f 438 103 436
f 436 103 435
f 103 102 435
f 435 102 93
f 435 93 341
f 712 167 713
f 713 167 143
f 713 143 714
f 714 143 145
f 714 145 715
f 715 145 147
f 715 147 716
f 716 147 148
f 716 148 491
f 491 148 141
f 491 141 492
f 492 141 493
f 487 490 246
f 246 490 138
f 246 138 247
f 247 138 136
f 247 136 248
f 248 136 135
f 248 135 250
f 250 135 133
f 250 133 252
f 252 133 132
f 252 132 253
f 253 132 131
f 253 131 255
f 255 131 129
f 255 129 256
f 256 129 127
f 256 127 258
f 258 127 125
f 258 125 259
f 259 125 124
f 259 124 261
f 261 124 122
f 261 122 263
f 263 122 121
f 263 121 265
f 265 121 119
f 265 119 266
f 266 119 118
f 266 118 267
f 267 118 116
f 267 116 269
f 269 116 114
f 269 114 270
f 270 114 113
f 270 113 272
f 272 113 112
f 272 112 357
f 357 112 352
f 589 452 588
f 588 452 456
f 588 456 587
f 587 456 495
f 589 590 452
f 452 590 712
f 452 712 713
f 713 714 452
f 452 714 715
f 452 715 446
f 446 715 716
f 446 716 491
f 424 717 423
f 423 717 718
f 423 718 422
f 422 718 719
f 422 719 417
f 417 719 720
f 417 720 418
f 418 720 721
f 418 721 429
f 429 721 722
f 429 722 426
f 426 722 723
f 426 723 427
f 427 723 724
f 427 724 430
f 430 724 725
f 430 725 431
f 431 725 726
f 431 726 432
f 432 726 727
f 432 727 433
f 433 727 728
f 433 728 421
f 421 728 729
f 421 729 420
f 420 729 730
f 420 730 419
f 419 730 731
f 419 731 425
f 425 731 732
f 425 732 424
f 424 732 717
f 733 724 734
f 734 724 723
f 734 723 735
f 735 723 722
f 735 722 736
f 736 722 721
f 736 721 737
f 737 721 720
f 737 720 738
f 738 720 719
f 738 719 739
f 739 719 718
f 739 718 740
f 740 718 717
f 740 717 741
f 741 717 732
f 741 732 742
f 742 732 731
f 742 731 743
f 743 731 730
f 743 730 744
f 744 730 729
f 744 729 745
f 745 729 728
f 745 728 746
f 746 728 727
f 746 727 747
f 747 727 726
f 747 726 748
f 748 726 725
f 748 725 733
f 733 725 724
f 741 749 740
f 740 749 750
f 740 750 739
f 739 750 751
f 739 751 738
f 738 751 752
f 738 752 737
f 737 752 753
f 737 753 736
f 736 753 754
f 736 754 735
f 735 754 755
f 735 755 734
f 734 755 756
f 734 756 733
f 733 756 757
f 733 757 748
f 748 757 758
f 748 758 747
f 747 758 759
f 747 759 746
f 746 759 760
f 746 760 745
f 745 760 761
f 745 761 744
f 744 761 762
f 744 762 743
f 743 762 763
f 743 763 742
f 742 763 764
f 742 764 741
f 741 764 749
f 765 766 767
f 768 769 767
f 767 769 770
f 767 770 765
f 771 772 767
f 767 772 773
f 767 773 768
f 774 775 767
f 767 775 776
f 767 776 771
f 777 778 767
f 767 778 779
f 767 779 774
f 766 780 767
f 767 780 781
f 767 781 777
f 764 774 749
f 749 774 779
f 749 779 750
f 750 779 778
f 750 778 751
f 751 778 777
f 751 777 752
f 752 777 781
f 752 781 753
f 753 781 780
f 753 780 754
f 754 780 766
f 754 766 755
f 755 766 765
f 755 765 756
f 756 765 770
f 756 770 757
f 757 770 769
f 757 769 758
f 758 769 768
f 758 768 759
f 759 768 773
f 759 773 760
f 760 773 772
f 760 772 761
f 761 772 771
f 761 771 762
f 762 771 776
f 762 776 763
f 763 776 775
f 763 775 764
f 764 775 774
f 782 463 783
f 783 463 462
f 783 462 784
f 784 462 467
f 784 467 785
f 785 467 449
f 785 449 786
f 786 449 451
f 786 451 787
f 787 451 453
f 787 453 788
f 788 453 455
f 788 455 789
f 789 455 457
f 789 457 790
f 790 457 458
f 790 458 791
f 791 458 445
f 791 445 792
f 792 445 444
f 792 444 793
f 793 444 474
f 793 474 794
f 794 474 476
f 794 476 795
f 795 476 478
f 795 478 796
f 796 478 480
f 796 480 797
f 797 480 481
f 797 481 782
f 782 481 463
f 798 793 799
f 799 793 794
f 799 794 800
f 800 794 795
f 800 795 801
f 801 795 796
f 801 796 802
f 802 796 797
f 802 797 803
f 803 797 782
f 803 782 804
f 804 782 783
f 804 783 805
f 805 783 784
f 805 784 806
f 806 784 785
f 806 785 807
f 807 785 786
f 807 786 808
f 808 786 787
f 808 787 809
f 809 787 788
f 809 788 810
f 810 788 789
f 810 789 811
f 811 789 790
f 811 790 812
f 812 790 791
f 812 791 813
f 813 791 792
f 813 792 798
f 798 792 793
f 814 804 815
f 815 804 805
f 815 805 816
f 816 805 806
f 816 806 817
f 817 806 807
f 817 807 818
f 818 807 808
f 818 808 819
f 819 808 809
f 819 809 820
f 820 809 810
f 820 810 821
f 821 810 811
f 821 811 822
f 822 811 812
f 822 812 823
f 823 812 813
f 823 813 824
f 824 813 798
f 824 798 825
f 825 798 799
f 825 799 826
f 826 799 800
f 826 800 827
f 827 800 801
f 827 801 828
f 828 801 802
f 828 802 829
f 829 802 803
f 829 803 814
f 814 803 804
f 830 831 832
f 833 834 832
f 832 834 835
f 832 835 830
f 836 837 832
f 832 837 838
f 832 838 833
f 839 840 832
f 832 840 841
f 832 841 836
f 842 843 832
f 832 843 844
f 832 844 839
f 831 845 832
f 832 845 846
f 832 846 842
f 814 839 829
f 829 839 844
f 829 844 828
f 828 844 843
f 828 843 827
f 827 843 842
f 827 842 826
f 826 842 846
f 826 846 825
f 825 846 845
f 825 845 824
f 824 845 831
f 824 831 823
f 823 831 830
f 823 830 822
f 822 830 835
f 822 835 821
f 821 835 834
f 821 834 820
f 820 834 833
f 820 833 819
f 819 833 838
f 819 838 818
f 818 838 837
f 818 837 817
f 817 837 836
f 817 836 816
f 816 836 841
f 816 841 815
f 815 841 840
f 815 840 814
f 814 840 839

