mtllib material.mtl
usemtl mtl_arm_cover_link
v -0.00045043 0.04103382 -0.04555851
v 0.00455466 0.04075463 -0.04552575
v 0.00438054 0.04202915 -0.04682230
v -0.00262388 0.04231063 -0.04680075
v 0.01039231 0.03974149 -0.04581213
v 0.01156298 0.04109734 -0.04675122
v -0.00504574 0.04069739 -0.04557760
v -0.01124033 0.03948456 -0.04554799
v -0.00954944 0.04118087 -0.04681470
v -0.04296682 0.00225471 -0.04685008
v -0.04162221 0.00468261 -0.04663028
v -0.04043407 0.01242416 -0.04685128
v -0.04037044 0.00730160 -0.04561026
v -0.01611143 0.03908067 -0.04679577
v -0.01753857 0.03708491 -0.04557304
v -0.02165181 0.03487376 -0.04550909
v -0.02180990 0.03623378 -0.04673071
v -0.02746679 0.03051995 -0.04545563
v -0.02737168 0.03230327 -0.04668570
v -0.03186056 0.02590657 -0.04548264
v -0.03246425 0.02718892 -0.04668086
v -0.03609110 0.01963481 -0.04581431
v -0.03865290 0.01383084 -0.04560125
v -0.03704097 0.02098650 -0.04666150
v -0.04105464 0.00004628 -0.04580128
v -0.04251371 -0.00644856 -0.04820001
v -0.04275247 -0.00550577 -0.04692880
v -0.04294106 0.00225045 -0.04820000
v -0.04034222 -0.01488303 -0.04820001
v -0.04034222 -0.01488303 -0.04685000
v -0.03651569 -0.02270691 -0.04820001
v -0.03651569 -0.02270691 -0.04685000
v -0.03119109 -0.02959924 -0.04820001
v -0.03119109 -0.02959924 -0.04685000
v -0.02458688 -0.03527725 -0.04820001
v -0.02457945 -0.03527902 -0.04691461
v -0.01697398 -0.03950801 -0.04820001
v -0.01697448 -0.03950651 -0.04689218
v -0.00912535 -0.04201279 -0.04823918
v -0.00866473 -0.04211795 -0.04685000
v 0.00014858 -0.04300815 -0.04818046
v 0.00000000 -0.04299999 -0.04685000
v 0.00854059 -0.04214580 -0.04819661
v 0.00848715 -0.04215409 -0.04685000
v 0.01656994 -0.03967926 -0.04821305
v 0.01664649 -0.03964396 -0.04691428
v 0.02413892 -0.03558527 -0.04820001
v 0.02413762 -0.03558480 -0.04688847
v 0.03068773 -0.03012080 -0.04820001
v 0.03068773 -0.03012080 -0.04685000
v 0.03602915 -0.02347125 -0.04820001
v 0.03602915 -0.02347125 -0.04685000
v 0.03995304 -0.01589824 -0.04820001
v 0.03995304 -0.01589824 -0.04685000
v 0.04230501 -0.00769973 -0.04820001
v 0.04255208 -0.00679023 -0.04692584
v 0.04305235 0.00158822 -0.04820006
v 0.04280019 0.00050975 -0.04690665
v 0.00008151 0.04099154 -0.04254812
v -0.00432398 0.04074220 -0.04224024
v -0.00901749 0.03997367 -0.04232480
v 0.00912336 0.03997204 -0.04285000
v 0.00513063 0.04065047 -0.04223937
v 0.01363526 0.03863802 -0.04223836
v 0.01794643 0.03696050 -0.04562011
v 0.01783114 0.03690858 -0.04254969
v 0.02555597 0.03204570 -0.04254140
v 0.02328216 0.03380696 -0.04549970
v 0.02193164 0.03460809 -0.04224034
v 0.02904406 0.02890482 -0.04232437
v 0.03350936 0.02364771 -0.04229549
v 0.03235355 0.02523846 -0.04550621
v 0.02896363 0.02908134 -0.04544107
v 0.03999765 0.00895716 -0.04233743
v 0.03998259 0.00910410 -0.04560216
v 0.03873950 0.01341478 -0.04256178
v 0.03816191 0.01502371 -0.04558757
v 0.03698970 0.01761185 -0.04223695
v 0.03601651 0.01970548 -0.04582911
v 0.04096667 0.00023990 -0.04222312
v 0.04110967 0.00161299 -0.04597766
v 0.04072627 0.00469703 -0.04255655
v 0.04072452 -0.00462509 -0.04233284
v -0.04068743 0.00483538 -0.04224079
v -0.04097262 -0.00000047 -0.04231882
v -0.03858802 0.01376327 -0.04223817
v -0.03692388 0.01780583 -0.04255081
v -0.03996197 0.00913829 -0.04255156
v -0.03184748 0.02576908 -0.04223873
v -0.03469876 0.02182644 -0.04255022
v -0.01763677 0.03697896 -0.04223606
v -0.02181181 0.03470260 -0.04254086
v -0.02533929 0.03219515 -0.04224040
v -0.02899463 0.02898076 -0.04255480
v -0.01352915 0.03869697 -0.04255159
v -0.04073903 -0.00455780 -0.04255149
v -0.04037000 -0.00754380 -0.04580884
v -0.03999827 -0.00889929 -0.04224368
v -0.03870625 -0.01350623 -0.04255450
v -0.03872947 -0.01350091 -0.04580884
v -0.03702928 -0.01755069 -0.04224558
v -0.03697433 -0.01775234 -0.04580884
v -0.03473037 -0.02178056 -0.04255450
v -0.03493833 -0.02158555 -0.04631608
v -0.03219550 -0.02535043 -0.04224558
v -0.03209705 -0.02553480 -0.04580884
v -0.02889788 -0.02906404 -0.04223515
v -0.02903622 -0.02896799 -0.04580883
v -0.02558775 -0.03202903 -0.04255451
v -0.02561026 -0.03203687 -0.04580883
v -0.02188309 -0.03465400 -0.04233193
v -0.02186222 -0.03470288 -0.04580884
v -0.01781911 -0.03691979 -0.04255451
v -0.01783929 -0.03693246 -0.04580884
v -0.01377346 -0.03859386 -0.04224558
v -0.01359202 -0.03869759 -0.04580884
v -0.00915694 -0.03995926 -0.04255451
v -0.00917379 -0.03997609 -0.04580884
v -0.00484016 -0.04069112 -0.04224559
v -0.00464018 -0.04075187 -0.04580884
v -0.00003555 -0.04099500 -0.04255451
v -0.00004825 -0.04101517 -0.04580884
v 0.00455463 -0.04074122 -0.04255451
v 0.00454428 -0.04076268 -0.04580884
v 0.00887090 -0.04000627 -0.04224559
v 0.00907972 -0.03999756 -0.04580884
v 0.01350623 -0.03870624 -0.04255451
v 0.01350091 -0.03872947 -0.04580884
v 0.01755069 -0.03702928 -0.04224559
v 0.01775236 -0.03697432 -0.04580884
v 0.02178053 -0.03473039 -0.04255451
v 0.02178052 -0.03475422 -0.04580884
v 0.02535046 -0.03219547 -0.04224558
v 0.02553484 -0.03209702 -0.04580883
v 0.02891571 -0.02904568 -0.04233194
v 0.02896799 -0.02903622 -0.04580884
v 0.03202901 -0.02558777 -0.04255451
v 0.03203686 -0.02561027 -0.04580883
v 0.03456136 -0.02201606 -0.04224559
v 0.03470287 -0.02186224 -0.04580884
v 0.03691979 -0.01781911 -0.04255451
v 0.03693246 -0.01783929 -0.04580884
v 0.03868275 -0.01357336 -0.04255451
v 0.03869760 -0.01359201 -0.04580884
v 0.03989334 -0.00936570 -0.04224559
v 0.04039638 -0.00731142 -0.04577957
v -0.03042769 -0.02569735 -0.04185000
v 0.01919685 0.03473408 -0.04185000
v 0.00222521 0.03962352 -0.04185000
v 0.03236631 0.02296513 -0.04185000
v 0.03912523 0.00664765 -0.04185000
v 0.03937280 -0.00668971 -0.04185000
v 0.02959152 -0.02644460 -0.04185000
v 0.03689704 -0.01528325 -0.04185000
v 0.01518716 -0.03666504 -0.04185000
v 0.00223929 -0.03987424 -0.04185000
v -0.01919685 -0.03473408 -0.04185000
v -0.03987425 -0.00223929 -0.04185000
v -0.03689704 -0.01528325 -0.04185000
v -0.03495386 0.01931832 -0.04185000
v -0.02644460 0.02959152 -0.04185000
v -0.01528326 0.03689705 -0.04185000
v 0.04086958 0.01024001 -0.04685938
v 0.03913626 0.01589064 -0.04680806
v 0.02763433 0.03273831 -0.04652384
v 0.02823172 0.03102356 -0.04646403
v 0.03388458 0.02628545 -0.04651557
v 0.03700652 0.02095801 -0.04666557
v 0.03266739 0.02623145 -0.04644179
v 0.02162343 0.03669745 -0.04667551
v 0.01815661 0.03750287 -0.04627948
v 0.04020477 -0.01164611 -0.04668598
v 0.03679040 -0.02007953 -0.04671215
v 0.03005955 -0.02932951 -0.04670161
v 0.01866462 -0.03755878 -0.04666027
v 0.00724018 -0.04128239 -0.04671167
v -0.00212783 -0.04185877 -0.04671187
v -0.01124529 -0.04031967 -0.04667987
v -0.02187102 -0.03578506 -0.04665929
v -0.03110174 -0.02809396 -0.04671117
v -0.03863609 -0.01624486 -0.04671157
v -0.04117316 -0.00741771 -0.04666217
v 0.04494939 0.00247614 -0.04645691
v 0.04622548 0.00196015 -0.04820557
v 0.04842469 0.00195388 -0.04487040
v 0.04499079 -0.01049509 -0.04819996
v 0.04593557 -0.00517948 -0.04820001
v 0.04617584 -0.00264089 -0.04819061
v 0.04362632 -0.01511564 -0.04820001
v 0.03743798 -0.02687519 -0.04818185
v 0.03987610 -0.02316656 -0.04820001
v 0.04193705 -0.01924803 -0.04820001
v 0.03311297 -0.03200959 -0.04820001
v 0.01908054 -0.04187150 -0.04820001
v -0.02511583 -0.07194388 -0.04981949
v -0.02260267 -0.06746250 -0.04914726
v -0.03407332 -0.06815925 -0.04915982
v -0.03959034 -0.06515189 -0.04859964
v -0.01708778 -0.07418032 -0.05016596
v 0.00855730 -0.07573538 -0.05041165
v -0.00847396 -0.07573818 -0.05041733
v -0.00000000 -0.07608958 -0.05051152
v 0.03793753 -0.06611741 -0.04881687
v 0.03297763 -0.06347975 -0.04844167
v 0.02520823 -0.07194783 -0.04982179
v 0.02260267 -0.06746250 -0.04914726
v 0.01703080 -0.07419538 -0.05016896
v 0.02946053 -0.03747433 -0.04799637
v 0.02636432 -0.04234865 -0.04788572
v 0.03233914 -0.04183843 -0.04747603
v 0.03486517 -0.04643144 -0.04718002
v 0.02893950 -0.05396823 -0.04776051
v 0.03680437 -0.05082981 -0.04713804
v 0.03012257 -0.05925061 -0.04807784
v 0.03912811 -0.05627979 -0.04734543
v 0.04442450 -0.06188959 -0.04785945
v 0.02712534 -0.04863741 -0.04773058
v 0.02238536 -0.06220350 -0.04856668
v 0.01072562 -0.06672919 -0.04918895
v -0.00354898 -0.06766411 -0.04931317
v 0.00181303 -0.05372580 -0.04831098
v 0.01338665 -0.05167033 -0.04816881
v 0.02005876 -0.04967030 -0.04800288
v 0.02136796 -0.05508635 -0.04810886
v 0.01423732 -0.05891833 -0.04845642
v 0.00657487 -0.06005417 -0.04860533
v -0.00657487 -0.06005417 -0.04860533
v -0.02005876 -0.04967030 -0.04800288
v -0.01908054 -0.04187150 -0.04820001
v -0.01338665 -0.05167033 -0.04816881
v -0.02136796 -0.05508635 -0.04810886
v -0.01423732 -0.05891833 -0.04845642
v -0.02238536 -0.06220350 -0.04856668
v -0.03117098 -0.05874636 -0.04798912
v -0.03708110 -0.06123516 -0.04806358
v -0.01434784 -0.06600691 -0.04906770
v -0.03023249 -0.05121803 -0.04759950
v -0.02724278 -0.04412839 -0.04777973
v -0.03829899 -0.05530718 -0.04733750
v -0.03583401 -0.04862864 -0.04715902
v -0.03117678 -0.04030455 -0.04764757
v -0.03080440 -0.03408076 -0.04820001
v -0.03987610 -0.02316656 -0.04820001
v -0.03745342 -0.02686426 -0.04820001
v -0.04323882 -0.01642602 -0.04819824
v -0.04498677 -0.01051033 -0.04820001
v -0.04586435 -0.00574361 -0.04820100
v -0.04615464 -0.00278411 -0.04820000
v -0.04624832 -0.00038827 -0.04820000
v -0.04619930 0.00242121 -0.04820000
v -0.04519276 0.00238474 -0.04638764
v -0.04903017 0.00229494 -0.04423502
v -0.04654982 0.01109200 -0.04453500
v -0.04907622 0.00847334 -0.04258829
v -0.07164893 -0.00689660 -0.02721318
v -0.07179515 -0.00272631 -0.02563616
v -0.07532904 -0.00971951 -0.02627403
v -0.06742407 -0.00750320 -0.02994047
v -0.06372497 -0.00649037 -0.03210158
v -0.05993401 -0.00733058 -0.03515513
v -0.05623950 -0.00601123 -0.03790643
v -0.05251076 -0.00689944 -0.04139050
v -0.05261813 -0.00574284 -0.04119227
v -0.06129377 -0.03811113 -0.04001329
v -0.05626466 -0.03413312 -0.04109756
v -0.06184907 -0.02912259 -0.03803800
v -0.05063628 -0.03746091 -0.04344526
v -0.05254238 -0.03095967 -0.04227683
v -0.05526746 -0.02533514 -0.04059702
v -0.04524918 -0.02035443 -0.04607742
v -0.04695607 -0.01585046 -0.04564845
v -0.04821095 -0.01122660 -0.04521582
v -0.04358942 -0.03119883 -0.04564558
v -0.03759902 -0.03265245 -0.04721710
v -0.04226943 -0.03741208 -0.04584214
v -0.03426450 -0.03621371 -0.04751721
v -0.03798053 -0.04052224 -0.04670321
v -0.04194850 -0.04738561 -0.04629163
v -0.04361934 -0.05454375 -0.04675448
v -0.04632790 -0.02668204 -0.04486993
v -0.04860903 -0.02191959 -0.04403254
v -0.05039907 -0.01699897 -0.04316361
v -0.05168368 -0.01197976 -0.04228893
v -0.07019898 -0.03471660 -0.03594327
v -0.06365790 -0.02528294 -0.03647250
v -0.05737736 -0.01951882 -0.03885205
v -0.07110122 -0.02709108 -0.03360606
v -0.06549300 -0.01887016 -0.03410837
v -0.07419440 -0.01666729 -0.02912883
v -0.06630501 -0.01537071 -0.03279818
v -0.05884688 -0.01360092 -0.03709931
v -0.06692810 -0.01183288 -0.03149461
v -0.04614799 -0.04214982 -0.04504452
v -0.04988902 -0.04887376 -0.04499571
v -0.04699704 -0.06007990 -0.04734880
v -0.06057484 -0.04775580 -0.04234762
v -0.05537353 -0.04374405 -0.04285596
v -0.05337933 -0.05473873 -0.04542398
v -0.04649380 -0.03368456 -0.04462773
v -0.06677170 -0.03980346 -0.03850957
v -0.07439780 -0.02690250 -0.03213944
v -0.07824921 -0.01735033 -0.02736177
v -0.08022138 -0.00932610 -0.02351453
v -0.05113548 0.00519364 -0.04088021
v -0.05303577 -0.00269346 -0.04040905
v -0.08090927 0.00489357 -0.01733966
v -0.08136717 -0.00149709 -0.01985719
v -0.07164649 0.00306747 -0.02345285
v -0.07452954 0.01085251 -0.01830557
v -0.06825711 0.00871765 -0.02304718
v -0.06779802 0.00050256 -0.02699006
v -0.06456770 0.00814792 -0.02609041
v -0.06359841 0.00197875 -0.02947052
v -0.06014809 0.00684607 -0.03040235
v -0.05960617 0.00182152 -0.03287205
v -0.05542500 0.00603322 -0.03550968
v -0.05631785 0.00006505 -0.03649614
v -0.07863533 0.01307755 -0.01480533
v -0.07472023 0.01984972 -0.01339297
v -0.06079577 0.03580253 -0.01678573
v -0.05640967 0.03461976 -0.01508531
v -0.05512482 0.03862608 -0.01858157
v -0.06416080 0.03021252 -0.01312488
v -0.06573809 0.03239269 -0.01579439
v -0.06758434 0.03083318 -0.01557265
v -0.07023046 0.02826582 -0.01542176
v -0.07328344 0.02468738 -0.01554899
v -0.07282998 0.02227494 -0.01306484
v -0.06994373 0.02551235 -0.01280661
v -0.07962099 0.01295349 -0.01784298
v -0.07767010 0.01773890 -0.01660054
v -0.08132879 0.00156395 -0.02229476
v -0.08096672 0.00808777 -0.01939232
v -0.07503348 0.02224522 -0.01581843
v -0.04760751 0.03887962 -0.01882441
v -0.04164200 0.04186667 -0.02157476
v -0.04849568 0.04186667 -0.02157476
v -0.00957718 0.04447399 -0.04569558
v -0.01053564 0.04679294 -0.04391110
v -0.01469438 0.04546966 -0.04408604
v -0.01656894 0.04176558 -0.04600092
v -0.02511495 0.03691685 -0.04596335
v -0.03114656 0.03173889 -0.04593597
v -0.03668388 0.02535861 -0.04596429
v -0.04109480 0.01763793 -0.04604281
v -0.04386764 0.01066056 -0.04610865
v -0.04800805 0.01321061 -0.04202282
v -0.04552049 0.01971447 -0.04156511
v -0.04362942 0.01891273 -0.04420691
v -0.01982091 0.04343440 -0.04403273
v -0.02737183 0.03889997 -0.04391790
v -0.03322642 0.03382352 -0.04387029
v -0.03924017 0.02673953 -0.04399673
v -0.04280671 0.02489151 -0.04127460
v -0.03933557 0.02992770 -0.04100282
v -0.03465549 0.03525586 -0.04089630
v -0.02930488 0.03994546 -0.04095303
v -0.02531064 0.04271134 -0.04105817
v -0.02216559 0.04451248 -0.04115247
v -0.01886342 0.04608243 -0.04124290
v -0.01534584 0.04741575 -0.04130184
v -0.01121953 0.04857550 -0.04127956
v -0.05986944 0.01170785 -0.02840825
v -0.05819621 0.03216429 -0.01585031
v -0.06073466 0.02782475 -0.01731303
v -0.06295678 0.02329477 -0.01881503
v -0.04755262 0.03588843 -0.02229657
v -0.04461652 0.03937726 -0.02143936
v -0.02374565 0.04997847 -0.02926533
v -0.01226698 0.05292980 -0.03180248
v -0.01598491 0.05226089 -0.03125541
v -0.01865225 0.05153963 -0.03074328
v -0.02893026 0.04792040 -0.02731394
v -0.03159085 0.04424882 -0.03049159
v -0.03476380 0.04145172 -0.03090647
v -0.04056389 0.03538886 -0.03172167
v -0.04317630 0.03214654 -0.03215281
v -0.04557760 0.02877056 -0.03261847
v -0.04775022 0.02525953 -0.03312870
v -0.04968236 0.02160584 -0.03368972
v -0.05135920 0.01781638 -0.03430333
v -0.05385392 0.00993897 -0.03567442
v -0.05275622 0.01392181 -0.03496684
v -0.06633934 0.01382196 -0.02193887
v -0.06483226 0.01861432 -0.02035757
v -0.05855716 0.01606869 -0.02725596
v -0.05691663 0.02032901 -0.02615388
v -0.05496988 0.02446375 -0.02510763
v -0.05274507 0.02844049 -0.02411883
v -0.05026664 0.03224666 -0.02318472
v -0.03510756 0.04511050 -0.02464950
v 0.01059372 0.04675668 -0.04394451
v 0.00805780 0.04483188 -0.04568296
v 0.01667937 0.04182314 -0.04596655
v 0.04626050 0.01171893 -0.04454438
v 0.05032239 0.00465106 -0.04207899
v 0.04347016 0.01159458 -0.04612384
v 0.03692596 0.02502857 -0.04595939
v 0.04109480 0.01763793 -0.04604281
v 0.03114656 0.03173888 -0.04593597
v 0.02561232 0.03651617 -0.04597090
v 0.04388050 0.02299341 -0.04133128
v 0.04036446 0.02491778 -0.04401354
v 0.04547302 0.01983998 -0.04153087
v 0.04362942 0.01891273 -0.04420692
v 0.04704998 0.01605086 -0.04180113
v 0.04800805 0.01321061 -0.04202282
v 0.04910905 0.00889704 -0.04238602
v 0.04206323 0.02605399 -0.04116511
v 0.03933557 0.02992770 -0.04100282
v 0.03774155 0.02866754 -0.04392718
v 0.03465549 0.03525586 -0.04089630
v 0.03322642 0.03382352 -0.04387030
v 0.02930488 0.03994546 -0.04095303
v 0.02689360 0.03927240 -0.04391812
v 0.02531064 0.04271134 -0.04105818
v 0.02240054 0.04443201 -0.04107925
v 0.01772751 0.04442587 -0.04405848
v 0.01886340 0.04608244 -0.04124290
v 0.01534581 0.04741576 -0.04130185
v 0.01117499 0.04858382 -0.04128191
v -0.00191425 0.04559266 -0.04562028
v 0.00525664 0.04774628 -0.04373761
v 0.00000084 0.04803081 -0.04372857
v 0.00543693 0.04949471 -0.04119321
v -0.00000000 0.04978741 -0.04117768
v -0.00528800 0.04774291 -0.04373775
v -0.00546931 0.04949125 -0.04119344
v -0.00566917 0.05366765 -0.03218404
v 0.00002266 0.05386938 -0.03241651
v 0.00585402 0.05364612 -0.03218951
v 0.01212212 0.05294369 -0.03182454
v -0.02112974 0.05128364 -0.03050065
v -0.02958110 0.04909126 -0.02842120
v -0.04285409 0.04432017 -0.02390032
v -0.03599104 0.04696859 -0.02641063
v 0.01563293 0.05233875 -0.03127741
v 0.01865225 0.05153963 -0.03074328
v 0.02112974 0.05128364 -0.03050065
v 0.02248192 0.05038340 -0.02964735
v 0.02867453 0.04933463 -0.02865328
v 0.02892427 0.04792086 -0.02731318
v 0.03599104 0.04696859 -0.02641063
v 0.03457640 0.04535677 -0.02488301
v 0.04002472 0.04547011 -0.02499029
v 0.04285409 0.04432017 -0.02390032
v 0.04164200 0.04186667 -0.02157476
v 0.04849568 0.04186667 -0.02157476
v 0.05532512 0.03852626 -0.01849253
v 0.04760751 0.03887962 -0.01882441
v 0.05593815 0.03485391 -0.01530403
v 0.05276227 -0.00297049 -0.04072715
v 0.05251076 -0.00689944 -0.04139050
v 0.05623950 -0.00601123 -0.03790643
v 0.05987875 -0.00705060 -0.03513533
v 0.06372497 -0.00649037 -0.03210159
v 0.06736835 -0.00829020 -0.03020180
v 0.06796990 -0.00309971 -0.02811614
v 0.07532904 -0.00971951 -0.02627403
v 0.04863685 -0.05875508 -0.04689608
v 0.05483053 -0.05344801 -0.04490869
v 0.05289217 -0.04894443 -0.04437850
v 0.04358942 -0.03119883 -0.04564558
v 0.04632790 -0.02668204 -0.04486993
v 0.03426450 -0.03621371 -0.04751721
v 0.03759902 -0.03265245 -0.04721710
v 0.04524918 -0.02035443 -0.04607742
v 0.04695607 -0.01585046 -0.04564845
v 0.04821095 -0.01122660 -0.04521582
v 0.05987291 -0.03687090 -0.04028206
v 0.06632684 -0.04042396 -0.03890563
v 0.07029518 -0.03452829 -0.03586933
v 0.06184907 -0.02912259 -0.03803800
v 0.05254238 -0.03095967 -0.04227683
v 0.05526746 -0.02533514 -0.04059702
v 0.06365790 -0.02528293 -0.03647250
v 0.05737736 -0.01951882 -0.03885205
v 0.06549300 -0.01887016 -0.03410837
v 0.05884688 -0.01360092 -0.03709931
v 0.07110122 -0.02709108 -0.03360606
v 0.06675626 -0.01216820 -0.03169669
v 0.04303634 -0.05035210 -0.04634235
v 0.04862630 -0.04971900 -0.04539641
v 0.05911070 -0.04139467 -0.04137925
v 0.06147792 -0.04656286 -0.04182495
v 0.05439410 -0.04168602 -0.04283560
v 0.05553505 -0.03324658 -0.04130533
v 0.05189554 -0.03892936 -0.04322253
v 0.04655669 -0.04268873 -0.04503696
v 0.04162088 -0.03669915 -0.04598956
v 0.03795316 -0.04109393 -0.04670173
v 0.04848811 -0.03546315 -0.04400399
v 0.04106321 -0.04575533 -0.04631623
v 0.07419440 -0.01666729 -0.02912883
v 0.05168368 -0.01197976 -0.04228893
v 0.05039907 -0.01699897 -0.04316361
v 0.04860903 -0.02191959 -0.04403254
v 0.07449926 -0.02669870 -0.03201904
v 0.07821993 -0.01747853 -0.02741515
v 0.08022138 -0.00932610 -0.02351453
v 0.05279997 -0.00014805 -0.04020221
v 0.07528692 0.00592772 -0.02016520
v 0.07897571 0.01191502 -0.01518310
v 0.07129411 0.00561421 -0.02256636
v 0.06967090 0.00948767 -0.02182131
v 0.06740743 0.00363533 -0.02595433
v 0.06473427 0.00637357 -0.02676908
v 0.07173311 -0.00055748 -0.02486379
v 0.06373879 0.00065003 -0.02980812
v 0.05563237 0.00607654 -0.03526700
v 0.05631785 0.00006505 -0.03649614
v 0.05996393 0.00033089 -0.03303143
v 0.06026443 0.00628719 -0.03055738
v 0.08136751 -0.00151663 -0.01987112
v 0.05385392 0.00993897 -0.03567442
v 0.07269470 0.01824149 -0.01552726
v 0.03476380 0.04145172 -0.03090647
v 0.03159085 0.04424882 -0.03049159
v 0.05274507 0.02844049 -0.02411883
v 0.05026664 0.03224666 -0.02318472
v 0.04755261 0.03588843 -0.02229657
v 0.04461652 0.03937726 -0.02143936
v 0.06105930 0.03225326 -0.01365344
v 0.05819621 0.03216429 -0.01585031
v 0.06073466 0.02782475 -0.01731303
v 0.06636357 0.02861354 -0.01285414
v 0.06295678 0.02329477 -0.01881503
v 0.06994038 0.02551598 -0.01280649
v 0.06483226 0.01861432 -0.02035757
v 0.05275622 0.01392181 -0.03496684
v 0.05135920 0.01781638 -0.03430333
v 0.04968236 0.02160584 -0.03368972
v 0.04775022 0.02525953 -0.03312870
v 0.04557760 0.02877056 -0.03261847
v 0.04317630 0.03214654 -0.03215281
v 0.04056389 0.03538886 -0.03172167
v 0.06633934 0.01382196 -0.02193887
v 0.05496988 0.02446375 -0.02510763
v 0.05691663 0.02032901 -0.02615388
v 0.05855716 0.01606869 -0.02725596
v 0.05986944 0.01170785 -0.02840825
v 0.07342990 0.02160688 -0.01308600
v 0.07595164 0.01799379 -0.01376171
v 0.08081145 0.00606550 -0.01686572
v -0.07920776 0.00390947 -0.02573534
v -0.07894085 0.00826637 -0.02431592
v -0.07804003 0.01291073 -0.02314039
v -0.07598310 0.01841297 -0.02229246
v -0.07342823 0.02318771 -0.02197770
v -0.07029671 0.02756711 -0.02213161
v -0.05823838 0.03752126 -0.02555685
v -0.06259033 0.03483860 -0.02390578
v -0.06663716 0.03149995 -0.02277147
v -0.05630118 0.03852072 -0.02638304
v -0.05111206 0.04107371 -0.02854276
v -0.04537133 0.04369672 -0.03080673
v -0.03299233 0.03205359 -0.05020031
v -0.03558015 0.02910563 -0.05023401
v -0.03794322 0.02600546 -0.05020004
v -0.01467296 0.05309607 -0.03861105
v -0.02262330 0.05147668 -0.03722355
v -0.03817821 0.04666923 -0.03325742
v -0.03053511 0.04930558 -0.03542954
v -0.02159373 0.04061757 -0.05019954
v -0.01909819 0.04184597 -0.05020050
v -0.01499588 0.04348708 -0.05019986
v -0.01162729 0.04451747 -0.05020570
v -0.02602363 0.03792107 -0.05021361
v -0.02975403 0.03508247 -0.05019962
v -0.01219067 0.05348298 -0.03895753
v -0.00580200 0.05418724 -0.03955676
v -0.00000000 0.05437552 -0.03974917
v -0.00636576 0.04558337 -0.05020186
v 0.00004802 0.04606479 -0.05020361
v 0.01359068 0.05331562 -0.03880974
v 0.00576476 0.05419162 -0.03955968
v 0.00628927 0.04559524 -0.05020542
v 0.01174066 0.04448812 -0.05020897
v 0.04534706 0.04370683 -0.03081552
v 0.03817821 0.04666923 -0.03325742
v 0.03053511 0.04930558 -0.03542954
v 0.02262330 0.05147668 -0.03722355
v 0.02159367 0.04061761 -0.05019954
v 0.01909819 0.04184597 -0.05020050
v 0.01499585 0.04348709 -0.05019987
v 0.02974210 0.03507298 -0.05021700
v 0.02578280 0.03812623 -0.05019917
v 0.03299232 0.03205359 -0.05020032
v 0.05111206 0.04107371 -0.02854276
v 0.03560453 0.02912322 -0.05020068
v 0.05630118 0.03852072 -0.02638304
v 0.03794322 0.02600546 -0.05020004
v 0.05823838 0.03752126 -0.02555685
v 0.06079577 0.03580253 -0.01678573
v 0.06678484 0.03165682 -0.01566931
v 0.07023046 0.02826582 -0.01542176
v 0.07392777 0.02387761 -0.01554007
v 0.07763089 0.01784210 -0.01657054
v 0.07962099 0.01295349 -0.01784298
v 0.08095780 0.00829499 -0.01929810
v 0.08132991 0.00156778 -0.02228818
v 0.07926897 0.00424976 -0.02557488
v 0.07894085 0.00826637 -0.02431592
v 0.07850119 0.01083077 -0.02363654
v 0.07784992 0.01340102 -0.02307006
v 0.07598310 0.01841297 -0.02229246
v 0.07342823 0.02318771 -0.02197770
v 0.07029671 0.02756711 -0.02213161
v 0.06663716 0.03149995 -0.02277147
v 0.06259033 0.03483860 -0.02390578
v 0.03943110 -0.06390687 -0.05024134
v 0.03368380 -0.06704067 -0.05093367
v 0.04371735 -0.06113484 -0.04945028
v 0.04833823 -0.05776648 -0.04833632
v 0.05361870 -0.05335113 -0.04672875
v 0.06044305 -0.04636157 -0.04380618
v 0.06712630 -0.03781893 -0.03999399
v 0.07178945 -0.03037536 -0.03658965
v 0.07527538 -0.02319003 -0.03321567
v 0.07799015 -0.01618709 -0.02992757
v 0.08046915 -0.00651419 -0.02568026
v 0.07860745 -0.00200030 -0.02810374
v 0.07765594 -0.00706479 -0.03022660
v 0.07661700 -0.01105678 -0.03195725
v 0.07465354 -0.01684606 -0.03453675
v 0.07029346 -0.02621174 -0.03880166
v 0.06474975 -0.03499281 -0.04278911
v 0.06150726 -0.03921255 -0.04466715
v 0.05026618 -0.05064126 -0.04940625
v 0.05633210 -0.04499257 -0.04715122
v 0.05803479 -0.04320253 -0.04639657
v 0.03173684 -0.06273494 -0.05302361
v 0.03739221 -0.05975588 -0.05239965
v 0.04148085 -0.05720761 -0.05167226
v 0.04600695 -0.05403638 -0.05063786
v 0.03207426 -0.04945873 -0.05127183
v 0.05225972 0.03177112 -0.03434971
v 0.05438218 0.02918777 -0.03420366
v 0.04051950 0.02177451 -0.05020000
v 0.04654707 -0.03720977 -0.04861189
v 0.04210247 -0.04176603 -0.04970326
v 0.03725705 -0.04587044 -0.05059555
v 0.06914745 -0.00997971 -0.03633966
v 0.06691416 -0.01711305 -0.03894047
v 0.06399742 -0.02383234 -0.04142690
v 0.06047849 -0.03012337 -0.04375666
v 0.05052477 -0.03227438 -0.04733527
v 0.06236475 -0.00228708 -0.03923296
v 0.06264748 0.00432176 -0.03760972
v 0.06204844 0.01091019 -0.03618425
v 0.06139628 0.01417578 -0.03557591
v 0.06049689 0.01738951 -0.03505794
v 0.05934300 0.02051985 -0.03464743
v 0.05793552 0.02354350 -0.03435975
v 0.05627872 0.02643946 -0.03420873
v 0.06127380 -0.00884674 -0.04095977
v 0.05946270 -0.01521986 -0.04269365
v 0.05701981 -0.02127410 -0.04435127
v 0.05402037 -0.02696462 -0.04590444
v 0.05201124 -0.01332668 -0.04644683
v 0.05004220 -0.01871585 -0.04727564
v 0.04375168 -0.01420229 -0.05020000
v 0.04306459 -0.01615761 -0.05020000
v 0.04756226 -0.02380588 -0.04805222
v 0.04031348 -0.02162018 -0.05027983
v 0.04462895 -0.02854986 -0.04876763
v 0.03596595 -0.02868998 -0.05020357
v 0.04124538 0.02036595 -0.05020000
v 0.04258612 0.01739000 -0.05020000
v 0.04455978 -0.01143350 -0.05020000
v 0.04557968 -0.00619851 -0.05020000
v 0.05340015 -0.00771376 -0.04557989
v 0.04589160 -0.00311340 -0.05020000
v 0.05416552 -0.00198925 -0.04471648
v 0.04602483 0.00001337 -0.05018751
v 0.05426987 0.00374369 -0.04390486
v 0.04573808 0.00491531 -0.05020000
v 0.02075211 -0.04105274 -0.05019958
v 0.02596042 -0.03797111 -0.05020000
v 0.03069397 -0.03426548 -0.05020009
v 0.03259743 -0.03244877 -0.05020000
v 0.04529888 0.00799889 -0.05020000
v 0.04449772 0.01165707 -0.05020000
v 0.04416056 0.01287795 -0.05020000
v 0.03052569 -0.06330835 -0.05311961
v 0.01997439 -0.04143773 -0.05019961
v 0.02459986 -0.07081634 -0.05150710
v 0.01653715 -0.07309902 -0.05185796
v 0.00821947 -0.07448705 -0.05206512
v -0.00000000 -0.07494842 -0.05213081
v 0.01542676 -0.06840065 -0.05393430
v 0.02311679 -0.06627349 -0.05360189
v -0.00000000 -0.07004415 -0.05418333
v 0.00771686 -0.06961942 -0.05412163
v -0.02459986 -0.07081634 -0.05150710
v -0.03369306 -0.06707765 -0.05089985
v -0.03052876 -0.06330713 -0.05311942
v -0.02305885 -0.06630467 -0.05360701
v -0.01653715 -0.07309902 -0.05185796
v -0.00771686 -0.06961942 -0.05412163
v -0.00821947 -0.07448705 -0.05206512
v -0.01286276 -0.06887832 -0.05400921
v -0.01554397 -0.06834292 -0.05392690
v -0.04124627 -0.06282178 -0.05000871
v -0.04833823 -0.05776648 -0.04833632
v -0.05380112 -0.05323010 -0.04661926
v -0.06044305 -0.04636157 -0.04380618
v -0.06712630 -0.03781893 -0.03999399
v -0.07187244 -0.03023231 -0.03652396
v -0.07527538 -0.02319003 -0.03321567
v -0.07794844 -0.01637176 -0.03001043
v -0.08050765 -0.00633459 -0.02558347
v -0.07851540 -0.00271998 -0.02839647
v -0.07765594 -0.00706479 -0.03022660
v -0.07465354 -0.01684606 -0.03453675
v -0.07029346 -0.02621174 -0.03880166
v -0.07661700 -0.01105678 -0.03195725
v -0.06150726 -0.03921255 -0.04466715
v -0.06474975 -0.03499281 -0.04278911
v -0.05803479 -0.04320253 -0.04639657
v -0.05633210 -0.04499257 -0.04715122
v -0.05026618 -0.05064126 -0.04940625
v -0.03173664 -0.06273518 -0.05302361
v -0.03733487 -0.05978435 -0.05240677
v -0.04148085 -0.05720761 -0.05167226
v -0.04600695 -0.05403638 -0.05063786
v -0.02027968 -0.04130676 -0.05019756
v 0.00148139 -0.04600329 -0.05020007
v 0.00812769 -0.04527600 -0.05020000
v 0.01418169 -0.04375917 -0.05020000
v -0.01726039 -0.04263891 -0.05020000
v -0.01448260 -0.04366053 -0.05020000
v -0.00844004 -0.04521882 -0.05020000
v -0.00222210 -0.04594596 -0.05020000
v -0.04122727 -0.03297814 -0.04940594
v -0.03858422 -0.02506989 -0.05022623
v -0.03259743 -0.03244877 -0.05020000
v -0.06049689 0.01738951 -0.03505794
v -0.06139628 0.01417578 -0.03557591
v -0.04210247 -0.04176603 -0.04970326
v -0.03725705 -0.04587044 -0.05059555
v -0.06236475 -0.00228708 -0.03923296
v -0.06264748 0.00432176 -0.03760972
v -0.06914745 -0.00997971 -0.03633966
v -0.06691416 -0.01711305 -0.03894047
v -0.06399742 -0.02383234 -0.04142690
v -0.06047849 -0.03012337 -0.04375666
v -0.04654707 -0.03720977 -0.04861189
v -0.05052477 -0.03227438 -0.04733527
v -0.03207426 -0.04945873 -0.05127183
v -0.05934300 0.02051985 -0.03464743
v -0.05793552 0.02354350 -0.03435975
v -0.05627872 0.02643946 -0.03420873
v -0.05438218 0.02918777 -0.03420366
v -0.05225972 0.03177112 -0.03434971
v -0.06204844 0.01091019 -0.03618425
v -0.05402037 -0.02696462 -0.04590444
v -0.05701981 -0.02127410 -0.04435127
v -0.05946270 -0.01521986 -0.04269365
v -0.06127380 -0.00884674 -0.04095977
v -0.04451984 -0.01147660 -0.05021947
v -0.04070987 -0.02162182 -0.05017202
v -0.05004220 -0.01871585 -0.04727564
v -0.04756226 -0.02380588 -0.04805222
v -0.04462895 -0.02854986 -0.04876763
v -0.04416056 0.01287795 -0.05020000
v -0.04258612 0.01739000 -0.05020000
v -0.04124538 0.02036595 -0.05020000
v -0.04051950 0.02177451 -0.05020000
v -0.05201124 -0.01332668 -0.04644683
v -0.05340015 -0.00771376 -0.04557989
v -0.04557968 -0.00619851 -0.05020000
v -0.05416552 -0.00198925 -0.04471648
v -0.04589160 -0.00311340 -0.05020000
v -0.05426987 0.00374369 -0.04390486
v -0.04589225 0.00316561 -0.05020000
v -0.04532050 0.00793493 -0.05019958
v -0.04449771 0.01165711 -0.05020000
v -0.02596042 -0.03797111 -0.05020000
v -0.03069397 -0.03426548 -0.05020001
v 0.01164177 0.01745796 -0.05796449
v 0.01164177 0.02327701 -0.05665372
v 0.01746504 0.02327701 -0.05581889
v -0.02912113 -0.02327543 -0.05256351
v -0.02329786 -0.02327543 -0.05364520
v -0.02329786 -0.03491355 -0.05110866
v 0.02328831 -0.03491355 -0.05107892
v 0.03493485 -0.01745638 -0.05220059
v 0.03493485 -0.01163732 -0.05300180
v 0.03493485 -0.00581827 -0.05358786
v 0.03493485 0.00000079 -0.05388505
v 0.03493485 0.00581985 -0.05384137
v 0.03493485 0.01163890 -0.05343660
v 0.03493485 0.01745796 -0.05269185
v 0.03493485 0.02327701 -0.05165658
v 0.02911158 0.02327701 -0.05328352
v 0.02328831 0.03491513 -0.05161105
v 0.01746504 0.03491513 -0.05259291
v 0.01164177 0.03491513 -0.05331305
v 0.00581850 0.03491513 -0.05375328
v -0.00000477 0.03491513 -0.05390248
v -0.01165131 0.03491513 -0.05331888
v -0.02329785 0.03491513 -0.05161548
v -0.01747458 0.03491513 -0.05259938
v -0.03494439 0.02327702 -0.05166573
v -0.03494439 0.01745796 -0.05271204
v -0.03494440 0.01163890 -0.05346814
v -0.03494440 0.00581985 -0.05388389
v -0.03494440 0.00000079 -0.05393703
v -0.03494440 -0.00581826 -0.05364602
v -0.03500999 -0.01165970 -0.05303711
v -0.03494440 -0.02327543 -0.05131191
v -0.01165131 -0.03491355 -0.05219324
v -0.00000477 -0.03491355 -0.05255047
v 0.01164177 -0.03491355 -0.05215896
v 0.00581850 -0.02327543 -0.05551464
v 0.01164177 -0.00581827 -0.05888478
v 0.01746504 -0.01163732 -0.05706238
v 0.01164177 -0.01163732 -0.05790330
v 0.01746504 -0.02327543 -0.05445022
v 0.01164177 -0.02327543 -0.05510551
v 0.00581850 -0.01163732 -0.05842669
v -0.00000477 -0.00581827 -0.05964833
v 0.01164177 0.00000079 -0.05940959
v -0.00000477 0.00000079 -0.06019958
v 0.01164177 0.00581985 -0.05941289
v -0.00000477 0.01163890 -0.05967905
v -0.00000477 0.01745796 -0.05869622
v 0.02328831 0.00581985 -0.05719066
v 0.02328831 0.00000079 -0.05719720
v 0.02328831 -0.00581827 -0.05675816
v 0.02328831 -0.01163732 -0.05593490
v 0.02328831 -0.01745638 -0.05483196
v 0.02328831 -0.02327543 -0.05357181
v -0.00000477 0.00581985 -0.06020164
v 0.01164177 0.01163890 -0.05891185
v 0.01746504 0.01163890 -0.05798733
v 0.02328831 0.01163890 -0.05673759
v 0.02328831 0.01745796 -0.05587937
v -0.00000477 0.02327701 -0.05734130
v 0.00581850 0.02327701 -0.05716594
v 0.02328831 0.02327701 -0.05468472
v -0.01165131 0.01745796 -0.05798664
v -0.01747458 0.02327702 -0.05583981
v -0.01165131 0.02327702 -0.05666980
v -0.02912113 -0.01163732 -0.05463994
v -0.02329786 -0.01163732 -0.05601519
v -0.01747458 -0.02327543 -0.05451980
v -0.00582804 -0.02327543 -0.05554361
v -0.01165131 -0.02327543 -0.05515906
v -0.01165131 -0.01163732 -0.05795685
v -0.01747458 -0.01163732 -0.05713418
v -0.02329786 -0.00581827 -0.05683292
v -0.00000477 -0.02327543 -0.05566282
v -0.00582804 -0.01163732 -0.05845521
v -0.00000477 -0.01163732 -0.05861321
v -0.01165131 -0.00581827 -0.05893384
v -0.01165131 0.00000079 -0.05945236
v -0.02329785 0.00000079 -0.05726277
v -0.01165131 0.00581985 -0.05944868
v -0.02329785 0.00581985 -0.05724534
v -0.01165131 0.01163890 -0.05894065
v -0.02329785 0.01163890 -0.05678092
v -0.02329785 0.01745796 -0.05591168
v -0.02329785 0.02327702 -0.05470677
v -0.02329785 0.02909607 -0.05324802
f 1 2 3
f 1 3 4
f 2 5 3
f 3 5 6
f 4 7 1
f 8 7 9
f 9 7 4
f 10 11 12
f 11 13 12
f 8 14 15
f 15 14 16
f 16 14 17
f 16 17 18
f 18 17 19
f 18 19 20
f 20 19 21
f 20 21 22
f 23 22 12
f 8 9 14
f 22 21 24
f 22 24 12
f 13 23 12
f 25 13 11
f 26 27 28
f 28 27 10
f 27 26 29
f 27 29 30
f 30 29 31
f 30 31 32
f 32 31 33
f 32 33 34
f 34 33 35
f 34 35 36
f 36 35 37
f 36 37 38
f 38 37 39
f 38 39 40
f 40 39 41
f 40 41 42
f 42 41 43
f 42 43 44
f 44 43 45
f 44 45 46
f 46 45 47
f 46 47 48
f 48 47 49
f 48 49 50
f 50 49 51
f 50 51 52
f 52 51 53
f 52 53 54
f 54 53 55
f 54 55 56
f 57 58 56
f 57 56 55
f 59 1 60
f 60 1 7
f 60 7 61
f 61 7 8
f 62 5 63
f 63 5 2
f 63 2 59
f 59 2 1
f 5 62 64
f 5 64 65
f 65 64 66
f 67 68 69
f 69 68 66
f 66 68 65
f 70 71 72
f 72 73 70
f 70 73 67
f 67 73 68
f 74 75 76
f 76 75 77
f 76 77 78
f 78 77 79
f 78 79 71
f 71 79 72
f 80 81 82
f 82 81 74
f 74 81 75
f 83 81 80
f 13 25 84
f 84 25 85
f 86 87 22
f 22 23 86
f 86 23 88
f 88 23 13
f 88 13 84
f 89 20 90
f 90 20 22
f 90 22 87
f 91 16 92
f 92 16 93
f 93 16 18
f 93 18 94
f 94 18 89
f 89 18 20
f 95 15 91
f 91 15 16
f 61 8 95
f 95 8 15
f 85 25 96
f 96 25 97
f 96 97 98
f 98 97 99
f 99 97 100
f 99 100 101
f 101 100 102
f 101 102 103
f 103 102 104
f 103 104 105
f 105 104 106
f 105 106 107
f 107 106 108
f 107 108 109
f 109 108 110
f 109 110 111
f 111 110 112
f 111 112 113
f 113 112 114
f 113 114 115
f 115 114 116
f 115 116 117
f 117 116 118
f 117 118 119
f 119 118 120
f 119 120 121
f 121 120 122
f 121 122 123
f 123 122 124
f 123 124 125
f 125 124 126
f 125 126 127
f 127 126 128
f 127 128 129
f 129 128 130
f 129 130 131
f 131 130 132
f 131 132 133
f 133 132 134
f 133 134 135
f 135 134 136
f 135 136 137
f 137 136 138
f 137 138 139
f 139 138 140
f 139 140 141
f 141 140 142
f 141 142 143
f 143 142 144
f 143 144 145
f 145 144 146
f 145 146 83
f 83 146 81
f 147 148 149
f 150 148 147
f 147 151 150
f 147 152 151
f 153 154 147
f 147 154 152
f 147 155 153
f 147 156 155
f 157 156 147
f 147 158 159
f 147 160 158
f 147 161 160
f 162 161 147
f 149 162 147
f 149 60 61
f 149 61 162
f 162 61 91
f 162 91 93
f 162 93 161
f 161 93 89
f 161 89 160
f 160 86 84
f 160 84 158
f 158 84 85
f 158 85 98
f 158 98 159
f 159 98 101
f 159 101 105
f 159 105 147
f 147 105 107
f 147 107 157
f 157 107 111
f 157 111 115
f 157 115 119
f 157 119 156
f 156 125 155
f 155 125 129
f 155 129 133
f 155 133 153
f 153 133 135
f 153 135 139
f 153 139 154
f 154 145 152
f 152 145 83
f 152 83 80
f 152 80 151
f 151 80 74
f 151 74 78
f 151 78 150
f 150 78 71
f 150 71 70
f 150 70 69
f 150 69 148
f 148 69 64
f 148 64 63
f 148 63 149
f 149 63 60
f 61 95 91
f 91 92 93
f 93 94 89
f 89 90 160
f 160 90 87
f 160 87 86
f 86 88 84
f 85 96 98
f 98 99 101
f 101 103 105
f 107 109 111
f 111 113 115
f 115 117 119
f 119 121 156
f 156 121 123
f 156 123 125
f 125 127 129
f 129 131 133
f 135 137 139
f 139 141 154
f 154 141 143
f 154 143 145
f 80 82 74
f 74 76 78
f 70 67 69
f 69 66 64
f 63 59 60
f 64 62 63
f 77 75 163
f 163 75 81
f 79 77 164
f 164 77 163
f 163 81 58
f 165 166 167
f 164 168 79
f 79 168 169
f 79 169 72
f 72 169 73
f 68 73 166
f 166 73 169
f 167 166 169
f 167 169 168
f 166 165 170
f 166 170 171
f 166 171 68
f 68 171 65
f 65 171 5
f 171 6 5
f 170 6 171
f 11 10 27
f 58 81 146
f 58 146 172
f 172 146 144
f 172 144 173
f 173 144 142
f 173 142 140
f 173 140 174
f 174 140 138
f 174 138 136
f 174 136 134
f 174 134 175
f 175 134 132
f 175 132 130
f 175 130 128
f 175 128 176
f 176 128 126
f 176 126 124
f 176 124 177
f 177 124 122
f 177 122 120
f 177 120 178
f 178 120 118
f 178 118 116
f 178 116 179
f 179 116 114
f 179 114 112
f 179 112 110
f 179 110 180
f 180 110 108
f 180 108 106
f 180 106 104
f 181 104 102
f 181 102 100
f 181 100 182
f 56 58 172
f 48 174 175
f 46 175 176
f 38 178 179
f 36 179 180
f 27 181 182
f 97 25 182
f 182 25 11
f 100 97 182
f 27 182 11
f 181 30 32
f 172 173 54
f 34 180 32
f 32 180 104
f 32 104 181
f 54 173 52
f 30 181 27
f 52 173 174
f 52 174 50
f 50 174 48
f 172 54 56
f 48 175 46
f 46 176 44
f 44 176 42
f 176 177 42
f 42 177 40
f 40 177 178
f 40 178 38
f 38 179 36
f 34 36 180
f 183 58 57
f 183 57 184
f 184 185 183
f 186 187 55
f 55 187 57
f 57 187 188
f 57 188 184
f 186 55 53
f 186 53 189
f 51 190 191
f 51 191 53
f 53 191 192
f 53 192 189
f 49 193 51
f 51 193 190
f 193 49 47
f 193 47 194
f 45 194 47
f 195 196 197
f 197 196 198
f 195 199 196
f 200 201 202
f 203 204 205
f 204 206 205
f 205 206 207
f 208 193 194
f 194 209 208
f 208 209 210
f 211 212 213
f 213 212 214
f 213 214 215
f 215 214 204
f 203 216 204
f 204 216 215
f 212 211 217
f 217 211 210
f 217 210 209
f 206 218 219
f 219 220 200
f 200 220 201
f 41 221 43
f 43 221 222
f 194 45 223
f 223 45 222
f 222 45 43
f 209 194 223
f 209 223 217
f 218 224 225
f 219 218 225
f 219 225 226
f 219 200 207
f 219 207 206
f 217 224 212
f 212 224 214
f 214 224 218
f 214 218 204
f 204 218 206
f 217 223 224
f 224 223 222
f 224 222 225
f 225 222 221
f 225 221 226
f 226 221 227
f 226 227 219
f 228 39 229
f 39 228 230
f 230 228 231
f 230 231 232
f 232 231 233
f 233 234 196
f 196 234 235
f 233 196 236
f 236 196 199
f 236 199 201
f 236 201 220
f 236 220 227
f 227 220 219
f 234 233 237
f 237 233 231
f 237 231 238
f 238 231 228
f 238 228 229
f 41 230 221
f 221 230 227
f 227 230 232
f 227 232 236
f 236 232 233
f 235 234 239
f 239 234 237
f 239 237 240
f 240 237 238
f 240 238 241
f 242 241 229
f 229 241 238
f 235 198 196
f 230 41 39
f 39 37 229
f 242 229 35
f 35 229 37
f 31 243 244
f 31 244 33
f 33 244 242
f 33 242 35
f 243 31 245
f 245 31 29
f 245 29 246
f 246 29 26
f 246 26 247
f 248 247 26
f 248 26 249
f 249 26 28
f 249 28 250
f 28 10 250
f 250 10 251
f 250 251 252
f 252 251 253
f 252 253 254
f 255 256 257
f 255 257 258
f 259 258 260
f 261 260 262
f 261 262 263
f 263 262 247
f 264 265 266
f 267 268 265
f 265 268 269
f 270 245 271
f 271 245 246
f 271 246 272
f 272 246 247
f 272 247 262
f 273 244 243
f 274 244 273
f 274 273 275
f 242 276 241
f 241 276 277
f 241 277 240
f 240 277 278
f 278 239 240
f 198 235 279
f 279 235 239
f 280 270 281
f 281 270 271
f 281 271 282
f 282 271 272
f 282 272 283
f 283 272 262
f 284 266 285
f 266 265 269
f 266 269 285
f 285 269 286
f 287 285 288
f 257 289 290
f 290 289 288
f 288 289 287
f 291 260 292
f 292 260 258
f 292 258 257
f 278 293 294
f 295 198 279
f 264 296 297
f 294 297 298
f 294 298 295
f 294 295 279
f 279 239 278
f 279 278 294
f 293 275 299
f 299 275 273
f 299 273 280
f 280 273 243
f 280 243 270
f 270 243 245
f 242 244 276
f 276 244 274
f 276 274 277
f 277 274 275
f 277 275 278
f 278 275 293
f 292 257 290
f 292 290 291
f 291 290 288
f 291 288 286
f 286 288 285
f 285 287 284
f 266 284 300
f 266 300 264
f 267 265 297
f 297 265 264
f 264 300 296
f 262 260 283
f 283 260 291
f 283 291 282
f 282 291 286
f 282 286 281
f 281 286 269
f 281 269 280
f 280 269 268
f 280 268 299
f 299 268 267
f 299 267 293
f 293 267 297
f 293 297 294
f 298 297 296
f 301 284 287
f 301 287 289
f 301 289 302
f 302 289 257
f 302 257 303
f 303 257 256
f 252 254 304
f 248 249 305
f 305 249 252
f 306 307 308
f 309 306 310
f 310 306 308
f 310 308 311
f 310 311 312
f 312 311 313
f 312 313 314
f 256 255 311
f 311 255 258
f 311 258 259
f 314 313 315
f 314 315 316
f 316 315 317
f 316 317 304
f 304 317 305
f 304 305 252
f 252 249 250
f 307 256 308
f 308 256 311
f 313 311 259
f 313 259 315
f 315 259 260
f 315 260 317
f 317 260 261
f 317 261 305
f 305 261 263
f 305 263 248
f 248 263 247
f 303 256 307
f 318 306 309
f 309 319 318
f 320 321 322
f 321 320 323
f 323 320 324
f 323 324 325
f 326 327 328
f 328 329 326
f 326 329 325
f 325 329 323
f 330 318 331
f 332 306 333
f 333 306 318
f 333 318 330
f 332 307 306
f 331 318 319
f 331 319 334
f 334 319 328
f 334 328 327
f 321 335 322
f 336 337 335
f 335 337 322
f 338 339 340
f 341 14 9
f 342 14 341
f 19 17 342
f 342 17 14
f 19 342 343
f 19 343 21
f 21 343 344
f 21 344 24
f 24 344 345
f 346 12 345
f 345 12 24
f 10 12 346
f 10 346 251
f 254 253 347
f 347 253 348
f 348 253 349
f 9 338 341
f 341 338 340
f 341 340 350
f 341 350 342
f 342 350 351
f 342 351 343
f 343 351 352
f 343 352 344
f 344 352 353
f 344 353 345
f 345 353 349
f 345 349 346
f 346 349 253
f 346 253 251
f 348 349 354
f 354 349 353
f 354 353 355
f 355 353 352
f 355 352 356
f 356 352 351
f 356 351 357
f 357 351 358
f 358 351 350
f 358 350 359
f 359 350 360
f 360 350 340
f 360 340 361
f 361 340 339
f 361 339 362
f 312 314 363
f 364 321 323
f 364 323 365
f 365 323 366
f 366 323 329
f 321 367 335
f 335 367 368
f 335 368 336
f 359 360 369
f 361 362 370
f 370 371 361
f 361 371 360
f 360 371 372
f 360 372 369
f 359 369 373
f 359 373 358
f 358 373 374
f 358 374 357
f 357 374 375
f 357 375 356
f 375 376 356
f 356 376 377
f 356 377 355
f 355 377 378
f 355 378 354
f 354 378 379
f 354 379 348
f 348 379 380
f 348 380 381
f 348 381 347
f 314 316 382
f 382 316 304
f 381 383 347
f 347 383 382
f 347 382 254
f 254 382 304
f 309 310 384
f 312 363 310
f 384 310 363
f 384 363 385
f 385 363 386
f 385 386 366
f 366 386 387
f 366 387 365
f 365 387 388
f 365 388 364
f 364 388 389
f 364 389 321
f 321 389 390
f 321 390 367
f 366 329 385
f 385 329 328
f 385 328 384
f 384 328 319
f 384 319 309
f 373 391 374
f 374 391 375
f 375 391 336
f 375 336 376
f 376 336 368
f 376 368 377
f 377 368 367
f 377 367 378
f 378 367 390
f 378 390 379
f 379 390 389
f 379 389 380
f 380 389 388
f 380 388 381
f 381 388 387
f 381 387 383
f 383 387 386
f 383 386 382
f 382 386 363
f 382 363 314
f 392 393 394
f 395 185 396
f 58 183 163
f 163 183 397
f 398 168 164
f 398 164 399
f 399 164 397
f 397 164 163
f 400 165 167
f 400 167 398
f 398 167 168
f 165 400 401
f 165 401 170
f 401 394 170
f 170 394 6
f 6 394 393
f 402 403 404
f 404 403 405
f 404 405 406
f 406 405 395
f 406 395 407
f 407 395 408
f 408 395 396
f 402 409 403
f 403 409 410
f 403 410 411
f 411 410 412
f 411 412 413
f 413 412 414
f 413 414 415
f 415 414 416
f 415 416 417
f 415 417 418
f 418 417 419
f 418 419 420
f 183 185 397
f 397 185 395
f 397 395 399
f 399 395 405
f 399 405 398
f 398 405 403
f 398 403 411
f 398 411 400
f 400 411 413
f 400 413 401
f 401 413 415
f 401 415 394
f 394 415 418
f 394 418 392
f 392 418 420
f 392 420 421
f 422 4 3
f 3 393 422
f 422 393 423
f 422 423 424
f 424 423 425
f 424 425 426
f 3 6 393
f 423 393 392
f 423 392 425
f 425 392 421
f 338 422 427
f 338 427 339
f 339 427 428
f 339 428 362
f 426 428 424
f 424 428 427
f 424 427 422
f 4 422 338
f 4 338 9
f 362 428 370
f 370 428 429
f 429 428 430
f 430 428 426
f 430 426 431
f 426 425 431
f 431 425 421
f 431 421 432
f 433 372 371
f 372 433 369
f 369 433 434
f 369 434 373
f 373 434 391
f 435 337 336
f 434 436 391
f 391 436 435
f 391 435 336
f 437 438 439
f 439 438 440
f 439 440 441
f 440 442 441
f 441 442 443
f 443 442 444
f 443 444 445
f 445 444 446
f 446 444 447
f 446 447 448
f 448 447 449
f 449 447 450
f 450 451 449
f 452 187 453
f 453 187 186
f 452 453 454
f 454 453 455
f 456 455 457
f 456 457 458
f 458 457 459
f 460 461 462
f 190 463 464
f 465 208 210
f 193 208 465
f 193 465 466
f 193 466 190
f 190 464 191
f 191 464 467
f 191 467 192
f 192 467 468
f 192 468 189
f 189 468 469
f 189 469 186
f 470 471 472
f 470 472 473
f 474 473 475
f 475 473 476
f 475 476 477
f 477 476 478
f 477 478 479
f 473 472 476
f 476 472 480
f 476 480 478
f 457 455 481
f 481 455 479
f 481 479 478
f 482 215 483
f 462 461 484
f 484 461 485
f 470 486 484
f 470 487 486
f 486 487 488
f 486 488 483
f 483 488 489
f 483 489 482
f 215 216 483
f 483 216 460
f 483 460 462
f 483 462 486
f 486 462 484
f 463 190 466
f 463 466 490
f 490 466 465
f 490 465 491
f 491 465 210
f 491 210 211
f 492 490 489
f 489 490 491
f 489 491 493
f 493 491 213
f 459 457 481
f 459 481 494
f 494 481 478
f 494 478 480
f 455 453 479
f 479 453 495
f 479 495 477
f 477 495 496
f 477 496 475
f 475 496 497
f 475 497 474
f 484 471 470
f 470 473 487
f 487 473 474
f 487 474 488
f 488 474 492
f 488 492 489
f 482 489 493
f 482 493 215
f 215 493 213
f 453 186 469
f 453 469 495
f 495 469 468
f 495 468 496
f 496 468 467
f 496 467 497
f 497 467 464
f 497 464 474
f 474 464 463
f 474 463 492
f 492 463 490
f 491 211 213
f 484 485 471
f 480 472 498
f 480 498 494
f 494 498 499
f 500 459 499
f 499 459 494
f 187 452 188
f 184 188 185
f 501 396 185
f 502 503 504
f 504 503 505
f 504 505 506
f 506 505 507
f 458 508 506
f 458 506 509
f 452 454 501
f 452 501 188
f 188 501 185
f 510 511 512
f 513 510 512
f 513 512 507
f 507 512 509
f 507 509 506
f 504 506 508
f 504 508 502
f 502 508 514
f 459 508 458
f 456 458 509
f 456 509 455
f 455 509 512
f 455 512 454
f 454 512 511
f 454 511 501
f 501 511 510
f 501 510 396
f 396 510 515
f 505 503 516
f 432 421 437
f 437 421 420
f 447 444 517
f 517 444 518
f 518 444 442
f 417 442 440
f 519 451 520
f 520 451 450
f 520 450 521
f 521 450 522
f 523 524 525
f 523 525 526
f 526 525 527
f 526 527 528
f 529 528 527
f 396 515 408
f 408 515 530
f 408 530 407
f 407 530 531
f 407 531 406
f 406 531 532
f 406 532 404
f 404 532 533
f 404 533 402
f 402 533 534
f 402 534 409
f 409 534 535
f 409 535 410
f 410 535 536
f 410 536 412
f 437 420 438
f 438 420 419
f 438 419 440
f 440 419 417
f 417 416 442
f 442 416 414
f 442 414 518
f 518 414 412
f 518 412 517
f 517 412 536
f 517 536 447
f 507 537 513
f 523 451 524
f 524 451 519
f 524 519 525
f 525 519 538
f 525 538 527
f 527 538 539
f 527 539 529
f 529 539 540
f 529 540 537
f 537 540 541
f 537 541 513
f 507 505 537
f 537 505 516
f 537 516 529
f 529 516 542
f 529 542 528
f 450 447 522
f 522 447 536
f 522 536 521
f 521 536 535
f 521 535 520
f 520 535 534
f 520 534 519
f 519 534 533
f 519 533 538
f 538 533 532
f 538 532 539
f 539 532 531
f 539 531 540
f 540 531 530
f 540 530 541
f 541 530 515
f 541 515 513
f 513 515 510
f 503 543 516
f 516 543 542
f 544 503 502
f 514 544 502
f 514 508 500
f 500 508 459
f 545 332 546
f 332 333 546
f 546 333 547
f 333 330 547
f 547 330 331
f 547 331 548
f 548 331 334
f 548 334 549
f 549 334 327
f 549 327 550
f 322 551 320
f 320 551 552
f 320 552 324
f 324 552 553
f 324 553 325
f 325 553 550
f 325 550 326
f 326 550 327
f 551 322 554
f 337 555 322
f 322 555 554
f 555 337 556
f 556 337 435
f 556 557 558
f 556 558 555
f 555 558 559
f 555 559 554
f 371 560 561
f 556 435 436
f 556 436 562
f 562 436 563
f 436 434 563
f 563 434 561
f 561 434 433
f 561 433 371
f 564 563 565
f 565 563 561
f 565 561 566
f 566 561 560
f 566 560 567
f 564 568 563
f 563 568 562
f 568 569 562
f 562 569 557
f 562 557 556
f 570 567 560
f 370 570 560
f 370 560 371
f 570 370 429
f 571 570 429
f 571 429 572
f 572 429 430
f 567 570 573
f 573 570 571
f 573 571 574
f 574 571 572
f 432 575 431
f 431 575 576
f 431 576 430
f 430 576 572
f 575 432 437
f 574 572 577
f 572 576 577
f 577 576 575
f 577 575 578
f 575 437 439
f 446 579 445
f 445 579 443
f 443 579 580
f 443 580 441
f 441 580 581
f 441 581 439
f 439 581 582
f 439 582 575
f 581 583 582
f 582 583 584
f 582 584 575
f 575 584 585
f 575 585 578
f 586 587 581
f 581 587 583
f 581 580 586
f 586 580 579
f 586 579 588
f 448 589 446
f 446 589 579
f 588 579 590
f 579 589 590
f 590 589 591
f 590 591 592
f 448 449 589
f 589 449 591
f 449 593 591
f 449 451 594
f 594 523 595
f 594 451 523
f 595 523 526
f 595 526 528
f 595 528 596
f 596 528 597
f 597 528 542
f 597 542 598
f 599 503 600
f 600 503 544
f 600 544 601
f 601 544 514
f 542 543 598
f 598 543 503
f 598 503 599
f 601 602 600
f 600 602 603
f 600 603 604
f 600 604 599
f 599 604 605
f 599 605 598
f 598 605 606
f 598 606 597
f 597 606 607
f 597 607 608
f 597 608 596
f 596 608 595
f 595 608 609
f 593 449 610
f 610 449 594
f 610 594 609
f 609 594 595
f 611 203 612
f 613 216 611
f 611 216 203
f 461 460 614
f 614 460 613
f 613 460 216
f 614 615 461
f 461 615 616
f 461 616 485
f 485 616 471
f 471 616 617
f 471 617 472
f 472 617 618
f 619 498 618
f 618 498 472
f 620 499 619
f 619 499 498
f 621 601 514
f 621 514 500
f 621 500 499
f 621 499 620
f 602 601 622
f 622 601 621
f 622 621 623
f 623 621 624
f 624 621 620
f 624 620 625
f 625 620 619
f 625 619 626
f 619 618 626
f 626 618 627
f 627 618 617
f 627 617 628
f 628 617 616
f 629 630 616
f 616 630 631
f 616 631 628
f 612 632 611
f 611 632 633
f 611 633 613
f 613 633 634
f 613 634 614
f 614 634 635
f 614 635 615
f 615 635 629
f 615 629 616
f 633 632 636
f 591 637 592
f 592 637 638
f 592 638 639
f 640 629 641
f 641 629 635
f 641 635 642
f 642 635 634
f 642 634 636
f 636 634 633
f 623 624 643
f 643 624 625
f 643 625 644
f 644 625 626
f 644 626 645
f 645 626 627
f 645 627 646
f 646 627 628
f 646 628 647
f 647 628 631
f 647 631 640
f 640 631 630
f 640 630 629
f 622 648 649
f 622 649 602
f 602 649 603
f 603 649 650
f 603 650 604
f 604 650 605
f 605 650 651
f 605 651 606
f 606 651 652
f 606 652 607
f 652 653 607
f 607 653 654
f 607 654 608
f 591 593 637
f 637 593 610
f 637 610 638
f 638 610 609
f 638 609 655
f 622 623 648
f 648 623 643
f 648 643 656
f 656 643 644
f 656 644 657
f 657 644 645
f 657 645 658
f 658 645 646
f 658 646 659
f 659 646 647
f 660 661 662
f 662 661 663
f 663 661 664
f 663 664 665
f 665 664 666
f 665 666 667
f 639 638 668
f 668 638 655
f 668 655 669
f 662 670 660
f 660 670 671
f 660 671 672
f 672 671 673
f 672 673 674
f 674 673 675
f 674 675 676
f 676 675 677
f 632 678 636
f 636 678 679
f 636 679 642
f 642 679 680
f 642 680 641
f 641 680 681
f 681 667 641
f 641 667 640
f 640 667 666
f 640 666 647
f 647 666 664
f 647 664 659
f 659 664 661
f 659 661 658
f 658 661 660
f 658 660 657
f 657 660 672
f 657 672 656
f 656 672 674
f 656 674 648
f 648 674 676
f 648 676 649
f 649 676 677
f 649 677 650
f 650 677 682
f 650 682 651
f 651 682 683
f 651 683 652
f 652 683 684
f 652 684 653
f 653 684 669
f 653 669 654
f 654 669 655
f 654 655 608
f 608 655 609
f 685 686 632
f 632 686 678
f 632 612 685
f 612 203 205
f 612 205 687
f 687 205 688
f 688 205 207
f 688 207 689
f 689 207 200
f 202 690 200
f 200 690 689
f 687 688 691
f 685 612 692
f 692 612 687
f 692 687 691
f 690 693 689
f 689 693 694
f 689 694 688
f 688 694 691
f 695 696 697
f 697 698 695
f 695 698 699
f 693 690 700
f 700 690 701
f 700 701 702
f 702 701 699
f 702 699 703
f 703 699 698
f 696 197 198
f 696 198 704
f 704 198 295
f 704 295 705
f 705 295 706
f 706 295 298
f 706 298 707
f 298 296 707
f 707 296 708
f 296 300 708
f 708 300 709
f 300 284 709
f 709 284 301
f 709 301 710
f 710 301 711
f 711 301 302
f 711 302 712
f 712 302 303
f 332 712 307
f 712 303 307
f 690 202 701
f 701 202 201
f 701 201 699
f 699 201 199
f 699 199 695
f 199 195 695
f 695 195 696
f 696 195 197
f 712 332 545
f 545 713 712
f 712 713 714
f 715 716 709
f 709 710 715
f 715 710 711
f 715 711 717
f 717 711 714
f 714 711 712
f 718 707 719
f 719 707 708
f 719 708 716
f 716 708 709
f 718 720 707
f 707 720 721
f 707 721 706
f 706 721 722
f 723 696 724
f 724 696 704
f 724 704 725
f 725 704 726
f 726 704 705
f 726 705 722
f 722 705 706
f 696 723 697
f 723 727 697
f 694 693 728
f 694 728 729
f 694 729 691
f 691 729 730
f 691 730 692
f 692 730 686
f 692 686 685
f 697 727 731
f 697 731 698
f 698 731 732
f 698 732 703
f 703 732 733
f 703 733 702
f 702 733 734
f 702 734 700
f 700 734 728
f 700 728 693
f 735 736 737
f 549 738 739
f 722 740 741
f 717 714 742
f 742 714 713
f 742 713 743
f 743 713 545
f 742 744 717
f 717 744 745
f 717 745 715
f 715 745 746
f 715 746 716
f 716 746 747
f 716 747 719
f 719 747 718
f 721 720 748
f 748 720 749
f 750 725 741
f 741 725 726
f 741 726 722
f 723 724 750
f 750 724 725
f 751 550 752
f 752 550 553
f 752 553 753
f 753 553 552
f 753 552 754
f 754 552 551
f 754 551 755
f 549 739 548
f 548 739 756
f 548 756 547
f 743 545 546
f 743 546 756
f 756 546 547
f 720 718 749
f 749 718 747
f 749 747 757
f 757 747 746
f 757 746 758
f 758 746 745
f 758 745 759
f 759 745 744
f 759 744 760
f 760 744 742
f 761 762 763
f 763 762 764
f 764 762 736
f 764 736 765
f 765 736 735
f 766 751 767
f 767 751 752
f 767 752 768
f 768 752 753
f 768 753 769
f 769 753 754
f 769 754 559
f 559 754 755
f 559 755 554
f 554 755 551
f 763 770 761
f 761 770 771
f 761 771 772
f 772 771 773
f 772 773 774
f 774 773 775
f 774 775 776
f 777 743 756
f 777 756 778
f 778 756 739
f 778 739 766
f 766 739 738
f 766 738 751
f 751 738 549
f 751 549 550
f 727 723 779
f 779 723 750
f 779 750 780
f 780 750 741
f 780 741 737
f 737 741 740
f 737 740 735
f 722 721 740
f 740 721 748
f 740 748 735
f 735 748 749
f 735 749 765
f 765 749 757
f 765 757 764
f 764 757 758
f 764 758 763
f 763 758 759
f 763 759 770
f 770 759 760
f 770 760 771
f 771 760 742
f 771 742 773
f 773 742 743
f 773 743 775
f 775 743 777
f 775 777 776
f 781 782 783
f 784 785 786
f 681 680 787
f 665 667 788
f 665 788 663
f 663 788 662
f 662 788 789
f 662 789 670
f 670 789 671
f 671 789 790
f 671 790 673
f 673 790 791
f 673 791 675
f 675 791 792
f 675 792 677
f 677 792 682
f 682 792 793
f 682 793 683
f 683 793 684
f 684 793 794
f 684 794 669
f 590 592 795
f 795 592 639
f 795 639 794
f 794 639 668
f 794 668 669
f 586 588 796
f 583 587 797
f 797 587 586
f 583 797 584
f 584 797 798
f 584 798 585
f 585 798 578
f 578 798 799
f 800 577 799
f 799 577 578
f 801 574 800
f 800 574 577
f 802 567 801
f 801 567 573
f 573 574 801
f 566 567 802
f 803 569 568
f 565 804 564
f 564 804 803
f 564 803 568
f 559 558 805
f 559 805 769
f 769 805 768
f 768 805 806
f 768 806 767
f 767 806 766
f 766 806 807
f 766 807 778
f 778 807 777
f 777 807 808
f 777 808 776
f 776 808 809
f 776 809 774
f 774 809 810
f 774 810 772
f 811 762 761
f 727 779 786
f 786 779 780
f 786 780 784
f 784 780 737
f 784 737 812
f 812 737 736
f 727 813 731
f 728 734 814
f 814 734 733
f 814 733 813
f 813 733 732
f 813 732 731
f 815 686 730
f 815 730 729
f 680 679 787
f 787 679 678
f 787 678 815
f 815 678 686
f 816 815 814
f 814 815 729
f 814 729 728
f 817 818 819
f 819 818 820
f 820 821 819
f 819 821 822
f 819 822 817
f 817 822 823
f 817 823 824
f 824 823 825
f 824 825 826
f 827 828 781
f 826 829 824
f 824 829 830
f 824 830 817
f 817 830 831
f 817 831 818
f 818 831 832
f 818 832 820
f 820 832 833
f 820 833 834
f 825 835 826
f 826 835 836
f 826 836 829
f 829 836 837
f 829 837 838
f 838 837 839
f 828 840 781
f 781 840 841
f 781 841 782
f 839 794 838
f 838 794 793
f 838 793 829
f 829 793 792
f 829 792 830
f 830 792 791
f 830 791 831
f 831 791 790
f 831 790 832
f 832 790 789
f 832 789 833
f 833 789 788
f 833 788 834
f 834 788 667
f 835 827 836
f 836 827 781
f 836 781 837
f 837 781 783
f 837 783 839
f 839 783 842
f 839 842 794
f 794 842 796
f 794 796 795
f 795 796 588
f 795 588 590
f 586 796 797
f 797 796 842
f 797 842 798
f 798 842 783
f 798 783 799
f 799 783 782
f 799 782 800
f 800 782 841
f 800 841 801
f 801 841 840
f 801 840 802
f 843 844 845
f 845 844 804
f 736 762 812
f 812 762 811
f 812 811 784
f 784 811 846
f 784 846 785
f 811 761 772
f 811 772 810
f 811 810 846
f 846 810 847
f 846 847 785
f 785 847 848
f 785 848 786
f 786 848 813
f 786 813 727
f 849 850 851
f 851 850 852
f 851 852 853
f 854 855 856
f 856 855 857
f 854 849 855
f 855 849 851
f 855 851 857
f 857 851 853
f 857 853 858
f 858 853 859
f 858 859 860
f 860 859 861
f 860 861 862
f 862 861 863
f 862 863 843
f 843 863 864
f 843 864 844
f 844 864 865
f 844 865 804
f 804 865 866
f 804 866 803
f 803 866 557
f 803 557 569
f 558 557 866
f 558 866 805
f 805 866 865
f 805 865 806
f 806 865 864
f 806 864 807
f 807 864 863
f 807 863 808
f 808 863 861
f 808 861 809
f 809 861 859
f 809 859 810
f 810 859 853
f 810 853 847
f 847 853 852
f 847 852 848
f 848 852 850
f 848 850 813
f 813 850 849
f 813 849 814
f 814 849 854
f 814 854 816
f 816 854 856
f 565 566 804
f 804 566 802
f 804 802 845
f 845 802 840
f 845 840 843
f 843 840 828
f 843 828 862
f 862 828 827
f 862 827 860
f 860 827 835
f 860 835 858
f 858 835 825
f 858 825 857
f 857 825 823
f 857 823 856
f 856 823 822
f 856 822 816
f 816 822 821
f 816 821 815
f 815 821 820
f 815 820 787
f 787 820 834
f 787 834 681
f 681 834 667

