# https://github.com/mikedh/trimesh
v -0.04811152 -0.00327437 -0.00313799
v -0.04811152 0.00019849 -0.00446947
v -0.05491553 -0.00519402 -0.00313799
v -0.04811152 -0.01210420 -0.00313799
v -0.04811152 0.00019849 -0.01422392
v -0.05489488 0.00019849 -0.00603644
v -0.05491553 0.00019849 -0.00604294
v -0.05491553 -0.02773756 -0.00313799
v -0.05152085 -0.02417172 -0.00313799
v -0.04811152 -0.02188291 -0.00644662
v -0.05116320 0.00019849 -0.01225545
v -0.04811152 -0.01959137 -0.01422284
v -0.05030604 -0.01959137 -0.01280780
v -0.05277962 -0.01501375 -0.01121262
v -0.05491553 0.00019849 -0.00982145
v -0.05491553 -0.02567845 -0.00808846
v -0.05488422 -0.02567845 -0.00809389
v -0.05259447 -0.02519991 -0.00922787
v -0.04811152 -0.02343066 -0.01300313
v -0.04811152 -0.02402679 -0.01068632
v -0.05096939 -0.02560189 -0.00610914
v -0.05110192 -0.02557454 -0.00443909
v -0.05264508 -0.02608317 -0.00313799
v -0.04811152 -0.02313260 -0.00687526
v -0.05455455 -0.00356971 -0.01006778
v -0.05455455 0.00019849 -0.01006778
v -0.04811152 -0.02188291 -0.01406766
v -0.04858972 -0.02188291 -0.01378552
v -0.05030604 -0.02188291 -0.01276005
v -0.05163474 -0.02188291 -0.01195053
v -0.05491553 -0.02188291 -0.00983339
v -0.05491553 -0.01200302 -0.00983448
v -0.05491553 -0.00585851 -0.00983448
v -0.05491553 -0.02438502 -0.00921377
v -0.05157280 -0.02315174 -0.01191038
v -0.05030604 -0.02338964 -0.01227173
v -0.04811152 -0.02230677 -0.01395047
v -0.04811152 -0.02392288 -0.00825883
v -0.04811152 -0.02369591 -0.00759363
v -0.04848649 -0.02355098 -0.00670272
v -0.05491553 -0.02290290 -0.00964023
v -0.05491553 -0.02430298 -0.00927671
v -0.05428215 -0.02372873 -0.00989199
f 1 2 3
f 1 3 8
f 1 8 23
f 1 23 9
f 1 9 4
f 1 4 10
f 1 10 24
f 1 24 39
f 1 39 38
f 1 38 20
f 1 20 19
f 1 19 37
f 1 37 27
f 1 27 12
f 1 12 5
f 1 5 2
f 2 5 11
f 2 11 26
f 2 26 15
f 2 15 7
f 2 7 6
f 2 6 3
f 3 6 7
f 3 7 15
f 3 15 33
f 3 33 32
f 3 32 31
f 3 31 41
f 3 41 42
f 3 42 34
f 3 34 16
f 3 16 8
f 4 9 10
f 5 12 13
f 5 13 14
f 5 14 11
f 8 16 17
f 8 17 18
f 8 18 19
f 8 19 20
f 8 20 21
f 8 21 22
f 8 22 23
f 9 23 22
f 9 22 24
f 9 24 10
f 11 25 26
f 11 14 25
f 12 27 28
f 12 28 29
f 12 29 30
f 12 30 13
f 13 30 14
f 14 30 31
f 14 31 32
f 14 32 25
f 15 26 33
f 16 34 35
f 16 35 36
f 16 36 19
f 16 19 17
f 17 19 18
f 19 36 37
f 20 38 21
f 21 38 22
f 22 38 39
f 22 39 40
f 22 40 24
f 24 40 39
f 25 32 33
f 25 33 26
f 27 37 35
f 27 35 28
f 28 35 29
f 29 35 30
f 30 35 31
f 31 35 41
f 34 42 35
f 35 42 43
f 35 43 41
f 35 37 36
f 41 43 42

