# https://github.com/mikedh/trimesh
v 0.01146132 -0.04015485 -0.03919128
v 0.01146132 -0.04614090 -0.03919128
v 0.01146132 -0.04015485 -0.04113423
v -0.01239897 -0.04015485 -0.03919128
v 0.01145543 -0.04618033 -0.03919128
v 0.01146132 -0.04609190 -0.04035952
v 0.01146132 -0.04525237 -0.04113423
v -0.01369851 -0.04015485 -0.04113423
v -0.01596166 -0.04022536 -0.04113423
v -0.01816881 -0.04032933 -0.04113423
v -0.01725236 -0.04129195 -0.03925557
v -0.01680444 -0.04124414 -0.03919128
v 0.01132872 -0.04618810 -0.03919128
v 0.01146132 -0.04608712 -0.04040213
v 0.01047709 -0.04623770 -0.03919128
v 0.00921881 -0.04621200 -0.04045025
v 0.01090732 -0.04602079 -0.04113423
v -0.01835741 -0.04038131 -0.04113423
v -0.01742622 -0.04227070 -0.03919128
v -0.01864325 -0.04046019 -0.04113423
v -0.01864325 -0.04087666 -0.04058796
v -0.01864325 -0.04248880 -0.03970350
v 0.00921881 -0.04612596 -0.04113423
v 0.01026197 -0.04606441 -0.04113423
v 0.00818742 -0.04625861 -0.03919128
v 0.00692914 -0.04625861 -0.04045025
v 0.00624842 -0.04621379 -0.04113423
v 0.00824931 -0.04616061 -0.04113423
v -0.01749694 -0.04248880 -0.03919128
v -0.01864325 -0.04610803 -0.04113423
v -0.01864325 -0.04252465 -0.03970635
v -0.01744979 -0.04432261 -0.03919128
v -0.00783436 -0.04625861 -0.03919128
v 0.00166614 -0.04625861 -0.04113423
v 0.00395581 -0.04625204 -0.04113423
v -0.01687811 -0.04617017 -0.04113423
v -0.01367199 -0.04625682 -0.04045025
v -0.01552258 -0.04603513 -0.03919128
v -0.01864325 -0.04608831 -0.04096457
v -0.01864325 -0.04492492 -0.03990816
v -0.01702250 -0.04584094 -0.03938833
v -0.01666889 -0.04548780 -0.03919128
v -0.01012403 -0.04622574 -0.03919128
v -0.01138232 -0.04625861 -0.04045025
v -0.01206598 -0.04625861 -0.04113423
v -0.01435565 -0.04625741 -0.04113423
v -0.01367199 -0.04611520 -0.03919128
v -0.01864325 -0.04515975 -0.04003503
f 1 2 6
f 1 6 14
f 1 14 7
f 1 7 3
f 1 3 8
f 1 8 4
f 1 4 12
f 1 12 19
f 1 19 29
f 1 29 32
f 1 32 42
f 1 42 38
f 1 38 47
f 1 47 43
f 1 43 33
f 1 33 25
f 1 25 15
f 1 15 13
f 1 13 5
f 1 5 2
f 2 5 6
f 3 7 17
f 3 17 24
f 3 24 23
f 3 23 28
f 3 28 27
f 3 27 35
f 3 35 34
f 3 34 45
f 3 45 46
f 3 46 36
f 3 36 30
f 3 30 20
f 3 20 18
f 3 18 10
f 3 10 9
f 3 9 8
f 4 8 9
f 4 9 10
f 4 10 11
f 4 11 12
f 5 13 6
f 6 13 15
f 6 15 16
f 6 16 14
f 7 14 17
f 10 18 11
f 11 19 12
f 11 18 20
f 11 20 21
f 11 21 22
f 11 22 19
f 14 16 23
f 14 23 24
f 14 24 17
f 15 25 26
f 15 26 16
f 16 26 27
f 16 27 28
f 16 28 23
f 19 22 29
f 20 30 39
f 20 39 48
f 20 48 40
f 20 40 31
f 20 31 22
f 20 22 21
f 22 31 32
f 22 32 29
f 25 33 44
f 25 44 45
f 25 45 34
f 25 34 26
f 26 34 35
f 26 35 27
f 30 36 37
f 30 37 38
f 30 38 39
f 31 40 32
f 32 40 41
f 32 41 42
f 33 43 37
f 33 37 44
f 36 46 37
f 37 47 38
f 37 46 44
f 37 43 47
f 38 42 41
f 38 41 39
f 39 41 48
f 40 48 41
f 44 46 45

