# https://github.com/mikedh/trimesh
v -0.02531398 0.02027996 -0.05079320
v -0.02531398 -0.00653211 -0.05079320
v -0.02531398 0.02027996 -0.05524960
v -0.03713494 0.02027996 -0.05079320
v -0.02531398 -0.00653211 -0.05524960
v -0.03505635 -0.00653211 -0.05079320
v -0.02653178 0.02027996 -0.05569359
v -0.04106859 0.02027996 -0.05223245
v -0.05939891 -0.00653211 -0.05965320
v -0.02556755 -0.00653211 -0.05534203
v -0.02741260 -0.00653211 -0.05601380
v -0.03133957 -0.00653211 -0.05744315
v -0.05170512 0.02027996 -0.06485564
v -0.05939891 0.02027996 -0.05964824
v -0.05939891 -0.00653211 -0.06765492
v -0.05488140 -0.00653211 -0.06601101
v -0.05650957 -0.00653211 -0.06660354
v -0.05840466 0.02027996 -0.06729346
v -0.05939891 0.02027996 -0.06765327
v -0.05939891 0.00330196 -0.06765492
f 1 2 5
f 1 5 3
f 1 3 7
f 1 7 13
f 1 13 18
f 1 18 19
f 1 19 14
f 1 14 8
f 1 8 4
f 1 4 6
f 1 6 2
f 2 6 9
f 2 9 15
f 2 15 17
f 2 17 16
f 2 16 12
f 2 12 11
f 2 11 10
f 2 10 5
f 3 5 7
f 4 8 9
f 4 9 6
f 5 10 7
f 7 10 11
f 7 11 12
f 7 12 13
f 8 14 9
f 9 14 19
f 9 19 20
f 9 20 15
f 12 16 13
f 13 16 17
f 13 17 15
f 13 15 18
f 15 20 18
f 18 20 19

