# https://github.com/mikedh/trimesh
v -0.06148992 -0.02417018 -0.00559353
v -0.05491553 -0.02188063 -0.00983355
v -0.05976073 -0.02417018 -0.00670793
v -0.05851612 -0.02547196 -0.00737889
v -0.06065718 -0.02605149 -0.00559353
v -0.06148091 -0.00814908 -0.00559353
v -0.05861588 -0.00814908 -0.00744532
v -0.05717435 -0.00585953 -0.00837620
v -0.05569935 -0.00585953 -0.00932908
v -0.05569935 -0.00814908 -0.00932950
v -0.05491553 -0.00814908 -0.00983521
v -0.05491553 -0.02290265 -0.00964048
v -0.05861588 -0.02417018 -0.00744408
v -0.05717435 -0.02564039 -0.00768199
v -0.05940035 -0.02678517 -0.00559353
v -0.05491553 -0.02430435 -0.00927718
v -0.06081485 -0.00585953 -0.00559353
v -0.05711836 0.00229090 -0.00809635
v -0.05657972 0.00229090 -0.00860830
v -0.05569935 0.00229090 -0.00929919
v -0.05519482 0.00229090 -0.00964380
v -0.05491553 0.00229090 -0.00982857
v -0.05491553 -0.00585953 -0.00983480
v -0.05491553 -0.02438714 -0.00921407
v -0.05491553 -0.02567751 -0.00808764
v -0.05717435 -0.02687081 -0.00559353
v -0.06033284 -0.00507447 -0.00559353
v -0.05715504 0.00229090 -0.00626948
v -0.05715504 0.00229090 -0.00680799
v -0.05491553 0.00229090 -0.00570231
v -0.05491553 -0.02639692 -0.00610879
v -0.05491553 -0.02657677 -0.00559353
v -0.05973435 -0.00413238 -0.00559353
v -0.05795432 -0.00320172 -0.00559353
v -0.05491553 -0.00277636 -0.00559353
f 1 2 3
f 1 3 4
f 1 4 5
f 1 5 15
f 1 15 26
f 1 26 32
f 1 32 35
f 1 35 34
f 1 34 33
f 1 33 27
f 1 27 17
f 1 17 6
f 1 6 7
f 1 7 8
f 1 8 9
f 1 9 10
f 1 10 11
f 1 11 2
f 2 12 4
f 2 4 13
f 2 13 3
f 2 11 23
f 2 23 22
f 2 22 30
f 2 30 35
f 2 35 32
f 2 32 31
f 2 31 25
f 2 25 24
f 2 24 16
f 2 16 12
f 3 13 4
f 4 14 15
f 4 15 5
f 4 12 16
f 4 16 14
f 6 17 18
f 6 18 19
f 6 19 20
f 6 20 21
f 6 21 22
f 6 22 8
f 6 8 7
f 8 22 9
f 9 23 11
f 9 11 10
f 9 22 23
f 14 24 25
f 14 25 15
f 14 16 24
f 15 25 26
f 17 27 28
f 17 28 29
f 17 29 18
f 18 29 28
f 18 28 30
f 18 30 22
f 18 22 21
f 18 21 20
f 18 20 19
f 25 31 26
f 26 31 32
f 27 33 28
f 28 33 30
f 30 33 34
f 30 34 35

