# https://github.com/mikedh/trimesh
v -0.04572737 -0.00299054 -0.00322755
v -0.04801989 -0.00318140 -0.00322755
v -0.04732100 -0.00435965 -0.00007256
v -0.04572558 -0.00423058 -0.00007256
v -0.04343665 -0.00299164 -0.00322755
v -0.04810973 -0.00322001 -0.00322755
v -0.04810973 -0.00444240 -0.00007256
v -0.04809715 -0.00443798 -0.00007256
v -0.04334682 -0.00435965 -0.00007256
v -0.03199022 -0.00306997 -0.00322755
v -0.03204771 -0.00306776 -0.00322755
v -0.03428094 -0.00301701 -0.00322755
v -0.04810973 -0.01210218 -0.00322755
v -0.04810973 -0.01211100 -0.00007256
v -0.03428094 -0.00486163 -0.00007256
v -0.03199022 -0.00501387 -0.00007256
v -0.03054931 -0.00437289 -0.00213543
v -0.03036785 -0.00387423 -0.00322755
v -0.03408691 -0.00487376 -0.00007256
v -0.04810973 -0.01211431 -0.00161994
v -0.03578114 -0.01409131 -0.00322755
v -0.03428094 -0.01426121 -0.00322755
v -0.03557094 -0.01393135 -0.00254096
v -0.03428094 -0.01294615 -0.00007256
v -0.03185367 -0.00507897 -0.00007256
v -0.03035707 -0.00580269 -0.00007256
v -0.03027802 -0.00415666 -0.00322755
v -0.03321194 -0.01423474 -0.00322755
v -0.03199022 -0.01290975 -0.00007256
v -0.03289393 -0.01292850 -0.00007256
v -0.03006781 -0.00725786 -0.00007256
v -0.02992408 -0.00584351 -0.00322755
v -0.03141350 -0.01414979 -0.00322755
v -0.03081521 -0.01389053 -0.00261755
v -0.03199022 -0.01391590 -0.00255269
v -0.03102542 -0.01258098 -0.00007256
v -0.02991330 -0.00814707 -0.00007256
v -0.02982526 -0.00644808 -0.00322755
v -0.03070023 -0.01400416 -0.00322755
v -0.03041456 -0.01228862 -0.00007256
v -0.02988276 -0.01043518 -0.00007256
v -0.02980370 -0.01043518 -0.00152975
v -0.02975699 -0.00873620 -0.00322755
v -0.03013608 -0.01273543 -0.00322755
v -0.02975879 -0.01043518 -0.00322755
f 1 2 3
f 1 3 4
f 1 4 5
f 1 5 12
f 1 12 11
f 1 11 10
f 1 10 18
f 1 18 27
f 1 27 32
f 1 32 38
f 1 38 43
f 1 43 45
f 1 45 44
f 1 44 39
f 1 39 33
f 1 33 28
f 1 28 22
f 1 22 21
f 1 21 13
f 1 13 6
f 1 6 2
f 2 6 7
f 2 7 8
f 2 8 3
f 3 8 7
f 3 7 14
f 3 14 24
f 3 24 30
f 3 30 29
f 3 29 36
f 3 36 40
f 3 40 41
f 3 41 37
f 3 37 31
f 3 31 26
f 3 26 25
f 3 25 16
f 3 16 19
f 3 19 15
f 3 15 9
f 3 9 4
f 4 9 10
f 4 10 11
f 4 11 12
f 4 12 5
f 6 13 20
f 6 20 14
f 6 14 7
f 9 15 10
f 10 16 17
f 10 17 18
f 10 15 19
f 10 19 16
f 13 21 20
f 14 20 21
f 14 21 22
f 14 22 23
f 14 23 24
f 16 25 17
f 17 25 26
f 17 26 18
f 18 26 27
f 22 28 29
f 22 29 30
f 22 30 24
f 22 24 23
f 26 31 32
f 26 32 27
f 28 33 34
f 28 34 35
f 28 35 29
f 29 34 36
f 29 35 34
f 31 37 32
f 32 37 38
f 33 39 34
f 34 39 40
f 34 40 36
f 37 41 42
f 37 42 43
f 37 43 38
f 39 44 40
f 40 44 41
f 41 44 42
f 42 45 43
f 42 44 45

