# https://github.com/mikedh/trimesh
v -0.01864325 0.02845160 -0.03919253
v -0.01864325 0.02848355 -0.03919978
v -0.02186528 0.02214758 -0.03919253
v -0.01864325 -0.01979759 -0.03919253
v -0.01864325 0.02922363 -0.03937076
v -0.02185803 0.02755711 -0.04140512
v -0.02186528 0.02753049 -0.04140222
v -0.02186528 -0.01979759 -0.03919253
v -0.01864325 -0.01979759 -0.05282015
v -0.01864325 0.03458524 -0.04278600
v -0.02029243 0.03458524 -0.04343224
v -0.02143729 0.03458524 -0.04400603
v -0.02186528 0.03458524 -0.04432481
v -0.02186528 -0.01979759 -0.05399237
v -0.01926236 -0.01979759 -0.05304619
v -0.01864325 0.02940466 -0.05282015
v -0.01864325 0.03458524 -0.05148710
v -0.02186528 0.03458524 -0.05386342
v -0.02186528 0.03077302 -0.05399237
v -0.02054253 0.03077302 -0.05351132
v -0.01932891 0.03077302 -0.05306793
v -0.01935446 0.03197632 -0.05305924
v -0.01864325 0.03124688 -0.05277669
v -0.01864325 0.03354700 -0.05204350
v -0.01946579 0.03458524 -0.05218840
v -0.02099701 0.03458524 -0.05340264
v -0.02186528 0.03431903 -0.05390399
v -0.02186528 0.03209345 -0.05398803
v -0.01864325 0.03268445 -0.05235503
v -0.02059867 0.03458524 -0.05314328
v -0.01864325 0.03317962 -0.05218405
f 1 2 3
f 1 3 8
f 1 8 4
f 1 4 9
f 1 9 16
f 1 16 23
f 1 23 29
f 1 29 31
f 1 31 24
f 1 24 17
f 1 17 10
f 1 10 5
f 1 5 2
f 2 5 3
f 3 5 6
f 3 6 7
f 3 7 13
f 3 13 18
f 3 18 27
f 3 27 28
f 3 28 19
f 3 19 14
f 3 14 8
f 4 8 14
f 4 14 15
f 4 15 9
f 5 10 11
f 5 11 12
f 5 12 13
f 5 13 6
f 6 13 7
f 9 15 16
f 10 17 25
f 10 25 30
f 10 30 26
f 10 26 18
f 10 18 13
f 10 13 12
f 10 12 11
f 14 19 15
f 15 19 20
f 15 20 16
f 16 20 21
f 16 21 22
f 16 22 23
f 17 24 25
f 18 26 22
f 18 22 27
f 19 28 20
f 20 28 21
f 21 28 22
f 22 29 23
f 22 28 27
f 22 26 30
f 22 30 29
f 24 31 30
f 24 30 25
f 29 30 31

