# https://github.com/mikedh/trimesh
v -0.03413939 0.01524039 -0.00568921
v -0.03471394 0.01518497 -0.00568921
v -0.03199056 0.01514235 -0.00568921
v -0.03905870 0.02091849 -0.01287814
v -0.03642278 0.01475869 -0.00568921
v -0.03905870 0.02090571 -0.01286433
v -0.02531398 0.01610575 -0.01327152
v -0.02616706 0.02053057 -0.02088602
v -0.03539209 0.02048369 -0.01409968
v -0.03656810 0.02070109 -0.01371550
v -0.03032074 0.01431535 -0.00568921
v -0.03905870 0.02092702 -0.01289654
v -0.03675378 0.01465638 -0.00568921
v -0.03905870 0.01946487 -0.01149096
v -0.02531398 0.01543648 -0.01212589
v -0.02531398 0.02076930 -0.02220188
v -0.02741168 0.02070962 -0.02045584
v -0.03448789 0.02075651 -0.01536263
v -0.03656810 0.02126805 -0.01526831
v -0.03021848 0.01403827 -0.00568921
v -0.03905870 0.02164318 -0.01506587
v -0.03785578 0.01380808 -0.00568921
v -0.03905870 0.01171928 -0.00568921
v -0.02531398 0.01534270 -0.01209138
v -0.02531398 0.02077356 -0.02222029
v -0.02531398 0.02118279 -0.02423089
v -0.02975696 0.01245675 -0.00568921
v -0.03905870 0.02168154 -0.01526831
v -0.03905870 -0.01226773 -0.00568921
v -0.02531398 0.01429404 -0.01172101
v -0.02531398 0.02119558 -0.02442182
v -0.02531398 0.01412352 -0.01169800
v -0.02972467 0.01203900 -0.00568921
v -0.03656810 0.02160055 -0.01755496
v -0.03905870 0.02164744 -0.01735482
v -0.03905870 -0.02051633 -0.01212129
v -0.03644027 -0.01465918 -0.00568921
v -0.02531398 0.02115722 -0.02651984
v -0.02741168 0.02125100 -0.02442182
v -0.02531398 0.01245675 -0.01160828
v -0.02972063 0.01016761 -0.00568921
v -0.03905870 0.02157924 -0.01756187
v -0.02531398 0.02111885 -0.02671078
v -0.02531398 0.02076077 -0.02815546
v -0.03905870 -0.02114723 -0.01304837
v -0.03199056 -0.01510252 -0.00568921
v -0.03383261 -0.01531992 -0.00568921
v -0.03440715 -0.01534976 -0.00568921
v -0.03615367 -0.01482970 -0.00568921
v -0.02531398 0.00310834 -0.01160599
v -0.02972063 0.00974985 -0.00568921
v -0.03905870 0.02099949 -0.01927570
v -0.02531398 0.02072667 -0.02824978
v -0.03905870 -0.02186765 -0.01526831
v -0.03885821 -0.02182502 -0.01526831
v -0.02786782 -0.02094687 -0.02051335
v -0.03047279 -0.02087441 -0.01844524
v -0.03173356 -0.01505136 -0.00568921
v -0.02531398 -0.00127386 -0.01160599
v -0.02973678 -0.01043471 -0.00568921
v -0.02531398 -0.01272385 -0.01161289
v -0.02531398 -0.01043471 -0.01161059
v -0.03905870 0.02094407 -0.01937002
v -0.02644155 0.02057747 -0.02796913
v -0.02531398 0.01951602 -0.02888701
v -0.03905870 -0.02174829 -0.01756187
v -0.03885821 -0.02176960 -0.01755496
v -0.02741168 -0.02130922 -0.02442182
v -0.02531398 -0.02121117 -0.02442182
v -0.02531398 -0.02095966 -0.02258836
v -0.02634198 -0.02067405 -0.02107236
v -0.03037457 -0.01444178 -0.00568921
v -0.02981886 -0.01272385 -0.00568921
v -0.02531398 -0.01435652 -0.01172331
v -0.03339800 0.02062862 -0.02344183
v -0.03905870 0.01951176 -0.02001645
v -0.03905870 0.01932419 -0.02005096
v -0.02531398 0.01917926 -0.02893762
v -0.02531398 -0.02087014 -0.02813246
v -0.03905870 -0.02114723 -0.01933782
v -0.03885821 -0.02116854 -0.01939533
v -0.02634467 -0.02077636 -0.02790471
v -0.02531398 -0.02112591 -0.02670618
v -0.02531398 -0.01626201 -0.01367640
v -0.02531398 -0.01445457 -0.01178772
v -0.02531398 -0.01557143 -0.01262739
v -0.02531398 -0.01550323 -0.01253077
v -0.02531398 0.01724393 -0.02913086
v -0.02531398 0.01703505 -0.02913776
v -0.02531398 0.01487378 -0.02917457
v -0.02531398 0.01255906 -0.02918837
v -0.03905870 0.01730361 -0.02006016
v -0.02531398 -0.01945062 -0.02883870
v -0.03905870 -0.01959129 -0.02001875
v -0.03336302 -0.02086588 -0.02342113
v -0.02531398 0.01026565 -0.02919067
v -0.03905870 -0.01730214 -0.02006016
v -0.02531398 -0.01730214 -0.02913776
v -0.02531398 0.01016761 -0.02919067
v -0.02531398 -0.01272385 -0.02918837
v -0.02531398 -0.01501300 -0.02917457
f 1 2 5
f 1 5 13
f 1 13 22
f 1 22 23
f 1 23 29
f 1 29 37
f 1 37 49
f 1 49 48
f 1 48 47
f 1 47 46
f 1 46 58
f 1 58 72
f 1 72 73
f 1 73 60
f 1 60 51
f 1 51 41
f 1 41 33
f 1 33 27
f 1 27 20
f 1 20 11
f 1 11 3
f 1 3 4
f 1 4 2
f 2 4 6
f 2 6 5
f 3 7 8
f 3 8 9
f 3 9 10
f 3 10 4
f 3 11 7
f 4 10 12
f 4 12 21
f 4 21 28
f 4 28 35
f 4 35 42
f 4 42 52
f 4 52 63
f 4 63 76
f 4 76 77
f 4 77 92
f 4 92 97
f 4 97 94
f 4 94 80
f 4 80 66
f 4 66 54
f 4 54 45
f 4 45 36
f 4 36 29
f 4 29 23
f 4 23 14
f 4 14 6
f 5 6 13
f 6 14 13
f 7 11 15
f 7 15 24
f 7 24 30
f 7 30 32
f 7 32 40
f 7 40 50
f 7 50 59
f 7 59 62
f 7 62 61
f 7 61 74
f 7 74 85
f 7 85 87
f 7 87 86
f 7 86 84
f 7 84 70
f 7 70 69
f 7 69 83
f 7 83 79
f 7 79 93
f 7 93 98
f 7 98 101
f 7 101 100
f 7 100 99
f 7 99 96
f 7 96 91
f 7 91 90
f 7 90 89
f 7 89 88
f 7 88 78
f 7 78 65
f 7 65 53
f 7 53 44
f 7 44 43
f 7 43 38
f 7 38 31
f 7 31 26
f 7 26 25
f 7 25 16
f 7 16 8
f 8 16 17
f 8 17 18
f 8 18 10
f 8 10 9
f 10 18 19
f 10 19 12
f 11 20 15
f 12 19 21
f 13 14 22
f 14 23 22
f 15 20 24
f 16 25 19
f 16 19 17
f 17 19 18
f 19 26 21
f 19 25 26
f 20 27 24
f 21 26 28
f 24 27 30
f 26 31 28
f 27 32 30
f 27 33 32
f 28 34 35
f 28 31 34
f 29 36 37
f 31 38 39
f 31 39 34
f 32 33 40
f 33 41 40
f 34 39 38
f 34 38 35
f 35 38 43
f 35 43 44
f 35 44 42
f 36 45 46
f 36 46 47
f 36 47 48
f 36 48 49
f 36 49 37
f 40 41 50
f 41 51 59
f 41 59 50
f 42 44 52
f 44 53 52
f 45 54 55
f 45 55 56
f 45 56 57
f 45 57 58
f 45 58 46
f 51 60 61
f 51 61 62
f 51 62 59
f 52 53 64
f 52 64 63
f 53 65 64
f 54 66 67
f 54 67 68
f 54 68 69
f 54 69 70
f 54 70 56
f 54 56 55
f 56 70 71
f 56 71 57
f 57 71 58
f 58 71 72
f 60 73 61
f 61 73 74
f 63 64 75
f 63 75 76
f 64 65 77
f 64 77 76
f 64 76 75
f 65 78 77
f 66 79 67
f 66 80 81
f 66 81 82
f 66 82 79
f 67 79 83
f 67 83 68
f 68 83 69
f 70 84 71
f 71 84 72
f 72 85 74
f 72 74 73
f 72 84 86
f 72 86 87
f 72 87 85
f 77 78 88
f 77 88 89
f 77 89 90
f 77 90 91
f 77 91 92
f 79 82 93
f 80 94 95
f 80 95 82
f 80 82 81
f 82 95 93
f 91 96 92
f 92 96 99
f 92 99 97
f 93 95 94
f 93 94 98
f 94 97 98
f 97 100 101
f 97 101 98
f 97 99 100

