# https://github.com/mikedh/trimesh
v -0.04811152 0.00099750 -0.00568866
v -0.04088540 0.00100567 -0.00568866
v -0.04088540 0.00099750 -0.00434003
v -0.04811152 0.00099750 -0.00449672
v -0.04811152 0.01291748 -0.00568866
v -0.04088540 0.01072974 -0.00568866
v -0.04088540 0.00099983 -0.00429989
v -0.04114782 0.00099750 -0.00429989
v -0.04801603 0.00099750 -0.00447308
v -0.04801603 0.00458306 -0.00007256
v -0.04805069 0.00459356 -0.00007256
v -0.04811152 0.00461340 -0.00007256
v -0.04811152 0.01208322 -0.00007256
v -0.04088540 0.01220807 -0.00007256
v -0.04088540 0.01224074 -0.00154764
v -0.04088540 0.01218940 -0.00183793
v -0.04088540 0.01174718 -0.00349170
v -0.04088540 0.00457256 -0.00007256
v -0.04345161 0.00099750 -0.00429989
v -0.04572639 0.00454339 -0.00007256
v -0.04572639 0.00099750 -0.00430319
v -0.04602277 0.00454806 -0.00007256
f 1 2 3
f 1 3 8
f 1 8 19
f 1 19 21
f 1 21 9
f 1 9 4
f 1 4 12
f 1 12 13
f 1 13 5
f 1 5 6
f 1 6 2
f 2 6 17
f 2 17 16
f 2 16 15
f 2 15 14
f 2 14 18
f 2 18 7
f 2 7 3
f 3 7 8
f 4 9 10
f 4 10 11
f 4 11 12
f 5 13 14
f 5 14 15
f 5 15 16
f 5 16 17
f 5 17 6
f 7 18 8
f 8 18 20
f 8 20 19
f 9 21 10
f 10 21 22
f 10 22 20
f 10 20 18
f 10 18 14
f 10 14 13
f 10 13 12
f 10 12 11
f 19 20 21
f 20 22 21

