# https://github.com/mikedh/trimesh
v -0.04811102 -0.02402789 -0.01068736
v -0.04801581 -0.02401803 -0.01068736
v -0.04811102 -0.02392309 -0.00825953
v -0.04811102 -0.02343133 -0.01300364
v -0.04796619 -0.02343401 -0.01305176
v -0.04716961 -0.02314917 -0.01427333
v -0.04572636 -0.02313394 -0.01429411
v -0.04448719 -0.02304795 -0.01419897
v -0.04572636 -0.02344118 -0.01068736
v -0.04436971 -0.02307572 -0.01297630
v -0.04811102 -0.02369647 -0.00759352
v -0.04457986 -0.02302914 -0.00954125
v -0.04811102 -0.02230896 -0.01394962
v -0.04462848 -0.02083099 -0.01643979
v -0.04343742 -0.02123497 -0.01682474
v -0.04293811 -0.02129499 -0.01700190
v -0.04293811 -0.02238689 -0.01513291
v -0.04322524 -0.02272279 -0.01297630
v -0.04443959 -0.02306138 -0.01068736
v -0.04811102 -0.02313215 -0.00687501
v -0.04293811 -0.02177510 -0.01091593
v -0.04293811 -0.01959308 -0.01030241
v -0.04445580 -0.02188259 -0.00944720
v -0.04811102 -0.02188259 -0.00644741
v -0.04293811 -0.02261531 -0.01297630
v -0.04811102 -0.02188259 -0.01406773
v -0.04579574 -0.01959308 -0.01571691
v -0.04343742 -0.01959308 -0.01723813
v -0.04293811 -0.01959308 -0.01755965
v -0.04811102 -0.01959308 -0.01422303
v -0.04757068 -0.01959308 -0.01457189
v -0.04293811 -0.01931719 -0.01028272
v -0.04811102 -0.02182258 -0.00644522
v -0.04472014 -0.01487791 -0.01641135
v -0.04763956 -0.01487791 -0.01452814
v -0.04293811 -0.01501495 -0.01756074
v -0.04811102 -0.01487791 -0.01422303
v -0.04293811 -0.01703127 -0.01022039
v -0.04810139 -0.01487791 -0.00638836
v -0.04811102 -0.01959308 -0.00643101
v -0.04293811 -0.01487791 -0.01019195
v -0.04293811 -0.01487791 -0.01756074
v -0.04811102 -0.01487791 -0.00666176
v -0.04811102 -0.01495136 -0.00640148
f 1 2 3
f 1 3 11
f 1 11 20
f 1 20 24
f 1 24 33
f 1 33 40
f 1 40 44
f 1 44 43
f 1 43 37
f 1 37 30
f 1 30 26
f 1 26 13
f 1 13 4
f 1 4 5
f 1 5 6
f 1 6 7
f 1 7 8
f 1 8 2
f 2 9 3
f 2 8 10
f 2 10 9
f 3 9 12
f 3 12 11
f 4 13 6
f 4 6 5
f 6 13 14
f 6 14 15
f 6 15 16
f 6 16 7
f 7 16 17
f 7 17 8
f 8 17 18
f 8 18 10
f 9 19 12
f 9 10 19
f 10 18 19
f 11 12 20
f 12 21 22
f 12 22 23
f 12 23 24
f 12 24 20
f 12 19 25
f 12 25 21
f 13 26 14
f 14 27 28
f 14 28 29
f 14 29 15
f 14 26 30
f 14 30 31
f 14 31 27
f 15 29 16
f 16 29 36
f 16 36 42
f 16 42 41
f 16 41 38
f 16 38 32
f 16 32 22
f 16 22 21
f 16 21 25
f 16 25 17
f 17 25 18
f 18 25 19
f 22 32 24
f 22 24 23
f 24 32 33
f 27 34 28
f 27 31 35
f 27 35 34
f 28 36 29
f 28 34 36
f 30 35 31
f 30 37 35
f 32 38 33
f 33 39 40
f 33 38 41
f 33 41 39
f 34 42 36
f 34 35 37
f 34 37 43
f 34 43 39
f 34 39 41
f 34 41 42
f 39 43 44
f 39 44 40

