# https://github.com/mikedh/trimesh
v 0.01146132 -0.03791439 -0.03431363
v 0.01146132 -0.04625839 -0.03431363
v 0.01146132 -0.03791439 -0.03919061
v -0.00528144 -0.03791439 -0.03431363
v 0.01146132 -0.04625839 -0.03816068
v 0.00619980 -0.04625839 -0.03431363
v 0.01146132 -0.04614075 -0.03919061
v -0.01205112 -0.03791439 -0.03919061
v -0.01085197 -0.03791439 -0.03671917
v -0.01749975 -0.04248749 -0.03919061
v -0.01746573 -0.04248749 -0.03917676
v -0.01744022 -0.04431412 -0.03918392
v -0.00440830 -0.04244665 -0.03431363
v 0.01146132 -0.04625757 -0.03820939
v 0.00818988 -0.04625839 -0.03919061
v 0.00390922 -0.04625022 -0.03431363
v 0.00006230 -0.04625839 -0.03587164
v 0.01146132 -0.04618650 -0.03911182
v 0.01145565 -0.04618078 -0.03919061
v -0.01680237 -0.04124415 -0.03919061
v -0.01188386 -0.03791439 -0.03807140
v -0.01742888 -0.04227019 -0.03919061
v -0.01745156 -0.04432229 -0.03919061
v -0.01666913 -0.04548722 -0.03919061
v -0.01035303 -0.04595449 -0.03697892
v -0.01072156 -0.04477732 -0.03684427
v -0.00412198 -0.04477732 -0.03446594
v -0.00381298 -0.04440398 -0.03431363
v -0.00445082 -0.04248749 -0.03433320
v 0.01047762 -0.04623797 -0.03919061
v -0.00783566 -0.04625839 -0.03919061
v -0.00084770 -0.04607785 -0.03431363
v -0.00222828 -0.04605824 -0.03449889
v -0.00222828 -0.04622653 -0.03587164
v -0.00680377 -0.04625839 -0.03816068
v -0.01552384 -0.04603537 -0.03919061
v -0.01549549 -0.04603129 -0.03914238
v -0.00365422 -0.04599126 -0.03464070
v -0.00361454 -0.04477732 -0.03431363
v -0.01012341 -0.04622571 -0.03919061
v -0.00191645 -0.04589078 -0.03431363
v -0.00909435 -0.04619875 -0.03816068
v -0.01367267 -0.04611461 -0.03919061
v -0.00302488 -0.04545699 -0.03431363
f 1 2 5
f 1 5 14
f 1 14 18
f 1 18 7
f 1 7 3
f 1 3 8
f 1 8 21
f 1 21 9
f 1 9 4
f 1 4 13
f 1 13 28
f 1 28 39
f 1 39 44
f 1 44 41
f 1 41 32
f 1 32 16
f 1 16 6
f 1 6 2
f 2 6 17
f 2 17 35
f 2 35 31
f 2 31 15
f 2 15 5
f 3 7 19
f 3 19 30
f 3 30 15
f 3 15 31
f 3 31 40
f 3 40 43
f 3 43 36
f 3 36 24
f 3 24 23
f 3 23 10
f 3 10 22
f 3 22 20
f 3 20 8
f 4 9 10
f 4 10 11
f 4 11 12
f 4 12 13
f 5 15 14
f 6 16 17
f 7 18 19
f 8 20 21
f 9 21 20
f 9 20 22
f 9 22 10
f 10 23 12
f 10 12 11
f 12 23 24
f 12 24 25
f 12 25 26
f 12 26 27
f 12 27 28
f 12 28 29
f 12 29 13
f 13 29 28
f 14 30 19
f 14 19 18
f 14 15 30
f 16 32 33
f 16 33 34
f 16 34 35
f 16 35 17
f 24 36 37
f 24 37 25
f 25 37 38
f 25 38 27
f 25 27 26
f 27 38 39
f 27 39 28
f 31 35 40
f 32 41 38
f 32 38 33
f 33 38 37
f 33 37 42
f 33 42 34
f 34 42 35
f 35 42 40
f 36 43 42
f 36 42 37
f 38 41 44
f 38 44 39
f 40 42 43

