# https://github.com/mikedh/trimesh
v 0.03969100 0.00953849 -0.03158736
v 0.03969100 0.02643656 -0.03158736
v 0.03986214 0.00953849 -0.03152607
v 0.03969100 0.00953849 -0.01644950
v 0.04103228 0.02643656 -0.03110067
v 0.03969100 0.02643656 -0.01765541
v 0.04334977 0.00953849 -0.03025707
v 0.04486320 0.00953849 -0.01548874
v 0.04000746 0.01584384 -0.01406111
v 0.03969100 0.01664441 -0.01388807
v 0.04486320 0.02643656 -0.02970549
v 0.03969100 0.02103599 -0.01375828
v 0.04129304 0.02643656 -0.01743369
v 0.04486320 0.00953849 -0.02970549
v 0.04486320 0.01696034 -0.01507776
v 0.04288040 0.01932733 -0.01372043
v 0.04277103 0.01749626 -0.01381777
v 0.04127329 0.01932733 -0.01317426
v 0.04131785 0.01685448 -0.01368438
v 0.03969100 0.01702319 -0.01379073
v 0.04486320 0.02643656 -0.01841248
v 0.03969100 0.01929755 -0.01347348
v 0.04127329 0.02115674 -0.01367717
v 0.04374066 0.02643656 -0.01771670
v 0.04486320 0.01932733 -0.01511561
v 0.04486320 0.02037767 -0.01525260
v 0.04268141 0.02080773 -0.01388987
v 0.03969100 0.01724484 -0.01374567
v 0.04382370 0.02643656 -0.01776717
v 0.04486320 0.02597341 -0.01789875
v 0.04486320 0.02245188 -0.01575551
v 0.04486320 0.02160499 -0.01552839
f 1 2 3
f 1 3 7
f 1 7 14
f 1 14 8
f 1 8 4
f 1 4 10
f 1 10 20
f 1 20 28
f 1 28 22
f 1 22 12
f 1 12 6
f 1 6 2
f 2 5 3
f 2 6 13
f 2 13 24
f 2 24 29
f 2 29 21
f 2 21 11
f 2 11 5
f 3 5 7
f 4 8 9
f 4 9 10
f 5 11 7
f 6 12 13
f 7 11 14
f 8 15 16
f 8 16 17
f 8 17 18
f 8 18 19
f 8 19 9
f 8 14 11
f 8 11 21
f 8 21 30
f 8 30 31
f 8 31 32
f 8 32 26
f 8 26 25
f 8 25 15
f 9 19 20
f 9 20 10
f 12 22 18
f 12 18 23
f 12 23 13
f 13 23 24
f 15 25 16
f 16 18 17
f 16 25 26
f 16 26 27
f 16 27 18
f 18 22 28
f 18 28 20
f 18 20 19
f 18 27 23
f 21 29 30
f 23 27 24
f 24 30 29
f 24 27 31
f 24 31 30
f 26 32 27
f 27 32 31

