# https://github.com/mikedh/trimesh
v -0.05491514 0.01343178 -0.00305425
v -0.05092800 0.01343178 -0.00305425
v -0.05491514 0.01343178 -0.00023387
v -0.05491514 0.02765688 -0.00305425
v -0.05184651 0.01343178 -0.00023387
v -0.05153384 0.02390619 -0.00305425
v -0.05491514 0.02849715 -0.00023387
v -0.05491514 0.02903798 -0.00158305
v -0.05289580 0.02622841 -0.00305425
v -0.05307771 0.02391536 -0.00023387
v -0.05158068 0.02402536 -0.00305425
v -0.05349423 0.02554855 -0.00023387
v -0.05266042 0.02588313 -0.00305425
f 1 2 5
f 1 5 3
f 1 3 7
f 1 7 8
f 1 8 4
f 1 4 9
f 1 9 13
f 1 13 11
f 1 11 6
f 1 6 2
f 2 6 5
f 3 5 10
f 3 10 12
f 3 12 7
f 4 8 9
f 5 6 10
f 6 11 12
f 6 12 10
f 7 12 11
f 7 11 13
f 7 13 8
f 8 13 9

