# https://github.com/mikedh/trimesh
v -0.02186528 0.04458734 -0.04085918
v -0.02393058 0.04551221 -0.04163670
v -0.02303364 0.04465422 -0.04123667
v -0.02411827 0.04398547 -0.04154374
v -0.02411827 0.04303215 -0.04154374
v -0.02186528 0.04322993 -0.04091834
v -0.02186528 0.04586508 -0.04130710
v -0.02240473 0.04583520 -0.04137753
v -0.02531398 0.04463430 -0.04213393
v -0.02531398 0.04595329 -0.04312274
v -0.02531398 0.04224530 -0.04226915
v -0.02367200 0.04150541 -0.04173530
v -0.02287835 0.04224957 -0.04129020
v -0.02186528 0.04223677 -0.04097045
v -0.02186528 0.04595329 -0.04177193
v -0.02186528 0.04611550 -0.04263115
v -0.02531398 0.04625494 -0.04502993
v -0.02531398 0.03172462 -0.04711460
v -0.02186528 0.03172462 -0.04479047
v -0.02214614 0.04096472 -0.04146768
v -0.02186528 0.04118527 -0.04130710
v -0.02186528 0.04625779 -0.04502993
v -0.02512122 0.04625779 -0.04502993
v -0.02531398 0.04625779 -0.04731884
v -0.02531398 0.03172462 -0.05524764
v -0.02186528 0.03172462 -0.05398979
v -0.02186528 0.04625779 -0.04960776
v -0.02512122 0.04625921 -0.05189667
v -0.02531398 0.04625921 -0.05170511
v -0.02531398 0.03306496 -0.05524905
v -0.02523330 0.03172462 -0.05521947
v -0.02363014 0.03172462 -0.05463491
v -0.02186528 0.04222111 -0.05399261
v -0.02186528 0.04613827 -0.05195865
v -0.02283210 0.04623218 -0.05189667
v -0.02531398 0.04625921 -0.05189667
v -0.02531398 0.04591203 -0.05415882
v -0.02531398 0.04222111 -0.05524764
v -0.02475900 0.04222111 -0.05504622
v -0.02283210 0.04222111 -0.05434475
v -0.02531398 0.04321143 -0.05520397
v -0.02186528 0.04447494 -0.05380809
v -0.02186528 0.04587077 -0.05333763
v -0.02283210 0.04593053 -0.05346158
v -0.02531398 0.04590350 -0.05417995
v -0.02531398 0.04451051 -0.05508143
v -0.02531398 0.04488187 -0.05503776
f 1 2 3
f 1 3 4
f 1 4 5
f 1 5 6
f 1 6 14
f 1 14 21
f 1 21 19
f 1 19 26
f 1 26 33
f 1 33 42
f 1 42 43
f 1 43 34
f 1 34 27
f 1 27 22
f 1 22 16
f 1 16 15
f 1 15 7
f 1 7 8
f 1 8 2
f 2 9 4
f 2 4 3
f 2 8 10
f 2 10 9
f 4 9 5
f 5 11 12
f 5 12 13
f 5 13 14
f 5 14 6
f 5 9 11
f 7 15 10
f 7 10 8
f 9 10 17
f 9 17 24
f 9 24 29
f 9 29 36
f 9 36 37
f 9 37 45
f 9 45 47
f 9 47 46
f 9 46 41
f 9 41 38
f 9 38 30
f 9 30 25
f 9 25 18
f 9 18 11
f 10 15 16
f 10 16 17
f 11 18 19
f 11 19 12
f 12 20 21
f 12 21 14
f 12 14 13
f 12 19 20
f 16 22 23
f 16 23 17
f 17 23 24
f 18 25 31
f 18 31 32
f 18 32 26
f 18 26 19
f 19 21 20
f 22 27 28
f 22 28 29
f 22 29 23
f 23 29 24
f 25 30 31
f 26 32 33
f 27 34 35
f 27 35 28
f 28 36 29
f 28 35 37
f 28 37 36
f 30 38 39
f 30 39 40
f 30 40 33
f 30 33 32
f 30 32 31
f 33 40 41
f 33 41 42
f 34 43 44
f 34 44 35
f 35 44 37
f 37 44 45
f 38 41 39
f 39 41 40
f 41 46 42
f 42 46 47
f 42 47 43
f 43 45 44
f 43 47 45

