# https://github.com/mikedh/trimesh
v -0.02186528 0.02214763 -0.03919109
v -0.02186528 0.02753153 -0.04140100
v -0.02298806 0.02143267 -0.03919109
v -0.02186528 -0.02221803 -0.03919109
v -0.02186528 0.02754778 -0.04142005
v -0.02531398 0.02369130 -0.04272994
v -0.02531398 0.02161683 -0.04170612
v -0.02378745 0.01931486 -0.03919109
v -0.02531398 0.02192556 -0.04184729
v -0.02257521 -0.02164389 -0.03919109
v -0.02186528 -0.02645906 -0.04088102
v -0.02186528 0.02754778 -0.04234989
v -0.02531398 0.02400004 -0.04342048
v -0.02531398 0.01932569 -0.04139686
v -0.02531398 0.00787544 -0.04088185
v -0.02531398 0.00759379 -0.04087440
v -0.02419018 -0.01808532 -0.03919109
v -0.02186528 -0.02776441 -0.04140639
v -0.02357444 -0.02006230 -0.03919109
v -0.02186528 0.02722821 -0.04342048
v -0.02531398 -0.02413543 -0.04342048
v -0.02531398 0.00530807 -0.04086985
v -0.02419119 -0.01831281 -0.03919109
v -0.02531398 -0.02388627 -0.04275188
v -0.02531398 -0.02399460 -0.04298040
v -0.02186528 -0.02778608 -0.04225839
v -0.02419119 -0.01885445 -0.03919109
v -0.02186528 -0.02744485 -0.04342048
v -0.02186528 -0.02772108 -0.04290174
v -0.02531398 0.00329859 -0.04086778
v -0.02531398 0.00073664 -0.04086612
v -0.02531398 -0.02188221 -0.04179720
v -0.02531398 -0.01958024 -0.04132276
v -0.02531398 -0.02126474 -0.04155128
v -0.02531398 -0.00127284 -0.04086612
v -0.02531398 -0.00356398 -0.04086736
v -0.02531398 -0.00585511 -0.04087109
v -0.02531398 -0.00814083 -0.04087771
v -0.02531398 -0.01043196 -0.04088972
f 1 2 3
f 1 3 8
f 1 8 17
f 1 17 23
f 1 23 27
f 1 27 19
f 1 19 10
f 1 10 4
f 1 4 11
f 1 11 18
f 1 18 26
f 1 26 29
f 1 29 28
f 1 28 20
f 1 20 12
f 1 12 5
f 1 5 2
f 2 5 6
f 2 6 3
f 3 7 8
f 3 6 9
f 3 9 7
f 4 10 11
f 5 12 13
f 5 13 6
f 6 13 21
f 6 21 25
f 6 25 24
f 6 24 32
f 6 32 34
f 6 34 33
f 6 33 39
f 6 39 38
f 6 38 37
f 6 37 36
f 6 36 35
f 6 35 31
f 6 31 30
f 6 30 22
f 6 22 16
f 6 16 15
f 6 15 14
f 6 14 7
f 6 7 9
f 7 14 8
f 8 14 15
f 8 15 16
f 8 16 17
f 10 18 11
f 10 19 18
f 12 20 13
f 13 20 28
f 13 28 21
f 16 22 23
f 16 23 17
f 18 24 25
f 18 25 21
f 18 21 26
f 18 19 24
f 19 27 24
f 21 28 29
f 21 29 26
f 22 30 23
f 23 30 31
f 23 31 35
f 23 35 27
f 24 27 32
f 27 33 34
f 27 34 32
f 27 35 36
f 27 36 37
f 27 37 38
f 27 38 39
f 27 39 33

