# https://github.com/mikedh/trimesh
v 0.03969100 -0.02413236 -0.03158740
v 0.03969100 -0.01801153 -0.03158916
v 0.04123329 -0.02413236 -0.03102749
v 0.03969100 -0.02413236 -0.01750706
v 0.03969100 -0.01572278 -0.03158916
v 0.04300344 -0.02413236 -0.03038333
v 0.04359787 -0.02413236 -0.01696996
v 0.03977505 -0.02127226 -0.01381583
v 0.03969100 -0.02128565 -0.01399487
v 0.03969100 -0.01273211 -0.03158740
v 0.04125760 -0.01273211 -0.03101871
v 0.04417915 -0.01273211 -0.02995505
v 0.04417915 -0.02413236 -0.02995505
v 0.04485865 -0.02413236 -0.01712968
v 0.04080949 -0.02127226 -0.01381583
v 0.03969100 -0.02088168 -0.01377722
v 0.03969100 -0.01273211 -0.01671194
v 0.04486320 -0.01273211 -0.02970581
v 0.04486320 -0.02413236 -0.02970581
v 0.04486320 -0.02413236 -0.01734031
v 0.04486320 -0.02302090 -0.01653115
v 0.04486320 -0.02273300 -0.01637494
v 0.04233558 -0.01999787 -0.01419847
v 0.04145304 -0.01937854 -0.01374036
v 0.03969100 -0.01956378 -0.01365786
v 0.04486320 -0.02181348 -0.01599406
v 0.03969100 -0.01587120 -0.01381583
v 0.04356243 -0.01273211 -0.01579396
v 0.04486320 -0.01273211 -0.01568514
v 0.04241963 -0.01847241 -0.01412124
v 0.04486320 -0.01950910 -0.01547802
v 0.04135988 -0.01752945 -0.01374036
v 0.04241963 -0.01844116 -0.01412124
v 0.03969100 -0.01736095 -0.01367015
v 0.03969100 -0.01677732 -0.01370876
v 0.04065455 -0.01587120 -0.01381583
v 0.04486320 -0.01371412 -0.01555174
v 0.04486320 -0.01739331 -0.01541659
v 0.04486320 -0.01600287 -0.01543063
f 1 2 3
f 1 3 6
f 1 6 13
f 1 13 19
f 1 19 20
f 1 20 14
f 1 14 7
f 1 7 4
f 1 4 9
f 1 9 16
f 1 16 25
f 1 25 34
f 1 34 35
f 1 35 27
f 1 27 17
f 1 17 10
f 1 10 5
f 1 5 2
f 2 5 6
f 2 6 3
f 4 7 8
f 4 8 9
f 5 10 11
f 5 11 12
f 5 12 6
f 6 12 13
f 7 14 15
f 7 15 8
f 8 15 16
f 8 16 9
f 10 17 28
f 10 28 29
f 10 29 18
f 10 18 12
f 10 12 11
f 12 18 19
f 12 19 13
f 14 20 21
f 14 21 22
f 14 22 15
f 15 23 24
f 15 24 25
f 15 25 16
f 15 22 26
f 15 26 23
f 17 27 28
f 18 29 37
f 18 37 39
f 18 39 38
f 18 38 31
f 18 31 26
f 18 26 22
f 18 22 21
f 18 21 20
f 18 20 19
f 23 30 24
f 23 26 31
f 23 31 30
f 24 32 25
f 24 30 33
f 24 33 32
f 25 32 34
f 27 29 28
f 27 35 36
f 27 36 29
f 29 36 32
f 29 32 37
f 30 31 38
f 30 38 33
f 32 33 37
f 32 36 35
f 32 35 34
f 33 38 39
f 33 39 37

