# https://github.com/mikedh/trimesh
v 0.04814144 -0.00356752 -0.01478256
v 0.05729208 0.00057843 -0.01717833
v 0.04814144 -0.00127920 -0.01483661
v 0.04585287 0.00058193 -0.01496516
v 0.04585287 -0.00127920 -0.01496224
v 0.04585287 -0.00356752 -0.01496078
v 0.04585287 -0.00585759 -0.01496516
v 0.04486371 -0.01730096 -0.01541802
v 0.04814144 -0.00585759 -0.01490089
v 0.05729208 -0.01730096 -0.01715349
v 0.05729208 0.00058193 -0.01837183
v 0.05687111 0.00058193 -0.01727328
v 0.04814144 0.00058193 -0.01491549
v 0.04486371 0.00058193 -0.01530846
v 0.04486371 -0.00127920 -0.01530554
v 0.04486371 -0.00356752 -0.01530700
v 0.04486371 -0.00585759 -0.01531284
v 0.04486371 -0.00684505 -0.01531869
v 0.04486371 -0.01730096 -0.02955306
v 0.04814266 -0.01730096 -0.01563715
v 0.05729208 -0.01730096 -0.02518224
v 0.05729208 0.00058193 -0.02518224
v 0.04486371 0.00058193 -0.02970499
v 0.04486371 -0.01595107 -0.02964363
v 0.04814022 -0.01730096 -0.02851295
v 0.05075852 -0.01730096 -0.02756048
v 0.05500959 -0.01501438 -0.02601346
v 0.05500959 0.00058193 -0.02601346
v 0.04540148 0.00058193 -0.02951070
v 0.04486371 -0.00908260 -0.02970645
v 0.04486371 -0.01501438 -0.02969184
v 0.04486371 -0.01366100 -0.02970060
v 0.04486371 -0.01272431 -0.02970645
f 1 2 3
f 1 3 4
f 1 4 5
f 1 5 6
f 1 6 7
f 1 7 8
f 1 8 9
f 1 9 10
f 1 10 2
f 2 11 12
f 2 12 13
f 2 13 3
f 2 10 21
f 2 21 22
f 2 22 11
f 3 13 4
f 4 13 12
f 4 12 11
f 4 11 22
f 4 22 28
f 4 28 29
f 4 29 23
f 4 23 14
f 4 14 15
f 4 15 5
f 5 15 6
f 6 16 7
f 6 15 16
f 7 16 17
f 7 17 18
f 7 18 8
f 8 19 25
f 8 25 26
f 8 26 21
f 8 21 10
f 8 10 20
f 8 20 9
f 8 18 17
f 8 17 16
f 8 16 15
f 8 15 14
f 8 14 23
f 8 23 30
f 8 30 33
f 8 33 32
f 8 32 31
f 8 31 24
f 8 24 19
f 9 20 10
f 19 24 25
f 21 26 27
f 21 27 28
f 21 28 22
f 23 29 30
f 24 31 25
f 25 31 32
f 25 32 33
f 25 33 26
f 26 33 27
f 27 33 30
f 27 30 28
f 28 30 29

