# https://github.com/mikedh/trimesh
v 0.00193378 -0.04615959 -0.03431315
v 0.00391091 -0.04625015 -0.03431315
v 0.00464208 -0.04624109 -0.03358144
v 0.00193378 -0.04613242 -0.03390055
v 0.00193378 0.04607808 -0.03431315
v 0.00620047 -0.04625921 -0.03431315
v 0.00693070 -0.04625921 -0.03358144
v 0.01146133 -0.04625015 -0.03128875
v 0.01146133 -0.04608714 -0.02979891
v 0.00464208 -0.04607808 -0.03214783
v 0.00303239 -0.04601469 -0.03230772
v 0.00230309 -0.04611431 -0.03351301
v 0.00193378 -0.04610525 -0.03362412
v 0.00193378 0.04607808 -0.03426030
v 0.00222382 0.04609619 -0.03431315
v 0.01146133 -0.04625921 -0.03431315
v 0.01146133 -0.04625921 -0.03358144
v 0.01146133 -0.04481021 -0.02900826
v 0.00967538 -0.04602375 -0.02998387
v 0.00814963 -0.04585168 -0.03022032
v 0.00193378 -0.04510001 -0.03239377
v 0.00193378 -0.04583356 -0.03313835
v 0.00464208 0.04624109 -0.03358144
v 0.00193378 0.04599658 -0.03342832
v 0.00464208 0.04624109 -0.03431315
v 0.01146133 0.04625921 -0.03431315
v 0.01146133 -0.04477399 -0.02899674
v 0.00193378 -0.03167868 -0.02739172
v 0.00922026 0.04614148 -0.03129214
v 0.01146133 0.04625015 -0.03129214
v 0.00693070 0.04625921 -0.03358144
v 0.00214548 0.04600563 -0.03337209
v 0.00464208 0.04594224 -0.03197371
v 0.00193378 0.04567055 -0.03235515
v 0.00277126 0.04583357 -0.03221694
v 0.00693070 0.04625921 -0.03431315
v 0.01146133 0.04625921 -0.03358144
v 0.01146133 -0.03790031 -0.02748928
v 0.01146133 -0.03560908 -0.02739172
v 0.00193378 0.03174208 -0.02739172
v 0.01146133 0.04595130 -0.02960176
v 0.00922026 0.04584262 -0.02991002
v 0.00792300 0.04570678 -0.03009566
v 0.01146133 0.03544607 -0.02739172
v 0.00350523 0.03239413 -0.02739172
v 0.01146133 0.03763768 -0.02749403
v 0.01146133 0.03992890 -0.02761937
v 0.01146133 0.04089792 -0.02779078
v 0.01146133 0.04220202 -0.02810717
v 0.01146133 0.04235597 -0.02814850
v 0.01146133 0.04451135 -0.02879484
f 1 2 3
f 1 3 4
f 1 4 13
f 1 13 22
f 1 22 21
f 1 21 28
f 1 28 40
f 1 40 34
f 1 34 24
f 1 24 14
f 1 14 5
f 1 5 15
f 1 15 25
f 1 25 36
f 1 36 26
f 1 26 16
f 1 16 6
f 1 6 2
f 2 6 7
f 2 7 8
f 2 8 3
f 3 8 9
f 3 9 10
f 3 10 11
f 3 11 12
f 3 12 4
f 4 12 13
f 5 14 15
f 6 16 17
f 6 17 7
f 7 17 8
f 8 17 16
f 8 16 26
f 8 26 37
f 8 37 30
f 8 30 41
f 8 41 51
f 8 51 50
f 8 50 49
f 8 49 48
f 8 48 47
f 8 47 46
f 8 46 44
f 8 44 39
f 8 39 38
f 8 38 27
f 8 27 18
f 8 18 9
f 9 18 19
f 9 19 10
f 10 19 11
f 11 19 20
f 11 20 21
f 11 21 22
f 11 22 13
f 11 13 12
f 14 23 15
f 14 24 23
f 15 23 25
f 18 27 20
f 18 20 19
f 20 27 28
f 20 28 21
f 23 29 30
f 23 30 31
f 23 31 36
f 23 36 25
f 23 24 32
f 23 32 33
f 23 33 29
f 24 34 35
f 24 35 32
f 26 36 31
f 26 31 37
f 27 38 28
f 28 38 39
f 28 39 44
f 28 44 45
f 28 45 40
f 29 33 41
f 29 41 30
f 30 37 31
f 32 35 33
f 33 35 42
f 33 42 41
f 34 43 35
f 34 40 43
f 35 43 42
f 40 45 46
f 40 46 47
f 40 47 48
f 40 48 49
f 40 49 50
f 40 50 51
f 40 51 43
f 41 42 51
f 42 43 51
f 44 46 45

