# https://github.com/mikedh/trimesh
v -0.02419146 -0.01885943 -0.03919061
v -0.02413911 -0.01877508 -0.03904689
v -0.02419146 -0.01831665 -0.03919061
v -0.02357375 -0.02006601 -0.03919061
v -0.02176598 -0.02083617 -0.03693833
v -0.02413911 -0.01816996 -0.03904689
v -0.02201725 -0.01959292 -0.03670962
v -0.02205564 -0.00566771 -0.03431363
v -0.02222665 -0.00356995 -0.03431363
v -0.02231738 -0.00128148 -0.03431363
v -0.02233832 0.00101066 -0.03431363
v -0.02233832 0.00235294 -0.03431363
v -0.02418797 -0.01808560 -0.03919061
v -0.02257215 -0.02164667 -0.03919061
v -0.02055499 -0.02406350 -0.03919061
v -0.02000707 -0.02406350 -0.03869833
v -0.01993727 -0.01905014 -0.03431363
v -0.02015714 -0.01801226 -0.03431363
v -0.02232088 0.00329913 -0.03431363
v -0.02229296 0.00459007 -0.03431363
v -0.02223712 0.00558761 -0.03431363
v -0.02234880 0.00329913 -0.03919061
v 0.01146132 -0.02406350 -0.03919061
v -0.01132421 -0.02406350 -0.03431363
v -0.01905433 -0.01956724 -0.03431363
v -0.02211846 0.00687120 -0.03431363
v -0.02147283 0.01340288 -0.03919061
v 0.01146132 -0.02406350 -0.03431363
v 0.01146132 0.01340288 -0.03919061
v -0.02203819 0.00745432 -0.03431363
v -0.02171363 0.00890296 -0.03431363
v -0.02129833 0.01023423 -0.03431363
v -0.02047123 0.01230999 -0.03431363
v -0.02035257 0.01256304 -0.03431363
v -0.01988144 0.01340288 -0.03431363
v 0.01146132 0.01340288 -0.03431363
f 1 2 6
f 1 6 3
f 1 3 13
f 1 13 22
f 1 22 27
f 1 27 29
f 1 29 23
f 1 23 15
f 1 15 14
f 1 14 4
f 1 4 5
f 1 5 2
f 2 5 7
f 2 7 8
f 2 8 9
f 2 9 10
f 2 10 11
f 2 11 12
f 2 12 6
f 3 6 12
f 3 12 13
f 4 14 5
f 5 14 15
f 5 15 16
f 5 16 17
f 5 17 7
f 7 17 18
f 7 18 8
f 8 18 17
f 8 17 25
f 8 25 24
f 8 24 28
f 8 28 36
f 8 36 35
f 8 35 34
f 8 34 33
f 8 33 32
f 8 32 31
f 8 31 30
f 8 30 26
f 8 26 21
f 8 21 20
f 8 20 19
f 8 19 12
f 8 12 11
f 8 11 10
f 8 10 9
f 12 19 13
f 13 19 20
f 13 20 21
f 13 21 22
f 15 23 28
f 15 28 24
f 15 24 16
f 16 24 25
f 16 25 17
f 21 26 27
f 21 27 22
f 23 29 36
f 23 36 28
f 26 30 27
f 27 30 31
f 27 31 32
f 27 32 33
f 27 33 34
f 27 34 35
f 27 35 36
f 27 36 29

