# https://github.com/mikedh/trimesh
v -0.08216045 0.04222092 -0.06269985
v -0.08216045 0.04404896 -0.06362318
v -0.08235895 0.04400417 -0.06367330
v -0.08407839 0.04364254 -0.06413092
v -0.08235895 0.04222092 -0.06278393
v -0.08629452 0.04158890 -0.06430880
v -0.08654506 0.03993172 -0.06421824
v -0.08464830 0.03306579 -0.06354879
v -0.08235895 0.03306579 -0.06283244
v -0.08216045 0.03306579 -0.06277423
v -0.08216045 0.04410370 -0.06384309
v -0.08216045 0.04453832 -0.06563477
v -0.08235895 0.04448026 -0.06563477
v -0.08426012 0.04370060 -0.06563477
v -0.08540525 0.04308186 -0.06563477
v -0.08855210 0.04138818 -0.06620558
v -0.09096850 0.03930966 -0.06638831
v -0.08476387 0.04229889 -0.06389160
v -0.08768842 0.03993172 -0.06470335
v -0.09117228 0.03881035 -0.06634465
v -0.09117228 0.03812193 -0.06615384
v -0.09117228 0.03764584 -0.06603741
v -0.08922612 0.03764252 -0.06519170
v -0.08654859 0.03306579 -0.06421501
v -0.08629628 0.03157781 -0.06430718
v -0.08216045 0.03061900 -0.06334019
v -0.08216045 0.04452007 -0.06583366
v -0.08216045 0.04420323 -0.06812339
v -0.08216045 0.04369729 -0.07170674
v -0.08235895 0.04415679 -0.06792449
v -0.08394606 0.04353804 -0.06792449
v -0.08509029 0.04309181 -0.06792449
v -0.08693677 0.04228562 -0.06792449
v -0.08858034 0.04141472 -0.06792449
v -0.08972545 0.04058862 -0.06792449
v -0.09117228 0.03945563 -0.06792449
v -0.09117228 0.03943573 -0.06781938
v -0.09117228 0.03916866 -0.06661793
v -0.09117228 0.03569836 -0.06589996
v -0.09117228 0.03535498 -0.06589835
v -0.09117228 0.03340916 -0.06593392
v -0.09117228 0.03306579 -0.06594524
v -0.09117228 0.03172710 -0.06626703
v -0.09117228 0.03147661 -0.06638669
v -0.08216045 0.03010807 -0.06380752
v -0.08216045 0.04358449 -0.07250232
v -0.08311236 0.04321457 -0.07250232
v -0.08451244 0.04298896 -0.07024332
v -0.08464830 0.04258586 -0.07250232
v -0.08660505 0.04159388 -0.07250232
v -0.08618865 0.04134671 -0.07479204
v -0.08827686 0.04121566 -0.06960621
v -0.09117228 0.03896959 -0.07021421
v -0.09117228 0.03945232 -0.06794228
v -0.09117228 0.02759493 -0.07068639
v -0.08249305 0.02759493 -0.06754934
v -0.08216045 0.02759493 -0.06746687
v -0.08216045 0.04253444 -0.07467077
v -0.08591781 0.04116590 -0.07603878
v -0.08464830 0.04199863 -0.07479204
v -0.08733200 0.04053720 -0.07479204
v -0.08774841 0.04083745 -0.07250232
v -0.08911408 0.04042937 -0.07030639
v -0.09030595 0.03874067 -0.07346769
v -0.09006511 0.03856650 -0.07479204
v -0.09117228 0.03820984 -0.07301330
v -0.09117228 0.02759493 -0.07921787
v -0.08216045 0.02759493 -0.07593852
v -0.08216045 0.04227068 -0.07487289
v -0.08305325 0.04133842 -0.07609861
v -0.08464830 0.04134008 -0.07613580
v -0.09061032 0.03671357 -0.07838348
v -0.09099055 0.03704700 -0.07708177
v -0.09117228 0.03768068 -0.07476294
v -0.09117228 0.03077493 -0.07921787
v -0.09069413 0.02759493 -0.07904485
v -0.08256803 0.02759493 -0.07608729
v -0.08216045 0.03993172 -0.07593852
v -0.08216045 0.04042108 -0.07588192
v -0.08282917 0.03993172 -0.07618108
v -0.08944050 0.03535498 -0.07851931
v -0.08977221 0.03671357 -0.07838348
v -0.09117228 0.03306579 -0.07901736
v -0.09117228 0.03571661 -0.07851607
v -0.09117228 0.03687116 -0.07708177
v -0.09117228 0.03711833 -0.07643010
v -0.08829538 0.03535498 -0.07816033
v -0.08940697 0.03306579 -0.07857591
v -0.08826274 0.03306579 -0.07816033
v -0.08826274 0.02759493 -0.07816033
v -0.08464830 0.03764252 -0.07684406
f 1 2 3
f 1 3 4
f 1 4 5
f 1 5 6
f 1 6 7
f 1 7 8
f 1 8 9
f 1 9 10
f 1 10 26
f 1 26 45
f 1 45 57
f 1 57 68
f 1 68 78
f 1 78 79
f 1 79 69
f 1 69 58
f 1 58 46
f 1 46 29
f 1 29 28
f 1 28 27
f 1 27 12
f 1 12 11
f 1 11 2
f 2 11 4
f 2 4 3
f 4 11 12
f 4 12 13
f 4 13 14
f 4 14 15
f 4 15 16
f 4 16 17
f 4 17 6
f 4 6 18
f 4 18 5
f 5 18 6
f 6 19 7
f 6 17 20
f 6 20 21
f 6 21 22
f 6 22 19
f 7 19 23
f 7 23 24
f 7 24 8
f 8 24 25
f 8 25 9
f 9 25 10
f 10 25 26
f 12 27 13
f 13 27 28
f 13 28 29
f 13 29 30
f 13 30 31
f 13 31 32
f 13 32 14
f 14 32 33
f 14 33 34
f 14 34 15
f 15 34 16
f 16 34 35
f 16 35 36
f 16 36 37
f 16 37 17
f 17 37 38
f 17 38 20
f 19 22 23
f 20 38 37
f 20 37 36
f 20 36 54
f 20 54 53
f 20 53 66
f 20 66 74
f 20 74 86
f 20 86 85
f 20 85 84
f 20 84 83
f 20 83 75
f 20 75 67
f 20 67 55
f 20 55 44
f 20 44 43
f 20 43 42
f 20 42 41
f 20 41 40
f 20 40 39
f 20 39 22
f 20 22 21
f 22 39 23
f 23 39 40
f 23 40 24
f 24 40 41
f 24 41 42
f 24 42 25
f 25 43 44
f 25 44 26
f 25 42 43
f 26 44 45
f 29 46 30
f 30 46 47
f 30 47 48
f 30 48 31
f 31 48 32
f 32 48 49
f 32 49 33
f 33 49 50
f 33 50 34
f 34 50 51
f 34 51 52
f 34 52 35
f 35 52 53
f 35 53 54
f 35 54 36
f 44 55 45
f 45 55 56
f 45 56 57
f 46 58 59
f 46 59 60
f 46 60 47
f 47 49 48
f 47 60 59
f 47 59 49
f 49 59 51
f 49 51 50
f 51 59 61
f 51 61 62
f 51 62 52
f 52 62 63
f 52 63 53
f 53 64 65
f 53 65 66
f 53 63 64
f 55 67 76
f 55 76 90
f 55 90 77
f 55 77 68
f 55 68 57
f 55 57 56
f 58 69 70
f 58 70 71
f 58 71 59
f 59 71 72
f 59 72 73
f 59 73 65
f 59 65 61
f 61 63 62
f 61 65 64
f 61 64 63
f 65 73 74
f 65 74 66
f 67 75 76
f 68 77 78
f 69 79 70
f 70 79 80
f 70 80 81
f 70 81 82
f 70 82 71
f 71 82 72
f 72 82 83
f 72 83 84
f 72 84 85
f 72 85 73
f 73 85 86
f 73 86 74
f 75 83 81
f 75 81 87
f 75 87 88
f 75 88 89
f 75 89 76
f 76 89 90
f 77 90 89
f 77 89 78
f 78 91 80
f 78 80 79
f 78 89 91
f 80 91 88
f 80 88 87
f 80 87 81
f 81 83 82
f 88 91 89

