# https://github.com/mikedh/trimesh
v -0.01864325 -0.01980468 -0.03919109
v -0.01864325 -0.01980468 -0.05282015
v -0.02186528 -0.01980468 -0.03919109
v -0.01864325 -0.02875280 -0.03919109
v -0.01926236 -0.01980468 -0.05304619
v -0.01864325 -0.03103947 -0.05282015
v -0.02186528 -0.01980468 -0.05399382
v -0.02186528 -0.02222075 -0.03919109
v -0.01913999 -0.02784877 -0.03919109
v -0.01864325 -0.02880953 -0.03920413
v -0.02186528 -0.02285002 -0.05399382
v -0.01864325 -0.03311165 -0.05278827
v -0.01934909 -0.03248414 -0.05305923
v -0.02054253 -0.03103947 -0.05351131
v -0.02186528 -0.03791186 -0.04384230
v -0.02181860 -0.03791186 -0.04381621
v -0.02057533 -0.03791186 -0.04335109
v -0.02054411 -0.03791186 -0.04333950
v -0.01864325 -0.03791186 -0.04276861
v -0.02186528 -0.03103947 -0.05399237
v -0.01864325 -0.03328004 -0.05278102
v -0.02186528 -0.03331018 -0.05395759
v -0.02186528 -0.03791186 -0.05367214
v -0.01864325 -0.03791186 -0.05158562
v -0.01864325 -0.03341653 -0.05277088
v -0.02127833 -0.03791186 -0.05334757
f 1 2 5
f 1 5 7
f 1 7 3
f 1 3 8
f 1 8 9
f 1 9 4
f 1 4 10
f 1 10 19
f 1 19 24
f 1 24 25
f 1 25 21
f 1 21 12
f 1 12 6
f 1 6 2
f 2 6 5
f 3 7 11
f 3 11 20
f 3 20 22
f 3 22 23
f 3 23 15
f 3 15 8
f 4 9 10
f 5 11 7
f 5 6 11
f 6 12 13
f 6 13 14
f 6 14 11
f 8 15 9
f 9 15 10
f 10 15 16
f 10 16 17
f 10 17 18
f 10 18 19
f 11 14 20
f 12 21 22
f 12 22 13
f 13 22 20
f 13 20 14
f 15 23 26
f 15 26 24
f 15 24 19
f 15 19 18
f 15 18 17
f 15 17 16
f 21 25 23
f 21 23 22
f 23 25 26
f 24 26 25

