# https://github.com/mikedh/trimesh
v -0.03427973 0.01288379 -0.00007255
v -0.03199061 0.01271047 -0.00007255
v -0.03656884 0.01276782 -0.00007255
v -0.04811152 0.01252568 0.00304963
v -0.04811152 0.01252951 0.00321053
v -0.04811152 0.01214209 0.00524072
v -0.03199061 0.01172027 0.00262490
v -0.03057543 0.01157627 0.00239656
v -0.03046933 0.01197642 -0.00007255
v -0.04811152 0.01208347 -0.00007255
v -0.04811152 0.01222620 0.00090587
v -0.04811152 0.01204142 0.00540399
v -0.03062038 0.00923012 0.00685328
v -0.03040100 0.00960352 0.00534010
v -0.03024456 0.01028022 0.00311589
v -0.03017263 0.01095309 -0.00007255
v -0.04811152 0.00461302 -0.00007255
v -0.04811152 0.01064342 0.00763531
v -0.03199061 0.00724208 0.00922656
v -0.03056104 0.00716307 0.00906922
v -0.03031828 0.00790731 0.00762111
v -0.02984895 0.00787927 0.00534010
v -0.03003956 0.01016935 0.00076035
v -0.03001259 0.01016935 -0.00007255
v -0.04811152 -0.00013407 0.00447290
v -0.04805038 0.00459391 -0.00007255
v -0.04806117 -0.00013407 0.00444687
v -0.04811152 0.01035286 0.00794173
v -0.03199061 0.00572174 0.01037180
v -0.04811152 0.00994633 0.00835226
v -0.03080560 0.00449578 0.01109230
v -0.03042977 0.00539167 0.00986662
v -0.02980400 0.00559175 0.00762821
v -0.02974466 0.00787927 0.00304963
v -0.02994965 0.00871145 -0.00007255
v -0.04811152 -0.00013407 0.00983112
v -0.04801442 0.00458371 -0.00007255
v -0.04668195 -0.00013407 0.00441492
v -0.03427973 0.00578801 0.01045107
v -0.03199061 0.00457734 0.01113135
v -0.04811152 0.00876880 0.00918516
v -0.03059701 0.00330168 0.01128633
v -0.03199061 0.00330168 0.01153123
v -0.03199061 0.00101288 0.01201275
v -0.03004855 0.00330168 0.00991749
v -0.02983816 0.00101288 0.00991749
v -0.02974466 0.00330168 0.00762821
v -0.02974106 0.00559175 0.00534010
v -0.02975904 -0.00013407 0.00762821
v -0.02994066 0.00787927 -0.00007255
v -0.04811152 0.00331060 0.00982758
v -0.04806297 -0.00013407 0.00984651
v -0.04651471 -0.00013407 0.00441138
v -0.04572530 0.00454293 -0.00007255
v -0.03427973 0.00464233 0.01115974
v -0.04811152 0.00559175 0.00982403
v -0.04801442 0.00559175 0.00985242
v -0.04572530 0.00559175 0.01033512
v -0.04263778 0.00454930 0.01111242
v -0.04114707 0.00462449 0.01114791
v -0.03885976 0.00465763 0.01116447
v -0.03656884 0.00465890 0.01116684
v -0.03037403 0.00101288 0.01154424
v -0.03427973 0.00330168 0.01154543
v -0.03199061 -0.00013407 0.01200328
v -0.03037762 -0.00013407 0.01153833
v -0.03656884 0.00330168 0.01151349
v -0.03427973 0.00101288 0.01193940
v -0.03313787 -0.00013407 0.01197134
v -0.02984176 -0.00013407 0.00991749
v -0.03036504 -0.00013407 0.00523836
v -0.03039021 0.00553568 -0.00007255
v -0.04801442 0.00330168 0.00985834
v -0.04572530 -0.00013407 0.01056701
v -0.04572530 -0.00013407 0.00440309
v -0.03656884 0.00457861 -0.00007255
v -0.03427973 -0.00013407 0.00440309
v -0.04572530 0.00330168 0.01053388
v -0.04403679 0.00330168 0.01097399
v -0.04289313 0.00330168 0.01115856
v -0.04114707 0.00330168 0.01131591
v -0.03656884 0.00101288 0.01179979
v -0.03542698 -0.00013407 0.01187788
v -0.03427973 -0.00013407 0.01193467
v -0.03132168 -0.00013407 0.00477695
v -0.03199061 -0.00013407 0.00445870
v -0.03199061 0.00474683 -0.00007255
v -0.04422021 -0.00013407 0.01099411
v -0.03489292 0.00459263 -0.00007255
v -0.03427973 0.00459900 -0.00007255
v -0.03309291 -0.00013407 0.00443149
v -0.04417165 0.00101288 0.01098701
v -0.04307655 -0.00013407 0.01120470
v -0.04302620 0.00101288 0.01119168
v -0.04114707 0.00101288 0.01142239
v -0.03885976 0.00101288 0.01162115
v -0.03885976 -0.00013407 0.01164363
v -0.03771610 -0.00013407 0.01173236
v -0.03656884 -0.00013407 0.01180807
v -0.03278902 0.00469458 -0.00007255
v -0.04114707 -0.00013407 0.01144605
v -0.04000521 -0.00013407 0.01154543
f 1 2 9
f 1 9 16
f 1 16 24
f 1 24 35
f 1 35 50
f 1 50 72
f 1 72 87
f 1 87 100
f 1 100 90
f 1 90 89
f 1 89 76
f 1 76 54
f 1 54 37
f 1 37 26
f 1 26 17
f 1 17 10
f 1 10 3
f 1 3 4
f 1 4 5
f 1 5 6
f 1 6 2
f 2 7 8
f 2 8 9
f 2 6 7
f 3 10 11
f 3 11 4
f 4 11 10
f 4 10 17
f 4 17 25
f 4 25 36
f 4 36 51
f 4 51 56
f 4 56 41
f 4 41 30
f 4 30 28
f 4 28 18
f 4 18 12
f 4 12 6
f 4 6 5
f 6 12 13
f 6 13 7
f 7 13 8
f 8 13 14
f 8 14 15
f 8 15 9
f 9 15 16
f 12 18 13
f 13 19 20
f 13 20 21
f 13 21 14
f 13 18 19
f 14 21 22
f 14 22 15
f 15 22 23
f 15 23 16
f 16 23 24
f 17 26 27
f 17 27 25
f 18 28 19
f 19 29 20
f 19 28 30
f 19 30 29
f 20 29 31
f 20 31 32
f 20 32 33
f 20 33 21
f 21 33 22
f 22 33 34
f 22 34 23
f 23 34 24
f 24 34 35
f 25 27 38
f 25 38 53
f 25 53 75
f 25 75 77
f 25 77 91
f 25 91 86
f 25 86 85
f 25 85 71
f 25 71 49
f 25 49 70
f 25 70 66
f 25 66 65
f 25 65 69
f 25 69 84
f 25 84 83
f 25 83 99
f 25 99 98
f 25 98 97
f 25 97 102
f 25 102 101
f 25 101 93
f 25 93 88
f 25 88 74
f 25 74 52
f 25 52 36
f 26 37 27
f 27 37 38
f 29 39 40
f 29 40 31
f 29 30 41
f 29 41 39
f 31 42 32
f 31 40 43
f 31 43 44
f 31 44 42
f 32 45 33
f 32 42 45
f 33 46 47
f 33 47 48
f 33 48 34
f 33 45 46
f 34 48 49
f 34 49 50
f 34 50 35
f 36 52 51
f 37 53 38
f 37 54 53
f 39 41 40
f 40 55 43
f 40 41 55
f 41 56 57
f 41 57 58
f 41 58 59
f 41 59 60
f 41 60 61
f 41 61 62
f 41 62 55
f 42 44 63
f 42 63 45
f 43 55 64
f 43 64 44
f 44 65 66
f 44 66 63
f 44 64 67
f 44 67 68
f 44 68 69
f 44 69 65
f 45 63 46
f 46 70 47
f 46 63 70
f 47 49 48
f 47 70 49
f 49 71 72
f 49 72 50
f 51 52 73
f 51 73 56
f 52 74 73
f 53 54 75
f 54 76 77
f 54 77 75
f 55 62 64
f 56 73 74
f 56 74 57
f 57 74 78
f 57 78 79
f 57 79 58
f 58 79 59
f 59 79 80
f 59 80 81
f 59 81 68
f 59 68 67
f 59 67 60
f 60 67 64
f 60 64 61
f 61 64 62
f 63 66 70
f 68 82 83
f 68 83 84
f 68 84 69
f 68 81 82
f 71 85 72
f 72 85 86
f 72 86 87
f 74 88 78
f 76 89 77
f 77 89 90
f 77 90 91
f 78 88 92
f 78 92 79
f 79 92 93
f 79 93 94
f 79 94 80
f 80 94 95
f 80 95 81
f 81 95 96
f 81 96 82
f 82 96 97
f 82 97 98
f 82 98 99
f 82 99 83
f 86 91 90
f 86 90 100
f 86 100 87
f 88 93 92
f 93 101 94
f 94 101 95
f 95 101 102
f 95 102 96
f 96 102 97

