# https://github.com/mikedh/trimesh
v -0.09018635 -0.04024238 -0.06792524
v -0.09018635 -0.03981411 -0.06616552
v -0.09089447 -0.03950506 -0.06639976
v -0.09103884 -0.03959071 -0.06792524
v -0.09185933 -0.03847490 -0.07021419
v -0.09018635 -0.03994606 -0.06918322
v -0.09018635 -0.03789036 -0.06562328
v -0.09160076 -0.03786258 -0.06624938
v -0.09289181 -0.03706970 -0.06666727
v -0.09748496 -0.03253466 -0.06882029
v -0.09539808 -0.03503368 -0.06854411
v -0.09326551 -0.03735097 -0.06792524
v -0.09218370 -0.03849573 -0.06792524
v -0.09332034 -0.03733014 -0.07021419
v -0.09292013 -0.03700257 -0.07250313
v -0.09134127 -0.03824687 -0.07242216
v -0.09018635 -0.03847027 -0.07476316
v -0.09018635 -0.03891359 -0.07313357
v -0.09046138 -0.03911846 -0.07160520
v -0.09018635 -0.03969026 -0.07017949
v -0.09018635 -0.03561937 -0.06554087
v -0.09151670 -0.03561937 -0.06602381
v -0.09306724 -0.03561937 -0.06661087
v -0.09880434 -0.02841979 -0.06876390
v -0.09785958 -0.03104151 -0.06864244
v -0.09951977 -0.02841979 -0.07021419
v -0.09924748 -0.02915480 -0.07021419
v -0.09831642 -0.03104151 -0.07021419
v -0.09745298 -0.03248374 -0.07021419
v -0.09656487 -0.03362849 -0.07021419
v -0.09542001 -0.03505799 -0.07021419
v -0.09446520 -0.03620275 -0.07021419
v -0.09270268 -0.03680464 -0.07375967
v -0.09158888 -0.03742158 -0.07463013
v -0.09087346 -0.03719471 -0.07708103
v -0.09018635 -0.03823529 -0.07549770
v -0.09018635 -0.03926314 -0.07180474
v -0.09018635 -0.03333102 -0.06555533
v -0.09151670 -0.03333102 -0.06603104
v -0.09312754 -0.03333102 -0.06661087
v -0.09849094 -0.02841979 -0.06864677
v -0.09950240 -0.02841979 -0.07113815
v -0.09928494 -0.02841979 -0.07222262
v -0.09777917 -0.03108086 -0.07233830
v -0.09727847 -0.03223372 -0.07146638
v -0.09512854 -0.03469338 -0.07185101
v -0.09331668 -0.03567378 -0.07463013
v -0.09303252 -0.03492951 -0.07708103
v -0.09240024 -0.03647360 -0.07528659
v -0.09201832 -0.03607427 -0.07708103
v -0.09053813 -0.03691113 -0.07834190
v -0.09018635 -0.03713221 -0.07807150
v -0.09018635 -0.03160289 -0.06617564
v -0.09607695 -0.02841979 -0.06799465
v -0.09609432 -0.02875199 -0.06791223
v -0.09758364 -0.02841979 -0.07689449
v -0.09750141 -0.02862236 -0.07687570
v -0.09697512 -0.02929833 -0.07750035
v -0.09904829 -0.02871727 -0.07251036
v -0.09746851 -0.03024978 -0.07479208
v -0.09700070 -0.03187142 -0.07299042
v -0.09491473 -0.03214691 -0.07813946
v -0.09519616 -0.03248837 -0.07661398
v -0.09459403 -0.03403940 -0.07479208
v -0.09431078 -0.03328356 -0.07725888
v -0.09277029 -0.03460773 -0.07834623
v -0.09544925 -0.03062134 -0.07893040
v -0.09328836 -0.03333102 -0.07869760
v -0.09437292 -0.02841979 -0.08031128
v -0.09018635 -0.03691113 -0.07834190
v -0.09411251 -0.02841979 -0.06852821
v -0.09018635 -0.02841979 -0.07038626
v -0.09716883 -0.02841979 -0.07802668
v -0.09608609 -0.03103340 -0.07705789
v -0.09725288 -0.02991990 -0.07597487
v -0.09667269 -0.03139454 -0.07479208
v -0.09629990 -0.02841979 -0.07920513
v -0.09613909 -0.02841979 -0.07942058
v -0.09607422 -0.02841979 -0.07949721
v -0.09574163 -0.02841979 -0.07973580
v -0.09431535 -0.02841979 -0.08031128
v -0.09018635 -0.03482186 -0.07868314
v -0.09018635 -0.02841979 -0.07885955
v -0.09183375 -0.02841979 -0.07945962
v -0.09151670 -0.03104151 -0.07934105
v -0.09018635 -0.03248489 -0.07885955
v -0.09038006 -0.02841979 -0.07893040
f 1 2 3
f 1 3 4
f 1 4 5
f 1 5 6
f 1 6 20
f 1 20 37
f 1 37 18
f 1 18 17
f 1 17 36
f 1 36 52
f 1 52 70
f 1 70 82
f 1 82 86
f 1 86 83
f 1 83 72
f 1 72 53
f 1 53 38
f 1 38 21
f 1 21 7
f 1 7 2
f 2 7 8
f 2 8 3
f 3 8 9
f 3 9 10
f 3 10 11
f 3 11 12
f 3 12 13
f 3 13 4
f 4 13 14
f 4 14 5
f 5 14 15
f 5 15 16
f 5 16 17
f 5 17 18
f 5 18 19
f 5 19 20
f 5 20 6
f 7 21 22
f 7 22 23
f 7 23 9
f 7 9 8
f 9 23 24
f 9 24 25
f 9 25 10
f 10 24 26
f 10 26 27
f 10 27 28
f 10 28 29
f 10 29 30
f 10 30 31
f 10 31 11
f 10 25 24
f 11 31 32
f 11 32 12
f 12 32 13
f 13 32 14
f 14 32 15
f 15 33 34
f 15 34 17
f 15 17 16
f 15 32 33
f 17 34 35
f 17 35 36
f 18 37 19
f 19 37 20
f 21 38 39
f 21 39 40
f 21 40 22
f 22 40 23
f 23 40 24
f 24 41 54
f 24 54 71
f 24 71 72
f 24 72 83
f 24 83 87
f 24 87 84
f 24 84 81
f 24 81 69
f 24 69 80
f 24 80 79
f 24 79 78
f 24 78 77
f 24 77 73
f 24 73 56
f 24 56 43
f 24 43 42
f 24 42 26
f 24 40 41
f 26 42 27
f 27 42 28
f 28 42 43
f 28 43 44
f 28 44 29
f 29 44 45
f 29 45 30
f 30 45 31
f 31 45 46
f 31 46 33
f 31 33 32
f 33 47 48
f 33 48 49
f 33 49 35
f 33 35 34
f 33 46 47
f 35 49 50
f 35 50 51
f 35 51 36
f 36 51 52
f 38 53 54
f 38 54 55
f 38 55 41
f 38 41 39
f 39 41 40
f 41 55 54
f 43 56 57
f 43 57 58
f 43 58 59
f 43 59 44
f 44 59 60
f 44 60 61
f 44 61 45
f 45 61 62
f 45 62 63
f 45 63 64
f 45 64 46
f 46 64 47
f 47 64 48
f 48 50 49
f 48 64 63
f 48 63 65
f 48 65 62
f 48 62 66
f 48 66 50
f 50 66 51
f 51 66 67
f 51 67 68
f 51 68 69
f 51 69 81
f 51 81 70
f 51 70 52
f 53 71 54
f 53 72 71
f 56 73 57
f 57 73 58
f 58 73 67
f 58 67 62
f 58 62 74
f 58 74 75
f 58 75 59
f 59 75 60
f 60 75 74
f 60 74 62
f 60 62 76
f 60 76 61
f 61 76 62
f 62 65 63
f 62 67 66
f 67 77 78
f 67 78 79
f 67 79 80
f 67 80 68
f 67 73 77
f 68 80 69
f 70 81 82
f 81 84 85
f 81 85 82
f 82 85 86
f 83 86 87
f 84 87 86
f 84 86 85

