# https://github.com/mikedh/trimesh
v 0.10070637 -0.04248739 0.00390446
v 0.08997262 -0.04477688 -0.00019975
v 0.09661268 -0.04436581 0.00217712
v 0.09850928 -0.04468506 0.00252098
v 0.10070637 -0.04448963 0.00309408
v 0.10070637 -0.04230208 0.00389642
v 0.08322525 -0.04248739 -0.00253036
v 0.08326428 -0.04435907 -0.00254243
v 0.09035507 -0.04596120 -0.00034051
v 0.08367013 -0.04588539 -0.00271536
v 0.09164093 -0.04603533 -0.00020578
v 0.09392973 -0.04609008 0.00005563
v 0.09621853 -0.04604796 0.00039346
v 0.10070637 -0.04459324 0.00294930
v 0.10070637 -0.04074796 0.00305989
v 0.09676293 -0.04111354 0.00214092
v 0.08345549 -0.04128285 -0.00261482
v 0.08077255 -0.04248739 -0.00355189
v 0.08077255 -0.04482910 -0.00373287
v 0.08519600 -0.04603280 -0.00250824
v 0.08077255 -0.04580369 -0.00426977
v 0.08077255 -0.04608250 -0.00455733
v 0.09164093 -0.04620380 -0.00153095
v 0.09392973 -0.04625855 -0.00153095
v 0.09621853 -0.04620043 -0.00153095
v 0.09781854 -0.04597805 0.00025672
v 0.09855221 -0.04582475 0.00091629
v 0.10070637 -0.04560826 0.00076548
v 0.10070637 -0.03766247 -0.00126350
v 0.09392973 -0.03765404 -0.00187079
v 0.09227508 -0.03765404 -0.00232927
v 0.09207020 -0.03765404 -0.00239764
v 0.08952969 -0.03765404 -0.00336890
v 0.08935213 -0.03765404 -0.00343727
v 0.08077255 -0.04105373 -0.00432608
v 0.08077255 -0.04620801 -0.00563315
v 0.08706333 -0.04625771 -0.00381933
v 0.08248378 -0.04625855 -0.00610973
v 0.09392973 -0.04625939 -0.00839610
v 0.09621853 -0.04625855 -0.00610973
v 0.09621853 -0.04624255 -0.00381933
v 0.09825172 -0.04603196 -0.00153095
v 0.09850928 -0.04616084 -0.00610973
v 0.10070637 -0.04561753 0.00060662
v 0.09875514 -0.03765404 -0.00189090
v 0.09418534 -0.03765404 -0.00186476
v 0.10070637 -0.03765404 -0.00507211
v 0.08777553 -0.03765404 -0.00430798
v 0.08758236 -0.03765404 -0.00441657
v 0.08077255 -0.03765404 -0.00858915
v 0.08077255 -0.04625097 -0.00610973
v 0.08077255 -0.04625855 -0.00781898
v 0.08935213 -0.04625855 -0.01068650
v 0.09621853 -0.04625013 -0.00839610
v 0.08077255 -0.04625855 -0.01297488
v 0.08248378 -0.04625855 -0.01297488
v 0.10070637 -0.04572872 -0.00153095
v 0.09871806 -0.04606144 -0.00364640
v 0.10022442 -0.04599237 -0.00610973
v 0.09961954 -0.04591825 -0.00276563
v 0.10070637 -0.04582306 -0.00363835
v 0.09857172 -0.04608840 -0.00841018
v 0.10017173 -0.04598563 -0.00765610
v 0.10070637 -0.03765404 -0.00937942
v 0.08077255 -0.03765404 -0.01663670
v 0.08477453 -0.04620885 -0.01297488
v 0.09621853 -0.04608166 -0.00984796
v 0.09785172 -0.04602269 -0.00968106
v 0.08077255 -0.04614484 -0.01468212
v 0.10070637 -0.04592919 -0.00610973
v 0.09937758 -0.04557962 -0.00918236
v 0.10070637 -0.04508770 -0.00839811
v 0.10070637 -0.04248739 -0.00937942
v 0.09995710 -0.03765404 -0.00965290
v 0.08123694 -0.03765404 -0.01646779
v 0.08077255 -0.03904054 -0.01663670
v 0.08077255 -0.04610103 -0.01510039
v 0.08477453 -0.04604038 -0.01430810
v 0.08608771 -0.04596710 -0.01417337
v 0.09278826 -0.04592330 -0.01183270
v 0.09857172 -0.04480046 -0.00988013
v 0.10070637 -0.04489565 -0.00858312
v 0.10070637 -0.04499841 -0.00853083
v 0.09985564 -0.04405331 -0.00961470
v 0.08135792 -0.04367846 -0.01641751
v 0.09995710 -0.04248739 -0.00965290
v 0.09337948 -0.04248739 -0.01204787
v 0.08935213 -0.03791012 -0.01351380
v 0.08935213 -0.04248739 -0.01351380
v 0.08251110 -0.04248739 -0.01600327
v 0.08136572 -0.04248739 -0.01641953
v 0.08077255 -0.04248739 -0.01663469
v 0.08077255 -0.04537662 -0.01591077
v 0.08091499 -0.04520478 -0.01605958
v 0.08077255 -0.04508517 -0.01617018
v 0.08077255 -0.04457640 -0.01637126
v 0.08077255 -0.04411985 -0.01652811
v 0.08077255 -0.04308040 -0.01663268
f 1 2 3
f 1 3 4
f 1 4 5
f 1 5 14
f 1 14 28
f 1 28 44
f 1 44 57
f 1 57 61
f 1 61 70
f 1 70 72
f 1 72 83
f 1 83 82
f 1 82 73
f 1 73 64
f 1 64 47
f 1 47 29
f 1 29 15
f 1 15 6
f 1 6 7
f 1 7 8
f 1 8 2
f 2 9 3
f 2 8 10
f 2 10 9
f 3 9 4
f 4 9 11
f 4 11 5
f 5 11 12
f 5 12 13
f 5 13 14
f 6 15 16
f 6 16 17
f 6 17 7
f 7 17 18
f 7 18 8
f 8 18 19
f 8 19 10
f 9 10 20
f 9 20 11
f 10 19 21
f 10 21 22
f 10 22 20
f 11 23 12
f 11 20 23
f 12 23 24
f 12 24 13
f 13 24 25
f 13 25 26
f 13 26 27
f 13 27 14
f 14 27 28
f 15 29 30
f 15 30 31
f 15 31 16
f 16 31 32
f 16 32 17
f 17 32 33
f 17 33 34
f 17 34 35
f 17 35 18
f 18 35 50
f 18 50 65
f 18 65 76
f 18 76 92
f 18 92 98
f 18 98 97
f 18 97 96
f 18 96 95
f 18 95 93
f 18 93 77
f 18 77 69
f 18 69 55
f 18 55 52
f 18 52 51
f 18 51 36
f 18 36 22
f 18 22 21
f 18 21 19
f 20 22 23
f 22 36 23
f 23 36 37
f 23 37 24
f 24 37 38
f 24 38 39
f 24 39 40
f 24 40 41
f 24 41 25
f 25 42 26
f 25 41 43
f 25 43 42
f 26 28 27
f 26 42 28
f 28 42 44
f 29 45 46
f 29 46 30
f 29 47 45
f 30 46 45
f 30 45 47
f 30 47 64
f 30 64 74
f 30 74 75
f 30 75 65
f 30 65 50
f 30 50 49
f 30 49 48
f 30 48 34
f 30 34 33
f 30 33 32
f 30 32 31
f 34 48 35
f 35 48 49
f 35 49 50
f 36 51 37
f 37 51 38
f 38 51 52
f 38 52 39
f 39 53 54
f 39 54 40
f 39 52 55
f 39 55 56
f 39 56 53
f 40 43 41
f 40 54 43
f 42 57 44
f 42 43 58
f 42 58 59
f 42 59 60
f 42 60 61
f 42 61 57
f 43 59 58
f 43 54 62
f 43 62 63
f 43 63 59
f 53 56 66
f 53 66 54
f 54 66 67
f 54 67 68
f 54 68 62
f 55 69 56
f 56 69 66
f 59 70 61
f 59 61 60
f 59 63 70
f 62 68 63
f 63 68 71
f 63 71 72
f 63 72 70
f 64 73 86
f 64 86 74
f 65 75 76
f 66 69 77
f 66 77 78
f 66 78 67
f 67 78 68
f 68 78 79
f 68 79 80
f 68 80 81
f 68 81 71
f 71 82 83
f 71 83 72
f 71 81 84
f 71 84 82
f 73 84 85
f 73 85 86
f 73 82 84
f 74 86 87
f 74 87 88
f 74 88 75
f 75 88 87
f 75 87 89
f 75 89 76
f 76 89 90
f 76 90 91
f 76 91 92
f 77 93 79
f 77 79 78
f 79 93 94
f 79 94 95
f 79 95 96
f 79 96 97
f 79 97 80
f 80 84 81
f 80 97 85
f 80 85 84
f 85 97 98
f 85 98 91
f 85 91 90
f 85 90 89
f 85 89 87
f 85 87 86
f 91 98 92
f 93 95 94

