# https://github.com/mikedh/trimesh
v -0.02186528 0.02723224 -0.04342048
v -0.02186528 0.03172320 -0.04479022
v -0.02531398 0.02400326 -0.04342048
v -0.02186528 -0.02744719 -0.04342048
v -0.02186528 0.03172320 -0.05398931
v -0.02531398 0.03172320 -0.04711401
v -0.02531398 -0.02413526 -0.04342048
v -0.02531398 -0.02880396 -0.04725064
v -0.02186528 -0.02880396 -0.04454012
v -0.02186528 0.03076931 -0.05399278
v -0.02363014 0.03172320 -0.05463539
v -0.02531398 0.03172320 -0.05524905
v -0.02531398 -0.02880396 -0.05524789
v -0.02186528 -0.02880396 -0.05399278
v -0.02277978 -0.02880396 -0.05432624
v -0.02531398 0.02272351 -0.05524905
v -0.02478364 -0.02880396 -0.05505568
f 1 2 3
f 1 3 7
f 1 7 4
f 1 4 9
f 1 9 14
f 1 14 10
f 1 10 5
f 1 5 2
f 2 5 11
f 2 11 12
f 2 12 6
f 2 6 3
f 3 6 12
f 3 12 16
f 3 16 13
f 3 13 8
f 3 8 7
f 4 7 8
f 4 8 9
f 5 10 11
f 8 13 17
f 8 17 15
f 8 15 14
f 8 14 9
f 10 12 11
f 10 14 15
f 10 15 12
f 12 15 16
f 13 16 17
f 15 17 16

