mtllib material.mtl
usemtl mtl_foot-sole
v 0.09468976 -0.04812476 0.02176492
v 0.09345447 -0.04815000 0.02017202
v 0.09500000 -0.04815000 0.01750000
v 0.09292240 -0.04815000 0.01862905
v 0.09174382 -0.04815000 0.01750000
v -0.02613570 0.02511947 0.06050000
v -0.02629806 0.02597650 0.05977555
v -0.03143142 0.01921504 0.06056638
v -0.02088594 0.03046022 0.05981699
v -0.02049969 0.02989691 0.06050000
v -0.01371359 0.03200000 0.06050000
v -0.01637652 0.03251657 0.05973129
v -0.01726585 0.03146217 0.06050000
v 0.01015197 0.03200000 0.06050000
v 0.01015197 0.03268301 0.05981699
v 0.02631178 0.02591790 0.05981699
v 0.03143290 0.01925869 0.05976307
v 0.02779307 0.02582170 0.05643211
v 0.02582519 0.02543860 0.06050000
v 0.02159209 0.02958680 0.05981699
v 0.02124762 0.02899702 0.06050000
v 0.01607782 0.03189528 0.05981699
v 0.01589939 0.03123599 0.06050000
v 0.03387813 0.01289708 0.06050000
v 0.03449782 0.01323980 0.05979188
v 0.03050318 0.01958618 0.06050000
v 0.03541224 0.00790962 0.06050000
v 0.03625361 0.00714832 0.05992634
v 0.03589636 0.00544246 0.06050000
v 0.03631202 0.00209504 0.06055380
v 0.03689439 -0.00252779 0.05993939
v 0.03630232 -0.00127784 0.06050000
v 0.03546491 -0.00800442 0.06057342
v 0.02582519 -0.02543860 0.06050000
v 0.02631178 -0.02591790 0.05981699
v 0.03127860 -0.01949152 0.05983363
v 0.03050318 -0.01958618 0.06050000
v 0.03395598 -0.01294728 0.06058845
v 0.01015197 -0.03200000 0.06050000
v 0.01015197 -0.03268301 0.05981699
v 0.01607782 -0.03189528 0.05981699
v 0.01589939 -0.03123599 0.06050000
v 0.02159209 -0.02958680 0.05981699
v 0.02124762 -0.02899702 0.06050000
v -0.01371359 -0.03200000 0.06050000
v -0.01371359 -0.03268301 0.05981699
v -0.02049969 -0.02989691 0.06050000
v -0.02088594 -0.03046022 0.05981699
v -0.01746804 -0.03211458 0.05981699
v -0.01726585 -0.03146217 0.06050000
v -0.02707219 -0.02517474 0.05982300
v -0.02613570 -0.02511947 0.06050000
v -0.02762176 -0.02358001 0.06053574
v 0.12297930 -0.02334017 0.02033311
v 0.12208445 -0.02767171 0.02007274
v 0.12223574 -0.02711597 0.01750000
v 0.10209804 -0.04724042 0.01750000
v 0.10182063 -0.04743988 0.01910012
v 0.10984055 -0.04405603 0.01906464
v 0.10898682 -0.04442931 0.01750000
v 0.11489850 -0.03991161 0.01750000
v 0.11631092 -0.03847763 0.01957432
v 0.11942010 -0.03400290 0.01750000
v 0.12019789 -0.03265496 0.01964091
v 0.12315000 -0.02000000 0.01750000
v 0.12316103 -0.01992802 0.02110161
v 0.12315236 -0.00195163 0.02336039
v 0.12315000 0.02000000 0.01750000
v 0.12316049 0.02026561 0.02102063
v 0.11634409 -0.02147778 0.03580841
v 0.11245087 -0.02346454 0.03857104
v 0.11476870 -0.02569447 0.03601169
v 0.11067818 -0.02943515 0.03740440
v 0.11322243 -0.03034552 0.03518128
v 0.11019949 -0.03467489 0.03466346
v 0.10542984 -0.03568789 0.03660066
v 0.10537990 -0.03865969 0.03439970
v 0.09816887 -0.04070986 0.03516383
v 0.09805424 -0.03875339 0.03682617
v 0.09632662 -0.04147490 0.03481850
v 0.11965936 -0.02160959 0.03202709
v 0.12205524 -0.02082497 0.02752712
v 0.12186242 -0.02484175 0.02618050
v 0.09630565 -0.04513763 0.03049627
v 0.12084299 -0.02877142 0.02582077
v 0.11919937 -0.03268452 0.02551729
v 0.11558993 -0.03805425 0.02515434
v 0.10978275 -0.04308940 0.02492175
v 0.09657357 -0.04729719 0.02550509
v 0.09957347 -0.04452101 0.03048135
v 0.10259297 -0.04634456 0.02506298
v 0.10506119 -0.04293236 0.03012410
v 0.10948717 -0.04032690 0.03015639
v 0.11340945 -0.03683959 0.03036403
v 0.11647448 -0.03252221 0.03072767
v 0.11869533 -0.02738538 0.03126943
v 0.08825618 -0.04815000 0.01750000
v 0.08711347 -0.04815000 0.01857416
v -0.09500000 -0.04815000 0.01750000
v 0.08656040 -0.04815000 0.02004171
v 0.08671080 -0.04816366 0.02160799
v 0.01220635 -0.04815017 0.03114131
v -0.09485687 -0.04813270 0.03161092
v 0.07898578 -0.04137627 0.03827642
v 0.08330017 -0.03902102 0.03966432
v 0.05311719 -0.04042987 0.04291692
v -0.07411224 -0.03889855 0.04900393
v -0.07732552 -0.04126812 0.04689012
v -0.05248673 -0.03964580 0.04907457
v -0.04231034 -0.04145176 0.04753857
v -0.02360316 -0.03957503 0.04887019
v -0.00284293 -0.04065308 0.04725829
v -0.09506001 -0.03902756 0.04745024
v -0.09664434 -0.04117404 0.04530076
v -0.08397426 -0.04501105 0.04201973
v -0.09589494 -0.04488689 0.04123055
v 0.09337370 -0.04812568 0.02120060
v 0.08699584 -0.04813923 0.02221502
v 0.07856783 -0.04734575 0.02883305
v 0.08776878 -0.04808223 0.02306842
v 0.08885308 -0.04800512 0.02362106
v 0.09297621 -0.04806904 0.02212105
v 0.09226768 -0.04800157 0.02292703
v 0.09127195 -0.04795344 0.02351621
v 0.09008141 -0.04795299 0.02377197
v 0.07745316 -0.04502881 0.03420392
v 0.04044312 -0.04506861 0.03910302
v 0.02553640 -0.04045438 0.04561623
v -0.01843271 -0.04505898 0.04291811
v -0.06130650 -0.04507446 0.04304218
v -0.09525635 -0.04728470 0.03618385
v -0.06264842 -0.04736409 0.03790707
v -0.01932199 -0.04736234 0.03782014
v 0.03916946 -0.04736537 0.03408220
v -0.12099000 -0.03088571 0.03121772
v -0.12239011 -0.02661818 0.03156209
v -0.12217908 -0.02732938 0.01750000
v -0.12315000 -0.02000000 0.01750000
v -0.12312416 -0.02163385 0.03193141
v -0.11480901 -0.04000064 0.01750000
v -0.11517352 -0.03976400 0.03031090
v -0.11933332 -0.03415316 0.01750000
v -0.11882409 -0.03499451 0.03086928
v -0.10980832 -0.04397536 0.03013496
v -0.10891823 -0.04446845 0.01750000
v -0.09801267 -0.04798833 0.03011356
v -0.10206737 -0.04724839 0.01750000
v -0.10372423 -0.04681168 0.03030924
v -0.10367237 -0.03615046 0.04781307
v -0.10342196 -0.03960125 0.04525208
v -0.10934702 -0.03513411 0.04604152
v -0.10921817 -0.03072214 0.04901012
v -0.11281224 -0.03039596 0.04683738
v -0.11455642 -0.02554927 0.04767710
v -0.11144341 -0.02335805 0.05072951
v -0.11667334 -0.02027167 0.04732902
v -0.11899413 -0.02592039 0.04307345
v -0.11945691 -0.02042787 0.04419391
v -0.12194408 -0.02474387 0.03770105
v -0.12218408 -0.01945643 0.03875009
v -0.12314333 -0.01832139 0.03327766
v -0.11966629 -0.03169713 0.03706409
v -0.11601502 -0.03748460 0.03653861
v -0.11202534 -0.04134808 0.03609624
v -0.10734109 -0.04447210 0.03578973
v -0.10042877 -0.04683226 0.03576437
v -0.10009387 -0.04446626 0.04091825
v -0.10579197 -0.04252991 0.04101164
v -0.11122031 -0.03888842 0.04143940
v -0.11583652 -0.03344660 0.04216449
v -0.11516812 -0.01110583 0.05021026
v -0.11168296 -0.01149646 0.05276987
v -0.11536583 -0.00006537 0.05061454
v -0.11172862 0.00003969 0.05342031
v -0.11169142 0.01041779 0.05288691
v -0.11533292 0.01122359 0.05004638
v -0.11160713 0.02205692 0.05102130
v -0.11676466 0.02071792 0.04714435
v -0.12220658 -0.00685135 0.04071070
v -0.11956710 0.01039200 0.04565499
v -0.11971688 0.02037862 0.04363980
v -0.12218775 0.01945230 0.03879613
v -0.11954245 -0.00320377 0.04624951
v -0.12223165 0.00975127 0.04023442
v -0.12315478 0.00211432 0.03473222
v -0.12314231 0.01832478 0.03314104
v -0.12206520 0.02322992 0.03792662
v -0.12312069 0.02167786 0.03189864
v -0.11910950 0.02466639 0.04333329
v -0.11432277 0.02651745 0.04752775
v -0.12315001 0.01999999 0.01750000
v -0.02117975 -0.03127772 0.05672932
v -0.02537822 -0.02840654 0.05665912
v -0.01791482 -0.03337594 0.05497139
v -0.01468263 -0.03417913 0.05418099
v 0.01210173 -0.03457129 0.05254702
v 0.02616985 -0.02771651 0.05550017
v 0.01729438 -0.03353487 0.05289255
v 0.02222164 -0.03105781 0.05403922
v 0.02961118 -0.02320741 0.05730053
v 0.03902126 0.00927185 0.05616555
v 0.04188590 0.00843159 0.05548091
v 0.03920035 0.01697989 0.05438552
v 0.03687042 0.01604012 0.05528950
v 0.03319167 0.02292455 0.05383565
v 0.03696007 0.00890685 0.05796147
v 0.03507846 0.01512400 0.05714720
v 0.03183648 0.02160426 0.05577557
v 0.02787503 0.02829977 0.05282715
v 0.03272834 0.02690683 0.05214756
v 0.03826272 0.00255107 0.05791183
v 0.03794130 -0.00566549 0.05780319
v 0.04024135 0.00275717 0.05641601
v 0.04274520 0.00010805 0.05576754
v 0.04013951 -0.00371274 0.05637280
v 0.04204785 -0.00754075 0.05553315
v 0.03894943 -0.01012772 0.05605587
v 0.03610241 -0.01212586 0.05758646
v 0.03383257 -0.01812759 0.05651923
v 0.02736752 -0.02891545 0.05246164
v 0.03229803 -0.02421279 0.05347674
v 0.02956165 -0.02508890 0.05470487
v 0.03255232 -0.02721119 0.05198700
v 0.03913764 -0.01742991 0.05434722
v 0.03590687 -0.01816706 0.05491358
v 0.02520078 -0.03384808 0.04963098
v 0.02336301 -0.03198105 0.05142224
v 0.01758132 -0.03475756 0.05034819
v 0.01414486 -0.03767457 0.04827709
v 0.01183471 -0.03576475 0.05015253
v -0.01499315 -0.03536396 0.05175725
v -0.01815690 -0.03712386 0.05023461
v -0.02517099 -0.03116475 0.05391997
v -0.02526649 -0.03351814 0.05242974
v -0.02212532 -0.03247837 0.05373703
v -0.01904382 -0.03437934 0.05249377
v -0.03106495 -0.02485696 0.05667250
v -0.03365142 -0.02531974 0.05606954
v -0.02930255 -0.02398002 0.05836803
v -0.03455955 -0.01249701 0.06049984
v -0.03596098 -0.01207137 0.05985741
v -0.03349809 -0.01818645 0.05919484
v -0.03159079 -0.01835950 0.06052452
v -0.02961340 0.02360740 0.05844991
v -0.03276902 0.01949083 0.05900663
v -0.03552463 0.01366540 0.05968989
v -0.03342390 0.01527761 0.06050000
v -0.03472410 0.01205152 0.06050384
v -0.03777588 0.00546300 0.06007651
v -0.03595171 0.00761819 0.06050000
v -0.03654808 0.00384710 0.06050000
v -0.03821620 -0.00417241 0.06011294
v -0.03671357 -0.00163594 0.06050000
v -0.03646795 -0.00441993 0.06046682
v -0.03516748 -0.01066823 0.06050000
v -0.03539729 -0.01907540 0.05804959
v -0.03505288 0.01998335 0.05781693
v -0.03170985 0.02406934 0.05690341
v -0.03193538 0.02746003 0.05529620
v -0.03774291 -0.01174920 0.05941454
v -0.03778411 0.01068773 0.05956004
v -0.03675066 0.01598892 0.05867680
v -0.02638113 0.02759099 0.05686366
v -0.02157561 0.03097855 0.05685334
v -0.02295107 0.03170035 0.05422546
v -0.02567592 0.03083757 0.05412799
v -0.02590771 0.03315091 0.05262945
v -0.01914792 0.03277788 0.05548275
v -0.01544853 0.03409066 0.05429354
v -0.01565176 0.03529907 0.05182179
v -0.01914031 0.03688956 0.05040010
v -0.02009077 0.03388346 0.05282890
v 0.01522844 0.03768061 0.04822874
v 0.01161048 0.03461113 0.05256376
v 0.01377944 0.03572053 0.05005896
v 0.01684121 0.03368356 0.05282893
v 0.02271407 0.03073525 0.05421927
v 0.02577768 0.03334283 0.04982679
v 0.02180439 0.03295103 0.05103422
v -0.09487400 0.04815845 0.03069422
v -0.09499998 0.04815000 0.01750000
v -0.10206737 0.04724839 0.01750000
v -0.09836304 0.04794839 0.03010627
v -0.10388929 0.04678381 0.03007507
v -0.10891823 0.04446845 0.01750000
v -0.10996155 0.04387265 0.03017934
v -0.11480901 0.04000065 0.01750000
v -0.11494559 0.03999566 0.03034643
v -0.12236970 0.02666480 0.03163894
v -0.12093551 0.03098751 0.03123437
v -0.12217908 0.02732938 0.01750000
v -0.11933332 0.03415316 0.01750000
v -0.11883351 0.03497952 0.03087051
v -0.09554725 0.04732274 0.03588020
v -0.10071591 0.04680359 0.03569225
v -0.12118238 0.02750595 0.03753464
v -0.11958670 0.03182675 0.03707996
v -0.11732183 0.03567497 0.03666911
v -0.11393708 0.03976479 0.03621146
v -0.10781613 0.04421391 0.03583265
v -0.11809212 0.02846193 0.04285803
v -0.11166374 0.03224349 0.04656013
v -0.11591547 0.03325529 0.04223268
v -0.10814831 0.03632355 0.04579620
v -0.11144567 0.03864975 0.04149578
v -0.10246889 0.03999452 0.04520841
v -0.10628073 0.04226475 0.04105727
v -0.10050964 0.04438468 0.04090321
v -0.09566492 0.04163465 0.04499637
v -0.09573884 0.04484573 0.04129269
v -0.09553297 0.04537128 0.04056105
v -0.10924356 0.03073584 0.04898754
v -0.10343629 0.03651378 0.04762256
v -0.09743956 0.03879327 0.04725759
v 0.11627119 0.03849997 0.01965671
v 0.12006533 0.03285478 0.01994243
v 0.11942004 0.03400299 0.01750000
v 0.12223571 0.02711610 0.01750000
v 0.12242232 0.02664459 0.01998882
v 0.11489844 0.03991167 0.01750000
v 0.10898677 0.04442934 0.01750000
v 0.11080581 0.04335495 0.01950409
v 0.10209801 0.04724042 0.01750000
v 0.10337442 0.04698422 0.01921896
v 0.09174479 0.04825301 0.01750014
v 0.09582431 0.04814016 0.01981914
v 0.09345447 0.04815000 0.02017202
v 0.09292240 0.04815000 0.01862905
v 0.08825618 0.04815000 0.01750000
v 0.08711347 0.04815000 0.01857416
v 0.08656040 0.04815000 0.02004171
v 0.01717992 0.04815006 0.03074358
v -0.06234291 0.04814998 0.03249479
v 0.08671060 0.04816712 0.02160540
v -0.07820204 0.04138009 0.04666154
v -0.08121549 0.03888829 0.04867023
v -0.05216212 0.04043342 0.04851016
v 0.07498393 0.03891759 0.04105604
v 0.07906493 0.04123027 0.03847304
v 0.05367455 0.03964792 0.04341931
v 0.04389691 0.04146479 0.04291391
v 0.02504744 0.03958191 0.04627481
v 0.00380320 0.04054429 0.04702023
v 0.09991989 0.03853388 0.03653841
v 0.09641463 0.04158536 0.03473049
v 0.08841025 0.03889747 0.03875374
v 0.09632291 0.04516610 0.03046282
v 0.09753316 0.04722482 0.02542154
v 0.08426458 0.04734335 0.02786318
v 0.09344172 0.04813922 0.02084759
v 0.09307965 0.04813192 0.02195700
v 0.09231542 0.04800515 0.02288651
v 0.09125417 0.04795300 0.02352317
v 0.09006225 0.04795342 0.02377283
v 0.08891302 0.04800155 0.02363866
v 0.08793838 0.04806904 0.02318986
v 0.08720136 0.04812569 0.02251007
v -0.09177961 0.04731435 0.03648986
v 0.07826319 0.04502451 0.03409200
v 0.04492974 0.04507119 0.03852716
v -0.00591658 0.04505375 0.04245843
v -0.02510529 0.04041026 0.04832976
v -0.06356752 0.04505261 0.04315350
v 0.04499493 0.04736580 0.03337248
v -0.00544968 0.04736079 0.03730408
v -0.05080708 0.04736451 0.03811765
v 0.10196349 0.04645418 0.02511306
v 0.10769776 0.04429657 0.02493488
v 0.11232519 0.04113611 0.02499090
v 0.11664239 0.03681271 0.02523151
v 0.12021773 0.03055448 0.02564158
v 0.11970048 0.02115697 0.03203492
v 0.12225034 0.02082234 0.02683599
v 0.12191382 0.02473610 0.02613963
v 0.11906572 0.02597622 0.03141385
v 0.11677266 0.03215121 0.03072156
v 0.11321921 0.03702228 0.03033219
v 0.10896220 0.04074979 0.03013152
v 0.10236950 0.04390817 0.03029800
v 0.10248382 0.03990467 0.03450546
v 0.10671248 0.03768731 0.03446661
v 0.11197234 0.03279449 0.03478537
v 0.11477646 0.02498926 0.03629216
v 0.11692833 0.02168934 0.03526267
v 0.12229149 -0.00714696 0.02899591
v 0.11975680 -0.01152691 0.03375531
v 0.11566944 -0.01230052 0.03819952
v 0.11972953 0.01070127 0.03395143
v 0.11561331 0.01137547 0.03837306
v 0.11574820 -0.00075248 0.03888411
v 0.11975510 -0.00107205 0.03448659
v 0.12228124 0.00957783 0.02868448
v 0.11241031 0.02325119 0.03866339
v 0.11263214 0.01152236 0.04069613
v 0.11268036 0.00007275 0.04135984
v 0.11251345 -0.01334885 0.04057499
v 0.10623143 0.03487071 0.03670830
v 0.11055437 0.02964418 0.03738051
v -0.05063431 -0.03043368 0.05411710
v -0.09928551 -0.02355549 0.05295664
v -0.09898847 -0.01092989 0.05537846
v -0.05026691 -0.03504444 0.05187187
v 0.04719654 -0.03188023 0.04861488
v 0.10022545 0.01097427 0.04469734
v 0.10022545 -0.01097427 0.04469734
v 0.10012021 -0.02194853 0.04268933
v 0.06693897 -0.03533392 0.04429327
v 0.08606933 -0.03143885 0.04285235
v -0.09895486 -0.00000000 0.05601986
v -0.09898847 0.01092989 0.05537846
v -0.09909336 0.02185978 0.05337695
v -0.09071101 0.03191703 0.05124801
v -0.05060668 0.03489035 0.05194867
v 0.05115019 0.03496805 0.04655284
v 0.07985263 0.03094803 0.04435017
v 0.10021616 0.02363111 0.04226656
v 0.04391952 -0.02006619 0.05315337
v 0.05169353 0.03043373 0.04871581
v -0.05108701 0.03048738 0.05409872
v -0.04196478 -0.00000000 0.06017226
v 0.06634615 -0.03034060 0.04683607
v 0.08625358 -0.02095923 0.04636813
v 0.06642152 -0.02023737 0.05031438
v 0.08635502 -0.01047962 0.04830369
v 0.10025919 -0.00000000 0.04534127
v 0.05272794 0.02045505 0.05207509
v 0.08638729 -0.00000000 0.04891937
v 0.06643952 -0.01014565 0.05221141
v 0.08635502 0.01047962 0.04830369
v 0.06642273 -0.00004564 0.05281869
v 0.06630432 0.01006102 0.05224301
v 0.07939167 0.02043965 0.04799453
v -0.07868886 0.02060821 0.05629259
v -0.07086304 0.03052257 0.05340831
v -0.07875887 -0.03089153 0.05282055
v -0.08491389 -0.02090366 0.05552283
v -0.06435008 -0.02014547 0.05733765
v -0.06447212 -0.01005162 0.05920247
v -0.08481266 -0.01045183 0.05745433
v -0.06452914 0.00004552 0.05978712
v -0.08478048 -0.00000000 0.05806842
v -0.06422917 0.01037234 0.05918827
v -0.08481266 0.01045183 0.05745433
v -0.05646166 0.01873792 0.05796907
v 0.12720755 0.02295911 0.01197783
v 0.12725292 0.02000020 0.01549596
v 0.12719837 -0.02321045 0.01203145
v 0.12714580 -0.02326262 0.01549676
v 0.09514282 0.05245598 0.01162118
v 0.09590859 0.05243300 0.01549654
v 0.10118945 0.05195556 0.01225693
v 0.10238214 0.05162095 0.01549820
v 0.10948899 0.04898295 0.01549631
v 0.10781845 0.04978108 0.01201441
v 0.11826968 0.04246574 0.01549757
v 0.11314041 0.04685263 0.01194313
v 0.11333873 0.04661268 0.01549853
v 0.12274096 0.03660086 0.01549797
v 0.12061936 0.03982909 0.01202252
v 0.11735689 0.04339096 0.01200000
v 0.12517472 0.03155246 0.01550179
v 0.12628162 0.02797225 0.01549755
v 0.12598208 0.02933301 0.01188324
v 0.12381430 0.03466590 0.01200065
v 0.12687102 0.02540405 0.01550213
v 0.12511005 -0.03171149 0.01550264
v 0.12580529 -0.02996986 0.01201035
v 0.12668878 -0.02653794 0.01550252
v 0.12232052 -0.03731193 0.01550089
v 0.12110014 -0.03915823 0.01199160
v 0.12383497 -0.03462224 0.01200000
v 0.11752375 -0.04321613 0.01549676
v 0.11699414 -0.04375813 0.01196182
v 0.11304475 -0.04682402 0.01549785
v 0.11326333 -0.04677071 0.01209178
v 0.10120067 -0.05185460 0.01549715
v 0.10332092 -0.05137192 0.01198907
v 0.10826387 -0.04955740 0.01549773
v 0.10916315 -0.04916749 0.01202799
v 0.09496387 -0.05244257 0.01549673
v 0.09528965 -0.05246642 0.01175724
v -0.09834886 -0.04717799 0.03851197
v -0.09402833 -0.04728926 0.03795208
v -0.09931320 -0.04682142 0.03802401
v -0.10388266 -0.04560993 0.03806640
v -0.10390537 -0.04594816 0.03880841
v -0.10824106 -0.04370234 0.03834081
v -0.11206684 -0.04116783 0.03814580
v -0.11227306 -0.04142635 0.03888511
v -0.11560465 -0.03793406 0.03841727
v -0.11836088 -0.03432294 0.03822691
v -0.11865734 -0.03448148 0.03893137
v -0.12067045 -0.03004587 0.03846223
v -0.12205657 -0.02573890 0.03826804
v -0.12241334 -0.02573660 0.03895660
v -0.09854450 -0.04767027 0.03894813
v -0.10799336 -0.04463454 0.03903714
v -0.11569039 -0.03886256 0.03909182
v -0.12106225 -0.03088345 0.03912039
v -0.12338717 -0.02243273 0.03913728
v -0.12280431 -0.02107556 0.03850881
v -0.12295104 -0.01916415 0.03786334
v -0.12336041 -0.00821150 0.03840150
v -0.12389139 0.02349615 0.03919973
v -0.12425053 0.01512861 0.03918783
v -0.12316101 0.02099849 0.03896468
v -0.12273223 0.02183965 0.03824150
v -0.12361377 0.00821832 0.03890689
v -0.12329783 0.00916706 0.03833811
v -0.12376919 -0.00880118 0.03892196
v -0.12439004 -0.01899941 0.03916867
v -0.12294981 0.01916538 0.03786223
v -0.11251573 0.04123456 0.03888627
v -0.10715222 0.04510747 0.03901907
v -0.11663271 0.03783140 0.03910036
v -0.12032812 0.03217857 0.03907407
v -0.12246666 0.02550401 0.03895575
v -0.09815373 0.04703583 0.03829321
v -0.09801004 0.04776745 0.03895298
v -0.10398522 0.04555547 0.03828168
v -0.10829241 0.04367323 0.03833856
v -0.11562806 0.03789999 0.03840406
v -0.12067325 0.03001913 0.03844738
v -0.09942503 0.04680247 0.03802830
v -0.11218806 0.04107368 0.03814429
v -0.11845172 0.03417837 0.03820635
v -0.12209313 0.02557572 0.03824438
v -0.12470421 0.01429007 0.03886997
v -0.12462171 0.02305205 0.03885666
v -0.12468597 -0.02161538 0.03888224
v -0.12418829 -0.00073898 0.03903994
v -0.07458460 0.04785112 0.03789997
v 0.00065531 0.04866951 0.03590963
v -0.05014188 0.04922930 0.03801303
v -0.04132473 0.04826502 0.03686307
v 0.03065544 0.04824826 0.03358019
v -0.12305393 0.02941872 0.03907715
v -0.12124238 0.03358488 0.03907188
v -0.11758779 0.03883653 0.03912402
v -0.11007448 0.04525587 0.03907537
v -0.10187059 0.04881008 0.03892026
v -0.09607057 0.04936111 0.03894027
v -0.09638821 0.04972082 0.03868768
v -0.10675238 0.04734093 0.03871742
v -0.11150964 0.04473736 0.03879965
v -0.11557557 0.04144918 0.03881465
v -0.11888777 0.03769740 0.03886009
v -0.09548027 -0.04956239 0.03889174
v -0.05356934 -0.04930486 0.03809467
v -0.10425897 -0.04812595 0.03894377
v -0.10845456 -0.04631642 0.03899023
v -0.11246632 -0.04388344 0.03902126
v -0.11800502 -0.03833492 0.03912765
v -0.12278356 -0.02967167 0.03914853
v -0.12390076 -0.02708388 0.03884840
v -0.12227019 -0.03187811 0.03882024
v -0.11970381 -0.03655656 0.03884962
v -0.11637877 -0.04065118 0.03881822
v -0.09933971 -0.04945517 0.03864957
v 0.00997407 -0.04865427 0.03541756
v -0.05943439 -0.04823741 0.03775138
v -0.04816591 -0.04884716 0.03788297
v -0.07132144 -0.04795058 0.03764072
v 0.01992032 -0.04828310 0.03413359
v -0.04713975 -0.04827296 0.03663453
v 0.12388889 -0.01936805 0.02359042
v 0.12361187 -0.01911726 0.02310238
v 0.12322871 -0.02412894 0.02315979
v 0.12368671 -0.02414289 0.02379914
v 0.12434929 -0.02423585 0.02388956
v 0.10252658 -0.04693265 0.02685427
v 0.09849117 -0.04801567 0.02758116
v 0.10753909 -0.04563699 0.02634667
v 0.11075570 -0.04350911 0.02571254
v 0.11503858 -0.04076632 0.02526387
v 0.12093535 -0.03284807 0.02432373
v 0.11846562 -0.03647951 0.02458937
v 0.09774578 -0.04753522 0.02726055
v 0.10650600 -0.04527542 0.02579661
v 0.11470895 -0.04040463 0.02494190
v 0.09744059 -0.04738372 0.02677905
v 0.10221166 -0.04663840 0.02616012
v 0.11036652 -0.04328581 0.02502091
v 0.11470140 -0.04008755 0.02441305
v 0.11795616 -0.03642115 0.02386077
v 0.12054149 -0.03236705 0.02350313
v 0.12273859 -0.02814125 0.02394671
v 0.12221279 -0.02825621 0.02327077
v 0.12368982 0.01900744 0.02338426
v 0.12434382 0.02611086 0.02389707
v 0.12355030 0.02525398 0.02382093
v 0.12343848 0.02261564 0.02311277
v 0.12251977 0.02723562 0.02322912
v 0.12134495 0.03176922 0.02415619
v 0.12094503 0.03155406 0.02345866
v 0.11820423 0.03710208 0.02474804
v 0.11785497 0.03662063 0.02389534
v 0.11473616 0.04054542 0.02513974
v 0.11484496 0.03990149 0.02430183
v 0.11062323 0.04377722 0.02584464
v 0.11198753 0.04223626 0.02473335
v 0.10885262 0.04414415 0.02523433
v 0.10555341 0.04601898 0.02644135
v 0.10540834 0.04567687 0.02572754
v 0.10099188 0.04692833 0.02655163
v 0.10222863 0.04739303 0.02707328
v 0.09599295 0.04810731 0.02791768
v 0.09617196 0.04740778 0.02720226
v 0.12283539 0.02703550 0.02050002
v 0.12062628 0.03287324 0.02049949
v 0.11708930 0.03829839 0.02049944
v 0.10962098 0.04469828 0.02050854
v 0.11324254 0.04209686 0.02049941
v 0.10186573 0.04753188 0.02294071
v 0.10190962 0.04780480 0.02049936
v 0.10563397 0.04665126 0.02050737
v 0.09712765 0.04861002 0.02049919
v 0.09581193 0.04844106 0.02285955
v 0.12364642 0.02084438 0.02051542
v 0.10263025 -0.04738488 0.02295033
v 0.09969777 -0.04829272 0.02049948
v 0.09582809 -0.04836924 0.02324636
v 0.09479818 -0.04866210 0.02050417
v 0.10825208 -0.04542107 0.02050346
v 0.10436831 -0.04708421 0.02049941
v 0.11172556 -0.04297496 0.02252735
v 0.11344913 -0.04197772 0.02049927
v 0.12037729 -0.03339256 0.02049911
v 0.11734518 -0.03793313 0.02049900
v 0.12263339 -0.02771026 0.02049880
v 0.12365462 -0.02151029 0.02049822
v -0.09470233 -0.04864666 0.03136739
v -0.09758770 -0.04817864 0.03402435
v 0.07388725 -0.04831092 0.02773816
v 0.06670862 -0.04801587 0.03053737
v -0.00239951 -0.04864949 0.03176384
v -0.10372882 -0.04694349 0.03411242
v -0.11472187 -0.04034400 0.03446499
v -0.11839177 -0.03582640 0.03490437
v -0.12067728 -0.03184759 0.03522455
v -0.12262087 -0.02681898 0.03465824
v -0.12315828 -0.02245826 0.03609843
v -0.12166069 -0.03056239 0.03113886
v -0.12364296 -0.02119654 0.03214194
v -0.11954659 -0.03481940 0.03087939
v -0.10941774 -0.04433016 0.03416193
v -0.11525320 -0.04037447 0.03055973
v -0.10949757 -0.04475291 0.03012549
v -0.10608471 -0.04641877 0.03009174
v -0.09997031 -0.04835185 0.02949153
v -0.12364440 -0.01832983 0.03308932
v -0.12364700 0.01832305 0.03301520
v -0.12367494 -0.01202542 0.03375491
v -0.12366601 0.02045275 0.03233878
v -0.12316298 0.02202004 0.03636166
v -0.12283563 0.02622786 0.03432354
v -0.12072318 0.03170034 0.03532258
v -0.11840152 0.03581195 0.03490568
v -0.11476719 0.04030528 0.03436473
v -0.10071617 0.04774884 0.03399774
v -0.09846909 0.04843920 0.03010537
v -0.09489684 0.04863890 0.03121638
v -0.09531675 0.04830076 0.03416551
v -0.12166522 0.03056801 0.03118975
v -0.11972164 0.03455259 0.03068896
v -0.11581478 0.03980568 0.03035057
v -0.11012018 0.04438315 0.03024729
v -0.10821939 0.04507049 0.03412754
v -0.10407263 0.04724766 0.02988439
v -0.12635681 0.01962033 0.03398116
v -0.12739532 0.02007004 0.02646020
v -0.12742519 -0.02000220 0.02624780
v -0.12629797 -0.01983082 0.03414077
v 0.04621244 0.04933082 0.03321549
v 0.04010728 0.04860321 0.03356704
v 0.06751060 0.04833424 0.03101990
v 0.07307597 0.04952309 0.03061948
v 0.08191697 0.04779689 0.02877055
v 0.00669898 0.04920420 0.03577078
v -0.05246014 0.04974925 0.03774837
v 0.00731710 0.04974917 0.03544754
v -0.09396202 0.05107503 0.03499623
v -0.10689665 0.04909447 0.03348731
v -0.11236190 0.04618700 0.03359134
v -0.12400463 0.03211990 0.03356345
v -0.12105987 0.03755785 0.03360995
v -0.11793250 0.04294797 0.02570271
v -0.11711916 0.04233228 0.03353443
v -0.12585299 0.02612540 0.03351249
v -0.10758829 0.04992394 0.02522034
v -0.11348384 0.04672793 0.02490234
v -0.12682681 0.02627605 0.02565140
v -0.12493683 0.03257392 0.02529904
v -0.12170207 0.03853296 0.02506753
v -0.10092888 0.05085204 0.03351878
v -0.09434164 0.05188751 0.03098634
v -0.09497439 0.05242821 0.02584087
v -0.10135199 0.05178497 0.02584937
v -0.12404566 -0.03200560 0.03359338
v -0.12112204 -0.03746041 0.03363349
v -0.10700728 -0.04905669 0.03345298
v -0.11246383 -0.04612648 0.03355090
v -0.10104953 -0.05084619 0.03345821
v -0.12579609 -0.02610154 0.03372734
v -0.11792258 -0.04295823 0.02570429
v -0.11725491 -0.04220005 0.03352350
v -0.12490799 -0.03262207 0.02532900
v -0.12172914 -0.03848568 0.02492649
v -0.10120691 -0.05182983 0.02569023
v -0.10756003 -0.04994267 0.02520691
v -0.11351282 -0.04671706 0.02502128
v -0.09484297 -0.05144077 0.03340418
v -0.09490972 -0.05242006 0.02578067
v -0.12677732 -0.02637921 0.02603411
v -0.05001890 -0.04975962 0.03766267
v 0.00801561 -0.04921180 0.03569868
v 0.00565071 -0.04974864 0.03553037
v 0.03564330 -0.04866992 0.03392073
v 0.06375595 -0.04842124 0.03147747
v 0.04702022 -0.04924171 0.03316709
v 0.07465743 -0.04949739 0.03046165
v 0.09789454 0.04954704 0.02763493
v 0.10652154 0.04782721 0.02643124
v 0.11067858 0.04587116 0.02585301
v 0.11458525 0.04332124 0.02529032
v 0.12010963 0.03739114 0.02454036
v 0.12385286 0.03083898 0.02389534
v 0.12548254 0.02440615 0.02371175
v 0.12556416 -0.02460821 0.02367518
v 0.12407713 -0.03037679 0.02383787
v 0.12192112 -0.03477590 0.02423082
v 0.11691201 -0.04128261 0.02494704
v 0.11049008 -0.04580304 0.02595865
v 0.10315654 -0.04877508 0.02690725
v 0.09726419 -0.04957638 0.02770351
v 0.12601230 0.02110168 0.02334907
v 0.12602021 -0.02009306 0.02335187
v 0.12543002 0.02612134 0.02342907
v 0.12166512 0.03556754 0.02401410
v 0.11840879 0.03991581 0.02448442
v 0.10160366 0.04931483 0.02685493
v 0.10802324 -0.04735142 0.02599385
v 0.11267088 -0.04486645 0.02532290
v 0.12056059 -0.03722992 0.02416644
v 0.04400045 0.04976168 0.03307542
v 0.03388829 0.05099155 0.03035167
v 0.02950853 0.05216026 0.02468147
v -0.00460866 -0.05097730 0.03263106
v 0.00189444 -0.05185493 0.02813755
v 0.00297703 -0.05234706 0.02379898
v 0.04779712 -0.04971835 0.03283911
v -0.12750000 -0.02000000 0.01200000
v -0.12687552 -0.02634044 0.01200000
v -0.12502609 -0.03243721 0.01200000
v -0.12147292 -0.03892533 0.01194651
v -0.11798097 -0.04298097 0.01200000
v -0.11372086 -0.04661446 0.01187828
v -0.10743721 -0.05002609 0.01200000
v -0.10134044 -0.05187552 0.01200000
v -0.09500000 -0.05250000 0.01200000
v -0.12750000 0.02000000 0.01200000
v -0.09500000 0.05250000 0.01200000
v -0.10134044 0.05187552 0.01200000
v -0.10780085 0.04989031 0.01198021
v -0.11398610 0.04642589 0.01194793
v -0.11798097 0.04298097 0.01200000
v -0.12161446 0.03872087 0.01187834
v -0.12502609 0.03243721 0.01200000
v -0.12697501 0.02595392 0.01199986
v 0.09584685 0.05146918 0.02221835
v 0.12189270 0.03705383 0.01895307
v 0.11817208 0.04176904 0.01939820
v 0.11357006 0.04573074 0.01993703
v 0.10829296 0.04873703 0.02053880
v 0.10246864 0.05069238 0.02118294
v 0.09557395 -0.05167195 0.02134005
v 0.07074097 -0.05095795 0.02717822
v 0.10250311 -0.05068059 0.02117900
v 0.11361045 -0.04570221 0.01993235
v 0.10831829 -0.04872566 0.02053595
v 0.11818699 -0.04175345 0.01939643
v -0.04412700 0.04865009 0.03268971
v 0.03748140 0.04865009 0.02887661
v -0.09479479 0.04863958 0.01621039
v 0.09491516 0.04860746 0.01609126
v 0.10095768 0.04797776 0.01614920
v 0.10492398 0.04682063 0.01612855
v 0.10869174 0.04510713 0.01612854
v 0.11217269 0.04286767 0.01612855
v 0.11529390 0.04014918 0.01612854
v 0.11801793 0.03697253 0.01612980
v 0.12187118 0.02981457 0.01614494
v 0.12055031 0.03263063 0.01579342
v 0.12303700 0.02577614 0.01617199
v 0.12361775 0.01973405 0.01612866
v 0.12360963 -0.01981422 0.01615018
v 0.12304239 -0.02571145 0.01616003
v 0.12337032 -0.02399032 0.02049665
v 0.12193526 -0.02962812 0.01613969
v 0.12027843 -0.03339384 0.01614485
v 0.11803005 -0.03695431 0.01612855
v 0.11534139 -0.04010123 0.01612855
v 0.11219079 -0.04285538 0.01612981
v 0.10871430 -0.04508513 0.01611485
v 0.10498720 -0.04679715 0.01612855
v 0.10101188 -0.04796426 0.01613568
v 0.09477248 -0.04861639 0.01612800
v -0.09421405 -0.04861454 0.01596087
v -0.10071974 -0.04803346 0.01614917
v -0.11509655 -0.04034866 0.01613225
v -0.11195537 -0.04302033 0.01611777
v -0.10851581 -0.04520374 0.01612986
v -0.10475738 -0.04687318 0.01611501
v -0.11779860 -0.03726674 0.01613231
v -0.12007957 -0.03374614 0.01613206
v -0.12181241 -0.02995197 0.01613177
v -0.12363149 -0.01969434 0.01614451
v -0.12295986 -0.02596820 0.01611589
v -0.12362812 0.01988233 0.01618837
v -0.12177785 0.03003806 0.01612632
v -0.12004343 0.03380745 0.01612642
v -0.12294923 0.02602251 0.01611555
v -0.11505542 0.04038624 0.01612641
v -0.11778378 0.03728272 0.01612556
v -0.11194148 0.04303014 0.01611617
v -0.10849781 0.04521406 0.01613189
v -0.10465777 0.04691861 0.01612910
v -0.10065176 0.04803335 0.01612617
v -0.09780024 0.04792046 0.01555215
v 0.09897236 0.04778224 0.01553748
v 0.10698637 0.04543537 0.01557040
v 0.11375337 0.04095097 0.01557040
v 0.11798275 0.03600805 0.01554221
v 0.12270921 0.02431776 0.01554198
v 0.12302979 -0.01999862 0.01555148
v 0.09906679 -0.04772230 0.01553980
v 0.10635291 -0.04572437 0.01557040
v 0.11320439 -0.04140221 0.01555722
v 0.11858544 -0.03530879 0.01557040
v 0.12206683 -0.02766985 0.01557061
v -0.10269536 -0.04700686 0.01551305
v -0.12276010 -0.02407754 0.01556310
v -0.12071067 -0.03133209 0.01555722
v -0.11640429 -0.03821644 0.01556313
v -0.11031663 -0.04361168 0.01558209
v -0.12279619 0.02401705 0.01554110
v -0.10612118 0.04585401 0.01558209
v -0.11100640 0.04298389 0.01554221
v -0.11594996 0.03875450 0.01557040
v -0.12043501 0.03198717 0.01557040
v 0.11411329 0.02847825 -0.00000349
v 0.11508796 -0.02399101 -0.00000020
v 0.09522305 -0.04094910 0.00000021
v -0.11465108 0.02716131 -0.00000155
v -0.10352781 0.03928888 -0.00000374
v -0.11450755 -0.02818540 -0.00000358
v 0.09502947 0.04054530 -0.00000038
v 0.10375197 0.03869523 -0.00000059
v -0.10168272 -0.03991305 0.00000026
v 0.10989046 -0.03438744 -0.00000200
v -0.09506651 0.04983484 0.00437914
v -0.09890876 0.04730338 0.00226564
v -0.10089333 0.04962776 0.00494658
v -0.10615260 0.04158629 0.00057926
v -0.11356437 0.03567523 0.00057926
v -0.10784132 0.04447747 0.00226019
v -0.11448321 0.03948321 0.00229180
v -0.11178278 0.04511720 0.00494658
v -0.11636043 0.04136043 0.00494658
v -0.11272974 0.04653442 0.00829180
v -0.11756567 0.04256567 0.00829180
v -0.11927611 0.03321803 0.00226019
v -0.12011720 0.03678278 0.00494658
v -0.12153442 0.03772973 0.00829180
v -0.11736546 0.02926408 0.00058732
v -0.12290874 0.03156018 0.00494658
v -0.12448347 0.03221245 0.00829180
v -0.11930790 0.02273379 0.00063663
v -0.12272754 0.02319180 0.00248380
v -0.12492881 0.02435760 0.00488821
v -0.12629949 0.02622586 0.00829180
v -0.10122585 0.05129949 0.00829180
v -0.09500000 0.05191268 0.00829180
v -0.09851180 0.04395210 0.00057329
v -0.10656018 0.04790874 0.00494658
v -0.10721245 0.04948347 0.00829180
v -0.12680493 0.02009476 0.00788108
v -0.11959682 -0.02014960 0.00068459
v -0.12234990 -0.02380129 0.00228272
v -0.12481228 -0.02008730 0.00436504
v -0.12682283 -0.02008756 0.00793747
v 0.09521331 0.05159982 0.00739836
v 0.09507968 0.04532142 0.00099275
v 0.09516051 0.04906382 0.00356429
v -0.12153442 -0.03772973 0.00829180
v -0.12011720 -0.03678278 0.00494658
v -0.11636043 -0.04136043 0.00494658
v -0.11399575 -0.03514958 0.00057926
v -0.10675229 -0.04126575 0.00057926
v -0.09879103 -0.04395835 0.00058764
v -0.11817564 -0.02708872 0.00056609
v -0.11650193 -0.03736989 0.00226018
v -0.10821804 -0.04427610 0.00226018
v -0.09822854 -0.04774293 0.00250285
v -0.12462776 -0.02589333 0.00494658
v -0.11178278 -0.04511720 0.00494658
v -0.10656018 -0.04790874 0.00494658
v -0.09933156 -0.04997076 0.00494401
v -0.12629949 -0.02622586 0.00829180
v -0.11756567 -0.04256567 0.00829180
v -0.11272974 -0.04653442 0.00829180
v -0.10721245 -0.04948347 0.00829180
v -0.10122585 -0.05129949 0.00829180
v -0.09500000 -0.05191268 0.00829180
v -0.12045604 -0.03054424 0.00229180
v -0.12290874 -0.03156018 0.00494658
v -0.12448347 -0.03221245 0.00829180
v 0.09506974 -0.04482408 0.00078595
v 0.09514707 -0.04899177 0.00350204
v 0.09516864 -0.05168975 0.00766060
v 0.09521051 0.04308772 0.00029272
v 0.09869192 0.04495974 0.00096843
v 0.10293560 0.05053325 0.00740651
v 0.10798862 0.04868077 0.00740780
v 0.11266127 0.04608055 0.00740044
v 0.11672388 0.04273241 0.00740780
v 0.12028649 0.03872988 0.00740501
v 0.12302022 0.03420766 0.00740780
v 0.12500766 0.02936204 0.00738743
v 0.12626798 0.02307807 0.00736338
v 0.10239450 0.04797840 0.00351076
v 0.10977991 0.04491496 0.00349992
v 0.11718740 0.03856912 0.00349975
v 0.12208072 0.03012242 0.00349975
v 0.12366223 0.02274439 0.00348170
v 0.10789328 0.04149097 0.00090893
v 0.11427501 0.03596124 0.00090889
v 0.11846831 0.02862765 0.00090889
v 0.11979587 0.02239336 0.00090680
v 0.09533520 -0.05038475 0.00521057
v 0.09528629 -0.04730678 0.00212199
v 0.11964719 -0.02488726 0.00092526
v 0.12373209 -0.02276456 0.00354569
v 0.12631379 -0.02286613 0.00744695
v 0.12509498 -0.02912321 0.00740947
v 0.12301949 -0.03421069 0.00740780
v 0.11272455 -0.04604178 0.00740762
v 0.09712643 -0.04494509 0.00091345
v 0.09771916 -0.05141234 0.00740780
v 0.10296597 -0.05051846 0.00740052
v 0.10397675 -0.04757330 0.00349998
v 0.10261621 -0.04390811 0.00090893
v 0.10799291 -0.04867902 0.00740780
v 0.11258306 -0.04300411 0.00350002
v 0.11008556 -0.03999657 0.00090895
v 0.11673029 -0.04272681 0.00740780
v 0.12024748 -0.03877470 0.00740011
v 0.11919720 -0.03584301 0.00350007
v 0.11584610 -0.03382968 0.00090896
v 0.12252846 -0.02859695 0.00351069
f 1 2 3
f 3 2 4
f 3 4 5
f 6 7 8
f 9 7 10
f 10 7 6
f 11 12 13
f 13 12 9
f 13 9 10
f 14 15 11
f 11 15 12
f 16 17 18
f 19 16 20
f 19 20 21
f 21 20 22
f 21 22 23
f 23 22 15
f 23 15 14
f 24 25 17
f 24 17 26
f 26 17 16
f 26 16 19
f 27 28 24
f 24 28 25
f 28 27 29
f 28 29 30
f 31 30 32
f 32 33 31
f 34 35 36
f 34 36 37
f 37 36 38
f 39 40 41
f 39 41 42
f 42 41 43
f 42 43 44
f 44 43 35
f 44 35 34
f 45 46 39
f 39 46 40
f 47 48 49
f 47 49 50
f 50 49 46
f 50 46 45
f 51 48 52
f 52 48 47
f 52 53 51
f 54 55 56
f 57 58 3
f 3 58 1
f 58 57 59
f 59 57 60
f 61 62 59
f 61 59 60
f 63 64 62
f 63 62 61
f 56 55 63
f 63 55 64
f 56 65 66
f 56 66 54
f 65 67 66
f 68 69 67
f 68 67 65
f 70 71 72
f 72 71 73
f 72 73 74
f 74 73 75
f 75 73 76
f 76 77 75
f 77 76 78
f 78 76 79
f 78 79 80
f 70 72 81
f 66 82 83
f 78 80 84
f 66 83 54
f 54 83 85
f 54 85 55
f 55 85 86
f 55 86 64
f 64 86 87
f 64 87 62
f 62 87 88
f 62 88 59
f 84 89 90
f 90 89 91
f 90 91 92
f 92 91 88
f 92 88 93
f 93 88 87
f 93 87 94
f 94 87 86
f 94 86 95
f 95 86 85
f 95 85 96
f 96 85 83
f 96 83 82
f 96 82 81
f 59 88 91
f 59 91 58
f 58 91 89
f 58 89 1
f 81 72 96
f 96 72 74
f 96 74 95
f 95 74 75
f 95 75 94
f 94 75 77
f 94 77 93
f 93 77 92
f 92 77 78
f 92 78 90
f 90 78 84
f 97 98 99
f 99 98 100
f 100 101 99
f 99 101 102
f 99 102 103
f 80 79 104
f 104 79 105
f 104 105 106
f 107 108 109
f 109 108 110
f 109 110 111
f 111 110 112
f 113 114 107
f 114 108 107
f 115 114 116
f 2 1 117
f 101 118 119
f 118 120 119
f 119 120 121
f 119 121 89
f 117 1 122
f 122 1 123
f 123 1 89
f 123 89 124
f 124 89 125
f 125 89 121
f 84 80 104
f 84 104 126
f 126 104 106
f 126 106 127
f 127 106 128
f 127 128 112
f 127 112 129
f 129 112 110
f 129 110 130
f 130 110 108
f 130 108 115
f 115 108 114
f 116 131 115
f 115 131 132
f 115 132 130
f 130 132 133
f 130 133 129
f 129 133 134
f 129 134 127
f 127 134 119
f 127 119 126
f 126 119 89
f 126 89 84
f 101 119 134
f 101 134 102
f 102 134 133
f 102 133 132
f 102 132 103
f 103 132 131
f 135 136 137
f 137 136 138
f 138 136 139
f 140 141 142
f 142 141 143
f 142 143 137
f 137 143 135
f 141 140 144
f 144 140 145
f 103 146 147
f 103 147 99
f 146 148 147
f 147 148 145
f 145 148 144
f 149 150 113
f 113 150 114
f 150 149 151
f 151 149 152
f 151 152 153
f 153 152 154
f 154 152 155
f 154 155 156
f 156 157 154
f 156 158 157
f 157 158 159
f 159 158 160
f 159 160 139
f 139 160 161
f 159 139 136
f 159 136 162
f 136 135 162
f 162 135 143
f 162 143 163
f 163 143 141
f 163 141 164
f 164 141 144
f 164 144 165
f 165 144 148
f 165 148 166
f 166 148 146
f 166 146 103
f 166 103 131
f 131 116 167
f 131 167 166
f 166 167 168
f 166 168 165
f 165 168 169
f 165 169 164
f 164 169 163
f 163 169 170
f 163 170 162
f 162 170 157
f 162 157 159
f 154 157 153
f 153 157 170
f 153 170 151
f 151 170 169
f 151 169 150
f 150 169 168
f 150 168 167
f 150 167 114
f 114 167 116
f 171 156 172
f 172 156 155
f 173 171 172
f 172 174 173
f 173 174 175
f 173 175 176
f 176 175 177
f 176 177 178
f 179 160 158
f 161 160 179
f 180 181 182
f 156 171 158
f 158 171 183
f 183 171 173
f 183 173 176
f 183 176 180
f 180 176 178
f 180 178 181
f 182 184 180
f 180 184 179
f 180 179 183
f 183 179 158
f 161 179 185
f 185 179 184
f 185 184 182
f 185 182 186
f 187 188 186
f 189 178 190
f 186 182 187
f 187 182 181
f 187 181 189
f 189 181 178
f 186 188 191
f 138 139 161
f 191 185 186
f 161 191 138
f 161 185 191
f 192 48 193
f 193 48 51
f 48 192 49
f 192 194 49
f 49 194 46
f 46 194 195
f 196 40 195
f 195 40 46
f 197 35 43
f 41 198 199
f 41 199 43
f 43 199 197
f 198 41 196
f 196 41 40
f 197 200 35
f 35 200 36
f 201 202 203
f 201 203 204
f 204 203 205
f 206 201 207
f 207 201 204
f 207 204 208
f 208 204 205
f 208 205 209
f 203 210 205
f 205 210 209
f 28 206 25
f 25 206 207
f 25 207 17
f 17 207 208
f 17 208 18
f 18 208 209
f 201 206 211
f 33 212 31
f 31 212 211
f 31 211 30
f 30 211 28
f 28 211 206
f 202 213 214
f 214 213 215
f 214 215 216
f 216 215 217
f 202 201 213
f 213 201 211
f 213 211 215
f 215 211 212
f 215 212 217
f 217 212 218
f 212 33 218
f 218 33 38
f 218 38 219
f 220 221 222
f 220 223 221
f 221 223 224
f 221 224 225
f 197 222 200
f 200 222 219
f 200 219 36
f 36 219 38
f 225 224 217
f 217 224 216
f 217 218 225
f 225 218 219
f 225 219 221
f 221 219 222
f 223 220 226
f 226 220 227
f 226 227 228
f 226 228 229
f 229 228 230
f 196 230 228
f 196 228 198
f 198 228 227
f 198 227 199
f 199 227 220
f 199 220 197
f 197 220 222
f 196 195 230
f 230 195 231
f 230 231 229
f 229 231 232
f 233 234 235
f 235 234 232
f 235 232 236
f 236 232 231
f 192 235 236
f 192 236 194
f 194 236 231
f 194 231 195
f 234 237 238
f 51 239 193
f 193 239 237
f 193 237 233
f 233 237 234
f 192 193 235
f 235 193 233
f 240 241 242
f 239 53 242
f 242 53 243
f 242 243 240
f 51 53 239
f 7 244 8
f 8 244 245
f 8 245 246
f 8 246 247
f 247 246 248
f 248 246 249
f 248 249 250
f 250 249 251
f 251 249 252
f 251 252 253
f 253 252 254
f 254 241 255
f 255 241 240
f 238 237 256
f 257 258 259
f 237 239 256
f 256 239 242
f 256 242 260
f 260 242 241
f 260 241 252
f 252 241 254
f 261 249 246
f 261 246 262
f 262 246 257
f 257 246 245
f 257 245 258
f 258 245 244
f 244 7 263
f 244 263 258
f 264 265 263
f 264 263 7
f 259 266 267
f 267 266 265
f 259 258 266
f 266 258 263
f 266 263 265
f 9 264 7
f 264 9 268
f 268 9 12
f 12 269 268
f 270 271 272
f 272 271 267
f 272 267 265
f 269 270 272
f 269 272 268
f 268 272 265
f 268 265 264
f 273 271 270
f 269 274 270
f 270 274 275
f 270 275 273
f 269 12 274
f 274 12 15
f 274 15 22
f 274 22 276
f 16 18 20
f 18 277 20
f 20 277 22
f 22 277 276
f 209 210 278
f 209 278 279
f 279 278 273
f 279 273 275
f 18 209 277
f 277 209 279
f 277 279 276
f 276 279 275
f 276 275 274
f 280 281 282
f 283 280 282
f 283 282 284
f 285 286 284
f 285 284 282
f 287 288 285
f 285 288 286
f 289 290 291
f 291 290 292
f 292 290 293
f 292 293 287
f 287 293 288
f 191 188 291
f 291 188 289
f 294 280 295
f 188 187 296
f 188 296 289
f 289 296 297
f 289 297 290
f 290 297 298
f 290 298 293
f 293 298 299
f 293 299 288
f 288 299 300
f 288 300 286
f 286 300 284
f 284 300 295
f 284 295 283
f 283 295 280
f 189 190 301
f 301 190 302
f 301 302 303
f 303 302 304
f 303 304 305
f 305 304 306
f 305 306 307
f 307 306 308
f 308 306 309
f 308 309 310
f 311 294 310
f 310 294 295
f 310 295 308
f 308 295 300
f 308 300 307
f 307 300 299
f 307 299 305
f 305 299 298
f 305 298 303
f 303 298 297
f 303 297 296
f 303 296 301
f 301 296 187
f 301 187 189
f 178 177 190
f 190 177 312
f 190 312 302
f 302 312 304
f 304 312 313
f 304 313 306
f 314 306 313
f 306 314 309
f 315 316 317
f 69 68 318
f 69 318 319
f 317 316 318
f 318 316 319
f 315 317 320
f 321 322 320
f 320 322 315
f 323 324 321
f 321 324 322
f 325 326 323
f 326 324 323
f 327 326 328
f 328 326 325
f 329 281 330
f 330 281 331
f 332 281 333
f 281 332 334
f 281 334 331
f 280 333 281
f 309 314 335
f 335 314 336
f 335 336 337
f 338 339 340
f 340 339 341
f 340 341 342
f 342 341 343
f 344 345 346
f 346 345 338
f 345 339 338
f 347 348 349
f 326 327 350
f 326 350 351
f 351 352 348
f 348 352 353
f 348 353 349
f 349 353 354
f 354 355 349
f 349 355 356
f 349 356 357
f 358 280 294
f 345 347 339
f 339 347 359
f 339 359 360
f 339 360 341
f 341 360 361
f 341 361 343
f 343 361 362
f 362 361 363
f 362 363 337
f 337 363 335
f 335 363 311
f 335 311 309
f 309 311 310
f 347 349 359
f 359 349 364
f 359 364 360
f 360 364 365
f 360 365 361
f 361 365 366
f 361 366 363
f 363 366 358
f 363 358 311
f 311 358 294
f 280 358 333
f 333 358 366
f 333 366 365
f 333 365 332
f 332 365 364
f 332 364 349
f 332 349 334
f 334 349 357
f 351 348 326
f 326 348 367
f 326 367 324
f 324 367 368
f 324 368 322
f 322 368 369
f 322 369 315
f 315 369 370
f 315 370 316
f 316 370 371
f 316 371 319
f 372 373 374
f 372 374 375
f 375 374 371
f 375 371 376
f 376 371 370
f 376 370 377
f 377 370 369
f 377 369 378
f 378 369 368
f 378 368 379
f 379 368 367
f 379 367 348
f 379 348 347
f 319 371 374
f 319 374 69
f 69 374 373
f 347 345 379
f 379 345 380
f 379 380 381
f 379 381 378
f 378 381 382
f 378 382 377
f 377 382 376
f 376 382 383
f 376 383 375
f 375 383 372
f 372 383 384
f 82 385 386
f 82 386 81
f 386 387 81
f 81 387 70
f 388 372 384
f 384 389 388
f 388 389 390
f 388 390 391
f 373 372 388
f 373 388 392
f 392 388 391
f 392 391 385
f 385 67 392
f 392 67 69
f 392 69 373
f 390 387 391
f 391 387 386
f 391 386 385
f 67 385 82
f 67 82 66
f 384 393 389
f 389 393 394
f 387 390 395
f 395 390 394
f 394 390 389
f 395 396 387
f 396 71 387
f 387 71 70
f 344 380 345
f 380 344 381
f 381 344 397
f 381 397 382
f 382 397 398
f 382 398 383
f 383 398 393
f 383 393 384
f 234 238 399
f 155 400 401
f 111 234 402
f 403 226 106
f 404 394 393
f 405 396 395
f 71 396 406
f 73 71 406
f 407 105 408
f 106 226 128
f 128 226 229
f 128 229 112
f 112 229 232
f 112 232 111
f 111 232 234
f 107 109 402
f 155 152 400
f 400 152 149
f 155 401 172
f 172 401 409
f 172 409 174
f 174 409 410
f 174 410 175
f 175 410 177
f 177 410 411
f 312 177 411
f 412 313 312
f 412 312 411
f 336 314 412
f 336 413 337
f 337 413 267
f 337 267 362
f 273 343 271
f 271 343 362
f 343 273 342
f 414 340 342
f 344 346 415
f 344 415 397
f 398 416 393
f 224 223 403
f 216 224 417
f 342 278 414
f 414 278 210
f 414 210 418
f 342 273 278
f 267 271 362
f 419 257 259
f 249 261 420
f 249 420 252
f 252 420 260
f 399 238 256
f 105 79 408
f 408 79 76
f 408 76 406
f 406 76 73
f 106 105 407
f 421 407 408
f 421 408 422
f 422 408 406
f 422 406 405
f 405 406 396
f 403 106 407
f 403 407 421
f 423 421 422
f 423 422 424
f 424 422 405
f 424 405 425
f 425 405 395
f 425 395 394
f 426 418 210
f 426 210 203
f 394 404 425
f 425 404 427
f 425 427 424
f 424 427 428
f 424 428 423
f 421 423 403
f 403 223 226
f 393 416 404
f 404 416 429
f 404 429 427
f 427 429 430
f 427 430 428
f 423 428 417
f 423 417 403
f 403 417 224
f 214 216 430
f 214 430 431
f 338 340 414
f 338 414 415
f 415 414 418
f 415 418 426
f 202 426 203
f 346 338 415
f 432 415 426
f 432 426 431
f 431 426 202
f 431 202 214
f 216 417 428
f 216 428 430
f 431 430 429
f 431 429 432
f 432 429 416
f 432 416 415
f 415 416 397
f 397 416 398
f 433 419 434
f 434 419 413
f 434 413 336
f 402 435 107
f 107 435 113
f 149 113 435
f 149 435 400
f 436 437 438
f 436 438 439
f 439 438 440
f 439 440 441
f 441 440 442
f 441 442 443
f 443 442 433
f 433 434 412
f 412 434 336
f 435 437 436
f 435 436 400
f 400 436 439
f 400 439 401
f 401 439 441
f 401 441 409
f 409 441 443
f 409 443 410
f 410 443 433
f 410 433 411
f 411 433 412
f 412 314 313
f 402 234 399
f 399 256 437
f 437 256 260
f 437 260 438
f 438 260 420
f 438 420 440
f 440 420 261
f 440 261 442
f 442 261 262
f 442 262 444
f 444 262 257
f 444 257 419
f 259 267 413
f 259 413 419
f 444 419 433
f 444 433 442
f 437 435 399
f 399 435 402
f 402 109 111
f 445 446 447
f 447 446 448
f 449 450 451
f 451 450 452
f 453 454 452
f 452 454 451
f 455 456 457
f 457 456 453
f 453 456 454
f 458 459 455
f 455 459 460
f 455 460 456
f 461 462 463
f 461 463 464
f 461 464 458
f 458 464 459
f 446 445 465
f 465 445 462
f 462 445 463
f 466 467 468
f 468 467 448
f 448 467 447
f 469 470 471
f 469 471 466
f 466 471 467
f 472 473 470
f 472 470 469
f 474 475 472
f 472 475 473
f 476 477 478
f 478 477 479
f 478 479 474
f 474 479 475
f 476 480 481
f 476 481 477
f 482 483 484
f 482 484 485
f 482 485 486
f 486 485 487
f 487 488 489
f 489 488 490
f 490 491 492
f 492 491 493
f 493 494 495
f 496 482 486
f 486 487 497
f 497 487 489
f 489 490 498
f 498 490 492
f 492 493 499
f 499 493 495
f 496 486 497
f 497 489 498
f 498 492 499
f 499 495 500
f 500 495 501
f 501 495 494
f 501 502 503
f 504 505 506
f 507 508 509
f 505 508 506
f 506 508 507
f 510 501 503
f 501 510 500
f 500 510 511
f 509 508 503
f 507 509 512
f 513 514 515
f 516 504 517
f 518 519 514
f 518 514 520
f 520 514 521
f 521 514 513
f 513 515 522
f 522 515 516
f 523 516 517
f 524 518 520
f 521 513 525
f 525 513 522
f 522 516 526
f 526 516 523
f 523 517 527
f 507 527 506
f 506 527 517
f 506 517 504
f 528 505 529
f 530 511 531
f 510 503 508
f 530 531 528
f 528 531 505
f 511 510 531
f 531 510 508
f 531 508 505
f 532 519 518
f 532 533 534
f 532 534 519
f 532 535 533
f 533 535 536
f 537 504 516
f 537 516 538
f 538 516 515
f 538 515 539
f 539 515 540
f 540 515 514
f 540 514 541
f 541 514 519
f 541 519 542
f 542 519 534
f 542 543 541
f 541 544 540
f 540 544 545
f 540 545 546
f 540 546 539
f 539 546 547
f 539 547 538
f 537 529 504
f 504 529 505
f 548 549 496
f 548 496 550
f 550 496 497
f 550 497 551
f 551 497 552
f 552 497 498
f 552 498 553
f 553 498 499
f 553 499 554
f 554 499 500
f 554 500 511
f 511 530 555
f 511 555 554
f 554 555 556
f 554 556 557
f 554 557 553
f 553 557 558
f 553 558 552
f 550 559 548
f 560 561 562
f 496 549 562
f 562 561 482
f 562 482 496
f 483 482 561
f 483 561 563
f 564 565 561
f 561 565 563
f 564 561 560
f 566 567 568
f 569 570 566
f 571 572 573
f 574 573 575
f 575 576 577
f 578 572 571
f 571 573 579
f 579 573 574
f 574 575 580
f 580 575 577
f 581 578 571
f 581 571 582
f 582 571 579
f 579 574 583
f 583 574 580
f 583 580 584
f 584 580 577
f 584 577 585
f 585 577 576
f 585 576 586
f 576 570 587
f 587 570 569
f 566 568 569
f 569 568 588
f 569 588 587
f 587 588 586
f 587 586 576
f 589 590 591
f 589 591 592
f 592 591 593
f 593 591 594
f 593 594 595
f 595 594 596
f 595 596 597
f 597 596 598
f 597 598 599
f 599 598 600
f 599 600 601
f 601 600 602
f 602 600 603
f 602 603 604
f 604 603 605
f 603 606 605
f 605 606 607
f 605 607 608
f 606 603 600
f 600 598 596
f 596 594 590
f 590 594 591
f 593 609 592
f 595 609 593
f 595 610 609
f 610 597 611
f 611 597 599
f 612 613 601
f 601 613 599
f 599 613 611
f 614 615 616
f 615 614 617
f 617 614 618
f 608 618 605
f 605 618 614
f 605 614 616
f 605 616 604
f 604 616 612
f 604 612 602
f 602 612 601
f 595 597 610
f 619 592 609
f 592 619 589
f 589 567 566
f 589 566 570
f 589 570 590
f 620 621 622
f 622 621 623
f 624 625 620
f 620 625 621
f 624 626 627
f 627 626 584
f 585 628 629
f 585 629 584
f 584 629 627
f 588 630 586
f 586 630 628
f 568 630 588
f 630 568 631
f 568 567 631
f 586 628 585
f 584 626 583
f 583 626 624
f 583 624 579
f 579 624 620
f 579 620 582
f 582 620 581
f 581 620 622
f 563 632 633
f 581 622 634
f 581 634 635
f 635 634 564
f 483 563 633
f 622 623 634
f 634 623 564
f 564 623 636
f 564 636 565
f 565 636 632
f 565 632 563
f 633 484 483
f 484 633 637
f 484 637 485
f 488 638 490
f 490 638 639
f 490 639 640
f 490 640 491
f 491 640 493
f 493 640 641
f 493 641 642
f 493 642 494
f 494 642 501
f 640 643 641
f 641 644 642
f 638 645 639
f 639 645 640
f 640 645 643
f 485 637 646
f 485 646 487
f 487 646 638
f 487 638 488
f 638 647 645
f 647 638 646
f 647 646 648
f 648 646 637
f 648 637 649
f 649 637 650
f 650 637 633
f 650 633 632
f 501 642 644
f 501 644 502
f 502 644 651
f 652 512 509
f 502 651 653
f 652 509 653
f 653 509 503
f 653 503 502
f 512 652 654
f 512 654 507
f 655 507 654
f 507 655 527
f 527 655 656
f 527 656 523
f 523 656 657
f 523 657 526
f 526 657 658
f 526 658 522
f 522 658 659
f 522 659 525
f 660 524 520
f 661 662 660
f 660 662 663
f 660 663 524
f 524 663 518
f 655 654 656
f 656 664 657
f 657 664 665
f 657 665 658
f 658 665 666
f 658 666 659
f 659 666 667
f 659 667 668
f 667 669 668
f 668 669 660
f 525 659 668
f 525 668 521
f 521 668 520
f 520 668 660
f 660 669 661
f 670 528 529
f 671 672 670
f 670 672 673
f 670 673 528
f 528 673 530
f 674 675 676
f 674 676 677
f 677 676 607
f 608 607 676
f 678 608 676
f 678 676 675
f 678 675 536
f 675 533 536
f 534 533 679
f 534 679 680
f 680 679 681
f 542 534 543
f 543 534 680
f 543 682 541
f 544 683 545
f 546 545 684
f 685 538 686
f 686 538 547
f 685 537 538
f 687 686 688
f 688 686 547
f 688 547 546
f 671 670 689
f 689 670 529
f 545 683 684
f 684 683 690
f 684 690 691
f 692 671 689
f 692 689 693
f 693 689 685
f 693 685 694
f 541 682 695
f 695 682 696
f 695 696 697
f 695 697 698
f 698 690 683
f 698 683 695
f 695 683 544
f 695 544 541
f 546 684 688
f 688 684 691
f 688 691 687
f 687 694 686
f 686 694 685
f 685 689 537
f 537 689 529
f 530 673 555
f 556 699 557
f 558 557 700
f 701 551 702
f 702 551 552
f 701 550 551
f 559 703 548
f 555 673 704
f 705 702 706
f 706 702 552
f 706 552 558
f 557 699 700
f 700 699 707
f 700 707 708
f 709 703 710
f 710 703 701
f 710 701 711
f 548 703 712
f 712 703 709
f 712 709 713
f 704 673 672
f 704 672 714
f 714 707 699
f 714 699 704
f 704 699 556
f 704 556 555
f 558 700 706
f 706 700 708
f 706 708 705
f 705 711 702
f 702 711 701
f 701 703 550
f 550 703 559
f 548 715 549
f 716 560 562
f 716 562 549
f 717 716 549
f 717 549 715
f 564 560 718
f 719 572 578
f 718 720 719
f 719 720 721
f 635 719 578
f 635 578 581
f 721 572 719
f 718 719 635
f 718 635 564
f 607 606 722
f 722 606 723
f 723 606 724
f 724 606 600
f 724 600 725
f 725 600 596
f 725 596 726
f 726 596 590
f 726 590 727
f 727 590 728
f 728 590 729
f 729 590 570
f 729 570 730
f 730 570 731
f 570 576 731
f 731 576 732
f 732 576 575
f 732 575 733
f 733 575 573
f 733 573 734
f 734 573 572
f 734 572 735
f 677 607 722
f 735 572 721
f 728 729 736
f 736 729 737
f 728 736 738
f 728 738 727
f 727 739 726
f 726 739 740
f 726 740 725
f 723 741 722
f 734 742 733
f 733 742 743
f 733 743 732
f 732 744 731
f 677 745 674
f 681 679 674
f 679 533 675
f 679 675 674
f 681 674 745
f 682 543 680
f 682 680 681
f 681 746 682
f 682 746 747
f 682 747 696
f 696 747 697
f 697 747 450
f 717 715 748
f 548 712 715
f 715 712 748
f 748 712 749
f 749 712 713
f 749 713 750
f 750 713 480
f 560 716 720
f 560 720 718
f 716 717 751
f 716 751 720
f 721 720 751
f 752 753 672
f 672 753 714
f 714 753 707
f 707 753 754
f 707 754 708
f 708 754 755
f 708 755 705
f 705 755 756
f 705 756 711
f 711 756 757
f 711 757 710
f 710 757 758
f 710 758 759
f 710 759 709
f 709 759 760
f 709 760 713
f 752 672 761
f 761 672 671
f 762 763 697
f 697 763 698
f 698 763 690
f 690 763 764
f 690 764 691
f 691 764 765
f 691 765 687
f 687 765 766
f 687 766 694
f 694 766 767
f 694 767 693
f 693 767 768
f 693 768 769
f 693 769 692
f 692 769 761
f 692 761 671
f 760 480 713
f 481 480 760
f 762 450 449
f 762 697 450
f 681 745 746
f 746 745 677
f 450 747 770
f 770 747 746
f 770 746 677
f 770 677 722
f 736 446 738
f 738 465 727
f 727 465 461
f 727 461 739
f 739 461 771
f 725 740 772
f 772 740 771
f 771 740 739
f 725 772 773
f 725 773 724
f 724 773 774
f 724 774 723
f 775 723 774
f 722 741 775
f 775 741 723
f 722 775 770
f 770 775 450
f 453 452 774
f 774 452 775
f 775 452 450
f 773 457 774
f 774 457 453
f 772 455 773
f 773 455 457
f 771 458 772
f 772 458 455
f 462 461 465
f 771 461 458
f 738 446 465
f 748 751 717
f 776 735 721
f 777 776 721
f 777 721 751
f 751 748 777
f 777 748 749
f 777 749 776
f 776 749 750
f 776 750 480
f 742 734 778
f 778 734 735
f 778 735 776
f 779 743 780
f 780 743 742
f 781 732 779
f 779 732 743
f 469 744 781
f 781 744 732
f 730 731 469
f 469 731 744
f 468 448 737
f 737 729 468
f 468 729 466
f 466 729 730
f 730 469 466
f 781 472 469
f 472 781 779
f 472 779 474
f 780 478 779
f 779 478 474
f 742 778 780
f 780 778 476
f 780 476 478
f 776 480 476
f 776 476 778
f 446 736 448
f 448 736 737
f 663 532 518
f 535 532 663
f 535 782 783
f 535 783 536
f 536 618 678
f 678 618 608
f 663 662 782
f 663 782 535
f 536 783 618
f 618 783 617
f 784 783 782
f 784 782 662
f 785 617 783
f 785 783 784
f 786 617 785
f 787 615 786
f 786 615 617
f 788 616 787
f 787 616 615
f 789 612 788
f 788 612 616
f 790 613 789
f 789 613 612
f 791 611 790
f 790 611 613
f 792 610 793
f 793 610 791
f 791 610 611
f 794 609 792
f 792 609 610
f 619 794 795
f 619 609 794
f 619 795 589
f 631 567 796
f 796 567 795
f 795 567 589
f 631 796 797
f 798 631 797
f 799 630 797
f 797 630 798
f 800 628 799
f 799 628 630
f 628 800 801
f 628 801 629
f 629 801 802
f 629 802 627
f 627 802 803
f 627 803 624
f 624 803 804
f 624 804 805
f 624 805 625
f 625 805 806
f 625 806 621
f 807 623 621
f 807 621 806
f 808 636 623
f 808 623 807
f 632 636 808
f 632 808 809
f 650 632 809
f 810 647 811
f 811 647 648
f 811 648 812
f 812 648 813
f 813 648 649
f 813 649 809
f 809 649 650
f 814 815 645
f 645 647 814
f 814 647 810
f 816 643 815
f 815 643 645
f 817 644 818
f 818 644 641
f 818 641 816
f 816 641 643
f 651 644 817
f 652 819 654
f 817 653 651
f 819 652 653
f 819 653 817
f 820 821 665
f 665 664 820
f 820 664 822
f 822 664 656
f 822 656 819
f 819 656 654
f 823 666 824
f 824 666 821
f 821 666 665
f 666 823 667
f 667 823 825
f 667 825 826
f 667 826 669
f 669 826 827
f 828 784 662
f 669 827 828
f 669 828 661
f 661 828 662
f 829 830 785
f 829 785 784
f 786 785 830
f 786 830 787
f 787 830 831
f 787 831 788
f 788 831 789
f 789 831 832
f 789 832 790
f 790 832 791
f 791 832 833
f 791 833 793
f 792 793 794
f 794 793 834
f 794 834 795
f 793 833 834
f 834 835 795
f 795 835 796
f 836 807 806
f 836 806 837
f 837 806 805
f 837 805 804
f 837 804 838
f 838 804 803
f 838 803 802
f 838 802 839
f 839 802 801
f 839 801 800
f 839 800 840
f 840 800 799
f 840 799 797
f 840 797 835
f 835 797 796
f 836 841 808
f 836 808 807
f 842 817 818
f 842 818 843
f 843 818 816
f 843 816 815
f 843 815 844
f 844 815 814
f 844 814 810
f 844 810 845
f 845 810 811
f 845 811 812
f 845 812 841
f 841 812 813
f 841 813 809
f 841 809 808
f 842 846 817
f 817 846 819
f 829 784 828
f 829 828 847
f 847 828 827
f 847 827 826
f 847 826 848
f 848 826 825
f 848 825 849
f 849 825 823
f 849 823 824
f 849 824 850
f 850 824 821
f 850 821 820
f 850 820 846
f 846 820 822
f 846 822 819
f 851 852 853
f 854 855 856
f 853 857 851
f 851 857 858
f 857 853 855
f 855 853 859
f 855 859 856
f 860 853 852
f 846 842 841
f 835 834 829
f 847 848 846
f 834 833 830
f 841 842 843
f 838 836 837
f 838 839 836
f 836 839 840
f 829 834 830
f 846 848 849
f 849 850 846
f 845 841 844
f 844 841 843
f 836 840 835
f 836 835 841
f 841 835 829
f 841 829 846
f 846 829 847
f 830 833 832
f 832 831 830
f 861 862 863
f 864 855 865
f 864 865 866
f 866 865 867
f 866 867 868
f 868 867 869
f 868 869 870
f 870 869 871
f 855 854 865
f 867 865 872
f 867 872 869
f 869 872 873
f 869 873 871
f 871 873 874
f 865 854 875
f 865 875 872
f 873 872 876
f 873 876 874
f 874 876 877
f 875 854 878
f 875 878 872
f 872 878 879
f 872 879 876
f 876 879 880
f 876 880 877
f 877 880 881
f 763 762 882
f 882 762 883
f 882 883 863
f 863 883 861
f 884 855 864
f 884 864 862
f 862 864 866
f 862 866 863
f 863 866 885
f 863 885 882
f 882 885 886
f 882 886 763
f 763 886 764
f 765 764 870
f 870 764 886
f 870 886 868
f 868 886 885
f 868 885 866
f 881 769 768
f 881 768 877
f 877 768 767
f 877 767 874
f 874 767 871
f 871 767 766
f 871 766 870
f 870 766 765
f 761 769 887
f 887 769 881
f 887 881 880
f 854 856 878
f 878 856 888
f 878 888 879
f 879 888 889
f 879 889 890
f 879 890 880
f 880 890 887
f 887 890 891
f 887 891 761
f 761 891 752
f 762 449 892
f 857 855 884
f 857 884 893
f 893 884 862
f 893 862 894
f 862 861 894
f 894 861 892
f 892 861 883
f 892 883 762
f 895 896 897
f 898 856 859
f 898 859 899
f 899 859 900
f 888 856 901
f 888 901 889
f 902 898 899
f 902 899 903
f 903 899 900
f 903 900 904
f 905 890 889
f 896 902 897
f 897 902 903
f 897 903 906
f 906 903 907
f 907 903 904
f 907 904 908
f 909 891 905
f 905 891 890
f 895 897 910
f 910 897 906
f 910 906 911
f 911 906 907
f 911 907 912
f 912 907 908
f 912 908 913
f 913 908 914
f 753 752 909
f 909 752 891
f 889 901 915
f 889 915 905
f 905 915 916
f 905 916 909
f 909 916 917
f 909 917 753
f 753 917 754
f 901 856 898
f 901 898 915
f 915 898 902
f 915 902 916
f 916 902 896
f 916 896 917
f 917 896 895
f 917 895 754
f 754 895 755
f 755 895 756
f 756 895 910
f 756 910 757
f 757 910 911
f 757 911 912
f 757 912 758
f 758 912 913
f 758 913 759
f 759 913 914
f 759 914 760
f 900 859 918
f 918 859 853
f 900 918 904
f 904 918 919
f 904 919 908
f 908 919 920
f 908 920 914
f 914 920 481
f 914 481 760
f 893 921 857
f 857 921 922
f 922 921 893
f 449 451 892
f 892 451 923
f 923 451 454
f 923 454 924
f 924 454 456
f 924 456 925
f 925 456 460
f 925 460 926
f 926 460 459
f 926 459 927
f 927 459 464
f 927 464 928
f 928 464 463
f 928 463 929
f 929 463 930
f 930 463 445
f 894 892 923
f 894 923 931
f 931 923 924
f 931 924 932
f 932 924 925
f 932 925 926
f 932 926 933
f 933 926 927
f 933 927 928
f 933 928 934
f 934 928 929
f 934 929 930
f 934 930 935
f 893 894 922
f 922 894 931
f 922 931 932
f 922 932 936
f 936 932 933
f 936 933 937
f 937 933 934
f 937 934 938
f 938 934 935
f 938 935 939
f 857 922 858
f 858 922 936
f 858 936 937
f 858 937 851
f 851 937 938
f 851 938 939
f 919 940 920
f 918 941 919
f 852 851 939
f 852 939 942
f 942 939 935
f 942 935 943
f 943 935 930
f 943 930 944
f 944 930 445
f 944 445 447
f 447 467 945
f 467 471 946
f 473 475 947
f 918 853 948
f 919 941 948
f 948 941 918
f 940 919 949
f 940 949 920
f 949 481 920
f 477 481 950
f 950 481 949
f 950 949 951
f 951 949 919
f 951 919 952
f 952 919 948
f 952 948 853
f 479 477 953
f 953 477 950
f 953 950 951
f 475 479 947
f 947 479 953
f 947 953 954
f 954 953 951
f 954 951 955
f 955 951 952
f 955 952 860
f 860 952 853
f 956 473 947
f 956 947 954
f 470 473 957
f 957 473 956
f 957 956 958
f 958 956 954
f 958 954 959
f 959 954 955
f 959 955 860
f 471 470 946
f 946 470 957
f 946 957 958
f 945 467 946
f 945 946 960
f 960 946 958
f 960 958 942
f 942 958 959
f 942 959 852
f 852 959 860
f 944 447 945
f 944 945 943
f 943 945 960
f 943 960 942

