# https://github.com/mikedh/trimesh
v 0.11440885 0.03798881 0.00734169
v 0.11440885 0.03924221 0.00533846
v 0.11438439 0.03798881 0.00740419
v 0.11440885 0.03798881 -0.00435341
v 0.11262494 0.04052678 0.00533846
v 0.11121331 0.04115894 0.00657148
v 0.11380017 0.03908397 0.00691774
v 0.11431374 0.03798881 0.00757985
v 0.11440885 0.03982058 0.00313422
v 0.11329748 0.04101084 0.00164953
v 0.11304341 0.04082688 0.00304808
v 0.11432190 0.03798881 -0.00441591
v 0.11311677 0.03993282 -0.00480439
v 0.11440885 0.04001155 -0.00384331
v 0.11147960 0.04133744 0.00533846
v 0.10995656 0.04130548 0.00665086
v 0.11208420 0.03988138 0.00704610
v 0.10995656 0.04257370 0.00304808
v 0.10687651 0.04350439 0.00444494
v 0.10537928 0.04376084 0.00463581
v 0.11222143 0.03798881 0.00780788
v 0.11440885 0.04043403 0.00079486
v 0.11357600 0.04120961 0.00012262
v 0.11294422 0.03798881 -0.00492601
v 0.11197144 0.03993282 -0.00527902
v 0.10653413 0.04337656 -0.00725523
v 0.11168205 0.04163286 -0.00517430
v 0.11440885 0.04017680 -0.00373183
v 0.11387626 0.04140603 -0.00152929
v 0.11189807 0.04158765 0.00304808
v 0.10843895 0.04130081 0.00661877
v 0.10981526 0.04298214 0.00077122
v 0.10840499 0.04320819 0.00304808
v 0.11224588 0.04227048 -0.00152929
v 0.11038318 0.04308737 -0.00152929
v 0.10726237 0.04365405 0.00304808
v 0.10537928 0.04435246 0.00304808
v 0.10308860 0.04470323 0.00304808
v 0.10308860 0.04378189 0.00449561
v 0.10995656 0.03798881 0.00726906
v 0.11440885 0.04102643 -0.00152929
v 0.11197144 0.03798881 -0.00528071
v 0.10653820 0.04222137 -0.00725861
v 0.10537928 0.04222137 -0.00768088
v 0.10053027 0.04222137 -0.00944595
v 0.10053027 0.04309439 -0.00941048
v 0.10053027 0.04487315 -0.00911490
v 0.10537928 0.04383879 -0.00746637
v 0.10231825 0.04571499 -0.00738698
v 0.10940088 0.04363924 -0.00533814
v 0.11385316 0.04138343 -0.00329099
v 0.11440885 0.04034907 -0.00361191
v 0.11440885 0.04100616 -0.00245321
v 0.11071605 0.04311153 -0.00381798
v 0.10825553 0.03993282 0.00668633
v 0.10176393 0.04353245 0.00425914
v 0.10957207 0.04369458 -0.00381798
v 0.10766724 0.04446860 -0.00381798
v 0.10895796 0.04342333 0.00001620
v 0.10537928 0.04468920 0.00075939
v 0.10308860 0.04529251 0.00075939
v 0.10120280 0.04556377 0.00075939
v 0.10053027 0.04564717 0.00075939
v 0.10053027 0.04483184 0.00270689
v 0.10831532 0.03798881 0.00668633
v 0.10653957 0.03798881 -0.00725861
v 0.10537928 0.03798881 -0.00768088
v 0.10093243 0.03798881 -0.00929900
v 0.10053027 0.03798881 -0.00944426
v 0.10053027 0.04583659 -0.00801193
v 0.10053027 0.04585608 -0.00770621
v 0.10053027 0.04595117 -0.00610835
v 0.10079928 0.04592233 -0.00610835
v 0.10237395 0.04571811 -0.00610835
v 0.10351929 0.04549673 -0.00610835
v 0.10308860 0.04222137 0.00480302
v 0.10167833 0.04222137 0.00429123
v 0.10053435 0.04222137 0.00379127
v 0.10053027 0.04455045 0.00292140
v 0.10537928 0.04515454 -0.00381798
v 0.10537928 0.04493863 -0.00152929
v 0.10308860 0.04543126 -0.00152929
v 0.10297991 0.04554584 -0.00371833
v 0.10186582 0.04564640 -0.00288899
v 0.10053027 0.04576098 -0.00176914
v 0.10177071 0.04095861 0.00425914
v 0.10420677 0.03876750 0.00421354
v 0.10622843 0.03798881 0.00500402
v 0.10053027 0.03798881 -0.00128438
v 0.10053027 0.04594260 -0.00583810
v 0.10053027 0.04583035 -0.00331801
v 0.10098135 0.04579294 -0.00371833
v 0.10214298 0.04568069 -0.00441591
v 0.10053027 0.04221825 0.00378789
v 0.10053027 0.04061253 0.00296532
f 1 2 3
f 1 3 8
f 1 8 21
f 1 21 40
f 1 40 65
f 1 65 88
f 1 88 89
f 1 89 69
f 1 69 68
f 1 68 67
f 1 67 66
f 1 66 42
f 1 42 24
f 1 24 12
f 1 12 4
f 1 4 14
f 1 14 28
f 1 28 52
f 1 52 53
f 1 53 41
f 1 41 22
f 1 22 9
f 1 9 2
f 2 5 6
f 2 6 7
f 2 7 8
f 2 8 3
f 2 9 10
f 2 10 11
f 2 11 5
f 4 12 13
f 4 13 14
f 5 15 6
f 5 11 15
f 6 16 17
f 6 17 8
f 6 8 7
f 6 15 18
f 6 18 19
f 6 19 20
f 6 20 16
f 8 17 21
f 9 22 10
f 10 22 23
f 10 23 15
f 10 15 11
f 12 24 25
f 12 25 13
f 13 25 26
f 13 26 27
f 13 27 14
f 14 27 28
f 15 23 29
f 15 29 30
f 15 30 18
f 16 20 31
f 16 31 21
f 16 21 17
f 18 32 33
f 18 33 19
f 18 30 34
f 18 34 35
f 18 35 32
f 19 33 36
f 19 36 37
f 19 37 20
f 20 37 38
f 20 38 39
f 20 39 31
f 21 31 40
f 22 41 23
f 23 41 29
f 24 42 43
f 24 43 25
f 25 43 26
f 26 43 44
f 26 44 45
f 26 45 46
f 26 46 47
f 26 47 48
f 26 48 49
f 26 49 50
f 26 50 27
f 27 50 51
f 27 51 52
f 27 52 28
f 29 41 53
f 29 53 51
f 29 51 54
f 29 54 34
f 29 34 30
f 31 55 40
f 31 39 56
f 31 56 55
f 32 36 33
f 32 35 36
f 34 54 57
f 34 57 35
f 35 57 58
f 35 58 59
f 35 59 36
f 36 60 37
f 36 59 58
f 36 58 60
f 37 60 61
f 37 61 38
f 38 61 62
f 38 62 63
f 38 63 64
f 38 64 39
f 39 64 56
f 40 55 65
f 42 66 44
f 42 44 43
f 44 66 45
f 45 67 68
f 45 68 69
f 45 69 89
f 45 89 95
f 45 95 94
f 45 94 79
f 45 79 64
f 45 64 63
f 45 63 85
f 45 85 91
f 45 91 90
f 45 90 72
f 45 72 71
f 45 71 70
f 45 70 47
f 45 47 46
f 45 66 67
f 47 70 49
f 47 49 48
f 49 70 71
f 49 71 72
f 49 72 73
f 49 73 74
f 49 74 75
f 49 75 58
f 49 58 50
f 50 58 57
f 50 57 54
f 50 54 51
f 51 53 52
f 55 56 76
f 55 76 77
f 55 77 65
f 56 78 77
f 56 77 76
f 56 64 79
f 56 79 78
f 58 75 80
f 58 80 81
f 58 81 60
f 60 81 61
f 61 81 80
f 61 80 82
f 61 82 62
f 62 82 83
f 62 83 63
f 63 83 84
f 63 84 85
f 65 77 86
f 65 86 87
f 65 87 88
f 72 90 73
f 73 90 91
f 73 91 85
f 73 85 92
f 73 92 93
f 73 93 83
f 73 83 74
f 74 83 80
f 74 80 75
f 77 78 86
f 78 79 94
f 78 94 86
f 80 83 82
f 83 93 84
f 84 93 92
f 84 92 85
f 86 94 95
f 86 95 87
f 87 95 89
f 87 89 88

