# https://github.com/mikedh/trimesh
v 0.01146132 0.02453463 -0.03431363
v 0.01146132 0.02453463 -0.03919061
v -0.01027699 0.02453463 -0.03431363
v 0.01146132 0.01340288 -0.03431363
v 0.01146132 0.01340288 -0.03919061
v -0.02017765 0.02453463 -0.03919061
v -0.01141416 0.02380022 -0.03431363
v -0.01956211 0.02453463 -0.03873652
v -0.02406557 0.02058360 -0.03692019
v -0.01988205 0.01340288 -0.03431363
v -0.02147130 0.01340288 -0.03919061
v -0.02298752 0.02143788 -0.03919061
v -0.02406557 0.02058360 -0.03741868
v -0.01984032 0.02453463 -0.03890030
v -0.01846320 0.01908099 -0.03431363
v -0.02406557 0.02003987 -0.03692019
v -0.02042803 0.01481941 -0.03431363
v -0.02034805 0.01711310 -0.03431363
v -0.01937780 0.01812974 -0.03431363
v -0.02297014 0.01544269 -0.03919061
v -0.02263629 0.01479871 -0.03919061
v -0.02378737 0.01931962 -0.03919061
v -0.02406557 0.02003987 -0.03741868
v -0.02367956 0.01780284 -0.03919061
v -0.02348829 0.01703792 -0.03919061
f 1 2 6
f 1 6 14
f 1 14 8
f 1 8 3
f 1 3 7
f 1 7 15
f 1 15 19
f 1 19 18
f 1 18 17
f 1 17 10
f 1 10 4
f 1 4 5
f 1 5 2
f 2 5 11
f 2 11 21
f 2 21 20
f 2 20 25
f 2 25 24
f 2 24 22
f 2 22 12
f 2 12 6
f 3 8 9
f 3 9 7
f 4 10 11
f 4 11 5
f 6 12 13
f 6 13 9
f 6 9 14
f 7 9 15
f 8 14 9
f 9 13 23
f 9 23 16
f 9 16 17
f 9 17 18
f 9 18 19
f 9 19 15
f 10 17 16
f 10 16 20
f 10 20 21
f 10 21 11
f 12 22 13
f 13 22 23
f 16 23 24
f 16 24 25
f 16 25 20
f 22 24 23

