# https://github.com/mikedh/trimesh
v -0.05939892 -0.02868754 -0.05449208
v -0.05946411 -0.02875209 -0.05451262
v -0.05939892 -0.02875209 -0.05450142
v -0.05939892 -0.02645408 -0.05470496
v -0.06112088 -0.02700998 -0.05514752
v -0.06136096 -0.02875209 -0.05506909
v -0.06109862 -0.03008625 -0.05516619
v -0.05939892 -0.03014274 -0.05497386
v -0.05985684 -0.02645408 -0.05485995
v -0.05939892 -0.02645408 -0.06765313
v -0.06633286 -0.02875209 -0.05686361
v -0.06773841 -0.02747352 -0.05751531
v -0.07453403 -0.03104025 -0.05984203
v -0.07447043 -0.03225785 -0.05986630
v -0.05946411 -0.03018309 -0.05500000
v -0.07320003 -0.03244345 -0.05966463
v -0.05940050 -0.03561297 -0.05965529
v -0.05939892 -0.03018040 -0.05500000
v -0.07212042 -0.02758650 -0.05988124
v -0.06633286 -0.02718302 -0.05724641
v -0.07564067 -0.02645408 -0.06544967
v -0.05939892 -0.03561297 -0.06765313
v -0.05947206 -0.02645408 -0.06768114
v -0.06791172 -0.02875209 -0.05745556
v -0.07447043 -0.02976885 -0.05986630
v -0.07564067 -0.03104025 -0.06024911
v -0.07564067 -0.03289982 -0.06104833
v -0.05939892 -0.03451014 -0.05956939
v -0.07564067 -0.03561297 -0.06515649
v -0.05939892 -0.03561297 -0.06761018
v -0.07564067 -0.02917171 -0.06105020
v -0.07564067 -0.02645408 -0.07356515
v -0.05947047 -0.03561297 -0.06767928
v -0.05946411 -0.03333020 -0.06767741
v -0.06309405 -0.03561297 -0.06899949
v -0.07564067 -0.03561297 -0.07356701
v -0.07564067 -0.03333020 -0.07356701
v -0.07510325 -0.02646215 -0.07337094
v -0.07320639 -0.02645408 -0.07268003
v -0.07564067 -0.03100259 -0.06025097
f 1 2 3
f 1 3 8
f 1 8 18
f 1 18 28
f 1 28 30
f 1 30 22
f 1 22 10
f 1 10 4
f 1 4 5
f 1 5 6
f 1 6 2
f 2 6 7
f 2 7 3
f 3 7 8
f 4 9 5
f 4 10 23
f 4 23 39
f 4 39 32
f 4 32 21
f 4 21 9
f 5 11 6
f 5 9 12
f 5 12 11
f 6 11 13
f 6 13 14
f 6 14 7
f 7 15 8
f 7 14 16
f 7 16 17
f 7 17 15
f 8 15 18
f 9 19 20
f 9 20 12
f 9 21 19
f 10 22 23
f 11 12 24
f 11 24 25
f 11 25 26
f 11 26 13
f 12 20 19
f 12 19 25
f 12 25 24
f 13 26 14
f 14 26 27
f 14 27 16
f 15 17 18
f 16 27 17
f 17 28 18
f 17 27 29
f 17 29 36
f 17 36 35
f 17 35 33
f 17 33 22
f 17 22 30
f 17 30 28
f 19 31 25
f 19 21 31
f 21 32 37
f 21 37 36
f 21 36 29
f 21 29 27
f 21 27 26
f 21 26 40
f 21 40 31
f 22 33 34
f 22 34 23
f 23 34 35
f 23 35 36
f 23 36 37
f 23 37 38
f 23 38 39
f 25 31 40
f 25 40 26
f 32 39 38
f 32 38 37
f 33 35 34

