# https://github.com/mikedh/trimesh
v -0.04797581 0.01278625 -0.00569037
v -0.04811102 0.01278625 -0.00569037
v -0.04293811 0.01075538 -0.00569037
v -0.04772919 0.01278625 -0.00587282
v -0.04811102 0.01278625 -0.01422338
v -0.04811102 -0.01295174 -0.00569037
v -0.04293811 0.01278625 -0.00994700
v -0.04293811 -0.01078818 -0.00569037
v -0.04465177 0.01278625 -0.01645570
v -0.04763956 -0.01487701 -0.01452784
v -0.04811102 -0.01487701 -0.01422338
v -0.04811102 -0.01487701 -0.00666186
v -0.04810139 -0.01487701 -0.00638877
v -0.04293811 0.01278625 -0.01755966
v -0.04293811 -0.01487701 -0.01019220
v -0.04300951 0.01278625 -0.01751434
v -0.04293811 0.00787965 -0.01756082
v -0.04465177 -0.01487701 -0.01645570
v -0.04293811 -0.01487701 -0.01755966
v -0.04296849 -0.01487701 -0.01754106
f 1 2 6
f 1 6 8
f 1 8 3
f 1 3 4
f 1 4 7
f 1 7 14
f 1 14 16
f 1 16 9
f 1 9 5
f 1 5 2
f 2 5 11
f 2 11 12
f 2 12 6
f 3 7 4
f 3 8 15
f 3 15 19
f 3 19 17
f 3 17 14
f 3 14 7
f 5 9 10
f 5 10 11
f 6 12 13
f 6 13 8
f 8 13 15
f 9 16 17
f 9 17 18
f 9 18 10
f 10 18 20
f 10 20 19
f 10 19 15
f 10 15 13
f 10 13 12
f 10 12 11
f 14 17 16
f 17 19 20
f 17 20 18

