# https://github.com/mikedh/trimesh
v -0.09018635 -0.02417269 -0.07886064
v -0.08971512 -0.02703401 -0.07868852
v -0.09018635 -0.02703401 -0.07885931
v -0.09018635 -0.02209464 -0.07886064
v -0.08826157 -0.02417269 -0.07816016
v -0.08464689 -0.02703401 -0.07684459
v -0.09018635 -0.02703401 -0.07058297
v -0.09018635 -0.02209464 -0.07085915
v -0.08826157 -0.02209464 -0.07816016
v -0.08464689 -0.02209464 -0.07684459
v -0.07614337 -0.02209464 -0.07374914
v -0.07596399 -0.02703401 -0.07368376
v -0.07842550 -0.02703401 -0.06603585
v -0.07570204 -0.02209464 -0.06558754
v -0.07564225 -0.02209464 -0.07356634
v -0.07564225 -0.02703401 -0.07356634
v -0.07626296 -0.02703401 -0.06533937
v -0.07564225 -0.02209464 -0.06556619
v -0.07564225 -0.02703401 -0.06522996
f 1 2 3
f 1 3 7
f 1 7 8
f 1 8 4
f 1 4 9
f 1 9 5
f 1 5 6
f 1 6 2
f 2 6 12
f 2 12 16
f 2 16 19
f 2 19 17
f 2 17 13
f 2 13 7
f 2 7 3
f 4 8 14
f 4 14 18
f 4 18 15
f 4 15 11
f 4 11 10
f 4 10 9
f 5 9 10
f 5 10 6
f 6 10 11
f 6 11 12
f 7 13 8
f 8 13 14
f 11 15 12
f 12 15 16
f 13 17 18
f 13 18 14
f 15 18 19
f 15 19 16
f 17 19 18

