# https://github.com/mikedh/trimesh
v 0.05884973 0.01830718 -0.01642695
v 0.05884973 0.01830718 -0.02461532
v 0.05342935 0.01830718 -0.01745348
v 0.05342935 0.00330223 -0.01746442
v 0.05342935 0.00172176 -0.01747835
v 0.05884973 0.00058368 -0.01661594
v 0.05801142 0.01830718 -0.02492069
v 0.05884973 0.00058368 -0.02461532
v 0.05342935 0.01830718 -0.02658880
v 0.05342935 0.00101219 -0.01748630
v 0.05342935 0.00071726 -0.01749128
v 0.05342935 0.00058368 -0.01749426
v 0.05670301 0.01830718 -0.02539715
v 0.05640695 0.00058368 -0.02550458
v 0.05342935 0.01703725 -0.02658880
v 0.05342935 0.00058368 -0.02658781
v 0.05500994 0.00058368 -0.02601287
f 1 2 7
f 1 7 13
f 1 13 9
f 1 9 3
f 1 3 4
f 1 4 5
f 1 5 6
f 1 6 8
f 1 8 2
f 2 8 7
f 3 9 15
f 3 15 16
f 3 16 12
f 3 12 11
f 3 11 10
f 3 10 5
f 3 5 4
f 5 10 6
f 6 10 11
f 6 11 12
f 6 12 16
f 6 16 17
f 6 17 14
f 6 14 8
f 7 8 13
f 8 14 13
f 9 13 15
f 13 14 15
f 14 17 15
f 15 17 16

