# https://github.com/mikedh/trimesh
v 0.09996958 -0.03104054 0.00362742
v 0.09850937 -0.03104054 0.00311561
v 0.09661316 -0.03258271 0.00217729
v 0.09996958 -0.03162413 0.00344889
v 0.09996958 -0.02936333 0.00287161
v 0.09661316 -0.02948390 0.00217729
v 0.09001870 -0.02746546 -0.00024488
v 0.08971989 -0.02875080 -0.00012784
v 0.08706256 -0.02875080 -0.00105822
v 0.08477357 -0.02875080 -0.00185966
v 0.09623918 -0.03104054 0.00231417
v 0.09041147 -0.03222218 -0.00034803
v 0.09120454 -0.03477116 -0.00231592
v 0.09996958 -0.03325913 0.00285772
v 0.09509468 -0.03104054 0.00189361
v 0.08328142 -0.03008317 -0.00254207
v 0.09996958 -0.02245553 -0.00164740
v 0.08077255 -0.02514076 -0.00468454
v 0.08326450 -0.02727977 -0.00254207
v 0.08309536 -0.02875080 -0.00247661
v 0.08745909 -0.03477116 -0.00426001
v 0.08935343 -0.03477116 -0.00323639
v 0.09184913 -0.03477116 -0.00205208
v 0.09996958 -0.03361966 0.00214357
v 0.09392952 -0.03477116 -0.00141133
v 0.08077255 -0.02875080 -0.00352007
v 0.08077255 -0.02970094 -0.00400212
v 0.08077255 -0.03022544 -0.00431159
v 0.08077255 -0.03477116 -0.00861040
v 0.09996958 -0.02245553 -0.00964791
v 0.08077255 -0.02245553 -0.00831879
v 0.08077255 -0.02642730 -0.00388905
v 0.09996958 -0.03430212 0.00075891
v 0.09996958 -0.03477116 -0.00057021
v 0.08077255 -0.03477116 -0.01663670
v 0.09996958 -0.03477116 -0.00964791
v 0.09887019 -0.02245553 -0.01004863
v 0.08077255 -0.02245553 -0.01663472
v 0.08077255 -0.03446007 -0.01663670
v 0.08106760 -0.02245553 -0.01652958
v 0.08477357 -0.03477116 -0.01518062
v 0.08794584 -0.03477116 -0.01402607
v 0.08992474 -0.02245553 -0.01330596
v 0.08680134 -0.03477116 -0.01444266
f 1 2 3
f 1 3 4
f 1 4 14
f 1 14 24
f 1 24 33
f 1 33 34
f 1 34 36
f 1 36 30
f 1 30 17
f 1 17 5
f 1 5 6
f 1 6 7
f 1 7 8
f 1 8 9
f 1 9 10
f 1 10 2
f 2 11 3
f 2 10 11
f 3 12 13
f 3 13 14
f 3 14 4
f 3 11 15
f 3 15 16
f 3 16 12
f 5 7 6
f 5 17 7
f 7 17 18
f 7 18 19
f 7 19 8
f 8 19 9
f 9 19 10
f 10 20 15
f 10 15 11
f 10 19 20
f 12 16 21
f 12 21 22
f 12 22 13
f 13 23 14
f 13 22 21
f 13 21 29
f 13 29 35
f 13 35 41
f 13 41 44
f 13 44 42
f 13 42 36
f 13 36 34
f 13 34 25
f 13 25 23
f 14 23 25
f 14 25 24
f 15 20 16
f 16 26 27
f 16 27 28
f 16 28 29
f 16 29 21
f 16 20 26
f 17 30 37
f 17 37 43
f 17 43 40
f 17 40 38
f 17 38 31
f 17 31 18
f 18 32 19
f 18 31 38
f 18 38 39
f 18 39 35
f 18 35 29
f 18 29 28
f 18 28 27
f 18 27 26
f 18 26 32
f 19 32 26
f 19 26 20
f 24 25 33
f 25 34 33
f 30 36 37
f 35 39 40
f 35 40 41
f 36 42 43
f 36 43 37
f 38 40 39
f 40 43 44
f 40 44 41
f 42 44 43

