# https://github.com/mikedh/trimesh
v -0.04293811 0.01278625 -0.01756077
v -0.04465177 0.01278625 -0.01645565
v -0.04465127 0.01932676 -0.01645565
v -0.04293811 0.01932676 -0.01755961
v -0.04293811 0.01278625 -0.00994698
v -0.04811102 0.01278625 -0.01422334
v -0.04811102 0.01932676 -0.01422334
v -0.04462848 0.02057272 -0.01644055
v -0.04293811 0.02049937 -0.01726677
v -0.04293811 0.01474851 -0.01001787
v -0.04772919 0.01278625 -0.00587282
v -0.04811102 0.01278625 -0.00568921
v -0.04811102 0.02050476 -0.01417570
v -0.04811102 0.02161588 -0.01410481
v -0.04747700 0.02161588 -0.01448132
v -0.04721265 0.02290931 -0.01430120
v -0.04343742 0.02098481 -0.01682402
v -0.04293811 0.02104306 -0.01700182
v -0.04293811 0.01703871 -0.01011316
v -0.04811102 0.02161588 -0.00654332
v -0.04797581 0.01278625 -0.00568921
v -0.04293811 0.01932676 -0.01024912
v -0.04811102 0.01291786 -0.00568921
v -0.04811102 0.02320705 -0.01302527
v -0.04572636 0.02289636 -0.01434885
v -0.04293811 0.02191577 -0.01578747
v -0.04811102 0.02325236 -0.01294276
v -0.04636342 0.02300963 -0.00898713
v -0.04811102 0.02349615 -0.00771932
v -0.04293811 0.01953280 -0.01030954
v -0.04293811 0.02137100 -0.01109974
v -0.04445630 0.02279388 -0.01424426
v -0.04811102 0.02380684 -0.01059425
v -0.04293811 0.02211750 -0.01515183
v -0.04811102 0.02362992 -0.00800286
v -0.04293811 0.02161156 -0.01154597
v -0.04293811 0.02227608 -0.01297646
v -0.04293811 0.02234836 -0.01339596
v -0.04811102 0.02368602 -0.00830616
f 1 2 3
f 1 3 4
f 1 4 9
f 1 9 18
f 1 18 26
f 1 26 34
f 1 34 38
f 1 38 37
f 1 37 36
f 1 36 31
f 1 31 30
f 1 30 22
f 1 22 19
f 1 19 10
f 1 10 5
f 1 5 11
f 1 11 21
f 1 21 12
f 1 12 6
f 1 6 2
f 2 6 7
f 2 7 3
f 3 8 4
f 3 7 8
f 4 8 9
f 5 10 11
f 6 12 23
f 6 23 20
f 6 20 29
f 6 29 35
f 6 35 39
f 6 39 33
f 6 33 27
f 6 27 24
f 6 24 14
f 6 14 13
f 6 13 7
f 7 13 8
f 8 13 14
f 8 14 15
f 8 15 16
f 8 16 9
f 9 16 17
f 9 17 18
f 10 19 11
f 11 20 21
f 11 19 22
f 11 22 20
f 12 21 23
f 14 24 16
f 14 16 15
f 16 25 26
f 16 26 18
f 16 18 17
f 16 24 27
f 16 27 25
f 20 28 29
f 20 23 21
f 20 22 30
f 20 30 31
f 20 31 28
f 25 32 26
f 25 27 33
f 25 33 32
f 26 32 34
f 28 35 29
f 28 31 36
f 28 36 37
f 28 37 35
f 32 38 34
f 32 33 38
f 33 39 38
f 35 37 39
f 37 38 39

