# https://github.com/mikedh/trimesh
v -0.05939891 0.02611342 -0.06765492
v -0.05939891 0.02798251 -0.06765492
v -0.05840466 0.02027996 -0.06729326
v -0.05939891 0.02027996 -0.06765237
v -0.05939891 0.02798251 -0.05451805
v -0.05225896 0.02798251 -0.06505709
v -0.04993014 0.02027996 -0.06420897
v -0.05939891 0.02027996 -0.05964749
v -0.05939891 0.02657334 -0.05479312
v -0.05587231 0.02619560 -0.05319112
v -0.05472458 0.02619560 -0.05266391
v -0.05259261 0.02619560 -0.05186419
v -0.04929288 0.02741552 -0.05070536
v -0.05444098 0.02794934 -0.05278617
v -0.05447435 0.02798251 -0.05282692
v -0.02531398 0.02798251 -0.05524901
v -0.02531398 0.02027996 -0.05524901
v -0.04256664 0.02262179 -0.04835458
v -0.05435090 0.02477286 -0.05279381
v -0.05856815 0.02498774 -0.05521590
v -0.05939891 0.02615866 -0.05487971
v -0.02931769 0.02027996 -0.04359953
v -0.03373846 0.02031389 -0.04592230
v -0.05938223 0.02615715 -0.05487207
v -0.02531398 0.02027996 -0.04163842
v -0.04801503 0.02759723 -0.05050670
v -0.05423079 0.02798251 -0.05274796
v -0.02531398 0.02161750 -0.04170719
v -0.03592048 0.02523806 -0.04600889
v -0.02531398 0.02798251 -0.04712952
v -0.05010029 0.02798251 -0.05173685
v -0.02531398 0.02192813 -0.04184982
v -0.02531398 0.02369318 -0.04273104
f 1 2 3
f 1 3 4
f 1 4 8
f 1 8 21
f 1 21 9
f 1 9 5
f 1 5 2
f 2 5 15
f 2 15 27
f 2 27 31
f 2 31 30
f 2 30 16
f 2 16 6
f 2 6 3
f 3 6 7
f 3 7 17
f 3 17 25
f 3 25 22
f 3 22 8
f 3 8 4
f 5 9 10
f 5 10 11
f 5 11 12
f 5 12 13
f 5 13 14
f 5 14 15
f 6 16 17
f 6 17 7
f 8 18 19
f 8 19 20
f 8 20 21
f 8 22 23
f 8 23 18
f 9 21 24
f 9 24 10
f 10 19 11
f 10 24 19
f 11 19 25
f 11 25 12
f 12 25 13
f 13 26 27
f 13 27 14
f 13 25 28
f 13 28 29
f 13 29 26
f 14 27 15
f 16 30 33
f 16 33 32
f 16 32 28
f 16 28 25
f 16 25 17
f 18 23 22
f 18 22 25
f 18 25 19
f 19 24 21
f 19 21 20
f 26 31 27
f 26 29 30
f 26 30 31
f 28 32 29
f 29 32 33
f 29 33 30

