# https://github.com/mikedh/trimesh
v 0.04814206 0.00058368 -0.01491427
v 0.04585224 0.00101219 -0.01496640
v 0.04585224 0.00058368 -0.01496495
v 0.05342851 0.00058368 -0.01749451
v 0.05020717 0.01830718 -0.01551517
v 0.04940561 0.01830718 -0.01532983
v 0.04486455 0.01695918 -0.01507789
v 0.04486455 0.00058368 -0.01530956
v 0.05342851 0.00058368 -0.02658758
v 0.05342851 0.00071726 -0.01749161
v 0.05342851 0.01830718 -0.01745396
v 0.05342851 0.00101219 -0.01748582
v 0.05342851 0.00172176 -0.01747858
v 0.05342851 0.00330223 -0.01746555
v 0.04486455 0.01830718 -0.01512423
v 0.04486455 0.00058368 -0.02970499
v 0.05314763 0.00058368 -0.02669038
v 0.05342851 0.01830718 -0.02658758
v 0.04486455 0.01830718 -0.02967024
v 0.04540116 0.00058368 -0.02951097
v 0.04486455 0.00236540 -0.02970644
v 0.05272002 0.00058368 -0.02684676
v 0.05272002 0.01830718 -0.02684676
v 0.04585224 0.01830718 -0.02932274
v 0.04486455 0.01474721 -0.02970644
v 0.04628070 0.00058368 -0.02919098
v 0.04814206 0.01830718 -0.02851334
f 1 2 3
f 1 3 8
f 1 8 16
f 1 16 20
f 1 20 26
f 1 26 22
f 1 22 17
f 1 17 9
f 1 9 4
f 1 4 5
f 1 5 6
f 1 6 7
f 1 7 2
f 2 7 3
f 3 7 8
f 4 9 18
f 4 18 11
f 4 11 14
f 4 14 13
f 4 13 12
f 4 12 10
f 4 10 5
f 5 11 18
f 5 18 23
f 5 23 27
f 5 27 24
f 5 24 19
f 5 19 15
f 5 15 6
f 5 10 12
f 5 12 13
f 5 13 14
f 5 14 11
f 6 15 7
f 7 15 19
f 7 19 25
f 7 25 21
f 7 21 16
f 7 16 8
f 9 17 18
f 16 21 20
f 17 22 23
f 17 23 18
f 19 24 25
f 20 21 26
f 21 25 26
f 22 26 23
f 23 26 27
f 24 27 25
f 25 27 26

