# https://github.com/mikedh/trimesh
v -0.05491553 0.01246097 0.00759151
v -0.05707493 0.01246097 0.00684599
v -0.05491553 0.01242720 0.00759151
v -0.05491553 0.01474956 0.00757275
v -0.05707392 0.01703555 0.00684599
v -0.05821971 0.01246097 0.00644850
v -0.05821869 0.01016978 0.00644850
v -0.05707392 0.01016978 0.00684429
v -0.05491553 0.01013861 0.00758981
v -0.05491553 0.01703555 0.00729638
v -0.05672012 0.02104903 0.00669757
v -0.05706883 0.01932674 0.00682552
v -0.05946411 0.02161533 0.00601347
v -0.05946411 0.01932674 0.00601517
v -0.05946411 0.01016978 0.00601517
v -0.05707087 0.00788119 0.00684258
v -0.05491553 0.00788119 0.00758640
v -0.05491553 0.01923582 0.00683576
v -0.05568922 0.02104903 0.00669757
v -0.05946411 0.02882920 0.00479026
v -0.05946411 0.02390392 0.00597593
v -0.06175263 0.02390392 0.00510587
v -0.06175263 0.01016978 0.00511440
v -0.05946411 0.00788119 0.00599299
v -0.05821564 0.00788119 0.00643826
v -0.05491553 0.00559260 0.00752157
v -0.05491553 0.02161533 0.00548802
v -0.05682585 0.02882920 0.00322074
v -0.05779881 0.02882920 0.00429041
v -0.05797062 0.02882920 0.00447636
v -0.05923434 0.02882920 0.00475103
v -0.06194580 0.02882920 0.00446783
v -0.06285369 0.02882920 0.00426652
v -0.06313124 0.02390392 0.00439447
v -0.06316174 0.01016978 0.00440300
v -0.06175263 0.00788119 0.00508540
v -0.05680552 0.00559260 0.00679652
v -0.05637140 0.00426776 0.00666175
v -0.05491553 0.00556403 0.00751475
v -0.05491553 0.02183873 0.00533789
v -0.05590882 0.02882920 0.00207601
v -0.06303363 0.02882920 0.00413857
v -0.06305193 0.02580285 0.00432794
v -0.06343217 0.02882920 0.00360289
v -0.06381037 0.02641592 0.00327533
v -0.06410826 0.02390392 0.00304843
v -0.06413672 0.02161533 0.00304843
v -0.06423026 0.01246097 0.00304843
v -0.06424754 0.01016978 0.00304843
v -0.06313734 0.00788119 0.00438594
v -0.06303668 0.00654077 0.00430746
v -0.06164893 0.00229090 0.00364042
v -0.05491553 0.00395864 0.00697053
v -0.05491553 0.02803429 0.00077945
v -0.05509751 0.02882920 0.00075898
v -0.06363449 0.02882920 0.00325998
v -0.06367515 0.02827069 0.00327533
v -0.06491752 0.02848370 0.00075898
v -0.06501920 0.02390392 0.00107800
v -0.06504563 0.02161533 0.00122131
v -0.06506596 0.01932674 0.00134414
v -0.06508833 0.01703555 0.00142432
v -0.06510866 0.01474956 0.00147891
v -0.06512391 0.01246097 0.00151474
v -0.06512696 0.01016978 0.00150792
v -0.06411436 0.00788119 0.00304843
v -0.06330915 0.00229090 0.00243939
v -0.06230062 0.00229090 0.00317127
v -0.05973760 0.00229090 0.00402256
v -0.05946411 0.00229090 0.00407203
v -0.05806518 0.00229090 0.00351247
v -0.05717762 0.00229090 0.00305355
v -0.05491553 0.00395344 0.00695347
v -0.05491553 0.02848370 -0.00020320
v -0.05491553 0.02882920 -0.00106303
v -0.06469894 0.02882920 0.00113601
v -0.06487482 0.02882920 0.00075898
v -0.06473148 0.02882920 -0.00152877
v -0.06521541 0.02530669 -0.00053587
v -0.06521541 0.02530669 -0.00022368
v -0.06505173 0.02611978 0.00062762
v -0.06524387 0.02390392 -0.00006672
v -0.06527234 0.02161533 0.00007658
v -0.06529471 0.01932674 0.00019941
v -0.06530081 0.01703555 0.00027959
v -0.06527844 0.01016978 0.00036319
v -0.06524489 0.00874623 0.00010217
v -0.06498361 0.00794354 0.00082210
v -0.06529471 0.01474956 0.00033419
v -0.06528658 0.01246097 0.00037001
v -0.06396084 0.00229090 0.00075898
v -0.06359687 0.00229090 0.00169899
v -0.05612130 0.00229090 0.00149427
v -0.05591390 0.00229090 0.00034954
v -0.05491553 0.00229090 -0.00570165
v -0.05491553 0.02882920 -0.00165672
v -0.06364770 0.02882920 -0.00343266
v -0.06497954 0.02390392 -0.00182390
v -0.06524387 0.02390392 -0.00068089
v -0.06527234 0.02161533 -0.00080883
v -0.06529471 0.01932674 -0.00090437
v -0.06530081 0.01703555 -0.00094361
v -0.06527844 0.01016978 -0.00088560
v -0.06524489 0.00874623 -0.00070818
v -0.06529471 0.01474956 -0.00093849
v -0.06384087 0.00229090 -0.00025097
v -0.05491553 0.00229090 -0.00982846
v -0.05568312 0.02882920 -0.00298569
v -0.05491553 0.02555867 -0.00841419
v -0.06185329 0.02882920 -0.00456545
v -0.05851861 0.02528331 -0.00738035
v -0.06245820 0.02619511 -0.00470363
v -0.06267678 0.02390392 -0.00480088
v -0.06383477 0.02390392 -0.00365615
v -0.06499785 0.02161533 -0.00195186
v -0.06501106 0.01932674 -0.00204739
v -0.06501818 0.01703555 -0.00208663
v -0.06502021 0.01474956 -0.00208151
v -0.06500903 0.01016978 -0.00202863
v -0.06528658 0.01246097 -0.00091802
v -0.06486161 0.00794354 -0.00149294
v -0.06368735 0.00229090 -0.00152877
v -0.06501716 0.01246097 -0.00206104
v -0.05491553 0.00402358 -0.00983358
v -0.05519511 0.00229090 -0.00964251
v -0.05859892 0.00559260 -0.00744518
v -0.05717457 0.00559260 -0.00837666
v -0.05577868 0.02882920 -0.00314094
v -0.05491553 0.02550931 -0.00848243
v -0.05900864 0.02882920 -0.00492201
v -0.05752736 0.02882920 -0.00431637
v -0.05711153 0.02882920 -0.00409118
v -0.06170383 0.02882920 -0.00465246
v -0.05491553 0.02390392 -0.00959645
v -0.05550113 0.02390392 -0.00929107
v -0.05717457 0.02390392 -0.00834083
v -0.05861824 0.02390392 -0.00744518
v -0.05976301 0.02390392 -0.00670648
v -0.06153202 0.02390392 -0.00556175
v -0.06265747 0.02161533 -0.00478382
v -0.06386426 0.01016978 -0.00350773
v -0.06387239 0.01246097 -0.00353502
v -0.06387544 0.01474956 -0.00356232
v -0.06387341 0.01703555 -0.00358962
v -0.06386629 0.01932674 -0.00361521
v -0.06385307 0.02161533 -0.00363909
v -0.05976403 0.01016978 -0.00670478
v -0.05976403 0.00788119 -0.00669624
v -0.06138561 0.01016978 -0.00556005
v -0.06135613 0.00788119 -0.00555152
v -0.06372193 0.00788119 -0.00344802
v -0.06303567 0.00229090 -0.00282021
v -0.05491553 0.00631477 -0.00983529
v -0.05717457 0.00788119 -0.00837836
v -0.05535372 0.00229090 -0.00953503
v -0.05861926 0.00788119 -0.00744518
v -0.05569938 0.00229090 -0.00929790
v -0.05849319 0.00410671 -0.00738206
v -0.05946411 0.02882920 -0.00499195
v -0.05491553 0.02248816 -0.00977046
v -0.05491553 0.02161533 -0.00983358
v -0.05569938 0.02161533 -0.00932861
v -0.05861926 0.02161533 -0.00744518
v -0.05976403 0.02161533 -0.00670648
v -0.05976403 0.01246097 -0.00670648
v -0.06255479 0.01246097 -0.00467975
v -0.06253039 0.01016978 -0.00465246
v -0.06250090 0.00788119 -0.00459274
v -0.05657982 0.00229090 -0.00860697
v -0.05717457 0.01474956 -0.00837836
f 1 2 3
f 1 3 9
f 1 9 17
f 1 17 26
f 1 26 39
f 1 39 53
f 1 53 73
f 1 73 95
f 1 95 107
f 1 107 124
f 1 124 153
f 1 153 161
f 1 161 160
f 1 160 134
f 1 134 129
f 1 129 109
f 1 109 96
f 1 96 75
f 1 75 74
f 1 74 54
f 1 54 40
f 1 40 27
f 1 27 18
f 1 18 10
f 1 10 4
f 1 4 5
f 1 5 2
f 2 6 7
f 2 7 8
f 2 8 9
f 2 9 3
f 2 5 6
f 4 10 11
f 4 11 12
f 4 12 5
f 5 12 13
f 5 13 14
f 5 14 6
f 6 15 7
f 6 14 15
f 7 15 16
f 7 16 8
f 8 16 9
f 9 16 17
f 10 18 19
f 10 19 11
f 11 19 20
f 11 20 21
f 11 21 12
f 12 21 13
f 13 22 14
f 13 21 22
f 14 22 23
f 14 23 15
f 15 23 24
f 15 24 25
f 15 25 16
f 16 25 26
f 16 26 17
f 18 27 19
f 19 27 28
f 19 28 29
f 19 29 30
f 19 30 31
f 19 31 20
f 20 31 30
f 20 30 29
f 20 29 28
f 20 28 41
f 20 41 55
f 20 55 75
f 20 75 96
f 20 96 108
f 20 108 128
f 20 128 132
f 20 132 131
f 20 131 130
f 20 130 159
f 20 159 133
f 20 133 110
f 20 110 97
f 20 97 78
f 20 78 77
f 20 77 76
f 20 76 56
f 20 56 44
f 20 44 42
f 20 42 33
f 20 33 32
f 20 32 21
f 21 32 33
f 21 33 22
f 22 33 34
f 22 34 35
f 22 35 23
f 23 35 36
f 23 36 24
f 24 36 37
f 24 37 26
f 24 26 25
f 26 37 38
f 26 38 39
f 27 40 41
f 27 41 28
f 33 42 43
f 33 43 34
f 34 43 42
f 34 42 44
f 34 44 45
f 34 45 46
f 34 46 47
f 34 47 48
f 34 48 49
f 34 49 35
f 35 49 50
f 35 50 36
f 36 50 51
f 36 51 37
f 37 51 38
f 38 52 53
f 38 53 39
f 38 51 52
f 40 54 55
f 40 55 41
f 44 56 57
f 44 57 45
f 45 57 46
f 46 57 58
f 46 58 59
f 46 59 60
f 46 60 61
f 46 61 62
f 46 62 63
f 46 63 64
f 46 64 47
f 47 64 48
f 48 64 49
f 49 65 66
f 49 66 50
f 49 64 65
f 50 66 51
f 51 66 67
f 51 67 68
f 51 68 52
f 52 68 67
f 52 67 92
f 52 92 91
f 52 91 106
f 52 106 122
f 52 122 152
f 52 152 169
f 52 169 157
f 52 157 155
f 52 155 125
f 52 125 107
f 52 107 95
f 52 95 94
f 52 94 93
f 52 93 72
f 52 72 71
f 52 71 70
f 52 70 69
f 52 69 53
f 53 69 70
f 53 70 71
f 53 71 72
f 53 72 73
f 54 74 55
f 55 74 75
f 56 76 57
f 57 76 58
f 58 76 77
f 58 77 78
f 58 78 79
f 58 79 80
f 58 80 81
f 58 81 59
f 59 81 82
f 59 82 83
f 59 83 60
f 60 83 84
f 60 84 61
f 61 84 62
f 62 84 63
f 63 84 64
f 64 84 85
f 64 85 65
f 65 86 87
f 65 87 88
f 65 88 66
f 65 85 89
f 65 89 90
f 65 90 86
f 66 88 91
f 66 91 92
f 66 92 67
f 72 93 73
f 73 93 94
f 73 94 95
f 78 97 98
f 78 98 79
f 79 98 99
f 79 99 82
f 79 82 80
f 80 82 81
f 82 99 100
f 82 100 83
f 83 100 101
f 83 101 84
f 84 101 102
f 84 102 85
f 85 102 105
f 85 105 89
f 86 103 104
f 86 104 87
f 86 90 89
f 86 89 105
f 86 105 103
f 87 104 91
f 87 91 88
f 91 104 106
f 96 109 108
f 97 110 111
f 97 111 112
f 97 112 113
f 97 113 114
f 97 114 98
f 98 114 115
f 98 115 100
f 98 100 99
f 100 115 101
f 101 115 116
f 101 116 117
f 101 117 102
f 102 117 118
f 102 118 105
f 103 119 104
f 103 105 120
f 103 120 123
f 103 123 119
f 104 119 121
f 104 121 122
f 104 122 106
f 105 118 123
f 105 123 120
f 107 125 126
f 107 126 127
f 107 127 124
f 108 109 128
f 109 129 130
f 109 130 131
f 109 131 132
f 109 132 128
f 110 133 111
f 111 133 134
f 111 134 135
f 111 135 136
f 111 136 137
f 111 137 138
f 111 138 139
f 111 139 112
f 112 139 113
f 113 140 141
f 113 141 142
f 113 142 143
f 113 143 144
f 113 144 145
f 113 145 146
f 113 146 114
f 113 139 147
f 113 147 148
f 113 148 149
f 113 149 150
f 113 150 140
f 114 146 117
f 114 117 116
f 114 116 115
f 117 146 118
f 118 146 145
f 118 145 144
f 118 144 123
f 119 141 151
f 119 151 152
f 119 152 121
f 119 123 141
f 121 152 122
f 123 144 143
f 123 143 142
f 123 142 141
f 124 127 154
f 124 154 153
f 125 155 126
f 126 150 148
f 126 148 156
f 126 156 127
f 126 155 157
f 126 157 158
f 126 158 150
f 127 156 154
f 129 133 159
f 129 159 130
f 129 134 133
f 134 160 135
f 135 160 136
f 136 160 161
f 136 161 137
f 137 161 162
f 137 162 163
f 137 163 164
f 137 164 138
f 138 164 139
f 139 164 165
f 139 165 147
f 140 150 166
f 140 166 141
f 141 166 167
f 141 167 168
f 141 168 151
f 147 165 156
f 147 156 148
f 148 150 149
f 150 158 168
f 150 168 167
f 150 167 166
f 151 168 152
f 152 158 169
f 152 168 158
f 153 154 170
f 153 170 162
f 153 162 161
f 154 156 165
f 154 165 164
f 154 164 170
f 157 169 158
f 162 170 163
f 163 170 164

