# https://github.com/mikedh/trimesh
v -0.04811153 -0.00585723 0.00986918
v -0.04811153 -0.00366383 0.00986424
v -0.05030550 -0.00585723 0.00918285
v -0.05150113 -0.01043497 0.00879024
v -0.05148397 -0.01164951 0.00878431
v -0.04811153 -0.00595356 0.00986621
v -0.05030550 -0.00356749 0.00917099
v -0.04811153 0.00037373 0.00982764
v -0.04865432 0.00037373 0.00965953
v -0.05030550 -0.00127948 0.00915912
v -0.05148572 -0.00127948 0.00878629
v -0.05149413 -0.00356749 0.00878827
v -0.05149798 -0.00585723 0.00878926
v -0.05150078 -0.00814696 0.00879024
v -0.05169106 -0.00814696 0.00872398
v -0.05169106 -0.01043497 0.00872398
v -0.05169106 -0.01185422 0.00868245
v -0.05140687 -0.01164951 0.00878431
v -0.04811153 -0.00823469 0.00947756
v -0.04811153 0.00037373 0.00445076
v -0.05098532 0.00037373 0.00891881
v -0.05146960 -0.00004086 0.00878134
v -0.05169106 -0.00168720 0.00871212
v -0.05169106 -0.00396145 0.00872003
v -0.05169106 -0.00585723 0.00872201
v -0.05169106 -0.01190755 0.00865575
v -0.04811153 -0.00962814 0.00894056
v -0.05169106 -0.01412675 0.00753033
v -0.05169106 -0.01475811 0.00720793
v -0.05037349 0.00037373 0.00546047
v -0.04811153 -0.00442937 -0.00023387
v -0.04890382 -0.00473558 -0.00023387
v -0.05169106 -0.00591056 -0.00023387
v -0.05141213 0.00037373 0.00845796
v -0.05169106 -0.00023526 0.00858257
v -0.04811153 -0.00967631 0.00891287
v -0.05169106 -0.01608963 0.00633173
v -0.05169106 0.00037373 0.00622294
v -0.04811153 -0.01210883 -0.00023387
v -0.05169106 -0.01335777 -0.00023387
v -0.05169106 0.00037373 0.00784976
v -0.04811153 -0.01086849 0.00761636
v -0.05169106 -0.01646637 0.00598461
v -0.04811153 -0.01230495 0.00304744
v -0.05119451 -0.01669174 0.00381783
v -0.05169106 -0.01720095 0.00326402
v -0.04811153 -0.01163919 0.00645732
v -0.05169106 -0.01716654 0.00521422
v -0.04811153 -0.01218280 0.00525180
v -0.05119451 -0.01669174 0.00474447
v -0.05169106 -0.01720095 0.00352115
f 1 2 3
f 1 3 4
f 1 4 5
f 1 5 6
f 1 6 19
f 1 19 27
f 1 27 36
f 1 36 42
f 1 42 47
f 1 47 49
f 1 49 44
f 1 44 39
f 1 39 31
f 1 31 20
f 1 20 8
f 1 8 2
f 2 7 3
f 2 8 9
f 2 9 10
f 2 10 7
f 3 7 11
f 3 11 12
f 3 12 13
f 3 13 14
f 3 14 4
f 4 14 15
f 4 15 16
f 4 16 5
f 5 16 17
f 5 17 18
f 5 18 19
f 5 19 6
f 7 10 11
f 8 20 30
f 8 30 38
f 8 38 41
f 8 41 34
f 8 34 21
f 8 21 9
f 9 21 22
f 9 22 10
f 10 22 11
f 11 23 24
f 11 24 12
f 11 22 23
f 12 24 25
f 12 25 13
f 13 25 15
f 13 15 14
f 15 25 24
f 15 24 23
f 15 23 35
f 15 35 41
f 15 41 38
f 15 38 33
f 15 33 40
f 15 40 46
f 15 46 51
f 15 51 48
f 15 48 43
f 15 43 37
f 15 37 29
f 15 29 28
f 15 28 26
f 15 26 17
f 15 17 16
f 17 26 18
f 18 27 19
f 18 26 28
f 18 28 29
f 18 29 27
f 20 31 32
f 20 32 33
f 20 33 30
f 21 34 22
f 22 35 23
f 22 34 35
f 27 29 36
f 29 37 36
f 30 33 38
f 31 39 40
f 31 40 33
f 31 33 32
f 34 41 35
f 36 37 43
f 36 43 42
f 39 44 45
f 39 45 46
f 39 46 40
f 42 43 48
f 42 48 47
f 44 49 50
f 44 50 45
f 45 50 51
f 45 51 46
f 47 48 50
f 47 50 49
f 48 51 50

