# https://github.com/mikedh/trimesh
v -0.01864325 -0.03155612 -0.04113423
v -0.01861967 -0.03160277 -0.04113423
v -0.01864325 -0.03097303 -0.04048544
v -0.01864325 0.03140272 -0.04113423
v -0.01845760 -0.03192153 -0.04113423
v -0.01864325 -0.03094193 -0.04045995
v -0.01727888 -0.03238801 -0.03919128
v -0.01864325 0.03078853 -0.04037550
v -0.01732603 0.03211021 -0.03919128
v -0.01730540 0.03214131 -0.03919128
v -0.01781520 0.03263889 -0.04113423
v -0.01369851 -0.04015485 -0.04113423
v -0.01864325 -0.03082530 -0.04036903
v -0.01863146 -0.02879613 -0.03919128
v -0.01864325 -0.02880391 -0.03920307
v -0.01864325 -0.02909934 -0.03937140
v -0.01239897 -0.04015485 -0.03919128
v -0.01864325 0.02922583 -0.03937045
v -0.01822775 0.02985557 -0.03919128
v -0.01192158 0.03927063 -0.03919128
v -0.01214259 0.03927063 -0.04113423
v 0.01146132 -0.04015485 -0.04113423
v -0.01864325 -0.02874948 -0.03919128
v 0.01146132 -0.04015485 -0.03919128
v -0.01864325 0.02845614 -0.03919128
v 0.01146132 0.03927063 -0.03919128
v 0.01146132 0.03927063 -0.04113423
f 1 2 3
f 1 3 6
f 1 6 13
f 1 13 16
f 1 16 15
f 1 15 23
f 1 23 25
f 1 25 18
f 1 18 8
f 1 8 4
f 1 4 11
f 1 11 21
f 1 21 27
f 1 27 22
f 1 22 12
f 1 12 5
f 1 5 2
f 2 5 3
f 3 5 7
f 3 7 6
f 4 8 9
f 4 9 10
f 4 10 11
f 5 12 7
f 6 7 13
f 7 14 15
f 7 15 16
f 7 16 13
f 7 12 17
f 7 17 24
f 7 24 26
f 7 26 20
f 7 20 10
f 7 10 9
f 7 9 19
f 7 19 25
f 7 25 23
f 7 23 14
f 8 18 9
f 9 18 19
f 10 20 11
f 11 20 21
f 12 22 24
f 12 24 17
f 14 23 15
f 18 25 19
f 20 26 27
f 20 27 21
f 22 27 26
f 22 26 24

