# https://github.com/mikedh/trimesh
v 0.03213448 0.03653526 -0.02101502
v 0.03213448 0.03315842 -0.02101502
v 0.03213448 0.04222188 -0.02103543
v 0.03213245 0.03657117 -0.02101502
v 0.02377497 0.03315842 -0.02101502
v 0.03213448 0.03315842 -0.03433741
v 0.03213448 0.04316324 -0.02106808
v 0.02530683 0.03521684 -0.02101502
v 0.02719688 0.03596839 -0.02101502
v 0.02753482 0.03608125 -0.02101502
v 0.02442252 0.03409593 -0.02101502
v 0.01146132 0.03315842 -0.02563745
v 0.03097091 0.03315842 -0.03476190
v 0.03213448 0.03535407 -0.03433945
v 0.03213448 0.04451115 -0.02119257
v 0.03213448 0.04486384 -0.02124767
v 0.02641779 0.04557178 -0.02330481
v 0.01461006 0.04576416 -0.02774560
v 0.01146132 0.04220264 -0.02810683
v 0.01146132 0.03315842 -0.04186187
v 0.02973246 0.03315842 -0.03521292
v 0.03213448 0.04222188 -0.03433945
v 0.02060195 0.03315842 -0.03853739
v 0.03213448 0.04593088 -0.02215787
v 0.02794359 0.04583726 -0.02305787
v 0.02128795 0.04580648 -0.02539867
v 0.01146132 0.04451115 -0.02879458
v 0.01146132 0.04235782 -0.02814968
v 0.01608931 0.04588728 -0.02754764
v 0.01146132 0.04595269 -0.02960274
v 0.01146132 0.04186406 -0.04186391
v 0.01238206 0.03315842 -0.04152922
v 0.03100328 0.04352491 -0.03473741
v 0.03213448 0.04225651 -0.03433741
v 0.01380061 0.04222188 -0.04101289
v 0.03213448 0.04625920 -0.02442521
v 0.03211424 0.04625920 -0.02442521
v 0.02982555 0.04624381 -0.02442521
v 0.02982555 0.04594243 -0.02281297
v 0.02295540 0.04591934 -0.02518439
v 0.01608931 0.04618867 -0.02900478
v 0.01146132 0.04625408 -0.03129253
v 0.01146132 0.04222188 -0.04186391
v 0.02995303 0.04437777 -0.03502108
v 0.03080295 0.04505108 -0.03459047
v 0.03213448 0.04438931 -0.03413333
v 0.01146132 0.04392761 -0.04177412
v 0.01771831 0.04451115 -0.03947617
v 0.02430313 0.04451115 -0.03708842
v 0.02414528 0.04567182 -0.03703128
v 0.03213448 0.04625920 -0.02900478
v 0.02524613 0.04625920 -0.02671499
v 0.01838003 0.04625920 -0.02900478
v 0.01151191 0.04625664 -0.03129253
v 0.02295540 0.04622073 -0.02671499
v 0.01146132 0.04625920 -0.03358027
v 0.02927715 0.04581931 -0.03491496
v 0.03213448 0.04595653 -0.03314150
v 0.01146132 0.04451115 -0.04171901
v 0.01745929 0.04573210 -0.03938229
v 0.03213448 0.04625792 -0.03129253
v 0.03211424 0.04625920 -0.03129253
v 0.01380061 0.04625920 -0.03129253
v 0.01146132 0.04625920 -0.03815985
v 0.02753482 0.04592832 -0.03513945
v 0.01608931 0.04586419 -0.03957208
v 0.02753482 0.04622971 -0.03358027
v 0.01146132 0.04520114 -0.04156187
v 0.02066873 0.04625023 -0.03587006
v 0.01380061 0.04625792 -0.03815985
v 0.01151191 0.04625920 -0.03815985
v 0.01146132 0.04597962 -0.04052310
v 0.01608931 0.04616558 -0.03815985
v 0.01146132 0.04595653 -0.04063126
v 0.01380061 0.04595653 -0.03989657
f 1 2 6
f 1 6 14
f 1 14 22
f 1 22 34
f 1 34 46
f 1 46 58
f 1 58 61
f 1 61 51
f 1 51 36
f 1 36 24
f 1 24 16
f 1 16 15
f 1 15 7
f 1 7 3
f 1 3 4
f 1 4 10
f 1 10 9
f 1 9 8
f 1 8 11
f 1 11 5
f 1 5 2
f 2 5 12
f 2 12 20
f 2 20 32
f 2 32 23
f 2 23 21
f 2 21 13
f 2 13 6
f 3 7 8
f 3 8 9
f 3 9 10
f 3 10 4
f 5 11 12
f 6 13 14
f 7 15 8
f 8 15 16
f 8 16 11
f 11 16 17
f 11 17 18
f 11 18 12
f 12 18 19
f 12 19 28
f 12 28 27
f 12 27 30
f 12 30 42
f 12 42 56
f 12 56 64
f 12 64 72
f 12 72 74
f 12 74 68
f 12 68 59
f 12 59 47
f 12 47 43
f 12 43 31
f 12 31 20
f 13 21 14
f 14 21 23
f 14 23 22
f 16 24 25
f 16 25 17
f 17 25 26
f 17 26 18
f 18 27 28
f 18 28 19
f 18 26 29
f 18 29 30
f 18 30 27
f 20 31 32
f 22 33 34
f 22 23 35
f 22 35 33
f 23 32 35
f 24 36 37
f 24 37 38
f 24 38 39
f 24 39 25
f 25 39 40
f 25 40 29
f 25 29 26
f 29 40 41
f 29 41 30
f 30 41 42
f 31 43 32
f 32 43 35
f 33 44 45
f 33 45 46
f 33 46 34
f 33 35 43
f 33 43 47
f 33 47 48
f 33 48 49
f 33 49 50
f 33 50 44
f 36 51 62
f 36 62 71
f 36 71 64
f 36 64 56
f 36 56 63
f 36 63 53
f 36 53 52
f 36 52 37
f 37 52 38
f 38 52 53
f 38 53 54
f 38 54 55
f 38 55 39
f 39 55 41
f 39 41 40
f 41 54 42
f 41 55 54
f 42 54 56
f 44 50 45
f 45 57 58
f 45 58 46
f 45 50 57
f 47 59 48
f 48 59 50
f 48 50 49
f 50 59 60
f 50 60 57
f 51 61 62
f 53 63 54
f 54 63 56
f 57 65 58
f 57 60 66
f 57 66 65
f 58 67 61
f 58 65 67
f 59 68 60
f 60 68 66
f 61 67 62
f 62 67 69
f 62 69 70
f 62 70 71
f 64 71 72
f 65 66 73
f 65 73 67
f 66 68 74
f 66 74 75
f 66 75 73
f 67 73 69
f 69 73 70
f 70 73 72
f 70 72 71
f 72 73 75
f 72 75 74

