# https://github.com/mikedh/trimesh
v 0.05729208 -0.02204455 -0.01241352
v 0.05729208 -0.02184774 -0.01245075
v 0.04486371 -0.01730271 -0.01541811
v 0.05500959 -0.02188256 -0.01291287
v 0.05500959 -0.02204455 -0.01292811
v 0.05729208 -0.02204455 -0.02505313
v 0.05729208 -0.02054903 -0.01363567
v 0.04814266 -0.01730271 -0.01563817
v 0.04486371 -0.01739275 -0.01541642
v 0.04486371 -0.01730271 -0.02955409
v 0.04486371 -0.01950932 -0.01547905
v 0.05255798 -0.02204455 -0.01361705
v 0.05627372 -0.02204455 -0.02555248
v 0.05729208 -0.02203805 -0.02518177
v 0.05729208 -0.01730271 -0.01715316
v 0.04814022 -0.01730271 -0.02851306
v 0.04814144 -0.01730410 -0.02851306
v 0.04486371 -0.02188256 -0.02970644
v 0.04486371 -0.02181386 -0.01599364
v 0.04486371 -0.02204455 -0.01614937
v 0.05500959 -0.02204455 -0.02601290
v 0.05619220 -0.01730271 -0.02558295
v 0.05729208 -0.01730271 -0.02518177
v 0.04568253 -0.02204455 -0.02940852
v 0.04486371 -0.02204455 -0.02970644
v 0.04969514 -0.02204455 -0.02794769
f 1 2 3
f 1 3 4
f 1 4 5
f 1 5 12
f 1 12 20
f 1 20 25
f 1 25 24
f 1 24 26
f 1 26 21
f 1 21 13
f 1 13 6
f 1 6 14
f 1 14 23
f 1 23 15
f 1 15 7
f 1 7 2
f 2 7 8
f 2 8 3
f 3 9 4
f 3 8 15
f 3 15 23
f 3 23 22
f 3 22 16
f 3 16 10
f 3 10 18
f 3 18 25
f 3 25 20
f 3 20 19
f 3 19 11
f 3 11 9
f 4 9 11
f 4 11 5
f 5 11 12
f 6 13 14
f 7 15 8
f 10 16 17
f 10 17 18
f 11 19 12
f 12 19 20
f 13 21 14
f 14 21 22
f 14 22 23
f 16 22 17
f 17 24 18
f 17 22 24
f 18 24 25
f 21 26 22
f 22 26 24

