# https://github.com/mikedh/trimesh
v 0.02240075 -0.03084129 -0.02101473
v 0.02397191 -0.03465489 -0.02101473
v 0.02240170 -0.03062502 -0.02040115
v 0.02240170 -0.02903182 -0.01801299
v 0.02240170 0.02915260 -0.01801299
v 0.02240170 0.03042861 -0.01941409
v 0.02240170 0.03107742 -0.02099592
v 0.02240170 0.03108463 -0.02101473
v 0.02443211 -0.03517395 -0.02101473
v 0.02596324 -0.03474140 -0.01850373
v 0.02753535 -0.03332843 -0.01803179
v 0.02295813 -0.02887322 -0.01801299
v 0.02275614 0.02909493 -0.01801299
v 0.02955432 0.03077464 -0.01809203
v 0.02733240 0.03288690 -0.01816755
v 0.02753535 0.03456662 -0.01837766
v 0.02603375 0.03450894 -0.01850431
v 0.02442448 0.03409082 -0.02101473
v 0.02348027 0.03273551 -0.02101473
v 0.02523626 -0.03562812 -0.02101473
v 0.02606519 -0.03592369 -0.02101473
v 0.02753535 -0.03572184 -0.01984518
v 0.02753535 -0.03500814 -0.01833094
v 0.02909317 -0.03491442 -0.01840440
v 0.02951906 -0.03332843 -0.01827334
v 0.03213448 -0.02244994 -0.01801299
v 0.02994306 -0.02431708 -0.01801299
v 0.02757441 -0.02615540 -0.01801299
v 0.02474081 -0.02812347 -0.01801299
v 0.02498377 0.02793427 -0.01801299
v 0.02934756 0.03305992 -0.01818137
v 0.02579555 0.02744405 -0.01801299
v 0.02798126 0.02585085 -0.01801299
v 0.02984206 0.02443787 -0.01801299
v 0.03213448 0.02259235 -0.01801299
v 0.02893977 0.03437918 -0.01846641
v 0.03213353 0.03657074 -0.02101473
v 0.02753535 0.03543891 -0.01984518
v 0.02753535 0.03608052 -0.02101473
v 0.02719806 0.03596518 -0.02101473
v 0.02530867 0.03521543 -0.02101473
v 0.03213448 -0.03707714 -0.02101473
v 0.03213448 -0.03332843 -0.01967151
v 0.03213448 -0.03330680 -0.01966740
v 0.03213448 0.03305992 -0.01967592
v 0.03213448 0.03308155 -0.01968238
v 0.03213448 0.03543170 -0.02053398
v 0.03213448 0.03653469 -0.02100356
v 0.03213448 0.03652748 -0.02101473
f 1 2 3
f 1 3 4
f 1 4 5
f 1 5 6
f 1 6 7
f 1 7 8
f 1 8 19
f 1 19 18
f 1 18 41
f 1 41 40
f 1 40 39
f 1 39 37
f 1 37 49
f 1 49 42
f 1 42 21
f 1 21 20
f 1 20 9
f 1 9 2
f 2 9 10
f 2 10 4
f 2 4 3
f 4 10 11
f 4 11 12
f 4 12 29
f 4 29 28
f 4 28 27
f 4 27 26
f 4 26 35
f 4 35 34
f 4 34 33
f 4 33 32
f 4 32 30
f 4 30 13
f 4 13 5
f 5 13 14
f 5 14 15
f 5 15 16
f 5 16 17
f 5 17 6
f 6 17 18
f 6 18 19
f 6 19 7
f 7 19 8
f 9 20 10
f 10 20 21
f 10 21 22
f 10 22 23
f 10 23 11
f 11 23 24
f 11 24 25
f 11 25 26
f 11 26 27
f 11 27 28
f 11 28 29
f 11 29 12
f 13 30 14
f 14 31 15
f 14 30 32
f 14 32 33
f 14 33 34
f 14 34 35
f 14 35 31
f 15 31 16
f 16 31 36
f 16 36 37
f 16 37 17
f 17 37 38
f 17 38 39
f 17 39 40
f 17 40 41
f 17 41 18
f 21 42 22
f 22 42 23
f 23 42 24
f 24 43 25
f 24 42 43
f 25 43 44
f 25 44 26
f 26 44 43
f 26 43 42
f 26 42 49
f 26 49 48
f 26 48 47
f 26 47 46
f 26 46 45
f 26 45 35
f 31 45 46
f 31 46 47
f 31 47 36
f 31 35 45
f 36 47 37
f 37 48 49
f 37 39 38
f 37 47 48

