# https://github.com/mikedh/trimesh
v 0.08077255 0.01716245 -0.00863437
v 0.08077255 0.01532703 -0.00862654
v 0.08077255 0.01716245 -0.01663612
v 0.07341845 0.01716245 -0.01025978
v 0.07389484 0.01613682 -0.00937818
v 0.07381974 0.01474769 -0.00925447
v 0.07561373 0.01245788 -0.00896948
v 0.08077255 0.01303723 -0.00861871
v 0.08077255 0.00058368 -0.01663612
v 0.06811371 0.01716245 -0.02124457
v 0.07321888 0.01716245 -0.01032711
v 0.05895917 0.01716245 -0.01652338
v 0.07387124 0.01245788 -0.00919496
v 0.08077255 0.00058368 -0.00863594
v 0.08077255 0.01245788 -0.00861871
v 0.06820813 0.00058368 -0.02121012
v 0.05959007 0.00058368 -0.02434661
v 0.05959007 0.01716245 -0.02434661
v 0.05884973 0.01716245 -0.01659854
v 0.05884973 0.00058368 -0.01661577
v 0.06949569 0.01245788 -0.01133712
v 0.07396136 0.01091782 -0.00929831
v 0.08033692 0.00058368 -0.00879410
v 0.05884973 0.00058368 -0.02461438
v 0.05884973 0.01703749 -0.02461595
v 0.05884973 0.01716245 -0.02461595
v 0.07208368 0.00058368 -0.01179749
f 1 2 8
f 1 8 15
f 1 15 14
f 1 14 9
f 1 9 3
f 1 3 10
f 1 10 18
f 1 18 26
f 1 26 19
f 1 19 12
f 1 12 11
f 1 11 4
f 1 4 5
f 1 5 6
f 1 6 7
f 1 7 2
f 2 7 8
f 3 9 10
f 4 11 5
f 5 11 12
f 5 12 6
f 6 13 7
f 6 12 13
f 7 13 14
f 7 14 15
f 7 15 8
f 9 14 23
f 9 23 27
f 9 27 20
f 9 20 24
f 9 24 17
f 9 17 16
f 9 16 10
f 10 16 17
f 10 17 18
f 12 19 20
f 12 20 21
f 12 21 13
f 13 22 14
f 13 21 20
f 13 20 22
f 14 22 23
f 17 24 25
f 17 25 26
f 17 26 18
f 19 26 25
f 19 25 24
f 19 24 20
f 20 27 22
f 22 27 23

