# https://github.com/mikedh/trimesh
v -0.08215957 0.02759327 -0.06746631
v -0.08240436 0.02759327 -0.06752723
v -0.08215957 0.02203828 -0.06793933
v -0.08215957 0.02759327 -0.07593899
v -0.08249365 0.02759327 -0.06754992
v -0.09240853 0.02759327 -0.07037972
v -0.08235822 0.02203828 -0.06801101
v -0.08215957 0.02203828 -0.07593899
v -0.08847287 0.02203828 -0.07823723
v -0.09151566 0.02759327 -0.07934455
v -0.09240853 0.02203828 -0.07166144
v -0.09240853 0.02759327 -0.07965034
v -0.09151566 0.02203828 -0.07934455
v -0.09191695 0.02203828 -0.07949028
v -0.09240853 0.02619528 -0.07966826
v -0.09240853 0.02203828 -0.07966826
f 1 2 3
f 1 3 8
f 1 8 4
f 1 4 10
f 1 10 12
f 1 12 6
f 1 6 5
f 1 5 2
f 2 5 3
f 3 5 6
f 3 6 7
f 3 7 11
f 3 11 16
f 3 16 14
f 3 14 13
f 3 13 9
f 3 9 8
f 4 8 9
f 4 9 10
f 6 11 7
f 6 12 15
f 6 15 16
f 6 16 11
f 9 13 10
f 10 13 14
f 10 14 15
f 10 15 12
f 14 16 15

