# https://github.com/mikedh/trimesh
v -0.00552684 0.00108373 -0.01168064
v -0.00552684 0.00329750 -0.01174449
v -0.00552684 -0.00130294 -0.01168727
v 0.00206405 -0.00055499 -0.01173619
v 0.00206405 0.00077177 -0.01175029
v -0.00552684 0.00430479 -0.01180087
v -0.00552684 -0.00255453 -0.01172127
v -0.00552684 -0.00331752 -0.01176190
v -0.00552684 -0.00423460 -0.01181497
v -0.00552684 -0.00459542 -0.01186389
v 0.00206405 -0.00169759 -0.01207532
v 0.00206405 0.00165502 -0.01199489
v -0.00552684 0.00459044 -0.01187881
v -0.00552684 -0.00677161 -0.01279587
v 0.00206405 -0.00356558 -0.01283816
v 0.00206405 0.00272621 -0.01239207
v -0.00552684 0.00573679 -0.01235724
v 0.00206405 -0.00571922 -0.01381408
v -0.00552684 -0.00882001 -0.01375273
v 0.00206405 0.00312085 -0.01255790
v -0.00552684 0.00778520 -0.01322869
v 0.00206405 -0.01927626 -0.02015139
v -0.00552684 -0.01264996 -0.01554372
v 0.00206405 0.01236309 -0.01692843
v -0.00552684 0.01248336 -0.01538121
v -0.00552684 0.01008542 -0.01425769
v 0.00206405 0.01912093 -0.02015139
v -0.00552684 -0.01407068 -0.01629412
v -0.00552684 -0.01675428 -0.01937032
v -0.00552684 -0.01731054 -0.02015139
v -0.00552684 0.01373120 -0.01606444
v -0.00552684 0.01820009 -0.02015139
v -0.00552684 0.01449042 -0.01656691
f 1 2 6
f 1 6 13
f 1 13 17
f 1 17 21
f 1 21 26
f 1 26 25
f 1 25 31
f 1 31 33
f 1 33 32
f 1 32 30
f 1 30 29
f 1 29 28
f 1 28 23
f 1 23 19
f 1 19 14
f 1 14 10
f 1 10 9
f 1 9 8
f 1 8 7
f 1 7 3
f 1 3 4
f 1 4 5
f 1 5 2
f 2 5 6
f 3 7 4
f 4 7 8
f 4 8 9
f 4 9 10
f 4 10 11
f 4 11 15
f 4 15 18
f 4 18 22
f 4 22 27
f 4 27 24
f 4 24 20
f 4 20 16
f 4 16 12
f 4 12 5
f 5 12 13
f 5 13 6
f 10 14 15
f 10 15 11
f 12 16 13
f 13 16 17
f 14 18 15
f 14 19 18
f 16 20 17
f 17 20 21
f 18 19 22
f 19 23 22
f 20 24 25
f 20 25 26
f 20 26 21
f 22 23 28
f 22 28 29
f 22 29 30
f 22 30 32
f 22 32 27
f 24 27 25
f 25 27 31
f 27 32 33
f 27 33 31

