# https://github.com/mikedh/trimesh
v -0.01320335 -0.02386684 -0.02872776
v -0.01216171 -0.02494267 -0.02671289
v -0.01320335 -0.02386684 -0.02671289
v -0.01320335 -0.02383482 -0.02900110
v -0.01191363 -0.02486582 -0.02900110
v -0.01101695 -0.02583919 -0.02671289
v -0.01072852 -0.02567270 -0.02526393
v -0.01320335 -0.02289347 -0.02474821
v -0.01320335 -0.02360428 -0.02956915
v -0.00692363 -0.02843912 -0.03010410
v -0.00929832 -0.02697906 -0.02671289
v -0.00813563 -0.02770909 -0.02534829
v -0.01320335 -0.02143982 -0.02262976
v -0.01320335 -0.02247723 -0.02413958
v -0.00375238 -0.03011690 -0.02301416
v -0.01320335 -0.02338015 -0.03010410
v -0.00552631 -0.02916274 -0.03026213
v -0.00388987 -0.03016172 -0.02442467
v -0.00680556 -0.02849675 -0.02671289
v -0.00815357 -0.02772190 -0.02671289
v -0.01037882 -0.02105559 -0.02093629
v -0.01320335 -0.01445973 -0.01935387
v -0.00222654 -0.03073166 -0.02442467
v 0.00206405 -0.03169222 -0.02227633
v 0.00206405 -0.03165380 -0.02212898
v 0.00206405 -0.03093658 -0.02086262
v 0.00206405 -0.03078929 -0.02067469
v 0.00082066 -0.03020015 -0.02084980
v -0.01320335 0.02303422 -0.03010410
v -0.00244473 -0.03075087 -0.03026213
v -0.00552631 0.02900251 -0.03026213
v -0.00139114 -0.03112228 -0.03026213
v 0.00193104 -0.03227496 -0.03026213
v -0.00741979 -0.01634884 -0.01935387
v -0.01320335 0.01395370 -0.01935387
v 0.00206405 -0.02901545 -0.02028389
v 0.00206405 -0.03182670 -0.02443535
v -0.01320335 0.02336081 -0.02915593
v -0.00836877 0.02788186 -0.03010410
v 0.00193104 0.03314574 -0.03026213
v 0.00206405 -0.03171143 -0.02739092
v -0.00676073 -0.01650253 -0.01935387
v 0.00206405 -0.02874009 -0.02025719
v -0.01054470 0.02079931 -0.02089785
v -0.01320335 0.02158057 -0.02269276
v -0.00678913 0.01705952 -0.01935387
v 0.00206405 0.02847741 -0.02025719
v 0.00206405 0.03064187 -0.02059354
v -0.01320335 0.02341204 -0.02900110
v -0.00846441 0.02761290 -0.02671289
v -0.00838371 0.02756807 -0.02518278
v -0.00410059 0.03000150 -0.02442467
v -0.01217815 0.02469279 -0.02671289
v -0.01103339 0.02571739 -0.02671289
v -0.00960917 0.02686366 -0.02671289
v -0.00388240 0.02992465 -0.02295970
v -0.00222654 0.03076995 -0.02442467
v 0.00206405 0.03172411 -0.02176381
v 0.00206405 0.03177534 -0.02213539
v 0.00206405 0.03192262 -0.02367083
v 0.00206405 0.03189701 -0.02442467
v 0.00206405 0.03176893 -0.02739092
v -0.00557712 -0.01672026 -0.01935387
v 0.00206405 -0.01926895 -0.02015255
v -0.00552780 -0.01672666 -0.01935387
v -0.01133826 0.02158057 -0.02174886
v -0.01320335 0.02190716 -0.02294369
v -0.00552780 0.01702110 -0.01935387
v 0.00206405 0.01911512 -0.02015255
v -0.01320335 0.02346327 -0.02687839
v -0.01071208 0.02549326 -0.02530985
v -0.01254130 0.02275886 -0.02327362
v -0.01320335 0.02344406 -0.02671289
v -0.01320335 0.02266921 -0.02442574
v -0.01320335 0.02240665 -0.02384061
f 1 2 3
f 1 3 8
f 1 8 14
f 1 14 13
f 1 13 22
f 1 22 35
f 1 35 45
f 1 45 67
f 1 67 75
f 1 75 74
f 1 74 73
f 1 73 70
f 1 70 49
f 1 49 38
f 1 38 29
f 1 29 16
f 1 16 9
f 1 9 4
f 1 4 2
f 2 4 5
f 2 5 6
f 2 6 7
f 2 7 8
f 2 8 3
f 4 9 10
f 4 10 5
f 5 10 6
f 6 10 11
f 6 11 12
f 6 12 7
f 7 13 14
f 7 14 8
f 7 12 15
f 7 15 13
f 9 16 10
f 10 17 18
f 10 18 19
f 10 19 20
f 10 20 11
f 10 16 17
f 11 20 12
f 12 20 18
f 12 18 15
f 13 15 21
f 13 21 22
f 15 18 23
f 15 23 24
f 15 24 25
f 15 25 26
f 15 26 27
f 15 27 28
f 15 28 21
f 16 29 31
f 16 31 17
f 17 30 18
f 17 31 40
f 17 40 33
f 17 33 32
f 17 32 30
f 18 30 32
f 18 32 33
f 18 33 23
f 18 20 19
f 21 28 27
f 21 27 22
f 22 34 42
f 22 42 63
f 22 63 65
f 22 65 68
f 22 68 46
f 22 46 35
f 22 27 36
f 22 36 34
f 23 33 24
f 24 33 37
f 24 37 41
f 24 41 62
f 24 62 61
f 24 61 60
f 24 60 59
f 24 59 58
f 24 58 48
f 24 48 47
f 24 47 69
f 24 69 64
f 24 64 43
f 24 43 36
f 24 36 27
f 24 27 26
f 24 26 25
f 29 38 39
f 29 39 31
f 31 39 40
f 33 41 37
f 33 40 62
f 33 62 41
f 34 36 43
f 34 43 42
f 35 44 45
f 35 46 47
f 35 47 48
f 35 48 44
f 38 49 39
f 39 50 51
f 39 51 52
f 39 52 40
f 39 49 53
f 39 53 54
f 39 54 55
f 39 55 50
f 40 52 56
f 40 56 57
f 40 57 58
f 40 58 59
f 40 59 60
f 40 60 61
f 40 61 62
f 42 43 63
f 43 64 65
f 43 65 63
f 44 66 45
f 44 48 56
f 44 56 66
f 45 66 56
f 45 56 67
f 46 68 47
f 47 68 69
f 48 58 56
f 49 70 53
f 50 55 51
f 51 56 52
f 51 55 54
f 51 54 53
f 51 53 71
f 51 71 72
f 51 72 56
f 53 70 73
f 53 73 74
f 53 74 71
f 56 58 57
f 56 72 67
f 64 69 68
f 64 68 65
f 67 72 75
f 71 74 75
f 71 75 72

