# https://github.com/mikedh/trimesh
v 0.09773161 -0.00776116 -0.01046408
v 0.09773161 -0.00711349 -0.01046408
v 0.09995983 -0.00776116 -0.00965332
v 0.09773161 -0.00776116 -0.00246280
v 0.09773161 -0.00585648 -0.01046244
v 0.09915782 0.00227819 -0.00994101
v 0.09995983 0.00227819 -0.00965332
v 0.10309008 -0.00776116 -0.00851402
v 0.09773161 -0.00122256 -0.00232712
v 0.11665387 -0.00776116 0.00448091
v 0.11665387 -0.00353706 0.00574608
v 0.11665387 -0.00127858 0.00618742
v 0.09773161 0.00227819 -0.01032023
v 0.09851140 0.00227819 -0.01015187
v 0.10309008 0.00227819 -0.00851402
v 0.10499416 -0.00776116 -0.00782096
v 0.09773161 0.00095534 -0.00232712
v 0.11665387 0.00101136 0.00623482
v 0.11302908 0.00101136 0.00459533
v 0.11665387 -0.00776116 -0.00357594
v 0.09773161 0.00227819 -0.00233366
v 0.10653891 0.00227819 -0.00725866
v 0.10653891 -0.00776116 -0.00725866
v 0.11665387 0.00227819 0.00620049
v 0.11643902 -0.00776116 -0.00365441
v 0.11665387 -0.00585648 -0.00357594
v 0.11311613 0.00227819 -0.00486399
v 0.11665387 0.00227819 -0.00288779
v 0.11665387 -0.00568449 -0.00356941
v 0.11453493 0.00227819 -0.00420853
v 0.11646309 0.00227819 -0.00313951
f 1 2 7
f 1 7 3
f 1 3 8
f 1 8 16
f 1 16 23
f 1 23 25
f 1 25 20
f 1 20 10
f 1 10 4
f 1 4 9
f 1 9 17
f 1 17 21
f 1 21 13
f 1 13 5
f 1 5 2
f 2 5 6
f 2 6 7
f 3 7 15
f 3 15 8
f 4 10 11
f 4 11 12
f 4 12 9
f 5 13 14
f 5 14 6
f 6 14 13
f 6 13 21
f 6 21 24
f 6 24 28
f 6 28 31
f 6 31 30
f 6 30 27
f 6 27 22
f 6 22 15
f 6 15 7
f 8 15 16
f 9 12 18
f 9 18 19
f 9 19 17
f 10 20 26
f 10 26 29
f 10 29 28
f 10 28 24
f 10 24 18
f 10 18 12
f 10 12 11
f 15 22 16
f 16 22 23
f 17 19 21
f 18 24 21
f 18 21 19
f 20 25 26
f 22 27 25
f 22 25 23
f 25 27 26
f 26 27 29
f 27 30 29
f 28 29 31
f 29 30 31

