# https://github.com/mikedh/trimesh
v 0.11440886 0.03898634 0.00573600
v 0.11442242 0.03897756 0.00573600
v 0.11440886 0.03924106 0.00533833
v 0.11440886 0.03015883 0.00573600
v 0.11535970 0.03855594 0.00533833
v 0.11522006 0.03840223 0.00573600
v 0.11440886 0.04042465 0.00082814
v 0.11440886 0.01859304 0.00360685
v 0.11900234 0.01859304 0.00573600
v 0.11588309 0.03893364 0.00246046
v 0.11681183 0.03723840 0.00573600
v 0.11694293 0.03729111 0.00527982
v 0.11833278 0.03684534 0.00304853
v 0.11671790 0.03811676 0.00315365
v 0.11733723 0.03832976 0.00075971
v 0.11502166 0.04058935 -0.00152910
v 0.11440886 0.04102413 -0.00152910
v 0.11619301 0.03915542 0.00075971
v 0.11440886 0.01859304 -0.00439309
v 0.11953980 0.01859304 0.00573600
v 0.11783450 0.03634028 0.00573600
v 0.11807310 0.03660379 0.00447755
v 0.11953980 0.03639518 0.00075971
v 0.11874215 0.03718570 0.00075971
v 0.11650594 0.03944528 -0.00152910
v 0.11440886 0.04100437 -0.00245335
v 0.11440886 0.03535213 -0.00439409
v 0.11453593 0.01859304 -0.00434747
v 0.11953980 0.01859304 -0.00252575
v 0.11953980 0.03426735 0.00573600
v 0.11813588 0.03597796 0.00573600
v 0.11873713 0.03545314 0.00527982
v 0.11953980 0.03531260 0.00338669
v 0.11953980 0.03538726 0.00320819
v 0.11953980 0.03639957 0.00009925
v 0.11765016 0.03840003 -0.00152910
v 0.11630050 0.03931792 -0.00309299
v 0.11440886 0.04034780 -0.00361263
v 0.11440886 0.03555854 -0.00439409
v 0.11682540 0.01859304 -0.00351446
v 0.11855178 0.01859304 -0.00288573
v 0.11953980 0.03108769 -0.00252575
v 0.11953980 0.03445401 0.00531751
v 0.11867836 0.03532138 0.00573600
v 0.11953980 0.03576715 -0.00162629
v 0.11868489 0.03725597 -0.00152910
v 0.11440886 0.04000963 -0.00384370
v 0.11440886 0.04017432 -0.00373263
v 0.11827402 0.03694855 -0.00281532
v 0.11696855 0.03768417 -0.00326158
v 0.11440886 0.03764245 -0.00439309
v 0.11453593 0.03764245 -0.00434747
v 0.11682540 0.03535213 -0.00351446
v 0.11855178 0.03306400 -0.00288573
v 0.11848899 0.03535213 -0.00288573
v 0.11953980 0.03336045 -0.00248806
v 0.11953980 0.03565736 -0.00176810
v 0.11440886 0.03784667 -0.00438813
f 1 2 3
f 1 3 7
f 1 7 17
f 1 17 26
f 1 26 38
f 1 38 48
f 1 48 47
f 1 47 58
f 1 58 51
f 1 51 39
f 1 39 27
f 1 27 19
f 1 19 8
f 1 8 4
f 1 4 9
f 1 9 20
f 1 20 30
f 1 30 44
f 1 44 31
f 1 31 21
f 1 21 11
f 1 11 6
f 1 6 2
f 2 5 3
f 2 6 5
f 3 5 7
f 4 8 9
f 5 10 7
f 5 6 11
f 5 11 12
f 5 12 13
f 5 13 14
f 5 14 15
f 5 15 10
f 7 16 17
f 7 10 18
f 7 18 16
f 8 19 28
f 8 28 40
f 8 40 41
f 8 41 29
f 8 29 20
f 8 20 9
f 10 15 18
f 11 21 22
f 11 22 12
f 12 22 13
f 13 22 23
f 13 23 24
f 13 24 15
f 13 15 14
f 15 24 25
f 15 25 16
f 15 16 18
f 16 26 17
f 16 25 26
f 19 27 28
f 20 29 42
f 20 42 56
f 20 56 57
f 20 57 45
f 20 45 35
f 20 35 23
f 20 23 34
f 20 34 33
f 20 33 43
f 20 43 30
f 21 31 22
f 22 31 32
f 22 32 33
f 22 33 34
f 22 34 23
f 23 35 36
f 23 36 24
f 24 36 25
f 25 37 26
f 25 36 37
f 26 37 38
f 27 39 53
f 27 53 40
f 27 40 28
f 29 41 54
f 29 54 42
f 30 43 32
f 30 32 44
f 31 44 32
f 32 43 33
f 35 45 46
f 35 46 36
f 36 46 37
f 37 47 48
f 37 48 38
f 37 46 49
f 37 49 50
f 37 50 47
f 39 51 52
f 39 52 53
f 40 53 54
f 40 54 41
f 42 54 55
f 42 55 56
f 45 57 49
f 45 49 46
f 47 50 58
f 49 58 50
f 49 57 56
f 49 56 55
f 49 55 58
f 51 58 52
f 52 58 55
f 52 55 53
f 53 55 54

