# https://github.com/mikedh/trimesh
v 0.02016738 0.00559046 -0.00762063
v 0.02026601 0.00559046 -0.00152975
v 0.02017758 0.00787885 -0.00762063
v 0.02021670 -0.00585434 -0.00762063
v 0.02025071 -0.00585434 -0.00152975
v 0.02027962 0.00559046 -0.00092689
v 0.02030512 0.00787885 -0.00610823
v 0.02066224 0.01016725 -0.00762063
v 0.02022690 -0.00736763 -0.00762063
v 0.02027111 -0.00814557 -0.00762063
v 0.02027792 -0.00585434 -0.00092689
v 0.02111798 0.00780219 -0.00092689
v 0.02139857 0.01178275 -0.00762063
v 0.02054830 -0.00965886 -0.00762063
v 0.02085780 -0.00739886 -0.00092689
v 0.02266888 0.00851767 -0.00092689
v 0.02171487 0.00907699 -0.00252185
v 0.02242230 0.01222282 -0.00762063
v 0.02138327 -0.01159520 -0.00762063
v 0.02106357 -0.00785597 -0.00092689
v 0.02295797 0.00862556 -0.00092689
v 0.03023118 0.01425569 -0.00762063
v 0.02168936 -0.01186492 -0.00762063
v 0.02295797 -0.00872193 -0.00092689
v 0.02982475 0.00891800 -0.00092689
v 0.03211368 0.01456516 -0.00762063
v 0.02295797 -0.01233907 -0.00762063
v 0.03219701 -0.01436057 -0.00762063
v 0.03256602 -0.01444007 -0.00762063
v 0.02982475 -0.00885821 -0.00092689
v 0.03007133 0.00892652 -0.00092689
v 0.03346731 0.01385536 -0.00706102
v 0.03359145 0.01416767 -0.00762063
v 0.03211368 0.00894071 -0.00092689
v 0.03233645 0.00890948 -0.00092689
v 0.03271057 -0.01444007 -0.00762063
v 0.03211368 -0.00883266 -0.00092689
v 0.03354894 0.00925302 -0.00211164
v 0.03385163 0.00784194 -0.00092689
v 0.03540763 0.01109850 -0.00762063
v 0.03343840 -0.01422713 -0.00762063
v 0.03333637 -0.01395457 -0.00719732
v 0.03223952 -0.00877587 -0.00092689
v 0.03455566 0.00559046 -0.00092689
v 0.03543994 0.00860569 -0.00520590
v 0.03573923 0.00950287 -0.00673206
v 0.03542804 0.01102752 -0.00758197
v 0.03543484 0.01104456 -0.00762063
v 0.03539743 -0.01126585 -0.00762063
v 0.03540423 -0.01125165 -0.00761211
v 0.03377681 -0.00796954 -0.00092689
v 0.03346391 -0.00943741 -0.00234689
v 0.03558619 0.00249858 -0.00261752
v 0.03550286 0.00402606 -0.00279904
v 0.03699423 0.00549393 -0.00762063
v 0.03665753 0.00710091 -0.00762063
v 0.03649597 0.00787034 -0.00762063
v 0.03591779 0.00785898 -0.00602501
v 0.03458457 -0.00428710 -0.00092689
v 0.03560319 -0.00208673 -0.00257624
v 0.03590079 0.00989468 -0.00762063
v 0.03545865 0.01098777 -0.00762063
v 0.03541103 -0.01124030 -0.00762063
v 0.03586167 -0.01010746 -0.00762063
v 0.03571373 -0.00972417 -0.00680480
v 0.03441962 -0.00625467 -0.00092689
v 0.03698573 0.00101084 -0.00610823
v 0.03736495 0.00329923 -0.00762063
v 0.03680717 0.00329923 -0.00610823
v 0.03590589 0.00327652 -0.00366533
v 0.03454205 -0.00585434 -0.00092689
v 0.03560319 -0.00280504 -0.00257624
v 0.03699764 -0.00127756 -0.00610823
v 0.03622729 -0.00891500 -0.00762063
v 0.03643816 -0.00811718 -0.00762063
v 0.03588208 -0.00806324 -0.00606826
v 0.03539402 -0.00877303 -0.00527799
v 0.03753501 0.00069852 -0.00762063
v 0.03753331 0.00101084 -0.00762063
v 0.03740577 0.00276262 -0.00762063
v 0.03695682 -0.00573226 -0.00762063
v 0.03734795 -0.00356595 -0.00762063
v 0.03549436 -0.00433253 -0.00282525
v 0.03591609 -0.00356879 -0.00368040
v 0.03680207 -0.00356595 -0.00610823
v 0.03751120 -0.00158987 -0.00762063
v 0.03753671 -0.00127756 -0.00762063
f 1 2 3
f 1 3 8
f 1 8 13
f 1 13 18
f 1 18 22
f 1 22 26
f 1 26 33
f 1 33 40
f 1 40 48
f 1 48 62
f 1 62 61
f 1 61 57
f 1 57 56
f 1 56 55
f 1 55 68
f 1 68 80
f 1 80 79
f 1 79 78
f 1 78 87
f 1 87 86
f 1 86 82
f 1 82 81
f 1 81 75
f 1 75 74
f 1 74 64
f 1 64 63
f 1 63 49
f 1 49 41
f 1 41 36
f 1 36 29
f 1 29 28
f 1 28 27
f 1 27 23
f 1 23 19
f 1 19 14
f 1 14 10
f 1 10 9
f 1 9 4
f 1 4 5
f 1 5 2
f 2 6 3
f 2 5 6
f 3 6 7
f 3 7 8
f 4 9 5
f 5 9 10
f 5 10 11
f 5 11 6
f 6 12 8
f 6 8 7
f 6 11 15
f 6 15 20
f 6 20 24
f 6 24 30
f 6 30 37
f 6 37 43
f 6 43 51
f 6 51 66
f 6 66 71
f 6 71 59
f 6 59 44
f 6 44 39
f 6 39 35
f 6 35 34
f 6 34 31
f 6 31 25
f 6 25 21
f 6 21 16
f 6 16 12
f 8 12 13
f 10 14 11
f 11 14 15
f 12 16 17
f 12 17 13
f 13 17 18
f 14 19 15
f 15 19 20
f 16 21 17
f 17 21 18
f 18 21 22
f 19 23 20
f 20 23 24
f 21 25 26
f 21 26 22
f 23 27 24
f 24 27 28
f 24 28 29
f 24 29 30
f 25 31 26
f 26 32 33
f 26 31 34
f 26 34 35
f 26 35 32
f 29 36 30
f 30 36 37
f 32 35 38
f 32 38 39
f 32 39 33
f 33 39 40
f 35 39 38
f 36 41 42
f 36 42 37
f 37 42 43
f 39 44 45
f 39 45 46
f 39 46 47
f 39 47 40
f 40 47 48
f 41 49 50
f 41 50 51
f 41 51 42
f 42 51 52
f 42 52 43
f 43 52 51
f 44 53 54
f 44 54 55
f 44 55 56
f 44 56 57
f 44 57 58
f 44 58 45
f 44 59 60
f 44 60 53
f 45 58 57
f 45 57 46
f 46 61 62
f 46 62 47
f 46 57 61
f 47 62 48
f 49 63 50
f 50 63 64
f 50 64 65
f 50 65 51
f 51 65 66
f 53 67 68
f 53 68 69
f 53 69 70
f 53 70 54
f 53 60 67
f 54 70 69
f 54 69 68
f 54 68 55
f 59 71 72
f 59 72 60
f 60 72 73
f 60 73 67
f 64 74 65
f 65 74 75
f 65 75 76
f 65 76 71
f 65 71 77
f 65 77 66
f 66 77 71
f 67 78 79
f 67 79 80
f 67 80 68
f 67 73 78
f 71 81 82
f 71 82 83
f 71 83 72
f 71 76 75
f 71 75 81
f 72 83 84
f 72 84 85
f 72 85 82
f 72 82 73
f 73 82 86
f 73 86 87
f 73 87 78
f 82 85 83
f 83 85 84

