# https://github.com/mikedh/trimesh
v -0.04088540 0.00099750 -0.00434003
v -0.03887218 0.00099750 -0.00429989
v -0.04088540 0.00100029 -0.00429989
v -0.04088540 0.00100587 -0.00568866
v -0.03201279 0.00099750 -0.00568866
v -0.03429378 0.00099750 -0.00429824
v -0.04088540 0.00457176 -0.00007256
v -0.04088540 0.01073014 -0.00568866
v -0.03016023 0.00099750 -0.00568866
v -0.03427958 0.00099750 -0.00429824
v -0.03885797 0.00457316 -0.00007256
v -0.04088540 0.01220698 -0.00007256
v -0.04088540 0.01174678 -0.00349170
v -0.03785573 0.01380933 -0.00568866
v -0.03038975 0.00553540 -0.00007256
v -0.03055369 0.00099750 -0.00467815
v -0.02990338 0.00331387 -0.00568866
v -0.02981923 0.00559118 -0.00381883
v -0.02994054 0.00788105 -0.00007256
v -0.03199093 0.00099750 -0.00434552
v -0.03427958 0.00459826 -0.00007256
v -0.03489272 0.00459268 -0.00007256
v -0.03656823 0.00457873 -0.00007256
v -0.03713110 0.00457734 -0.00007256
v -0.04030613 0.01237712 -0.00007256
v -0.03642396 0.01476042 -0.00568866
v -0.03675294 0.01466001 -0.00568866
v -0.04088540 0.01221117 -0.00024464
v -0.04088540 0.01218885 -0.00183793
v -0.03199093 0.00474748 -0.00007256
v -0.02974600 0.00559118 -0.00568866
v -0.02973070 0.00788105 -0.00381883
v -0.02972851 0.01016813 -0.00381883
v -0.02994928 0.00871221 -0.00007256
v -0.03278878 0.00469448 -0.00007256
v -0.03792786 0.01266440 -0.00007256
v -0.03776938 0.01364477 -0.00257410
v -0.03471567 0.01518437 -0.00568866
v -0.04088540 0.01224045 -0.00154764
v -0.02972523 0.00788105 -0.00568866
v -0.02971976 0.01016813 -0.00568866
v -0.03001158 0.01016813 -0.00007256
v -0.02972414 0.01203963 -0.00568866
v -0.03656823 0.01276760 -0.00007256
v -0.03414077 0.01524434 -0.00568866
v -0.02975692 0.01245800 -0.00568866
v -0.02990994 0.01245800 -0.00381883
v -0.03017334 0.01095327 -0.00007256
v -0.03427958 0.01288334 -0.00007256
v -0.03199093 0.01441318 -0.00381883
v -0.03199093 0.01514393 -0.00568866
v -0.03021815 0.01403804 -0.00568866
v -0.03046735 0.01397947 -0.00381883
v -0.03046844 0.01197688 -0.00007256
v -0.03199093 0.01271042 -0.00007256
v -0.03199093 0.01377307 -0.00230470
v -0.03070670 0.01371032 -0.00244600
v -0.03032089 0.01431695 -0.00568866
f 1 2 3
f 1 3 7
f 1 7 12
f 1 12 28
f 1 28 39
f 1 39 29
f 1 29 13
f 1 13 8
f 1 8 4
f 1 4 5
f 1 5 9
f 1 9 16
f 1 16 20
f 1 20 10
f 1 10 6
f 1 6 2
f 2 6 7
f 2 7 3
f 4 8 14
f 4 14 27
f 4 27 26
f 4 26 38
f 4 38 45
f 4 45 51
f 4 51 58
f 4 58 52
f 4 52 46
f 4 46 43
f 4 43 41
f 4 41 40
f 4 40 31
f 4 31 17
f 4 17 9
f 4 9 5
f 6 10 7
f 7 10 11
f 7 11 24
f 7 24 23
f 7 23 22
f 7 22 21
f 7 21 35
f 7 35 30
f 7 30 15
f 7 15 19
f 7 19 34
f 7 34 42
f 7 42 48
f 7 48 54
f 7 54 55
f 7 55 49
f 7 49 44
f 7 44 36
f 7 36 25
f 7 25 12
f 8 13 14
f 9 15 16
f 9 17 18
f 9 18 19
f 9 19 15
f 10 20 21
f 10 21 22
f 10 22 23
f 10 23 24
f 10 24 11
f 12 25 26
f 12 26 27
f 12 27 28
f 13 29 14
f 14 29 27
f 15 30 16
f 16 30 20
f 17 31 18
f 18 31 32
f 18 32 19
f 19 32 33
f 19 33 34
f 20 30 35
f 20 35 21
f 25 36 37
f 25 37 26
f 26 37 38
f 27 29 39
f 27 39 28
f 31 40 32
f 32 40 41
f 32 41 33
f 33 42 34
f 33 41 43
f 33 43 42
f 36 44 45
f 36 45 38
f 36 38 37
f 42 43 46
f 42 46 47
f 42 47 48
f 44 49 45
f 45 50 51
f 45 49 50
f 46 52 47
f 47 52 53
f 47 53 54
f 47 54 48
f 49 55 56
f 49 56 50
f 50 56 57
f 50 57 51
f 51 57 53
f 51 53 58
f 52 58 53
f 53 57 54
f 54 57 55
f 55 57 56

