# https://github.com/mikedh/trimesh
v -0.05169139 -0.00814646 0.00872411
v -0.05169139 -0.00624369 0.00872278
v -0.05264575 -0.00814646 0.00839211
v -0.05264607 -0.01043684 0.00839211
v -0.05169139 -0.01043684 0.00872411
v -0.05169139 -0.00585844 0.00872234
v -0.05264323 -0.00585844 0.00839122
v -0.05491553 -0.00814646 0.00760167
v -0.05491553 -0.00589132 0.00760034
v -0.05491553 -0.00817935 0.00760167
v -0.05488428 -0.01043684 0.00761228
v -0.05491553 -0.01275540 0.00760079
v -0.05488428 -0.01501289 0.00760786
v -0.05169139 -0.01185335 0.00868299
v -0.05169139 -0.00396036 0.00872013
v -0.05491553 -0.00585844 0.00759990
v -0.05169139 -0.00168643 0.00871217
v -0.05491553 -0.01046973 0.00760123
v -0.05491553 -0.01504578 0.00759681
v -0.05491553 -0.01733615 0.00739124
v -0.05491553 -0.01967351 0.00689744
v -0.05352974 -0.01878790 0.00671442
v -0.05169139 -0.01190738 0.00865603
v -0.05491553 -0.00360095 0.00745667
v -0.05169139 -0.00023468 0.00858264
v -0.05491553 -0.02093733 0.00640099
v -0.05491553 -0.02233740 0.00540277
v -0.05491553 -0.02351195 0.00431924
v -0.05353669 -0.02108297 0.00451508
v -0.05311094 -0.01956780 0.00530286
v -0.05169139 -0.01646699 0.00598587
v -0.05169139 -0.01608878 0.00633202
v -0.05169139 -0.01475684 0.00720866
v -0.05169139 -0.01412728 0.00753006
v -0.05491553 -0.00356806 0.00745181
v -0.05169139 0.00037373 0.00785012
v -0.05491553 -0.00187671 0.00689390
v -0.05491553 -0.02362470 0.00420872
v -0.05369290 -0.02161622 0.00420872
v -0.05169139 -0.01716702 0.00521489
v -0.05192935 -0.01739488 0.00543991
v -0.05169139 0.00037373 0.00622327
v -0.05179333 0.00037373 0.00762820
v -0.05491553 -0.00187671 0.00607296
v -0.05194198 0.00034085 0.00636252
v -0.05491553 -0.00386875 0.00420872
v -0.05350954 -0.02123567 0.00420872
v -0.05169139 -0.01718581 0.00420872
v -0.05187664 0.00037373 0.00633069
v -0.05169139 -0.00124480 0.00558491
v -0.05169139 -0.00479899 0.00420872
f 1 2 3
f 1 3 4
f 1 4 5
f 1 5 14
f 1 14 23
f 1 23 34
f 1 34 33
f 1 33 32
f 1 32 31
f 1 31 40
f 1 40 48
f 1 48 51
f 1 51 50
f 1 50 42
f 1 42 36
f 1 36 25
f 1 25 17
f 1 17 15
f 1 15 6
f 1 6 2
f 2 6 7
f 2 7 3
f 3 8 4
f 3 7 9
f 3 9 8
f 4 8 10
f 4 10 11
f 4 11 12
f 4 12 5
f 5 12 13
f 5 13 14
f 6 15 7
f 7 15 9
f 8 9 16
f 8 16 24
f 8 24 35
f 8 35 37
f 8 37 44
f 8 44 46
f 8 46 38
f 8 38 28
f 8 28 27
f 8 27 26
f 8 26 21
f 8 21 20
f 8 20 19
f 8 19 12
f 8 12 18
f 8 18 10
f 9 15 17
f 9 17 16
f 10 18 11
f 11 18 12
f 12 19 13
f 13 19 20
f 13 20 14
f 14 20 21
f 14 21 22
f 14 22 23
f 16 17 24
f 17 25 24
f 21 26 22
f 22 26 27
f 22 27 28
f 22 28 29
f 22 29 30
f 22 30 31
f 22 31 32
f 22 32 33
f 22 33 34
f 22 34 23
f 24 25 35
f 25 36 37
f 25 37 35
f 28 38 29
f 29 38 39
f 29 39 40
f 29 40 41
f 29 41 31
f 29 31 30
f 31 41 40
f 36 42 49
f 36 49 43
f 36 43 37
f 37 43 45
f 37 45 44
f 38 46 51
f 38 51 48
f 38 48 47
f 38 47 39
f 39 47 40
f 40 47 48
f 42 50 46
f 42 46 49
f 43 49 45
f 44 45 49
f 44 49 46
f 46 50 51

