# https://github.com/mikedh/trimesh
v 0.03743355 0.04221992 -0.03241106
v 0.05076782 0.04222079 -0.02756015
v 0.03743355 0.03733581 -0.03240752
v 0.03743355 0.04251518 -0.03239335
v 0.04289325 0.04450953 -0.03030983
v 0.05619046 0.04348833 -0.02557230
v 0.08135820 0.04345252 -0.01641614
v 0.10052892 0.04222079 -0.00944627
v 0.10052892 0.03798836 -0.00944627
v 0.09995454 0.03798836 -0.00965533
v 0.08077147 0.03763981 -0.01663583
v 0.03929874 0.03733581 -0.03172719
v 0.03743355 0.03733581 -0.02366595
v 0.03743355 0.04452264 -0.03220200
v 0.04264003 0.04572903 -0.03021770
v 0.04932878 0.04566788 -0.02786488
v 0.04948318 0.04450953 -0.02792157
v 0.09322873 0.04451041 -0.01199398
v 0.09985572 0.04411381 -0.00961635
v 0.10052892 0.04309436 -0.00941438
v 0.07449652 0.04566526 -0.01870873
v 0.10052892 0.03798836 -0.00128936
v 0.04486961 0.03733581 -0.02914050
v 0.04413465 0.03733581 -0.02979603
v 0.04299207 0.03733581 -0.03036652
v 0.04127510 0.03733581 -0.03100433
v 0.08077147 0.03763981 -0.00861357
v 0.04049073 0.03733581 -0.02153990
v 0.03743355 0.04081347 -0.02040602
v 0.03743355 0.04596577 -0.03116024
v 0.04127510 0.04586007 -0.03040904
v 0.05446115 0.04581639 -0.02575301
v 0.06113137 0.04577708 -0.02340728
v 0.08630529 0.04577620 -0.01425112
v 0.09298786 0.04572554 -0.01190185
v 0.09964573 0.04563993 -0.00953840
v 0.10052892 0.04487294 -0.00911673
v 0.10052892 0.04061255 0.00296273
v 0.09392663 0.03798836 -0.00188819
v 0.04486961 0.03733581 -0.01965836
v 0.09203056 0.03798836 -0.00226379
v 0.04000282 0.04103973 -0.01865557
v 0.04189272 0.03733581 -0.02071783
v 0.03743355 0.04144157 -0.01999498
v 0.03743355 0.04625754 -0.02899877
v 0.03898993 0.04625754 -0.02899877
v 0.04127510 0.04616145 -0.02899877
v 0.03898993 0.04595529 -0.03073149
v 0.05273183 0.04592646 -0.02597624
v 0.05959351 0.04589763 -0.02360925
v 0.09163528 0.04585832 -0.01209319
v 0.07962271 0.04581464 -0.01659686
v 0.09812023 0.04584172 -0.00977580
v 0.10052892 0.04583648 -0.00801473
v 0.10052892 0.04221817 0.00378834
v 0.09691588 0.04092354 0.00208042
v 0.03963225 0.04221992 -0.01851738
v 0.03743355 0.04221992 -0.01952016
v 0.03743355 0.04625841 -0.02670973
v 0.04586397 0.04624793 -0.02670973
v 0.04356645 0.04625841 -0.02670973
v 0.08935012 0.04625841 -0.01069000
v 0.05273183 0.04622871 -0.02442069
v 0.05959351 0.04619901 -0.02212811
v 0.08477360 0.04619814 -0.01297904
v 0.09163528 0.04615970 -0.01069000
v 0.07789957 0.04592559 -0.01681655
v 0.08477360 0.04589676 -0.01444955
v 0.09621798 0.04594655 -0.01003093
v 0.09621798 0.04624793 -0.00840096
v 0.09873166 0.04598062 -0.00862420
v 0.10052892 0.04585570 -0.00770646
v 0.09850315 0.04616057 -0.00611193
v 0.07658405 0.04296944 -0.00490717
v 0.05141631 0.04298429 -0.01406687
v 0.10052892 0.04454972 0.00292021
v 0.09694676 0.04572816 0.00199184
v 0.09648355 0.04451041 0.00217255
v 0.08980715 0.04451041 -0.00014484
v 0.07658405 0.04410158 -0.00490717
v 0.03947167 0.04450953 -0.01846069
v 0.03743355 0.04450953 -0.01932528
v 0.03743355 0.04625841 -0.02442423
v 0.09392663 0.04625928 -0.00840096
v 0.07789957 0.04622784 -0.01526808
v 0.09621798 0.04625841 -0.00611193
v 0.10052892 0.04595004 -0.00611193
v 0.09621798 0.04624181 -0.00381935
v 0.09621798 0.04619988 -0.00153030
v 0.09850315 0.04609331 -0.00381935
v 0.10052892 0.04594218 -0.00583909
v 0.05141631 0.04407275 -0.01406687
v 0.10052892 0.04483188 0.00270406
v 0.09619328 0.04590636 0.00088275
v 0.09392663 0.04595703 0.00028746
v 0.09163528 0.04589151 -0.00006688
v 0.09013449 0.04576922 -0.00026886
v 0.09850315 0.04572204 0.00199538
v 0.08345191 0.04571680 -0.00261813
v 0.07676316 0.04562770 -0.00497450
v 0.08322339 0.04451041 -0.00253309
v 0.05160160 0.04559887 -0.01414482
v 0.03979283 0.04576397 -0.01858116
v 0.03743355 0.04595616 -0.02022530
v 0.03743355 0.04625666 -0.02213165
v 0.03898993 0.04625841 -0.02213165
v 0.09392663 0.04625841 -0.00153030
v 0.04356645 0.04625841 -0.01984261
v 0.09850315 0.04586880 0.00075873
v 0.09850315 0.04599984 -0.00153030
v 0.10052892 0.04583037 -0.00332327
v 0.10052892 0.04564692 0.00075873
v 0.09978161 0.04567138 0.00193868
v 0.09163528 0.04619290 -0.00153030
v 0.08477360 0.04615184 -0.00381935
v 0.07332305 0.04592034 -0.00686667
v 0.04814914 0.04591947 -0.01602282
v 0.04127510 0.04588715 -0.01838273
v 0.07828867 0.04583823 -0.00474063
v 0.07163079 0.04580853 -0.00707928
v 0.05829035 0.04571331 -0.01177783
v 0.04647541 0.04580678 -0.01623897
v 0.04127510 0.04618853 -0.01984261
v 0.04814914 0.04622085 -0.01755358
v 0.05501700 0.04624356 -0.01526808
v 0.08705877 0.04625666 -0.00381935
v 0.06187868 0.04625579 -0.01297904
v 0.10005336 0.04570544 0.00075873
v 0.10052892 0.04576135 -0.00177480
v 0.08019092 0.04624444 -0.00611547
v 0.07332305 0.04622172 -0.00840451
v 0.05312710 0.04583736 -0.01390387
f 1 2 3
f 1 3 13
f 1 13 29
f 1 29 44
f 1 44 58
f 1 58 82
f 1 82 104
f 1 104 105
f 1 105 83
f 1 83 59
f 1 59 45
f 1 45 30
f 1 30 14
f 1 14 4
f 1 4 5
f 1 5 6
f 1 6 2
f 2 6 7
f 2 7 8
f 2 8 9
f 2 9 10
f 2 10 3
f 3 10 11
f 3 11 12
f 3 12 26
f 3 26 25
f 3 25 24
f 3 24 23
f 3 23 40
f 3 40 43
f 3 43 28
f 3 28 13
f 4 14 5
f 5 15 16
f 5 16 17
f 5 17 6
f 5 14 15
f 6 17 7
f 7 18 19
f 7 19 20
f 7 20 8
f 7 17 21
f 7 21 18
f 8 20 37
f 8 37 54
f 8 54 72
f 8 72 87
f 8 87 91
f 8 91 111
f 8 111 129
f 8 129 112
f 8 112 93
f 8 93 76
f 8 76 55
f 8 55 38
f 8 38 22
f 8 22 9
f 9 22 27
f 9 27 11
f 9 11 10
f 11 23 24
f 11 24 25
f 11 25 26
f 11 26 12
f 11 27 40
f 11 40 23
f 13 28 29
f 14 30 15
f 15 30 31
f 15 31 32
f 15 32 33
f 15 33 34
f 15 34 35
f 15 35 16
f 16 35 21
f 16 21 17
f 18 36 19
f 18 21 36
f 19 36 20
f 20 36 37
f 21 35 36
f 22 38 39
f 22 39 27
f 27 39 41
f 27 41 40
f 28 42 29
f 28 43 42
f 29 42 44
f 30 45 46
f 30 46 47
f 30 47 48
f 30 48 31
f 31 48 47
f 31 47 49
f 31 49 50
f 31 50 51
f 31 51 32
f 32 52 34
f 32 34 33
f 32 51 52
f 34 53 35
f 34 52 53
f 35 53 36
f 36 53 54
f 36 54 37
f 38 55 56
f 38 56 41
f 38 41 39
f 40 41 43
f 41 56 43
f 42 57 58
f 42 58 44
f 42 43 56
f 42 56 55
f 42 55 57
f 45 59 61
f 45 61 46
f 46 60 47
f 46 61 84
f 46 84 62
f 46 62 60
f 47 60 63
f 47 63 64
f 47 64 65
f 47 65 66
f 47 66 49
f 49 67 68
f 49 68 50
f 49 66 67
f 50 68 51
f 51 68 69
f 51 69 53
f 51 53 52
f 53 69 70
f 53 70 71
f 53 71 54
f 54 71 73
f 54 73 72
f 55 74 75
f 55 75 57
f 55 76 77
f 55 77 78
f 55 78 79
f 55 79 80
f 55 80 74
f 57 75 81
f 57 81 82
f 57 82 58
f 59 83 84
f 59 84 61
f 60 62 70
f 60 70 63
f 62 84 70
f 63 85 65
f 63 65 64
f 63 70 85
f 65 70 66
f 65 85 70
f 66 70 69
f 66 69 68
f 66 68 67
f 70 86 73
f 70 73 71
f 70 84 86
f 72 73 87
f 73 86 88
f 73 88 89
f 73 89 90
f 73 90 91
f 73 91 87
f 74 80 92
f 74 92 75
f 75 92 81
f 76 93 77
f 77 94 95
f 77 95 96
f 77 96 97
f 77 97 78
f 77 93 98
f 77 98 94
f 78 97 79
f 79 97 99
f 79 99 100
f 79 100 101
f 79 101 80
f 80 100 92
f 80 101 100
f 81 92 100
f 81 100 102
f 81 102 103
f 81 103 82
f 82 103 104
f 83 105 106
f 83 106 84
f 84 107 86
f 84 106 108
f 84 108 107
f 86 107 88
f 88 107 89
f 89 107 98
f 89 98 109
f 89 109 110
f 89 110 90
f 90 110 91
f 91 110 111
f 93 112 113
f 93 113 98
f 94 107 95
f 94 98 107
f 95 107 114
f 95 114 96
f 96 114 115
f 96 115 116
f 96 116 117
f 96 117 118
f 96 118 119
f 96 119 97
f 97 119 120
f 97 120 103
f 97 103 99
f 98 113 109
f 99 103 121
f 99 121 100
f 100 121 102
f 102 121 103
f 103 120 122
f 103 122 118
f 103 118 104
f 104 118 123
f 104 123 105
f 105 123 124
f 105 124 125
f 105 125 108
f 105 108 106
f 107 126 114
f 107 108 126
f 108 125 127
f 108 127 126
f 109 113 110
f 110 113 128
f 110 128 112
f 110 112 129
f 110 129 111
f 112 128 113
f 114 126 130
f 114 130 131
f 114 131 124
f 114 124 123
f 114 123 115
f 115 123 117
f 115 117 116
f 117 123 118
f 118 122 132
f 118 132 119
f 119 132 120
f 120 132 122
f 124 131 130
f 124 130 125
f 125 130 126
f 125 126 127

