# https://github.com/mikedh/trimesh
v 0.01770210 -0.01687601 -0.01316139
v 0.01886896 -0.02192783 -0.01316139
v 0.01770210 -0.01457741 -0.01168743
v 0.01770210 0.01723017 -0.01316139
v 0.01948986 -0.02336318 -0.01316139
v 0.02168013 -0.02123825 -0.00945750
v 0.01952412 -0.02073766 -0.01183005
v 0.01935498 -0.01959347 -0.01159741
v 0.02054967 -0.00965839 -0.00762128
v 0.02027134 -0.00814131 -0.00762128
v 0.01770210 -0.01312162 -0.01147159
v 0.01770210 0.01700542 -0.01304208
v 0.01779631 0.01911503 -0.01316139
v 0.02027134 -0.02482407 -0.01316139
v 0.02070382 -0.02529401 -0.01316139
v 0.02141036 -0.02585589 -0.01316139
v 0.02295833 -0.02248971 -0.00998136
v 0.02295833 -0.02134552 -0.00929861
v 0.02168870 -0.01186505 -0.00762128
v 0.02138467 -0.01159433 -0.00762128
v 0.02022638 -0.00736489 -0.00762128
v 0.01770210 -0.01110907 -0.01121617
v 0.01770210 0.01228562 -0.01130185
v 0.01785412 0.01932446 -0.01297647
v 0.01781558 0.01932446 -0.01316139
v 0.02303112 -0.02604999 -0.01316139
v 0.02375907 -0.02588143 -0.01316139
v 0.02458122 -0.02104415 -0.00930241
v 0.03270856 -0.01443949 -0.00762128
v 0.03256512 -0.01443949 -0.00762128
v 0.03219686 -0.01436287 -0.00762128
v 0.02295833 -0.01234010 -0.00762128
v 0.01770210 -0.00882068 -0.01119285
v 0.02021781 -0.00585292 -0.00762128
v 0.01770210 0.01016579 -0.01116086
v 0.02017713 0.00787741 -0.00762128
v 0.01868055 0.01932446 -0.01087778
v 0.01816242 0.02161284 -0.01297647
v 0.01808963 0.02161284 -0.01316139
v 0.02534771 -0.02506415 -0.01316139
v 0.03107068 -0.02084493 -0.01169177
v 0.02753798 -0.02286770 -0.01200955
v 0.03103000 -0.01850546 -0.00950902
v 0.03343865 -0.01422495 -0.00762128
v 0.01770210 -0.00424390 -0.01115815
v 0.01770210 -0.00195551 -0.01114242
v 0.02016643 0.00558902 -0.00762128
v 0.01770210 0.00787741 -0.01108927
v 0.02066315 0.01016579 -0.00762128
v 0.01991379 0.01932446 -0.00973353
v 0.02002726 0.02161284 -0.01008385
v 0.01896103 0.02161284 -0.01122810
v 0.01900813 0.02373778 -0.01316139
v 0.02735814 -0.02394549 -0.01316139
v 0.02823810 -0.02340915 -0.01316139
v 0.02947990 -0.02264295 -0.01316139
v 0.03119058 -0.02118206 -0.01316139
v 0.03127836 -0.02109012 -0.01316139
v 0.03137042 -0.02098796 -0.01316139
v 0.03275353 -0.01925123 -0.01316139
v 0.03383689 -0.01775459 -0.01316139
v 0.03311108 -0.01824496 -0.01217278
v 0.03332732 -0.01625794 -0.00944232
v 0.03539769 -0.01126741 -0.00762128
v 0.01770210 0.00490965 -0.01110175
v 0.01770210 0.00719804 -0.01108982
v 0.02139752 0.01177993 -0.00762128
v 0.02144890 0.02296647 -0.00935501
v 0.02117271 0.02161284 -0.00923841
v 0.01938709 0.02282855 -0.01166140
v 0.01904667 0.02377864 -0.01316139
v 0.03408310 -0.01740724 -0.01316139
v 0.03357782 -0.01665126 -0.01068689
v 0.03454771 -0.01501159 -0.01068689
v 0.03569530 -0.01188038 -0.00913917
v 0.03541054 -0.01124187 -0.00762128
v 0.02242307 0.01221921 -0.00762128
v 0.02524708 0.01932446 -0.00833169
v 0.02241022 0.02296647 -0.00935501
v 0.02310177 0.02613343 -0.01316139
v 0.02066957 0.02547450 -0.01316139
v 0.03528208 -0.01534361 -0.01316139
v 0.03537200 -0.01351494 -0.01068689
v 0.03661594 -0.01290198 -0.01316139
v 0.03761794 -0.01080259 -0.01316139
v 0.03600146 -0.01046546 -0.00838484
v 0.03586230 -0.01010790 -0.00762128
v 0.03023140 0.01425731 -0.00762128
v 0.03211336 0.01456379 -0.00762128
v 0.03359281 0.01416537 -0.00762128
v 0.02524708 0.02116334 -0.00902963
v 0.02393678 0.02267020 -0.00962073
v 0.02524708 0.02467254 -0.01230836
v 0.02524708 0.02540810 -0.01316139
v 0.03780849 -0.01024070 -0.01316139
v 0.03779993 -0.00912205 -0.01195044
v 0.03622627 -0.00891262 -0.00762128
v 0.03379406 0.01467106 -0.00852800
v 0.03336800 0.01602468 -0.00937724
v 0.03113063 0.01835393 -0.00942279
v 0.02674580 0.02071894 -0.00927692
v 0.03540840 0.01109545 -0.00762128
v 0.03502944 0.01243375 -0.00836640
v 0.02867701 0.02275704 -0.01183602
v 0.02715260 0.02318100 -0.01153829
v 0.02727678 0.02425879 -0.01316139
v 0.03844438 -0.00824858 -0.01316139
v 0.03855143 -0.00783483 -0.01316139
v 0.03643823 -0.00811577 -0.00762128
v 0.03545336 0.01558029 -0.01316139
v 0.03444065 0.01700031 -0.01316139
v 0.03334231 0.01829264 -0.01316139
v 0.03227608 0.01949813 -0.01316139
v 0.03543623 0.01104437 -0.00762128
v 0.03024638 0.02166903 -0.01316139
v 0.02891466 0.02296136 -0.01316139
v 0.03898820 -0.00585292 -0.01316139
v 0.03695636 -0.00573033 -0.00762128
v 0.03590298 0.01461998 -0.01316139
v 0.03545978 0.01098818 -0.00762128
v 0.03689427 0.01016579 -0.01068689
v 0.03936716 -0.00356454 -0.01316139
v 0.03784703 -0.00475470 -0.00951770
v 0.03734817 -0.00356454 -0.00762128
v 0.03772285 0.01024752 -0.01316139
v 0.03782134 0.00895009 -0.01188808
v 0.03590084 0.00989507 -0.00762128
v 0.03603786 0.01022709 -0.00836640
v 0.03956199 -0.00127615 -0.01316139
v 0.03753658 -0.00127615 -0.00762128
v 0.03800761 0.00944046 -0.01316139
v 0.03847221 0.00802043 -0.01316139
v 0.03834803 0.00841375 -0.01316139
v 0.03649604 0.00787230 -0.00762128
v 0.03799690 0.00742790 -0.01142333
v 0.03902459 0.00558902 -0.01316139
v 0.03956413 -0.00093902 -0.01316139
v 0.03957270 0.00100713 -0.01316139
v 0.03753444 0.00100713 -0.00762128
v 0.03699490 0.00549197 -0.00762128
v 0.03786202 0.00456231 -0.00947540
v 0.03939927 0.00330063 -0.01316139
v 0.03955129 0.00131361 -0.01316139
v 0.03740598 0.00276429 -0.00762128
v 0.03736316 0.00330063 -0.00762128
v 0.03753444 0.00330063 -0.00808441
f 1 2 3
f 1 3 11
f 1 11 22
f 1 22 33
f 1 33 45
f 1 45 46
f 1 46 65
f 1 65 66
f 1 66 48
f 1 48 35
f 1 35 23
f 1 23 12
f 1 12 4
f 1 4 13
f 1 13 25
f 1 25 39
f 1 39 53
f 1 53 71
f 1 71 81
f 1 81 80
f 1 80 94
f 1 94 106
f 1 106 116
f 1 116 115
f 1 115 113
f 1 113 112
f 1 112 111
f 1 111 110
f 1 110 119
f 1 119 125
f 1 125 131
f 1 131 133
f 1 133 132
f 1 132 136
f 1 136 142
f 1 142 143
f 1 143 138
f 1 138 137
f 1 137 129
f 1 129 122
f 1 122 117
f 1 117 108
f 1 108 107
f 1 107 95
f 1 95 85
f 1 85 84
f 1 84 82
f 1 82 72
f 1 72 61
f 1 61 60
f 1 60 59
f 1 59 58
f 1 58 57
f 1 57 56
f 1 56 55
f 1 55 54
f 1 54 40
f 1 40 27
f 1 27 26
f 1 26 16
f 1 16 15
f 1 15 14
f 1 14 5
f 1 5 2
f 2 5 6
f 2 6 7
f 2 7 3
f 3 7 8
f 3 8 6
f 3 6 9
f 3 9 10
f 3 10 11
f 4 12 13
f 5 14 6
f 6 8 7
f 6 14 15
f 6 15 16
f 6 16 17
f 6 17 18
f 6 18 19
f 6 19 20
f 6 20 9
f 9 20 19
f 9 19 32
f 9 32 31
f 9 31 30
f 9 30 29
f 9 29 44
f 9 44 64
f 9 64 76
f 9 76 87
f 9 87 97
f 9 97 109
f 9 109 118
f 9 118 124
f 9 124 130
f 9 130 139
f 9 139 144
f 9 144 145
f 9 145 140
f 9 140 134
f 9 134 127
f 9 127 120
f 9 120 114
f 9 114 102
f 9 102 90
f 9 90 89
f 9 89 88
f 9 88 77
f 9 77 67
f 9 67 49
f 9 49 36
f 9 36 47
f 9 47 34
f 9 34 21
f 9 21 10
f 10 21 22
f 10 22 11
f 12 23 13
f 13 24 25
f 13 23 24
f 16 26 17
f 17 26 27
f 17 27 28
f 17 28 18
f 18 28 29
f 18 29 30
f 18 30 31
f 18 31 32
f 18 32 19
f 21 33 22
f 21 34 33
f 23 35 36
f 23 36 37
f 23 37 24
f 24 37 38
f 24 38 39
f 24 39 25
f 27 40 41
f 27 41 42
f 27 42 43
f 27 43 28
f 28 43 44
f 28 44 29
f 33 34 45
f 34 46 45
f 34 47 46
f 35 48 36
f 36 49 50
f 36 50 37
f 36 48 47
f 37 50 51
f 37 51 52
f 37 52 38
f 38 52 53
f 38 53 39
f 40 54 41
f 41 43 42
f 41 54 55
f 41 55 56
f 41 56 57
f 41 57 58
f 41 58 59
f 41 59 60
f 41 60 61
f 41 61 62
f 41 62 63
f 41 63 44
f 41 44 43
f 44 63 64
f 46 47 65
f 47 48 66
f 47 66 65
f 49 67 68
f 49 68 69
f 49 69 50
f 50 69 51
f 51 69 68
f 51 68 52
f 52 68 70
f 52 70 53
f 53 70 71
f 61 72 62
f 62 72 73
f 62 73 63
f 63 73 74
f 63 74 75
f 63 75 64
f 64 75 76
f 67 77 78
f 67 78 68
f 68 78 79
f 68 79 80
f 68 80 81
f 68 81 70
f 70 81 71
f 72 82 74
f 72 74 73
f 74 82 83
f 74 83 75
f 75 84 85
f 75 85 76
f 75 83 84
f 76 85 86
f 76 86 87
f 77 88 78
f 78 88 89
f 78 89 90
f 78 90 91
f 78 91 79
f 79 91 92
f 79 92 93
f 79 93 80
f 80 93 94
f 82 84 83
f 85 95 96
f 85 96 87
f 85 87 86
f 87 96 97
f 90 98 99
f 90 99 100
f 90 100 101
f 90 101 91
f 90 102 103
f 90 103 98
f 91 101 92
f 92 104 105
f 92 105 93
f 92 101 104
f 93 105 94
f 94 105 104
f 94 104 106
f 95 107 96
f 96 107 108
f 96 108 109
f 96 109 97
f 98 110 99
f 98 103 110
f 99 110 111
f 99 111 112
f 99 112 113
f 99 113 104
f 99 104 100
f 100 104 101
f 102 114 103
f 103 114 110
f 104 113 115
f 104 115 116
f 104 116 106
f 108 117 109
f 109 117 118
f 110 114 119
f 114 120 121
f 114 121 119
f 117 122 123
f 117 123 118
f 118 123 124
f 119 121 126
f 119 126 125
f 120 127 128
f 120 128 121
f 121 128 126
f 122 124 123
f 122 129 124
f 124 129 130
f 125 126 131
f 126 132 133
f 126 133 131
f 126 128 127
f 126 127 134
f 126 134 135
f 126 135 136
f 126 136 132
f 129 137 130
f 130 137 138
f 130 138 139
f 134 140 135
f 135 140 136
f 136 140 141
f 136 141 142
f 138 143 139
f 139 143 144
f 140 145 141
f 141 145 146
f 141 146 142
f 142 146 144
f 142 144 143
f 144 146 145

