# https://github.com/mikedh/trimesh
v 0.03213448 0.03315714 -0.02101502
v 0.03213448 0.03315714 -0.03433741
v 0.02377497 0.03315714 -0.02101502
v 0.03213448 -0.03367529 -0.02101502
v 0.03097091 0.03315714 -0.03476190
v 0.03213448 0.02854507 -0.03433945
v 0.01146132 0.03315714 -0.02563745
v 0.01146132 0.03227398 -0.02101502
v 0.02378913 -0.03367529 -0.02101502
v 0.03213448 -0.03367529 -0.03431088
v 0.02973246 0.03315714 -0.03521292
v 0.02060195 0.03315714 -0.03853740
v 0.03213448 -0.02874922 -0.03433945
v 0.01146132 0.03315714 -0.04186187
v 0.01146132 -0.03237999 -0.02101502
v 0.01146132 -0.03367529 -0.02648234
v 0.02788086 -0.03367529 -0.03588639
v 0.01238206 0.03315714 -0.04152922
v 0.01380061 -0.03367529 -0.04101290
v 0.02753482 -0.03367529 -0.03601292
v 0.02066873 -0.03367529 -0.03851291
v 0.01146132 0.02161062 -0.04186392
v 0.01146132 -0.03367529 -0.04186187
v 0.01146132 0.01896768 -0.04186392
v 0.01149573 -0.03367529 -0.04184963
f 1 2 5
f 1 5 11
f 1 11 12
f 1 12 18
f 1 18 14
f 1 14 7
f 1 7 3
f 1 3 8
f 1 8 15
f 1 15 9
f 1 9 4
f 1 4 10
f 1 10 13
f 1 13 6
f 1 6 2
f 2 6 5
f 3 7 8
f 4 9 16
f 4 16 23
f 4 23 25
f 4 25 19
f 4 19 21
f 4 21 20
f 4 20 17
f 4 17 10
f 5 6 11
f 6 12 11
f 6 13 12
f 7 14 22
f 7 22 24
f 7 24 23
f 7 23 16
f 7 16 15
f 7 15 8
f 9 15 16
f 10 17 13
f 12 13 19
f 12 19 18
f 13 17 20
f 13 20 21
f 13 21 19
f 14 18 22
f 18 24 22
f 18 19 24
f 19 25 24
f 23 24 25

