# https://github.com/mikedh/trimesh
v 0.11440886 0.03015809 0.00573746
v 0.11440886 0.03073705 0.00757702
v 0.11440886 0.03898811 0.00573746
v 0.11900234 0.01859303 0.00573746
v 0.11440886 0.03078496 0.00770807
v 0.11440886 0.03778628 0.00770190
v 0.11588812 0.03668228 0.00890421
v 0.11626936 0.03701768 0.00762878
v 0.11522006 0.03840317 0.00573746
v 0.11953980 0.01859303 0.00573746
v 0.11944737 0.01859303 0.00708793
v 0.11440886 0.03084885 0.00779497
v 0.11440886 0.03760861 0.00781539
v 0.11518490 0.03668228 0.00890421
v 0.11814090 0.03441638 0.00894885
v 0.11741358 0.03592166 0.00762878
v 0.11911435 0.02848712 0.01058802
v 0.11911435 0.03077298 0.01005524
v 0.11681183 0.03723728 0.00573746
v 0.11778377 0.03628301 0.00600480
v 0.11783450 0.03633891 0.00573746
v 0.11953980 0.01859303 0.00731490
v 0.11953980 0.03426666 0.00573746
v 0.11951921 0.01859303 0.00726457
v 0.11440886 0.03306284 0.00885435
v 0.11553952 0.02930763 0.00891561
v 0.11440886 0.03596758 0.00877600
v 0.11440886 0.03535269 0.00887620
v 0.11488453 0.03535269 0.00902577
v 0.11843475 0.03477773 0.00762878
v 0.11953980 0.03077298 0.00985818
v 0.11898828 0.03285721 0.00919957
v 0.11953980 0.03247590 0.00904049
v 0.11953980 0.03342418 0.00762878
v 0.11911435 0.02619727 0.01050492
v 0.11953980 0.02618329 0.01055668
v 0.11953980 0.02846915 0.01044651
v 0.11488704 0.03306284 0.00908180
v 0.11813588 0.03597756 0.00573746
v 0.11953980 0.02113044 0.00991279
v 0.11867836 0.03532274 0.00573746
v 0.11520499 0.03077298 0.00903432
v 0.11953980 0.02389743 0.01037386
f 1 2 5
f 1 5 12
f 1 12 25
f 1 25 28
f 1 28 27
f 1 27 13
f 1 13 6
f 1 6 3
f 1 3 9
f 1 9 19
f 1 19 21
f 1 21 39
f 1 39 41
f 1 41 23
f 1 23 10
f 1 10 4
f 1 4 2
f 2 4 5
f 3 6 7
f 3 7 8
f 3 8 9
f 4 10 22
f 4 22 24
f 4 24 11
f 4 11 12
f 4 12 5
f 6 13 14
f 6 14 7
f 7 15 16
f 7 16 8
f 7 14 17
f 7 17 18
f 7 18 15
f 8 19 9
f 8 16 20
f 8 20 21
f 8 21 19
f 10 23 34
f 10 34 33
f 10 33 31
f 10 31 37
f 10 37 36
f 10 36 43
f 10 43 40
f 10 40 22
f 11 24 12
f 12 24 22
f 12 22 26
f 12 26 25
f 13 27 14
f 14 27 28
f 14 28 29
f 14 29 17
f 15 30 16
f 15 18 31
f 15 31 32
f 15 32 33
f 15 33 34
f 15 34 30
f 16 30 20
f 17 35 36
f 17 36 37
f 17 37 18
f 17 29 28
f 17 28 38
f 17 38 35
f 18 37 31
f 20 30 39
f 20 39 21
f 22 40 26
f 23 41 34
f 25 26 42
f 25 42 35
f 25 35 38
f 25 38 28
f 26 40 42
f 30 41 39
f 30 34 41
f 31 33 32
f 35 43 36
f 35 42 43
f 40 43 42

