# https://github.com/mikedh/trimesh
v 0.03213448 -0.03367566 -0.02101502
v 0.02378913 -0.03367566 -0.02101502
v 0.03213448 -0.03707701 -0.02101502
v 0.03213448 -0.03367566 -0.03431089
v 0.02397125 -0.03466014 -0.02101502
v 0.01146132 -0.03367566 -0.02648235
v 0.02606366 -0.03592610 -0.02101502
v 0.03213448 -0.03737116 -0.02110277
v 0.03213448 -0.03561965 -0.03433946
v 0.02788086 -0.03367566 -0.03588639
v 0.02443061 -0.03517933 -0.02101502
v 0.01146132 -0.03737116 -0.02747622
v 0.01146132 -0.03367566 -0.04186188
v 0.02523398 -0.03562942 -0.02101502
v 0.02526434 -0.03737116 -0.02249665
v 0.02753482 -0.03737116 -0.02200685
v 0.03213448 -0.03737116 -0.03433946
v 0.02753482 -0.03367566 -0.03601292
v 0.01380061 -0.03561965 -0.04101290
v 0.02066873 -0.03367566 -0.03851291
v 0.01146132 -0.03737116 -0.04186392
v 0.02309099 -0.03737116 -0.02323134
v 0.01149573 -0.03367566 -0.04184963
v 0.01380061 -0.03737116 -0.04101290
v 0.01635643 -0.03367566 -0.04008229
v 0.01242861 -0.03367566 -0.04151086
f 1 2 5
f 1 5 11
f 1 11 14
f 1 14 7
f 1 7 3
f 1 3 8
f 1 8 17
f 1 17 9
f 1 9 4
f 1 4 10
f 1 10 18
f 1 18 20
f 1 20 25
f 1 25 26
f 1 26 23
f 1 23 13
f 1 13 6
f 1 6 2
f 2 6 5
f 3 7 8
f 4 9 10
f 5 6 12
f 5 12 11
f 6 13 21
f 6 21 12
f 7 14 15
f 7 15 16
f 7 16 8
f 8 16 15
f 8 15 22
f 8 22 12
f 8 12 21
f 8 21 24
f 8 24 17
f 9 18 10
f 9 17 24
f 9 24 19
f 9 19 20
f 9 20 18
f 11 12 14
f 12 22 14
f 13 23 21
f 14 22 15
f 19 25 20
f 19 24 21
f 19 21 26
f 19 26 25
f 21 23 26

