# https://github.com/mikedh/trimesh
v -0.05997236 -0.04248770 0.00436454
v -0.06095913 -0.04248770 0.00436454
v -0.05990121 -0.04477686 0.00435802
v -0.05824920 -0.03700899 0.00421840
v -0.05824920 -0.03660943 0.00421840
v -0.05941614 -0.03782754 0.00430869
v -0.06116517 -0.03790939 0.00431893
v -0.06085657 -0.04477686 0.00435802
v -0.06230993 -0.03790939 0.00394939
v -0.06024584 -0.04600468 0.00425936
v -0.05875737 -0.04477686 0.00405644
v -0.05717465 -0.04019855 0.00339090
v -0.05553465 -0.04019855 0.00240610
v -0.05570651 -0.03790939 0.00236328
v -0.05728275 -0.03299950 0.00299624
v -0.05903178 -0.03299950 0.00413090
v -0.05989198 -0.03299950 0.00421840
v -0.05946419 -0.03611136 0.00427704
v -0.06104043 -0.03604893 0.00427983
v -0.06108016 -0.03299950 0.00419047
v -0.06191633 -0.03299950 0.00399687
v -0.06216025 -0.04019855 0.00388517
v -0.06210389 -0.04248770 0.00369993
v -0.06200133 -0.04477686 0.00343465
v -0.06070504 -0.04600468 0.00425936
v -0.06329671 -0.03299950 0.00302510
v -0.06349905 -0.03299950 0.00282869
v -0.06353509 -0.04019855 0.00274026
v -0.05947620 -0.04641256 0.00319636
v -0.05777522 -0.04622527 0.00253083
v -0.05738346 -0.04477686 0.00291247
v -0.05566585 -0.04199103 0.00221715
v -0.05513089 -0.04019855 0.00075949
v -0.05531014 -0.03790939 0.00075949
v -0.05570558 -0.03299950 0.00053889
v -0.05606407 -0.03299950 0.00151811
v -0.05612875 -0.03299950 0.00168379
v -0.06346948 -0.04248770 0.00255596
v -0.06322464 -0.04477686 0.00228975
v -0.06302784 -0.04632655 0.00208497
v -0.06158187 -0.04647361 0.00292829
v -0.06415135 -0.03299950 0.00109924
v -0.06456806 -0.04019855 0.00075949
v -0.06175280 -0.04717284 0.00075949
v -0.05946419 -0.04715619 0.00075949
v -0.05707671 -0.04646390 0.00073529
v -0.05593749 -0.04603798 -0.00004380
v -0.05587651 -0.04611706 -0.00152938
v -0.05591809 -0.04606572 -0.00279157
v -0.05591809 -0.04555379 -0.00279157
v -0.05568988 -0.04015276 -0.00172578
v -0.05563259 -0.03790939 -0.00138418
v -0.05570558 -0.03299950 -0.00117102
v -0.06438050 -0.04248770 0.00075949
v -0.06330687 -0.04652772 0.00075949
v -0.06389081 -0.04477686 0.00075949
v -0.06426870 -0.03299950 0.00075949
v -0.06456898 -0.04019855 -0.00152938
v -0.06326252 -0.04626411 -0.00152938
v -0.06175280 -0.04683849 -0.00152938
v -0.05946419 -0.04713954 -0.00152938
v -0.05717465 -0.04676079 -0.00152938
v -0.05717465 -0.04630990 -0.00315831
v -0.06036134 -0.04601994 -0.00504507
v -0.05894770 -0.04019855 -0.00472208
v -0.05600124 -0.04088529 -0.00271524
v -0.05725966 -0.03790939 -0.00360138
v -0.05577765 -0.03299950 -0.00133671
v -0.06431859 -0.04248770 -0.00152938
v -0.06376514 -0.04477686 -0.00152938
v -0.06395640 -0.03299950 -0.00152938
v -0.06353693 -0.04019855 -0.00334913
v -0.06340758 -0.04248770 -0.00314621
v -0.06320154 -0.03299950 -0.00303172
v -0.06159388 -0.04621695 -0.00363396
v -0.06296963 -0.04597554 -0.00274782
v -0.06072537 -0.04601994 -0.00504507
v -0.05954457 -0.04640840 -0.00390668
v -0.06019964 -0.04167609 -0.00513629
v -0.06009155 -0.04019855 -0.00514374
v -0.05946419 -0.03299950 -0.00431811
v -0.05769668 -0.03299950 -0.00356508
v -0.05738716 -0.03299950 -0.00343011
v -0.05640870 -0.03299950 -0.00247789
v -0.05624239 -0.03299950 -0.00231592
v -0.06213531 -0.04019855 -0.00449403
v -0.06199395 -0.03299950 -0.00378475
v -0.06095821 -0.04167609 -0.00513629
v -0.06032808 -0.03879731 -0.00503018
v -0.06099054 -0.04019855 -0.00514374
v -0.06076695 -0.03879731 -0.00503018
v -0.05979496 -0.03299950 -0.00428180
v -0.06175280 -0.03299950 -0.00391972
f 1 2 8
f 1 8 3
f 1 3 4
f 1 4 5
f 1 5 6
f 1 6 7
f 1 7 2
f 2 7 9
f 2 9 8
f 3 8 25
f 3 25 10
f 3 10 11
f 3 11 4
f 4 11 12
f 4 12 13
f 4 13 5
f 5 14 15
f 5 15 16
f 5 16 17
f 5 17 18
f 5 18 6
f 5 13 14
f 6 18 7
f 7 18 17
f 7 17 19
f 7 19 20
f 7 20 21
f 7 21 9
f 8 9 22
f 8 22 23
f 8 23 24
f 8 24 25
f 9 21 26
f 9 26 27
f 9 27 28
f 9 28 22
f 10 25 29
f 10 29 30
f 10 30 11
f 11 30 31
f 11 31 32
f 11 32 13
f 11 13 12
f 13 32 33
f 13 33 34
f 13 34 14
f 14 34 35
f 14 35 36
f 14 36 37
f 14 37 15
f 15 37 36
f 15 36 35
f 15 35 53
f 15 53 68
f 15 68 85
f 15 85 84
f 15 84 83
f 15 83 82
f 15 82 81
f 15 81 92
f 15 92 93
f 15 93 87
f 15 87 74
f 15 74 71
f 15 71 57
f 15 57 42
f 15 42 27
f 15 27 26
f 15 26 21
f 15 21 20
f 15 20 17
f 15 17 16
f 17 20 19
f 22 28 23
f 23 28 38
f 23 38 24
f 24 38 39
f 24 39 40
f 24 40 25
f 25 40 41
f 25 41 29
f 27 42 43
f 27 43 28
f 28 43 38
f 29 41 44
f 29 44 45
f 29 45 30
f 30 45 46
f 30 46 47
f 30 47 31
f 31 47 32
f 32 47 33
f 33 47 48
f 33 48 49
f 33 49 50
f 33 50 51
f 33 51 52
f 33 52 53
f 33 53 34
f 34 53 35
f 38 43 54
f 38 54 39
f 39 54 40
f 40 55 44
f 40 44 41
f 40 54 56
f 40 56 55
f 42 57 43
f 43 58 54
f 43 57 58
f 44 55 59
f 44 59 60
f 44 60 61
f 44 61 45
f 45 61 62
f 45 62 46
f 46 62 47
f 47 62 48
f 48 62 49
f 49 62 63
f 49 63 64
f 49 64 65
f 49 65 50
f 50 66 51
f 50 65 67
f 50 67 66
f 51 66 52
f 52 66 53
f 53 66 68
f 54 58 69
f 54 69 56
f 55 56 70
f 55 70 59
f 56 69 70
f 57 71 58
f 58 72 73
f 58 73 69
f 58 71 74
f 58 74 72
f 59 75 60
f 59 70 76
f 59 76 75
f 60 75 77
f 60 77 61
f 61 77 78
f 61 78 63
f 61 63 62
f 63 78 64
f 64 79 65
f 64 78 77
f 64 77 88
f 64 88 79
f 65 79 80
f 65 80 81
f 65 81 82
f 65 82 83
f 65 83 67
f 66 67 83
f 66 83 84
f 66 84 85
f 66 85 68
f 69 73 76
f 69 76 70
f 72 86 77
f 72 77 73
f 72 74 86
f 73 77 76
f 74 87 86
f 75 76 77
f 77 86 88
f 79 88 90
f 79 90 80
f 80 89 81
f 80 90 91
f 80 91 89
f 81 89 91
f 81 91 92
f 86 90 88
f 86 87 90
f 87 93 90
f 90 93 91
f 91 93 92

