# https://github.com/mikedh/trimesh
v 0.09997146 -0.02565420 -0.00964884
v 0.09997146 -0.02565420 -0.00142322
v 0.09997146 -0.02417235 -0.00964884
v 0.10566889 -0.02245433 -0.00757541
v 0.10728063 -0.02565420 -0.00698859
v 0.09997146 -0.02499988 -0.00145799
v 0.11665387 -0.02565420 0.00515206
v 0.09997146 -0.02245433 -0.00964739
v 0.10024580 -0.02245433 -0.00954886
v 0.11665387 -0.02245433 -0.00357634
v 0.11590597 -0.02565420 -0.00384874
v 0.09997146 -0.02245433 -0.00164781
v 0.11665387 -0.02565420 -0.00357634
v 0.11665387 -0.02245433 0.00447106
f 1 2 6
f 1 6 12
f 1 12 8
f 1 8 3
f 1 3 4
f 1 4 5
f 1 5 11
f 1 11 13
f 1 13 7
f 1 7 2
f 2 7 6
f 3 8 9
f 3 9 4
f 4 9 8
f 4 8 12
f 4 12 14
f 4 14 10
f 4 10 11
f 4 11 5
f 6 7 12
f 7 13 10
f 7 10 14
f 7 14 12
f 10 13 11

