# https://github.com/mikedh/trimesh
v -0.05491553 -0.01501950 -0.00313770
v -0.05119850 -0.01501950 -0.00313770
v -0.05491553 -0.01501950 -0.00023416
v -0.05491553 -0.00519308 -0.00313770
v -0.05252320 -0.01501950 -0.00023416
v -0.04811152 -0.01210353 -0.00313770
v -0.04811152 -0.01211388 -0.00161998
v -0.04811152 -0.01210813 -0.00023416
v -0.05491553 -0.00543454 -0.00023416
v -0.04811152 -0.00327286 -0.00313770
v -0.04811152 -0.00442844 -0.00023416
f 1 2 5
f 1 5 3
f 1 3 9
f 1 9 4
f 1 4 10
f 1 10 6
f 1 6 2
f 2 6 7
f 2 7 8
f 2 8 5
f 3 5 8
f 3 8 11
f 3 11 9
f 4 9 10
f 6 10 11
f 6 11 8
f 6 8 7
f 9 11 10

