# https://github.com/mikedh/trimesh
v -0.01320335 -0.00080431 -0.01164032
v -0.01320335 -0.00996258 -0.01164108
v -0.01138416 -0.00814615 -0.01164108
v -0.00909533 -0.00585658 -0.01164108
v -0.00680575 0.00100882 -0.01164108
v -0.00909533 0.00558796 -0.01164108
v -0.01138416 0.00787753 -0.01164108
v -0.01320335 0.00787753 -0.01164108
v -0.01320335 -0.01043241 -0.01165089
v -0.01138416 -0.01043241 -0.01168789
v -0.00917648 -0.00806343 -0.01171733
v -0.00727464 -0.00585658 -0.01173697
v -0.00552684 -0.00255457 -0.01172111
v -0.00552684 -0.00130391 -0.01168713
v -0.00680575 -0.00127744 -0.01164636
v -0.00552684 0.00108492 -0.01168109
v -0.00680575 0.00329839 -0.01167052
v -0.01138416 0.01016709 -0.01166901
v -0.01320335 0.01016709 -0.01164712
v -0.01320335 -0.01213304 -0.01172790
v -0.01138416 -0.01182865 -0.01178378
v -0.01023824 -0.01158050 -0.01183135
v -0.00780665 -0.00724620 -0.01176868
v -0.00552684 -0.00423204 -0.01181474
v -0.00552684 -0.00331886 -0.01176188
v -0.00552684 0.00329839 -0.01174452
v -0.00693800 0.00540267 -0.01174150
v -0.01019090 0.01138467 -0.01180643
v -0.01138416 0.01166921 -0.01176490
v -0.01320335 0.01225484 -0.01175584
v -0.01320335 -0.01247714 -0.01175207
v -0.01320335 -0.01345649 -0.01241726
v -0.00974606 -0.01409837 -0.01379220
v -0.00822068 -0.01354583 -0.01427769
v -0.00552684 -0.01407190 -0.01629442
v -0.00552684 -0.01264919 -0.01554240
v -0.00552684 -0.00677307 -0.01279554
v -0.00552684 -0.00459599 -0.01186381
v -0.00566660 -0.00470518 -0.01183286
v -0.00552684 0.00430421 -0.01180114
v -0.00552684 0.01008438 -0.01425731
v -0.00552684 0.01248644 -0.01538082
v -0.00810270 0.01343271 -0.01420219
v -0.00962809 0.01385621 -0.01373557
v -0.01138416 0.01281069 -0.01236290
v -0.01320335 0.01323088 -0.01216659
v -0.00560499 0.00451265 -0.01180794
v -0.00552684 0.00459206 -0.01187891
v -0.00552684 0.00573684 -0.01235761
v -0.00552684 0.00778819 -0.01322818
v -0.01320335 -0.01405866 -0.01327877
v -0.00552684 -0.01673534 -0.01935387
v -0.00680575 -0.01444908 -0.01587990
v -0.00552684 0.01373048 -0.01606413
v -0.00552684 0.01449147 -0.01656699
v -0.01320335 0.01325073 -0.01218622
v -0.00552684 0.01628805 -0.01832776
v -0.00552684 0.01702257 -0.01935387
v -0.01320335 -0.01446231 -0.01935387
v -0.00742117 -0.01635154 -0.01935387
v -0.00676217 -0.01650705 -0.01935387
v -0.01320335 0.01378673 -0.01309680
v -0.00561701 0.01702587 -0.01935387
v -0.01320335 0.01395547 -0.01935387
v -0.01320335 0.01383967 -0.01356795
v -0.00678922 0.01706558 -0.01935387
v -0.01320335 0.01397201 -0.01526680
f 1 2 3
f 1 3 4
f 1 4 5
f 1 5 6
f 1 6 7
f 1 7 8
f 1 8 19
f 1 19 30
f 1 30 46
f 1 46 56
f 1 56 62
f 1 62 65
f 1 65 67
f 1 67 64
f 1 64 59
f 1 59 51
f 1 51 32
f 1 32 31
f 1 31 20
f 1 20 9
f 1 9 2
f 2 9 10
f 2 10 3
f 3 10 4
f 4 10 11
f 4 11 12
f 4 12 13
f 4 13 14
f 4 14 15
f 4 15 5
f 5 16 17
f 5 17 6
f 5 15 16
f 6 17 18
f 6 18 7
f 7 18 19
f 7 19 8
f 9 20 10
f 10 20 21
f 10 21 22
f 10 22 23
f 10 23 11
f 11 23 12
f 12 23 24
f 12 24 25
f 12 25 13
f 13 25 24
f 13 24 38
f 13 38 37
f 13 37 36
f 13 36 35
f 13 35 52
f 13 52 58
f 13 58 57
f 13 57 55
f 13 55 54
f 13 54 42
f 13 42 41
f 13 41 50
f 13 50 49
f 13 49 48
f 13 48 40
f 13 40 26
f 13 26 16
f 13 16 14
f 14 16 15
f 16 26 17
f 17 26 27
f 17 27 18
f 18 28 29
f 18 29 30
f 18 30 19
f 18 27 28
f 20 31 21
f 21 31 22
f 22 31 32
f 22 32 33
f 22 33 34
f 22 34 35
f 22 35 36
f 22 36 37
f 22 37 38
f 22 38 39
f 22 39 23
f 23 39 24
f 24 39 38
f 26 40 27
f 27 40 28
f 28 41 42
f 28 42 43
f 28 43 44
f 28 44 45
f 28 45 46
f 28 46 30
f 28 30 29
f 28 40 47
f 28 47 48
f 28 48 49
f 28 49 50
f 28 50 41
f 32 51 33
f 33 51 52
f 33 52 53
f 33 53 35
f 33 35 34
f 35 53 52
f 40 48 47
f 42 54 43
f 43 54 55
f 43 55 44
f 44 56 46
f 44 46 45
f 44 55 57
f 44 57 58
f 44 58 56
f 51 59 60
f 51 60 61
f 51 61 52
f 52 61 60
f 52 60 59
f 52 59 64
f 52 64 66
f 52 66 63
f 52 63 58
f 56 58 62
f 58 63 62
f 62 63 66
f 62 66 65
f 64 67 66
f 65 66 67

