# https://github.com/mikedh/trimesh
v -0.04811152 -0.01295322 -0.00568921
v -0.04130571 -0.01104961 -0.00568921
v -0.04130571 -0.01174742 -0.00365913
v -0.04130571 -0.01183345 -0.00322786
v -0.04811152 -0.01210247 -0.00322786
v -0.04811152 0.00099750 -0.00568921
v -0.04130571 0.00099750 -0.00568921
v -0.04130571 -0.00299954 -0.00322786
v -0.04811152 -0.01050202 -0.00322786
v -0.04811152 0.00099750 -0.00449660
v -0.04130571 0.00099750 -0.00430049
v -0.04343752 -0.00299135 -0.00322786
v -0.04811085 -0.00322076 -0.00322786
v -0.04811152 -0.00320847 -0.00324762
v -0.04801626 0.00099750 -0.00447348
v -0.04345151 0.00099750 -0.00430049
v -0.04572855 -0.00299135 -0.00322786
v -0.04802025 -0.00318116 -0.00322786
v -0.04574055 0.00099750 -0.00430458
v -0.04572655 0.00099750 -0.00430362
f 1 2 3
f 1 3 4
f 1 4 5
f 1 5 9
f 1 9 14
f 1 14 10
f 1 10 6
f 1 6 7
f 1 7 2
f 2 7 11
f 2 11 8
f 2 8 4
f 2 4 3
f 4 8 12
f 4 12 17
f 4 17 18
f 4 18 13
f 4 13 9
f 4 9 5
f 6 10 15
f 6 15 19
f 6 19 20
f 6 20 16
f 6 16 11
f 6 11 7
f 8 11 12
f 9 13 14
f 10 14 13
f 10 13 15
f 11 16 17
f 11 17 12
f 13 18 15
f 15 18 19
f 16 20 17
f 17 20 18
f 18 20 19

