# https://github.com/mikedh/trimesh
v -0.09514308 0.02759327 -0.08055044
v -0.09505211 0.02776050 -0.08054184
v -0.09487859 0.02776050 -0.08054184
v -0.09487522 0.02759327 -0.08054184
v -0.09633247 0.02759327 -0.07979603
v -0.09538568 0.03077525 -0.07882793
v -0.09284266 0.03442988 -0.07841774
v -0.09117230 0.03571544 -0.07851527
v -0.09151597 0.03077525 -0.07934425
v -0.09151597 0.03306418 -0.07910473
v -0.09117230 0.03306418 -0.07901868
v -0.09475308 0.02759327 -0.08049881
v -0.09735086 0.02759327 -0.07851383
v -0.09735086 0.02759443 -0.07851383
v -0.09701477 0.02912039 -0.07760883
v -0.09499147 0.03197023 -0.07829726
v -0.09314084 0.03479569 -0.07708104
v -0.09213593 0.03594073 -0.07708104
v -0.09117230 0.03687210 -0.07708104
v -0.09151597 0.02759327 -0.07934425
v -0.09117230 0.03077525 -0.07921804
v -0.09117230 0.02848632 -0.07921948
v -0.09791186 0.02759327 -0.07699211
v -0.09932615 0.02759327 -0.07310821
v -0.09911893 0.02850490 -0.07257468
v -0.09729190 0.02972427 -0.07608281
v -0.09640492 0.03060222 -0.07693905
v -0.09678144 0.03124442 -0.07479200
v -0.09707289 0.03168920 -0.07319140
v -0.09735086 0.03205617 -0.07166538
v -0.09522058 0.03225127 -0.07708104
v -0.09344661 0.03546112 -0.07475041
v -0.09248551 0.03629609 -0.07548474
v -0.09117230 0.03711946 -0.07642989
v -0.09117230 0.02759327 -0.07921948
v -0.09964034 0.02759327 -0.07224481
v -0.09971025 0.02775353 -0.07185900
v -0.09786974 0.03086583 -0.07245851
v -0.09752691 0.03010053 -0.07479200
v -0.09754881 0.03234766 -0.07021394
v -0.09667193 0.03349154 -0.07021394
v -0.09552719 0.03492460 -0.07021394
v -0.09459388 0.03606964 -0.07021394
v -0.09520205 0.03451581 -0.07204975
v -0.09432096 0.03530899 -0.07268942
v -0.09277443 0.03661313 -0.07395871
v -0.09163979 0.03730643 -0.07475041
v -0.09117230 0.03768037 -0.07476188
v -0.09117230 0.02759327 -0.07068580
v -0.09975237 0.02759327 -0.07193645
v -0.09977680 0.02759327 -0.07021394
v -0.09970604 0.02785457 -0.07021394
v -0.09930257 0.02899961 -0.07021394
v -0.09846696 0.03077525 -0.07021394
v -0.09754039 0.03235346 -0.06878687
v -0.09546907 0.03485608 -0.06852154
v -0.09334217 0.03721469 -0.06792490
v -0.09233220 0.03835974 -0.06792490
v -0.09344914 0.03719727 -0.07021394
v -0.09303892 0.03685933 -0.07250297
v -0.09117230 0.03820993 -0.07301499
v -0.09117230 0.03147552 -0.06638597
v -0.09432517 0.02759327 -0.06856457
v -0.09959148 0.02759327 -0.06904360
v -0.09958306 0.02761418 -0.06902639
v -0.09792702 0.03077525 -0.06861620
v -0.09290920 0.03688720 -0.06666708
v -0.09117230 0.03916916 -0.06661832
v -0.09117230 0.03943627 -0.06782020
v -0.09118746 0.03944440 -0.06792490
v -0.09117230 0.03945717 -0.06792490
v -0.09204327 0.03834116 -0.07021394
v -0.09141489 0.03813212 -0.07262488
v -0.09117230 0.03896942 -0.07021394
v -0.09117230 0.03172752 -0.06626693
v -0.09607303 0.02759327 -0.06809127
v -0.09477583 0.02759327 -0.06840824
v -0.09958390 0.02759327 -0.06902639
v -0.09308104 0.03535312 -0.06660971
v -0.09117230 0.03764669 -0.06603745
v -0.09164569 0.03764786 -0.06624398
v -0.09117230 0.03881032 -0.06634581
v -0.09117230 0.03306418 -0.06594566
v -0.09698613 0.02759327 -0.06812139
v -0.09847286 0.02759327 -0.06861190
v -0.09609409 0.03077525 -0.06771837
v -0.09312821 0.03306418 -0.06660971
v -0.09151597 0.03535312 -0.06602455
v -0.09117230 0.03569686 -0.06589976
v -0.09117230 0.03812167 -0.06615506
v -0.09117230 0.03340793 -0.06593419
v -0.09117230 0.03535312 -0.06589833
f 1 2 3
f 1 3 4
f 1 4 12
f 1 12 20
f 1 20 35
f 1 35 49
f 1 49 63
f 1 63 77
f 1 77 76
f 1 76 84
f 1 84 85
f 1 85 78
f 1 78 64
f 1 64 51
f 1 51 50
f 1 50 36
f 1 36 24
f 1 24 23
f 1 23 13
f 1 13 5
f 1 5 2
f 2 5 6
f 2 6 7
f 2 7 8
f 2 8 3
f 3 9 4
f 3 8 10
f 3 10 11
f 3 11 9
f 4 9 12
f 5 13 14
f 5 14 6
f 6 14 15
f 6 15 16
f 6 16 7
f 7 16 17
f 7 17 18
f 7 18 19
f 7 19 8
f 8 11 10
f 8 19 34
f 8 34 48
f 8 48 61
f 8 61 74
f 8 74 71
f 8 71 69
f 8 69 68
f 8 68 82
f 8 82 90
f 8 90 80
f 8 80 89
f 8 89 92
f 8 92 91
f 8 91 83
f 8 83 75
f 8 75 62
f 8 62 49
f 8 49 35
f 8 35 22
f 8 22 21
f 8 21 11
f 9 20 12
f 9 11 21
f 9 21 22
f 9 22 35
f 9 35 20
f 13 23 14
f 14 23 15
f 15 23 24
f 15 24 25
f 15 25 26
f 15 26 27
f 15 27 16
f 16 27 28
f 16 28 29
f 16 29 30
f 16 30 31
f 16 31 17
f 17 32 33
f 17 33 18
f 17 31 32
f 18 33 19
f 19 33 34
f 24 36 37
f 24 37 25
f 25 38 39
f 25 39 26
f 25 37 38
f 26 39 27
f 27 39 28
f 28 39 29
f 29 39 38
f 29 38 30
f 30 40 41
f 30 41 42
f 30 42 43
f 30 43 44
f 30 44 31
f 30 38 40
f 31 44 32
f 32 44 45
f 32 45 43
f 32 43 33
f 33 46 34
f 33 43 46
f 34 46 47
f 34 47 48
f 36 50 37
f 37 50 51
f 37 51 52
f 37 52 53
f 37 53 54
f 37 54 38
f 38 54 40
f 40 54 55
f 40 55 41
f 41 55 42
f 42 55 43
f 43 55 56
f 43 56 57
f 43 57 58
f 43 58 59
f 43 59 60
f 43 60 46
f 43 45 44
f 46 60 47
f 47 60 48
f 48 60 61
f 49 62 63
f 51 64 52
f 52 64 65
f 52 65 53
f 53 65 55
f 53 55 54
f 55 65 66
f 55 66 67
f 55 67 68
f 55 68 56
f 56 68 57
f 57 68 58
f 58 68 69
f 58 69 70
f 58 70 59
f 59 70 71
f 59 71 72
f 59 72 60
f 60 73 61
f 60 72 73
f 61 73 72
f 61 72 74
f 62 75 76
f 62 76 77
f 62 77 63
f 64 78 65
f 65 78 79
f 65 79 67
f 65 67 66
f 67 79 80
f 67 80 81
f 67 81 82
f 67 82 68
f 69 71 70
f 71 74 72
f 75 83 84
f 75 84 76
f 78 85 86
f 78 86 79
f 79 87 88
f 79 88 89
f 79 89 80
f 79 86 87
f 80 90 81
f 81 90 82
f 83 91 87
f 83 87 85
f 83 85 84
f 85 87 86
f 87 91 92
f 87 92 88
f 88 92 89

