# https://github.com/mikedh/trimesh
v 0.05884973 0.02155306 -0.01249665
v 0.05490144 0.02155306 -0.01310976
v 0.04486371 0.01830718 -0.01512426
v 0.04940752 0.01830718 -0.01532976
v 0.05884973 0.01830718 -0.01642796
v 0.05884973 0.02155306 -0.02461567
v 0.05265213 0.02155306 -0.01362854
v 0.04486371 0.02037811 -0.01525227
v 0.04486371 0.01932740 -0.01511584
v 0.04486371 0.01830718 -0.02967045
v 0.05884973 0.01830718 -0.02461567
v 0.05670309 0.01830718 -0.02539722
v 0.04814254 0.02155306 -0.02851329
v 0.04486371 0.02155306 -0.01551672
v 0.04486371 0.02155306 -0.02970414
v 0.04585215 0.01830718 -0.02932179
v 0.04814254 0.01830718 -0.02851329
v 0.04591649 0.02155306 -0.02932179
v 0.04687345 0.01830718 -0.02896134
f 1 2 3
f 1 3 4
f 1 4 5
f 1 5 11
f 1 11 6
f 1 6 13
f 1 13 18
f 1 18 15
f 1 15 14
f 1 14 7
f 1 7 2
f 2 7 8
f 2 8 9
f 2 9 3
f 3 9 8
f 3 8 14
f 3 14 15
f 3 15 10
f 3 10 16
f 3 16 19
f 3 19 17
f 3 17 12
f 3 12 11
f 3 11 5
f 3 5 4
f 6 11 12
f 6 12 13
f 7 14 8
f 10 15 16
f 12 17 13
f 13 17 18
f 15 18 17
f 15 17 19
f 15 19 16

