# https://github.com/mikedh/trimesh
v -0.04130571 -0.01183336 -0.00322786
v -0.04130571 -0.01174695 -0.00365913
v -0.03644078 -0.01465942 -0.00568921
v -0.03615314 -0.01483224 -0.00568921
v -0.03608972 -0.01398091 -0.00322786
v -0.04130571 -0.00299994 -0.00322786
v -0.04130571 -0.01104924 -0.00568921
v -0.03440919 -0.01535073 -0.00568921
v -0.03577944 -0.01409133 -0.00322786
v -0.04114717 -0.00299994 -0.00322786
v -0.03429369 0.00099750 -0.00429856
v -0.04130571 0.00099750 -0.00430049
v -0.04130571 0.00099750 -0.00568921
v -0.03383392 -0.01532192 -0.00568921
v -0.03141278 -0.01414893 -0.00322786
v -0.03321108 -0.01423535 -0.00322786
v -0.03428010 -0.01426095 -0.00322786
v -0.03428010 -0.00301754 -0.00322786
v -0.03428010 0.00099750 -0.00429856
v -0.03016030 0.00099750 -0.00568921
v -0.03199032 -0.01510429 -0.00568921
v -0.03069934 -0.01400491 -0.00322786
v -0.03204694 -0.00306875 -0.00322786
v -0.03199032 0.00099750 -0.00434602
v -0.03199032 -0.00307035 -0.00322786
v -0.02978887 -0.00398730 -0.00568921
v -0.03054533 0.00099750 -0.00470067
v -0.02992476 -0.00584360 -0.00322786
v -0.02982397 -0.00644850 -0.00322786
v -0.02979453 -0.00585800 -0.00381911
v -0.03173326 -0.01505148 -0.00568921
v -0.03058723 -0.01411533 -0.00381911
v -0.03013652 -0.01273431 -0.00322786
v -0.03055439 0.00099750 -0.00467851
v -0.03036641 -0.00387368 -0.00322786
v -0.02974131 -0.00814477 -0.00381911
v -0.02974810 -0.00585800 -0.00568921
v -0.03027808 -0.00415693 -0.00322786
v -0.02975716 -0.00873687 -0.00322786
v -0.03037434 -0.01444338 -0.00568921
v -0.03003574 -0.01272471 -0.00381911
v -0.02975716 -0.01043474 -0.00322786
v -0.02974131 -0.01043474 -0.00381911
v -0.02973677 -0.01043474 -0.00568921
v -0.02973904 -0.00627727 -0.00568921
v -0.02981944 -0.01272471 -0.00568921
f 1 2 3
f 1 3 4
f 1 4 5
f 1 5 9
f 1 9 17
f 1 17 16
f 1 16 15
f 1 15 22
f 1 22 33
f 1 33 42
f 1 42 39
f 1 39 29
f 1 29 28
f 1 28 38
f 1 38 35
f 1 35 25
f 1 25 23
f 1 23 18
f 1 18 10
f 1 10 6
f 1 6 12
f 1 12 13
f 1 13 7
f 1 7 2
f 2 7 3
f 3 7 13
f 3 13 20
f 3 20 26
f 3 26 37
f 3 37 45
f 3 45 44
f 3 44 46
f 3 46 40
f 3 40 31
f 3 31 21
f 3 21 14
f 3 14 8
f 3 8 4
f 4 8 9
f 4 9 5
f 6 10 19
f 6 19 11
f 6 11 12
f 8 14 15
f 8 15 16
f 8 16 17
f 8 17 9
f 10 18 19
f 11 19 24
f 11 24 34
f 11 34 27
f 11 27 20
f 11 20 13
f 11 13 12
f 14 21 15
f 15 21 22
f 18 23 19
f 19 23 25
f 19 25 24
f 20 27 28
f 20 28 29
f 20 29 30
f 20 30 26
f 21 31 22
f 22 32 33
f 22 31 32
f 24 25 35
f 24 35 34
f 26 30 36
f 26 36 37
f 27 34 28
f 28 34 38
f 29 39 30
f 30 39 36
f 31 40 32
f 32 40 33
f 33 40 41
f 33 41 42
f 34 35 38
f 36 39 42
f 36 42 43
f 36 43 44
f 36 44 45
f 36 45 37
f 40 46 41
f 41 46 42
f 42 46 43
f 43 46 44

