# https://github.com/mikedh/trimesh
v -0.05491553 -0.00814776 0.00760057
v -0.05707797 -0.00814776 0.00684883
v -0.05491553 -0.01275914 0.00760057
v -0.05491553 -0.00585916 0.00759927
v -0.05822340 -0.00814776 0.00644455
v -0.05822237 -0.01043637 0.00644971
v -0.05707487 -0.01730220 0.00684754
v -0.05491553 -0.01504775 0.00759669
v -0.05491553 -0.00360160 0.00745590
v -0.05704483 -0.00585916 0.00684754
v -0.05818923 -0.00585916 0.00642130
v -0.05946412 -0.00814776 0.00597181
v -0.05946412 -0.01043637 0.00599506
v -0.05946412 -0.01272809 0.00600539
v -0.05946412 -0.01501669 0.00601185
v -0.05946412 -0.01730220 0.00601314
v -0.05946412 -0.01959080 0.00601314
v -0.05821823 -0.01959080 0.00644842
v -0.05707383 -0.01959080 0.00683979
v -0.05491553 -0.01733635 0.00739132
v -0.05491553 -0.00356744 0.00745203
v -0.06293355 -0.00694912 0.00421905
v -0.06175187 -0.00814776 0.00492429
v -0.05658914 -0.00356744 0.00672613
v -0.06175187 -0.00127884 0.00356032
v -0.06175187 -0.01043637 0.00497725
v -0.06175187 -0.01272809 0.00501858
v -0.06175187 -0.01501669 0.00505604
v -0.06175187 -0.01730220 0.00508703
v -0.06175187 -0.01959080 0.00511674
v -0.06175187 -0.02188252 0.00514516
v -0.06175187 -0.02417112 0.00515291
v -0.05946412 -0.02188252 0.00601185
v -0.05946412 -0.02417112 0.00593564
v -0.05672585 -0.02148193 0.00671709
v -0.05563116 -0.02148193 0.00671709
v -0.05491553 -0.01967154 0.00689662
v -0.05491553 -0.00187816 0.00689404
v -0.05612206 -0.00234396 0.00656467
v -0.06402927 -0.00814776 0.00304883
v -0.06298119 -0.00814776 0.00425135
v -0.06330949 -0.00127884 0.00244046
v -0.06302883 -0.01043637 0.00428751
v -0.05946412 -0.00127884 0.00403047
v -0.06306508 -0.01272809 0.00431722
v -0.06309822 -0.01501669 0.00434692
v -0.06312826 -0.01730220 0.00437793
v -0.06315725 -0.01959080 0.00440763
v -0.06318314 -0.02188252 0.00443605
v -0.06320696 -0.02417112 0.00446188
v -0.06316347 -0.02645973 0.00442571
v -0.06303815 -0.02874834 0.00430947
v -0.06294391 -0.03011778 0.00422422
v -0.06092335 -0.03287218 0.00424618
v -0.05491553 -0.02093540 0.00640063
v -0.06002751 -0.03287218 0.00424618
v -0.05989288 -0.03299639 0.00421905
v -0.05903225 -0.03299639 0.00412993
v -0.05850096 -0.03212380 0.00416997
v -0.05728303 -0.03299639 0.00299587
v -0.05491553 -0.00187816 0.00607255
v -0.05592011 -0.00127884 0.00024080
v -0.05616452 -0.00127884 0.00138391
v -0.05730892 -0.00127884 0.00290933
v -0.05730996 -0.00127884 0.00291062
v -0.06517471 -0.01043637 0.00182823
v -0.06416287 -0.01043637 0.00304883
v -0.06396092 -0.00127884 0.00076005
v -0.06431718 -0.02188252 0.00304883
v -0.06434100 -0.02417112 0.00304883
v -0.06417530 -0.02645973 0.00304883
v -0.06349902 -0.03299639 0.00282796
v -0.06329706 -0.03299639 0.00302558
v -0.06244990 -0.03164248 0.00408343
v -0.06191551 -0.03299639 0.00399689
v -0.06107973 -0.03299639 0.00419064
v -0.05491553 -0.02233589 0.00540219
v -0.05612931 -0.03299639 0.00168357
v -0.05606407 -0.03299639 0.00151824
v -0.05570470 -0.03299639 0.00053917
v -0.05491553 -0.00277559 -0.00559353
v -0.05592011 -0.00127884 -0.00070726
v -0.06508564 -0.00805461 0.00095896
v -0.06526791 -0.00875640 0.00032864
v -0.06530934 -0.01043637 0.00068513
v -0.06517574 -0.01501669 0.00182306
v -0.06517471 -0.01272809 0.00182823
v -0.06368751 -0.00127884 -0.00152874
v -0.06533937 -0.00859803 -0.00284234
v -0.06514053 -0.00722549 -0.00152874
v -0.06536216 -0.00836824 -0.00152874
v -0.06517574 -0.01730220 0.00180756
v -0.06517574 -0.01959080 0.00178302
v -0.06517574 -0.02188252 0.00174040
v -0.06517574 -0.02417112 0.00164998
v -0.06415148 -0.03299639 0.00109975
v -0.05491553 -0.02351280 0.00431851
v -0.05570470 -0.03299639 -0.00117096
v -0.05491553 -0.02843470 -0.00165145
v -0.05491553 -0.02811796 -0.00022160
v -0.05491553 -0.02713048 0.00084142
v -0.05795413 -0.00320102 -0.00559353
v -0.05946618 -0.00127884 -0.00396606
v -0.05946412 -0.00127884 -0.00396606
v -0.05756162 -0.00127884 -0.00325695
v -0.05641619 -0.00127884 -0.00185165
v -0.05641515 -0.00127884 -0.00185036
v -0.05491553 -0.02657773 -0.00559353
v -0.06549576 -0.01043637 -0.00152874
v -0.06530831 -0.01272809 0.00068513
v -0.06303608 -0.00127884 -0.00282038
v -0.06425712 -0.00796145 -0.00356178
v -0.06267567 -0.00814776 -0.00480305
v -0.06404170 -0.01043637 -0.00388469
v -0.06537251 -0.01043637 -0.00289013
v -0.06521924 -0.02417112 0.00050688
v -0.06520163 -0.02539461 0.00016718
v -0.06426851 -0.03299639 0.00076005
v -0.06530002 -0.01501669 0.00067867
v -0.05577822 -0.03299639 -0.00133629
v -0.05491553 -0.02771117 -0.00318850
v -0.06175394 -0.00127884 -0.00353078
v -0.05973545 -0.00413261 -0.00559353
v -0.05624323 -0.03299639 -0.00231535
v -0.05640790 -0.03299639 -0.00247810
v -0.05738763 -0.03299639 -0.00343003
v -0.05769626 -0.03299639 -0.00356436
v -0.05946412 -0.03299639 -0.00431868
v -0.05717429 -0.02687274 -0.00559353
v -0.06520163 -0.02539461 -0.00044376
v -0.06081461 -0.00585916 -0.00559353
v -0.06148053 -0.00814776 -0.00559353
v -0.06267567 -0.01043637 -0.00481338
v -0.06267671 -0.01501669 -0.00481338
v -0.06267775 -0.01730220 -0.00481079
v -0.06267981 -0.02188252 -0.00479659
v -0.06268189 -0.02417112 -0.00478626
v -0.06526895 -0.01272809 -0.00278034
v -0.06371443 -0.02417112 -0.00364186
v -0.06342445 -0.03104005 -0.00329312
v -0.06395678 -0.03299639 -0.00152874
v -0.06033303 -0.00507352 -0.00559353
v -0.05979449 -0.03299639 -0.00428122
v -0.05940094 -0.02678268 -0.00559353
v -0.06485987 -0.02417112 -0.00165920
v -0.06148985 -0.02417112 -0.00559353
v -0.06153645 -0.02417112 -0.00556253
v -0.06199421 -0.03299639 -0.00378524
v -0.06320178 -0.03299639 -0.00303221
v -0.06175187 -0.03299639 -0.00391957
v -0.06065718 -0.02605294 -0.00559353
f 1 2 3
f 1 3 8
f 1 8 20
f 1 20 37
f 1 37 55
f 1 55 77
f 1 77 97
f 1 97 101
f 1 101 100
f 1 100 99
f 1 99 121
f 1 121 108
f 1 108 81
f 1 81 61
f 1 61 38
f 1 38 21
f 1 21 9
f 1 9 4
f 1 4 2
f 2 5 6
f 2 6 7
f 2 7 3
f 2 4 5
f 3 7 8
f 4 9 10
f 4 10 5
f 5 11 12
f 5 12 13
f 5 13 14
f 5 14 15
f 5 15 6
f 5 10 11
f 6 15 16
f 6 16 17
f 6 17 18
f 6 18 7
f 7 18 8
f 8 18 19
f 8 19 20
f 9 21 11
f 9 11 10
f 11 22 23
f 11 23 12
f 11 21 24
f 11 24 25
f 11 25 22
f 12 23 26
f 12 26 27
f 12 27 28
f 12 28 29
f 12 29 30
f 12 30 31
f 12 31 13
f 13 31 14
f 14 31 32
f 14 32 15
f 15 32 16
f 16 32 17
f 17 32 33
f 17 33 18
f 18 33 19
f 19 33 34
f 19 34 35
f 19 35 20
f 20 35 36
f 20 36 37
f 21 38 39
f 21 39 24
f 22 40 41
f 22 41 23
f 22 25 42
f 22 42 40
f 23 41 43
f 23 43 26
f 24 39 25
f 25 39 38
f 25 38 44
f 25 44 65
f 25 65 64
f 25 64 63
f 25 63 62
f 25 62 82
f 25 82 107
f 25 107 106
f 25 106 105
f 25 105 104
f 25 104 103
f 25 103 122
f 25 122 111
f 25 111 88
f 25 88 68
f 25 68 42
f 26 43 45
f 26 45 46
f 26 46 47
f 26 47 48
f 26 48 49
f 26 49 27
f 27 49 50
f 27 50 28
f 28 50 29
f 29 50 30
f 30 50 31
f 31 50 32
f 32 34 33
f 32 50 51
f 32 51 52
f 32 52 53
f 32 53 34
f 34 53 54
f 34 54 35
f 35 54 56
f 35 56 36
f 36 55 37
f 36 56 57
f 36 57 58
f 36 58 59
f 36 59 60
f 36 60 55
f 38 61 82
f 38 82 62
f 38 62 63
f 38 63 64
f 38 64 65
f 38 65 44
f 40 66 67
f 40 67 41
f 40 42 66
f 41 67 43
f 42 68 66
f 43 67 45
f 45 67 46
f 46 67 47
f 47 67 48
f 48 67 49
f 49 67 50
f 50 69 70
f 50 70 51
f 50 67 66
f 50 66 69
f 51 71 52
f 51 70 71
f 52 71 53
f 53 71 72
f 53 72 73
f 53 73 74
f 53 74 75
f 53 75 76
f 53 76 54
f 54 76 57
f 54 57 56
f 55 60 78
f 55 78 79
f 55 79 80
f 55 80 77
f 57 76 75
f 57 75 73
f 57 73 72
f 57 72 96
f 57 96 118
f 57 118 141
f 57 141 149
f 57 149 148
f 57 148 150
f 57 150 143
f 57 143 128
f 57 128 127
f 57 127 126
f 57 126 125
f 57 125 124
f 57 124 120
f 57 120 98
f 57 98 80
f 57 80 79
f 57 79 78
f 57 78 60
f 57 60 58
f 58 60 59
f 61 81 82
f 66 68 83
f 66 83 84
f 66 84 85
f 66 85 86
f 66 86 87
f 66 87 70
f 66 70 69
f 68 88 89
f 68 89 90
f 68 90 91
f 68 91 84
f 68 84 83
f 70 87 86
f 70 86 92
f 70 92 93
f 70 93 94
f 70 94 95
f 70 95 71
f 71 95 72
f 72 95 96
f 73 75 74
f 77 80 97
f 80 98 99
f 80 99 100
f 80 100 101
f 80 101 97
f 81 102 103
f 81 103 104
f 81 104 105
f 81 105 106
f 81 106 107
f 81 107 82
f 81 108 129
f 81 129 144
f 81 144 151
f 81 151 146
f 81 146 132
f 81 132 131
f 81 131 142
f 81 142 123
f 81 123 102
f 84 91 109
f 84 109 85
f 85 109 110
f 85 110 86
f 86 110 92
f 88 111 89
f 89 112 113
f 89 113 114
f 89 114 115
f 89 115 109
f 89 109 91
f 89 91 90
f 89 111 112
f 92 110 93
f 93 110 94
f 94 110 95
f 95 116 117
f 95 117 118
f 95 118 96
f 95 110 119
f 95 119 109
f 95 109 116
f 98 120 108
f 98 108 121
f 98 121 99
f 102 122 103
f 102 123 122
f 108 120 124
f 108 124 125
f 108 125 126
f 108 126 127
f 108 127 128
f 108 128 129
f 109 119 110
f 109 115 130
f 109 130 117
f 109 117 116
f 111 122 131
f 111 131 113
f 111 113 112
f 113 131 132
f 113 132 133
f 113 133 114
f 114 133 134
f 114 134 135
f 114 135 136
f 114 136 137
f 114 137 115
f 115 138 130
f 115 137 139
f 115 139 140
f 115 140 138
f 117 130 118
f 118 130 141
f 122 123 142
f 122 142 131
f 128 143 144
f 128 144 129
f 130 145 141
f 130 138 145
f 132 146 133
f 133 146 134
f 134 146 135
f 135 146 147
f 135 147 136
f 136 147 137
f 137 147 140
f 137 140 139
f 138 140 145
f 140 148 149
f 140 149 141
f 140 141 145
f 140 147 146
f 140 146 148
f 143 150 151
f 143 151 144
f 146 151 150
f 146 150 148

