# https://github.com/mikedh/trimesh
v -0.02531398 0.00073854 -0.04086679
v -0.02673195 -0.00127598 -0.04140319
v -0.02531398 -0.00127598 -0.04086679
v -0.02531398 0.00330138 -0.04086776
v -0.02531398 0.00531349 -0.04086970
v -0.02671154 0.00330138 -0.04140319
v -0.02784687 0.00101391 -0.04233802
v -0.02670894 -0.00356588 -0.04140319
v -0.02531398 -0.00585577 -0.04087165
v -0.02531398 -0.00356588 -0.04086776
v -0.02531398 0.00759614 -0.04087456
v -0.02668202 0.00559128 -0.04140514
v -0.02872214 0.00101391 -0.04348371
v -0.02869392 -0.00087018 -0.04354784
v -0.02666248 -0.00653211 -0.04140611
v -0.02667377 -0.00585577 -0.04140514
v -0.02654829 0.00787875 -0.04140805
v -0.02785599 0.00330138 -0.04251973
v -0.02531398 -0.00653211 -0.04087456
v -0.02531398 0.00787875 -0.04088234
v -0.02974936 -0.00205136 -0.04783714
v -0.02974936 -0.00444753 -0.04791002
v -0.02974936 -0.00653211 -0.04798290
v -0.02730895 0.01814462 -0.04313290
v -0.02974936 0.01814462 -0.04782645
v -0.02758768 -0.00653211 -0.04274032
v -0.02531398 0.01814462 -0.04143235
v -0.02641588 0.00968555 -0.04147122
v -0.02531398 -0.00653211 -0.05079222
v -0.02974936 -0.00653211 -0.05079222
v -0.02974936 0.01814462 -0.05079222
v -0.02531398 0.01814462 -0.05079222
f 1 2 3
f 1 3 10
f 1 10 9
f 1 9 19
f 1 19 29
f 1 29 32
f 1 32 27
f 1 27 20
f 1 20 11
f 1 11 5
f 1 5 4
f 1 4 2
f 2 4 5
f 2 5 6
f 2 6 7
f 2 7 8
f 2 8 9
f 2 9 10
f 2 10 3
f 5 11 6
f 6 11 12
f 6 12 7
f 7 13 14
f 7 14 15
f 7 15 16
f 7 16 8
f 7 12 17
f 7 17 18
f 7 18 13
f 8 16 19
f 8 19 9
f 11 20 17
f 11 17 12
f 13 21 22
f 13 22 23
f 13 23 14
f 13 18 24
f 13 24 25
f 13 25 21
f 14 23 26
f 14 26 15
f 15 26 23
f 15 23 30
f 15 30 29
f 15 29 19
f 15 19 16
f 17 20 27
f 17 27 28
f 17 28 24
f 17 24 18
f 21 25 31
f 21 31 30
f 21 30 23
f 21 23 22
f 24 28 27
f 24 27 32
f 24 32 31
f 24 31 25
f 29 30 31
f 29 31 32

