# https://github.com/mikedh/trimesh
v 0.05066813 0.02155876 -0.02759431
v 0.05278606 0.02155401 -0.02682302
v 0.05076246 0.02155401 -0.02755882
v 0.05066813 0.02155401 -0.02749021
v 0.04969437 0.02155401 -0.01468583
v 0.04968524 0.02161861 -0.01468583
v 0.05066813 0.02161861 -0.02759431
v 0.06119996 0.03125904 -0.02376151
v 0.08077255 0.02155401 -0.01663535
v 0.05134672 0.02155401 -0.01403757
v 0.05066813 0.03125904 -0.01958803
v 0.05066813 0.03125904 -0.02756119
v 0.05066813 0.03088284 -0.02758721
v 0.05066813 0.03077359 -0.02759195
v 0.05134367 0.02161861 -0.01403757
v 0.05141366 0.02297519 -0.01406359
v 0.05076246 0.03077359 -0.02755882
v 0.05619726 0.03125904 -0.02558091
v 0.08077255 0.03125904 -0.01663535
v 0.08077255 0.02155401 -0.00860540
v 0.05265521 0.02155401 -0.01363063
v 0.06483634 0.02261704 -0.00940036
v 0.07667362 0.02502050 -0.00493822
v 0.07656712 0.02619658 -0.00489800
v 0.07332023 0.02619658 -0.00604784
v 0.07106537 0.02619658 -0.00684989
v 0.05356202 0.02515255 -0.01398315
v 0.05811131 0.02523424 -0.01170240
v 0.06524715 0.02736411 -0.00951392
v 0.07850551 0.02982266 -0.00472765
v 0.08077255 0.03008295 -0.00421662
v 0.08077255 0.03031285 -0.00483176
v 0.07804601 0.03125904 -0.00865745
v 0.05272215 0.03125904 -0.02684431
v 0.05959325 0.02390712 -0.01102575
v 0.05792569 0.02390712 -0.01163852
v 0.08077255 0.03125904 -0.00774894
v 0.08077255 0.02528364 -0.00458807
v 0.08018829 0.02496445 -0.00485068
v 0.07789995 0.02494165 -0.00483412
v 0.06061266 0.02155401 -0.01211407
v 0.05490399 0.02155401 -0.01311013
v 0.08077255 0.02695466 -0.00374107
v 0.08077255 0.02848413 -0.00342640
v 0.07658538 0.02767380 -0.00490274
v 0.06991816 0.02619658 -0.00727339
v 0.07780562 0.02845564 -0.00458097
v 0.07824381 0.03125904 -0.00858411
v 0.08077255 0.02617853 -0.00406756
f 1 2 3
f 1 3 4
f 1 4 5
f 1 5 6
f 1 6 7
f 1 7 8
f 1 8 9
f 1 9 2
f 2 9 20
f 2 20 41
f 2 41 42
f 2 42 21
f 2 21 10
f 2 10 5
f 2 5 4
f 2 4 3
f 5 10 6
f 6 11 12
f 6 12 13
f 6 13 14
f 6 14 7
f 6 10 15
f 6 15 16
f 6 16 11
f 7 14 17
f 7 17 8
f 8 17 18
f 8 18 34
f 8 34 12
f 8 12 11
f 8 11 33
f 8 33 48
f 8 48 37
f 8 37 19
f 8 19 9
f 9 19 37
f 9 37 32
f 9 32 31
f 9 31 44
f 9 44 43
f 9 43 49
f 9 49 38
f 9 38 20
f 10 21 22
f 10 22 23
f 10 23 24
f 10 24 25
f 10 25 26
f 10 26 15
f 11 16 27
f 11 27 28
f 11 28 29
f 11 29 30
f 11 30 31
f 11 31 32
f 11 32 33
f 12 34 13
f 13 34 17
f 13 17 14
f 15 26 35
f 15 35 36
f 15 36 16
f 16 36 28
f 16 28 27
f 17 34 18
f 20 38 39
f 20 39 40
f 20 40 22
f 20 22 41
f 21 42 22
f 22 40 23
f 22 42 41
f 23 40 43
f 23 43 44
f 23 44 24
f 24 45 25
f 24 44 45
f 25 45 26
f 26 45 46
f 26 46 36
f 26 36 35
f 28 36 46
f 28 46 45
f 28 45 47
f 28 47 30
f 28 30 29
f 30 47 44
f 30 44 31
f 32 37 48
f 32 48 33
f 38 49 40
f 38 40 39
f 40 49 43
f 44 47 45

