# https://github.com/mikedh/trimesh
v -0.09834047 -0.02209463 -0.06882343
v -0.09970134 -0.02187863 -0.06900521
v -0.09969874 -0.02209463 -0.06900521
v -0.09747682 -0.02209463 -0.06883908
v -0.09838378 0.02203828 -0.06886797
v -0.09945966 0.02203828 -0.06894622
v -0.09970568 -0.01958905 -0.06900642
v -0.10085086 -0.01272460 -0.06948315
v -0.09970568 0.01703574 -0.06900521
v -0.10084653 -0.02209463 -0.06995266
v -0.10085086 -0.01500987 -0.06950121
v -0.10085086 -0.01729946 -0.06956862
v -0.10085086 -0.01958905 -0.06969142
v -0.10084653 -0.02187863 -0.06990570
v -0.09679334 -0.02209463 -0.06927969
v -0.09381518 -0.00128961 -0.07010916
v -0.09378486 -0.00004978 -0.07009953
v -0.09707661 0.02203828 -0.06893298
v -0.09809185 0.02203828 -0.06888001
v -0.09969788 0.02203828 -0.06900521
v -0.09970308 0.02161492 -0.06900521
v -0.09970568 0.01932533 -0.06900521
v -0.10085086 -0.00004978 -0.06948195
v -0.10242397 -0.01272460 -0.07062682
v -0.10158284 -0.00004978 -0.07001406
v -0.10194407 -0.02209463 -0.07108429
v -0.10196139 -0.02187863 -0.07105058
v -0.10238759 -0.01500987 -0.07064608
v -0.10227410 -0.01729946 -0.07071229
v -0.10211991 -0.01958905 -0.07083629
v -0.09381518 -0.02209463 -0.07198358
v -0.09378486 0.00100862 -0.07009953
v -0.09378486 -0.00004978 -0.07998809
v -0.09378486 0.02203828 -0.07201849
v -0.10063169 0.02203828 -0.06971068
v -0.10085086 0.01932533 -0.06967336
v -0.10085086 0.01703574 -0.06955658
v -0.10085086 0.01474615 -0.06949639
v -0.10085086 0.01245656 -0.06948195
v -0.10263360 -0.01043501 -0.07250486
v -0.10263273 -0.01272460 -0.07250486
v -0.10242397 0.01245656 -0.07062682
v -0.10194407 -0.02209463 -0.07171632
v -0.10255911 -0.01500987 -0.07250486
v -0.09381518 -0.02209463 -0.08017950
v -0.09378486 0.00329821 -0.08013376
v -0.09378486 0.02203828 -0.08016867
v -0.10176388 0.02203828 -0.07088565
v -0.10198131 0.02161492 -0.07101447
v -0.10213723 0.01932533 -0.07081824
v -0.10229229 0.01703574 -0.07070026
v -0.10239625 0.01474615 -0.07064006
v -0.10263360 -0.00356624 -0.07250486
v -0.10235121 -0.00004978 -0.07330422
v -0.10202636 -0.01272460 -0.07422277
v -0.10263187 0.01245656 -0.07250486
v -0.09955581 -0.02209463 -0.07830027
v -0.10196139 -0.02187863 -0.07176448
v -0.10198824 -0.01500987 -0.07411804
v -0.10190595 -0.01678970 -0.07389291
v -0.10223599 -0.01745066 -0.07270349
v -0.10211991 -0.01958905 -0.07220870
v -0.09484255 -0.02209463 -0.08055391
v -0.09378486 0.02161492 -0.08016867
v -0.09378486 0.00559212 -0.08016747
v -0.09484342 0.02203828 -0.08055391
v -0.09484255 -0.00356624 -0.08055391
v -0.09609601 0.01703574 -0.08101017
v -0.10194666 0.02203828 -0.07107947
v -0.10257642 0.01474615 -0.07250486
v -0.10202636 0.01245656 -0.07422157
v -0.10202636 -0.00004978 -0.07422277
v -0.10015179 -0.01272460 -0.07936930
v -0.10007643 -0.01500987 -0.07936930
v -0.10157244 -0.01500987 -0.07526051
v -0.10183318 -0.00004978 -0.07475488
v -0.09914868 -0.02209463 -0.07915622
v -0.10171018 -0.01958905 -0.07335358
v -0.10035363 -0.01958905 -0.07708075
v -0.09961038 -0.02131704 -0.07845196
v -0.09954715 -0.01628858 -0.08054187
v -0.09983128 -0.01715258 -0.07945357
v -0.10151613 -0.01745066 -0.07471034
v -0.09597994 -0.02209463 -0.08095359
v -0.09609514 -0.01958905 -0.08100536
v -0.09609514 -0.01729946 -0.08100897
v -0.09609601 -0.00004978 -0.08101017
v -0.09609601 0.02203828 -0.08097285
v -0.09609601 0.01932533 -0.08100656
v -0.09609601 0.02161492 -0.08099693
v -0.09838378 0.01245656 -0.08112093
v -0.10194666 0.02203828 -0.07172234
v -0.10198131 0.02161492 -0.07181985
v -0.10213723 0.01932533 -0.07225926
v -0.10225765 0.01723878 -0.07272396
v -0.10191807 0.01661239 -0.07392662
v -0.10199777 0.01474615 -0.07414452
v -0.10015179 0.01245656 -0.07937051
v -0.09963117 -0.01272460 -0.08066346
v -0.09959393 -0.01500987 -0.08060928
v -0.10059791 -0.00004978 -0.07814618
v -0.10015179 -0.00004978 -0.07937051
v -0.09910623 -0.02200391 -0.07927661
v -0.09908024 -0.02209463 -0.07928022
v -0.09973253 -0.01958905 -0.07878543
v -0.09787789 -0.02187863 -0.08095479
v -0.09785276 -0.02209463 -0.08094035
v -0.09904386 -0.02209463 -0.07934041
v -0.09609514 -0.02209463 -0.08098008
v -0.09609514 -0.02187863 -0.08099332
v -0.09838291 -0.01272460 -0.08111852
v -0.09732002 -0.00004978 -0.08106916
v -0.09784671 0.02203828 -0.08093433
v -0.09838378 0.01474615 -0.08107879
v -0.09789348 0.02161492 -0.08095720
v -0.09963204 0.01245656 -0.08066346
v -0.09838378 -0.00004978 -0.08111973
v -0.09984341 0.02203828 -0.07753822
v -0.10156725 0.02161492 -0.07296353
v -0.10172837 0.01932533 -0.07340535
v -0.09955928 0.01610695 -0.08055993
v -0.10122334 0.01932533 -0.07479340
v -0.10153779 0.01723878 -0.07473080
v -0.09985294 0.01693638 -0.07947404
v -0.10009462 0.01474615 -0.07937051
v -0.09960259 0.01474615 -0.08062253
v -0.09838291 -0.01500987 -0.08106555
v -0.09771330 -0.02209463 -0.08094396
v -0.09912702 0.02179204 -0.07929707
v -0.09905945 0.02203828 -0.07930550
v -0.09923444 0.02203828 -0.07899249
v -0.09962338 0.02114836 -0.07848687
f 1 2 3
f 1 3 10
f 1 10 26
f 1 26 43
f 1 43 57
f 1 57 77
f 1 77 104
f 1 104 108
f 1 108 107
f 1 107 128
f 1 128 109
f 1 109 84
f 1 84 63
f 1 63 45
f 1 45 31
f 1 31 15
f 1 15 4
f 1 4 5
f 1 5 6
f 1 6 2
f 2 7 8
f 2 8 3
f 2 6 9
f 2 9 7
f 3 8 11
f 3 11 12
f 3 12 13
f 3 13 14
f 3 14 10
f 4 15 16
f 4 16 17
f 4 17 18
f 4 18 19
f 4 19 5
f 5 19 18
f 5 18 34
f 5 34 47
f 5 47 66
f 5 66 88
f 5 88 113
f 5 113 130
f 5 130 131
f 5 131 118
f 5 118 92
f 5 92 69
f 5 69 48
f 5 48 35
f 5 35 20
f 5 20 6
f 6 20 21
f 6 21 22
f 6 22 9
f 7 9 23
f 7 23 8
f 8 24 11
f 8 23 25
f 8 25 24
f 9 22 39
f 9 39 23
f 10 14 27
f 10 27 26
f 11 24 28
f 11 28 12
f 12 28 13
f 13 28 29
f 13 29 14
f 14 29 30
f 14 30 27
f 15 31 16
f 16 31 17
f 17 32 18
f 17 31 45
f 17 45 33
f 17 33 46
f 17 46 65
f 17 65 64
f 17 64 47
f 17 47 34
f 17 34 32
f 18 32 34
f 20 35 36
f 20 36 37
f 20 37 38
f 20 38 39
f 20 39 21
f 21 39 22
f 23 39 25
f 24 40 41
f 24 41 28
f 24 25 42
f 24 42 53
f 24 53 40
f 25 39 42
f 26 27 44
f 26 44 43
f 27 30 44
f 28 41 44
f 28 44 29
f 29 44 30
f 33 45 46
f 35 48 49
f 35 49 50
f 35 50 51
f 35 51 36
f 36 51 52
f 36 52 37
f 37 52 38
f 38 52 42
f 38 42 39
f 40 53 54
f 40 54 55
f 40 55 41
f 41 55 44
f 42 52 56
f 42 56 53
f 43 44 58
f 43 58 57
f 44 59 60
f 44 60 61
f 44 61 62
f 44 62 58
f 44 55 59
f 45 63 64
f 45 64 65
f 45 65 46
f 47 64 63
f 47 63 67
f 47 67 68
f 47 68 66
f 48 69 49
f 49 69 70
f 49 70 50
f 50 70 51
f 51 70 52
f 52 70 56
f 53 56 71
f 53 71 54
f 54 71 72
f 54 72 55
f 55 73 74
f 55 74 75
f 55 75 59
f 55 72 76
f 55 76 73
f 56 70 71
f 57 58 78
f 57 78 79
f 57 79 80
f 57 80 81
f 57 81 77
f 58 62 60
f 58 60 78
f 59 75 81
f 59 81 60
f 60 81 82
f 60 82 83
f 60 83 78
f 60 62 61
f 63 84 85
f 63 85 86
f 63 86 87
f 63 87 68
f 63 68 67
f 66 68 89
f 66 89 90
f 66 90 88
f 68 91 89
f 68 87 91
f 69 92 70
f 70 92 93
f 70 93 94
f 70 94 95
f 70 95 96
f 70 96 97
f 70 97 71
f 71 97 98
f 71 98 76
f 71 76 72
f 73 99 100
f 73 100 74
f 73 76 101
f 73 101 102
f 73 102 99
f 74 100 81
f 74 81 75
f 76 98 101
f 77 103 104
f 77 81 103
f 78 83 79
f 79 105 80
f 79 83 82
f 79 82 105
f 80 105 82
f 80 82 81
f 81 100 106
f 81 106 107
f 81 107 108
f 81 108 103
f 84 109 110
f 84 110 85
f 85 110 111
f 85 111 86
f 86 111 112
f 86 112 87
f 87 112 91
f 88 90 113
f 89 91 90
f 90 91 114
f 90 114 115
f 90 115 113
f 91 116 114
f 91 112 111
f 91 111 117
f 91 117 99
f 91 99 116
f 92 118 93
f 93 118 119
f 93 119 120
f 93 120 96
f 93 96 95
f 93 95 94
f 96 121 97
f 96 120 122
f 96 122 123
f 96 123 124
f 96 124 121
f 97 121 125
f 97 125 98
f 98 125 126
f 98 126 116
f 98 116 102
f 98 102 101
f 99 117 111
f 99 111 127
f 99 127 100
f 99 102 116
f 100 127 106
f 103 108 104
f 106 110 109
f 106 109 128
f 106 128 107
f 106 127 111
f 106 111 110
f 113 129 130
f 113 115 121
f 113 121 129
f 114 116 126
f 114 126 115
f 115 126 121
f 118 131 132
f 118 132 120
f 118 120 119
f 120 132 122
f 121 126 125
f 121 124 132
f 121 132 131
f 121 131 129
f 122 124 123
f 122 132 124
f 129 131 130

