# https://github.com/mikedh/trimesh
v 0.02027742 -0.00585647 -0.00092689
v 0.02035726 -0.00585647 0.00076072
v 0.02034185 -0.00356745 0.00305032
v 0.02035446 -0.00127842 0.00533809
v 0.02035025 -0.00012707 0.00533809
v 0.02044830 -0.00515472 -0.00092689
v 0.02085728 -0.00739930 -0.00092689
v 0.02070741 -0.00585647 0.00305032
v 0.02114300 -0.00758906 0.00076072
v 0.02090350 -0.00375720 0.00553814
v 0.02107997 -0.00127842 0.00713673
v 0.02071441 -0.00012707 0.00626953
v 0.02067940 -0.00012707 0.00413318
v 0.02094271 -0.00337684 -0.00092689
v 0.02106457 -0.00785574 -0.00092689
v 0.02149316 -0.00722151 0.00305032
v 0.02176768 -0.00702407 0.00422587
v 0.02138671 -0.00585647 0.00475353
v 0.02295820 -0.00872246 -0.00092689
v 0.02134469 -0.00312041 0.00686785
v 0.02107577 -0.00012707 0.00716426
v 0.02295820 -0.00127842 0.00788464
v 0.02104356 -0.00012707 0.00297415
v 0.02295820 -0.00211693 -0.00092689
v 0.02218226 -0.00702407 0.00422587
v 0.02753541 -0.00486496 0.00663935
v 0.02524680 -0.00479316 0.00655676
v 0.02389381 -0.00473333 0.00650078
v 0.02236714 -0.00464529 0.00643379
v 0.02295820 -0.00818824 0.00076072
v 0.02982541 -0.00885922 -0.00092689
v 0.02306184 -0.00375720 0.00697522
v 0.02295820 -0.00012707 0.00790941
v 0.02524680 -0.00127842 0.00809387
v 0.02295820 -0.00012707 0.00226204
v 0.03201878 -0.00167588 -0.00092689
v 0.02370893 -0.00697278 0.00413043
v 0.02982541 -0.00571117 0.00533809
v 0.02982541 -0.00484103 0.00663385
v 0.02982541 -0.00824123 0.00076072
v 0.02982541 -0.00741811 0.00262268
v 0.02982541 -0.00356745 0.00756253
v 0.03211402 -0.00883358 -0.00092689
v 0.02753541 -0.00127842 0.00828750
v 0.02982541 -0.00127842 0.00844717
v 0.02524680 -0.00012707 0.00805716
v 0.02524680 -0.00012707 0.00226662
v 0.02753541 -0.00012707 0.00234004
v 0.02982541 -0.00012707 0.00244282
v 0.03239974 -0.00012707 0.00320449
v 0.03390681 -0.00196137 -0.00092689
v 0.02642892 -0.00012707 0.00230425
v 0.02982541 -0.00672661 0.00376611
v 0.03105656 -0.00476666 0.00655584
v 0.03211402 -0.00799165 0.00076072
v 0.03211402 -0.00721980 0.00225653
v 0.03141091 -0.00356745 0.00706607
v 0.03224007 -0.00877716 -0.00092689
v 0.03327793 -0.00702748 0.00194085
v 0.03073161 -0.00012707 0.00780388
v 0.02982541 -0.00012707 0.00819297
v 0.02753541 -0.00012707 0.00816912
v 0.03175266 -0.00127842 0.00750564
v 0.03168963 -0.00012707 0.00733587
v 0.03258463 -0.00012707 0.00430662
v 0.03268967 -0.00012707 0.00533809
v 0.03452728 -0.00356916 -0.00092689
v 0.03245437 -0.00356745 0.00533809
v 0.03377655 -0.00797113 -0.00092689
v 0.03441943 -0.00625479 -0.00092689
v 0.03454129 -0.00585647 -0.00092689
v 0.03395583 -0.00585647 0.00076072
v 0.03340259 -0.00585647 0.00229140
v 0.03315748 -0.00356745 0.00392854
v 0.03276110 -0.00127842 0.00533809
v 0.03218825 -0.00012707 0.00641636
v 0.03458610 -0.00428800 -0.00092689
f 1 2 3
f 1 3 4
f 1 4 5
f 1 5 6
f 1 6 14
f 1 14 24
f 1 24 36
f 1 36 51
f 1 51 67
f 1 67 77
f 1 77 71
f 1 71 70
f 1 70 69
f 1 69 58
f 1 58 43
f 1 43 31
f 1 31 19
f 1 19 15
f 1 15 7
f 1 7 2
f 2 8 3
f 2 7 9
f 2 9 8
f 3 8 4
f 4 8 10
f 4 10 11
f 4 11 12
f 4 12 5
f 5 12 21
f 5 21 33
f 5 33 46
f 5 46 62
f 5 62 61
f 5 61 60
f 5 60 64
f 5 64 76
f 5 76 66
f 5 66 65
f 5 65 50
f 5 50 49
f 5 49 48
f 5 48 52
f 5 52 47
f 5 47 35
f 5 35 23
f 5 23 13
f 5 13 14
f 5 14 6
f 7 15 9
f 8 9 16
f 8 16 17
f 8 17 18
f 8 18 10
f 9 19 16
f 9 15 19
f 10 18 20
f 10 20 11
f 11 21 12
f 11 20 22
f 11 22 21
f 13 23 14
f 14 23 24
f 16 19 17
f 17 25 26
f 17 26 27
f 17 27 28
f 17 28 29
f 17 29 20
f 17 20 18
f 17 19 30
f 17 30 31
f 17 31 25
f 19 31 30
f 20 29 32
f 20 32 22
f 21 22 33
f 22 32 34
f 22 34 33
f 23 35 24
f 24 35 36
f 25 37 38
f 25 38 39
f 25 39 26
f 25 31 40
f 25 40 41
f 25 41 37
f 26 39 42
f 26 42 27
f 27 42 28
f 28 42 32
f 28 32 29
f 31 43 40
f 32 42 44
f 32 44 34
f 33 34 44
f 33 44 45
f 33 45 46
f 35 47 36
f 36 48 49
f 36 49 50
f 36 50 51
f 36 47 52
f 36 52 48
f 37 41 53
f 37 53 38
f 38 53 54
f 38 54 39
f 39 54 42
f 40 43 41
f 41 43 55
f 41 55 56
f 41 56 53
f 42 54 57
f 42 57 45
f 42 45 44
f 43 58 59
f 43 59 55
f 45 60 61
f 45 61 62
f 45 62 46
f 45 57 63
f 45 63 64
f 45 64 60
f 50 65 51
f 51 66 67
f 51 65 66
f 53 56 54
f 54 56 59
f 54 59 57
f 55 59 56
f 57 59 68
f 57 68 63
f 58 69 59
f 59 69 70
f 59 70 71
f 59 71 72
f 59 72 73
f 59 73 68
f 63 68 74
f 63 74 75
f 63 75 76
f 63 76 64
f 66 75 77
f 66 77 67
f 66 76 75
f 68 73 74
f 71 77 74
f 71 74 72
f 72 74 73
f 74 77 75

