# https://github.com/mikedh/trimesh
v 0.08077255 0.02161696 -0.01663668
v 0.08077255 0.02161696 -0.00860287
v 0.08077255 0.02645025 -0.01663469
v 0.08123675 0.02645025 -0.01646740
v 0.08251413 0.02645025 -0.01600338
v 0.08251413 0.02161696 -0.01600338
v 0.08077255 0.02528203 -0.00458796
v 0.11440573 0.02161696 0.00360517
v 0.08077255 0.02645025 -0.00395266
v 0.11437611 0.02645025 -0.00440872
v 0.11440573 0.02161696 -0.00439677
v 0.08077255 0.02617676 -0.00406618
v 0.11440573 0.02645025 0.00370873
v 0.08344911 0.02645025 -0.00314211
v 0.11440573 0.02645025 -0.00439677
f 1 2 7
f 1 7 12
f 1 12 9
f 1 9 3
f 1 3 4
f 1 4 5
f 1 5 6
f 1 6 11
f 1 11 8
f 1 8 2
f 2 8 7
f 3 9 14
f 3 14 13
f 3 13 15
f 3 15 10
f 3 10 5
f 3 5 4
f 5 10 6
f 6 10 11
f 7 8 12
f 8 11 15
f 8 15 13
f 8 13 14
f 8 14 12
f 9 12 14
f 10 15 11

