# https://github.com/mikedh/trimesh
v -0.05491553 -0.02843748 -0.00165267
v -0.05491553 -0.02812094 -0.00023416
v -0.05491553 -0.02773742 -0.00313770
v -0.05264520 -0.02608513 -0.00313770
v -0.05490752 -0.02810912 -0.00023416
v -0.05491553 -0.01502081 -0.00023416
v -0.05491553 -0.01502081 -0.00313770
v -0.05152149 -0.02417146 -0.00313770
v -0.05317466 -0.02599976 -0.00152958
v -0.05355966 -0.02564382 -0.00023416
v -0.05252365 -0.01502081 -0.00023416
v -0.05119799 -0.01502081 -0.00313770
v -0.05313499 -0.02412156 -0.00023416
v -0.05349088 -0.02542842 -0.00023416
v -0.05148802 -0.02381159 -0.00313770
v -0.05280349 -0.01959417 -0.00023416
v -0.05141414 -0.02188216 -0.00313770
v -0.05296360 -0.02188216 -0.00023416
f 1 2 6
f 1 6 7
f 1 7 3
f 1 3 4
f 1 4 2
f 2 4 5
f 2 5 10
f 2 10 14
f 2 14 13
f 2 13 18
f 2 18 16
f 2 16 11
f 2 11 6
f 3 7 12
f 3 12 17
f 3 17 15
f 3 15 8
f 3 8 4
f 4 8 9
f 4 9 5
f 5 9 10
f 6 11 12
f 6 12 7
f 8 13 14
f 8 14 10
f 8 10 9
f 8 15 13
f 11 16 15
f 11 15 17
f 11 17 12
f 13 15 18
f 15 16 18

