# https://github.com/mikedh/trimesh
v -0.02186528 0.03459171 -0.05386377
v -0.02186528 0.03998058 -0.05397003
v -0.01934909 0.04089547 -0.05305984
v -0.01864325 0.04222156 -0.05282076
v -0.01864325 0.04023300 -0.05270891
v -0.01864325 0.04005367 -0.05269214
v -0.02099701 0.03459171 -0.05340239
v -0.02186528 0.03459171 -0.04432572
v -0.02186528 0.04222156 -0.05399380
v -0.01864325 0.04276638 -0.05281377
v -0.01864325 0.03993260 -0.05267676
v -0.02059867 0.03459171 -0.05314373
v -0.02158458 0.03459171 -0.04411600
v -0.02186528 0.04118559 -0.04130715
v -0.02186528 0.04447510 -0.05380784
v -0.02040344 0.04441914 -0.05334646
v -0.01934909 0.04359561 -0.05305984
v -0.01864325 0.04424438 -0.05265439
v -0.01864325 0.03459171 -0.05148695
v -0.01946579 0.03459171 -0.05218881
v -0.02143729 0.03459171 -0.04400694
v -0.01864325 0.03459171 -0.04278637
v -0.01864325 0.04207307 -0.03983911
v -0.02186528 0.04223755 -0.04097160
v -0.02029243 0.03459171 -0.04343231
v -0.02186528 0.04587086 -0.05333807
v -0.02107396 0.04582175 -0.05323601
v -0.01954779 0.04512158 -0.05291863
v -0.01864325 0.04454135 -0.05260965
v -0.01864325 0.04451051 -0.03971048
v -0.02186528 0.04323011 -0.04091847
v -0.02186528 0.04613814 -0.05195812
v -0.01864325 0.04596452 -0.05157643
v -0.02186528 0.04458704 -0.04085975
v -0.01864325 0.04593026 -0.04059410
v -0.02186528 0.04586629 -0.04130715
v -0.02186528 0.04625807 -0.04960786
v -0.02054253 0.04625921 -0.04960786
v -0.01864325 0.04625921 -0.04960786
v -0.01864325 0.04625578 -0.04274024
v -0.02054253 0.04624208 -0.04274024
v -0.02054253 0.04594054 -0.04113658
v -0.02186528 0.04611644 -0.04263118
v -0.02186528 0.04625807 -0.04503037
v -0.01864325 0.04625921 -0.04921778
v -0.01864325 0.04625807 -0.04503037
f 1 2 3
f 1 3 4
f 1 4 5
f 1 5 6
f 1 6 7
f 1 7 12
f 1 12 20
f 1 20 19
f 1 19 22
f 1 22 25
f 1 25 21
f 1 21 13
f 1 13 8
f 1 8 14
f 1 14 24
f 1 24 31
f 1 31 34
f 1 34 36
f 1 36 43
f 1 43 44
f 1 44 37
f 1 37 32
f 1 32 26
f 1 26 15
f 1 15 9
f 1 9 2
f 2 9 4
f 2 4 3
f 4 10 18
f 4 18 29
f 4 29 33
f 4 33 39
f 4 39 45
f 4 45 46
f 4 46 40
f 4 40 35
f 4 35 30
f 4 30 23
f 4 23 22
f 4 22 19
f 4 19 11
f 4 11 6
f 4 6 5
f 4 9 10
f 6 11 7
f 7 11 12
f 8 13 14
f 9 15 16
f 9 16 17
f 9 17 10
f 10 17 18
f 11 19 20
f 11 20 12
f 13 21 14
f 14 22 23
f 14 23 24
f 14 21 25
f 14 25 22
f 15 26 27
f 15 27 28
f 15 28 16
f 16 28 17
f 17 28 18
f 18 28 29
f 23 30 31
f 23 31 24
f 26 32 33
f 26 33 27
f 27 33 28
f 28 33 29
f 30 34 31
f 30 35 36
f 30 36 34
f 32 37 38
f 32 38 39
f 32 39 33
f 35 40 41
f 35 41 42
f 35 42 36
f 36 42 43
f 37 44 38
f 38 45 39
f 38 44 45
f 40 44 41
f 40 46 44
f 41 43 42
f 41 44 43
f 44 46 45

