# https://github.com/mikedh/trimesh
v -0.05491553 0.02765696 -0.00305425
v -0.05289550 0.02622706 -0.00305425
v -0.05105797 0.02534009 -0.00440891
v -0.05090079 0.02533202 -0.00610907
v -0.04811152 0.02380536 -0.01059291
v -0.04811152 0.02325167 -0.01294253
v -0.05332575 0.02513313 -0.00965263
v -0.05401774 0.02513313 -0.00965263
v -0.05491553 0.02555780 -0.00841495
v -0.05491553 0.00505264 -0.00305425
v -0.05265974 0.02588302 -0.00305425
v -0.05158012 0.02402576 -0.00305425
v -0.05075227 0.02390481 -0.00407653
v -0.04853444 0.02336725 -0.00672026
v -0.04811152 0.02349626 -0.00771958
v -0.04811152 0.02362797 -0.00800385
v -0.04811152 0.02368441 -0.00830671
v -0.04811152 0.02320598 -0.01302562
v -0.05491553 0.02550942 -0.00848384
v -0.05030604 0.02316566 -0.01228870
v -0.04811152 0.02161481 -0.01410585
v -0.05157280 0.02290226 -0.01191040
v -0.05491553 0.02390481 -0.00959687
v -0.05491553 0.00019849 -0.00604238
v -0.05489488 0.00019849 -0.00603691
v -0.04811152 0.00019849 -0.00447014
v -0.04811152 0.00328676 -0.00305425
v -0.05153350 0.02390481 -0.00305425
v -0.04811152 0.02161481 -0.00654314
v -0.04811152 0.02050475 -0.01417583
v -0.04862235 0.02161481 -0.01380190
v -0.05491553 0.02161481 -0.00983412
v -0.05491553 0.02248834 -0.00977180
v -0.05030604 0.02161481 -0.01277634
v -0.05163474 0.02161481 -0.01195085
v -0.05491553 0.00019849 -0.00982100
v -0.04811152 0.00019849 -0.01422284
v -0.04811152 0.01194414 -0.00305425
v -0.04811152 0.01932481 -0.01422284
v -0.05491553 0.01546783 -0.00983522
v -0.04871559 0.01932481 -0.01383361
v -0.05030604 0.01932481 -0.01280804
v -0.05277962 0.01703750 -0.01121284
v -0.05474169 0.00019849 -0.00994018
v -0.05491553 0.00173591 -0.00982866
v -0.04830933 0.00019849 -0.01409601
v -0.04850114 0.00019849 -0.01397246
v -0.05455455 0.00559289 -0.01006810
v -0.05491553 0.00631321 -0.00983522
v -0.05455455 0.00019849 -0.01006810
v -0.05491553 0.00402322 -0.00983412
f 1 2 3
f 1 3 4
f 1 4 5
f 1 5 6
f 1 6 7
f 1 7 8
f 1 8 9
f 1 9 19
f 1 19 23
f 1 23 33
f 1 33 32
f 1 32 40
f 1 40 49
f 1 49 51
f 1 51 45
f 1 45 36
f 1 36 24
f 1 24 10
f 1 10 27
f 1 27 38
f 1 38 28
f 1 28 12
f 1 12 11
f 1 11 2
f 2 11 3
f 3 11 12
f 3 12 13
f 3 13 14
f 3 14 15
f 3 15 16
f 3 16 17
f 3 17 4
f 4 17 5
f 5 17 16
f 5 16 15
f 5 15 29
f 5 29 38
f 5 38 27
f 5 27 26
f 5 26 37
f 5 37 39
f 5 39 30
f 5 30 21
f 5 21 18
f 5 18 6
f 6 18 7
f 7 18 8
f 8 19 9
f 8 18 20
f 8 20 21
f 8 21 22
f 8 22 23
f 8 23 19
f 10 24 25
f 10 25 26
f 10 26 27
f 12 28 13
f 13 28 14
f 14 28 29
f 14 29 15
f 18 21 20
f 21 30 31
f 21 31 22
f 22 32 33
f 22 33 23
f 22 31 34
f 22 34 35
f 22 35 32
f 24 36 44
f 24 44 50
f 24 50 47
f 24 47 46
f 24 46 37
f 24 37 26
f 24 26 25
f 28 38 29
f 30 34 31
f 30 39 34
f 32 35 40
f 34 39 35
f 35 39 41
f 35 41 42
f 35 42 43
f 35 43 40
f 36 45 44
f 37 46 39
f 39 46 47
f 39 47 41
f 40 43 48
f 40 48 50
f 40 50 49
f 41 47 42
f 42 47 43
f 43 47 48
f 44 45 50
f 45 51 50
f 47 50 48
f 49 50 51

