# https://github.com/mikedh/trimesh
v -0.05939891 -0.04248853 -0.06765492
v -0.05939891 -0.04019942 -0.06765492
v -0.05864155 -0.03894677 -0.06738001
v -0.05765397 -0.04248853 -0.06702013
v -0.04452513 -0.04377410 -0.06221926
v -0.05119798 -0.04417565 -0.06457846
v -0.05795425 -0.04477764 -0.06691017
v -0.05939891 -0.04258659 -0.06764492
v -0.05939891 -0.03894677 -0.06765242
v -0.05259261 -0.04248853 -0.06517826
v -0.04335070 -0.03894677 -0.06181440
v -0.04335070 -0.04248853 -0.06181440
v -0.03248396 -0.04248853 -0.05785824
v -0.02741260 -0.04248853 -0.05601137
v -0.02531398 -0.04248853 -0.05524663
v -0.02602798 -0.04416134 -0.05541907
v -0.03310120 -0.04593293 -0.05763082
v -0.05827454 -0.04593436 -0.06679271
v -0.05939891 -0.04477764 -0.06735252
v -0.05939891 -0.03894677 -0.05910532
v -0.03248396 -0.03894677 -0.05785824
v -0.02538738 -0.03894677 -0.05527412
v -0.02531398 -0.03894677 -0.05524663
v -0.02531398 -0.04477263 -0.05487426
v -0.02646838 -0.04568813 -0.05514417
v -0.02799313 -0.04602599 -0.05547905
v -0.03980408 -0.04597517 -0.05997253
v -0.04649362 -0.04600666 -0.06230923
v -0.05316647 -0.04602670 -0.06463594
v -0.05939891 -0.04601096 -0.06691517
v -0.05939891 -0.04483991 -0.06734003
v -0.05939891 -0.04111420 -0.05501921
v -0.05431420 -0.03894677 -0.05708851
v -0.02531398 -0.03894677 -0.04597478
v -0.02531398 -0.04493655 -0.05481928
v -0.02531398 -0.04603314 -0.05386460
v -0.02531398 -0.04609327 -0.05370965
v -0.02970138 -0.04625289 -0.05418949
v -0.02970138 -0.04608397 -0.05565149
v -0.04801503 -0.04606965 -0.06245918
v -0.05488140 -0.04608468 -0.06481088
v -0.05939891 -0.04601740 -0.06688018
v -0.05939891 -0.04248853 -0.05452188
v -0.05424080 -0.04119723 -0.05287994
v -0.03574699 -0.04123946 -0.04606725
v -0.02906746 -0.04119580 -0.04372055
v -0.02531398 -0.04085222 -0.04311075
v -0.02531398 -0.04624645 -0.05211020
v -0.02531398 -0.04625862 -0.05189777
v -0.03657109 -0.04625862 -0.05647621
v -0.05488140 -0.04625289 -0.06334388
v -0.04801503 -0.04623786 -0.06105466
v -0.04114866 -0.04621424 -0.05876544
v -0.05939891 -0.04618060 -0.06563061
v -0.05464117 -0.04248853 -0.05272749
v -0.04910270 -0.04151791 -0.05080314
v -0.05939891 -0.04471250 -0.05465433
v -0.04929288 -0.04394946 -0.05070567
v -0.04929288 -0.04304327 -0.05070567
v -0.04242985 -0.04129458 -0.04841645
v -0.02531398 -0.04236541 -0.04212359
v -0.02531398 -0.04625862 -0.04522253
v -0.05717352 -0.04625934 -0.06334388
v -0.05939891 -0.04618632 -0.06556813
v -0.04264005 -0.04248853 -0.04833898
v -0.03605728 -0.04248853 -0.04595229
v -0.02947451 -0.04248853 -0.04356810
v -0.05939891 -0.04477764 -0.05466183
v -0.05446768 -0.04477764 -0.05278997
v -0.04261669 -0.04430307 -0.04834647
v -0.02929767 -0.04477764 -0.04362808
v -0.02531398 -0.04268179 -0.04214608
v -0.02531398 -0.04625576 -0.04503010
v -0.03199017 -0.04625862 -0.04731932
v -0.05717352 -0.04625862 -0.05647621
v -0.05939891 -0.04625862 -0.05870046
v -0.05939891 -0.04625862 -0.06334388
v -0.05939891 -0.04599234 -0.05513167
v -0.05400725 -0.04598876 -0.05295991
v -0.04219964 -0.04582914 -0.04855640
v -0.03553346 -0.04595298 -0.04613972
v -0.03589713 -0.04477764 -0.04600727
v -0.02883391 -0.04599020 -0.04380052
v -0.02531398 -0.04475258 -0.04233851
v -0.02531398 -0.04610186 -0.04349562
v -0.02741260 -0.04622569 -0.04503010
v -0.03885987 -0.04625647 -0.04960855
v -0.04572624 -0.04624502 -0.05189777
v -0.05259261 -0.04622498 -0.05418949
v -0.05939891 -0.04619778 -0.05647621
v -0.05939891 -0.04602957 -0.05515916
v -0.04731772 -0.04601596 -0.05062820
v -0.02741260 -0.04605748 -0.04366057
v -0.02531398 -0.04608755 -0.04338066
v -0.02531398 -0.04492939 -0.04242099
v -0.04067155 -0.04603100 -0.04830399
v -0.04572624 -0.04607681 -0.05047075
v -0.05259261 -0.04605677 -0.05281995
v -0.05939891 -0.04619348 -0.05643123
f 1 2 3
f 1 3 4
f 1 4 5
f 1 5 6
f 1 6 7
f 1 7 8
f 1 8 19
f 1 19 31
f 1 31 30
f 1 30 42
f 1 42 54
f 1 54 64
f 1 64 77
f 1 77 76
f 1 76 90
f 1 90 99
f 1 99 91
f 1 91 78
f 1 78 68
f 1 68 57
f 1 57 43
f 1 43 32
f 1 32 20
f 1 20 9
f 1 9 2
f 2 9 3
f 3 10 4
f 3 9 20
f 3 20 33
f 3 33 34
f 3 34 23
f 3 23 22
f 3 22 21
f 3 21 11
f 3 11 12
f 3 12 10
f 4 10 5
f 5 10 12
f 5 12 13
f 5 13 14
f 5 14 15
f 5 15 16
f 5 16 6
f 6 16 17
f 6 17 18
f 6 18 7
f 7 18 19
f 7 19 8
f 11 21 13
f 11 13 12
f 13 21 22
f 13 22 14
f 14 22 15
f 15 22 23
f 15 23 34
f 15 34 47
f 15 47 61
f 15 61 72
f 15 72 84
f 15 84 95
f 15 95 94
f 15 94 85
f 15 85 73
f 15 73 62
f 15 62 49
f 15 49 48
f 15 48 37
f 15 37 36
f 15 36 35
f 15 35 24
f 15 24 16
f 16 24 25
f 16 25 17
f 17 25 26
f 17 26 27
f 17 27 18
f 18 28 29
f 18 29 30
f 18 30 31
f 18 31 19
f 18 27 28
f 20 32 33
f 24 35 25
f 25 35 36
f 25 36 26
f 26 36 37
f 26 37 38
f 26 38 39
f 26 39 40
f 26 40 29
f 26 29 28
f 26 28 27
f 29 41 42
f 29 42 30
f 29 40 41
f 32 43 44
f 32 44 33
f 33 44 34
f 34 45 46
f 34 46 47
f 34 44 45
f 37 48 38
f 38 48 49
f 38 49 50
f 38 50 51
f 38 51 52
f 38 52 53
f 38 53 39
f 39 53 40
f 40 52 41
f 40 53 52
f 41 54 42
f 41 52 54
f 43 55 56
f 43 56 44
f 43 57 58
f 43 58 59
f 43 59 55
f 44 56 60
f 44 60 45
f 45 61 46
f 45 60 61
f 46 61 47
f 49 62 63
f 49 63 50
f 50 63 51
f 51 63 64
f 51 64 54
f 51 54 52
f 55 59 56
f 56 59 65
f 56 65 66
f 56 66 67
f 56 67 60
f 57 68 58
f 58 68 69
f 58 69 70
f 58 70 67
f 58 67 59
f 59 67 66
f 59 66 65
f 60 67 61
f 61 67 71
f 61 71 72
f 62 73 74
f 62 74 63
f 63 75 76
f 63 76 77
f 63 77 64
f 63 74 75
f 67 70 71
f 68 78 79
f 68 79 69
f 69 79 80
f 69 80 81
f 69 81 70
f 70 81 82
f 70 82 71
f 71 83 84
f 71 84 72
f 71 82 81
f 71 81 83
f 73 85 86
f 73 86 74
f 74 86 87
f 74 87 75
f 75 88 89
f 75 89 90
f 75 90 76
f 75 87 88
f 78 91 79
f 79 91 92
f 79 92 83
f 79 83 81
f 79 81 80
f 83 93 94
f 83 94 95
f 83 95 84
f 83 92 96
f 83 96 93
f 85 94 93
f 85 93 86
f 86 93 97
f 86 97 89
f 86 89 88
f 86 88 87
f 89 98 99
f 89 99 90
f 89 97 98
f 91 99 98
f 91 98 92
f 92 98 96
f 93 96 98
f 93 98 97

