# https://github.com/mikedh/trimesh
v -0.05591349 0.00229090 0.00035069
v -0.05612146 0.00229090 0.00149566
v -0.05591979 -0.00127573 0.00023889
v -0.05591349 0.00229090 -0.00070941
v -0.05616479 -0.00127573 0.00138305
v -0.05717788 0.00229090 0.00305439
v -0.05591979 -0.00127573 -0.00070696
v -0.05674302 0.00229090 -0.00290306
v -0.05730865 -0.00127573 0.00290913
v -0.05806492 0.00229090 0.00351385
v -0.05946403 -0.00127573 0.00403125
v -0.05641609 -0.00127573 -0.00185193
v -0.05727478 0.00229090 -0.00355511
v -0.05946403 0.00229090 0.00407206
v -0.05973739 0.00229090 0.00402391
v -0.06164855 0.00229090 0.00364035
v -0.06175254 -0.00127573 0.00356119
v -0.05756153 -0.00127573 -0.00325642
v -0.05946560 -0.00127573 -0.00396642
v -0.05950736 0.00229090 -0.00426511
v -0.06230005 0.00229090 0.00317110
v -0.06330920 -0.00127573 0.00243988
v -0.06175333 -0.00127573 -0.00353063
v -0.06175254 0.00229090 -0.00361387
v -0.06330920 0.00229090 0.00243988
v -0.06359674 0.00229090 0.00169887
v -0.06396069 -0.00127573 0.00075955
v -0.06303662 -0.00127573 -0.00281900
v -0.06303584 0.00229090 -0.00282063
v -0.06303584 0.00101137 -0.00282063
v -0.06396069 0.00229090 0.00075955
v -0.06384016 0.00229090 -0.00024995
v -0.06368733 -0.00127573 -0.00152876
v -0.06339979 0.00229090 -0.00209921
v -0.06368733 0.00229090 -0.00152876
f 1 2 3
f 1 3 7
f 1 7 4
f 1 4 8
f 1 8 13
f 1 13 20
f 1 20 24
f 1 24 29
f 1 29 34
f 1 34 35
f 1 35 32
f 1 32 31
f 1 31 26
f 1 26 25
f 1 25 21
f 1 21 16
f 1 16 15
f 1 15 14
f 1 14 10
f 1 10 6
f 1 6 2
f 2 5 3
f 2 6 5
f 3 5 9
f 3 9 11
f 3 11 17
f 3 17 22
f 3 22 27
f 3 27 33
f 3 33 28
f 3 28 23
f 3 23 19
f 3 19 18
f 3 18 12
f 3 12 7
f 4 7 8
f 5 6 9
f 6 10 11
f 6 11 9
f 7 12 8
f 8 12 13
f 10 14 11
f 11 14 15
f 11 15 16
f 11 16 17
f 12 18 13
f 13 19 20
f 13 18 19
f 16 21 17
f 17 21 22
f 19 23 20
f 20 23 24
f 21 25 22
f 22 26 27
f 22 25 26
f 23 28 24
f 24 28 30
f 24 30 29
f 26 31 27
f 27 31 32
f 27 32 33
f 28 33 34
f 28 34 30
f 29 30 34
f 32 35 33
f 33 35 34

