# https://github.com/mikedh/trimesh
v -0.02531398 -0.01795760 -0.02002302
v -0.01780885 -0.01606069 -0.02002302
v -0.01785034 -0.01605015 -0.01984502
v -0.01919109 -0.01619067 -0.01821258
v -0.02142805 -0.01621525 -0.01382038
v -0.02283163 -0.01624687 -0.01365309
v -0.02531398 -0.01632766 -0.01382779
v -0.02531398 0.01792202 -0.02002302
v -0.01320335 -0.01466612 -0.02002302
v -0.01320335 -0.01405840 -0.01327897
v -0.01465316 -0.01390033 -0.01180804
v -0.02283163 -0.01549162 -0.01250848
v -0.02531398 -0.01626092 -0.01367534
v -0.02531398 -0.01557241 -0.01262632
v -0.02531398 0.01610590 -0.01327073
v -0.02283163 0.01607429 -0.01328227
v -0.02054251 0.01603916 -0.01349652
v -0.01924799 0.01596539 -0.01384757
v -0.01905358 0.01603565 -0.01526659
v -0.01804001 0.01611293 -0.02002302
v -0.01320335 0.01434248 -0.02002302
v -0.01320335 -0.01345772 -0.01241701
v -0.01596428 -0.01397058 -0.01176766
v -0.01320335 -0.01247765 -0.01175200
v -0.01380437 -0.01269193 -0.01174129
v -0.02054251 -0.01422350 -0.01173964
v -0.02283163 -0.01434645 -0.01174047
v -0.02531398 -0.01445535 -0.01178744
v -0.02531398 -0.01550216 -0.01252991
v -0.02531398 0.01543848 -0.01212612
v -0.02283163 0.01542091 -0.01213766
v -0.02054251 0.01527689 -0.01235191
v -0.01476222 0.01360831 -0.01182782
v -0.01715447 0.01589163 -0.02002302
v -0.01320335 0.01378746 -0.01309686
v -0.01320335 0.01384016 -0.01356821
v -0.01320335 0.01397364 -0.01526659
v -0.01596428 -0.01272354 -0.01167207
v -0.01825340 -0.01406543 -0.01173882
v -0.01320335 -0.01213340 -0.01172811
v -0.02531398 -0.01435699 -0.01172234
v -0.02531398 0.01534363 -0.01208986
v -0.02531398 0.01429331 -0.01172069
v -0.02283163 0.01427574 -0.01173717
v -0.02054251 0.01413172 -0.01173717
v -0.01825340 0.01385069 -0.01174871
v -0.01596428 0.01366100 -0.01179238
v -0.01386957 0.01247017 -0.01175283
v -0.01320335 0.01225238 -0.01175612
v -0.01320335 0.01323244 -0.01216650
v -0.01320335 0.01325001 -0.01218628
v -0.01320335 -0.01043321 -0.01165064
v -0.01367516 -0.01043321 -0.01164076
v -0.01825340 -0.01272354 -0.01164488
v -0.02531398 -0.01272354 -0.01161109
v -0.02531398 0.01412469 -0.01169844
v -0.01825340 0.01245612 -0.01165312
v -0.01596428 0.01245612 -0.01169679
v -0.01320335 0.01016929 -0.01164652
v -0.01320335 -0.00996249 -0.01164076
v -0.02531398 -0.00127537 -0.01160615
v -0.02531398 0.01245612 -0.01160862
v -0.01367516 0.01016929 -0.01164076
v -0.01320335 0.00787896 -0.01164076
v -0.02531398 0.00101146 -0.01160532
f 1 2 3
f 1 3 4
f 1 4 5
f 1 5 6
f 1 6 7
f 1 7 13
f 1 13 14
f 1 14 29
f 1 29 28
f 1 28 41
f 1 41 55
f 1 55 61
f 1 61 65
f 1 65 62
f 1 62 56
f 1 56 43
f 1 43 42
f 1 42 30
f 1 30 15
f 1 15 8
f 1 8 20
f 1 20 34
f 1 34 21
f 1 21 9
f 1 9 2
f 2 9 10
f 2 10 3
f 3 10 4
f 4 10 5
f 5 10 11
f 5 11 12
f 5 12 6
f 6 13 7
f 6 12 14
f 6 14 13
f 8 15 16
f 8 16 17
f 8 17 18
f 8 18 19
f 8 19 20
f 9 21 37
f 9 37 36
f 9 36 35
f 9 35 51
f 9 51 50
f 9 50 49
f 9 49 59
f 9 59 64
f 9 64 60
f 9 60 52
f 9 52 40
f 9 40 24
f 9 24 22
f 9 22 10
f 10 22 11
f 11 23 12
f 11 22 24
f 11 24 25
f 11 25 23
f 12 23 26
f 12 26 27
f 12 27 28
f 12 28 29
f 12 29 14
f 15 30 31
f 15 31 16
f 16 31 17
f 17 31 32
f 17 32 33
f 17 33 18
f 18 34 19
f 18 33 35
f 18 35 36
f 18 36 34
f 19 34 20
f 21 34 37
f 23 25 38
f 23 38 39
f 23 39 26
f 24 40 25
f 25 40 38
f 26 39 41
f 26 41 27
f 27 41 28
f 30 42 31
f 31 42 43
f 31 43 44
f 31 44 45
f 31 45 33
f 31 33 32
f 33 45 46
f 33 46 47
f 33 47 48
f 33 48 49
f 33 49 50
f 33 50 51
f 33 51 35
f 34 36 37
f 38 40 52
f 38 52 53
f 38 53 54
f 38 54 39
f 39 54 41
f 41 54 55
f 43 56 44
f 44 56 45
f 45 56 57
f 45 57 46
f 46 57 58
f 46 58 47
f 47 58 48
f 48 58 49
f 49 58 59
f 52 60 53
f 53 60 55
f 53 55 54
f 55 60 61
f 56 62 57
f 57 62 63
f 57 63 59
f 57 59 58
f 59 63 64
f 60 64 65
f 60 65 61
f 62 65 64
f 62 64 63

