# https://github.com/mikedh/trimesh
v -0.01129373 -0.03101544 -0.03431315
v -0.01062085 -0.03332957 -0.03214895
v -0.01061690 -0.03172985 -0.03216542
v -0.01062706 -0.02939286 -0.03431315
v -0.01099511 -0.03349849 -0.03431315
v -0.01036965 -0.03461432 -0.03232477
v -0.00750483 -0.02782891 -0.03010662
v -0.00776281 -0.02734800 -0.03010662
v -0.00946477 -0.02734800 -0.03431315
v -0.00924292 -0.03534264 -0.03431315
v -0.01036965 -0.03461432 -0.03286870
v -0.00673542 -0.03700297 -0.03431315
v -0.00552684 -0.03749779 -0.03431315
v -0.00909502 -0.03497897 -0.03213865
v -0.00909502 -0.03332957 -0.03168778
v -0.00692397 -0.02844396 -0.03010662
v -0.00552684 -0.02734800 -0.03010662
v -0.00552684 -0.02734800 -0.03431315
v -0.00552684 -0.03482695 -0.03216130
v -0.00680655 -0.03508132 -0.03204271
v -0.00552684 -0.02914644 -0.03010662
v -0.00555788 -0.02913154 -0.03010662
f 1 2 3
f 1 3 4
f 1 4 9
f 1 9 18
f 1 18 13
f 1 13 12
f 1 12 10
f 1 10 5
f 1 5 2
f 2 5 6
f 2 6 7
f 2 7 8
f 2 8 3
f 3 8 4
f 4 8 9
f 5 10 11
f 5 11 6
f 6 11 12
f 6 12 13
f 6 13 14
f 6 14 15
f 6 15 7
f 7 16 22
f 7 22 21
f 7 21 17
f 7 17 8
f 7 15 16
f 8 17 18
f 8 18 9
f 10 12 11
f 13 19 20
f 13 20 14
f 13 18 17
f 13 17 21
f 13 21 19
f 14 20 21
f 14 21 15
f 15 21 22
f 15 22 16
f 19 21 20

