# https://github.com/mikedh/trimesh
v -0.07564225 -0.04232549 -0.06032880
v -0.07778059 -0.04248803 -0.06105690
v -0.07962138 -0.04409914 -0.06194797
v -0.07564225 -0.04258023 -0.06039789
v -0.07564225 -0.04083034 -0.06129782
v -0.08467537 -0.03619187 -0.06404900
v -0.08654606 -0.03619187 -0.06421907
v -0.07997017 -0.04248803 -0.06182042
v -0.08235908 -0.04413621 -0.06373544
v -0.08025775 -0.04456584 -0.06313844
v -0.07778059 -0.04452402 -0.06161315
v -0.07564225 -0.04486430 -0.06104804
v -0.08111479 -0.04248803 -0.06224736
v -0.08628125 -0.04174283 -0.06430765
v -0.08390375 -0.04382064 -0.06421021
v -0.07564225 -0.03619187 -0.06524655
v -0.08683221 -0.03619187 -0.06432182
v -0.08769068 -0.03619187 -0.06463183
v -0.08769068 -0.03790944 -0.06463183
v -0.08653609 -0.04019921 -0.06421553
v -0.07778059 -0.04550399 -0.06334571
v -0.07564225 -0.04494984 -0.06119862
v -0.08768071 -0.04019921 -0.06474698
v -0.09018635 -0.03789138 -0.06562389
v -0.09018635 -0.03981521 -0.06616598
v -0.08842956 -0.04156889 -0.06626518
v -0.08395785 -0.04383395 -0.06563452
v -0.08235908 -0.04447934 -0.06563452
v -0.08006983 -0.04516085 -0.06563452
v -0.07564225 -0.03619187 -0.07356564
v -0.08922538 -0.03619187 -0.06519341
v -0.08922538 -0.03790944 -0.06519872
v -0.07608074 -0.04584427 -0.06334571
v -0.07564225 -0.04519792 -0.06174248
v -0.09018635 -0.03619187 -0.06559023
v -0.09018635 -0.04024388 -0.06792510
v -0.08954144 -0.04073720 -0.06792510
v -0.08839682 -0.04155083 -0.06792510
v -0.08693614 -0.04228937 -0.06792510
v -0.08454155 -0.04329026 -0.06803494
v -0.08370871 -0.04371228 -0.06734581
v -0.08254415 -0.04406872 -0.06803494
v -0.08162589 -0.04379307 -0.07250273
v -0.08006983 -0.04438714 -0.07250273
v -0.08006983 -0.04469891 -0.07021214
v -0.08006983 -0.04494699 -0.06792510
v -0.07778059 -0.04529773 -0.07021214
v -0.07778059 -0.04543460 -0.06792510
v -0.07778059 -0.04554010 -0.06563452
v -0.07564225 -0.04248803 -0.07356564
v -0.07609782 -0.03619187 -0.07373217
v -0.07564225 -0.04590225 -0.06334571
v -0.09018635 -0.03619187 -0.07842494
v -0.09018635 -0.03994732 -0.06918466
v -0.08815337 -0.04139400 -0.06926792
v -0.08600222 -0.04148239 -0.07479154
v -0.08641366 -0.04172953 -0.07250273
v -0.08464689 -0.04258878 -0.07250273
v -0.08464689 -0.04294047 -0.07021214
v -0.08277051 -0.04334729 -0.07250273
v -0.08342967 -0.04360487 -0.06887287
v -0.08134970 -0.04368567 -0.07375697
v -0.08006983 -0.04392329 -0.07397841
v -0.07778059 -0.04481012 -0.07250273
v -0.07564225 -0.04558383 -0.07021214
v -0.07564225 -0.04569979 -0.06792510
v -0.07564225 -0.04578629 -0.06602426
v -0.07637828 -0.04381399 -0.07374102
v -0.07625015 -0.04248803 -0.07378708
v -0.07564225 -0.04443847 -0.07272771
v -0.08168426 -0.03790944 -0.07576588
v -0.08168426 -0.03619187 -0.07576588
v -0.08962828 -0.03619187 -0.07842317
v -0.08981905 -0.03691236 -0.07834168
v -0.09018635 -0.03657588 -0.07838065
v -0.09018635 -0.03969069 -0.07017848
v -0.08904031 -0.04053664 -0.07010231
v -0.08714684 -0.04067066 -0.07479154
v -0.08579294 -0.04134457 -0.07593772
v -0.08464689 -0.04150901 -0.07605641
v -0.08305667 -0.04156319 -0.07609538
v -0.07778059 -0.04401930 -0.07396424
v -0.07564225 -0.04451546 -0.07261610
v -0.07564225 -0.04555056 -0.07036450
v -0.08283173 -0.04019921 -0.07617864
v -0.07778059 -0.04248803 -0.07431323
v -0.08168711 -0.04019921 -0.07576588
v -0.08006983 -0.04019921 -0.07517773
v -0.07564225 -0.04448695 -0.07266748
v -0.08282888 -0.03790944 -0.07618219
v -0.08636383 -0.03619187 -0.07746831
v -0.08798253 -0.03619187 -0.07797143
v -0.09018635 -0.03691236 -0.07834168
v -0.09018635 -0.03939318 -0.07131403
v -0.08873565 -0.03952625 -0.07479154
v -0.08988027 -0.03870026 -0.07479154
v -0.09018635 -0.03823641 -0.07549661
v -0.08837830 -0.03926866 -0.07629025
v -0.09018635 -0.03713288 -0.07807063
v -0.08464689 -0.03790944 -0.07684297
v -0.09018635 -0.03891508 -0.07313339
v -0.09018635 -0.03847214 -0.07476319
f 1 2 3
f 1 3 4
f 1 4 12
f 1 12 22
f 1 22 34
f 1 34 52
f 1 52 67
f 1 67 66
f 1 66 65
f 1 65 84
f 1 84 83
f 1 83 89
f 1 89 70
f 1 70 50
f 1 50 30
f 1 30 16
f 1 16 5
f 1 5 6
f 1 6 7
f 1 7 2
f 2 8 3
f 2 7 8
f 3 9 10
f 3 10 11
f 3 11 12
f 3 12 4
f 3 8 13
f 3 13 14
f 3 14 15
f 3 15 9
f 5 16 6
f 6 16 30
f 6 30 51
f 6 51 72
f 6 72 91
f 6 91 92
f 6 92 73
f 6 73 53
f 6 53 35
f 6 35 31
f 6 31 18
f 6 18 17
f 6 17 7
f 7 17 8
f 8 17 18
f 8 18 19
f 8 19 20
f 8 20 13
f 9 21 10
f 9 15 21
f 10 21 11
f 11 22 12
f 11 21 22
f 13 20 14
f 14 20 23
f 14 23 24
f 14 24 25
f 14 25 26
f 14 26 15
f 15 26 27
f 15 27 28
f 15 28 29
f 15 29 21
f 18 31 19
f 19 31 32
f 19 32 20
f 20 32 24
f 20 24 23
f 21 33 22
f 21 29 33
f 22 33 34
f 24 35 53
f 24 53 75
f 24 75 93
f 24 93 99
f 24 99 97
f 24 97 102
f 24 102 101
f 24 101 94
f 24 94 76
f 24 76 54
f 24 54 36
f 24 36 25
f 24 32 35
f 25 36 26
f 26 36 37
f 26 37 38
f 26 38 39
f 26 39 27
f 27 39 40
f 27 40 28
f 28 40 41
f 28 41 42
f 28 42 43
f 28 43 44
f 28 44 45
f 28 45 46
f 28 46 29
f 29 46 47
f 29 47 48
f 29 48 49
f 29 49 33
f 30 50 51
f 31 35 32
f 33 52 34
f 33 49 52
f 36 54 37
f 37 54 55
f 37 55 38
f 38 55 56
f 38 56 57
f 38 57 39
f 39 57 58
f 39 58 59
f 39 59 40
f 40 42 41
f 40 59 60
f 40 60 61
f 40 61 42
f 42 61 60
f 42 60 43
f 43 60 62
f 43 62 44
f 44 62 63
f 44 63 64
f 44 64 47
f 44 47 45
f 45 47 46
f 47 64 65
f 47 65 48
f 48 66 49
f 48 65 66
f 49 66 67
f 49 67 52
f 50 68 69
f 50 69 51
f 50 70 68
f 51 69 71
f 51 71 72
f 53 73 74
f 53 74 75
f 54 76 55
f 55 76 77
f 55 77 78
f 55 78 79
f 55 79 56
f 56 79 58
f 56 58 57
f 58 79 62
f 58 62 60
f 58 60 59
f 62 79 63
f 63 79 80
f 63 80 81
f 63 81 82
f 63 82 64
f 64 82 83
f 64 83 84
f 64 84 65
f 68 82 81
f 68 81 85
f 68 85 86
f 68 86 69
f 68 70 82
f 69 86 85
f 69 85 87
f 69 87 88
f 69 88 71
f 70 89 82
f 71 88 90
f 71 90 91
f 71 91 72
f 73 92 85
f 73 85 81
f 73 81 74
f 74 93 75
f 74 81 93
f 76 94 77
f 77 94 95
f 77 95 78
f 78 95 79
f 79 95 96
f 79 96 97
f 79 97 98
f 79 98 99
f 79 99 93
f 79 93 80
f 80 93 81
f 82 89 83
f 85 92 91
f 85 91 100
f 85 100 87
f 87 100 91
f 87 91 90
f 87 90 88
f 94 101 96
f 94 96 95
f 96 101 102
f 96 102 97
f 97 99 98

