# https://github.com/mikedh/trimesh
v -0.05939892 -0.04248720 -0.05452025
v -0.05939892 -0.04471301 -0.05465449
v -0.05939892 -0.04111378 -0.05501991
v -0.06092213 -0.04124091 -0.05522686
v -0.06122741 -0.04248720 -0.05511313
v -0.06107000 -0.04477762 -0.05516907
v -0.05946411 -0.04477762 -0.05468059
v -0.05939892 -0.04477762 -0.05466195
v -0.05946411 -0.04111587 -0.05503110
v -0.05939892 -0.03562012 -0.05965483
v -0.05940050 -0.03561491 -0.05965483
v -0.06760645 -0.04129614 -0.05757788
v -0.07432415 -0.04141493 -0.05992517
v -0.07564067 -0.03561491 -0.06515668
v -0.07447043 -0.04294153 -0.05986550
v -0.07447043 -0.04391272 -0.05986550
v -0.06779406 -0.04429098 -0.05750703
v -0.07564067 -0.04232568 -0.06032788
v -0.06071225 -0.04595096 -0.05529958
v -0.05939892 -0.04599264 -0.05513551
v -0.05939892 -0.03561491 -0.06761024
v -0.07564067 -0.04083035 -0.06129737
v -0.07564067 -0.03561491 -0.07356702
v -0.07247500 -0.04601452 -0.05978720
v -0.07322229 -0.04471614 -0.05961567
v -0.06737271 -0.04581758 -0.05772517
v -0.07564067 -0.04257994 -0.06039686
v -0.07564067 -0.04486411 -0.06104754
v -0.07400138 -0.04543827 -0.06031855
v -0.06584632 -0.04603016 -0.05746229
v -0.05946411 -0.04602807 -0.05516720
v -0.05939892 -0.04602911 -0.05515975
v -0.05939892 -0.03561491 -0.06765312
v -0.06852705 -0.03561491 -0.07097736
v -0.06966866 -0.03562012 -0.07139312
v -0.07564067 -0.03683410 -0.07356702
v -0.07091044 -0.04607600 -0.05963059
v -0.07487747 -0.04598743 -0.06184550
v -0.07322229 -0.04608434 -0.06107177
v -0.07091044 -0.04624482 -0.06105686
v -0.07564067 -0.04494956 -0.06119855
v -0.05946411 -0.04619584 -0.05647788
v -0.05939892 -0.04619271 -0.05643313
v -0.05939892 -0.04248720 -0.06765312
v -0.05946411 -0.03562012 -0.06767736
v -0.05947047 -0.03561491 -0.06767923
v -0.06175688 -0.03561491 -0.06851261
v -0.06966866 -0.04248720 -0.07139312
v -0.07320003 -0.04248720 -0.07267770
v -0.07564067 -0.04248720 -0.07356515
v -0.07564067 -0.04519860 -0.06174296
v -0.07564067 -0.04590198 -0.06334635
v -0.07493470 -0.04599473 -0.06334635
v -0.07320003 -0.04616354 -0.06334635
v -0.07091044 -0.04625836 -0.06334635
v -0.06862086 -0.04625836 -0.06105686
v -0.06404328 -0.04625628 -0.05876737
v -0.05939892 -0.04619792 -0.05647788
v -0.05939892 -0.04258515 -0.06764380
v -0.06970046 -0.04379184 -0.07138007
v -0.05946411 -0.04248720 -0.06767736
v -0.06423567 -0.04248720 -0.06941499
v -0.07091044 -0.04432224 -0.07160007
v -0.07320003 -0.04470884 -0.07201770
v -0.07564067 -0.04443791 -0.07272803
v -0.07564067 -0.04578632 -0.06602177
v -0.07409519 -0.04589156 -0.06792346
v -0.07295040 -0.04603224 -0.06792346
v -0.07341150 -0.04606246 -0.06581855
v -0.07091044 -0.04620105 -0.06792346
v -0.07091044 -0.04624273 -0.06563397
v -0.06862086 -0.04625941 -0.06792346
v -0.06175370 -0.04625836 -0.05876737
v -0.05939892 -0.04625836 -0.05870211
v -0.05939892 -0.04477762 -0.06735296
v -0.06455526 -0.04477762 -0.06929007
v -0.06497820 -0.04597597 -0.06913346
v -0.07091044 -0.04546745 -0.07110414
v -0.07564067 -0.04448689 -0.07266837
v -0.07564067 -0.04569983 -0.06792346
v -0.07548961 -0.04571858 -0.06792346
v -0.07548961 -0.04560396 -0.07021295
v -0.07251156 -0.04597805 -0.06981770
v -0.07091044 -0.04604891 -0.06995939
v -0.06862086 -0.04609060 -0.06955109
v -0.06633286 -0.04621564 -0.06792346
v -0.06175370 -0.04625836 -0.06563397
v -0.05939892 -0.04625836 -0.06334635
v -0.05939892 -0.04484014 -0.06734177
v -0.06633286 -0.04604683 -0.06926956
v -0.05939892 -0.04601140 -0.06691482
v -0.05946411 -0.04601557 -0.06692228
v -0.07324455 -0.04584467 -0.07043295
v -0.07564067 -0.04451502 -0.07261617
v -0.07564067 -0.04558312 -0.07021295
v -0.07564067 -0.04555081 -0.07036583
v -0.05946411 -0.04618438 -0.06563397
v -0.05939892 -0.04618646 -0.06556872
v -0.05939892 -0.04601661 -0.06688126
v -0.05939892 -0.04618021 -0.06563211
f 1 2 8
f 1 8 20
f 1 20 32
f 1 32 43
f 1 43 58
f 1 58 74
f 1 74 88
f 1 88 98
f 1 98 100
f 1 100 99
f 1 99 91
f 1 91 89
f 1 89 75
f 1 75 59
f 1 59 44
f 1 44 33
f 1 33 21
f 1 21 10
f 1 10 3
f 1 3 4
f 1 4 5
f 1 5 6
f 1 6 2
f 2 6 7
f 2 7 8
f 3 9 4
f 3 10 11
f 3 11 9
f 4 12 13
f 4 13 5
f 4 9 11
f 4 11 14
f 4 14 12
f 5 15 16
f 5 16 17
f 5 17 6
f 5 13 18
f 5 18 15
f 6 19 7
f 6 17 19
f 7 19 8
f 8 19 20
f 10 21 11
f 11 21 33
f 11 33 46
f 11 46 47
f 11 47 34
f 11 34 23
f 11 23 14
f 12 14 13
f 13 22 18
f 13 14 22
f 14 23 36
f 14 36 50
f 14 50 65
f 14 65 79
f 14 79 94
f 14 94 96
f 14 96 95
f 14 95 80
f 14 80 66
f 14 66 52
f 14 52 51
f 14 51 41
f 14 41 28
f 14 28 27
f 14 27 18
f 14 18 22
f 15 18 16
f 16 24 25
f 16 25 26
f 16 26 19
f 16 19 17
f 16 18 27
f 16 27 28
f 16 28 29
f 16 29 24
f 19 30 31
f 19 31 20
f 19 26 24
f 19 24 30
f 20 31 32
f 23 34 35
f 23 35 48
f 23 48 36
f 24 37 30
f 24 26 25
f 24 29 38
f 24 38 39
f 24 39 40
f 24 40 37
f 28 41 38
f 28 38 29
f 30 42 31
f 30 37 42
f 31 42 43
f 31 43 32
f 33 44 61
f 33 61 45
f 33 45 46
f 34 47 35
f 35 47 48
f 36 49 50
f 36 48 49
f 37 40 42
f 38 51 52
f 38 52 53
f 38 53 54
f 38 54 39
f 38 41 51
f 39 54 40
f 40 54 55
f 40 55 56
f 40 56 57
f 40 57 58
f 40 58 42
f 42 58 43
f 44 59 60
f 44 60 61
f 45 61 47
f 45 47 46
f 47 61 62
f 47 62 48
f 48 62 60
f 48 60 49
f 49 60 50
f 50 60 63
f 50 63 64
f 50 64 65
f 52 66 53
f 53 66 67
f 53 67 68
f 53 68 69
f 53 69 54
f 54 69 68
f 54 68 70
f 54 70 71
f 54 71 55
f 55 71 72
f 55 72 56
f 56 72 73
f 56 73 57
f 57 73 58
f 58 73 74
f 59 75 60
f 60 76 77
f 60 77 63
f 60 62 61
f 60 75 76
f 63 77 78
f 63 78 64
f 64 78 65
f 65 78 79
f 66 80 81
f 66 81 67
f 67 81 82
f 67 82 68
f 68 82 83
f 68 83 70
f 70 83 84
f 70 84 72
f 70 72 71
f 72 84 85
f 72 85 86
f 72 86 87
f 72 87 88
f 72 88 74
f 72 74 73
f 75 89 76
f 76 89 77
f 77 90 78
f 77 89 91
f 77 91 92
f 77 92 90
f 78 90 85
f 78 85 84
f 78 84 93
f 78 93 79
f 79 93 94
f 80 95 82
f 80 82 81
f 82 95 96
f 82 96 93
f 82 93 83
f 83 93 84
f 85 90 86
f 86 97 87
f 86 90 97
f 87 97 98
f 87 98 88
f 90 92 97
f 91 99 92
f 92 99 97
f 93 96 94
f 97 100 98
f 97 99 100

