# https://github.com/mikedh/trimesh
v 0.08077025 0.00058177 -0.00863655
v 0.08077025 0.00058177 -0.01294773
v 0.08033591 0.00058177 -0.00879383
v 0.07379105 -0.00895509 -0.00929807
v 0.07348541 -0.01043416 -0.00917484
v 0.07561341 -0.01043416 -0.00880193
v 0.08077025 -0.00985548 -0.00862034
v 0.08077025 -0.01886505 -0.01294773
v 0.08076566 0.00058177 -0.01663793
v 0.05730019 0.00058177 -0.01717784
v 0.07233868 -0.01043416 -0.00961423
v 0.07378875 -0.01501223 -0.00924780
v 0.07561341 -0.01272415 -0.00888624
v 0.08077025 -0.01886505 -0.00863655
v 0.08077025 -0.01272415 -0.00862034
v 0.08076566 -0.01886505 -0.01663630
v 0.08076566 -0.00927489 -0.01663793
v 0.08019114 0.00058177 -0.01684870
v 0.05729789 0.00058177 -0.01837277
v 0.05729789 0.00057416 -0.01717946
v 0.05729789 -0.01886505 -0.01671251
v 0.05977979 -0.01886505 -0.01550622
v 0.07394961 -0.01641897 -0.00932887
v 0.07329927 -0.01886505 -0.01101183
v 0.08058641 -0.01886505 -0.01670278
v 0.08019114 -0.00814798 -0.01684870
v 0.05729789 -0.01034469 -0.02518245
v 0.05729789 0.00058177 -0.02518083
v 0.05729789 -0.01886505 -0.02517921
v 0.06037499 -0.01886505 -0.01529220
v 0.06820907 -0.01886505 -0.02120852
v 0.05729789 -0.01272224 -0.02518245
v 0.05730938 -0.01886505 -0.02517596
f 1 2 9
f 1 9 18
f 1 18 28
f 1 28 19
f 1 19 10
f 1 10 3
f 1 3 4
f 1 4 5
f 1 5 6
f 1 6 7
f 1 7 15
f 1 15 14
f 1 14 8
f 1 8 2
f 2 8 17
f 2 17 9
f 3 10 4
f 4 11 5
f 4 10 11
f 5 11 12
f 5 12 6
f 6 12 13
f 6 13 14
f 6 14 15
f 6 15 7
f 8 14 24
f 8 24 30
f 8 30 22
f 8 22 21
f 8 21 29
f 8 29 33
f 8 33 31
f 8 31 25
f 8 25 16
f 8 16 17
f 9 17 26
f 9 26 18
f 10 19 20
f 10 20 21
f 10 21 22
f 10 22 11
f 11 22 12
f 12 23 14
f 12 14 13
f 12 22 23
f 14 23 24
f 16 25 17
f 17 25 26
f 18 26 32
f 18 32 27
f 18 27 28
f 19 28 27
f 19 27 32
f 19 32 29
f 19 29 21
f 19 21 20
f 22 30 23
f 23 30 24
f 25 31 32
f 25 32 26
f 29 32 33
f 31 33 32

