# https://github.com/mikedh/trimesh
v 0.03760325 0.01046567 -0.01316139
v 0.03665695 0.01046567 -0.01316139
v 0.03772355 0.01024554 -0.01316139
v 0.03969010 0.01046567 -0.01671374
v 0.03665695 0.01046567 -0.03269166
v 0.03665695 -0.01281079 -0.01316139
v 0.03800839 0.00943952 -0.01316139
v 0.03969099 0.01045890 -0.01671374
v 0.03969099 0.01046567 -0.01677683
v 0.03834936 0.00841675 -0.01316139
v 0.03847381 0.00802390 -0.01316139
v 0.03902478 0.00558889 -0.01316139
v 0.03969099 0.00776990 -0.01551688
v 0.03759999 0.01046567 -0.03234942
v 0.03665695 -0.01043336 -0.03269357
v 0.03665695 -0.01740647 -0.01516317
v 0.03969099 -0.02088118 -0.01377703
v 0.03941447 -0.01959086 -0.01364511
v 0.03969099 -0.01956377 -0.01365849
v 0.03761929 -0.01080250 -0.01316139
v 0.03969099 0.01046567 -0.03158848
v 0.03939962 0.00329952 -0.01316139
v 0.03969099 0.00329952 -0.01380953
v 0.03969099 0.00525023 -0.01452268
v 0.03969099 0.00558889 -0.01464695
v 0.03898350 0.01046567 -0.03184659
v 0.03665695 -0.01959086 -0.03269357
v 0.03665695 -0.02413236 -0.01828342
v 0.03969099 -0.02128419 -0.01399499
v 0.03855134 -0.00783579 -0.01316139
v 0.03844471 -0.00825235 -0.01316139
v 0.03780879 -0.01024370 -0.01316139
v 0.03969099 -0.00066625 -0.01344818
v 0.03956536 -0.00094057 -0.01316139
v 0.03956357 -0.00127924 -0.01316139
v 0.03936903 -0.00356861 -0.01316139
v 0.03898855 -0.00585799 -0.01316139
v 0.03969099 -0.02413236 -0.03158848
v 0.03955169 0.00131494 -0.01316139
v 0.03969099 0.00202614 -0.01359157
v 0.03898350 -0.02413236 -0.03184659
v 0.03757979 -0.02413236 -0.03235707
v 0.03665695 -0.02413236 -0.03269166
v 0.03675259 -0.02413236 -0.01824710
v 0.03898350 -0.02413236 -0.01759322
v 0.03969099 -0.02413236 -0.01750718
v 0.03969099 0.00101014 -0.01343479
v 0.03957249 0.00101014 -0.01316139
f 1 2 6
f 1 6 20
f 1 20 32
f 1 32 31
f 1 31 30
f 1 30 37
f 1 37 36
f 1 36 35
f 1 35 34
f 1 34 48
f 1 48 39
f 1 39 22
f 1 22 12
f 1 12 11
f 1 11 10
f 1 10 7
f 1 7 3
f 1 3 4
f 1 4 9
f 1 9 21
f 1 21 26
f 1 26 14
f 1 14 5
f 1 5 2
f 2 5 15
f 2 15 27
f 2 27 43
f 2 43 28
f 2 28 16
f 2 16 6
f 3 7 4
f 4 8 9
f 4 7 10
f 4 10 11
f 4 11 12
f 4 12 13
f 4 13 8
f 5 14 15
f 6 16 17
f 6 17 18
f 6 18 19
f 6 19 20
f 8 13 25
f 8 25 24
f 8 24 23
f 8 23 40
f 8 40 47
f 8 47 33
f 8 33 19
f 8 19 17
f 8 17 29
f 8 29 46
f 8 46 38
f 8 38 21
f 8 21 9
f 12 22 23
f 12 23 24
f 12 24 25
f 12 25 13
f 14 26 15
f 15 26 41
f 15 41 27
f 16 28 17
f 17 19 18
f 17 28 29
f 19 30 31
f 19 31 32
f 19 32 20
f 19 33 34
f 19 34 35
f 19 35 36
f 19 36 37
f 19 37 30
f 21 38 41
f 21 41 26
f 22 39 40
f 22 40 23
f 27 41 42
f 27 42 43
f 28 43 42
f 28 42 41
f 28 41 38
f 28 38 46
f 28 46 45
f 28 45 44
f 28 44 29
f 29 44 45
f 29 45 46
f 33 47 48
f 33 48 34
f 39 48 40
f 40 48 47

