# https://github.com/mikedh/trimesh
v -0.02186528 -0.04625921 -0.04960710
v -0.02186528 -0.04624613 -0.05093039
v -0.01864325 -0.04625921 -0.04960710
v -0.02186528 -0.04625921 -0.04503016
v -0.02186528 -0.04618158 -0.05190957
v -0.01864325 -0.04623306 -0.05000157
v -0.01864325 -0.04625921 -0.04313055
v -0.02186528 -0.04625348 -0.04406357
v -0.01864325 -0.04609334 -0.05134444
v -0.02186528 -0.04602797 -0.05320348
v -0.01864325 -0.04625675 -0.04274028
v -0.02054253 -0.04624531 -0.04274028
v -0.02186528 -0.04617096 -0.04270391
v -0.01864325 -0.04588580 -0.05160183
v -0.02131934 -0.04600509 -0.05314893
v -0.02186528 -0.04556223 -0.05343848
v -0.01864325 -0.04611703 -0.04120997
v -0.01864325 -0.04608844 -0.04096518
v -0.02054253 -0.04607700 -0.04130929
v -0.02186528 -0.04602715 -0.04144078
v -0.01864325 -0.04471573 -0.05240055
v -0.02055073 -0.04462177 -0.05329440
v -0.01864325 -0.04443792 -0.05249987
v -0.02186528 -0.04471165 -0.05367208
v -0.01864325 -0.04515941 -0.04003496
v -0.02186528 -0.04580082 -0.04131768
v -0.02186528 -0.04339205 -0.05390009
v -0.01934909 -0.04375484 -0.05305940
v -0.01864325 -0.04248754 -0.05282020
v -0.01864325 -0.04492491 -0.03990906
v -0.02186528 -0.04476067 -0.04099455
v -0.02186528 -0.04248754 -0.05399381
v -0.02186528 -0.04116550 -0.05399381
v -0.01864325 -0.04201282 -0.05281321
v -0.01864325 -0.04252431 -0.03970763
v -0.02186528 -0.04376873 -0.04091622
v -0.02186528 -0.04028059 -0.05395465
v -0.01934909 -0.04128724 -0.05305940
v -0.01864325 -0.04058455 -0.05256841
v -0.01864325 -0.04248754 -0.03970484
v -0.02186528 -0.04241237 -0.04085607
v -0.02186528 -0.03894466 -0.05387352
v -0.02186528 -0.03791187 -0.05367208
v -0.02127833 -0.03791187 -0.05334756
v -0.01864325 -0.04029939 -0.05248308
v -0.01864325 -0.04087707 -0.04058889
v -0.02186528 -0.04110013 -0.04130509
v -0.02186528 -0.03791187 -0.04384116
v -0.01864325 -0.03791187 -0.05158504
v -0.01864325 -0.03791187 -0.04276966
v -0.02052739 -0.03791187 -0.04333478
v -0.02054411 -0.03791187 -0.04334038
v -0.02057533 -0.03791187 -0.04335157
v -0.02181860 -0.03791187 -0.04381598
f 1 2 3
f 1 3 7
f 1 7 4
f 1 4 8
f 1 8 13
f 1 13 20
f 1 20 26
f 1 26 31
f 1 31 36
f 1 36 41
f 1 41 47
f 1 47 48
f 1 48 43
f 1 43 42
f 1 42 37
f 1 37 33
f 1 33 32
f 1 32 27
f 1 27 24
f 1 24 16
f 1 16 10
f 1 10 5
f 1 5 2
f 2 5 3
f 3 5 6
f 3 6 9
f 3 9 14
f 3 14 21
f 3 21 23
f 3 23 29
f 3 29 34
f 3 34 39
f 3 39 45
f 3 45 49
f 3 49 50
f 3 50 46
f 3 46 40
f 3 40 35
f 3 35 30
f 3 30 25
f 3 25 18
f 3 18 17
f 3 17 11
f 3 11 7
f 4 7 8
f 5 9 6
f 5 10 9
f 7 11 8
f 8 11 12
f 8 12 13
f 9 10 15
f 9 15 14
f 10 16 15
f 11 17 12
f 12 17 18
f 12 18 19
f 12 19 20
f 12 20 13
f 14 15 21
f 15 16 22
f 15 22 23
f 15 23 21
f 16 24 22
f 18 25 20
f 18 20 19
f 20 25 26
f 22 24 27
f 22 27 28
f 22 28 23
f 23 28 29
f 25 30 26
f 26 30 31
f 27 32 28
f 28 32 29
f 29 32 33
f 29 33 34
f 30 35 31
f 31 35 36
f 33 37 38
f 33 38 34
f 34 38 39
f 35 40 36
f 36 40 41
f 37 42 38
f 38 42 39
f 39 42 43
f 39 43 44
f 39 44 45
f 40 46 47
f 40 47 41
f 43 48 54
f 43 54 53
f 43 53 52
f 43 52 51
f 43 51 50
f 43 50 49
f 43 49 44
f 44 49 45
f 46 50 47
f 47 50 51
f 47 51 52
f 47 52 53
f 47 53 54
f 47 54 48

