# https://github.com/mikedh/trimesh
v 0.01146132 -0.03134654 -0.01801299
v 0.01322186 -0.03146980 -0.01801299
v 0.01608931 -0.03034823 -0.01593909
v 0.01380061 -0.03018184 -0.01619839
v 0.01146132 -0.03111854 -0.01777031
v 0.01146132 0.03138729 -0.01801299
v 0.01561174 -0.03122330 -0.01801299
v 0.01608931 -0.03103226 -0.01755565
v 0.01795507 -0.03012638 -0.01606161
v 0.02236046 -0.02793871 -0.01382245
v 0.02066873 -0.02798184 -0.01384430
v 0.01264716 -0.02990453 -0.01640782
v 0.01146132 -0.03106924 -0.01772709
v 0.01933113 -0.02777848 -0.01405088
v 0.01146132 0.03057385 -0.01738992
v 0.01380061 0.02996377 -0.01619791
v 0.01608931 0.03020411 -0.01587118
v 0.01160095 0.03142427 -0.01801299
v 0.01608931 -0.03111854 -0.01801299
v 0.01858239 -0.03031126 -0.01737519
v 0.01948087 -0.02987988 -0.01649140
v 0.02375675 -0.02588044 -0.01316139
v 0.02303028 -0.02604683 -0.01316139
v 0.02295540 -0.02887540 -0.01801299
v 0.02473820 -0.02812358 -0.01801299
v 0.02388829 -0.02743338 -0.01483162
v 0.02642994 -0.02534431 -0.01407653
v 0.02899587 -0.02327989 -0.01359355
v 0.02947951 -0.02264515 -0.01316139
v 0.02823499 -0.02340930 -0.01316139
v 0.02735472 -0.02394543 -0.01316139
v 0.02534528 -0.02506084 -0.01316139
v 0.02141139 -0.02585579 -0.01316139
v 0.01146132 -0.02878296 -0.01684425
v 0.01146132 -0.03102610 -0.01770667
v 0.01146740 -0.01499754 -0.01316139
v 0.01146132 -0.01499754 -0.01316329
v 0.02070516 -0.02528885 -0.01316139
v 0.02027008 -0.02482666 -0.01316139
v 0.01264716 0.02963716 -0.01640782
v 0.01146132 0.01511840 -0.01316139
v 0.01932303 0.02757273 -0.01404851
v 0.02066873 0.02781923 -0.01381248
v 0.01838003 0.02994528 -0.01587403
v 0.01608931 0.03108534 -0.01755565
v 0.01341613 0.03148589 -0.01801299
v 0.02247176 0.02774528 -0.01378256
v 0.01793889 -0.03060705 -0.01801299
v 0.01852978 -0.03044066 -0.01801299
v 0.01989774 -0.03000929 -0.01801299
v 0.02090549 -0.02966420 -0.01801299
v 0.02066064 -0.02962105 -0.01737519
v 0.02757327 -0.02615776 -0.01801299
v 0.02994292 -0.02431518 -0.01801299
v 0.03213448 -0.02244795 -0.01801299
v 0.03119148 -0.02117849 -0.01316139
v 0.01146132 -0.01496673 -0.01316139
v 0.01900937 0.02373968 -0.01316139
v 0.02066873 0.02547134 -0.01316139
v 0.02309908 0.02613072 -0.01316139
v 0.01976215 0.02972343 -0.01613380
v 0.01608931 0.03117161 -0.01801299
v 0.01838003 0.03049990 -0.01755565
v 0.02399756 0.02727077 -0.01434295
v 0.02312336 0.02799178 -0.01517022
v 0.02524613 0.02540971 -0.01316139
v 0.02727580 0.02425733 -0.01316139
v 0.03213448 -0.02001995 -0.01316139
v 0.03137158 -0.02098745 -0.01316139
v 0.03213448 0.02259347 -0.01801299
v 0.02087311 0.02993912 -0.01801299
v 0.01838003 0.03058617 -0.01801299
v 0.02798002 0.02585341 -0.01801299
v 0.02579452 0.02744332 -0.01801299
v 0.02498306 0.02793632 -0.01801299
v 0.02275507 0.02910102 -0.01801299
v 0.02653921 0.02516937 -0.01385807
v 0.02891492 0.02295705 -0.01316139
v 0.03213448 0.01964165 -0.01316139
v 0.02984173 0.02443604 -0.01801299
v 0.03002993 0.02187862 -0.01316139
v 0.03024645 0.02166910 -0.01316139
f 1 2 3
f 1 3 4
f 1 4 5
f 1 5 13
f 1 13 35
f 1 35 34
f 1 34 37
f 1 37 57
f 1 57 41
f 1 41 15
f 1 15 6
f 1 6 18
f 1 18 46
f 1 46 62
f 1 62 72
f 1 72 71
f 1 71 76
f 1 76 75
f 1 75 74
f 1 74 73
f 1 73 80
f 1 80 70
f 1 70 55
f 1 55 54
f 1 54 53
f 1 53 25
f 1 25 24
f 1 24 51
f 1 51 50
f 1 50 49
f 1 49 48
f 1 48 19
f 1 19 7
f 1 7 2
f 2 7 8
f 2 8 3
f 3 8 9
f 3 9 10
f 3 10 11
f 3 11 4
f 4 12 13
f 4 13 5
f 4 11 14
f 4 14 12
f 6 15 16
f 6 16 17
f 6 17 18
f 7 19 8
f 8 19 20
f 8 20 21
f 8 21 9
f 9 21 10
f 10 22 23
f 10 23 11
f 10 21 24
f 10 24 25
f 10 25 26
f 10 26 27
f 10 27 28
f 10 28 29
f 10 29 30
f 10 30 31
f 10 31 32
f 10 32 22
f 11 23 33
f 11 33 14
f 12 34 35
f 12 35 13
f 12 14 36
f 12 36 37
f 12 37 34
f 14 33 38
f 14 38 39
f 14 39 36
f 15 40 16
f 15 41 40
f 16 40 42
f 16 42 43
f 16 43 17
f 17 44 45
f 17 45 46
f 17 46 18
f 17 43 47
f 17 47 44
f 19 48 20
f 20 48 49
f 20 49 21
f 21 49 50
f 21 50 51
f 21 51 52
f 21 52 24
f 22 32 31
f 22 31 30
f 22 30 29
f 22 29 56
f 22 56 69
f 22 69 68
f 22 68 79
f 22 79 82
f 22 82 81
f 22 81 78
f 22 78 67
f 22 67 66
f 22 66 60
f 22 60 59
f 22 59 58
f 22 58 41
f 22 41 57
f 22 57 36
f 22 36 39
f 22 39 38
f 22 38 33
f 22 33 23
f 24 52 51
f 25 53 26
f 26 53 27
f 27 53 28
f 28 54 55
f 28 55 56
f 28 56 29
f 28 53 54
f 36 57 37
f 40 58 42
f 40 41 58
f 42 58 59
f 42 59 43
f 43 60 47
f 43 59 60
f 44 61 45
f 44 47 61
f 45 62 46
f 45 61 63
f 45 63 72
f 45 72 62
f 47 64 65
f 47 65 61
f 47 60 66
f 47 66 67
f 47 67 64
f 55 68 69
f 55 69 56
f 55 70 79
f 55 79 68
f 61 71 63
f 61 65 71
f 63 71 72
f 64 73 74
f 64 74 75
f 64 75 76
f 64 76 65
f 64 67 77
f 64 77 73
f 65 76 71
f 67 78 77
f 70 80 78
f 70 78 81
f 70 81 82
f 70 82 79
f 73 77 80
f 77 78 80

