# https://github.com/mikedh/trimesh
v -0.04472666 -0.02861192 -0.05255990
v -0.05107817 -0.02861192 -0.05271505
v -0.04472666 -0.03279490 -0.05431084
v -0.04472666 -0.02861192 -0.06231344
v -0.05259496 -0.02861192 -0.05292043
v -0.05939748 -0.03014220 -0.05497428
v -0.05939748 -0.03018028 -0.05499939
v -0.05397672 -0.03279490 -0.05736205
v -0.04472666 -0.03279490 -0.06231344
v -0.04478555 -0.03279490 -0.06233561
v -0.04572780 -0.02861192 -0.06267841
v -0.05362050 -0.02861192 -0.05314798
v -0.05939748 -0.02875156 -0.05449997
v -0.05939748 -0.03279490 -0.05919869
v -0.05259496 -0.03279490 -0.06517848
v -0.05259496 -0.02861192 -0.06517848
v -0.05932279 -0.02861192 -0.05446599
v -0.05939748 -0.02868727 -0.05449111
v -0.05939748 -0.03279490 -0.06765344
v -0.05677759 -0.03279490 -0.06670039
v -0.05765519 -0.02861192 -0.06701955
v -0.05939748 -0.02861192 -0.05449849
v -0.05939748 -0.02861192 -0.06765344
f 1 2 3
f 1 3 9
f 1 9 4
f 1 4 11
f 1 11 16
f 1 16 21
f 1 21 23
f 1 23 22
f 1 22 17
f 1 17 12
f 1 12 5
f 1 5 2
f 2 5 3
f 3 5 6
f 3 6 7
f 3 7 8
f 3 8 14
f 3 14 19
f 3 19 20
f 3 20 15
f 3 15 10
f 3 10 9
f 4 9 10
f 4 10 11
f 5 12 6
f 6 12 13
f 6 13 18
f 6 18 22
f 6 22 23
f 6 23 19
f 6 19 14
f 6 14 7
f 7 14 8
f 10 15 16
f 10 16 11
f 12 17 18
f 12 18 13
f 15 20 16
f 16 20 21
f 17 22 18
f 19 23 20
f 20 23 21

