# https://github.com/mikedh/trimesh
v -0.01899810 0.01615010 -0.02002384
v -0.01803949 0.01611303 -0.02002384
v -0.01320391 0.02158151 -0.02269260
v -0.01320391 0.02190591 -0.02294297
v -0.01899810 0.02058977 -0.02551801
v -0.01899810 -0.01622517 -0.02002384
v -0.01715348 0.01589058 -0.02002384
v -0.01320391 0.01434273 -0.02002384
v -0.01320391 0.02240642 -0.02383955
v -0.01320391 0.02267521 -0.02442421
v -0.01899810 0.02084002 -0.02614184
v -0.01899810 -0.02085021 -0.02542989
v -0.01505192 -0.02093826 -0.02309123
v -0.01320391 -0.02144340 -0.02262966
v -0.01780806 -0.01605833 -0.02002384
v -0.01320391 -0.01466804 -0.02002384
v -0.01320391 0.02344914 -0.02671391
v -0.01899810 0.02097442 -0.02663139
v -0.01899810 -0.02116070 -0.02660341
v -0.01320391 -0.02387178 -0.02671391
v -0.01320391 -0.02289857 -0.02474871
v -0.01320391 -0.02248612 -0.02413887
v -0.01320391 0.02346767 -0.02688036
v -0.01899810 0.02130809 -0.02825670
v -0.01899810 -0.02114217 -0.02906376
v -0.01320391 -0.02387641 -0.02872807
v -0.01320391 0.02341206 -0.02900222
v -0.01899810 0.02131272 -0.02900222
v -0.01899810 -0.02101241 -0.02954212
v -0.01320391 -0.02384397 -0.02900222
v -0.01320391 0.02204494 -0.03431315
v -0.01899810 0.02101149 -0.03022190
v -0.01320391 -0.02229148 -0.03431315
v -0.01899810 -0.01959431 -0.03431315
v -0.01825276 -0.01994652 -0.03431315
v -0.01846547 0.01907899 -0.03431315
v -0.01899810 0.02087710 -0.03069187
v -0.01899810 0.01842091 -0.03431315
f 1 2 3
f 1 3 4
f 1 4 5
f 1 5 11
f 1 11 18
f 1 18 24
f 1 24 28
f 1 28 32
f 1 32 37
f 1 37 38
f 1 38 34
f 1 34 29
f 1 29 25
f 1 25 19
f 1 19 12
f 1 12 6
f 1 6 15
f 1 15 16
f 1 16 8
f 1 8 7
f 1 7 2
f 2 7 3
f 3 7 8
f 3 8 16
f 3 16 14
f 3 14 22
f 3 22 21
f 3 21 20
f 3 20 26
f 3 26 30
f 3 30 33
f 3 33 31
f 3 31 27
f 3 27 23
f 3 23 17
f 3 17 10
f 3 10 9
f 3 9 4
f 4 9 5
f 5 9 10
f 5 10 11
f 6 12 13
f 6 13 14
f 6 14 15
f 10 17 11
f 11 17 18
f 12 19 20
f 12 20 21
f 12 21 22
f 12 22 14
f 12 14 13
f 14 16 15
f 17 23 24
f 17 24 18
f 19 25 26
f 19 26 20
f 23 27 28
f 23 28 24
f 25 29 30
f 25 30 26
f 27 31 32
f 27 32 28
f 29 33 30
f 29 34 35
f 29 35 33
f 31 36 37
f 31 37 32
f 31 33 35
f 31 35 34
f 31 34 38
f 31 38 36
f 36 38 37

