# https://github.com/mikedh/trimesh
v 0.01146133 -0.03238465 -0.02101473
v 0.01251287 -0.03231503 -0.02101473
v 0.01146133 -0.03227705 -0.01984724
v 0.01146133 0.03227608 -0.02101473
v 0.01306220 -0.03225807 -0.02101473
v 0.01295833 -0.03223908 -0.02051782
v 0.01198281 -0.03214414 -0.01899153
v 0.01146133 -0.03216313 -0.01888926
v 0.01146133 0.03216215 -0.01984518
v 0.01151058 0.03216215 -0.01984518
v 0.01288873 0.03195328 -0.01856661
v 0.02240080 0.03108616 -0.02101473
v 0.02239973 -0.03084029 -0.02101473
v 0.01561182 -0.03122638 -0.01801299
v 0.01322068 -0.03146690 -0.01801299
v 0.01146133 -0.03134664 -0.01801299
v 0.01146133 0.03201025 -0.01848316
v 0.01151058 0.03201025 -0.01848227
v 0.01341664 0.03148491 -0.01801299
v 0.01608940 0.03116844 -0.01801299
v 0.02240080 -0.02920732 -0.02101473
v 0.02240080 0.03042791 -0.01941409
v 0.02240080 -0.03072636 -0.02069178
v 0.02240080 -0.03062509 -0.02040115
v 0.01608940 -0.03111878 -0.01801299
v 0.01146133 0.03138364 -0.01801299
v 0.01148917 0.03139630 -0.01801299
v 0.01160053 0.03142161 -0.01801299
v 0.01837774 0.03058614 -0.01801299
v 0.02087060 0.02994055 -0.01801299
v 0.02240080 0.02914938 -0.01801299
v 0.01793763 -0.03060610 -0.01801299
v 0.02240080 -0.02903642 -0.01801299
v 0.02090380 -0.02966303 -0.01801299
v 0.01989080 -0.03001114 -0.01801828
v 0.01852872 -0.03044154 -0.01801299
v 0.01988010 -0.03001114 -0.01801299
f 1 2 3
f 1 3 8
f 1 8 16
f 1 16 26
f 1 26 17
f 1 17 9
f 1 9 4
f 1 4 12
f 1 12 21
f 1 21 13
f 1 13 5
f 1 5 2
f 2 5 6
f 2 6 3
f 3 6 7
f 3 7 8
f 4 9 10
f 4 10 11
f 4 11 12
f 5 13 6
f 6 13 7
f 7 13 14
f 7 14 8
f 8 14 15
f 8 15 16
f 9 17 18
f 9 18 10
f 10 18 11
f 11 18 19
f 11 19 20
f 11 20 12
f 12 20 22
f 12 22 31
f 12 31 33
f 12 33 24
f 12 24 23
f 12 23 21
f 13 23 24
f 13 24 14
f 13 21 23
f 14 24 25
f 14 25 32
f 14 32 36
f 14 36 37
f 14 37 34
f 14 34 33
f 14 33 31
f 14 31 30
f 14 30 29
f 14 29 20
f 14 20 19
f 14 19 28
f 14 28 27
f 14 27 26
f 14 26 16
f 14 16 15
f 17 26 27
f 17 27 28
f 17 28 19
f 17 19 18
f 20 29 22
f 22 29 30
f 22 30 31
f 24 32 25
f 24 33 34
f 24 34 35
f 24 35 36
f 24 36 32
f 34 37 35
f 35 37 36

