# https://github.com/mikedh/trimesh
v -0.00552611 -0.03749476 -0.03431315
v -0.00441023 -0.04244320 -0.03431315
v -0.00552611 -0.03482188 -0.03216115
v -0.00552611 0.03907973 -0.03431315
v -0.00381504 -0.04440272 -0.03431315
v -0.00361495 -0.04477295 -0.03431315
v -0.00552611 -0.02916006 -0.03026213
v -0.00552611 0.03435703 -0.03036721
v -0.00401368 0.04450676 -0.03431315
v -0.00302560 -0.04545020 -0.03431315
v 0.00193305 -0.04452011 -0.03220358
v 0.00193305 -0.03790111 -0.03099216
v -0.00244429 -0.03074934 -0.03026213
v -0.00552611 0.02900224 -0.03026213
v -0.00552611 0.03401389 -0.03027324
v 0.00193305 0.04567164 -0.03235545
v 0.00124366 0.04553618 -0.03246965
v -0.00222667 0.04584320 -0.03431315
v -0.00191338 -0.04588364 -0.03431315
v 0.00150510 -0.04550438 -0.03270361
v 0.00193305 -0.04509803 -0.03239431
v 0.00193305 -0.03226639 -0.03026213
v -0.00138976 -0.03111957 -0.03026213
v 0.00193305 0.03313798 -0.03026213
v 0.00193305 0.03763493 -0.03097629
v 0.00193305 0.04486797 -0.03216511
v 0.00193305 0.04599672 -0.03342808
v -0.00206016 0.04591545 -0.03431315
v -0.00084716 -0.04607327 -0.03431315
v 0.00193305 -0.04582946 -0.03313861
v 0.00193305 0.04608701 -0.03431315
v 0.00006205 0.04601477 -0.03431315
v 0.00154234 -0.04616357 -0.03431315
v 0.00193305 -0.04610939 -0.03362437
v 0.00193305 -0.04616357 -0.03431315
v 0.00193305 -0.04613648 -0.03390075
f 1 2 3
f 1 3 7
f 1 7 14
f 1 14 15
f 1 15 8
f 1 8 4
f 1 4 9
f 1 9 18
f 1 18 28
f 1 28 32
f 1 32 31
f 1 31 35
f 1 35 33
f 1 33 29
f 1 29 19
f 1 19 10
f 1 10 6
f 1 6 5
f 1 5 2
f 2 5 3
f 3 5 6
f 3 6 7
f 4 8 9
f 6 10 11
f 6 11 7
f 7 11 12
f 7 12 13
f 7 13 23
f 7 23 22
f 7 22 24
f 7 24 14
f 8 15 16
f 8 16 17
f 8 17 9
f 9 17 18
f 10 19 20
f 10 20 21
f 10 21 11
f 11 21 30
f 11 30 34
f 11 34 36
f 11 36 35
f 11 35 31
f 11 31 27
f 11 27 16
f 11 16 26
f 11 26 25
f 11 25 24
f 11 24 22
f 11 22 12
f 12 22 23
f 12 23 13
f 14 24 15
f 15 24 25
f 15 25 26
f 15 26 16
f 16 27 28
f 16 28 17
f 17 28 18
f 19 29 20
f 20 29 30
f 20 30 21
f 27 31 32
f 27 32 28
f 29 33 34
f 29 34 30
f 33 35 36
f 33 36 34

