# https://github.com/mikedh/trimesh
v -0.05939891 -0.01729253 -0.06765147
v -0.05766398 -0.01729253 -0.06702100
v -0.05939891 -0.01729253 -0.05965199
v -0.05939891 -0.01280560 -0.06765324
v -0.05107787 -0.01729253 -0.06462665
v -0.03179666 -0.01729253 -0.04956276
v -0.03713494 0.02027996 -0.05079358
v -0.04107192 0.02027996 -0.05223338
v -0.05939891 0.02027996 -0.05964667
v -0.05650623 -0.00653126 -0.06660305
v -0.05939891 0.02027996 -0.06765324
v -0.03429230 -0.01729253 -0.05851856
v -0.02531398 -0.01729253 -0.04956276
v -0.03180000 -0.01704244 -0.04956276
v -0.02531398 0.02027996 -0.05079358
v -0.03177664 -0.00653126 -0.04956276
v -0.05840466 0.02027996 -0.06729196
v -0.05170512 0.02027996 -0.06485510
v -0.02531398 0.02027996 -0.05525112
v -0.03085579 -0.00653126 -0.05726826
v -0.02531398 -0.01729253 -0.05525112
v -0.02531398 -0.00653126 -0.04956276
f 1 2 5
f 1 5 12
f 1 12 21
f 1 21 13
f 1 13 6
f 1 6 3
f 1 3 9
f 1 9 11
f 1 11 4
f 1 4 2
f 2 4 5
f 3 6 7
f 3 7 8
f 3 8 9
f 4 10 5
f 4 11 10
f 5 10 12
f 6 13 22
f 6 22 16
f 6 16 14
f 6 14 7
f 7 15 19
f 7 19 18
f 7 18 17
f 7 17 11
f 7 11 9
f 7 9 8
f 7 14 16
f 7 16 22
f 7 22 15
f 10 11 17
f 10 17 18
f 10 18 19
f 10 19 20
f 10 20 12
f 12 20 21
f 13 21 19
f 13 19 15
f 13 15 22
f 19 21 20

