# https://github.com/mikedh/trimesh
v -0.01320335 -0.02338343 -0.03010662
v -0.01320335 -0.02229355 -0.03431315
v -0.01047719 -0.02924362 -0.03431315
v -0.00938463 -0.02924362 -0.03322888
v -0.01306884 -0.02349297 -0.03010662
v -0.01320335 0.02303798 -0.03010662
v -0.01320335 0.02204120 -0.03431315
v -0.00552684 -0.02924362 -0.03431315
v -0.00741516 -0.02924362 -0.03151827
v -0.00692448 -0.02843853 -0.03010662
v -0.01169299 -0.02460476 -0.03010662
v -0.01172680 0.02433598 -0.03010662
v -0.00948757 0.02670744 -0.03431315
v -0.00552684 -0.02924362 -0.03086310
v -0.00552684 0.02670744 -0.03431315
v -0.00552684 -0.02915051 -0.03013421
v -0.00552684 -0.02914503 -0.03010662
v -0.00991363 0.02585853 -0.03010662
v -0.00916822 0.02642265 -0.03010662
v -0.00876997 0.02670744 -0.03010662
v -0.00552684 0.02670744 -0.03010662
f 1 2 3
f 1 3 4
f 1 4 5
f 1 5 11
f 1 11 10
f 1 10 17
f 1 17 21
f 1 21 20
f 1 20 19
f 1 19 18
f 1 18 12
f 1 12 6
f 1 6 7
f 1 7 2
f 2 7 13
f 2 13 15
f 2 15 8
f 2 8 3
f 3 8 14
f 3 14 9
f 3 9 4
f 4 9 10
f 4 10 11
f 4 11 5
f 6 12 13
f 6 13 7
f 8 15 21
f 8 21 17
f 8 17 16
f 8 16 14
f 9 14 16
f 9 16 17
f 9 17 10
f 12 18 13
f 13 18 19
f 13 19 20
f 13 20 21
f 13 21 15

