# https://github.com/mikedh/trimesh
v 0.08077255 -0.02875130 -0.00352098
v 0.08077255 -0.02970068 -0.00400280
v 0.08077255 -0.02642714 -0.00389044
v 0.08019299 -0.02646250 -0.00392091
v 0.07790376 -0.02646250 -0.00444463
v 0.07651454 -0.02646250 -0.00487693
v 0.07658613 -0.02783407 -0.00490169
v 0.07147414 -0.02793908 -0.00698324
v 0.07793615 -0.02865808 -0.00463317
v 0.07872025 -0.03000393 -0.00481599
v 0.08077255 -0.03022574 -0.00431132
v 0.08077255 -0.02514129 -0.00468459
v 0.08019299 -0.02509736 -0.00464079
v 0.07790376 -0.02511129 -0.00474744
v 0.07660488 -0.02524416 -0.00490931
v 0.06449906 -0.02417262 -0.00925524
v 0.07536907 -0.02646250 -0.00528639
v 0.07332530 -0.02646250 -0.00602722
v 0.07109402 -0.02646250 -0.00684803
v 0.06994855 -0.02646250 -0.00729938
v 0.06476326 -0.02591816 -0.00934284
v 0.06704568 -0.02774727 -0.00930666
v 0.06336040 -0.03299138 -0.01497236
v 0.07757478 -0.03299138 -0.00962089
v 0.07855661 -0.03299138 -0.00925333
v 0.08019299 -0.03299138 -0.00868200
v 0.08077255 -0.03299138 -0.00850870
v 0.08077255 -0.02204562 -0.00850108
v 0.06645760 -0.02271962 -0.00918477
v 0.06477860 -0.02282034 -0.00935998
v 0.06336040 -0.02417262 -0.00967802
v 0.06336040 -0.02634999 -0.01067404
v 0.06336040 -0.03299138 -0.02297290
v 0.08077255 -0.03299138 -0.01663494
v 0.06336040 -0.02204562 -0.01130441
v 0.08077255 -0.02204562 -0.01663494
v 0.06336040 -0.02210134 -0.01117491
v 0.06336040 -0.02231350 -0.01068357
v 0.06336040 -0.02204562 -0.02297481
v 0.06416837 -0.03299138 -0.02267962
v 0.08068561 -0.03299138 -0.01666731
v 0.08019299 -0.02204562 -0.01684633
v 0.07790376 -0.02204562 -0.01768047
v 0.06918320 -0.03299138 -0.02085517
v 0.07790376 -0.03299138 -0.01768047
f 1 2 11
f 1 11 27
f 1 27 34
f 1 34 36
f 1 36 28
f 1 28 12
f 1 12 3
f 1 3 4
f 1 4 5
f 1 5 6
f 1 6 7
f 1 7 8
f 1 8 9
f 1 9 10
f 1 10 2
f 2 10 11
f 3 12 13
f 3 13 14
f 3 14 4
f 4 14 15
f 4 15 5
f 5 15 6
f 6 15 16
f 6 16 17
f 6 17 7
f 7 17 18
f 7 18 19
f 7 19 20
f 7 20 8
f 8 10 9
f 8 20 21
f 8 21 22
f 8 22 23
f 8 23 10
f 10 23 11
f 11 24 25
f 11 25 26
f 11 26 27
f 11 23 24
f 12 28 13
f 13 28 14
f 14 28 29
f 14 29 30
f 14 30 15
f 15 30 16
f 16 18 17
f 16 30 31
f 16 31 19
f 16 19 18
f 19 31 20
f 20 31 21
f 21 31 32
f 21 32 23
f 21 23 22
f 23 33 40
f 23 40 44
f 23 44 45
f 23 45 41
f 23 41 34
f 23 34 27
f 23 27 26
f 23 26 25
f 23 25 24
f 23 32 31
f 23 31 38
f 23 38 37
f 23 37 35
f 23 35 39
f 23 39 33
f 28 35 29
f 28 36 42
f 28 42 43
f 28 43 39
f 28 39 35
f 29 35 37
f 29 37 38
f 29 38 30
f 30 38 31
f 33 39 40
f 34 41 36
f 36 41 42
f 39 43 44
f 39 44 40
f 41 45 43
f 41 43 42
f 43 45 44

