# https://github.com/mikedh/trimesh
v -0.07696857 0.03597369 -0.07404828
v -0.07696857 0.03920031 -0.07404828
v -0.07624797 0.03597369 -0.07378778
v -0.07696857 0.03597369 -0.06533331
v -0.07696857 0.03920031 -0.06514830
v -0.07624797 0.03920031 -0.07378778
v -0.07588165 0.03920031 -0.07365457
v -0.07371467 0.03597369 -0.07286567
v -0.07293215 0.03920031 -0.06370962
v -0.05940063 0.03597369 -0.05964519
v -0.05956401 0.03920031 -0.05897470
v -0.06266312 0.03920031 -0.06884269
v -0.05946427 0.03597369 -0.06767783
v -0.05940063 0.03597369 -0.06765415
v -0.05940063 0.03920031 -0.05892881
v -0.06102070 0.03920031 -0.06824472
v -0.05944363 0.03920031 -0.06767043
v -0.05940063 0.03920031 -0.06765415
f 1 2 6
f 1 6 3
f 1 3 8
f 1 8 13
f 1 13 14
f 1 14 10
f 1 10 4
f 1 4 5
f 1 5 2
f 2 5 9
f 2 9 11
f 2 11 15
f 2 15 18
f 2 18 17
f 2 17 16
f 2 16 12
f 2 12 7
f 2 7 6
f 3 6 7
f 3 7 8
f 4 9 5
f 4 10 11
f 4 11 9
f 7 12 8
f 8 12 13
f 10 14 18
f 10 18 15
f 10 15 11
f 12 16 13
f 13 16 17
f 13 17 14
f 14 17 18

