# https://github.com/mikedh/trimesh
v 0.03213492 -0.02173283 -0.01681554
v 0.03665665 -0.02001458 -0.01681554
v 0.03213492 -0.02001883 -0.01316139
v 0.03213492 0.02171689 -0.01681554
v 0.03665665 -0.01763709 -0.01529071
v 0.03275508 -0.01924902 -0.01316139
v 0.03665665 0.02101938 -0.01681554
v 0.03213492 0.01964138 -0.01316139
v 0.03213492 0.02087478 -0.01526603
v 0.03665665 -0.01740743 -0.01516195
v 0.03383871 -0.01775618 -0.01316139
v 0.03213492 0.01998588 -0.01374764
v 0.03665665 0.02002841 -0.01612771
v 0.03227701 0.01950102 -0.01316139
v 0.03528221 -0.01534467 -0.01316139
v 0.03408349 -0.01741168 -0.01316139
v 0.03665665 -0.01280982 -0.01316139
v 0.03661593 -0.01289913 -0.01316139
v 0.03334426 0.01829314 -0.01316139
v 0.03444072 0.01700020 -0.01316139
v 0.03545396 0.01557966 -0.01316139
v 0.03665665 0.01885881 -0.01558402
v 0.03665665 0.01275985 -0.01316139
v 0.03590414 0.01461846 -0.01316139
v 0.03665665 0.01762115 -0.01507360
f 1 2 3
f 1 3 8
f 1 8 12
f 1 12 9
f 1 9 4
f 1 4 7
f 1 7 2
f 2 5 6
f 2 6 3
f 2 7 13
f 2 13 22
f 2 22 25
f 2 25 23
f 2 23 17
f 2 17 10
f 2 10 5
f 3 6 11
f 3 11 16
f 3 16 15
f 3 15 18
f 3 18 17
f 3 17 23
f 3 23 24
f 3 24 21
f 3 21 20
f 3 20 19
f 3 19 14
f 3 14 8
f 4 9 7
f 5 10 11
f 5 11 6
f 7 9 12
f 7 12 8
f 7 8 13
f 8 14 13
f 10 15 16
f 10 16 11
f 10 17 18
f 10 18 15
f 13 14 19
f 13 19 20
f 13 20 21
f 13 21 22
f 21 24 22
f 22 24 25
f 23 25 24

