# https://github.com/mikedh/trimesh
v -0.03906004 0.01473455 -0.00960794
v -0.03906004 0.01685603 -0.01039692
v -0.04293773 0.01953210 -0.01030994
v -0.04293773 0.01932523 -0.01024956
v -0.04293773 0.01178120 -0.00960794
v -0.03906004 -0.01317046 -0.00960794
v -0.03906004 0.01943527 -0.01147652
v -0.04293773 0.02136749 -0.01109994
v -0.04293773 -0.01105338 -0.00960794
v -0.04293773 -0.01959213 -0.01030277
v -0.04293773 -0.02177524 -0.01091574
v -0.03906004 -0.01750586 -0.01089221
v -0.03906004 0.01946608 -0.01148982
v -0.03906004 0.02091855 -0.01287847
v -0.04293773 0.02160957 -0.01154611
v -0.03991605 0.02049601 -0.01181524
v -0.04293773 -0.02261591 -0.01297774
v -0.04114750 -0.02194249 -0.01297774
v -0.03906004 -0.02115463 -0.01306574
v -0.03906004 -0.02114583 -0.01304732
v -0.03906004 -0.02051643 -0.01212019
v -0.03994566 -0.02077611 -0.01180501
v -0.03906004 -0.01958773 -0.01155430
v -0.03906004 0.02090534 -0.01286415
v -0.03906004 0.02092735 -0.01289587
v -0.04293773 0.02227418 -0.01297774
v -0.04293773 -0.02238703 -0.01513285
v -0.04114750 -0.02229460 -0.01526588
v -0.03906004 -0.02186327 -0.01526588
v -0.03906004 0.02164478 -0.01506429
v -0.04293773 0.02234901 -0.01339730
v -0.03906004 -0.02174883 -0.01756222
v -0.04293773 -0.02129548 -0.01700246
v -0.04039208 -0.02101379 -0.01894882
v -0.03906004 -0.02114583 -0.01933768
v -0.03906004 0.02167999 -0.01526588
v -0.04293773 0.02211573 -0.01515230
v -0.03906004 0.02164478 -0.01735346
v -0.04293773 -0.01959213 -0.01756017
v -0.04173134 -0.01959213 -0.01833790
v -0.04058682 -0.01959213 -0.01907469
v -0.03906004 -0.01959213 -0.02001819
v -0.03906004 0.02157876 -0.01756222
v -0.04293773 0.02191327 -0.01578778
v -0.04058720 -0.01730339 -0.01907674
v -0.04293773 0.01932523 -0.01756017
v -0.03906004 -0.01730339 -0.02006117
v -0.03906004 0.02099777 -0.01927526
v -0.03906004 0.02094495 -0.01937043
v -0.04039246 0.02074689 -0.01895087
v -0.04293773 0.02104178 -0.01700246
v -0.04058720 0.01932523 -0.01907674
v -0.04293773 0.02049601 -0.01726750
v -0.03906004 0.01730498 -0.02006117
v -0.03906004 0.01951449 -0.02001819
v -0.03906004 0.01932523 -0.02005094
f 1 2 3
f 1 3 4
f 1 4 5
f 1 5 9
f 1 9 6
f 1 6 12
f 1 12 23
f 1 23 21
f 1 21 20
f 1 20 19
f 1 19 29
f 1 29 32
f 1 32 35
f 1 35 42
f 1 42 47
f 1 47 54
f 1 54 56
f 1 56 55
f 1 55 49
f 1 49 48
f 1 48 43
f 1 43 38
f 1 38 36
f 1 36 30
f 1 30 25
f 1 25 14
f 1 14 24
f 1 24 13
f 1 13 7
f 1 7 2
f 2 7 3
f 3 7 8
f 3 8 15
f 3 15 26
f 3 26 31
f 3 31 37
f 3 37 44
f 3 44 51
f 3 51 53
f 3 53 46
f 3 46 39
f 3 39 33
f 3 33 27
f 3 27 17
f 3 17 11
f 3 11 10
f 3 10 9
f 3 9 5
f 3 5 4
f 6 9 10
f 6 10 11
f 6 11 12
f 7 13 8
f 8 14 15
f 8 13 16
f 8 16 14
f 11 17 18
f 11 18 19
f 11 19 20
f 11 20 21
f 11 21 22
f 11 22 23
f 11 23 12
f 13 24 16
f 14 25 15
f 14 16 24
f 15 25 26
f 17 27 28
f 17 28 29
f 17 29 18
f 18 29 19
f 21 23 22
f 25 30 26
f 26 30 31
f 27 32 28
f 27 33 34
f 27 34 35
f 27 35 32
f 28 32 29
f 30 36 31
f 31 36 38
f 31 38 37
f 33 39 34
f 34 39 40
f 34 40 41
f 34 41 42
f 34 42 35
f 37 38 43
f 37 43 44
f 39 45 40
f 39 46 52
f 39 52 45
f 40 45 47
f 40 47 41
f 41 47 42
f 43 48 44
f 44 48 49
f 44 49 50
f 44 50 51
f 45 52 54
f 45 54 47
f 46 53 50
f 46 50 52
f 49 55 50
f 50 55 52
f 50 53 51
f 52 55 56
f 52 56 54

