# https://github.com/mikedh/trimesh
v -0.08554477 -0.00004978 -0.07657457
v -0.08549359 -0.02209463 -0.07715139
v -0.08554477 -0.00004978 -0.06917476
v -0.08554477 0.00191149 -0.07691927
v -0.08549359 -0.02209463 -0.06924924
v -0.08554477 0.00420108 -0.07714965
v -0.08554477 0.00559212 -0.07716697
v -0.08554477 0.00649067 -0.07716871
v -0.08549359 -0.00585583 -0.07715139
v -0.08464390 -0.00814542 -0.07684479
v -0.08447499 -0.02209463 -0.07678243
v -0.08549359 -0.02208599 -0.06915051
v -0.08554477 -0.00004114 -0.06914531
v -0.08448778 -0.02209463 -0.06878502
v -0.08554477 0.02203828 -0.07716871
v -0.08464390 -0.00585583 -0.07684479
v -0.07777472 -0.00814542 -0.07434527
v -0.05946545 -0.01272460 -0.06768163
v -0.05940147 -0.02209463 -0.06765738
v -0.08438029 -0.02209463 -0.06874518
v -0.05940147 -0.02209463 -0.05961839
v -0.05940403 0.02203828 -0.05947462
v -0.08549359 -0.00127665 -0.06912626
v -0.08554477 0.00103022 -0.06914531
v -0.08554477 0.02203828 -0.07174356
v -0.08506618 0.02203828 -0.07699549
v -0.07777472 -0.00585583 -0.07434527
v -0.08315950 0.02203828 -0.07630262
v -0.05988774 0.02203828 -0.06783406
v -0.05940403 0.02203828 -0.06765738
v -0.05940147 -0.00004978 -0.06765738
v -0.05940147 -0.00004978 -0.05965650
v -0.08552430 0.02203828 -0.06916263
v -0.08554477 0.02202964 -0.06916956
v -0.08549359 -0.00004978 -0.06912626
f 1 2 5
f 1 5 3
f 1 3 13
f 1 13 24
f 1 24 34
f 1 34 25
f 1 25 15
f 1 15 8
f 1 8 7
f 1 7 6
f 1 6 4
f 1 4 2
f 2 4 6
f 2 6 7
f 2 7 8
f 2 8 15
f 2 15 9
f 2 9 16
f 2 16 10
f 2 10 11
f 2 11 19
f 2 19 21
f 2 21 20
f 2 20 14
f 2 14 5
f 3 5 12
f 3 12 13
f 5 14 12
f 9 15 16
f 10 17 11
f 10 16 27
f 10 27 17
f 11 17 18
f 11 18 19
f 12 14 20
f 12 20 21
f 12 21 22
f 12 22 23
f 12 23 13
f 13 23 35
f 13 35 24
f 15 25 33
f 15 33 22
f 15 22 30
f 15 30 29
f 15 29 28
f 15 28 26
f 15 26 16
f 16 26 28
f 16 28 27
f 17 27 18
f 18 27 29
f 18 29 30
f 18 30 31
f 18 31 19
f 19 31 32
f 19 32 21
f 21 32 22
f 22 32 31
f 22 31 30
f 22 33 34
f 22 34 24
f 22 24 35
f 22 35 23
f 25 34 33
f 27 28 29

