# https://github.com/mikedh/trimesh
v 0.08077255 -0.02245433 -0.01663668
v 0.08077255 -0.00776116 -0.01663668
v 0.08165413 -0.02245433 -0.01631626
v 0.08077255 -0.02245433 -0.00832025
v 0.08077255 -0.00776116 -0.00862620
v 0.08251112 -0.00776116 -0.01600411
v 0.08794811 -0.02245433 -0.01402578
v 0.08794811 -0.00776116 -0.01402578
v 0.09176595 -0.00776116 -0.00459719
v 0.09082115 -0.00776116 -0.00494242
v 0.11665036 -0.02245433 0.00447171
v 0.11665036 -0.00776116 0.00448204
v 0.11311702 -0.02245433 -0.00486593
v 0.11311702 -0.00776116 -0.00486593
v 0.11665036 -0.02245433 -0.00357805
v 0.11665036 -0.00776116 -0.00357805
v 0.11643962 -0.00776116 -0.00365660
v 0.11506282 -0.02245433 -0.00415687
f 1 2 3
f 1 3 7
f 1 7 13
f 1 13 18
f 1 18 15
f 1 15 11
f 1 11 4
f 1 4 5
f 1 5 2
f 2 5 10
f 2 10 9
f 2 9 12
f 2 12 16
f 2 16 17
f 2 17 14
f 2 14 8
f 2 8 6
f 2 6 3
f 3 6 8
f 3 8 7
f 4 9 10
f 4 10 5
f 4 11 12
f 4 12 9
f 7 8 14
f 7 14 13
f 11 15 16
f 11 16 12
f 13 14 17
f 13 17 18
f 15 18 17
f 15 17 16

