# https://github.com/mikedh/trimesh
v -0.01047728 -0.02924362 -0.03431315
v -0.00946500 -0.02734800 -0.03431315
v -0.00552684 -0.02924362 -0.03431315
v -0.00938504 -0.02924362 -0.03322888
v -0.00750440 -0.02782863 -0.03010662
v -0.00776268 -0.02734800 -0.03010662
v -0.00552684 -0.02734800 -0.03431315
v -0.00552684 -0.02924362 -0.03086310
v -0.00741475 -0.02924362 -0.03151827
v -0.00692387 -0.02844361 -0.03010662
v -0.00552684 -0.02734800 -0.03010662
v -0.00552684 -0.02915343 -0.03013421
v -0.00555785 -0.02913097 -0.03010662
v -0.00552684 -0.02914638 -0.03010662
f 1 2 7
f 1 7 3
f 1 3 8
f 1 8 9
f 1 9 4
f 1 4 5
f 1 5 6
f 1 6 2
f 2 6 11
f 2 11 7
f 3 7 11
f 3 11 14
f 3 14 12
f 3 12 8
f 4 9 10
f 4 10 5
f 5 10 13
f 5 13 14
f 5 14 11
f 5 11 6
f 8 12 9
f 9 13 10
f 9 12 14
f 9 14 13

