# https://github.com/mikedh/trimesh
v 0.11953980 0.00228077 0.00906511
v 0.11953980 0.00235902 0.00906379
v 0.11440886 0.00228077 0.00497176
v 0.11953980 0.00228077 -0.00149830
v 0.11953980 0.00458509 0.00896762
v 0.11440886 0.00228077 -0.00425970
v 0.11440886 0.01859303 0.00360555
v 0.11453593 0.00228077 -0.00420964
v 0.11953980 0.00294348 -0.00186324
v 0.11953980 0.01859303 0.00731421
v 0.11440886 0.00330119 -0.00435061
v 0.11440886 0.01859303 -0.00439276
v 0.11953980 0.00559113 -0.00251011
v 0.11834182 0.00421141 -0.00280523
v 0.11953980 0.01859303 -0.00252592
v 0.11440886 0.00559113 -0.00439276
v 0.11453593 0.00559113 -0.00434665
v 0.11682540 0.00559113 -0.00350743
v 0.11853973 0.00559113 -0.00287768
v 0.11449123 0.01859303 -0.00436378
v 0.11953980 0.00788107 -0.00252592
v 0.11527029 0.01859303 -0.00408053
v 0.11682540 0.00788107 -0.00351402
v 0.11855178 0.00788107 -0.00288559
f 1 2 3
f 1 3 6
f 1 6 8
f 1 8 4
f 1 4 9
f 1 9 13
f 1 13 21
f 1 21 15
f 1 15 10
f 1 10 5
f 1 5 2
f 2 5 3
f 3 5 7
f 3 7 12
f 3 12 16
f 3 16 11
f 3 11 6
f 4 8 9
f 5 10 7
f 6 11 8
f 7 10 15
f 7 15 22
f 7 22 20
f 7 20 12
f 8 11 13
f 8 13 14
f 8 14 9
f 9 14 13
f 11 16 17
f 11 17 18
f 11 18 19
f 11 19 13
f 12 20 16
f 13 19 21
f 15 21 22
f 16 20 17
f 17 23 24
f 17 24 21
f 17 21 18
f 17 20 22
f 17 22 23
f 18 21 19
f 21 24 22
f 22 24 23

