# https://github.com/mikedh/trimesh
v 0.04486371 -0.02779516 -0.02970644
v 0.04814233 -0.03104076 -0.02851320
v 0.04939694 -0.03299138 -0.02805621
v 0.04486371 -0.02875191 -0.02970494
v 0.04486371 -0.02779516 -0.01941084
v 0.04900046 -0.02779516 -0.02820108
v 0.05076016 -0.03299138 -0.02756040
v 0.04486371 -0.03299138 -0.02954216
v 0.04486371 -0.03104076 -0.02969897
v 0.04486371 -0.02968830 -0.02970345
v 0.04486371 -0.03299138 -0.01979166
v 0.04585218 -0.03299138 -0.01947506
v 0.06335870 -0.02779516 -0.01444972
v 0.05405508 -0.02779516 -0.02636119
v 0.06277214 -0.03299138 -0.02318768
v 0.06335870 -0.03299138 -0.01497390
v 0.06335870 -0.02779516 -0.02297413
v 0.06277214 -0.02779516 -0.02318768
v 0.06335870 -0.03299138 -0.02297413
f 1 2 3
f 1 3 4
f 1 4 10
f 1 10 9
f 1 9 8
f 1 8 11
f 1 11 5
f 1 5 13
f 1 13 17
f 1 17 18
f 1 18 14
f 1 14 6
f 1 6 2
f 2 6 7
f 2 7 3
f 3 7 15
f 3 15 19
f 3 19 16
f 3 16 12
f 3 12 11
f 3 11 8
f 3 8 9
f 3 9 10
f 3 10 4
f 5 11 12
f 5 12 13
f 6 14 7
f 7 14 15
f 12 16 13
f 13 16 19
f 13 19 17
f 14 18 15
f 15 18 17
f 15 17 19

