# https://github.com/mikedh/trimesh
v 0.12141214 -0.01947031 0.01147216
v 0.12330047 -0.01959459 0.01147069
v 0.12332578 -0.01947031 0.01146774
v 0.12032932 -0.01947031 0.01107884
v 0.12026712 -0.02188402 0.01105675
v 0.12027766 -0.02417345 0.01105822
v 0.12141214 -0.02188402 0.01146038
v 0.12314654 -0.02188402 0.01146038
v 0.12339009 -0.01947031 0.01142649
v 0.12026712 -0.01947031 0.01105527
v 0.11665388 -0.03123980 0.00974127
v 0.11682573 -0.03103979 0.00980315
v 0.11911577 -0.02875230 0.01056621
v 0.12142268 -0.02417345 0.01131307
v 0.12287873 -0.02417345 0.01131307
v 0.12445815 -0.01947031 0.01045867
v 0.11665388 -0.01947031 0.00443814
v 0.11665388 -0.02857365 0.00947317
v 0.11665388 -0.02860472 0.00948201
v 0.11665388 -0.03103979 0.00973391
v 0.11665388 -0.03353699 0.00947170
v 0.11682573 -0.03332922 0.00952031
v 0.11665388 -0.03550213 0.00900915
v 0.12262991 -0.02550360 0.01113630
v 0.12180541 -0.02550360 0.01113630
v 0.12372221 -0.02417345 0.00991657
v 0.12437802 -0.02196169 0.00980756
v 0.12503171 -0.01947031 0.00932586
v 0.11665388 -0.01947031 -0.00357549
v 0.11665388 -0.03641480 0.00816506
v 0.11806880 -0.03459529 0.00887804
v 0.12074895 -0.03060676 0.00943634
v 0.12227459 -0.02927466 0.00801923
v 0.12261093 -0.02774837 0.00892960
v 0.12287452 -0.02634442 0.00978252
v 0.12454460 -0.02428413 0.00779532
v 0.12480081 -0.02277726 0.00867181
v 0.12491046 -0.02125098 0.00897085
v 0.12569911 -0.01947031 0.00749333
v 0.11670237 -0.01947031 -0.00355929
v 0.11665388 -0.03544776 -0.00357697
v 0.11665388 -0.03667889 0.00762739
v 0.11729702 -0.03605556 0.00762739
v 0.11832712 -0.03490987 0.00762739
v 0.12021124 -0.03213304 0.00865855
v 0.12138578 -0.03101649 0.00757583
v 0.12255189 -0.02990187 0.00649310
v 0.12434006 -0.02870376 0.00304017
v 0.12279228 -0.02860860 0.00740495
v 0.12365684 -0.02646287 0.00762739
v 0.12475126 -0.02512106 0.00624562
v 0.12716043 -0.02311320 0.00199869
v 0.12507388 -0.02359478 0.00714568
v 0.12725743 -0.02188402 0.00226974
v 0.12701388 -0.01947031 0.00388131
v 0.11969777 -0.01947031 -0.00246920
v 0.11665388 -0.03561864 -0.00357697
v 0.11665388 -0.03693910 0.00703520
v 0.11769873 -0.03646140 0.00580517
v 0.11800133 -0.03679346 0.00427904
v 0.11860758 -0.03566719 0.00515995
v 0.12049697 -0.03247480 0.00713243
v 0.12229990 -0.03185536 0.00351009
v 0.12196778 -0.03136990 0.00533820
v 0.12276275 -0.03022616 0.00533820
v 0.12257719 -0.03222042 0.00198396
v 0.12307063 -0.03107086 0.00286929
v 0.12363786 -0.03103979 0.00076129
v 0.12497056 -0.02790760 0.00226974
v 0.12469327 -0.02727845 0.00379587
v 0.12502960 -0.02575216 0.00471950
v 0.12716043 -0.02311320 0.00180572
v 0.12531322 -0.02649394 0.00304017
v 0.12457096 -0.02922417 0.00076129
v 0.12725743 -0.02188402 0.00159949
v 0.12741559 -0.01959459 0.00271314
v 0.12742297 -0.01947031 0.00274261
v 0.12357039 -0.01947031 -0.00105945
v 0.11969777 -0.03103979 -0.00246920
v 0.12140476 -0.02875230 -0.00184755
v 0.11855275 -0.03332922 -0.00288461
v 0.11682573 -0.03561864 -0.00351362
v 0.11665388 -0.03789448 -0.00337073
v 0.11665388 -0.03732940 0.00595248
v 0.11689215 -0.03740514 0.00515995
v 0.11821536 -0.03698958 0.00305048
v 0.11975998 -0.03618372 0.00076129
v 0.12071732 -0.03503998 0.00076129
v 0.12042844 -0.03468074 0.00236844
v 0.12136469 -0.03328067 0.00294000
v 0.12186235 -0.03362049 0.00076129
v 0.12275960 -0.03247480 0.00076129
v 0.12280177 -0.03253695 -0.00064993
v 0.12491679 -0.02793479 -0.00044959
v 0.12741559 -0.01959459 0.00136232
v 0.12742402 -0.01947031 0.00263360
v 0.12513082 -0.01947031 -0.00049083
v 0.12513082 -0.01959459 -0.00049083
v 0.12369374 -0.02646287 -0.00100937
v 0.12369374 -0.02417345 -0.00101378
v 0.11847262 -0.03561864 -0.00288461
v 0.11825226 -0.03712163 -0.00281538
v 0.11691851 -0.03789448 -0.00324994
v 0.11665388 -0.03850227 -0.00318365
v 0.11665388 -0.03758378 0.00518500
v 0.11861496 -0.03731969 0.00076129
v 0.11665388 -0.03822459 0.00295326
v 0.11715363 -0.03846344 0.00076129
v 0.11749629 -0.03852946 -0.00152937
v 0.11860441 -0.03738377 -0.00152937
v 0.12070151 -0.03502056 -0.00093424
v 0.12319715 -0.03103979 -0.00084438
v 0.12499270 -0.02646287 -0.00048642
v 0.12627479 -0.01959459 0.00021625
v 0.12742402 -0.01947031 0.00135495
v 0.12627584 -0.01947031 0.00021036
v 0.12512239 -0.02188402 -0.00049083
v 0.12507177 -0.02417345 -0.00049083
v 0.11665388 -0.03930814 -0.00152937
v 0.11665388 -0.03869451 0.00124889
v 0.11665388 -0.03882268 0.00076129
f 1 2 3
f 1 3 9
f 1 9 16
f 1 16 28
f 1 28 39
f 1 39 55
f 1 55 77
f 1 77 96
f 1 96 115
f 1 115 116
f 1 116 97
f 1 97 78
f 1 78 56
f 1 56 40
f 1 40 29
f 1 29 17
f 1 17 10
f 1 10 4
f 1 4 5
f 1 5 6
f 1 6 7
f 1 7 8
f 1 8 2
f 2 8 3
f 3 8 9
f 4 10 11
f 4 11 5
f 5 11 6
f 6 11 12
f 6 12 13
f 6 13 7
f 7 13 14
f 7 14 15
f 7 15 8
f 8 15 16
f 8 16 9
f 10 17 18
f 10 18 19
f 10 19 20
f 10 20 11
f 11 20 19
f 11 19 18
f 11 18 17
f 11 17 29
f 11 29 41
f 11 41 57
f 11 57 83
f 11 83 104
f 11 104 119
f 11 119 121
f 11 121 120
f 11 120 107
f 11 107 105
f 11 105 84
f 11 84 58
f 11 58 42
f 11 42 30
f 11 30 23
f 11 23 21
f 11 21 12
f 12 21 13
f 13 21 22
f 13 22 23
f 13 23 24
f 13 24 25
f 13 25 14
f 14 25 24
f 14 24 15
f 15 24 26
f 15 26 27
f 15 27 16
f 16 27 28
f 21 23 22
f 23 30 31
f 23 31 24
f 24 31 32
f 24 32 33
f 24 33 34
f 24 34 35
f 24 35 26
f 26 35 36
f 26 36 37
f 26 37 27
f 27 37 38
f 27 38 28
f 28 38 39
f 29 40 41
f 30 42 43
f 30 43 31
f 31 43 44
f 31 44 45
f 31 45 32
f 32 45 33
f 33 45 46
f 33 46 47
f 33 47 48
f 33 48 49
f 33 49 50
f 33 50 34
f 34 50 36
f 34 36 35
f 36 51 52
f 36 52 53
f 36 53 37
f 36 50 51
f 37 52 54
f 37 54 38
f 37 53 52
f 38 54 55
f 38 55 39
f 40 56 41
f 41 56 79
f 41 79 57
f 42 58 43
f 43 58 59
f 43 59 44
f 44 59 60
f 44 60 61
f 44 61 62
f 44 62 45
f 45 63 64
f 45 64 65
f 45 65 46
f 45 62 66
f 45 66 63
f 46 65 47
f 47 65 48
f 48 65 67
f 48 67 68
f 48 68 69
f 48 69 70
f 48 70 49
f 49 70 71
f 49 71 50
f 50 71 51
f 51 71 52
f 52 72 75
f 52 75 54
f 52 71 73
f 52 73 69
f 52 69 74
f 52 74 72
f 54 75 95
f 54 95 76
f 54 76 77
f 54 77 55
f 56 78 79
f 57 79 80
f 57 80 81
f 57 81 82
f 57 82 83
f 58 60 59
f 58 84 60
f 60 84 85
f 60 85 86
f 60 86 87
f 60 87 88
f 60 88 61
f 61 88 89
f 61 89 90
f 61 90 62
f 62 90 66
f 63 67 65
f 63 65 64
f 63 66 67
f 66 90 89
f 66 89 88
f 66 88 91
f 66 91 92
f 66 92 67
f 67 92 68
f 68 74 69
f 68 92 93
f 68 93 74
f 69 73 70
f 70 73 71
f 72 74 94
f 72 94 75
f 74 93 94
f 75 94 95
f 76 95 115
f 76 115 96
f 76 96 77
f 78 97 98
f 78 98 80
f 78 80 79
f 80 99 81
f 80 98 100
f 80 100 99
f 81 101 82
f 81 99 101
f 82 101 83
f 83 101 102
f 83 102 103
f 83 103 104
f 84 105 85
f 85 105 86
f 86 106 87
f 86 105 107
f 86 107 108
f 86 108 106
f 87 106 109
f 87 109 110
f 87 110 111
f 87 111 93
f 87 93 88
f 88 93 91
f 91 93 92
f 93 111 110
f 93 110 102
f 93 102 112
f 93 112 94
f 94 112 102
f 94 102 101
f 94 101 113
f 94 113 114
f 94 114 115
f 94 115 95
f 97 116 98
f 98 116 117
f 98 117 100
f 99 113 101
f 99 100 117
f 99 117 118
f 99 118 113
f 102 110 109
f 102 109 104
f 102 104 103
f 104 109 119
f 106 108 119
f 106 119 109
f 107 120 108
f 108 120 121
f 108 121 119
f 113 118 116
f 113 116 114
f 114 116 115
f 116 118 117

