# https://github.com/mikedh/trimesh
v -0.02531398 -0.00653316 -0.04087399
v -0.02531398 -0.00653316 -0.04956099
v -0.02666280 -0.00653316 -0.04140545
v -0.02531398 -0.00814651 -0.04087824
v -0.03177120 -0.00653316 -0.04956099
v -0.02531398 -0.01731063 -0.04956099
v -0.02758826 -0.00653316 -0.04274047
v -0.02663488 -0.00814651 -0.04140800
v -0.02531398 -0.01043622 -0.04089015
v -0.03179785 -0.01731063 -0.04956099
v -0.02531398 -0.01731063 -0.04134338
v -0.02655045 -0.01043622 -0.04141310
v -0.02748479 -0.01731063 -0.04324387
v -0.02740037 -0.01731063 -0.04315373
v -0.02641208 -0.01196938 -0.04147688
f 1 2 5
f 1 5 7
f 1 7 3
f 1 3 4
f 1 4 9
f 1 9 11
f 1 11 6
f 1 6 2
f 2 6 10
f 2 10 5
f 3 7 8
f 3 8 9
f 3 9 4
f 5 10 7
f 6 11 14
f 6 14 13
f 6 13 10
f 7 10 8
f 8 12 9
f 8 10 12
f 9 12 11
f 10 13 12
f 11 12 15
f 11 15 14
f 12 13 14
f 12 14 15

