# https://github.com/mikedh/trimesh
v 0.11223497 -0.03765287 -0.00518384
v 0.11223497 -0.03614349 -0.00518530
v 0.11311780 -0.03765287 -0.00486386
v 0.11223497 -0.03765287 0.00789321
v 0.11223497 -0.03561962 -0.00518530
v 0.11665387 -0.03561962 -0.00357661
v 0.11453569 -0.03765287 -0.00433493
v 0.11241880 -0.03765287 0.00795457
v 0.11379257 -0.03561962 0.00866468
v 0.11223497 -0.03563019 0.00813576
v 0.11223497 -0.02565538 -0.00518384
v 0.11311780 -0.02565538 -0.00486386
v 0.11665387 -0.02565538 -0.00357661
v 0.11665387 -0.03765287 -0.00337205
v 0.11467800 -0.03765287 0.00792827
v 0.11581689 -0.03688350 0.00886339
v 0.11525458 -0.03688350 0.00886339
v 0.11493709 -0.03561962 0.00899489
v 0.11665387 -0.03124066 0.00974007
v 0.11485448 -0.03333030 0.00908110
v 0.11224665 -0.03561962 0.00814014
v 0.11223497 -0.03561962 0.00813576
v 0.11223497 -0.02565538 0.00174919
v 0.11665387 -0.02565538 0.00515214
v 0.11665387 -0.03765287 0.00492859
v 0.11583981 -0.03765287 0.00689672
v 0.11665387 -0.03668029 0.00762728
v 0.11665387 -0.03641483 0.00816498
v 0.11665387 -0.03550333 0.00900951
v 0.11665387 -0.03353820 0.00947268
v 0.11615168 -0.03716776 0.00762728
v 0.11665387 -0.03104098 0.00973276
v 0.11223497 -0.03333030 0.00807146
v 0.11223497 -0.02566008 0.00281727
v 0.11224665 -0.02565538 0.00282165
v 0.11665387 -0.02726460 0.00848788
v 0.11665387 -0.03758357 0.00518428
v 0.11656044 -0.03765287 0.00519451
v 0.11665387 -0.03732985 0.00595284
v 0.11665387 -0.03693871 0.00703553
v 0.11665387 -0.02860366 0.00948145
v 0.11506383 -0.03104098 0.00908110
v 0.11539386 -0.02928728 0.00897882
v 0.11223497 -0.03159892 0.00724447
v 0.11665387 -0.02857312 0.00947414
f 1 2 3
f 1 3 7
f 1 7 14
f 1 14 25
f 1 25 38
f 1 38 26
f 1 26 15
f 1 15 8
f 1 8 4
f 1 4 10
f 1 10 22
f 1 22 33
f 1 33 44
f 1 44 34
f 1 34 23
f 1 23 11
f 1 11 5
f 1 5 2
f 2 5 13
f 2 13 6
f 2 6 3
f 3 6 7
f 4 8 9
f 4 9 10
f 5 11 12
f 5 12 13
f 6 13 24
f 6 24 36
f 6 36 45
f 6 45 41
f 6 41 32
f 6 32 19
f 6 19 30
f 6 30 29
f 6 29 28
f 6 28 27
f 6 27 40
f 6 40 39
f 6 39 37
f 6 37 25
f 6 25 14
f 6 14 7
f 8 15 16
f 8 16 17
f 8 17 18
f 8 18 9
f 9 18 19
f 9 19 20
f 9 20 21
f 9 21 10
f 10 21 22
f 11 23 35
f 11 35 24
f 11 24 13
f 11 13 12
f 15 26 16
f 16 27 28
f 16 28 29
f 16 29 30
f 16 30 17
f 16 26 31
f 16 31 27
f 17 30 18
f 18 30 19
f 19 32 33
f 19 33 22
f 19 22 21
f 19 21 20
f 23 34 35
f 24 35 36
f 25 37 38
f 26 38 37
f 26 37 39
f 26 39 31
f 27 31 40
f 31 39 40
f 32 41 42
f 32 42 33
f 33 42 41
f 33 41 43
f 33 43 44
f 34 44 43
f 34 43 36
f 34 36 35
f 36 43 45
f 41 45 43

