# https://github.com/mikedh/trimesh
v -0.02531398 0.01792432 -0.02002384
v -0.01899871 0.01615067 -0.02002384
v -0.02531398 0.02076382 -0.02218906
v -0.02531398 -0.01796086 -0.02002384
v -0.01899871 0.02058896 -0.02551801
v -0.01903086 0.02057647 -0.02547045
v -0.01899871 -0.01622468 -0.02002384
v -0.01899871 0.02084293 -0.02614184
v -0.01899871 0.02097616 -0.02663139
v -0.02531398 0.02076799 -0.02220444
v -0.02531398 -0.01991771 -0.02155824
v -0.02531398 -0.02096274 -0.02259049
v -0.02512109 -0.02094609 -0.02265483
v -0.02378879 -0.02082951 -0.02312620
v -0.01899871 -0.02085033 -0.02542989
v -0.01899871 0.02130924 -0.02825670
v -0.02531398 0.02118434 -0.02423259
v -0.02531398 0.02077215 -0.02222263
v -0.02531398 -0.02120839 -0.02442421
v -0.02512109 -0.02120006 -0.02442421
v -0.01899871 -0.02115843 -0.02660341
v -0.01899871 0.02131341 -0.02900222
v -0.02283177 0.02126344 -0.02671391
v -0.02531398 0.02119683 -0.02442421
v -0.02512109 0.02119266 -0.02442421
v -0.02531398 -0.02112512 -0.02670832
v -0.02512109 -0.02114177 -0.02671391
v -0.02283177 -0.02120839 -0.02671391
v -0.02054306 -0.02122088 -0.02671391
v -0.01899871 -0.02114177 -0.02906376
v -0.01899871 0.02100947 -0.03022190
v -0.02054306 0.02115936 -0.02900222
v -0.02512109 0.02114687 -0.02671391
v -0.02531398 0.02115519 -0.02652229
v -0.02531398 -0.02086698 -0.02813361
v -0.02512109 -0.02088780 -0.02817557
v -0.02283177 -0.02097523 -0.02867072
v -0.01899871 -0.02101270 -0.02954212
v -0.02143023 -0.02071293 -0.03009182
v -0.01899871 0.02087624 -0.03069187
v -0.02054306 0.02075133 -0.03044709
v -0.02512109 0.02075133 -0.02829866
v -0.02531398 0.02111772 -0.02671251
v -0.02531398 0.02075966 -0.02815599
v -0.02531398 -0.01945139 -0.02883857
v -0.01993843 -0.01905170 -0.03431315
v -0.01905621 -0.01956381 -0.03431315
v -0.01899871 -0.01959295 -0.03431315
v -0.01899871 0.01842394 -0.03431315
v -0.02190442 0.02055149 -0.03022050
v -0.02531398 0.02072635 -0.02825110
v -0.02015790 -0.01801082 -0.03431315
v -0.02531398 -0.01730303 -0.02913789
v -0.02205773 -0.00567022 -0.03431315
v -0.01938140 0.01812833 -0.03431315
v -0.02531398 0.01951894 -0.02888892
v -0.02035203 0.01710828 -0.03431315
v -0.02531398 -0.01501310 -0.02917566
v -0.02231740 -0.00127773 -0.03431315
v -0.02222899 -0.00356349 -0.03431315
v -0.02531398 0.01918169 -0.02893648
v -0.02203919 0.00745729 -0.03431315
v -0.02212080 0.00687024 -0.03431315
v -0.02531398 -0.01272318 -0.02918964
v -0.02233842 0.00100803 -0.03431315
v -0.02531398 0.01724567 -0.02913230
v -0.02224012 0.00558788 -0.03431315
v -0.02531398 0.01255757 -0.02918964
v -0.02233842 0.00235284 -0.03431315
v -0.02531398 0.01703750 -0.02913789
v -0.02229637 0.00459280 -0.03431315
v -0.02232296 0.00329796 -0.03431315
v -0.02531398 0.01487248 -0.02917566
f 1 2 3
f 1 3 10
f 1 10 18
f 1 18 17
f 1 17 24
f 1 24 34
f 1 34 43
f 1 43 44
f 1 44 51
f 1 51 56
f 1 56 61
f 1 61 66
f 1 66 70
f 1 70 73
f 1 73 68
f 1 68 64
f 1 64 58
f 1 58 53
f 1 53 45
f 1 45 35
f 1 35 26
f 1 26 19
f 1 19 12
f 1 12 11
f 1 11 4
f 1 4 7
f 1 7 2
f 2 5 6
f 2 6 3
f 2 7 15
f 2 15 21
f 2 21 30
f 2 30 38
f 2 38 48
f 2 48 49
f 2 49 40
f 2 40 31
f 2 31 22
f 2 22 16
f 2 16 9
f 2 9 8
f 2 8 5
f 3 5 8
f 3 8 9
f 3 9 10
f 3 6 5
f 4 11 7
f 7 11 12
f 7 12 13
f 7 13 14
f 7 14 15
f 9 16 17
f 9 17 18
f 9 18 10
f 12 19 20
f 12 20 21
f 12 21 15
f 12 15 13
f 13 15 14
f 16 22 23
f 16 23 24
f 16 24 25
f 16 25 17
f 17 25 24
f 19 26 27
f 19 27 28
f 19 28 29
f 19 29 21
f 19 21 20
f 21 29 30
f 22 31 32
f 22 32 33
f 22 33 34
f 22 34 23
f 23 34 24
f 26 35 36
f 26 36 27
f 27 30 28
f 27 36 37
f 27 37 30
f 28 30 29
f 30 37 39
f 30 39 38
f 31 40 41
f 31 41 32
f 32 41 42
f 32 42 33
f 33 43 34
f 33 42 44
f 33 44 43
f 35 45 46
f 35 46 47
f 35 47 48
f 35 48 36
f 36 48 39
f 36 39 37
f 38 39 48
f 40 49 41
f 41 49 50
f 41 50 42
f 42 50 51
f 42 51 44
f 45 52 46
f 45 53 54
f 45 54 52
f 46 52 54
f 46 54 60
f 46 60 59
f 46 59 65
f 46 65 69
f 46 69 72
f 46 72 71
f 46 71 67
f 46 67 63
f 46 63 62
f 46 62 57
f 46 57 55
f 46 55 49
f 46 49 48
f 46 48 47
f 49 55 51
f 49 51 50
f 51 55 57
f 51 57 56
f 53 58 59
f 53 59 60
f 53 60 54
f 56 57 62
f 56 62 63
f 56 63 61
f 58 64 65
f 58 65 59
f 61 63 67
f 61 67 66
f 64 68 69
f 64 69 65
f 66 67 71
f 66 71 72
f 66 72 70
f 68 73 69
f 69 73 70
f 69 70 72

