# https://github.com/mikedh/trimesh
v 0.01146132 0.03773747 -0.03431363
v 0.01146132 0.03773747 -0.03919061
v -0.00646106 0.03773747 -0.03431363
v 0.01146132 0.02453464 -0.03431363
v 0.01146132 0.02453464 -0.03919061
v -0.01193037 0.03773747 -0.03919061
v -0.00894486 0.03773747 -0.03557799
v -0.00838430 0.03609342 -0.03431363
v -0.01027657 0.02453464 -0.03431363
v -0.02017770 0.02453464 -0.03919061
v -0.01534327 0.03438086 -0.03919061
v -0.01195825 0.03773747 -0.03918822
v -0.01084642 0.03773747 -0.03665471
v -0.00916165 0.03542391 -0.03431363
v -0.01111895 0.03069596 -0.03431363
v -0.01956140 0.02453464 -0.03873652
v -0.01984013 0.02453464 -0.03890030
v -0.01762267 0.03077480 -0.03892847
v -0.01822968 0.02985713 -0.03919061
v -0.01730678 0.03214355 -0.03919061
v -0.01516984 0.03451399 -0.03899293
v -0.01189321 0.03773747 -0.03811819
v -0.01047168 0.03356659 -0.03431363
v -0.00982750 0.03463548 -0.03431363
v -0.01730058 0.03213968 -0.03916769
v -0.01070396 0.03306381 -0.03431363
v -0.01732845 0.03211382 -0.03919061
f 1 2 6
f 1 6 12
f 1 12 22
f 1 22 13
f 1 13 7
f 1 7 3
f 1 3 8
f 1 8 14
f 1 14 24
f 1 24 23
f 1 23 26
f 1 26 15
f 1 15 9
f 1 9 4
f 1 4 5
f 1 5 2
f 2 5 10
f 2 10 19
f 2 19 27
f 2 27 20
f 2 20 11
f 2 11 6
f 3 7 8
f 4 9 16
f 4 16 17
f 4 17 10
f 4 10 5
f 6 11 12
f 7 13 14
f 7 14 8
f 9 15 16
f 10 17 18
f 10 18 19
f 11 20 21
f 11 21 22
f 11 22 12
f 13 23 24
f 13 24 14
f 13 22 25
f 13 25 23
f 15 26 17
f 15 17 16
f 17 26 18
f 18 25 19
f 18 26 25
f 19 25 27
f 20 27 25
f 20 25 21
f 21 25 22
f 23 25 26

