# https://github.com/mikedh/trimesh
v 0.04486246 0.02643762 -0.01841198
v 0.04486246 0.03733406 -0.01966480
v 0.04380211 0.02643762 -0.01775496
v 0.04486246 0.02643762 -0.02970556
v 0.03239365 0.03733406 -0.02118407
v 0.03290078 0.03681457 -0.02087128
v 0.03213448 0.03308429 -0.01968301
v 0.03213448 0.03306402 -0.01967639
v 0.04129140 0.02643762 -0.01743224
v 0.04373981 0.02643762 -0.01771689
v 0.04486246 0.03733406 -0.02914452
v 0.04479144 0.02643762 -0.02973204
v 0.04486246 0.03077486 -0.02970225
v 0.03213448 0.03733406 -0.02126020
v 0.03213448 0.03543745 -0.02053532
v 0.03213448 0.03077486 -0.01933050
v 0.03896136 0.02643762 -0.01773013
v 0.04486246 0.03207731 -0.02963109
v 0.04412856 0.03733406 -0.02979824
v 0.03929156 0.03733406 -0.03173125
v 0.04127271 0.03733406 -0.03100803
v 0.03760072 0.02643762 -0.03235022
v 0.03216189 0.03733406 -0.03432957
v 0.03661014 0.03733406 -0.03270935
v 0.03778638 0.03733406 -0.03228071
v 0.04298348 0.03733406 -0.03036921
v 0.03213448 0.03733406 -0.03433950
v 0.03676091 0.02643762 -0.01831103
v 0.03213448 0.02643762 -0.01985678
v 0.03216563 0.02643762 -0.03432792
v 0.03213448 0.03535318 -0.03433950
v 0.03213448 0.02643762 -0.02128999
v 0.03213697 0.02643762 -0.03433785
v 0.03213448 0.02848570 -0.03433785
f 1 2 3
f 1 3 10
f 1 10 9
f 1 9 17
f 1 17 28
f 1 28 29
f 1 29 32
f 1 32 33
f 1 33 30
f 1 30 22
f 1 22 12
f 1 12 4
f 1 4 13
f 1 13 18
f 1 18 11
f 1 11 2
f 2 5 6
f 2 6 7
f 2 7 8
f 2 8 9
f 2 9 10
f 2 10 3
f 2 11 19
f 2 19 26
f 2 26 21
f 2 21 20
f 2 20 25
f 2 25 24
f 2 24 23
f 2 23 27
f 2 27 14
f 2 14 5
f 4 12 13
f 5 14 15
f 5 15 6
f 6 15 7
f 7 15 14
f 7 14 27
f 7 27 31
f 7 31 34
f 7 34 32
f 7 32 29
f 7 29 16
f 7 16 8
f 8 16 17
f 8 17 9
f 11 18 19
f 12 20 21
f 12 21 13
f 12 22 23
f 12 23 24
f 12 24 25
f 12 25 20
f 13 21 26
f 13 26 19
f 13 19 18
f 16 28 17
f 16 29 28
f 22 30 31
f 22 31 23
f 23 31 27
f 30 33 31
f 31 33 34
f 32 34 33

