# https://github.com/mikedh/trimesh
v -0.04811189 0.00331134 0.00982843
v -0.04811189 0.00037373 0.00982745
v -0.04811189 0.00559132 0.00982351
v -0.05030548 0.00559132 0.00916950
v -0.04865410 0.00037373 0.00965902
v -0.04811189 0.00037373 0.00445057
v -0.04811189 0.00877094 0.00918526
v -0.05142501 0.01133633 0.00877650
v -0.05146270 0.01133633 0.00877650
v -0.05030548 0.00788131 0.00915472
v -0.05145938 0.00559132 0.00877551
v -0.05145458 0.00442963 0.00877453
v -0.05098555 0.00037373 0.00891932
v -0.05146751 0.01016796 0.00877847
v -0.05146382 0.00788131 0.00877749
v -0.04811189 0.00461323 -0.00023387
v -0.05037349 0.00037373 0.00546015
v -0.05012327 0.00528587 -0.00023387
v -0.04868256 0.00478848 -0.00023387
v -0.04811189 0.00994597 0.00835198
v -0.04844379 0.00952703 0.00901190
v -0.05188738 0.01476130 0.00729513
v -0.05188738 0.01175861 0.00857754
v -0.05188738 0.01090570 0.00863171
v -0.05188738 0.00788131 0.00863171
v -0.05188738 0.00559132 0.00862186
v -0.05141207 0.00037373 0.00845836
v -0.05188738 0.01016796 0.00863368
v -0.04811189 0.01206405 -0.00023387
v -0.05187629 0.00037373 0.00632987
v -0.05188738 0.00604531 -0.00023387
v -0.05128899 0.00577492 -0.00023387
v -0.04811189 0.01035323 0.00794126
v -0.05146270 0.01587793 0.00646087
v -0.05188738 0.01545398 0.00690607
v -0.05188738 0.00410916 0.00825940
v -0.05179276 0.00037373 0.00762804
v -0.05188738 0.01354621 -0.00023387
v -0.05188738 0.01618170 0.00159617
v -0.05188738 0.01734673 0.00267963
v -0.05188738 0.01742518 0.00291601
v -0.04811189 0.01222595 0.00090473
v -0.05188738 0.00369356 0.00803384
v -0.05188738 0.00333470 0.00766054
v -0.05188738 0.00316779 0.00669529
v -0.05188738 0.00338645 0.00544341
v -0.04811189 0.01064366 0.00763494
v -0.05188738 0.01705798 0.00560199
v -0.05188738 0.01710137 0.00553402
v -0.05116629 0.01641871 0.00493419
v -0.04811189 0.01252973 0.00321051
v -0.04811189 0.01252472 0.00304997
v -0.04811189 0.01214250 0.00524051
f 1 2 6
f 1 6 16
f 1 16 29
f 1 29 42
f 1 42 52
f 1 52 51
f 1 51 53
f 1 53 47
f 1 47 33
f 1 33 20
f 1 20 7
f 1 7 3
f 1 3 4
f 1 4 2
f 2 5 13
f 2 13 27
f 2 27 37
f 2 37 30
f 2 30 17
f 2 17 6
f 2 4 5
f 3 7 8
f 3 8 9
f 3 9 10
f 3 10 4
f 4 11 12
f 4 12 13
f 4 13 5
f 4 10 9
f 4 9 14
f 4 14 15
f 4 15 11
f 6 17 18
f 6 18 19
f 6 19 16
f 7 20 21
f 7 21 8
f 8 21 22
f 8 22 9
f 9 22 23
f 9 23 24
f 9 24 14
f 11 15 25
f 11 25 12
f 12 25 26
f 12 26 13
f 13 26 27
f 14 24 28
f 14 28 25
f 14 25 15
f 16 19 18
f 16 18 32
f 16 32 31
f 16 31 38
f 16 38 29
f 17 30 31
f 17 31 32
f 17 32 18
f 20 33 34
f 20 34 21
f 21 34 35
f 21 35 22
f 22 35 48
f 22 48 49
f 22 49 41
f 22 41 40
f 22 40 39
f 22 39 38
f 22 38 31
f 22 31 46
f 22 46 45
f 22 45 44
f 22 44 43
f 22 43 36
f 22 36 26
f 22 26 25
f 22 25 28
f 22 28 24
f 22 24 23
f 26 36 37
f 26 37 27
f 29 38 39
f 29 39 40
f 29 40 41
f 29 41 42
f 30 37 43
f 30 43 44
f 30 44 45
f 30 45 46
f 30 46 31
f 33 47 34
f 34 48 35
f 34 47 48
f 36 43 37
f 41 49 50
f 41 50 51
f 41 51 52
f 41 52 42
f 47 53 49
f 47 49 48
f 49 53 50
f 50 53 51

