# https://github.com/mikedh/trimesh
v -0.09018751 -0.02841802 -0.07038656
v -0.09018751 -0.02732234 -0.07045775
v -0.09411257 -0.02841802 -0.06852793
v -0.09018751 -0.02841802 -0.07885970
v -0.09018751 -0.02209464 -0.07085948
v -0.09694529 -0.02233915 -0.06882033
v -0.09607740 -0.02841802 -0.06799526
v -0.09037973 -0.02841802 -0.07893089
v -0.09018751 -0.02209464 -0.07885970
v -0.09747478 -0.02209464 -0.06883813
v -0.09838410 -0.02417272 -0.06857878
v -0.09838410 -0.02646189 -0.06852793
v -0.09849114 -0.02841802 -0.06864616
v -0.09834151 -0.02209464 -0.06882160
v -0.09132129 -0.02209464 -0.07927287
v -0.09183350 -0.02841802 -0.07945975
v -0.09369820 -0.02646189 -0.08013861
v -0.09369820 -0.02209464 -0.08013861
v -0.09969859 -0.02209464 -0.06900467
v -0.09967212 -0.02417272 -0.06900467
v -0.09962377 -0.02646189 -0.06900721
v -0.09957658 -0.02782004 -0.06903009
v -0.09880423 -0.02841802 -0.06876439
v -0.09431515 -0.02841802 -0.08031024
v -0.09487917 -0.02791537 -0.08054161
v -0.09484233 -0.02646189 -0.08055432
v -0.09484233 -0.02209464 -0.08055432
v -0.10084618 -0.02209464 -0.06995178
v -0.09952018 -0.02841802 -0.07021366
v -0.10194429 -0.02209464 -0.07108322
v -0.10186025 -0.02313584 -0.07124595
v -0.09437386 -0.02841802 -0.08031024
v -0.09503686 -0.02791537 -0.08054161
v -0.09609467 -0.02417272 -0.08084291
v -0.09609467 -0.02209464 -0.08098148
v -0.09597957 -0.02209464 -0.08095478
v -0.10186025 -0.02313584 -0.07147987
v -0.09950177 -0.02841802 -0.07113789
v -0.10194429 -0.02209464 -0.07171633
v -0.09574245 -0.02841802 -0.07973562
v -0.09734240 -0.02555191 -0.08061153
v -0.09760484 -0.02417272 -0.08080477
v -0.09785117 -0.02209464 -0.08094207
v -0.10002204 -0.02650708 -0.07250961
v -0.09967097 -0.02793022 -0.07175065
v -0.09950177 -0.02284800 -0.07815286
v -0.09977456 -0.02361807 -0.07662731
v -0.09925429 -0.02429776 -0.07726677
v -0.09945227 -0.02514397 -0.07572597
v -0.09972967 -0.02577353 -0.07420170
v -0.09928422 -0.02841802 -0.07222230
v -0.09955586 -0.02209464 -0.07830160
v -0.09607395 -0.02841802 -0.07949788
v -0.09613841 -0.02841802 -0.07942033
v -0.09629956 -0.02841802 -0.07920549
v -0.09716859 -0.02841802 -0.07802700
v -0.09731133 -0.02777113 -0.07841348
v -0.09758988 -0.02637337 -0.07925380
v -0.09846352 -0.02417272 -0.07937075
v -0.09904365 -0.02209464 -0.07934151
v -0.09939357 -0.02730005 -0.07327747
v -0.09914954 -0.02209464 -0.07915718
v -0.09837834 -0.02646189 -0.07708117
v -0.09834381 -0.02841802 -0.07480683
v -0.09745635 -0.02841802 -0.07724262
v -0.09907933 -0.02209464 -0.07928176
v -0.09766009 -0.02841802 -0.07668579
f 1 2 3
f 1 3 7
f 1 7 13
f 1 13 23
f 1 23 29
f 1 29 38
f 1 38 51
f 1 51 64
f 1 64 67
f 1 67 65
f 1 65 56
f 1 56 55
f 1 55 54
f 1 54 53
f 1 53 40
f 1 40 32
f 1 32 24
f 1 24 16
f 1 16 8
f 1 8 4
f 1 4 9
f 1 9 5
f 1 5 2
f 2 5 3
f 3 6 7
f 3 5 6
f 4 8 9
f 5 10 6
f 5 9 15
f 5 15 18
f 5 18 27
f 5 27 36
f 5 36 35
f 5 35 43
f 5 43 60
f 5 60 66
f 5 66 62
f 5 62 52
f 5 52 39
f 5 39 30
f 5 30 28
f 5 28 19
f 5 19 14
f 5 14 10
f 6 10 7
f 7 11 12
f 7 12 13
f 7 10 14
f 7 14 11
f 8 15 9
f 8 16 17
f 8 17 18
f 8 18 15
f 11 14 19
f 11 19 12
f 12 19 20
f 12 20 21
f 12 21 22
f 12 22 13
f 13 22 23
f 16 24 25
f 16 25 26
f 16 26 17
f 17 26 27
f 17 27 18
f 19 28 20
f 20 28 21
f 21 28 22
f 22 29 23
f 22 28 30
f 22 30 31
f 22 31 29
f 24 32 33
f 24 33 25
f 25 33 34
f 25 34 35
f 25 35 36
f 25 36 26
f 26 36 27
f 29 31 37
f 29 37 38
f 30 39 37
f 30 37 31
f 32 40 33
f 33 40 41
f 33 41 42
f 33 42 34
f 34 42 43
f 34 43 35
f 37 44 45
f 37 45 38
f 37 39 46
f 37 46 47
f 37 47 48
f 37 48 49
f 37 49 50
f 37 50 44
f 38 45 51
f 39 52 46
f 40 53 41
f 41 53 54
f 41 54 55
f 41 55 56
f 41 56 57
f 41 57 58
f 41 58 59
f 41 59 42
f 42 59 60
f 42 60 43
f 44 50 61
f 44 61 45
f 45 61 51
f 46 52 62
f 46 62 59
f 46 59 48
f 46 48 47
f 48 59 58
f 48 58 57
f 48 57 63
f 48 63 49
f 49 63 61
f 49 61 50
f 51 61 64
f 56 65 63
f 56 63 57
f 59 62 66
f 59 66 60
f 61 63 67
f 61 67 64
f 63 65 67

