# https://github.com/mikedh/trimesh
v -0.05491553 0.00505283 -0.00305425
v -0.04811152 0.00328739 -0.00305425
v -0.05491553 0.00534575 -0.00023387
v -0.05491553 0.01343025 -0.00305425
v -0.04811152 0.00461296 -0.00023387
v -0.04811152 0.01194184 -0.00305425
v -0.05491553 0.01343025 -0.00023387
v -0.05092810 0.01343025 -0.00305425
v -0.04811152 0.01206496 -0.00023387
v -0.05184586 0.01343025 -0.00023387
f 1 2 3
f 1 3 7
f 1 7 4
f 1 4 8
f 1 8 6
f 1 6 2
f 2 5 3
f 2 6 9
f 2 9 5
f 3 5 9
f 3 9 10
f 3 10 7
f 4 7 10
f 4 10 8
f 6 8 9
f 8 10 9

