# https://github.com/mikedh/trimesh
v 0.01146132 -0.02406486 -0.03431363
v 0.01146132 -0.03791222 -0.03431363
v 0.01146132 -0.02406486 -0.03919061
v -0.01132260 -0.02406486 -0.03431363
v -0.00528032 -0.03791222 -0.03431363
v 0.01146132 -0.03791222 -0.03919061
v -0.02055527 -0.02406486 -0.03919061
v -0.02000995 -0.02406486 -0.03869833
v -0.01129126 -0.03101294 -0.03431363
v -0.00673448 -0.03700253 -0.03431363
v -0.01085251 -0.03791222 -0.03671917
v -0.01205282 -0.03791222 -0.03919061
v -0.02023247 -0.02496099 -0.03919061
v -0.01953986 -0.02679122 -0.03919061
v -0.01913871 -0.02784733 -0.03919061
v -0.01099354 -0.03349934 -0.03431363
v -0.00924165 -0.03534312 -0.03431363
v -0.01727714 -0.03239307 -0.03918536
v -0.01518365 -0.03483337 -0.03897336
v -0.01188358 -0.03791222 -0.03807140
v -0.01522439 -0.03485371 -0.03919061
v -0.01727714 -0.03239442 -0.03919061
f 1 2 6
f 1 6 3
f 1 3 7
f 1 7 8
f 1 8 4
f 1 4 9
f 1 9 16
f 1 16 17
f 1 17 10
f 1 10 5
f 1 5 2
f 2 5 11
f 2 11 20
f 2 20 12
f 2 12 6
f 3 6 12
f 3 12 21
f 3 21 22
f 3 22 15
f 3 15 14
f 3 14 13
f 3 13 7
f 4 8 9
f 5 10 11
f 7 13 8
f 8 13 14
f 8 14 15
f 8 15 16
f 8 16 9
f 10 17 11
f 11 17 16
f 11 16 18
f 11 18 19
f 11 19 20
f 12 20 21
f 15 22 18
f 15 18 16
f 18 22 21
f 18 21 19
f 19 21 20

