# https://github.com/mikedh/trimesh
v 0.01146041 0.01931194 -0.01681149
v 0.01146041 0.02847967 -0.01683635
v 0.00737347 0.01649485 -0.01681149
v 0.01146041 -0.01946658 -0.01681149
v 0.01146041 0.03057336 -0.01739042
v 0.00775981 0.03199235 -0.01861353
v 0.00740475 0.03076813 -0.01847786
v 0.00206497 0.01208488 -0.01681149
v 0.00571037 0.01517325 -0.01681149
v 0.00635979 0.01572275 -0.01681149
v 0.00621997 -0.01579392 -0.01681149
v 0.01146041 -0.02874560 -0.01683635
v 0.01146041 0.03201321 -0.01848303
v 0.00921963 0.03204104 -0.01851825
v 0.01146041 0.03544937 -0.02739172
v 0.00464241 0.03220102 -0.02043628
v 0.00310073 0.03204799 -0.02079047
v 0.00206497 0.03064292 -0.02059266
v 0.00626137 0.03076813 -0.01891904
v 0.00206497 -0.01200302 -0.01681149
v 0.00763747 -0.03103406 -0.01854207
v 0.01146041 -0.02878734 -0.01684463
v 0.00350547 0.03239578 -0.02739172
v 0.00206497 0.03192279 -0.02366855
v 0.00281282 0.03209668 -0.02213371
v 0.01146041 -0.03561096 -0.02739172
v 0.00206497 0.03177672 -0.02213371
v 0.00206497 0.03172803 -0.02176295
v 0.00206497 -0.02902383 -0.02028300
v 0.00206497 -0.03079061 -0.02067241
v 0.00807073 -0.03218176 -0.01869949
v 0.01146041 -0.03102711 -0.01770733
v 0.00206497 0.03176976 -0.02739172
v 0.00206497 0.03190192 -0.02442354
v 0.01146041 -0.03216089 -0.01889005
v 0.01045500 -0.03218872 -0.01869224
v 0.00921963 -0.03218872 -0.01869327
v 0.00464241 -0.03232783 -0.02064237
v 0.00336197 -0.03222349 -0.02091682
v 0.00206497 -0.03182702 -0.02443493
v 0.00206497 -0.03171572 -0.02739172
v 0.00206497 -0.03094363 -0.02086193
v 0.01146041 -0.03106884 -0.01772804
v 0.01146041 -0.03111753 -0.01777154
v 0.00206497 -0.03166008 -0.02212646
v 0.00206497 -0.03169486 -0.02227456
f 1 2 3
f 1 3 10
f 1 10 9
f 1 9 8
f 1 8 20
f 1 20 11
f 1 11 4
f 1 4 12
f 1 12 22
f 1 22 32
f 1 32 43
f 1 43 44
f 1 44 35
f 1 35 26
f 1 26 15
f 1 15 13
f 1 13 5
f 1 5 2
f 2 5 6
f 2 6 7
f 2 7 8
f 2 8 9
f 2 9 10
f 2 10 3
f 4 11 12
f 5 13 14
f 5 14 6
f 6 14 15
f 6 15 16
f 6 16 17
f 6 17 18
f 6 18 19
f 6 19 7
f 7 19 8
f 8 19 18
f 8 18 28
f 8 28 27
f 8 27 24
f 8 24 34
f 8 34 33
f 8 33 41
f 8 41 40
f 8 40 46
f 8 46 45
f 8 45 42
f 8 42 30
f 8 30 29
f 8 29 20
f 11 20 12
f 12 21 22
f 12 20 21
f 13 15 14
f 15 23 24
f 15 24 25
f 15 25 17
f 15 17 16
f 15 26 41
f 15 41 33
f 15 33 23
f 17 25 27
f 17 27 28
f 17 28 18
f 20 29 21
f 21 29 30
f 21 30 31
f 21 31 22
f 22 31 32
f 23 33 34
f 23 34 24
f 24 27 25
f 26 35 36
f 26 36 37
f 26 37 31
f 26 31 38
f 26 38 39
f 26 39 40
f 26 40 41
f 30 42 39
f 30 39 31
f 31 39 38
f 31 37 43
f 31 43 32
f 35 44 36
f 36 44 43
f 36 43 37
f 39 42 45
f 39 45 46
f 39 46 40

