# https://github.com/mikedh/trimesh
v -0.05491553 -0.00386895 0.00420828
v -0.05169139 -0.00479965 0.00420828
v -0.05169139 -0.00591080 -0.00023387
v -0.05491553 -0.00456935 0.00221287
v -0.05491553 -0.02362268 0.00420828
v -0.05169139 -0.01718610 0.00420828
v -0.05491553 -0.00543595 -0.00023387
v -0.05169139 -0.01336119 -0.00023387
v -0.05491553 -0.02712945 0.00084144
v -0.05369290 -0.02161407 0.00420828
v -0.05350954 -0.02123656 0.00420828
v -0.05361117 -0.02559568 -0.00005995
v -0.05355972 -0.02564317 -0.00023387
v -0.05349092 -0.02542711 -0.00023387
v -0.05313525 -0.02412127 -0.00023387
v -0.05169139 -0.01720034 0.00352039
v -0.05491553 -0.02812188 -0.00023387
v -0.05169139 -0.01720034 0.00326384
v -0.05491553 -0.02811713 -0.00022170
v -0.05395359 -0.02478844 0.00146628
v -0.05490764 -0.02811001 -0.00023387
f 1 2 3
f 1 3 4
f 1 4 7
f 1 7 17
f 1 17 19
f 1 19 9
f 1 9 5
f 1 5 10
f 1 10 11
f 1 11 6
f 1 6 2
f 2 6 16
f 2 16 18
f 2 18 8
f 2 8 3
f 3 7 4
f 3 8 15
f 3 15 14
f 3 14 13
f 3 13 21
f 3 21 17
f 3 17 7
f 5 9 10
f 6 11 12
f 6 12 13
f 6 13 14
f 6 14 15
f 6 15 16
f 8 18 15
f 9 19 12
f 9 12 20
f 9 20 10
f 10 20 12
f 10 12 11
f 12 19 13
f 13 19 21
f 15 18 16
f 17 21 19

