# https://github.com/mikedh/trimesh
v 0.03213492 0.02171428 -0.01681554
v 0.03665665 0.02101633 -0.01681554
v 0.03665665 0.02643656 -0.01834906
v 0.03213492 0.02643656 -0.01985685
v 0.03213492 -0.02173163 -0.01681554
v 0.03665665 -0.02001399 -0.01681554
v 0.03665665 0.02643656 -0.03269277
v 0.03213492 0.02643656 -0.02129088
v 0.03213492 -0.02413236 -0.01932166
v 0.03665665 -0.02413236 -0.01828388
v 0.03645480 0.02643656 -0.03276653
v 0.03665665 -0.02413236 -0.03269277
v 0.03213714 0.02643656 -0.03433779
v 0.03213492 0.02625341 -0.03433779
v 0.03213492 -0.02413236 -0.03433779
v 0.03213492 0.01938779 -0.03433950
v 0.03416937 0.02643656 -0.03359847
v 0.03645480 -0.02413236 -0.03276653
v 0.03216547 0.02643656 -0.03432750
v 0.03213492 -0.01959324 -0.03433950
v 0.03216547 -0.02413236 -0.03432750
v 0.03440442 -0.02413236 -0.03351271
f 1 2 3
f 1 3 4
f 1 4 8
f 1 8 14
f 1 14 16
f 1 16 20
f 1 20 15
f 1 15 9
f 1 9 5
f 1 5 6
f 1 6 2
f 2 6 10
f 2 10 12
f 2 12 7
f 2 7 3
f 3 7 11
f 3 11 17
f 3 17 19
f 3 19 13
f 3 13 8
f 3 8 4
f 5 9 10
f 5 10 6
f 7 12 18
f 7 18 11
f 8 13 14
f 9 15 21
f 9 21 22
f 9 22 18
f 9 18 12
f 9 12 10
f 11 16 17
f 11 18 20
f 11 20 16
f 13 19 16
f 13 16 14
f 15 20 21
f 16 19 17
f 18 22 20
f 20 22 21

