# https://github.com/mikedh/trimesh
v 0.08077586 -0.00356598 -0.01663669
v 0.08077586 -0.00240933 -0.01663669
v 0.08477619 0.00227819 -0.01518013
v 0.09452304 -0.00585470 -0.01163117
v 0.09433050 -0.00776116 -0.01170120
v 0.08439441 -0.00776116 -0.01531879
v 0.08117257 -0.00776116 -0.01649103
v 0.08077586 -0.00776116 -0.01663389
v 0.08077586 0.00227819 -0.01663389
v 0.08083230 0.00227819 -0.01661428
v 0.08251376 0.00227819 -0.01600365
v 0.08794657 0.00227819 -0.01402469
v 0.09772994 -0.00585470 -0.01046313
v 0.09772994 -0.00776116 -0.01046313
v 0.08077586 -0.00776116 -0.00862842
v 0.08077586 0.00227819 -0.00863683
v 0.09772994 0.00227819 -0.01032027
v 0.09773161 0.00227819 -0.00679792
v 0.09773161 -0.00776116 -0.00679792
v 0.08773245 -0.00127921 -0.00448984
v 0.08077586 -0.00756658 -0.00862842
v 0.09081984 -0.00776116 -0.00494221
v 0.09241498 -0.00259211 -0.00257111
v 0.08785196 0.00101050 -0.00458368
v 0.09048122 0.00227819 -0.00340583
v 0.09773161 0.00227819 -0.00233581
v 0.09773161 -0.00776116 -0.00246467
v 0.08935084 -0.00127921 -0.00378397
v 0.09225564 0.00101050 -0.00243385
v 0.09228220 0.00227819 -0.00248567
v 0.09176265 -0.00776116 -0.00459628
v 0.09234527 -0.00127921 -0.00248147
v 0.09773161 0.00175343 -0.00233301
v 0.09773161 -0.00122320 -0.00233021
v 0.09773161 0.00095448 -0.00233021
f 1 2 3
f 1 3 4
f 1 4 5
f 1 5 6
f 1 6 7
f 1 7 8
f 1 8 15
f 1 15 21
f 1 21 16
f 1 16 9
f 1 9 2
f 2 9 10
f 2 10 11
f 2 11 3
f 3 11 10
f 3 10 9
f 3 9 16
f 3 16 25
f 3 25 30
f 3 30 26
f 3 26 18
f 3 18 17
f 3 17 12
f 3 12 13
f 3 13 4
f 4 13 14
f 4 14 5
f 5 14 19
f 5 19 27
f 5 27 31
f 5 31 22
f 5 22 15
f 5 15 8
f 5 8 7
f 5 7 6
f 12 17 13
f 13 17 18
f 13 18 19
f 13 19 14
f 15 20 21
f 15 22 23
f 15 23 20
f 16 21 20
f 16 20 24
f 16 24 25
f 18 26 33
f 18 33 35
f 18 35 34
f 18 34 27
f 18 27 19
f 20 23 28
f 20 28 29
f 20 29 30
f 20 30 24
f 22 31 23
f 23 31 27
f 23 27 32
f 23 32 28
f 24 30 25
f 26 30 29
f 26 29 33
f 27 34 29
f 27 29 32
f 28 32 29
f 29 34 35
f 29 35 33

