# https://github.com/mikedh/trimesh
v -0.08215735 0.02390618 -0.07593913
v -0.08189222 0.02203828 -0.07584222
v -0.08215735 0.02203828 -0.07593726
v -0.08215735 0.02491968 -0.07593913
v -0.07560943 0.02491968 -0.07355567
v -0.07319879 0.02203828 -0.07267794
v -0.07531311 0.02203828 -0.07344758
v -0.08215735 0.02203828 -0.06793712
v -0.08215735 0.02491968 -0.06792967
v -0.05946353 0.02491968 -0.06767809
v -0.05946353 0.02203828 -0.06767809
v -0.05943011 0.02203828 -0.05948600
v -0.05939892 0.02491968 -0.05690315
v -0.05942788 0.02491968 -0.06766505
v -0.05939892 0.02203828 -0.06765386
v -0.05939892 0.02203828 -0.05947482
v -0.05939892 0.02491968 -0.06765386
f 1 2 3
f 1 3 8
f 1 8 9
f 1 9 4
f 1 4 5
f 1 5 6
f 1 6 7
f 1 7 2
f 2 7 6
f 2 6 11
f 2 11 15
f 2 15 16
f 2 16 12
f 2 12 8
f 2 8 3
f 4 9 13
f 4 13 17
f 4 17 14
f 4 14 10
f 4 10 5
f 5 10 11
f 5 11 6
f 8 12 13
f 8 13 9
f 10 14 11
f 11 14 15
f 12 16 13
f 13 16 15
f 13 15 17
f 14 17 15

