# https://github.com/mikedh/trimesh
v -0.04046501 -0.02163348 -0.04956099
v -0.03579779 -0.02163348 -0.04603153
v -0.03550711 -0.02070491 -0.04613555
v -0.02740065 -0.01731168 -0.04315361
v -0.02748519 -0.01731168 -0.04324393
v -0.03179944 -0.01731168 -0.04956099
v -0.02531546 -0.02163348 -0.04956099
v -0.02531546 -0.02163348 -0.04169812
v -0.02531546 -0.02126755 -0.04155217
v -0.02531546 -0.01958004 -0.04132316
v -0.02531546 -0.01733029 -0.04134010
v -0.02531546 -0.01731168 -0.04134332
v -0.02531546 -0.01731168 -0.04956099
f 1 2 3
f 1 3 4
f 1 4 5
f 1 5 6
f 1 6 13
f 1 13 7
f 1 7 8
f 1 8 2
f 2 8 9
f 2 9 10
f 2 10 11
f 2 11 12
f 2 12 3
f 3 12 4
f 4 12 13
f 4 13 6
f 4 6 5
f 7 13 12
f 7 12 11
f 7 11 10
f 7 10 9
f 7 9 8

