# https://github.com/mikedh/trimesh
v 0.11896179 0.00101031 0.00810278
v 0.11896179 0.00121469 0.00810164
v 0.11665409 0.00101031 0.00623448
v 0.11896179 -0.00127832 0.00808906
v 0.11896179 0.00227917 0.00805018
v 0.11665409 0.00227917 0.00620132
v 0.11665409 -0.00127832 0.00618646
v 0.11665409 -0.01947031 0.00443821
v 0.11896179 -0.01947031 0.00591662
v 0.11896179 0.00227917 -0.00154515
v 0.11665409 0.00227917 -0.00288863
v 0.11665409 -0.01947031 -0.00357581
v 0.11896179 -0.01947031 -0.00273657
v 0.11896179 -0.00508917 -0.00265881
v 0.11896179 -0.00585772 -0.00273657
v 0.11665409 -0.00568528 -0.00357010
v 0.11665409 -0.01484195 -0.00357696
v 0.11670222 -0.01947031 -0.00355866
v 0.11682558 -0.01947031 -0.00351407
v 0.11682558 -0.00585772 -0.00351407
v 0.11665409 -0.00797604 -0.00357696
v 0.11665409 -0.00585772 -0.00357581
f 1 2 3
f 1 3 4
f 1 4 9
f 1 9 13
f 1 13 15
f 1 15 14
f 1 14 10
f 1 10 5
f 1 5 2
f 2 5 6
f 2 6 3
f 3 6 11
f 3 11 16
f 3 16 22
f 3 22 21
f 3 21 17
f 3 17 12
f 3 12 8
f 3 8 7
f 3 7 4
f 4 7 8
f 4 8 9
f 5 10 11
f 5 11 6
f 8 12 18
f 8 18 19
f 8 19 13
f 8 13 9
f 10 14 11
f 11 14 15
f 11 15 16
f 12 17 18
f 13 19 17
f 13 17 21
f 13 21 15
f 15 20 16
f 15 21 20
f 16 20 22
f 17 19 18
f 20 21 22

