# https://github.com/mikedh/trimesh
v 0.06335750 -0.02417288 -0.00967660
v 0.06335750 -0.02634906 -0.01067337
v 0.06335750 -0.02231361 -0.01068381
v 0.05958849 -0.02226070 -0.01143008
v 0.05808593 -0.02258493 -0.01170319
v 0.05255812 -0.02204511 -0.01361671
v 0.05133947 -0.02204511 -0.01403594
v 0.05958849 -0.02417288 -0.01103520
v 0.05815571 -0.02546024 -0.01171537
v 0.05958849 -0.02574845 -0.01143878
v 0.05964503 -0.02779516 -0.01560503
v 0.06187781 -0.02779516 -0.01487789
v 0.06335750 -0.02779516 -0.01444996
v 0.05271571 -0.02779516 -0.01850662
v 0.06187781 -0.02221004 -0.01102650
v 0.06335750 -0.02204511 -0.01130309
v 0.06187781 -0.02204511 -0.01135702
v 0.05960894 -0.02204511 -0.01171537
v 0.05752052 -0.02204511 -0.01224768
v 0.05500984 -0.02204511 -0.01292784
v 0.05106880 -0.02204511 -0.01421164
v 0.05141166 -0.02318611 -0.01406204
v 0.05795962 -0.02417288 -0.01164753
v 0.05382007 -0.02533134 -0.01410031
v 0.05106880 -0.02779516 -0.01939727
v 0.06335750 -0.02779516 -0.02297381
v 0.06335750 -0.02204511 -0.02297381
v 0.05106880 -0.02341353 -0.01452128
v 0.05106880 -0.02204511 -0.02744796
v 0.05106880 -0.02381319 -0.01491616
v 0.05106880 -0.02779516 -0.02744622
v 0.06277164 -0.02779516 -0.02318777
v 0.06277164 -0.02204511 -0.02318777
v 0.05749646 -0.02204511 -0.02510825
v 0.05106880 -0.02238116 -0.02744796
v 0.05272052 -0.02779516 -0.02684607
v 0.06229405 -0.02779516 -0.02336173
v 0.05569917 -0.02779516 -0.02576232
v 0.05405466 -0.02779516 -0.02636073
f 1 2 13
f 1 13 26
f 1 26 27
f 1 27 16
f 1 16 3
f 1 3 4
f 1 4 5
f 1 5 6
f 1 6 7
f 1 7 8
f 1 8 9
f 1 9 10
f 1 10 2
f 2 11 12
f 2 12 13
f 2 10 14
f 2 14 11
f 3 15 4
f 3 16 17
f 3 17 15
f 4 15 18
f 4 18 19
f 4 19 20
f 4 20 6
f 4 6 5
f 6 20 19
f 6 19 18
f 6 18 17
f 6 17 16
f 6 16 27
f 6 27 33
f 6 33 34
f 6 34 29
f 6 29 21
f 6 21 7
f 7 21 22
f 7 22 8
f 8 22 23
f 8 23 9
f 9 23 22
f 9 22 24
f 9 24 25
f 9 25 14
f 9 14 10
f 11 14 25
f 11 25 31
f 11 31 36
f 11 36 39
f 11 39 38
f 11 38 37
f 11 37 32
f 11 32 26
f 11 26 13
f 11 13 12
f 15 17 18
f 21 28 22
f 21 29 35
f 21 35 31
f 21 31 25
f 21 25 30
f 21 30 28
f 22 28 24
f 24 28 30
f 24 30 25
f 26 32 33
f 26 33 27
f 29 34 35
f 31 35 36
f 32 37 33
f 33 37 34
f 34 38 35
f 34 37 38
f 35 38 39
f 35 39 36

