# https://github.com/mikedh/trimesh
v 0.01146132 0.01340288 -0.03431363
v 0.01146132 -0.01206684 -0.03431363
v 0.01146132 0.01340288 -0.03919061
v -0.01988220 0.01340288 -0.03431363
v 0.01146132 -0.01206684 -0.03919061
v -0.02058626 -0.01206684 -0.03431363
v -0.02147296 0.01340288 -0.03919061
v -0.02035379 0.01256519 -0.03431363
v -0.02146300 -0.01206684 -0.03919061
v -0.02106780 -0.01054105 -0.03431363
v -0.02148957 -0.01206684 -0.03917963
v -0.02234970 0.00330076 -0.03919061
v -0.02224011 0.00558944 -0.03431363
v -0.02211723 0.00687091 -0.03431363
v -0.02203753 0.00745679 -0.03431363
v -0.02171207 0.00890529 -0.03431363
v -0.02130027 0.01023662 -0.03431363
v -0.02047002 0.01231090 -0.03431363
v -0.02201096 -0.00815264 -0.03919061
v -0.02162904 -0.00814516 -0.03431363
v -0.02192129 -0.00647726 -0.03431363
v -0.02205413 -0.00566949 -0.03431363
v -0.02246594 0.00100958 -0.03919061
v -0.02229324 0.00459219 -0.03431363
v -0.02222683 -0.00356530 -0.03431363
v -0.02229657 -0.00430575 -0.03919061
v -0.02246261 0.00007217 -0.03919061
v -0.02233642 0.00100958 -0.03431363
v -0.02233642 0.00235587 -0.03431363
v -0.02231981 0.00330076 -0.03431363
v -0.02231649 -0.00127661 -0.03431363
v -0.02244269 -0.00220654 -0.03919061
v -0.02245597 -0.00127661 -0.03919061
f 1 2 5
f 1 5 3
f 1 3 7
f 1 7 4
f 1 4 8
f 1 8 18
f 1 18 17
f 1 17 16
f 1 16 15
f 1 15 14
f 1 14 13
f 1 13 24
f 1 24 30
f 1 30 29
f 1 29 28
f 1 28 31
f 1 31 25
f 1 25 22
f 1 22 21
f 1 21 20
f 1 20 10
f 1 10 6
f 1 6 2
f 2 6 11
f 2 11 9
f 2 9 5
f 3 5 9
f 3 9 19
f 3 19 26
f 3 26 32
f 3 32 33
f 3 33 27
f 3 27 23
f 3 23 12
f 3 12 7
f 4 7 8
f 6 10 11
f 7 12 13
f 7 13 14
f 7 14 15
f 7 15 16
f 7 16 17
f 7 17 18
f 7 18 8
f 9 11 19
f 10 20 11
f 11 20 21
f 11 21 22
f 11 22 19
f 12 23 24
f 12 24 13
f 19 22 25
f 19 25 26
f 23 27 28
f 23 28 29
f 23 29 30
f 23 30 24
f 25 31 32
f 25 32 26
f 27 33 28
f 28 33 31
f 31 33 32

